<?xml version="1.0" standalone="no"?>
<!DOCTYPE svg PUBLIC "-//W3C//DTD SVG 1.1//EN" "http://www.w3.org/Graphics/SVG/1.1/DTD/svg11.dtd" >
<svg xmlns="http://www.w3.org/2000/svg" xmlns:xlink="http://www.w3.org/1999/xlink" version="1.1">
<metadata>
Created by FontForge 20170731 at Wed Jun 28 20:11:19 2017
 By Aleksey,,,
Copyright (c) 2015 by Bold Studio. All rights reserved.
</metadata>
<defs>
<font id="BBRollerMonoProST-Medium" horiz-adv-x="1216" >
  <font-face 
    font-family="BB Roller Mono Pro ST Md"
    font-weight="500"
    font-stretch="normal"
    units-per-em="2048"
    panose-1="0 0 6 0 0 0 0 0 0 0"
    ascent="1638"
    descent="-410"
    x-height="1044"
    cap-height="1401"
    bbox="-170 -1237 2390 2404"
    underline-thickness="0"
    underline-position="0"
    unicode-range="U+0009-1F6E1"
  />
<missing-glyph 
d="M68 698q0 223 159.5 383t380.5 160q223 0 382 -159.5t159 -383t-159 -381t-382 -157.5q-221 0 -380.5 158.5t-159.5 379.5z" />
    <glyph glyph-name="uniFB01" unicode="fi" 
d="M70 756v196h206v86q0 158 112 269.5t269 111.5q133 0 235.5 -81t133.5 -205l-188 -56q-14 63 -64.5 104.5t-116.5 41.5q-76 0 -130 -54.5t-54 -130.5v-86h559v-952h-196v756h-363v-756h-197v756h-206z" />
    <glyph glyph-name="uniFB02" unicode="fl" 
d="M1090 197h55v-197h-53q-113 0 -192 79t-79 191v461h-368v-731h-197v731h-207v197h207v110q0 158 111.5 269.5t269.5 111.5t269.5 -111.5t111.5 -269.5v-770q0 -31 21.5 -51t50.5 -20zM453 928h368v110q0 76 -54 130.5t-130 54.5t-130 -54.5t-54 -130.5v-110z" />
    <glyph glyph-name=".notdef" 
d="M68 698q0 223 159.5 383t380.5 160q223 0 382 -159.5t159 -383t-159 -381t-382 -157.5q-221 0 -380.5 158.5t-159.5 379.5z" />
    <glyph glyph-name="glyph1" horiz-adv-x="0" 
 />
    <glyph glyph-name="glyph2" horiz-adv-x="681" 
 />
    <glyph glyph-name="uni0009" unicode="&#x9;" 
 />
    <glyph glyph-name="space" unicode=" " 
 />
    <glyph glyph-name="exclam" unicode="!" 
d="M510 473v928h197v-928h-197zM510 0v307h197v-307h-197z" />
    <glyph glyph-name="quotedbl" unicode="&#x22;" 
d="M330 866v535h192v-535h-192zM694 866v535h195v-535h-195z" />
    <glyph glyph-name="numbersign" unicode="#" 
d="M49 344v197h221v321h-221v197h221v342h197v-342h295v342h196v-342h209v-197h-209v-321h209v-197h-209v-344h-196v344h-295v-344h-197v344h-221zM467 541h295v321h-295v-321z" />
    <glyph glyph-name="dollar" unicode="$" 
d="M1036 362q0 -152 -103.5 -261t-250.5 -119v-160h-197v162q-123 10 -215 90t-123 196l189 56q14 -63 64.5 -105.5t117.5 -42.5h137q76 0 130.5 54.5t54.5 129.5q0 156 -176 224l-181 67q-307 121 -307 385q0 147 97.5 255t240.5 124v162h197v-164q113 -16 197.5 -94
t113.5 -188l-191 -56q-12 63 -62 104.5t-116 41.5h-96q-78 0 -131 -54.5t-53 -130.5q0 -66 38 -112.5t148 -89.5l180 -70q139 -57 218 -161t79 -243z" />
    <glyph glyph-name="percent" unicode="%" 
d="M362.5 915q-104.5 0 -178 74t-73.5 178.5t73.5 178t178 73.5t178 -73.5t73.5 -178t-73.5 -178.5t-178 -74zM166 0v127q0 131 88 262l530 696q31 39 48.5 86.5t19.5 73.5l2 27v129h197v-129q0 -164 -109 -305l-530 -697q-4 -4 -14.5 -20.5t-23 -53t-12.5 -69.5v-127h-196z
M362.5 1112q22.5 0 39 16.5t16.5 39t-16.5 39t-39 16.5t-39 -16.5t-16.5 -39t16.5 -39t39 -16.5zM854 -18q-104 0 -178 73.5t-74 178t74 178t178 73.5t178 -73.5t74 -178t-74 -178t-178 -73.5zM854 178q23 0 39 16.5t16 39t-16 39t-39 16.5t-39 -16.5t-16 -39t16 -39
t39 -16.5z" />
    <glyph glyph-name="ampersand" unicode="&#x26;" 
d="M1057 221l188 -55q-23 -82 -90.5 -133t-153.5 -51q-106 0 -179.5 74.5t-73.5 179.5v393h-250q-76 0 -130.5 -54.5t-54.5 -130.5v-63q0 -76 54.5 -130t130.5 -54h80v-197h-80q-158 0 -269.5 111.5t-111.5 269.5v63q0 96 48 174t130 121q-141 98 -141 271v28
q0 160 111.5 270.5t269.5 110.5h28q158 0 269.5 -110.5t111.5 -270.5v-213h215v-196h-215v-393q0 -23 17.5 -40.5t39.5 -17.5q42 4 56 43zM350 1038v-28q0 -76 54.5 -130.5t130.5 -54.5h213v213q0 76 -54.5 130.5t-130.5 54.5h-28q-76 0 -130.5 -54.5t-54.5 -130.5z" />
    <glyph glyph-name="quotesingle" unicode="'" 
d="M512 866v535h193v-535h-193z" />
    <glyph glyph-name="parenleft" unicode="(" 
d="M412 209v786q0 168 118.5 287t286.5 119h111v-197h-111q-86 0 -147.5 -61.5t-61.5 -147.5v-786q0 -86 61.5 -147.5t147.5 -61.5h111v-197h-111q-168 0 -286.5 119t-118.5 287z" />
    <glyph glyph-name="parenright" unicode=")" 
d="M805 209q0 -168 -119 -287t-287 -119h-110v197h110q86 0 147.5 61.5t61.5 147.5v786q0 86 -61.5 147.5t-147.5 61.5h-110v197h110q168 0 287 -119t119 -287v-786z" />
    <glyph glyph-name="asterisk" unicode="*" 
d="M510 1401h197v-262l249 82l62 -189l-250 -82l154 -211l-160 -116l-154 213l-153 -213l-160 116l154 211l-250 82l61 189l250 -82v262z" />
    <glyph glyph-name="plus" unicode="+" 
d="M188 494v196h322v322h197v-322h321v-196h-321v-322h-197v322h-322z" />
    <glyph glyph-name="comma" unicode="," 
d="M412 197h366v-203q0 -141 -87 -251t-220 -142l-57 188q74 16 121 73.5t47 137.5h-170v197z" />
    <glyph glyph-name="hyphen" unicode="-" 
d="M940 690v-196h-664v196h664z" />
    <glyph glyph-name="period" unicode="." 
d="M510 0v326h197v-326h-197z" />
    <glyph glyph-name="slash" unicode="/" 
d="M166 0v127q0 131 88 262l530 696q31 39 48.5 86.5t19.5 73.5l2 27v129h197v-129q0 -164 -109 -305l-530 -697q-4 -4 -14.5 -20.5t-23 -53t-12.5 -69.5v-127h-196z" />
    <glyph glyph-name="zero" unicode="0" 
d="M657 1419q158 0 269.5 -111.5t111.5 -269.5v-676q0 -158 -111.5 -269t-269.5 -111h-98q-158 0 -269.5 111.5t-111.5 268.5v676q0 158 111.5 269.5t269.5 111.5h98zM559 1223q-76 0 -130 -54.5t-54 -130.5v-434l465 467q-12 66 -63.5 109t-119.5 43h-98zM657 178
q76 0 130.5 54.5t54.5 129.5v433l-465 -463q10 -66 62.5 -110t119.5 -44h98z" />
    <glyph glyph-name="one" unicode="1" 
d="M203 1008l393 393h184v-1204h291v-197h-835v197h348v915l-244 -242z" />
    <glyph glyph-name="two" unicode="2" 
d="M221 1133q31 125 133.5 205.5t235.5 80.5h80q158 0 269.5 -111.5t111.5 -269.5q0 -154 -80 -248t-248 -180l-64 -30q-156 -74 -201.5 -144.5t-45.5 -159.5v-79h639v-197h-836v274q0 166 86 280t274 204l33 14q154 74 200 129t46 137q0 76 -54.5 130.5t-129.5 54.5h-80
q-66 0 -116 -41t-64 -105z" />
    <glyph glyph-name="three" unicode="3" 
d="M182 268l189 58q14 -63 64 -105.5t116 -42.5h76q78 0 131 54.5t53 129.5v123q0 76 -53 130.5t-131 54.5h-185v196l289 338h-528v197h784v-197l-287 -334l-10 -10q135 -23 226.5 -128t91.5 -247v-123q0 -158 -112 -269t-269 -111h-76q-133 0 -235.5 80.5t-133.5 205.5z
" />
    <glyph glyph-name="four" unicode="4" 
d="M209 342v250q0 172 84 323l274 496l172 -96l-274 -494q-59 -109 -59 -229v-53h368v309h197v-844h-197v338h-565z" />
    <glyph glyph-name="five" unicode="5" 
d="M639 922q158 0 269.5 -112t111.5 -269v-179q0 -158 -111.5 -269t-269.5 -111h-76q-133 0 -235.5 80.5t-134.5 205.5l190 56q12 -61 62.5 -103.5t117.5 -42.5h76q78 0 131 54.5t53 129.5v179q0 78 -53 131t-131 53h-43q-68 0 -119 -42t-63 -108l-199 62v764h762v-197h-565
v-366q94 84 223 84h4z" />
    <glyph glyph-name="six" unicode="6" 
d="M651 922q158 0 269.5 -112t111.5 -269v-179q0 -158 -111.5 -269t-269.5 -111h-73q-158 0 -269.5 111.5t-111.5 268.5v678q0 158 111.5 268.5t269.5 110.5h73q133 0 235.5 -81t133.5 -205l-189 -56q-14 63 -64 104.5t-116 41.5h-73q-78 0 -131.5 -54.5t-53.5 -130.5v-198
q102 82 234 82h24zM836 362v179q0 78 -53.5 131t-131.5 53h-73q-78 0 -131.5 -53.5t-53.5 -130.5v-179q0 -76 54.5 -130t130.5 -54h73q76 0 130.5 54t54.5 130z" />
    <glyph glyph-name="seven" unicode="7" 
d="M209 1014v387h823v-129q0 -158 -82 -305l-258 -467q-4 -4 -16 -33t-27.5 -86t-15.5 -111v-270h-197v270q0 76 21.5 157t37 116t25.5 51l258 467q31 59 47 141v2h-419v-190h-197z" />
    <glyph glyph-name="eight" unicode="8" 
d="M864 735q168 -104 168 -301v-72q0 -158 -111.5 -269t-269.5 -111h-86q-158 0 -269.5 111.5t-111.5 268.5v87q0 90 45 166.5t119 119.5q-145 106 -145 279v24q0 158 111.5 269.5t269.5 111.5h49q158 0 269.5 -111.5t111.5 -269.5v-26q0 -179 -150 -277zM399 1038v-24
q0 -123 181 -174l96 -29q61 16 101 65.5t40 114.5v47q0 76 -54 130.5t-130 54.5h-49q-76 0 -130.5 -54.5t-54.5 -130.5zM836 362v72q0 63 -38 105.5t-147 74.5l-119 37q-66 -12 -108.5 -63t-42.5 -119v-107q0 -76 53 -130t131 -54h86q76 0 130.5 54t54.5 130z" />
    <glyph glyph-name="nine" unicode="9" 
d="M639 1419q158 0 269.5 -111.5t111.5 -269.5v-678q0 -158 -111.5 -268t-269.5 -110h-74q-133 0 -235.5 80.5t-132.5 205.5l188 56q14 -63 64.5 -104.5t115.5 -41.5h74q78 0 131 54.5t53 129.5v199q-102 -82 -233 -82h-25q-158 0 -269.5 111.5t-111.5 269.5v178
q0 158 112 269.5t269 111.5h74zM639 676q78 0 131 53t53 131v178q0 76 -54 130.5t-130 54.5h-74q-76 0 -130 -54.5t-54 -130.5v-178q0 -78 53 -131t131 -53h74z" />
    <glyph glyph-name="colon" unicode=":" 
d="M510 578v325h197v-325h-197zM510 0v326h197v-326h-197z" />
    <glyph glyph-name="semicolon" unicode=";" 
d="M510 559v326h197v-326h-197zM412 197h366v-203q0 -141 -87 -251t-220 -142l-57 188q74 16 121 73.5t47 137.5h-170v197z" />
    <glyph glyph-name="less" unicode="&#x3c;" 
d="M981 340l-74 -182l-743 301v266l743 299l74 -180l-621 -252z" />
    <glyph glyph-name="equal" unicode="=" 
d="M188 682v197h840v-197h-840zM1028 502v-197h-840v197h840z" />
    <glyph glyph-name="greater" unicode="&#x3e;" 
d="M188 340l621 252l-621 252l74 180l744 -299v-266l-744 -301z" />
    <glyph glyph-name="question" unicode="?" 
d="M168 1135q33 125 135.5 204.5t235.5 79.5h92q158 0 269.5 -111.5t111.5 -269.5q0 -109 -58.5 -202t-160.5 -154q-117 -70 -117 -172v-37h-197v37q0 217 215 342q121 74 121 186q0 76 -54 130.5t-130 54.5h-92q-68 0 -117 -41t-64 -105zM479 0v307h197v-307h-197z" />
    <glyph glyph-name="at" unicode="@" 
d="M662 1233q158 0 270 -111.5t112 -269.5v-610q0 -106 -75.5 -183t-184.5 -77q-115 0 -182 94q-70 -94 -184 -94q-106 0 -183 76.5t-77 183.5v254q0 106 75.5 182t184.5 76q59 0 108 -39v30h150v-503q0 -45 31.5 -77t76.5 -32t77 32t32 77v610q0 96 -67.5 163.5
t-163.5 67.5h-134q-82 0 -145.5 -51t-79.5 -129l-145 43q33 125 135 206t235 81h134zM526 242v254q0 45 -31.5 76.5t-76.5 31.5t-77 -31.5t-32 -76.5v-254q0 -45 32 -77t77 -32t76.5 32t31.5 77z" />
    <glyph glyph-name="A" unicode="A" 
d="M1028 580l4 -19q4 -18 10.5 -49t12.5 -68.5t10 -86t4 -93.5v-264h-197v276q0 25 -2 39h-524q-2 -14 -2 -39v-276h-197v264q0 72 11.5 151t19.5 115.5t12 49.5l183 663q23 78 87 127t148 49t148.5 -49t87.5 -127zM377 512h465l-6 23l-179 651q-10 37 -49 37q-41 0 -47 -37
l-178 -651z" />
    <glyph glyph-name="B" unicode="B" 
d="M899 717q76 -43 120 -120t44 -167v-49q0 -158 -111.5 -269.5t-269.5 -111.5h-467v1401h455q158 0 269.5 -111.5t111.5 -269.5v-25q0 -180 -152 -278zM670 1204h-258v-393h258q76 0 130 54.5t54 129.5v25q0 78 -54 131t-130 53zM866 381v49q0 78 -54 131t-130 53h-270
v-417h270q76 0 130 54t54 130z" />
    <glyph glyph-name="C" unicode="C" 
d="M1042 1133l-188 -56q-14 61 -64.5 103.5t-115.5 42.5h-99q-76 0 -130 -54.5t-54 -130.5v-676q0 -76 54.5 -130t129.5 -54h99q66 0 116 42t64 106l188 -58q-33 -125 -135 -205.5t-233 -80.5h-99q-158 0 -269 111.5t-111 268.5v676q0 158 111.5 269.5t268.5 111.5h99
q131 0 233 -80.5t135 -205.5z" />
    <glyph glyph-name="D" unicode="D" 
d="M203 0v1401h454q158 0 269.5 -111.5t111.5 -269.5v-639q0 -158 -111.5 -269.5t-269.5 -111.5h-454zM399 197h258q76 0 130.5 53t54.5 131v639q0 78 -54.5 131t-130.5 53h-258v-1007z" />
    <glyph glyph-name="E" unicode="E" 
d="M221 0v1401h836v-197h-639v-405h577v-197h-577v-405h639v-197h-836z" />
    <glyph glyph-name="F" unicode="F" 
d="M264 0v1401h836v-197h-639v-430h577v-196h-577v-578h-197z" />
    <glyph glyph-name="G" unicode="G" 
d="M1036 1133l-190 -56q-12 61 -62.5 103.5t-115.5 42.5h-103q-78 0 -131 -54.5t-53 -130.5v-676q0 -76 53 -130t131 -54h99q78 0 131 54.5t53 129.5v240h-252v197h448v-437q0 -158 -111.5 -269t-268.5 -111h-99q-158 0 -269.5 111.5t-111.5 268.5v678q0 156 112 267.5
t269 111.5h103q131 0 234 -80.5t134 -205.5z" />
    <glyph glyph-name="H" unicode="H" 
d="M829 1401h197v-1401h-197v602h-442v-602h-197v1401h197v-602h442v602z" />
    <glyph glyph-name="I" unicode="I" 
d="M190 197h320v1007h-301v197h799v-197h-301v-1007h319v-197h-836v197z" />
    <glyph glyph-name="J" unicode="J" 
d="M233 1401h762v-1039q0 -158 -111.5 -269t-269.5 -111h-79q-133 0 -235.5 80.5t-133.5 205.5l188 56q12 -61 62.5 -103.5t118.5 -42.5h79q76 0 130.5 54.5t54.5 129.5v842h-566v197z" />
    <glyph glyph-name="K" unicode="K" 
d="M203 1401h196v-596h129l271 297q74 80 73 172v127h197v-129q0 -23 -4 -56.5t-35 -110.5t-86 -136l-244 -262l261 -273q55 -59 86.5 -137t35.5 -111.5t4 -56.5v-129h-196v129q0 90 -74 170l-291 309h-127v-608h-196v1401z" />
    <glyph glyph-name="L" unicode="L" 
d="M240 1401h196v-1204h621v-197h-817v1401z" />
    <glyph glyph-name="M" unicode="M" 
d="M129 0v1401h250l229 -725l232 725h247v-1401h-196v1053l-193 -611h-180l-192 611v-1053h-197z" />
    <glyph glyph-name="N" unicode="N" 
d="M160 1401h246l454 -1045v1045h197v-1401h-246l-455 1044v-1044h-196v1401z" />
    <glyph glyph-name="O" unicode="O" 
d="M559 -18q-158 0 -269.5 111.5t-111.5 268.5v676q0 158 111.5 269.5t269.5 111.5h98q158 0 269.5 -111.5t111.5 -269.5v-676q0 -158 -111.5 -269t-269.5 -111h-98zM559 178h98q76 0 130.5 54.5t54.5 129.5v676q0 76 -54.5 130.5t-130.5 54.5h-98q-76 0 -130 -54.5
t-54 -130.5v-676q0 -76 54 -130t130 -54z" />
    <glyph glyph-name="P" unicode="P" 
d="M240 0v1401h454q158 0 269.5 -111.5t111.5 -269.5v-125q0 -158 -111.5 -269.5t-269.5 -111.5h-258v-514h-196zM436 711h258q76 0 130.5 54t54.5 130v125q0 76 -54.5 130t-130.5 54h-258v-493z" />
    <glyph glyph-name="Q" unicode="Q" 
d="M657 1419q158 0 269.5 -111.5t111.5 -269.5v-676q0 -145 -95 -252.5t-236 -123.5v-342h-197v342q-141 16 -236.5 123.5t-95.5 252.5v676q0 158 111.5 269.5t269.5 111.5h98zM842 362v676q0 76 -54.5 130.5t-130.5 54.5h-98q-76 0 -130 -54.5t-54 -130.5v-676
q0 -76 54 -130t130 -54h98q76 0 130.5 54t54.5 130z" />
    <glyph glyph-name="R" unicode="R" 
d="M936 434q127 -133 127 -305v-129h-197v129q0 92 -73 170l-228 242h-159v-541h-197v1401h455q158 0 269 -111.5t111 -269.5v-98q0 -117 -65.5 -213.5t-171.5 -139.5zM406 1204v-467h258q78 0 131 53.5t53 131.5v98q0 78 -53.5 131t-130.5 53h-258z" />
    <glyph glyph-name="S" unicode="S" 
d="M147 270l189 56q14 -63 64.5 -105.5t117.5 -42.5h137q76 0 130.5 54.5t54.5 129.5q0 156 -176 224l-181 67q-307 121 -307 385q0 158 111.5 269.5t269.5 111.5h96q131 0 233.5 -81t135.5 -205l-191 -56q-12 63 -62 104.5t-116 41.5h-96q-78 0 -131 -54.5t-53 -130.5
q0 -66 38 -112.5t148 -89.5l180 -70q139 -57 218 -160.5t79 -243.5q0 -158 -111.5 -269t-269.5 -111h-137q-133 0 -235.5 81.5t-135.5 206.5z" />
    <glyph glyph-name="T" unicode="T" 
d="M166 1401h885v-197h-344v-1204h-197v1204h-344v197z" />
    <glyph glyph-name="U" unicode="U" 
d="M182 1401h197v-1039q0 -76 54 -130t130 -54h99q76 0 130 54.5t54 129.5v1039h196v-1039q0 -158 -111.5 -269t-268.5 -111h-99q-158 0 -269.5 111.5t-111.5 268.5v1039z" />
    <glyph glyph-name="V" unicode="V" 
d="M147 1401h197v-279q0 -111 45 -254l221 -645q197 582 219 645q45 131 45 254v279h197v-266q0 -66 -16.5 -163.5t-36.5 -154.5l-283 -817h-252l-282 817q-20 55 -37 153.5t-17 164.5v266z" />
    <glyph glyph-name="W" unicode="W" 
d="M113 1401h196v-275q0 -115 21 -252l84 -548l98 553h197l96 -547l82 542q20 123 20 254v273h197v-275q0 -143 -21 -284l-135 -842h-221l-117 614l-118 -614h-224l-133 842q-23 141 -22 284v275z" />
    <glyph glyph-name="X" unicode="X" 
d="M172 1401h197v-129q0 -33 17 -83t40 -79l182 -240l183 240q23 29 40 79t17 83v129h196v-129q0 -59 -28.5 -142t-71.5 -141l-215 -278l244 -322q12 -14 28.5 -42t39 -92.5t22.5 -127.5v-127h-197v127q0 33 -12 68.5t-25 54.5l-12 20l-209 279l-209 -279q-4 -4 -14 -20.5
t-22.5 -53t-12.5 -69.5v-127h-196v127q0 63 22.5 127.5t38.5 92.5t29 42l243 322l-215 278q-43 57 -71.5 140t-28.5 143v129z" />
    <glyph glyph-name="Y" unicode="Y" 
d="M1057 1112q0 -145 -88 -256l-262 -336v-520h-197v520l-260 336q-10 10 -28.5 39t-40 91.5t-21.5 125.5v289h196v-289q0 -33 12.5 -66.5t22.5 -51t15 -19.5l202 -262l205 262l6 8q4 8 10.5 20.5t13.5 29t12 38t5 41.5v289h197v-289z" />
    <glyph glyph-name="Z" unicode="Z" 
d="M207 1401h799v-197l-596 -1007h614v-197h-836v197l596 1007h-577v197z" />
    <glyph glyph-name="bracketleft" unicode="[" 
d="M406 -197v1598h516v-197h-320v-1204h320v-197h-516z" />
    <glyph glyph-name="backslash" unicode="\" 
d="M1051 0h-197v127q0 33 -12.5 69.5t-22.5 53t-14 20.5l-531 697q-109 141 -108 305v129h196v-129q2 -98 70 -187l531 -696q88 -131 88 -262v-127z" />
    <glyph glyph-name="bracketright" unicode="]" 
d="M811 -197h-516v197h319v1204h-319v197h516v-1598z" />
    <glyph glyph-name="asciicircum" unicode="^" 
d="M238 817l237 584h266l236 -584l-180 -74l-191 461l-186 -461z" />
    <glyph glyph-name="underscore" unicode="_" 
d="M209 -289v197h799v-197h-799z" />
    <glyph glyph-name="grave" unicode="`" 
d="M688 1155l-299 299l141 139l297 -297z" />
    <glyph glyph-name="a" unicode="a" 
d="M819 1044h197v-1044h-197v66q-100 -84 -233 -84h-25q-158 0 -269.5 111.5t-111.5 268.5v320q0 158 111.5 269.5t269.5 111.5h25q133 0 233 -84v65zM635 178q76 0 130 54.5t54 129.5v320q0 76 -53 130t-131 54h-74q-78 0 -131 -54t-53 -130v-320q0 -76 54 -130t130 -54h74
z" />
    <glyph glyph-name="b" unicode="b" 
d="M657 1063q158 0 269.5 -111.5t111.5 -269.5v-320q0 -158 -111.5 -269t-269.5 -111h-24q-133 0 -234 84v-66h-196v1401h196v-422q100 84 234 84h24zM842 362v320q0 76 -54.5 130t-130.5 54h-73q-76 0 -130.5 -54t-54.5 -130v-320q0 -76 54.5 -130t130.5 -54h73
q76 0 130.5 54t54.5 130z" />
    <glyph glyph-name="c" unicode="c" 
d="M209 362v320q0 158 111.5 269.5t269.5 111.5h78q133 0 235.5 -81t132.5 -206l-188 -55q-14 63 -64.5 104t-115.5 41h-78q-78 0 -131 -54t-53 -130v-320q0 -76 54 -130t130 -54h78q66 0 116 42t64 106l188 -58q-31 -125 -133 -205.5t-235 -80.5h-78q-156 0 -268.5 111
t-112.5 269z" />
    <glyph glyph-name="d" unicode="d" 
d="M817 1401h197v-1401h-197v66q-100 -84 -233 -84h-25q-158 0 -269.5 111.5t-111.5 268.5v320q0 158 111.5 269.5t269.5 111.5h25q133 0 233 -84v422zM633 178q76 0 130 54.5t54 129.5v320q0 76 -54 130t-130 54h-74q-76 0 -130 -54t-54 -130v-320q0 -76 54 -130t130 -54
h74z" />
    <glyph glyph-name="e" unicode="e" 
d="M578 1063h73q158 0 269.5 -111.5t111.5 -269.5v-227h-639v-93q0 -76 53.5 -130t131.5 -54h79q66 0 115 41t66 103l188 -56q-33 -123 -135.5 -203.5t-233.5 -80.5h-79q-156 0 -268.5 111.5t-112.5 268.5v320q0 158 111.5 269.5t269.5 111.5zM393 633h443v49
q0 76 -53.5 130t-131.5 54h-73q-78 0 -131.5 -54t-53.5 -130v-49z" />
    <glyph glyph-name="f" unicode="f" 
d="M190 0v197h234v559h-234v196h234v86q0 158 111.5 269.5t269.5 111.5h78q133 0 234.5 -81t133.5 -205l-188 -56q-14 63 -64.5 104.5t-115.5 41.5h-78q-76 0 -130 -54.5t-54 -130.5v-86h340v-196h-340v-559h423v-197h-854z" />
    <glyph glyph-name="g" unicode="g" 
d="M817 1044h197v-1038q0 -158 -110.5 -269.5t-268.5 -111.5h-78q-133 0 -235.5 81t-133.5 206l189 55q14 -61 64.5 -103t115.5 -42h78q76 0 129 54t53 130v123q-100 -84 -233 -84h-25q-158 0 -269.5 111.5t-111.5 269.5v256q0 158 111.5 269.5t269.5 111.5h25
q131 0 233 -82v63zM633 242q76 0 130 54t54 130v256q0 76 -54 130t-130 54h-74q-76 0 -130 -54t-54 -130v-256q0 -76 54 -130t130 -54h74z" />
    <glyph glyph-name="h" unicode="h" 
d="M651 1063q158 0 269.5 -111.5t111.5 -269.5v-682h-196v682q0 76 -53.5 130t-131.5 54h-73q-76 0 -130.5 -54t-54.5 -130v-682h-196v1401h196v-422q100 84 234 84h24z" />
    <glyph glyph-name="i" unicode="i" 
d="M553 1186v325h197v-325h-197zM270 1044h480v-847h325v-197h-872v197h350v651h-283v196z" />
    <glyph glyph-name="j" unicode="j" 
d="M653 1186v325h197v-325h-197zM229 1044h621v-1040q0 -158 -110.5 -268.5t-268.5 -110.5q-131 0 -231.5 79t-133.5 202l189 57q14 -61 63.5 -101t112.5 -40q76 0 129 53t53 129v844h-424v196z" />
    <glyph glyph-name="k" unicode="k" 
d="M221 1401h197v-787h168l178 152q33 29 52.5 65.5t23.5 61.5l2 22v129h196v-129q0 -25 -4 -58.5t-41 -109t-100 -131.5l-121 -98l162 -129q123 -123 123 -262v-127h-197v127q0 27 -13 54.5t-24.5 41t-15.5 15.5l-219 180h-170v-418h-197v1401z" />
    <glyph glyph-name="l" unicode="l" 
d="M1174 262q-33 -123 -134.5 -201.5t-232.5 -78.5q-156 0 -267.5 111.5t-111.5 266.5v844h-307v197h504v-1041q0 -76 53 -129t129 -53q66 0 115 41t65 103z" />
    <glyph glyph-name="m" unicode="m" 
d="M842 1063q115 0 195.5 -81t80.5 -196v-786h-196v762q0 43 -31 73.5t-74 30.5t-73.5 -30.5t-30.5 -73.5v-762h-197v762q0 43 -30.5 73.5t-73.5 30.5t-74 -30.5t-31 -73.5v-762h-196v1044h196v-43q66 61 156 62q113 0 178 -86q82 86 201 86z" />
    <glyph glyph-name="n" unicode="n" 
d="M651 1063q158 0 269.5 -111.5t111.5 -269.5v-682h-196v682q0 76 -53.5 130t-131.5 54h-73q-76 0 -130.5 -54t-54.5 -130v-682h-196v1044h196v-65q100 84 234 84h24z" />
    <glyph glyph-name="o" unicode="o" 
d="M571 1063h74q158 0 269.5 -111.5t111.5 -269.5v-320q0 -158 -111.5 -269t-269.5 -111h-74q-158 0 -269.5 111.5t-111.5 268.5v320q0 158 111.5 269.5t269.5 111.5zM571 866q-76 0 -130 -54t-54 -130v-320q0 -76 54.5 -130t129.5 -54h74q76 0 130 54.5t54 129.5v320
q0 76 -54 130t-130 54h-74z" />
    <glyph glyph-name="p" unicode="p" 
d="M657 1063q158 0 269.5 -111.5t111.5 -269.5v-320q0 -158 -111.5 -269t-269.5 -111h-24q-133 0 -234 84v-422h-196v1400h196v-65q100 84 234 84h24zM842 362v320q0 76 -54.5 130t-130.5 54h-73q-76 0 -130.5 -54t-54.5 -130v-320q0 -76 54.5 -130t130.5 -54h73
q76 0 130.5 54t54.5 130z" />
    <glyph glyph-name="q" unicode="q" 
d="M817 1044h197v-1400h-197v422q-100 -84 -233 -84h-25q-158 0 -269.5 111.5t-111.5 268.5v320q0 158 111.5 269.5t269.5 111.5h25q133 0 233 -84v65zM633 178q76 0 130 54.5t54 129.5v320q0 76 -54 130t-130 54h-74q-76 0 -130 -54t-54 -130v-320q0 -76 54 -130t130 -54
h74z" />
    <glyph glyph-name="r" unicode="r" 
d="M117 0v197h209v485q0 158 111.5 269.5t269.5 111.5h77q133 0 235.5 -81t133.5 -206l-188 -55q-14 63 -64.5 104t-116.5 41h-77q-76 0 -130.5 -54t-54.5 -130v-485h455v-197h-860z" />
    <glyph glyph-name="s" unicode="s" 
d="M193 209l188 57q10 -39 40 -63.5t71 -24.5h227q45 0 78.5 34t33.5 81q0 51 -33.5 83t-88.5 40l-203 26q-125 12 -210 101.5t-85 210.5q0 129 91 219t220 90h191q104 0 187 -63.5t112 -161.5l-189 -58q-8 39 -38.5 62.5t-71.5 23.5h-191q-47 0 -80.5 -32.5t-33.5 -79.5
q0 -49 35.5 -81t86.5 -36l209 -27q127 -18 208 -105t81 -212q0 -127 -91 -219t-218 -92h-227q-106 0 -188 63.5t-111 163.5z" />
    <glyph glyph-name="t" unicode="t" 
d="M113 848v196h282v283h197v-283h467v-196h-467v-488q0 -76 53 -129t129 -53q66 0 115 41t63 103l189 -60q-33 -121 -134.5 -200.5t-232.5 -79.5q-156 0 -267.5 111.5t-111.5 266.5v488h-282z" />
    <glyph glyph-name="u" unicode="u" 
d="M190 1044h197v-682q0 -76 54.5 -130t129.5 -54h74q76 0 130 54.5t54 129.5v682h197v-682q0 -158 -111.5 -269t-269.5 -111h-74q-158 0 -269.5 111.5t-111.5 268.5v682z" />
    <glyph glyph-name="v" unicode="v" 
d="M160 1044h196v-129q0 -109 52 -223l200 -452l201 452q51 115 51 223v129h197v-129q0 -147 -70 -303l-270 -612h-215l-275 612q-68 156 -67 303v129z" />
    <glyph glyph-name="w" unicode="w" 
d="M111 913v131h196v-131q0 -115 29 -241l72 -355l114 549h174l113 -549l74 355q27 129 26 241v131h197v-131q0 -145 -31 -284l-139 -629h-205l-123 586l-121 -586h-204l-140 629q-32 139 -32 284z" />
    <glyph glyph-name="x" unicode="x" 
d="M190 1044h197v-129q0 -10 3 -27.5t22.5 -54t52.5 -63.5l141 -115l146 117q78 61 77 143v129h197v-129q0 -78 -43 -160.5t-111 -138.5l-120 -94l166 -135q127 -102 126 -260v-127h-196v127q0 27 -12.5 53.5t-24.5 40.5l-14 12l-189 154l-186 -151q-53 -53 -53 -109v-127
h-197v127q0 70 33 135.5t54.5 88t39.5 36.5l164 133l-121 96q-66 53 -103.5 130t-43 112t-5.5 57v129z" />
    <glyph glyph-name="y" unicode="y" 
d="M164 1044h196v-131q0 -102 54 -202l198 -363l199 363q53 96 53 202v131h197v-131q0 -156 -78 -299l-448 -819q-37 -63 -106 -107t-153 -44h-172v196h172q35 0 57.5 19.5t28.5 34.5l138 251l-258 469q-78 143 -78 299v131z" />
    <glyph glyph-name="z" unicode="z" 
d="M233 1044h756v-196l-518 -651h537v-197h-793v197l520 651h-502v196z" />
    <glyph glyph-name="braceleft" unicode="{" 
d="M688 848q0 -152 -119 -246q119 -94 119 -246v-209q0 -61 43 -104t105 -43h172v-197h-172q-143 0 -243.5 100.5t-100.5 243.5v209q0 61 -43 104.5t-105 43.5h-37v196h37q61 0 104.5 43t43.5 105v209q0 143 100 243.5t244 100.5h172v-197h-172q-61 0 -104.5 -43t-43.5 -104
v-209z" />
    <glyph glyph-name="bar" unicode="|" 
d="M510 -197v1598h197v-1598h-197z" />
    <glyph glyph-name="braceright" unicode="}" 
d="M872 700h37v-196h-37q-61 0 -104 -43t-43 -105v-209q0 -143 -100.5 -243.5t-243.5 -100.5h-172v197h172q61 0 104 43t43 104v209q0 152 119 246q-119 94 -119 246v209q0 61 -43 104t-104 43h-172v197h172q143 0 243.5 -100.5t100.5 -243.5v-209q0 -61 43 -104.5
t104 -43.5z" />
    <glyph glyph-name="asciitilde" unicode="~" 
d="M201 463v37q0 113 79.5 191.5t190.5 78.5q90 0 156 -49q10 -8 31.5 -26.5t31.5 -25.5t25.5 -14.5t29.5 -7.5q31 0 52.5 22.5t21.5 51.5v37h197v-37q0 -111 -79 -190.5t-192 -79.5q-88 0 -153 51q-10 8 -30.5 24.5t-32 24.5t-28 15t-30.5 7q-31 0 -52.5 -20.5t-21.5 -52.5
v-37h-196z" />
    <glyph glyph-name="uni00A0" unicode="&#xa0;" 
 />
    <glyph glyph-name="exclamdown" unicode="&#xa1;" 
d="M510 1044h197v-307h-197v307zM510 571h197v-927h-197v927z" />
    <glyph glyph-name="cent" unicode="&#xa2;" 
d="M668 356q66 0 116 42t64 106l188 -58q-29 -111 -113.5 -188.5t-197.5 -93.5v-164h-197v164q-137 23 -228 130t-91 247v319q0 141 91 247.5t228 129.5v164h197v-164q113 -16 198 -94t113 -189l-188 -55q-14 63 -64.5 104t-115.5 41h-78q-78 0 -131 -53t-53 -131v-319
q0 -76 54 -130.5t130 -54.5h78z" />
    <glyph glyph-name="sterling" unicode="&#xa3;" 
d="M961 301l188 -57q-29 -106 -118 -175t-202 -69h-686v197h21q57 0 96 39.5t39 95.5v270h-156v197h156v241q0 158 111.5 268.5t269.5 110.5q133 0 235.5 -81t133.5 -205l-189 -56q-14 61 -64.5 103.5t-115.5 42.5q-76 0 -130 -54.5t-54 -130.5v-239h395v-197h-395v-223
q0 -102 -62 -182h395q47 0 84.5 28.5t47.5 75.5z" />
    <glyph glyph-name="currency" unicode="&#xa4;" 
d="M1018 635q0 -104 -51 -191l163 -161l-139 -140l-164 162q-86 -51 -190 -51h-57q-104 0 -191 51l-162 -162l-139 140l162 161q-51 86 -51 191v57q0 104 51 191l-162 161l139 140l162 -162q86 51 191 51h57q104 0 190 -51l164 162l139 -140l-163 -161q51 -86 51 -191v-57z
M580 451h57q76 0 130 53t54 131v57q0 76 -54 130.5t-130 54.5h-57q-76 0 -130.5 -54.5t-54.5 -130.5v-57q0 -78 54.5 -131t130.5 -53z" />
    <glyph glyph-name="yen" unicode="&#xa5;" 
d="M1057 1112q0 -145 -88 -256l-25 -31h88v-196h-241l-80 -103h321v-196h-325v-330h-197v330h-324v196h320l-80 103h-240v196h88l-24 31q-10 10 -28.5 39t-40 91.5t-21.5 125.5v289h196v-289q0 -33 12.5 -66.5t22.5 -51t15 -19.5l202 -262l205 262l6 8q4 8 10.5 20.5
t13.5 29t12 38t5 41.5v289h197v-289z" />
    <glyph glyph-name="brokenbar" unicode="&#xa6;" 
d="M510 731v670h197v-670h-197zM510 -197v670h197v-670h-197z" />
    <glyph glyph-name="section" unicode="&#xa7;" 
d="M1020 1133l-189 -56q-14 63 -64 104.5t-116 41.5h-82q-78 0 -131 -54.5t-53 -130.5q0 -145 197 -196l168 -43q186 -45 273 -152.5t87 -240.5q0 -145 -100 -256q27 -72 26 -144q0 -158 -111.5 -269.5t-269.5 -111.5h-84q-133 0 -235.5 81t-132.5 206l188 55
q12 -63 63.5 -104t116.5 -41h84q76 0 130.5 54t54.5 130q0 150 -201 197l-166 41q-188 49 -273 155.5t-85 239.5q0 150 98 258q-25 63 -25 141q0 158 112 269.5t269 111.5h82q133 0 235.5 -80.5t133.5 -205.5zM311 639q0 -25 4 -43t21.5 -52t65 -61.5t120.5 -46.5l166 -43
q113 -27 195 -88q31 47 30 101q0 25 -4 43t-21.5 52t-64.5 61.5t-121 45.5l-167 41q-121 35 -195 90q-29 -45 -29 -100z" />
    <glyph glyph-name="dieresis" unicode="&#xa8;" 
d="M326 1198v326h196v-326h-196zM694 1198v326h197v-326h-197z" />
    <glyph glyph-name="copyright" unicode="&#xa9;" 
d="M152 580v241q0 188 134 322.5t322.5 134.5t322.5 -134t134 -323v-241q0 -188 -134 -322.5t-322.5 -134.5t-322.5 134.5t-134 322.5zM270 580q0 -139 99.5 -238.5t239 -99.5t238.5 99t99 239v241q0 139 -99 238.5t-238.5 99.5t-239 -99t-99.5 -239v-241zM803 877l-115 -33
q-6 41 -51 41h-41q-20 0 -35.5 -14.5t-15.5 -34.5v-265q0 -20 15 -35.5t36 -15.5h41q43 0 51 43l115 -35q-16 -55 -61.5 -91t-104.5 -36h-41q-70 0 -119 50.5t-49 119.5v265q0 70 49 120t119 50h41q59 0 104.5 -36t61.5 -93z" />
    <glyph glyph-name="ordfeminine" unicode="&#xaa;" 
d="M330 999v177q0 100 68.5 168.5t166.5 68.5h8q68 0 123 -39v27h152v-627h-152v29q-57 -41 -123 -41h-8q-98 0 -166.5 69.5t-68.5 167.5zM479 999q0 -35 25.5 -60.5t60.5 -25.5h45q35 0 60.5 26t25.5 60v177q0 37 -25.5 62.5t-60.5 25.5h-45q-35 0 -60.5 -26t-25.5 -62
v-177zM350 621h490v-150h-490v150z" />
    <glyph glyph-name="guillemotleft" unicode="&#xab;" 
d="M96 592l422 422l135 -137l-284 -285l284 -283l-135 -135zM563 592l422 422l135 -137l-284 -285l284 -283l-135 -135z" />
    <glyph glyph-name="logicalnot" unicode="&#xac;" 
d="M166 596v197h842v-510h-197v313h-645z" />
    <glyph glyph-name="registered" unicode="&#xae;" 
d="M152 580v241q0 188 134 322.5t322.5 134.5t322.5 -134t134 -323v-241q0 -188 -134 -322.5t-322.5 -134.5t-322.5 134.5t-134 322.5zM270 580q0 -139 99.5 -238.5t239 -99.5t238.5 99t99 239v241q0 139 -99 238.5t-238.5 99.5t-239 -99t-99.5 -239v-241zM436 999h199
q70 0 120 -49t50 -119v-40q0 -98 -86 -150l35 -35q57 -61 57 -141v-53h-119v53q0 35 -24 59l-93 97h-20v-209h-119v587zM555 881v-142h80q20 0 35.5 15.5t15.5 36.5v40q0 20 -15.5 35t-35.5 15h-80z" />
    <glyph glyph-name="macron" unicode="&#xaf;" 
d="M307 1204v197h602v-197h-602z" />
    <glyph glyph-name="degree" unicode="&#xb0;" 
d="M276 1087.5q0 137.5 97.5 234.5t234.5 97t234.5 -97t97.5 -234.5t-97.5 -234.5t-234.5 -97t-234.5 97t-97.5 234.5zM473 1087.5q0 -55.5 40 -95.5t95 -40q57 0 96 40t39 95.5t-38.5 95.5t-96.5 40q-55 0 -95 -40t-40 -95.5z" />
    <glyph glyph-name="plusminus" unicode="&#xb1;" 
d="M188 649v197h322v227h197v-227h321v-197h-321v-227h-197v227h-322zM188 119v196h840v-196h-840z" />
    <glyph glyph-name="uni00B2" unicode="&#xb2;" 
d="M350 1589q20 80 84 130t148 50h51q98 0 167.5 -69.5t69.5 -167.5q0 -102 -47 -159.5t-155 -115.5l-43 -22q-76 -35 -98.5 -67.5t-24.5 -80.5v-22h368v-150h-518v146q0 117 47 187.5t160 123.5l16 10q96 45 120 72t24 78q0 37 -25.5 61.5t-60.5 24.5h-51q-70 0 -88 -70z
" />
    <glyph glyph-name="uni00B3" unicode="&#xb3;" 
d="M338 1085l143 41q8 -31 32 -50t54 -19h47q37 0 62.5 24.5t25.5 61.5v65q0 37 -25.5 62.5t-62.5 25.5h-125v150l152 164h-289v149h486v-149l-150 -158l-12 -12q78 -20 127 -84t49 -148v-65q0 -98 -68.5 -168t-169.5 -70h-47q-82 0 -146.5 51t-82.5 129z" />
    <glyph glyph-name="acute" unicode="&#xb4;" 
d="M528 1155l-139 141l297 297l141 -139z" />
    <glyph glyph-name="uni00B5" unicode="&#xb5;" 
d="M1073 197h55v-197h-53q-141 0 -223 119q-94 -137 -260 -137h-14q-121 0 -216 84v-422h-196v1400h196v-682q0 -76 54.5 -130t130.5 -54h74q76 0 130 54.5t54 129.5v682h196v-776q0 -29 21.5 -50t50.5 -21z" />
    <glyph glyph-name="paragraph" unicode="&#xb6;" 
d="M156 840v184q0 156 111.5 267.5t269.5 111.5h473v-1759h-197v1562h-276q-76 0 -130.5 -54t-54.5 -130v-182q0 -76 54.5 -130.5t130.5 -54.5h149v-196h-149q-158 0 -269.5 111.5t-111.5 269.5z" />
    <glyph glyph-name="periodcentered" unicode="&#xb7;" 
d="M510 428v326h197v-326h-197z" />
    <glyph glyph-name="cedilla" unicode="&#xb8;" 
d="M723 -92q80 -29 129 -100.5t49 -157.5q0 -115 -81 -196t-195 -81h-99v197h99q35 0 57.5 22.5t22.5 57.5t-23 57.5t-57 22.5h-99v270h197v-92z" />
    <glyph glyph-name="uni00B9" unicode="&#xb9;" 
d="M330 1509l248 248h135v-692h166v-150h-521v150h205v467l-129 -127z" />
    <glyph glyph-name="ordmasculine" unicode="&#xba;" 
d="M350 1001v177q0 96 69.5 165.5t166.5 69.5h45q98 0 167.5 -69.5t69.5 -165.5v-177q0 -98 -69.5 -167.5t-167.5 -69.5h-45q-96 0 -166 69.5t-70 167.5zM500 1001q0 -37 25.5 -62.5t60.5 -25.5h45q37 0 61.5 26t24.5 62v177q0 35 -24.5 60.5t-61.5 25.5h-45
q-35 0 -60.5 -26t-25.5 -60v-177zM365 471v150h489v-150h-489z" />
    <glyph glyph-name="guillemotright" unicode="&#xbb;" 
d="M655 592l-422 -418l-135 135l285 283l-285 285l135 137zM1120 592l-422 -418l-135 135l285 283l-285 285l135 137z" />
    <glyph glyph-name="onequarter" unicode="&#xbc;" 
d="M330 1509l248 248h135v-692h166v-150h-521v150h205v467l-129 -127zM129 776h958v-149h-958v149zM373 -166v162q0 109 53 203l166 299l129 -74l-164 -297q-35 -59 -35 -127v-16h174v170h152v-510h-152v190h-323z" />
    <glyph glyph-name="onehalf" unicode="&#xbd;" 
d="M330 1509l248 248h135v-692h166v-150h-521v150h205v467l-129 -127zM129 776h958v-149h-958v149zM350 317q20 80 84 130.5t148 50.5h51q98 0 167.5 -70t69.5 -168q0 -102 -47 -159.5t-155 -114.5l-43 -23q-76 -35 -98.5 -67.5t-24.5 -79.5v-23h368v-149h-518v145
q0 117 47 187.5t160 123.5l16 11q96 45 120 71.5t24 77.5q0 37 -25.5 61.5t-60.5 24.5h-51q-70 0 -88 -70z" />
    <glyph glyph-name="threequarters" unicode="&#xbe;" 
d="M338 1085l143 41q8 -31 32 -50t54 -19h47q37 0 62.5 24.5t25.5 61.5v65q0 37 -25.5 62.5t-62.5 25.5h-125v150l152 164h-289v149h486v-149l-150 -158l-12 -12q78 -20 127 -84t49 -148v-65q0 -98 -68.5 -168t-169.5 -70h-47q-82 0 -146.5 51t-82.5 129zM129 776h958v-149
h-958v149zM373 -166v162q0 109 53 203l166 299l129 -74l-164 -297q-35 -59 -35 -127v-16h174v170h152v-510h-152v190h-323z" />
    <glyph glyph-name="questiondown" unicode="&#xbf;" 
d="M737 1044v-307h-196v307h196zM1049 -90q-33 -125 -135.5 -205t-235.5 -80h-92q-158 0 -269.5 111.5t-111.5 269.5q0 109 58.5 202t160.5 154q117 70 117 173v36h196v-36q0 -217 -215 -342q-121 -74 -121 -187q0 -76 54.5 -130t130.5 -54h92q68 0 117 41t63 104z" />
    <glyph glyph-name="Agrave" unicode="&#xc0;" 
d="M752 1653l-140 -142l-299 299l142 140zM1028 580l4 -19q4 -18 10.5 -49t12.5 -68.5t10 -86t4 -93.5v-264h-197v276q0 25 -2 39h-524q-2 -14 -2 -39v-276h-197v264q0 72 11.5 151t19.5 115.5t12 49.5l183 663q23 78 87 127t148 49t148.5 -49t87.5 -127zM377 512h465l-6 23
l-179 651q-10 37 -49 37q-41 0 -47 -37l-178 -651z" />
    <glyph glyph-name="Aacute" unicode="&#xc1;" 
d="M901 1810l-299 -299l-139 142l297 297zM1028 580l4 -19q4 -18 10.5 -49t12.5 -68.5t10 -86t4 -93.5v-264h-197v276q0 25 -2 39h-524q-2 -14 -2 -39v-276h-197v264q0 72 11.5 151t19.5 115.5t12 49.5l183 663q23 78 87 127t148 49t148.5 -49t87.5 -127zM377 512h465l-6 23
l-179 651q-10 37 -49 37q-41 0 -47 -37l-178 -651z" />
    <glyph glyph-name="Acircumflex" unicode="&#xc2;" 
d="M608 1686l-196 -197l-140 139l254 254h164l254 -254l-139 -139zM1028 580l4 -19q4 -18 10.5 -49t12.5 -68.5t10 -86t4 -93.5v-264h-197v276q0 25 -2 39h-524q-2 -14 -2 -39v-276h-197v264q0 72 11.5 151t19.5 115.5t12 49.5l183 663q23 78 87 127t148 49t148.5 -49
t87.5 -127zM377 512h465l-6 23l-179 651q-10 37 -49 37q-41 0 -47 -37l-178 -651z" />
    <glyph glyph-name="Atilde" unicode="&#xc3;" 
d="M397 1606v-37h-196v37q0 113 79.5 191.5t190.5 78.5q90 0 156 -49q10 -8 31.5 -26.5t31.5 -26t25.5 -14.5t29.5 -7q31 0 52.5 22.5t21.5 51.5v37h197v-37q0 -111 -79 -191t-192 -80q-88 0 -153 52q-10 8 -30.5 24.5t-32 24.5t-28 15t-30.5 7q-31 0 -52.5 -20t-21.5 -53z
M1028 580l4 -19q4 -18 10.5 -49t12.5 -68.5t10 -86t4 -93.5v-264h-197v276q0 25 -2 39h-524q-2 -14 -2 -39v-276h-197v264q0 72 11.5 151t19.5 115.5t12 49.5l183 663q23 78 87 127t148 49t148.5 -49t87.5 -127zM377 512h465l-6 23l-179 651q-10 37 -49 37q-41 0 -47 -37
l-178 -651z" />
    <glyph glyph-name="Adieresis" unicode="&#xc4;" 
d="M522 1868v-326h-196v326h196zM891 1868v-326h-197v326h197zM1028 580l4 -19q4 -18 10.5 -49t12.5 -68.5t10 -86t4 -93.5v-264h-197v276q0 25 -2 39h-524q-2 -14 -2 -39v-276h-197v264q0 72 11.5 151t19.5 115.5t12 49.5l183 663q23 78 87 127t148 49t148.5 -49t87.5 -127
zM377 512h465l-6 23l-179 651q-10 37 -49 37q-41 0 -47 -37l-178 -651z" />
    <glyph glyph-name="Aring" unicode="&#xc5;" 
d="M1028 580l4 -19q4 -18 10.5 -49t12.5 -68.5t10 -86t4 -93.5v-264h-197v276q0 25 -2 39h-524q-2 -14 -2 -39v-276h-197v264q0 72 11.5 151t19.5 115.5t12 49.5l183 663q12 39 33 70q-74 80 -74 186q0 115 81 196t195.5 81t195.5 -81t81 -196q0 -106 -74 -186
q20 -31 33 -70zM608 1579q-35 0 -57.5 -23.5t-22.5 -56.5t23.5 -56.5t56.5 -23.5t56.5 23.5t23.5 56.5t-22.5 56.5t-57.5 23.5zM377 512h465l-6 23l-179 651q-10 37 -49 37q-41 0 -47 -37l-178 -651z" />
    <glyph glyph-name="AE" unicode="&#xc6;" 
d="M1075 1204h-289v-405h228v-197h-228v-405h289v-197h-485v313h-268q-2 -12 -3 -37v-276h-196v264q0 72 11 151t19.5 115.5t12.5 49.5l182 663q23 78 87.5 127t148.5 49q51 0 92 -18h399v-197zM352 510h238v713h-6q-41 0 -47 -37l-179 -651z" />
    <glyph glyph-name="Ccedilla" unicode="&#xc7;" 
d="M674 178q66 0 116 42t64 106l188 -58q-31 -117 -123 -195.5t-212 -88.5v-76q80 -29 129 -100.5t49 -157.5q0 -115 -81 -196t-196 -81h-98v197h98q35 0 57.5 22.5t22.5 57.5t-22.5 57.5t-57.5 22.5h-98v258q-135 23 -225 128t-90 246v676q0 158 111.5 269.5t268.5 111.5
h99q131 0 233.5 -81t134.5 -205l-188 -56q-14 61 -64.5 103.5t-115.5 42.5h-99q-76 0 -130 -54.5t-54 -130.5v-676q0 -76 54.5 -130t129.5 -54h99z" />
    <glyph glyph-name="Egrave" unicode="&#xc8;" 
d="M635 1511l-299 299l141 140l297 -297zM221 0v1401h836v-197h-639v-405h577v-197h-577v-405h639v-197h-836z" />
    <glyph glyph-name="Eacute" unicode="&#xc9;" 
d="M625 1511l-140 142l297 297l142 -140zM221 0v1401h836v-197h-639v-405h577v-197h-577v-405h639v-197h-836z" />
    <glyph glyph-name="Ecircumflex" unicode="&#xca;" 
d="M295 1628l254 254h164l254 -254l-140 -139l-196 197l-197 -197zM221 0v1401h836v-197h-639v-405h577v-197h-577v-405h639v-197h-836z" />
    <glyph glyph-name="Edieresis" unicode="&#xcb;" 
d="M348 1542v326h197v-326h-197zM717 1542v326h196v-326h-196zM221 0v1401h836v-197h-639v-405h577v-197h-577v-405h639v-197h-836z" />
    <glyph glyph-name="Igrave" unicode="&#xcc;" 
d="M612 1511l-299 299l142 140l297 -297zM190 197h320v1007h-301v197h799v-197h-301v-1007h319v-197h-836v197z" />
    <glyph glyph-name="Iacute" unicode="&#xcd;" 
d="M602 1511l-139 142l297 297l141 -140zM190 197h320v1007h-301v197h799v-197h-301v-1007h319v-197h-836v197z" />
    <glyph glyph-name="Icircumflex" unicode="&#xce;" 
d="M272 1628l254 254h164l254 -254l-139 -139l-197 197l-196 -197zM190 197h320v1007h-301v197h799v-197h-301v-1007h319v-197h-836v197z" />
    <glyph glyph-name="Idieresis" unicode="&#xcf;" 
d="M326 1542v326h196v-326h-196zM694 1542v326h197v-326h-197zM190 197h320v1007h-301v197h799v-197h-301v-1007h319v-197h-836v197z" />
    <glyph glyph-name="Eth" unicode="&#xd0;" 
d="M676 1401q158 0 269.5 -111.5t111.5 -269.5v-639q0 -158 -111.5 -269.5t-269.5 -111.5h-455v602h-170v197h170v602h455zM860 381v639q0 78 -53 131t-131 53h-258v-405h270v-197h-270v-405h258q78 0 131 53t53 131z" />
    <glyph glyph-name="Ntilde" unicode="&#xd1;" 
d="M201 1569v37q0 113 79.5 191.5t190.5 78.5q90 0 156 -49q10 -8 31.5 -26.5t31.5 -26t25.5 -14.5t29.5 -7q31 0 52.5 22.5t21.5 51.5v37h197v-37q0 -111 -79 -191t-192 -80q-88 0 -153 52q-10 8 -30.5 24.5t-32 24.5t-28 15t-30.5 7q-31 0 -52.5 -20.5t-21.5 -52.5v-37
h-196zM160 1401h246l454 -1045v1045h197v-1401h-246l-455 1044v-1044h-196v1401z" />
    <glyph glyph-name="Ograve" unicode="&#xd2;" 
d="M612 1511l-299 299l142 140l297 -297zM559 -18q-158 0 -269.5 111.5t-111.5 268.5v676q0 158 111.5 269.5t269.5 111.5h98q158 0 269.5 -111.5t111.5 -269.5v-676q0 -158 -111.5 -269t-269.5 -111h-98zM559 178h98q76 0 130.5 54.5t54.5 129.5v676q0 76 -54.5 130.5
t-130.5 54.5h-98q-76 0 -130 -54.5t-54 -130.5v-676q0 -76 54 -130t130 -54z" />
    <glyph glyph-name="Oacute" unicode="&#xd3;" 
d="M602 1511l-139 142l297 297l141 -140zM559 -18q-158 0 -269.5 111.5t-111.5 268.5v676q0 158 111.5 269.5t269.5 111.5h98q158 0 269.5 -111.5t111.5 -269.5v-676q0 -158 -111.5 -269t-269.5 -111h-98zM559 178h98q76 0 130.5 54.5t54.5 129.5v676q0 76 -54.5 130.5
t-130.5 54.5h-98q-76 0 -130 -54.5t-54 -130.5v-676q0 -76 54 -130t130 -54z" />
    <glyph glyph-name="Ocircumflex" unicode="&#xd4;" 
d="M272 1628l254 254h164l254 -254l-139 -139l-197 197l-196 -197zM559 -18q-158 0 -269.5 111.5t-111.5 268.5v676q0 158 111.5 269.5t269.5 111.5h98q158 0 269.5 -111.5t111.5 -269.5v-676q0 -158 -111.5 -269t-269.5 -111h-98zM559 178h98q76 0 130.5 54.5t54.5 129.5
v676q0 76 -54.5 130.5t-130.5 54.5h-98q-76 0 -130 -54.5t-54 -130.5v-676q0 -76 54 -130t130 -54z" />
    <glyph glyph-name="Otilde" unicode="&#xd5;" 
d="M201 1569v37q0 113 79.5 191.5t190.5 78.5q90 0 156 -49q10 -8 31.5 -26.5t31.5 -26t25.5 -14.5t29.5 -7q31 0 52.5 22.5t21.5 51.5v37h197v-37q0 -111 -79 -191t-192 -80q-88 0 -153 52q-10 8 -30.5 24.5t-32 24.5t-28 15t-30.5 7q-31 0 -52.5 -20.5t-21.5 -52.5v-37
h-196zM559 -18q-158 0 -269.5 111.5t-111.5 268.5v676q0 158 111.5 269.5t269.5 111.5h98q158 0 269.5 -111.5t111.5 -269.5v-676q0 -158 -111.5 -269t-269.5 -111h-98zM559 178h98q76 0 130.5 54.5t54.5 129.5v676q0 76 -54.5 130.5t-130.5 54.5h-98q-76 0 -130 -54.5
t-54 -130.5v-676q0 -76 54 -130t130 -54z" />
    <glyph glyph-name="Odieresis" unicode="&#xd6;" 
d="M326 1542v326h196v-326h-196zM694 1542v326h197v-326h-197zM559 -18q-158 0 -269.5 111.5t-111.5 268.5v676q0 158 111.5 269.5t269.5 111.5h98q158 0 269.5 -111.5t111.5 -269.5v-676q0 -158 -111.5 -269t-269.5 -111h-98zM559 178h98q76 0 130.5 54.5t54.5 129.5v676
q0 76 -54.5 130.5t-130.5 54.5h-98q-76 0 -130 -54.5t-54 -130.5v-676q0 -76 54 -130t130 -54z" />
    <glyph glyph-name="multiply" unicode="&#xd7;" 
d="M217 342l250 250l-250 250l139 139l250 -250l252 250l139 -139l-252 -250l252 -252l-139 -139l-252 252l-250 -250z" />
    <glyph glyph-name="Oslash" unicode="&#xd8;" 
d="M1149 1395l-135 -221q25 -61 24 -136v-676q0 -158 -111.5 -269t-269.5 -111h-98q-125 0 -227 75l-96 -157l-170 102l137 223q-25 63 -25 137v676q0 158 111.5 269.5t269.5 111.5h98q131 0 232 -78l94 154zM375 1038v-532l409 665q-51 51 -127 52h-98q-76 0 -130 -54.5
t-54 -130.5zM842 362v529l-408 -666q53 -47 125 -47h98q76 0 130.5 54t54.5 130z" />
    <glyph glyph-name="Ugrave" unicode="&#xd9;" 
d="M612 1511l-299 299l142 140l297 -297zM182 1401h197v-1039q0 -76 54 -130t130 -54h99q76 0 130 54.5t54 129.5v1039h196v-1039q0 -158 -111.5 -269t-268.5 -111h-99q-158 0 -269.5 111.5t-111.5 268.5v1039z" />
    <glyph glyph-name="Uacute" unicode="&#xda;" 
d="M602 1511l-139 142l297 297l141 -140zM182 1401h197v-1039q0 -76 54 -130t130 -54h99q76 0 130 54.5t54 129.5v1039h196v-1039q0 -158 -111.5 -269t-268.5 -111h-99q-158 0 -269.5 111.5t-111.5 268.5v1039z" />
    <glyph glyph-name="Ucircumflex" unicode="&#xdb;" 
d="M272 1628l254 254h164l254 -254l-139 -139l-197 197l-196 -197zM182 1401h197v-1039q0 -76 54 -130t130 -54h99q76 0 130 54.5t54 129.5v1039h196v-1039q0 -158 -111.5 -269t-268.5 -111h-99q-158 0 -269.5 111.5t-111.5 268.5v1039z" />
    <glyph glyph-name="Udieresis" unicode="&#xdc;" 
d="M326 1542v326h196v-326h-196zM694 1542v326h197v-326h-197zM182 1401h197v-1039q0 -76 54 -130t130 -54h99q76 0 130 54.5t54 129.5v1039h196v-1039q0 -158 -111.5 -269t-268.5 -111h-99q-158 0 -269.5 111.5t-111.5 268.5v1039z" />
    <glyph glyph-name="Yacute" unicode="&#xdd;" 
d="M602 1511l-139 142l297 297l141 -140zM1057 1112q0 -145 -88 -256l-262 -336v-520h-197v520l-260 336q-10 10 -28.5 39t-40 91.5t-21.5 125.5v289h196v-289q0 -33 12.5 -66.5t22.5 -51t15 -19.5l202 -262l205 262l6 8q4 8 10.5 20.5t13.5 29t12 38t5 41.5v289h197v-289z
" />
    <glyph glyph-name="Thorn" unicode="&#xde;" 
d="M240 0v1401h196v-256h258q158 0 269.5 -111.5t111.5 -269.5v-127q0 -158 -111.5 -269.5t-269.5 -111.5h-258v-256h-196zM436 453h258q76 0 130.5 54t54.5 130v127q0 76 -54.5 130t-130.5 54h-258v-495z" />
    <glyph glyph-name="germandbls" unicode="&#xdf;" 
d="M893 735q76 -43 120 -119.5t44 -166.5v-68q0 -158 -111.5 -269.5t-269.5 -111.5h-154v197h154q76 0 130 54t54 130v68q0 76 -54 130t-130 54h-117v196h105q76 0 130 54.5t54 130.5v24q0 76 -54.5 130.5t-129.5 54.5h-62q-78 0 -131 -54.5t-53 -130.5v-1038h-197v1038
q0 158 111.5 269.5t269.5 111.5h62q158 0 269 -111.5t111 -269.5v-24q1 -179 -151 -279z" />
    <glyph glyph-name="agrave" unicode="&#xe0;" 
d="M752 1296l-140 -141l-299 299l142 139zM819 1044h197v-1044h-197v66q-100 -84 -233 -84h-25q-158 0 -269.5 111.5t-111.5 268.5v320q0 158 111.5 269.5t269.5 111.5h25q133 0 233 -84v65zM635 178q76 0 130 54.5t54 129.5v320q0 76 -53 130t-131 54h-74q-78 0 -131 -54
t-53 -130v-320q0 -76 54 -130t130 -54h74z" />
    <glyph glyph-name="aacute" unicode="&#xe1;" 
d="M901 1454l-299 -299l-139 141l297 297zM819 1044h197v-1044h-197v66q-100 -84 -233 -84h-25q-158 0 -269.5 111.5t-111.5 268.5v320q0 158 111.5 269.5t269.5 111.5h25q133 0 233 -84v65zM635 178q76 0 130 54.5t54 129.5v320q0 76 -53 130t-131 54h-74q-78 0 -131 -54
t-53 -130v-320q0 -76 54 -130t130 -54h74z" />
    <glyph glyph-name="acircumflex" unicode="&#xe2;" 
d="M608 1329l-196 -196l-140 139l254 254h164l254 -254l-139 -139zM819 1044h197v-1044h-197v66q-100 -84 -233 -84h-25q-158 0 -269.5 111.5t-111.5 268.5v320q0 158 111.5 269.5t269.5 111.5h25q133 0 233 -84v65zM635 178q76 0 130 54.5t54 129.5v320q0 76 -53 130
t-131 54h-74q-78 0 -131 -54t-53 -130v-320q0 -76 54 -130t130 -54h74z" />
    <glyph glyph-name="atilde" unicode="&#xe3;" 
d="M819 1507h197v-37q0 -111 -79 -190.5t-192 -79.5q-88 0 -153 51q-10 8 -30.5 24.5t-32 25t-28 15.5t-30.5 7q-31 0 -52.5 -20.5t-21.5 -53.5v-37h-196v37q0 113 79.5 192t190.5 79q90 0 156 -50q10 -8 31.5 -26.5t31.5 -25.5t25.5 -14t29.5 -7q31 0 52.5 22.5t21.5 50.5
v37zM819 979v65h197v-1044h-197v66q-100 -84 -233 -84h-25q-158 0 -269.5 111.5t-111.5 268.5v320q0 158 111.5 269.5t269.5 111.5h25q133 0 233 -84zM635 178q76 0 130 54.5t54 129.5v320q0 76 -53 130t-131 54h-74q-78 0 -131 -54t-53 -130v-320q0 -76 54 -130t130 -54h74
z" />
    <glyph glyph-name="adieresis" unicode="&#xe4;" 
d="M522 1511v-325h-196v325h196zM891 1511v-325h-197v325h197zM819 1044h197v-1044h-197v66q-100 -84 -233 -84h-25q-158 0 -269.5 111.5t-111.5 268.5v320q0 158 111.5 269.5t269.5 111.5h25q133 0 233 -84v65zM635 178q76 0 130 54.5t54 129.5v320q0 76 -53 130t-131 54
h-74q-78 0 -131 -54t-53 -130v-320q0 -76 54 -130t130 -54h74z" />
    <glyph glyph-name="aring" unicode="&#xe5;" 
d="M866 1044h150v-1044h-197v66q-100 -84 -233 -84h-25q-158 0 -269.5 111.5t-111.5 268.5v320q0 102 50.5 190.5t136.5 137.5q-35 59 -35 133q0 115 81 195.5t195.5 80.5t195.5 -81t81 -195q-1 -54 -19 -99zM608 1223q-35 0 -57.5 -23.5t-22.5 -56.5t23.5 -56.5t56.5 -23.5
t56.5 23.5t23.5 56.5t-22.5 56.5t-57.5 23.5zM635 178q76 0 130 54.5t54 129.5v320q0 76 -53 130t-131 54h-74q-78 0 -131 -54t-53 -130v-320q0 -76 54 -130t130 -54h74z" />
    <glyph glyph-name="ae" unicode="&#xe6;" 
d="M1141 428h-430v-133q0 -47 34.5 -82t81.5 -35q41 0 72 25.5t41 62.5l188 -57q-29 -100 -111.5 -163.5t-189.5 -63.5q-63 0 -116 36v-28h-197v28q-53 -37 -117 -36q-131 0 -222 92t-91 221v455q0 131 91 222t222 91q63 0 117 -37v29h197v-29q53 37 116 37q129 0 221.5 -91
t92.5 -222v-322zM397 178q49 0 83 35t34 82v455q0 49 -34 82.5t-83 33.5q-47 0 -81.5 -33.5t-34.5 -82.5v-455q0 -47 34.5 -82t81.5 -35zM827 866q-47 0 -81.5 -33.5t-34.5 -82.5v-144h233v144q0 49 -34 82.5t-83 33.5z" />
    <glyph glyph-name="ccedilla" unicode="&#xe7;" 
d="M668 178q66 0 116 42t64 106l188 -58q-29 -111 -112.5 -187.5t-196.5 -94.5v-78q80 -29 129 -100.5t49 -157.5q0 -115 -81 -196t-195 -81h-99v197h99q35 0 57.5 22.5t22.5 57.5t-22.5 57.5t-57.5 22.5h-99v256q-135 23 -228 129t-93 247v320q0 158 111.5 269.5
t269.5 111.5h78q133 0 235.5 -81t132.5 -206l-188 -55q-14 63 -64.5 104t-115.5 41h-78q-78 0 -131 -54t-53 -130v-320q0 -76 54 -130t130 -54h78z" />
    <glyph glyph-name="egrave" unicode="&#xe8;" 
d="M621 1155l-299 299l141 139l297 -297zM578 1063h73q158 0 269.5 -111.5t111.5 -269.5v-227h-639v-93q0 -76 53.5 -130t131.5 -54h79q66 0 115 41t66 103l188 -56q-33 -123 -135.5 -203.5t-233.5 -80.5h-79q-156 0 -268.5 111.5t-112.5 268.5v320q0 158 111.5 269.5
t269.5 111.5zM393 633h443v49q0 76 -53.5 130t-131.5 54h-73q-78 0 -131.5 -54t-53.5 -130v-49z" />
    <glyph glyph-name="eacute" unicode="&#xe9;" 
d="M610 1155l-139 141l297 297l141 -139zM578 1063h73q158 0 269.5 -111.5t111.5 -269.5v-227h-639v-93q0 -76 53.5 -130t131.5 -54h79q66 0 115 41t66 103l188 -56q-33 -123 -135.5 -203.5t-233.5 -80.5h-79q-156 0 -268.5 111.5t-112.5 268.5v320q0 158 111.5 269.5
t269.5 111.5zM393 633h443v49q0 76 -53.5 130t-131.5 54h-73q-78 0 -131.5 -54t-53.5 -130v-49z" />
    <glyph glyph-name="ecircumflex" unicode="&#xea;" 
d="M281 1272l254 254h163l254 -254l-139 -139l-197 196l-196 -196zM578 1063h73q158 0 269.5 -111.5t111.5 -269.5v-227h-639v-93q0 -76 53.5 -130t131.5 -54h79q66 0 115 41t66 103l188 -56q-33 -123 -135.5 -203.5t-233.5 -80.5h-79q-156 0 -268.5 111.5t-112.5 268.5v320
q0 158 111.5 269.5t269.5 111.5zM393 633h443v49q0 76 -53.5 130t-131.5 54h-73q-78 0 -131.5 -54t-53.5 -130v-49z" />
    <glyph glyph-name="edieresis" unicode="&#xeb;" 
d="M334 1186v325h196v-325h-196zM702 1186v325h197v-325h-197zM578 1063h73q158 0 269.5 -111.5t111.5 -269.5v-227h-639v-93q0 -76 53.5 -130t131.5 -54h79q66 0 115 41t66 103l188 -56q-33 -123 -135.5 -203.5t-233.5 -80.5h-79q-156 0 -268.5 111.5t-112.5 268.5v320
q0 158 111.5 269.5t269.5 111.5zM393 633h443v49q0 76 -53.5 130t-131.5 54h-73q-78 0 -131.5 -54t-53.5 -130v-49z" />
    <glyph glyph-name="igrave" unicode="&#xec;" 
d="M655 1155l-299 299l142 139l297 -297zM270 1044h480v-847h325v-197h-872v197h350v651h-283v196z" />
    <glyph glyph-name="iacute" unicode="&#xed;" 
d="M645 1155l-139 141l297 297l141 -139zM270 1044h480v-847h325v-197h-872v197h350v651h-283v196z" />
    <glyph glyph-name="icircumflex" unicode="&#xee;" 
d="M315 1272l254 254h164l254 -254l-139 -139l-197 196l-196 -196zM270 1044h480v-847h325v-197h-872v197h350v651h-283v196z" />
    <glyph glyph-name="idieresis" unicode="&#xef;" 
d="M369 1186v325h196v-325h-196zM737 1186v325h197v-325h-197zM270 1044h480v-847h325v-197h-872v197h350v651h-283v196z" />
    <glyph glyph-name="eth" unicode="&#xf0;" 
d="M1194 1327v-197h-190v-768q0 -158 -112 -269t-269 -111h-74q-156 0 -268.5 111.5t-112.5 268.5v320q0 158 111.5 269.5t269.5 111.5h24q133 0 234 -84v151h-240v197h226q-23 49 -69 80t-101 31v196q139 0 243.5 -87t130.5 -220h197zM623 178q78 0 131 54.5t53 129.5v320
q0 76 -53.5 130t-130.5 54h-74q-76 0 -130 -54t-54 -130v-320q0 -76 54 -130t130 -54h74z" />
    <glyph glyph-name="ntilde" unicode="&#xf1;" 
d="M846 1507h196v-37q0 -111 -78.5 -190.5t-191.5 -79.5q-88 0 -154 51q-10 8 -30.5 24.5t-31.5 25t-27.5 15.5t-30.5 7q-31 0 -52.5 -20.5t-21.5 -53.5v-37h-197v37q0 113 80 192t191 79q90 0 155 -50q10 -8 32 -26.5t32 -25.5t25.5 -14t29.5 -7q31 0 52.5 22.5t21.5 50.5
v37zM651 1063q158 0 269.5 -111.5t111.5 -269.5v-682h-196v682q0 76 -53.5 130t-131.5 54h-73q-76 0 -130.5 -54t-54.5 -130v-682h-196v1044h196v-65q100 84 234 84h24z" />
    <glyph glyph-name="ograve" unicode="&#xf2;" 
d="M612 1155l-299 299l142 139l297 -297zM571 1063h74q158 0 269.5 -111.5t111.5 -269.5v-320q0 -158 -111.5 -269t-269.5 -111h-74q-158 0 -269.5 111.5t-111.5 268.5v320q0 158 111.5 269.5t269.5 111.5zM571 866q-76 0 -130 -54t-54 -130v-320q0 -76 54.5 -130t129.5 -54
h74q76 0 130 54.5t54 129.5v320q0 76 -54 130t-130 54h-74z" />
    <glyph glyph-name="oacute" unicode="&#xf3;" 
d="M602 1155l-139 141l297 297l141 -139zM571 1063h74q158 0 269.5 -111.5t111.5 -269.5v-320q0 -158 -111.5 -269t-269.5 -111h-74q-158 0 -269.5 111.5t-111.5 268.5v320q0 158 111.5 269.5t269.5 111.5zM571 866q-76 0 -130 -54t-54 -130v-320q0 -76 54.5 -130t129.5 -54
h74q76 0 130 54.5t54 129.5v320q0 76 -54 130t-130 54h-74z" />
    <glyph glyph-name="ocircumflex" unicode="&#xf4;" 
d="M272 1272l254 254h164l254 -254l-139 -139l-197 196l-196 -196zM571 1063h74q158 0 269.5 -111.5t111.5 -269.5v-320q0 -158 -111.5 -269t-269.5 -111h-74q-158 0 -269.5 111.5t-111.5 268.5v320q0 158 111.5 269.5t269.5 111.5zM571 866q-76 0 -130 -54t-54 -130v-320
q0 -76 54.5 -130t129.5 -54h74q76 0 130 54.5t54 129.5v320q0 76 -54 130t-130 54h-74z" />
    <glyph glyph-name="otilde" unicode="&#xf5;" 
d="M201 1212v37q0 113 79.5 192t190.5 79q90 0 156 -50q10 -8 31.5 -26.5t31.5 -25.5t25.5 -14t29.5 -7q31 0 52.5 22.5t21.5 50.5v37h197v-37q0 -111 -79 -190.5t-192 -79.5q-88 0 -153 51q-10 8 -30.5 24.5t-32 25t-28 15.5t-30.5 7q-31 0 -52.5 -20.5t-21.5 -53.5v-37
h-196zM571 1063h74q158 0 269.5 -111.5t111.5 -269.5v-320q0 -158 -111.5 -269t-269.5 -111h-74q-158 0 -269.5 111.5t-111.5 268.5v320q0 158 111.5 269.5t269.5 111.5zM571 866q-76 0 -130 -54t-54 -130v-320q0 -76 54.5 -130t129.5 -54h74q76 0 130 54.5t54 129.5v320
q0 76 -54 130t-130 54h-74z" />
    <glyph glyph-name="odieresis" unicode="&#xf6;" 
d="M326 1186v325h196v-325h-196zM694 1186v325h197v-325h-197zM571 1063h74q158 0 269.5 -111.5t111.5 -269.5v-320q0 -158 -111.5 -269t-269.5 -111h-74q-158 0 -269.5 111.5t-111.5 268.5v320q0 158 111.5 269.5t269.5 111.5zM571 866q-76 0 -130 -54t-54 -130v-320
q0 -76 54.5 -130t129.5 -54h74q76 0 130 54.5t54 129.5v320q0 76 -54 130t-130 54h-74z" />
    <glyph glyph-name="divide" unicode="&#xf7;" 
d="M510 850v307h197v-307h-197zM188 494v196h840v-196h-840zM510 31v307h197v-307h-197z" />
    <glyph glyph-name="oslash" unicode="&#xf8;" 
d="M1055 1063l-99 -160q70 -102 70 -221v-320q0 -158 -111.5 -269t-269.5 -111h-74q-84 0 -157 34l-82 -133l-168 103l96 157q-70 100 -70 219v320q0 158 112 269.5t269 111.5h74q84 0 158 -35l84 137zM387 362v-12l311 508q-23 8 -53 8h-74q-76 0 -130 -54t-54 -130v-320z
M829 682v12l-311 -508q23 -8 53 -8h74q76 0 130 54.5t54 129.5v320z" />
    <glyph glyph-name="ugrave" unicode="&#xf9;" 
d="M612 1155l-299 299l142 139l297 -297zM190 1044h197v-682q0 -76 54.5 -130t129.5 -54h74q76 0 130 54.5t54 129.5v682h197v-682q0 -158 -111.5 -269t-269.5 -111h-74q-158 0 -269.5 111.5t-111.5 268.5v682z" />
    <glyph glyph-name="uacute" unicode="&#xfa;" 
d="M602 1155l-139 141l297 297l141 -139zM190 1044h197v-682q0 -76 54.5 -130t129.5 -54h74q76 0 130 54.5t54 129.5v682h197v-682q0 -158 -111.5 -269t-269.5 -111h-74q-158 0 -269.5 111.5t-111.5 268.5v682z" />
    <glyph glyph-name="ucircumflex" unicode="&#xfb;" 
d="M272 1272l254 254h164l254 -254l-139 -139l-197 196l-196 -196zM190 1044h197v-682q0 -76 54.5 -130t129.5 -54h74q76 0 130 54.5t54 129.5v682h197v-682q0 -158 -111.5 -269t-269.5 -111h-74q-158 0 -269.5 111.5t-111.5 268.5v682z" />
    <glyph glyph-name="udieresis" unicode="&#xfc;" 
d="M326 1186v325h196v-325h-196zM694 1186v325h197v-325h-197zM190 1044h197v-682q0 -76 54.5 -130t129.5 -54h74q76 0 130 54.5t54 129.5v682h197v-682q0 -158 -111.5 -269t-269.5 -111h-74q-158 0 -269.5 111.5t-111.5 268.5v682z" />
    <glyph glyph-name="yacute" unicode="&#xfd;" 
d="M602 1155l-139 141l297 297l141 -139zM164 1044h196v-131q0 -102 54 -202l198 -363l199 363q53 96 53 202v131h197v-131q0 -156 -78 -299l-448 -819q-37 -63 -106 -107t-153 -44h-172v196h172q35 0 57.5 19.5t28.5 34.5l138 251l-258 469q-78 143 -78 299v131z" />
    <glyph glyph-name="thorn" unicode="&#xfe;" 
d="M657 1063q158 0 269.5 -111.5t111.5 -269.5v-320q0 -158 -111.5 -269t-269.5 -111h-24q-133 0 -234 84v-422h-196v1757h196v-422q100 84 234 84h24zM842 362v320q0 76 -54.5 130t-130.5 54h-73q-76 0 -130.5 -54t-54.5 -130v-320q0 -76 54.5 -130t130.5 -54h73
q76 0 130.5 54t54.5 130z" />
    <glyph glyph-name="ydieresis" unicode="&#xff;" 
d="M326 1186v325h196v-325h-196zM694 1186v325h197v-325h-197zM164 1044h196v-131q0 -102 54 -202l198 -363l199 363q53 96 53 202v131h197v-131q0 -156 -78 -299l-448 -819q-37 -63 -106 -107t-153 -44h-172v196h172q35 0 57.5 19.5t28.5 34.5l138 251l-258 469
q-78 143 -78 299v131z" />
    <glyph glyph-name="Amacron" unicode="&#x100;" 
d="M909 1751v-197h-602v197h602zM1028 580l4 -19q4 -18 10.5 -49t12.5 -68.5t10 -86t4 -93.5v-264h-197v276q0 25 -2 39h-524q-2 -14 -2 -39v-276h-197v264q0 72 11.5 151t19.5 115.5t12 49.5l183 663q23 78 87 127t148 49t148.5 -49t87.5 -127zM377 512h465l-6 23l-179 651
q-10 37 -49 37q-41 0 -47 -37l-178 -651z" />
    <glyph glyph-name="amacron" unicode="&#x101;" 
d="M909 1395v-197h-602v197h602zM819 1044h197v-1044h-197v66q-100 -84 -233 -84h-25q-158 0 -269.5 111.5t-111.5 268.5v320q0 158 111.5 269.5t269.5 111.5h25q133 0 233 -84v65zM635 178q76 0 130 54.5t54 129.5v320q0 76 -53 130t-131 54h-74q-78 0 -131 -54t-53 -130
v-320q0 -76 54 -130t130 -54h74z" />
    <glyph glyph-name="Abreve" unicode="&#x102;" 
d="M608.5 1536q-112.5 0 -194.5 82t-82 194h196q0 -33 23.5 -56t56.5 -23t56.5 23.5t23.5 55.5h197q0 -113 -82 -194.5t-194.5 -81.5zM1028 580l4 -19q4 -18 10.5 -49t12.5 -68.5t10 -86t4 -93.5v-264h-197v276q0 25 -2 39h-524q-2 -14 -2 -39v-276h-197v264q0 72 11.5 151
t19.5 115.5t12 49.5l183 663q23 78 87 127t148 49t148.5 -49t87.5 -127zM377 512h465l-6 23l-179 651q-10 37 -49 37q-41 0 -47 -37l-178 -651z" />
    <glyph glyph-name="abreve" unicode="&#x103;" 
d="M608.5 1180q-112.5 0 -194.5 81.5t-82 194.5h196q0 -33 23.5 -56.5t56.5 -23.5t56.5 23.5t23.5 56.5h197q0 -113 -82 -194.5t-194.5 -81.5zM819 1044h197v-1044h-197v66q-100 -84 -233 -84h-25q-158 0 -269.5 111.5t-111.5 268.5v320q0 158 111.5 269.5t269.5 111.5h25
q133 0 233 -84v65zM635 178q76 0 130 54.5t54 129.5v320q0 76 -53 130t-131 54h-74q-78 0 -131 -54t-53 -130v-320q0 -76 54 -130t130 -54h74z" />
    <glyph glyph-name="Aogonek" unicode="&#x104;" 
d="M1141 -160h51v-196h-49q-113 0 -192 78.5t-79 189.5v364q0 25 -2 39h-524q-2 -14 -2 -39v-276h-197v264q0 72 11.5 151t19.5 115.5t12 49.5l183 663q23 78 87 127t148 49t148.5 -49t87.5 -127l184 -663l4 -19q4 -18 10.5 -49t12.5 -68.5t10 -86t4 -93.5v-352
q0 -29 21.5 -50.5t50.5 -21.5zM377 512h465l-6 23l-179 651q-10 37 -49 37q-41 0 -47 -37l-178 -651z" />
    <glyph glyph-name="aogonek" unicode="&#x105;" 
d="M1087 -160h52v-196h-49q-113 0 -192 78.5t-79 189.5v154q-100 -84 -233 -84h-25q-158 0 -269.5 111.5t-111.5 268.5v320q0 158 111.5 269.5t269.5 111.5h25q133 0 233 -84v65h197v-1132q0 -29 21 -50.5t50 -21.5zM635 178q76 0 130 54.5t54 129.5v320q0 76 -53 130
t-131 54h-74q-78 0 -131 -54t-53 -130v-320q0 -76 54 -130t130 -54h74z" />
    <glyph glyph-name="Cacute" unicode="&#x106;" 
d="M618 1511l-139 142l297 297l142 -140zM1042 1133l-188 -56q-14 61 -64.5 103.5t-115.5 42.5h-99q-76 0 -130 -54.5t-54 -130.5v-676q0 -76 54.5 -130t129.5 -54h99q66 0 116 42t64 106l188 -58q-33 -125 -135 -205.5t-233 -80.5h-99q-158 0 -269 111.5t-111 268.5v676
q0 158 111.5 269.5t268.5 111.5h99q131 0 233 -80.5t135 -205.5z" />
    <glyph glyph-name="cacute" unicode="&#x107;" 
d="M623 1155l-140 141l297 297l142 -139zM209 362v320q0 158 111.5 269.5t269.5 111.5h78q133 0 235.5 -81t132.5 -206l-188 -55q-14 63 -64.5 104t-115.5 41h-78q-78 0 -131 -54t-53 -130v-320q0 -76 54 -130t130 -54h78q66 0 116 42t64 106l188 -58q-31 -125 -133 -205.5
t-235 -80.5h-78q-156 0 -268.5 111t-112.5 269z" />
    <glyph glyph-name="Ccircumflex" unicode="&#x108;" 
d="M289 1628l254 254h164l254 -254l-140 -139l-196 197l-197 -197zM1042 1133l-188 -56q-14 61 -64.5 103.5t-115.5 42.5h-99q-76 0 -130 -54.5t-54 -130.5v-676q0 -76 54.5 -130t129.5 -54h99q66 0 116 42t64 106l188 -58q-33 -125 -135 -205.5t-233 -80.5h-99
q-158 0 -269 111.5t-111 268.5v676q0 158 111.5 269.5t268.5 111.5h99q131 0 233 -80.5t135 -205.5z" />
    <glyph glyph-name="ccircumflex" unicode="&#x109;" 
d="M293 1272l254 254h164l254 -254l-140 -139l-196 196l-197 -196zM209 362v320q0 158 111.5 269.5t269.5 111.5h78q133 0 235.5 -81t132.5 -206l-188 -55q-14 63 -64.5 104t-115.5 41h-78q-78 0 -131 -54t-53 -130v-320q0 -76 54 -130t130 -54h78q66 0 116 42t64 106
l188 -58q-31 -125 -133 -205.5t-235 -80.5h-78q-156 0 -268.5 111t-112.5 269z" />
    <glyph glyph-name="Cdotaccent" unicode="&#x10a;" 
d="M526 1542v326h197v-326h-197zM1042 1133l-188 -56q-14 61 -64.5 103.5t-115.5 42.5h-99q-76 0 -130 -54.5t-54 -130.5v-676q0 -76 54.5 -130t129.5 -54h99q66 0 116 42t64 106l188 -58q-33 -125 -135 -205.5t-233 -80.5h-99q-158 0 -269 111.5t-111 268.5v676
q0 158 111.5 269.5t268.5 111.5h99q131 0 233 -80.5t135 -205.5z" />
    <glyph glyph-name="cdotaccent" unicode="&#x10b;" 
d="M530 1186v325h197v-325h-197zM209 362v320q0 158 111.5 269.5t269.5 111.5h78q133 0 235.5 -81t132.5 -206l-188 -55q-14 63 -64.5 104t-115.5 41h-78q-78 0 -131 -54t-53 -130v-320q0 -76 54 -130t130 -54h78q66 0 116 42t64 106l188 -58q-31 -125 -133 -205.5
t-235 -80.5h-78q-156 0 -268.5 111t-112.5 269z" />
    <glyph glyph-name="Ccaron" unicode="&#x10c;" 
d="M289 1808l139 140l197 -197l196 197l140 -140l-254 -254h-164zM1042 1133l-188 -56q-14 61 -64.5 103.5t-115.5 42.5h-99q-76 0 -130 -54.5t-54 -130.5v-676q0 -76 54.5 -130t129.5 -54h99q66 0 116 42t64 106l188 -58q-33 -125 -135 -205.5t-233 -80.5h-99
q-158 0 -269 111.5t-111 268.5v676q0 158 111.5 269.5t268.5 111.5h99q131 0 233 -80.5t135 -205.5z" />
    <glyph glyph-name="ccaron" unicode="&#x10d;" 
d="M293 1452l139 139l197 -196l196 196l140 -139l-254 -254h-164zM209 362v320q0 158 111.5 269.5t269.5 111.5h78q133 0 235.5 -81t132.5 -206l-188 -55q-14 63 -64.5 104t-115.5 41h-78q-78 0 -131 -54t-53 -130v-320q0 -76 54 -130t130 -54h78q66 0 116 42t64 106
l188 -58q-31 -125 -133 -205.5t-235 -80.5h-78q-156 0 -268.5 111t-112.5 269z" />
    <glyph glyph-name="Dcaron" unicode="&#x10e;" 
d="M256 1808l139 140l197 -197l196 197l140 -140l-254 -254h-164zM203 0v1401h454q158 0 269.5 -111.5t111.5 -269.5v-639q0 -158 -111.5 -269.5t-269.5 -111.5h-454zM399 197h258q76 0 130.5 53t54.5 131v639q0 78 -54.5 131t-130.5 53h-258v-1007z" />
    <glyph glyph-name="dcaron" unicode="&#x10f;" 
d="M1004 1747h366v-203q0 -141 -87 -250.5t-220 -142.5l-57 188q74 16 121 73.5t47 137.5h-170v197zM784 979v422h197v-1401h-197v66q-100 -84 -233 -84h-25q-158 0 -269.5 111.5t-111.5 268.5v320q0 158 112 269.5t269 111.5h25q133 0 233 -84zM600 178q76 0 130 54.5
t54 129.5v320q0 76 -54 130t-130 54h-74q-76 0 -130 -54t-54 -130v-320q0 -76 54.5 -130t129.5 -54h74z" />
    <glyph glyph-name="Dcroat" unicode="&#x110;" 
d="M676 1401q158 0 269.5 -111.5t111.5 -269.5v-639q0 -158 -111.5 -269.5t-269.5 -111.5h-455v602h-170v197h170v602h455zM860 381v639q0 78 -53 131t-131 53h-258v-405h270v-197h-270v-405h258q78 0 131 53t53 131z" />
    <glyph glyph-name="dcroat" unicode="&#x111;" 
d="M1155 1370v-196h-141v-1174h-197v66q-100 -84 -233 -84h-25q-158 0 -269.5 111.5t-111.5 268.5v320q0 158 111.5 269.5t269.5 111.5h25q133 0 233 -84v195h-264v196h264v152h197v-152h141zM633 178q76 0 130 54.5t54 129.5v320q0 76 -54 130t-130 54h-74q-76 0 -130 -54
t-54 -130v-320q0 -76 54 -130t130 -54h74z" />
    <glyph glyph-name="Emacron" unicode="&#x112;" 
d="M330 1554v197h602v-197h-602zM221 0v1401h836v-197h-639v-405h577v-197h-577v-405h639v-197h-836z" />
    <glyph glyph-name="emacron" unicode="&#x113;" 
d="M315 1198v197h603v-197h-603zM578 1063h73q158 0 269.5 -111.5t111.5 -269.5v-227h-639v-93q0 -76 53.5 -130t131.5 -54h79q66 0 115 41t66 103l188 -56q-33 -123 -135.5 -203.5t-233.5 -80.5h-79q-156 0 -268.5 111.5t-112.5 268.5v320q0 158 111.5 269.5t269.5 111.5z
M393 633h443v49q0 76 -53.5 130t-131.5 54h-73q-78 0 -131.5 -54t-53.5 -130v-49z" />
    <glyph glyph-name="Ebreve" unicode="&#x114;" 
d="M354 1812h197q0 -33 23.5 -56t56.5 -23t56.5 23.5t23.5 55.5h196q0 -113 -81 -194.5t-195.5 -81.5t-195.5 81.5t-81 194.5zM221 0v1401h836v-197h-639v-405h577v-197h-577v-405h639v-197h-836z" />
    <glyph glyph-name="ebreve" unicode="&#x115;" 
d="M340 1456h197q0 -33 23.5 -56.5t56 -23.5t56 23.5t23.5 56.5h197q0 -113 -82 -194.5t-194.5 -81.5t-194.5 81.5t-82 194.5zM578 1063h73q158 0 269.5 -111.5t111.5 -269.5v-227h-639v-93q0 -76 53.5 -130t131.5 -54h79q66 0 115 41t66 103l188 -56
q-33 -123 -135.5 -203.5t-233.5 -80.5h-79q-156 0 -268.5 111.5t-112.5 268.5v320q0 158 111.5 269.5t269.5 111.5zM393 633h443v49q0 76 -53.5 130t-131.5 54h-73q-78 0 -131.5 -54t-53.5 -130v-49z" />
    <glyph glyph-name="Edotaccent" unicode="&#x116;" 
d="M532 1542v326h197v-326h-197zM221 0v1401h836v-197h-639v-405h577v-197h-577v-405h639v-197h-836z" />
    <glyph glyph-name="edotaccent" unicode="&#x117;" 
d="M518 1186v325h197v-325h-197zM578 1063h73q158 0 269.5 -111.5t111.5 -269.5v-227h-639v-93q0 -76 53.5 -130t131.5 -54h79q66 0 115 41t66 103l188 -56q-33 -123 -135.5 -203.5t-233.5 -80.5h-79q-156 0 -268.5 111.5t-112.5 268.5v320q0 158 111.5 269.5t269.5 111.5z
M393 633h443v49q0 76 -53.5 130t-131.5 54h-73q-78 0 -131.5 -54t-53.5 -130v-49z" />
    <glyph glyph-name="Eogonek" unicode="&#x118;" 
d="M1128 -160h52v-196h-50q-113 0 -191.5 78.5t-78.5 189.5v88h-639v1401h836v-197h-639v-405h577v-197h-577v-405h639v-285q0 -29 21 -50.5t50 -21.5z" />
    <glyph glyph-name="eogonek" unicode="&#x119;" 
d="M1032 455h-639v-93q0 -76 53.5 -130t131.5 -54h79q66 0 115 41t66 103l188 -56q-29 -109 -114 -186.5t-197 -93.5v-72q0 -29 21.5 -50.5t49.5 -21.5h52v-196h-50q-113 0 -191.5 78.5t-78.5 189.5v72q-135 23 -228 129t-93 247v320q0 158 111.5 269.5t269.5 111.5h73
q158 0 269.5 -111.5t111.5 -269.5v-227zM393 682v-49h443v49q0 76 -53.5 130t-131.5 54h-73q-78 0 -131.5 -54t-53.5 -130z" />
    <glyph glyph-name="Ecaron" unicode="&#x11a;" 
d="M295 1808l139 140l197 -197l196 197l140 -140l-254 -254h-164zM221 0v1401h836v-197h-639v-405h577v-197h-577v-405h639v-197h-836z" />
    <glyph glyph-name="ecaron" unicode="&#x11b;" 
d="M281 1452l139 139l196 -196l197 196l139 -139l-254 -254h-163zM578 1063h73q158 0 269.5 -111.5t111.5 -269.5v-227h-639v-93q0 -76 53.5 -130t131.5 -54h79q66 0 115 41t66 103l188 -56q-33 -123 -135.5 -203.5t-233.5 -80.5h-79q-156 0 -268.5 111.5t-112.5 268.5v320
q0 158 111.5 269.5t269.5 111.5zM393 633h443v49q0 76 -53.5 130t-131.5 54h-73q-78 0 -131.5 -54t-53.5 -130v-49z" />
    <glyph glyph-name="Gcircumflex" unicode="&#x11c;" 
d="M281 1628l254 254h163l254 -254l-139 -139l-197 197l-196 -197zM1036 1133l-190 -56q-12 61 -62.5 103.5t-115.5 42.5h-103q-78 0 -131 -54.5t-53 -130.5v-676q0 -76 53 -130t131 -54h99q78 0 131 54.5t53 129.5v240h-252v197h448v-437q0 -158 -111.5 -269t-268.5 -111
h-99q-158 0 -269.5 111.5t-111.5 268.5v678q0 156 112 267.5t269 111.5h103q131 0 234 -80.5t134 -205.5z" />
    <glyph glyph-name="gcircumflex" unicode="&#x11d;" 
d="M584 1329l-197 -196l-139 139l254 254h164l254 -254l-140 -139zM817 1044h197v-1038q0 -158 -110.5 -269.5t-268.5 -111.5h-78q-133 0 -235.5 81t-133.5 206l189 55q14 -61 64.5 -103t115.5 -42h78q76 0 129 54t53 130v123q-100 -84 -233 -84h-25q-158 0 -269.5 111.5
t-111.5 269.5v256q0 158 111.5 269.5t269.5 111.5h25q131 0 233 -82v63zM633 242q76 0 130 54t54 130v256q0 76 -54 130t-130 54h-74q-76 0 -130 -54t-54 -130v-256q0 -76 54 -130t130 -54h74z" />
    <glyph glyph-name="Gbreve" unicode="&#x11e;" 
d="M340 1812h197q0 -33 23.5 -56t56 -23t56 23.5t23.5 55.5h197q0 -113 -82 -194.5t-194.5 -81.5t-194.5 81.5t-82 194.5zM1036 1133l-190 -56q-12 61 -62.5 103.5t-115.5 42.5h-103q-78 0 -131 -54.5t-53 -130.5v-676q0 -76 53 -130t131 -54h99q78 0 131 54.5t53 129.5v240
h-252v197h448v-437q0 -158 -111.5 -269t-268.5 -111h-99q-158 0 -269.5 111.5t-111.5 268.5v678q0 156 112 267.5t269 111.5h103q131 0 234 -80.5t134 -205.5z" />
    <glyph glyph-name="gbreve" unicode="&#x11f;" 
d="M583.5 1180q-112.5 0 -194.5 81.5t-82 194.5h197q0 -33 23.5 -56.5t56 -23.5t56.5 23.5t24 56.5h196q0 -113 -82 -194.5t-194.5 -81.5zM817 1044h197v-1038q0 -158 -110.5 -269.5t-268.5 -111.5h-78q-133 0 -235.5 81t-133.5 206l189 55q14 -61 64.5 -103t115.5 -42h78
q76 0 129 54t53 130v123q-100 -84 -233 -84h-25q-158 0 -269.5 111.5t-111.5 269.5v256q0 158 111.5 269.5t269.5 111.5h25q131 0 233 -82v63zM633 242q76 0 130 54t54 130v256q0 76 -54 130t-130 54h-74q-76 0 -130 -54t-54 -130v-256q0 -76 54 -130t130 -54h74z" />
    <glyph glyph-name="Gdotaccent" unicode="&#x120;" 
d="M518 1542v326h197v-326h-197zM1036 1133l-190 -56q-12 61 -62.5 103.5t-115.5 42.5h-103q-78 0 -131 -54.5t-53 -130.5v-676q0 -76 53 -130t131 -54h99q78 0 131 54.5t53 129.5v240h-252v197h448v-437q0 -158 -111.5 -269t-268.5 -111h-99q-158 0 -269.5 111.5
t-111.5 268.5v678q0 156 112 267.5t269 111.5h103q131 0 234 -80.5t134 -205.5z" />
    <glyph glyph-name="gdotaccent" unicode="&#x121;" 
d="M682 1511v-325h-197v325h197zM817 1044h197v-1038q0 -158 -110.5 -269.5t-268.5 -111.5h-78q-133 0 -235.5 81t-133.5 206l189 55q14 -61 64.5 -103t115.5 -42h78q76 0 129 54t53 130v123q-100 -84 -233 -84h-25q-158 0 -269.5 111.5t-111.5 269.5v256q0 158 111.5 269.5
t269.5 111.5h25q131 0 233 -82v63zM633 242q76 0 130 54t54 130v256q0 76 -54 130t-130 54h-74q-76 0 -130 -54t-54 -130v-256q0 -76 54 -130t130 -54h74z" />
    <glyph glyph-name="Gcommaaccent" unicode="&#x122;" 
d="M1036 1133l-190 -56q-12 61 -62.5 103.5t-115.5 42.5h-103q-78 0 -131 -54.5t-53 -130.5v-676q0 -76 53 -130t131 -54h99q78 0 131 54.5t53 129.5v240h-252v197h448v-437q0 -158 -111.5 -269t-268.5 -111h-99q-158 0 -269.5 111.5t-111.5 268.5v678q0 156 112 267.5
t269 111.5h103q131 0 234 -80.5t134 -205.5zM432 -154h367v-202q0 -141 -87 -251t-220 -143l-58 189q74 16 121 73.5t47 137.5h-170v196z" />
    <glyph glyph-name="gcommaaccent" unicode="&#x123;" 
d="M764 1395v-197h-367v203q0 141 87 250.5t221 142.5l57 -188q-74 -16 -121 -73.5t-47 -137.5h170zM817 1044h197v-1038q0 -158 -110.5 -269.5t-268.5 -111.5h-78q-133 0 -235.5 81t-133.5 206l189 55q14 -61 64.5 -103t115.5 -42h78q76 0 129 54t53 130v123
q-100 -84 -233 -84h-25q-158 0 -269.5 111.5t-111.5 269.5v256q0 158 111.5 269.5t269.5 111.5h25q131 0 233 -82v63zM633 242q76 0 130 54t54 130v256q0 76 -54 130t-130 54h-74q-76 0 -130 -54t-54 -130v-256q0 -76 54 -130t130 -54h74z" />
    <glyph glyph-name="Hcircumflex" unicode="&#x124;" 
d="M272 1628l254 254h164l254 -254l-139 -139l-197 197l-196 -197zM829 1401h197v-1401h-197v602h-442v-602h-197v1401h197v-602h442v602z" />
    <glyph glyph-name="hcircumflex" unicode="&#x125;" 
d="M492 1489l-197 197l-197 -197l-139 139l254 254h164l254 -254zM651 1063q158 0 269.5 -111.5t111.5 -269.5v-682h-196v682q0 76 -53.5 130t-131.5 54h-73q-76 0 -130.5 -54t-54.5 -130v-682h-196v1401h196v-422q100 84 234 84h24z" />
    <glyph glyph-name="Hbar" unicode="&#x126;" 
d="M1208 1186v-197h-182v-989h-197v602h-442v-602h-197v989h-180v197h180v215h197v-215h442v215h197v-215h182zM829 799v190h-442v-190h442z" />
    <glyph glyph-name="hbar" unicode="&#x127;" 
d="M651 1063q158 0 269.5 -111.5t111.5 -269.5v-682h-196v682q0 76 -53.5 130t-131.5 54h-73q-76 0 -130.5 -54t-54.5 -130v-682h-196v1174h-142v196h142v152h196v-152h264v-196h-264v-195q100 84 234 84h24z" />
    <glyph glyph-name="Itilde" unicode="&#x128;" 
d="M201 1569v37q0 113 79.5 191.5t190.5 78.5q90 0 156 -49q10 -8 31.5 -26.5t31.5 -26t25.5 -14.5t29.5 -7q31 0 52.5 22.5t21.5 51.5v37h197v-37q0 -111 -79 -191t-192 -80q-88 0 -153 52q-10 8 -30.5 24.5t-32 24.5t-28 15t-30.5 7q-31 0 -52.5 -20.5t-21.5 -52.5v-37
h-196zM190 197h320v1007h-301v197h799v-197h-301v-1007h319v-197h-836v197z" />
    <glyph glyph-name="itilde" unicode="&#x129;" 
d="M244 1212v37q0 113 79.5 192t190.5 79q90 0 156 -50q10 -8 31.5 -26.5t31.5 -25.5t25.5 -14t29.5 -7q31 0 52.5 22.5t21.5 50.5v37h197v-37q0 -111 -79 -190.5t-192 -79.5q-88 0 -153 51q-10 8 -30.5 24.5t-32 25t-28 15.5t-30.5 7q-31 0 -52.5 -20.5t-21.5 -53.5v-37
h-196zM270 1044h480v-847h325v-197h-872v197h350v651h-283v196z" />
    <glyph glyph-name="Imacron" unicode="&#x12a;" 
d="M307 1554v197h602v-197h-602zM190 197h320v1007h-301v197h799v-197h-301v-1007h319v-197h-836v197z" />
    <glyph glyph-name="imacron" unicode="&#x12b;" 
d="M350 1198v197h602v-197h-602zM270 1044h480v-847h325v-197h-872v197h350v651h-283v196z" />
    <glyph glyph-name="Ibreve" unicode="&#x12c;" 
d="M332 1812h196q0 -33 23.5 -56t56.5 -23t56.5 23.5t23.5 55.5h197q0 -113 -82 -194.5t-194.5 -81.5t-194.5 81.5t-82 194.5zM190 197h320v1007h-301v197h799v-197h-301v-1007h319v-197h-836v197z" />
    <glyph glyph-name="ibreve" unicode="&#x12d;" 
d="M375 1456h196q0 -33 23.5 -56.5t56.5 -23.5t56.5 23.5t23.5 56.5h197q0 -113 -81 -194.5t-195.5 -81.5t-195.5 81.5t-81 194.5zM270 1044h480v-847h325v-197h-872v197h350v651h-283v196z" />
    <glyph glyph-name="Iogonek" unicode="&#x12e;" 
d="M1098 -160h51v-196h-49q-113 0 -192 78.5t-79 189.5v88h-639v197h320v1007h-301v197h799v-197h-301v-1007h319v-285q0 -29 21.5 -50.5t50.5 -21.5z" />
    <glyph glyph-name="iogonek" unicode="&#x12f;" 
d="M750 1511v-325h-197v325h197zM1147 -160h51v-196h-49q-113 0 -191.5 78.5t-78.5 189.5v88h-676v197h350v651h-283v196h480v-847h325v-285q0 -29 21.5 -50.5t50.5 -21.5z" />
    <glyph glyph-name="Idotaccent" unicode="&#x130;" 
d="M510 1542v326h197v-326h-197zM190 197h320v1007h-301v197h799v-197h-301v-1007h319v-197h-836v197z" />
    <glyph glyph-name="dotlessi" unicode="&#x131;" 
d="M270 1044h480v-847h325v-197h-872v197h350v651h-283v196z" />
    <glyph glyph-name="Jcircumflex" unicode="&#x134;" 
d="M272 1628l254 254h164l254 -254l-139 -139l-197 197l-196 -197zM233 1401h762v-1039q0 -158 -111.5 -269t-269.5 -111h-79q-133 0 -235.5 80.5t-133.5 205.5l188 56q12 -61 62.5 -103.5t118.5 -42.5h79q76 0 130.5 54.5t54.5 129.5v842h-566v197z" />
    <glyph glyph-name="jcircumflex" unicode="&#x135;" 
d="M416 1272l254 254h164l253 -254l-139 -139l-196 196l-197 -196zM229 1044h621v-1040q0 -158 -110.5 -268.5t-268.5 -110.5q-131 0 -231.5 79t-133.5 202l189 57q14 -61 63.5 -101t112.5 -40q76 0 129 53t53 129v844h-424v196z" />
    <glyph glyph-name="Kcommaaccent" unicode="&#x136;" 
d="M203 1401h196v-596h129l271 297q74 80 73 172v127h197v-129q0 -23 -4 -56.5t-35 -110.5t-86 -136l-244 -262l261 -273q55 -59 86.5 -137t35.5 -111.5t4 -56.5v-129h-196v129q0 90 -74 170l-291 309h-127v-608h-196v1401zM451 -154h366v-202q0 -141 -87 -251t-220 -143
l-57 189q74 16 121 73.5t47 137.5h-170v196z" />
    <glyph glyph-name="kcommaaccent" unicode="&#x137;" 
d="M221 1401h197v-787h168l178 152q33 29 52.5 65.5t23.5 61.5l2 22v129h196v-129q0 -25 -4 -58.5t-41 -109t-100 -131.5l-121 -98l162 -129q123 -123 123 -262v-127h-197v127q0 27 -13 54.5t-24.5 41t-15.5 15.5l-219 180h-170v-418h-197v1401zM457 -154h366v-202
q0 -141 -87 -251t-220 -143l-57 189q74 16 121 73.5t47 137.5h-170v196z" />
    <glyph glyph-name="kgreenlandic" unicode="&#x138;" 
d="M221 1044h197v-430h168l178 152q33 29 52.5 65.5t23.5 61.5l2 22v129h196v-129q0 -25 -4 -58.5t-41 -109t-100 -131.5l-121 -98l162 -129q123 -123 123 -262v-127h-197v127q0 27 -13 54.5t-24.5 41t-15.5 15.5l-219 180h-170v-418h-197v1044z" />
    <glyph glyph-name="Lacute" unicode="&#x139;" 
d="M332 1511l-139 142l296 297l142 -140zM240 1401h196v-1204h621v-197h-817v1401z" />
    <glyph glyph-name="lacute" unicode="&#x13a;" 
d="M516 1511l-139 142l297 297l141 -140zM1174 262q-33 -123 -134.5 -201.5t-232.5 -78.5q-156 0 -267.5 111.5t-111.5 266.5v844h-307v197h504v-1041q0 -76 53 -129t129 -53q66 0 115 41t65 103z" />
    <glyph glyph-name="Lcommaaccent" unicode="&#x13b;" 
d="M240 1401h196v-1204h621v-197h-817v1401zM465 -154h366v-202q0 -141 -87 -251t-220 -143l-57 189q74 16 121 73.5t47 137.5h-170v196z" />
    <glyph glyph-name="lcommaaccent" unicode="&#x13c;" 
d="M1174 262q-33 -123 -134.5 -201.5t-232.5 -78.5q-156 0 -267.5 111.5t-111.5 266.5v844h-307v197h504v-1041q0 -76 53 -129t129 -53q66 0 115 41t65 103zM623 -154h366v-202q0 -141 -87 -251t-220 -143l-57 189q74 16 121 73.5t47 137.5h-170v196z" />
    <glyph glyph-name="Lcaron" unicode="&#x13d;" 
d="M240 1401h196v-1204h621v-197h-817v1401zM528 1401h367v-203q0 -141 -87 -250.5t-220 -142.5l-58 188q74 16 121 73.5t47 137.5h-170v197z" />
    <glyph glyph-name="lcaron" unicode="&#x13e;" 
d="M1174 262q-33 -123 -134.5 -201.5t-232.5 -78.5q-156 0 -267.5 111.5t-111.5 266.5v844h-307v197h504v-1041q0 -76 53 -129t129 -53q66 0 115 41t65 103zM717 1401h366v-203q0 -141 -87 -250.5t-220 -142.5l-57 188q74 16 121 73.5t47 137.5h-170v197z" />
    <glyph glyph-name="Ldot" unicode="&#x13f;" 
d="M240 1401h196v-1204h621v-197h-817v1401zM580 582v325h196v-325h-196z" />
    <glyph glyph-name="ldot" unicode="&#x140;" 
d="M1174 262q-33 -123 -134.5 -201.5t-232.5 -78.5q-156 0 -267.5 111.5t-111.5 266.5v844h-307v197h504v-1041q0 -76 53 -129t129 -53q66 0 115 41t65 103zM719 645v326h196v-326h-196z" />
    <glyph glyph-name="Lslash" unicode="&#x141;" 
d="M498 197h620v-197h-817v403l-63 -63l-140 139l203 203v719h197v-522l217 217l139 -140l-356 -356v-403z" />
    <glyph glyph-name="lslash" unicode="&#x142;" 
d="M987 322l187 -60q-33 -123 -134.5 -201.5t-232.5 -78.5q-156 0 -267.5 111.5t-111.5 266.5v144l-51 -51l-139 139l190 190v422h-307v197h504v-424l75 76l138 -138l-213 -213v-342q0 -76 53 -129t129 -53q66 0 115 41.5t65 102.5z" />
    <glyph glyph-name="Nacute" unicode="&#x143;" 
d="M602 1511l-139 142l297 297l141 -140zM160 1401h246l454 -1045v1045h197v-1401h-246l-455 1044v-1044h-196v1401z" />
    <glyph glyph-name="nacute" unicode="&#x144;" 
d="M928 1454l-299 -299l-140 141l297 297zM651 1063q158 0 269.5 -111.5t111.5 -269.5v-682h-196v682q0 76 -53.5 130t-131.5 54h-73q-76 0 -130.5 -54t-54.5 -130v-682h-196v1044h196v-65q100 84 234 84h24z" />
    <glyph glyph-name="Ncommaaccent" unicode="&#x145;" 
d="M160 1401h246l454 -1045v1045h197v-1401h-246l-455 1044v-1044h-196v1401zM424 -154h367v-202q0 -141 -87.5 -251t-220.5 -143l-57 189q74 16 121 73.5t47 137.5h-170v196z" />
    <glyph glyph-name="ncommaaccent" unicode="&#x146;" 
d="M651 1063q158 0 269.5 -111.5t111.5 -269.5v-682h-196v682q0 76 -53.5 130t-131.5 54h-73q-76 0 -130.5 -54t-54.5 -130v-682h-196v1044h196v-65q100 84 234 84h24zM451 -350v196h366v-202q0 -141 -87 -251t-220 -143l-57 189q74 16 121 73.5t47 137.5h-170z" />
    <glyph glyph-name="Ncaron" unicode="&#x147;" 
d="M272 1808l140 140l196 -197l197 197l139 -140l-254 -254h-164zM160 1401h246l454 -1045v1045h197v-1401h-246l-455 1044v-1044h-196v1401z" />
    <glyph glyph-name="ncaron" unicode="&#x148;" 
d="M717 1198h-164l-254 254l139 139l197 -196l196 196l140 -139zM651 1063q158 0 269.5 -111.5t111.5 -269.5v-682h-196v682q0 76 -53.5 130t-131.5 54h-73q-76 0 -130.5 -54t-54.5 -130v-682h-196v1044h196v-65q100 84 234 84h24z" />
    <glyph glyph-name="napostrophe" unicode="&#x149;" 
d="M322 1442q0 -141 -87.5 -251t-220.5 -142l-57 188q74 16 121 73.5t47 137.5h-170v197h367v-203zM651 1063q158 0 269.5 -111.5t111.5 -269.5v-682h-196v682q0 76 -53.5 130t-131.5 54h-73q-76 0 -130.5 -54t-54.5 -130v-682h-196v1044h196v-65q100 84 234 84h24z" />
    <glyph glyph-name="Eng" unicode="&#x14a;" 
d="M860 1401h197v-1489q0 -111 -79 -189.5t-192 -78.5h-49v196h51q29 0 50.5 21.5t21.5 50.5v88h-49l-455 1044v-1044h-196v1401h246l454 -1045v1045z" />
    <glyph glyph-name="eng" unicode="&#x14b;" 
d="M651 1063q158 0 269.5 -111.5t111.5 -269.5v-770q0 -111 -79 -189.5t-191 -78.5h-49v196h51q29 0 50.5 21.5t21.5 50.5v770q0 76 -53.5 130t-131.5 54h-73q-76 0 -130.5 -54t-54.5 -130v-682h-196v1044h196v-65q100 84 234 84h24z" />
    <glyph glyph-name="Omacron" unicode="&#x14c;" 
d="M307 1554v197h602v-197h-602zM559 -18q-158 0 -269.5 111.5t-111.5 268.5v676q0 158 111.5 269.5t269.5 111.5h98q158 0 269.5 -111.5t111.5 -269.5v-676q0 -158 -111.5 -269t-269.5 -111h-98zM559 178h98q76 0 130.5 54.5t54.5 129.5v676q0 76 -54.5 130.5t-130.5 54.5
h-98q-76 0 -130 -54.5t-54 -130.5v-676q0 -76 54 -130t130 -54z" />
    <glyph glyph-name="omacron" unicode="&#x14d;" 
d="M307 1198v197h602v-197h-602zM571 1063h74q158 0 269.5 -111.5t111.5 -269.5v-320q0 -158 -111.5 -269t-269.5 -111h-74q-158 0 -269.5 111.5t-111.5 268.5v320q0 158 111.5 269.5t269.5 111.5zM571 866q-76 0 -130 -54t-54 -130v-320q0 -76 54.5 -130t129.5 -54h74
q76 0 130 54.5t54 129.5v320q0 76 -54 130t-130 54h-74z" />
    <glyph glyph-name="Obreve" unicode="&#x14e;" 
d="M332 1812h196q0 -33 23.5 -56t56.5 -23t56.5 23.5t23.5 55.5h197q0 -113 -82 -194.5t-194.5 -81.5t-194.5 81.5t-82 194.5zM559 -18q-158 0 -269.5 111.5t-111.5 268.5v676q0 158 111.5 269.5t269.5 111.5h98q158 0 269.5 -111.5t111.5 -269.5v-676q0 -158 -111.5 -269
t-269.5 -111h-98zM559 178h98q76 0 130.5 54.5t54.5 129.5v676q0 76 -54.5 130.5t-130.5 54.5h-98q-76 0 -130 -54.5t-54 -130.5v-676q0 -76 54 -130t130 -54z" />
    <glyph glyph-name="obreve" unicode="&#x14f;" 
d="M332 1456h196q0 -33 23.5 -56.5t56.5 -23.5t56.5 23.5t23.5 56.5h197q0 -113 -82 -194.5t-194.5 -81.5t-194.5 81.5t-82 194.5zM571 1063h74q158 0 269.5 -111.5t111.5 -269.5v-320q0 -158 -111.5 -269t-269.5 -111h-74q-158 0 -269.5 111.5t-111.5 268.5v320
q0 158 111.5 269.5t269.5 111.5zM571 866q-76 0 -130 -54t-54 -130v-320q0 -76 54.5 -130t129.5 -54h74q76 0 130 54.5t54 129.5v320q0 76 -54 130t-130 54h-74z" />
    <glyph glyph-name="Ohungarumlaut" unicode="&#x150;" 
d="M430 1511l-139 142l297 297l141 -140zM852 1511l-139 142l297 297l141 -140zM559 -18q-158 0 -269.5 111.5t-111.5 268.5v676q0 158 111.5 269.5t269.5 111.5h98q158 0 269.5 -111.5t111.5 -269.5v-676q0 -158 -111.5 -269t-269.5 -111h-98zM559 178h98q76 0 130.5 54.5
t54.5 129.5v676q0 76 -54.5 130.5t-130.5 54.5h-98q-76 0 -130 -54.5t-54 -130.5v-676q0 -76 54 -130t130 -54z" />
    <glyph glyph-name="ohungarumlaut" unicode="&#x151;" 
d="M430 1155l-139 141l297 297l141 -139zM852 1155l-139 141l297 297l141 -139zM571 1063h74q158 0 269.5 -111.5t111.5 -269.5v-320q0 -158 -111.5 -269t-269.5 -111h-74q-158 0 -269.5 111.5t-111.5 268.5v320q0 158 111.5 269.5t269.5 111.5zM571 866q-76 0 -130 -54
t-54 -130v-320q0 -76 54.5 -130t129.5 -54h74q76 0 130 54.5t54 129.5v320q0 76 -54 130t-130 54h-74z" />
    <glyph glyph-name="OE" unicode="&#x152;" 
d="M1122 1204h-288v-405h227v-197h-227v-405h288v-197h-485v12q-51 -31 -117 -30q-131 0 -222 92t-91 221v811q0 131 91 222t222 91q63 0 117 -28v10h485v-197zM520 178q47 0 82 35t35 82v811q0 49 -35 83t-82 34q-49 0 -83 -34t-34 -83v-811q0 -47 34 -82t83 -35z" />
    <glyph glyph-name="oe" unicode="&#x153;" 
d="M1143 428h-430v-133q0 -47 34.5 -82t81.5 -35q41 0 72 25.5t41 62.5l191 -55q-29 -100 -113 -164.5t-191 -64.5q-133 0 -215 106q-82 -106 -215 -106q-129 0 -221 92t-92 221v455q0 131 92 222t221 91q135 0 215 -107q80 106 215 107q131 0 222.5 -91t91.5 -222v-322z
M516 295v455q0 49 -33.5 82.5t-83.5 33.5q-47 0 -81.5 -33.5t-34.5 -82.5v-455q0 -47 34.5 -82t81.5 -35q49 0 83 35t34 82zM713 750v-144h233v144q0 49 -33.5 82.5t-83.5 33.5q-47 0 -81.5 -33.5t-34.5 -82.5z" />
    <glyph glyph-name="Racute" unicode="&#x154;" 
d="M891 1810l-299 -299l-139 142l297 297zM936 434q127 -133 127 -305v-129h-197v129q0 92 -73 170l-228 242h-159v-541h-197v1401h455q158 0 269 -111.5t111 -269.5v-98q0 -117 -65.5 -213.5t-171.5 -139.5zM406 1204v-467h258q78 0 131 53.5t53 131.5v98q0 78 -53.5 131
t-130.5 53h-258z" />
    <glyph glyph-name="racute" unicode="&#x155;" 
d="M739 1155l-139 141l297 297l141 -139zM117 0v197h209v485q0 158 111.5 269.5t269.5 111.5h77q133 0 235.5 -81t133.5 -206l-188 -55q-14 63 -64.5 104t-116.5 41h-77q-76 0 -130.5 -54t-54.5 -130v-485h455v-197h-860z" />
    <glyph glyph-name="Rcommaaccent" unicode="&#x156;" 
d="M936 434q127 -133 127 -305v-129h-197v129q0 92 -73 170l-228 242h-159v-541h-197v1401h455q158 0 269 -111.5t111 -269.5v-98q0 -117 -65.5 -213.5t-171.5 -139.5zM406 1204v-467h258q78 0 131 53.5t53 131.5v98q0 78 -53.5 131t-130.5 53h-258zM449 -350v196h366v-202
q0 -141 -87 -251t-220 -143l-57 189q74 16 120.5 73.5t46.5 137.5h-169z" />
    <glyph glyph-name="rcommaaccent" unicode="&#x157;" 
d="M117 0v197h209v485q0 158 111.5 269.5t269.5 111.5h77q133 0 235.5 -81t133.5 -206l-188 -55q-14 63 -64.5 104t-116.5 41h-77q-76 0 -130.5 -54t-54.5 -130v-485h455v-197h-860zM362 -154h367v-202q0 -141 -87 -251t-220 -143l-57 189q74 16 120.5 73.5t46.5 137.5h-170
v196z" />
    <glyph glyph-name="Rcaron" unicode="&#x158;" 
d="M680 1554h-164l-254 254l139 140l197 -197l197 197l139 -140zM936 434q127 -133 127 -305v-129h-197v129q0 92 -73 170l-228 242h-159v-541h-197v1401h455q158 0 269 -111.5t111 -269.5v-98q0 -117 -65.5 -213.5t-171.5 -139.5zM406 1204v-467h258q78 0 131 53.5
t53 131.5v98q0 78 -53.5 131t-130.5 53h-258z" />
    <glyph glyph-name="rcaron" unicode="&#x159;" 
d="M410 1452l139 139l196 -196l197 196l139 -139l-254 -254h-163zM117 0v197h209v485q0 158 111.5 269.5t269.5 111.5h77q133 0 235.5 -81t133.5 -206l-188 -55q-14 63 -64.5 104t-116.5 41h-77q-76 0 -130.5 -54t-54.5 -130v-485h455v-197h-860z" />
    <glyph glyph-name="Sacute" unicode="&#x15a;" 
d="M600 1511l-139 142l297 297l141 -140zM147 270l189 56q14 -63 64.5 -105.5t117.5 -42.5h137q76 0 130.5 54.5t54.5 129.5q0 156 -176 224l-181 67q-307 121 -307 385q0 158 111.5 269.5t269.5 111.5h96q131 0 233.5 -81t135.5 -205l-191 -56q-12 63 -62 104.5t-116 41.5
h-96q-78 0 -131 -54.5t-53 -130.5q0 -66 38 -112.5t148 -89.5l180 -70q139 -57 218 -160.5t79 -243.5q0 -158 -111.5 -269t-269.5 -111h-137q-133 0 -235.5 81.5t-135.5 206.5z" />
    <glyph glyph-name="sacute" unicode="&#x15b;" 
d="M616 1155l-139 141l297 297l141 -139zM193 209l188 57q10 -39 40 -63.5t71 -24.5h227q45 0 78.5 34t33.5 81q0 51 -33.5 83t-88.5 40l-203 26q-125 12 -210 101.5t-85 210.5q0 129 91 219t220 90h191q104 0 187 -63.5t112 -161.5l-189 -58q-8 39 -38.5 62.5t-71.5 23.5
h-191q-47 0 -80.5 -32.5t-33.5 -79.5q0 -49 35.5 -81t86.5 -36l209 -27q127 -18 208 -105t81 -212q0 -127 -91 -219t-218 -92h-227q-106 0 -188 63.5t-111 163.5z" />
    <glyph glyph-name="Scircumflex" unicode="&#x15c;" 
d="M270 1628l254 254h164l254 -254l-139 -139l-197 197l-196 -197zM147 270l189 56q14 -63 64.5 -105.5t117.5 -42.5h137q76 0 130.5 54.5t54.5 129.5q0 156 -176 224l-181 67q-307 121 -307 385q0 158 111.5 269.5t269.5 111.5h96q131 0 233.5 -81t135.5 -205l-191 -56
q-12 63 -62 104.5t-116 41.5h-96q-78 0 -131 -54.5t-53 -130.5q0 -66 38 -112.5t148 -89.5l180 -70q139 -57 218 -160.5t79 -243.5q0 -158 -111.5 -269t-269.5 -111h-137q-133 0 -235.5 81.5t-135.5 206.5z" />
    <glyph glyph-name="scircumflex" unicode="&#x15d;" 
d="M287 1272l254 254h164l253 -254l-139 -139l-196 196l-197 -196zM193 209l188 57q10 -39 40 -63.5t71 -24.5h227q45 0 78.5 34t33.5 81q0 51 -33.5 83t-88.5 40l-203 26q-125 12 -210 101.5t-85 210.5q0 129 91 219t220 90h191q104 0 187 -63.5t112 -161.5l-189 -58
q-8 39 -38.5 62.5t-71.5 23.5h-191q-47 0 -80.5 -32.5t-33.5 -79.5q0 -49 35.5 -81t86.5 -36l209 -27q127 -18 208 -105t81 -212q0 -127 -91 -219t-218 -92h-227q-106 0 -188 63.5t-111 163.5z" />
    <glyph glyph-name="Scedilla" unicode="&#x15e;" 
d="M1036 362q0 -150 -101 -259t-249 -119v-76q80 -29 129 -100.5t49 -157.5q0 -115 -81 -196t-195 -81h-99v197h99q35 0 57.5 22.5t22.5 57.5t-22.5 57.5t-57.5 22.5h-99v254q-123 8 -217 88t-125 198l189 56q14 -63 64.5 -105.5t117.5 -42.5h137q76 0 130.5 54.5
t54.5 129.5q0 156 -176 224l-181 67q-307 121 -307 385q0 158 111.5 269.5t269.5 111.5h96q131 0 233.5 -81t135.5 -205l-191 -56q-12 63 -62 104.5t-116 41.5h-96q-78 0 -131 -54.5t-53 -130.5q0 -66 38 -112.5t148 -89.5l180 -70q139 -57 218 -161t79 -243z" />
    <glyph glyph-name="scedilla" unicode="&#x15f;" 
d="M719 -18h-10v-74q80 -29 129 -100.5t49 -157.5q0 -115 -81 -196t-196 -81h-98v197h98q33 0 56.5 22.5t23.5 57.5t-23.5 57.5t-56.5 22.5h-98v252h-20q-106 0 -188.5 63.5t-110.5 163.5l188 57q10 -39 40 -63.5t71 -24.5h227q45 0 78.5 34t33.5 81q0 51 -33.5 83t-88.5 40
l-203 26q-125 12 -210 101.5t-85 210.5q0 129 91 219t220 90h191q104 0 187 -63.5t112 -161.5l-189 -58q-8 39 -38.5 62.5t-71.5 23.5h-191q-47 0 -80.5 -32.5t-33.5 -79.5q0 -49 35.5 -81t86.5 -36l209 -27q127 -18 208 -105t81 -212q0 -127 -91 -219t-218 -92z" />
    <glyph glyph-name="Scaron" unicode="&#x160;" 
d="M270 1808l140 140l196 -197l197 197l139 -140l-254 -254h-164zM147 270l189 56q14 -63 64.5 -105.5t117.5 -42.5h137q76 0 130.5 54.5t54.5 129.5q0 156 -176 224l-181 67q-307 121 -307 385q0 158 111.5 269.5t269.5 111.5h96q131 0 233.5 -81t135.5 -205l-191 -56
q-12 63 -62 104.5t-116 41.5h-96q-78 0 -131 -54.5t-53 -130.5q0 -66 38 -112.5t148 -89.5l180 -70q139 -57 218 -160.5t79 -243.5q0 -158 -111.5 -269t-269.5 -111h-137q-133 0 -235.5 81.5t-135.5 206.5z" />
    <glyph glyph-name="scaron" unicode="&#x161;" 
d="M287 1452l139 139l197 -196l196 196l139 -139l-253 -254h-164zM193 209l188 57q10 -39 40 -63.5t71 -24.5h227q45 0 78.5 34t33.5 81q0 51 -33.5 83t-88.5 40l-203 26q-125 12 -210 101.5t-85 210.5q0 129 91 219t220 90h191q104 0 187 -63.5t112 -161.5l-189 -58
q-8 39 -38.5 62.5t-71.5 23.5h-191q-47 0 -80.5 -32.5t-33.5 -79.5q0 -49 35.5 -81t86.5 -36l209 -27q127 -18 208 -105t81 -212q0 -127 -91 -219t-218 -92h-227q-106 0 -188 63.5t-111 163.5z" />
    <glyph glyph-name="Tcommaaccent" unicode="&#x162;" 
d="M707 1204v-1296q80 -29 129 -100.5t49 -157.5q0 -115 -81 -196t-196 -81h-98v197h98q35 0 57.5 22.5t22.5 57.5t-22.5 57.5t-57.5 22.5h-98v1474h-344v197h885v-197h-344z" />
    <glyph glyph-name="tcommaaccent" unicode="&#x163;" 
d="M872 -92q80 -29 129.5 -100.5t49.5 -157.5q0 -115 -81 -196t-196 -81h-98v197h98q33 0 56.5 22.5t23.5 57.5t-23.5 57.5t-56.5 22.5h-98v264q-121 35 -201 137t-80 229v488h-282v196h282v283h197v-283h467v-196h-467v-488q0 -76 53 -129t129 -53q66 0 115 41t63 103
l189 -60q-27 -96 -98.5 -167.5t-170.5 -100.5v-86z" />
    <glyph glyph-name="Tcaron" unicode="&#x164;" 
d="M272 1808l140 140l196 -197l197 197l139 -140l-254 -254h-164zM166 1401h885v-197h-344v-1204h-197v1204h-344v197z" />
    <glyph glyph-name="tcaron" unicode="&#x165;" 
d="M686 1731h367v-203q0 -141 -87 -251t-221 -142l-57 188q74 16 121 73.5t47 137.5h-170v197zM113 848v196h282v283h197v-283h467v-196h-467v-488q0 -76 53 -129t129 -53q66 0 115 41t63 103l189 -60q-33 -121 -134.5 -200.5t-232.5 -79.5q-156 0 -267.5 111.5
t-111.5 266.5v488h-282z" />
    <glyph glyph-name="Tbar" unicode="&#x166;" 
d="M1051 1204h-344v-456h221v-197h-221v-551h-197v551h-221v197h221v456h-344v197h885v-197z" />
    <glyph glyph-name="tbar" unicode="&#x167;" 
d="M952 322l189 -60q-33 -121 -134.5 -200.5t-232.5 -79.5q-156 0 -267.5 111.5t-111.5 266.5v113h-205v197h205v178h-282v196h282v283h197v-283h467v-196h-467v-178h239v-197h-239v-113q0 -76 53 -129t129 -53q66 0 115 41.5t63 102.5z" />
    <glyph glyph-name="Utilde" unicode="&#x168;" 
d="M201 1569v37q0 113 79.5 191.5t190.5 78.5q90 0 156 -49q10 -8 31.5 -26.5t31.5 -26t25.5 -14.5t29.5 -7q31 0 52.5 22.5t21.5 51.5v37h197v-37q0 -111 -79 -191t-192 -80q-88 0 -153 52q-10 8 -30.5 24.5t-32 24.5t-28 15t-30.5 7q-31 0 -52.5 -20.5t-21.5 -52.5v-37
h-196zM182 1401h197v-1039q0 -76 54 -130t130 -54h99q76 0 130 54.5t54 129.5v1039h196v-1039q0 -158 -111.5 -269t-268.5 -111h-99q-158 0 -269.5 111.5t-111.5 268.5v1039z" />
    <glyph glyph-name="utilde" unicode="&#x169;" 
d="M201 1212v37q0 113 79.5 192t190.5 79q90 0 156 -50q10 -8 31.5 -26.5t31.5 -25.5t25.5 -14t29.5 -7q31 0 52.5 22.5t21.5 50.5v37h197v-37q0 -111 -79 -190.5t-192 -79.5q-88 0 -153 51q-10 8 -30.5 24.5t-32 25t-28 15.5t-30.5 7q-31 0 -52.5 -20.5t-21.5 -53.5v-37
h-196zM190 1044h197v-682q0 -76 54.5 -130t129.5 -54h74q76 0 130 54.5t54 129.5v682h197v-682q0 -158 -111.5 -269t-269.5 -111h-74q-158 0 -269.5 111.5t-111.5 268.5v682z" />
    <glyph glyph-name="Umacron" unicode="&#x16a;" 
d="M307 1554v197h602v-197h-602zM182 1401h197v-1039q0 -76 54 -130t130 -54h99q76 0 130 54.5t54 129.5v1039h196v-1039q0 -158 -111.5 -269t-268.5 -111h-99q-158 0 -269.5 111.5t-111.5 268.5v1039z" />
    <glyph glyph-name="umacron" unicode="&#x16b;" 
d="M307 1198v197h602v-197h-602zM190 1044h197v-682q0 -76 54.5 -130t129.5 -54h74q76 0 130 54.5t54 129.5v682h197v-682q0 -158 -111.5 -269t-269.5 -111h-74q-158 0 -269.5 111.5t-111.5 268.5v682z" />
    <glyph glyph-name="Ubreve" unicode="&#x16c;" 
d="M332 1812h196q0 -33 23.5 -56t56.5 -23t56.5 23.5t23.5 55.5h197q0 -113 -82 -194.5t-194.5 -81.5t-194.5 81.5t-82 194.5zM182 1401h197v-1039q0 -76 54 -130t130 -54h99q76 0 130 54.5t54 129.5v1039h196v-1039q0 -158 -111.5 -269t-268.5 -111h-99
q-158 0 -269.5 111.5t-111.5 268.5v1039z" />
    <glyph glyph-name="ubreve" unicode="&#x16d;" 
d="M332 1456h196q0 -33 23.5 -56.5t56.5 -23.5t56.5 23.5t23.5 56.5h197q0 -113 -82 -194.5t-194.5 -81.5t-194.5 81.5t-82 194.5zM190 1044h197v-682q0 -76 54.5 -130t129.5 -54h74q76 0 130 54.5t54 129.5v682h197v-682q0 -158 -111.5 -269t-269.5 -111h-74
q-158 0 -269.5 111.5t-111.5 268.5v682z" />
    <glyph glyph-name="Uring" unicode="&#x16e;" 
d="M332 1677q0 115 81 196t195.5 81t195.5 -81t81 -196q0 -113 -82 -194.5t-194.5 -81.5t-194.5 81.5t-82 194.5zM528 1677q0 -33 23.5 -56.5t56.5 -23.5t56.5 24t23.5 56q0 35 -22.5 57.5t-57.5 22.5t-57.5 -22.5t-22.5 -57.5zM182 1401h197v-1039q0 -76 54 -130t130 -54
h99q76 0 130 54.5t54 129.5v1039h196v-1039q0 -158 -111.5 -269t-268.5 -111h-99q-158 0 -269.5 111.5t-111.5 268.5v1039z" />
    <glyph glyph-name="uring" unicode="&#x16f;" 
d="M332 1321q0 115 81 195.5t195.5 80.5t195.5 -80.5t81 -195.5q0 -113 -82 -195t-194.5 -82t-194.5 82t-82 195zM528 1321q0 -33 23.5 -56.5t56.5 -23.5t56.5 23.5t23.5 56.5q0 35 -22.5 57.5t-57.5 22.5t-57.5 -22.5t-22.5 -57.5zM190 1044h197v-682q0 -76 54.5 -130
t129.5 -54h74q76 0 130 54.5t54 129.5v682h197v-682q0 -158 -111.5 -269t-269.5 -111h-74q-158 0 -269.5 111.5t-111.5 268.5v682z" />
    <glyph glyph-name="Uhungarumlaut" unicode="&#x170;" 
d="M430 1511l-139 142l297 297l141 -140zM852 1511l-139 142l297 297l141 -140zM182 1401h197v-1039q0 -76 54 -130t130 -54h99q76 0 130 54.5t54 129.5v1039h196v-1039q0 -158 -111.5 -269t-268.5 -111h-99q-158 0 -269.5 111.5t-111.5 268.5v1039z" />
    <glyph glyph-name="uhungarumlaut" unicode="&#x171;" 
d="M430 1155l-139 141l297 297l141 -139zM852 1155l-139 141l297 297l141 -139zM190 1044h197v-682q0 -76 54.5 -130t129.5 -54h74q76 0 130 54.5t54 129.5v682h197v-682q0 -158 -111.5 -269t-269.5 -111h-74q-158 0 -269.5 111.5t-111.5 268.5v682z" />
    <glyph glyph-name="Uogonek" unicode="&#x172;" 
d="M846 1401h196v-1039q0 -145 -97 -253.5t-238 -124.5v-72q0 -29 21.5 -50.5t49.5 -21.5h51v-196h-49q-113 0 -191.5 78.5t-78.5 189.5v74q-139 18 -233.5 125.5t-94.5 250.5v1039h197v-1039q0 -76 54 -130t130 -54h99q76 0 130 54.5t54 129.5v1039z" />
    <glyph glyph-name="uogonek" unicode="&#x173;" 
d="M829 1044h197v-682q0 -141 -91 -247.5t-228 -128.5v-74q0 -29 21.5 -50.5t49.5 -21.5h51v-196h-49q-113 0 -191.5 78.5t-78.5 189.5v74q-137 23 -228.5 129t-91.5 247v682h197v-682q0 -76 54.5 -130t129.5 -54h74q76 0 130 54.5t54 129.5v682z" />
    <glyph glyph-name="Wcircumflex" unicode="&#x174;" 
d="M272 1628l254 254h164l254 -254l-139 -139l-197 197l-196 -197zM113 1401h196v-275q0 -115 21 -252l84 -548l98 553h197l96 -547l82 542q20 123 20 254v273h197v-275q0 -143 -21 -284l-135 -842h-221l-117 614l-118 -614h-224l-133 842q-23 141 -22 284v275z" />
    <glyph glyph-name="wcircumflex" unicode="&#x175;" 
d="M272 1272l254 254h164l254 -254l-139 -139l-197 196l-196 -196zM111 913v131h196v-131q0 -115 29 -241l72 -355l114 549h174l113 -549l74 355q27 129 26 241v131h197v-131q0 -145 -31 -284l-139 -629h-205l-123 586l-121 -586h-204l-140 629q-32 139 -32 284z" />
    <glyph glyph-name="Ycircumflex" unicode="&#x176;" 
d="M272 1628l254 254h164l254 -254l-139 -139l-197 197l-196 -197zM1057 1112q0 -145 -88 -256l-262 -336v-520h-197v520l-260 336q-10 10 -28.5 39t-40 91.5t-21.5 125.5v289h196v-289q0 -33 12.5 -66.5t22.5 -51t15 -19.5l202 -262l205 262l6 8q4 8 10.5 20.5t13.5 29
t12 38t5 41.5v289h197v-289z" />
    <glyph glyph-name="ycircumflex" unicode="&#x177;" 
d="M272 1272l254 254h164l254 -254l-139 -139l-197 196l-196 -196zM164 1044h196v-131q0 -102 54 -202l198 -363l199 363q53 96 53 202v131h197v-131q0 -156 -78 -299l-448 -819q-37 -63 -106 -107t-153 -44h-172v196h172q35 0 57.5 19.5t28.5 34.5l138 251l-258 469
q-78 143 -78 299v131z" />
    <glyph glyph-name="Ydieresis" unicode="&#x178;" 
d="M326 1542v326h196v-326h-196zM694 1542v326h197v-326h-197zM1057 1112q0 -145 -88 -256l-262 -336v-520h-197v520l-260 336q-10 10 -28.5 39t-40 91.5t-21.5 125.5v289h196v-289q0 -33 12.5 -66.5t22.5 -51t15 -19.5l202 -262l205 262l6 8q4 8 10.5 20.5t13.5 29t12 38
t5 41.5v289h197v-289z" />
    <glyph glyph-name="Zacute" unicode="&#x179;" 
d="M602 1511l-139 142l297 297l141 -140zM207 1401h799v-197l-596 -1007h614v-197h-836v197l596 1007h-577v197z" />
    <glyph glyph-name="zacute" unicode="&#x17a;" 
d="M606 1155l-139 141l297 297l141 -139zM233 1044h756v-196l-518 -651h537v-197h-793v197l520 651h-502v196z" />
    <glyph glyph-name="Zdotaccent" unicode="&#x17b;" 
d="M510 1542v326h197v-326h-197zM207 1401h799v-197l-596 -1007h614v-197h-836v197l596 1007h-577v197z" />
    <glyph glyph-name="zdotaccent" unicode="&#x17c;" 
d="M514 1186v325h197v-325h-197zM233 1044h756v-196l-518 -651h537v-197h-793v197l520 651h-502v196z" />
    <glyph glyph-name="Zcaron" unicode="&#x17d;" 
d="M272 1808l140 140l196 -197l197 197l139 -140l-254 -254h-164zM207 1401h799v-197l-596 -1007h614v-197h-836v197l596 1007h-577v197z" />
    <glyph glyph-name="zcaron" unicode="&#x17e;" 
d="M276 1452l140 139l196 -196l197 196l139 -139l-254 -254h-164zM233 1044h756v-196l-518 -651h537v-197h-793v197l520 651h-502v196z" />
    <glyph glyph-name="uni0186" unicode="&#x186;" 
d="M174 1133q33 125 135.5 205.5t233.5 80.5h98q158 0 269.5 -111.5t111.5 -269.5v-676q0 -158 -111.5 -269t-269.5 -111h-98q-131 0 -233.5 80.5t-135.5 205.5l188 58q14 -63 64.5 -105.5t116.5 -42.5h98q76 0 130 54.5t54 129.5v676q0 76 -54 130.5t-130 54.5h-98
q-66 0 -116 -42t-65 -104z" />
    <glyph glyph-name="uni0189" unicode="&#x189;" 
d="M676 1401q158 0 269.5 -111.5t111.5 -269.5v-639q0 -158 -111.5 -269.5t-269.5 -111.5h-455v602h-170v197h170v602h455zM860 381v639q0 78 -53 131t-131 53h-258v-405h270v-197h-270v-405h258q78 0 131 53t53 131z" />
    <glyph glyph-name="uni018E" unicode="&#x18e;" 
d="M995 0h-835v197h639v405h-578v197h578v405h-639v197h835v-1401z" />
    <glyph glyph-name="uni018F" unicode="&#x18f;" 
d="M190 1133q31 125 133.5 205.5t235.5 80.5h103q156 0 267 -110.5t113 -268.5v-678q0 -158 -111.5 -269t-268.5 -111h-99q-158 0 -269.5 111.5t-111.5 268.5v437h664v239q0 76 -54.5 130.5t-129.5 54.5h-103q-66 0 -116 -41t-64 -105zM379 602v-240q0 -76 54 -130t130 -54
h99q76 0 130 54.5t54 129.5v240h-467z" />
    <glyph glyph-name="uni0190" unicode="&#x190;" 
d="M709 178q68 0 118 42t62 104l188 -56q-31 -125 -133 -205.5t-235 -80.5h-103q-158 0 -269.5 111.5t-111.5 268.5v68q0 90 45 167t121 120q-70 45 -111.5 118.5t-41.5 159.5v43q0 158 111.5 269.5t268.5 111.5h91q133 0 235.5 -81t132.5 -205l-188 -56q-12 61 -62.5 103.5
t-117.5 42.5h-91q-76 0 -130 -54.5t-54 -130.5v-43q0 -76 54.5 -130t129.5 -54h197v-197h-209q-76 0 -130 -54t-54 -130v-68q0 -76 54 -130t130 -54h103z" />
    <glyph glyph-name="florin" unicode="&#x192;" 
d="M707 1100v-301h288v-197h-288v-301q0 -133 -93.5 -226t-226.5 -93q-111 0 -197 67.5t-112 173.5l188 56q8 -43 42 -72t79 -29q51 0 87 36t36 87v301h-289v197h289v301q0 133 93 226t226 93q111 0 197 -67.5t113 -173.5l-189 -56q-8 43 -42 72t-79 29q-51 0 -86.5 -36
t-35.5 -87z" />
    <glyph glyph-name="uni0197" unicode="&#x197;" 
d="M707 197h319v-197h-836v197h320v421h-201v197h201v389h-301v197h799v-197h-301v-389h202v-197h-202v-421z" />
    <glyph glyph-name="uni019D" unicode="&#x19d;" 
d="M860 1401h197v-1401h-246l-455 1044v-1132q0 -111 -78.5 -189.5t-191.5 -78.5h-49v196h51q29 0 50.5 21.5t21.5 50.5v1489h246l454 -1045v1045z" />
    <glyph glyph-name="uni019F" unicode="&#x19f;" 
d="M657 1419q158 0 269.5 -111.5t111.5 -269.5v-676q0 -158 -111.5 -269t-269.5 -111h-98q-158 0 -269.5 111.5t-111.5 268.5v676q0 158 111.5 269.5t269.5 111.5h98zM559 1223q-76 0 -130 -54.5t-54 -130.5v-239h467v239q0 76 -54.5 130.5t-130.5 54.5h-98zM657 178
q76 0 130.5 54.5t54.5 129.5v240h-467v-240q0 -76 54 -130t130 -54h98z" />
    <glyph glyph-name="Ohorn" unicode="&#x1a0;" 
d="M1032 1401h197v-66q0 -90 -54.5 -162.5t-138.5 -99.5q2 -12 2 -35v-676q0 -158 -111.5 -269t-269.5 -111h-98q-158 0 -269.5 111.5t-111.5 268.5v676q0 158 111.5 269.5t269.5 111.5h98q96 0 178.5 -43t133.5 -119q27 6 45 28t18 50v66zM842 362v676q0 76 -54.5 130.5
t-130.5 54.5h-98q-76 0 -130 -54.5t-54 -130.5v-676q0 -76 54 -130t130 -54h98q76 0 130.5 54t54.5 130z" />
    <glyph glyph-name="ohorn" unicode="&#x1a1;" 
d="M1032 1044h197v-65q0 -94 -57.5 -168t-147.5 -98q2 -10 2 -31v-320q0 -158 -111.5 -269t-269.5 -111h-74q-158 0 -269.5 111.5t-111.5 268.5v320q0 158 112 269.5t269 111.5h74q197 0 313 -164q31 4 52.5 26.5t21.5 53.5v65zM829 362v320q0 76 -54 130t-130 54h-74
q-76 0 -130 -54t-54 -130v-320q0 -76 54.5 -130t129.5 -54h74q76 0 130 54t54 130z" />
    <glyph glyph-name="uni01A9" unicode="&#x1a9;" 
d="M199 1401h839v-197h-606l311 -504l-323 -503h637v-197h-873v197l328 503l-313 504v197z" />
    <glyph glyph-name="Uhorn" unicode="&#x1af;" 
d="M1139 1401h196v-66q0 -115 -82 -195.5t-194 -80.5h-17v-697q0 -158 -111.5 -269t-268.5 -111h-99q-158 0 -269.5 111.5t-111.5 268.5v1039h197v-1039q0 -76 54 -130t130 -54h99q76 0 130 54.5t54 129.5v1039h196v-146h17q33 0 56.5 24t23.5 56v66z" />
    <glyph glyph-name="uhorn" unicode="&#x1b0;" 
d="M1063 1190h197v-66q0 -102 -68 -179t-166 -93v-490q0 -158 -111.5 -269t-269.5 -111h-74q-158 0 -269.5 111.5t-111.5 268.5v682h197v-682q0 -76 54.5 -130t129.5 -54h74q76 0 130 54.5t54 129.5v682h154q33 0 56.5 24t23.5 56v66z" />
    <glyph glyph-name="uni01B1" unicode="&#x1b1;" 
d="M1057 1401v-197h-103q84 -100 84 -233v-609q0 -158 -111.5 -269t-269.5 -111h-98q-158 0 -269.5 111.5t-111.5 268.5v609q0 133 84 233h-102v197h399v-197q-76 0 -130 -54t-54 -130v-658q0 -76 54 -130t130 -54h98q76 0 130.5 54.5t54.5 129.5v658q0 76 -54.5 130
t-130.5 54v197h400z" />
    <glyph glyph-name="uni01CD" unicode="&#x1cd;" 
d="M690 1554h-164l-254 254l140 140l196 -197l197 197l139 -140zM1028 580l4 -19q4 -18 10.5 -49t12.5 -68.5t10 -86t4 -93.5v-264h-197v276q0 25 -2 39h-524q-2 -14 -2 -39v-276h-197v264q0 72 11.5 151t19.5 115.5t12 49.5l183 663q23 78 87 127t148 49t148.5 -49
t87.5 -127zM377 512h465l-6 23l-179 651q-10 37 -49 37q-41 0 -47 -37l-178 -651z" />
    <glyph glyph-name="uni01CE" unicode="&#x1ce;" 
d="M690 1198h-164l-254 254l140 139l196 -196l197 196l139 -139zM819 1044h197v-1044h-197v66q-100 -84 -233 -84h-25q-158 0 -269.5 111.5t-111.5 268.5v320q0 158 111.5 269.5t269.5 111.5h25q133 0 233 -84v65zM635 178q76 0 130 54.5t54 129.5v320q0 76 -53 130t-131 54
h-74q-78 0 -131 -54t-53 -130v-320q0 -76 54 -130t130 -54h74z" />
    <glyph glyph-name="uni01CF" unicode="&#x1cf;" 
d="M272 1808l140 140l196 -197l197 197l139 -140l-254 -254h-164zM190 197h320v1007h-301v197h799v-197h-301v-1007h319v-197h-836v197z" />
    <glyph glyph-name="uni01D0" unicode="&#x1d0;" 
d="M315 1452l140 139l196 -196l197 196l139 -139l-254 -254h-164zM270 1044h480v-847h325v-197h-872v197h350v651h-283v196z" />
    <glyph glyph-name="uni01D1" unicode="&#x1d1;" 
d="M272 1808l140 140l196 -197l197 197l139 -140l-254 -254h-164zM559 -18q-158 0 -269.5 111.5t-111.5 268.5v676q0 158 111.5 269.5t269.5 111.5h98q158 0 269.5 -111.5t111.5 -269.5v-676q0 -158 -111.5 -269t-269.5 -111h-98zM559 178h98q76 0 130.5 54.5t54.5 129.5
v676q0 76 -54.5 130.5t-130.5 54.5h-98q-76 0 -130 -54.5t-54 -130.5v-676q0 -76 54 -130t130 -54z" />
    <glyph glyph-name="uni01D2" unicode="&#x1d2;" 
d="M272 1452l140 139l196 -196l197 196l139 -139l-254 -254h-164zM571 1063h74q158 0 269.5 -111.5t111.5 -269.5v-320q0 -158 -111.5 -269t-269.5 -111h-74q-158 0 -269.5 111.5t-111.5 268.5v320q0 158 111.5 269.5t269.5 111.5zM571 866q-76 0 -130 -54t-54 -130v-320
q0 -76 54.5 -130t129.5 -54h74q76 0 130 54.5t54 129.5v320q0 76 -54 130t-130 54h-74z" />
    <glyph glyph-name="uni01D3" unicode="&#x1d3;" 
d="M272 1808l140 140l196 -197l197 197l139 -140l-254 -254h-164zM182 1401h197v-1039q0 -76 54 -130t130 -54h99q76 0 130 54.5t54 129.5v1039h196v-1039q0 -158 -111.5 -269t-268.5 -111h-99q-158 0 -269.5 111.5t-111.5 268.5v1039z" />
    <glyph glyph-name="uni01D4" unicode="&#x1d4;" 
d="M272 1452l140 139l196 -196l197 196l139 -139l-254 -254h-164zM190 1044h197v-682q0 -76 54.5 -130t129.5 -54h74q76 0 130 54.5t54 129.5v682h197v-682q0 -158 -111.5 -269t-269.5 -111h-74q-158 0 -269.5 111.5t-111.5 268.5v682z" />
    <glyph glyph-name="uni01D5" unicode="&#x1d5;" 
d="M307 1942v196h602v-196h-602zM326 1542v326h196v-326h-196zM694 1542v326h197v-326h-197zM182 1401h197v-1039q0 -76 54 -130t130 -54h99q76 0 130 54.5t54 129.5v1039h196v-1039q0 -158 -111.5 -269t-268.5 -111h-99q-158 0 -269.5 111.5t-111.5 268.5v1039z" />
    <glyph glyph-name="uni01D6" unicode="&#x1d6;" 
d="M307 1585v197h602v-197h-602zM326 1186v325h196v-325h-196zM694 1186v325h197v-325h-197zM190 1044h197v-682q0 -76 54.5 -130t129.5 -54h74q76 0 130 54.5t54 129.5v682h197v-682q0 -158 -111.5 -269t-269.5 -111h-74q-158 0 -269.5 111.5t-111.5 268.5v682z" />
    <glyph glyph-name="uni01D7" unicode="&#x1d7;" 
d="M602 1898l-139 142l297 297l141 -139zM326 1542v326h196v-326h-196zM694 1542v326h197v-326h-197zM182 1401h197v-1039q0 -76 54 -130t130 -54h99q76 0 130 54.5t54 129.5v1039h196v-1039q0 -158 -111.5 -269t-268.5 -111h-99q-158 0 -269.5 111.5t-111.5 268.5v1039z
" />
    <glyph glyph-name="uni01D8" unicode="&#x1d8;" 
d="M602 1542l-139 141l297 297l141 -139zM326 1186v325h196v-325h-196zM694 1186v325h197v-325h-197zM190 1044h197v-682q0 -76 54.5 -130t129.5 -54h74q76 0 130 54.5t54 129.5v682h197v-682q0 -158 -111.5 -269t-269.5 -111h-74q-158 0 -269.5 111.5t-111.5 268.5v682z
" />
    <glyph glyph-name="uni01D9" unicode="&#x1d9;" 
d="M272 2195l140 140l196 -197l197 197l139 -140l-254 -253h-164zM326 1542v326h196v-326h-196zM694 1542v326h197v-326h-197zM182 1401h197v-1039q0 -76 54 -130t130 -54h99q76 0 130 54.5t54 129.5v1039h196v-1039q0 -158 -111.5 -269t-268.5 -111h-99
q-158 0 -269.5 111.5t-111.5 268.5v1039z" />
    <glyph glyph-name="uni01DA" unicode="&#x1da;" 
d="M272 1839l140 139l196 -196l197 196l139 -139l-254 -254h-164zM326 1186v325h196v-325h-196zM694 1186v325h197v-325h-197zM190 1044h197v-682q0 -76 54.5 -130t129.5 -54h74q76 0 130 54.5t54 129.5v682h197v-682q0 -158 -111.5 -269t-269.5 -111h-74
q-158 0 -269.5 111.5t-111.5 268.5v682z" />
    <glyph glyph-name="uni01DB" unicode="&#x1db;" 
d="M612 1898l-299 300l142 139l297 -297zM326 1542v326h196v-326h-196zM694 1542v326h197v-326h-197zM182 1401h197v-1039q0 -76 54 -130t130 -54h99q76 0 130 54.5t54 129.5v1039h196v-1039q0 -158 -111.5 -269t-268.5 -111h-99q-158 0 -269.5 111.5t-111.5 268.5v1039z
" />
    <glyph glyph-name="uni01DC" unicode="&#x1dc;" 
d="M612 1542l-299 299l142 139l297 -297zM326 1186v325h196v-325h-196zM694 1186v325h197v-325h-197zM190 1044h197v-682q0 -76 54.5 -130t129.5 -54h74q76 0 130 54.5t54 129.5v682h197v-682q0 -158 -111.5 -269t-269.5 -111h-74q-158 0 -269.5 111.5t-111.5 268.5v682z
" />
    <glyph glyph-name="uni01DD" unicode="&#x1dd;" 
d="M639 -18h-74q-158 0 -269.5 111.5t-111.5 268.5v228h639v92q0 76 -53 130t-131 54h-80q-66 0 -115 -41t-65 -102l-189 55q33 123 135.5 204t233.5 81h80q156 0 268.5 -111.5t112.5 -269.5v-320q0 -158 -111.5 -269t-269.5 -111zM823 412h-442v-50q0 -76 53 -130t131 -54
h74q78 0 131 54.5t53 129.5v50z" />
    <glyph glyph-name="uni01DE" unicode="&#x1de;" 
d="M909 2138v-196h-602v196h602zM522 1542h-196v326h196v-326zM891 1542h-197v326h197v-326zM1028 580l4 -19q4 -18 10.5 -49t12.5 -68.5t10 -86t4 -93.5v-264h-197v276q0 25 -2 39h-524q-2 -14 -2 -39v-276h-197v264q0 72 11.5 151t19.5 115.5t12 49.5l183 663
q23 78 87 127t148 49t148.5 -49t87.5 -127zM377 512h465l-6 23l-179 651q-10 37 -49 37q-41 0 -47 -37l-178 -651z" />
    <glyph glyph-name="uni01DF" unicode="&#x1df;" 
d="M909 1782v-197h-602v197h602zM522 1186h-196v325h196v-325zM891 1186h-197v325h197v-325zM819 1044h197v-1044h-197v66q-100 -84 -233 -84h-25q-158 0 -269.5 111.5t-111.5 268.5v320q0 158 111.5 269.5t269.5 111.5h25q133 0 233 -84v65zM635 178q76 0 130 54.5
t54 129.5v320q0 76 -53 130t-131 54h-74q-78 0 -131 -54t-53 -130v-320q0 -76 54 -130t130 -54h74z" />
    <glyph glyph-name="Gcaron" unicode="&#x1e6;" 
d="M281 1808l139 140l196 -197l197 197l139 -140l-254 -254h-163zM1036 1133l-190 -56q-12 61 -62.5 103.5t-115.5 42.5h-103q-78 0 -131 -54.5t-53 -130.5v-676q0 -76 53 -130t131 -54h99q78 0 131 54.5t53 129.5v240h-252v197h448v-437q0 -158 -111.5 -269t-268.5 -111
h-99q-158 0 -269.5 111.5t-111.5 268.5v678q0 156 112 267.5t269 111.5h103q131 0 234 -80.5t134 -205.5z" />
    <glyph glyph-name="gcaron" unicode="&#x1e7;" 
d="M666 1198h-164l-254 254l139 139l197 -196l196 196l140 -139zM817 1044h197v-1038q0 -158 -110.5 -269.5t-268.5 -111.5h-78q-133 0 -235.5 81t-133.5 206l189 55q14 -61 64.5 -103t115.5 -42h78q76 0 129 54t53 130v123q-100 -84 -233 -84h-25q-158 0 -269.5 111.5
t-111.5 269.5v256q0 158 111.5 269.5t269.5 111.5h25q131 0 233 -82v63zM633 242q76 0 130 54t54 130v256q0 76 -54 130t-130 54h-74q-76 0 -130 -54t-54 -130v-256q0 -76 54 -130t130 -54h74z" />
    <glyph glyph-name="Aringacute" unicode="&#x1fa;" 
d="M901 2122l-299 -299l-139 141l297 297zM1028 580l4 -19q4 -18 10.5 -49t12.5 -68.5t10 -86t4 -93.5v-264h-197v276q0 25 -2 39h-524q-2 -14 -2 -39v-276h-197v264q0 72 11.5 151t19.5 115.5t12 49.5l183 663q12 39 33 70q-74 80 -74 186q0 115 81 196t195.5 81t195.5 -81
t81 -196q0 -106 -74 -186q20 -31 33 -70zM608 1579q-35 0 -57.5 -23.5t-22.5 -56.5t23.5 -56.5t56.5 -23.5t56.5 23.5t23.5 56.5t-22.5 56.5t-57.5 23.5zM377 512h465l-6 23l-179 651q-10 37 -49 37q-41 0 -47 -37l-178 -651z" />
    <glyph glyph-name="aringacute" unicode="&#x1fb;" 
d="M903 1765l-299 -299l-139 142l297 297zM866 1044h150v-1044h-197v66q-100 -84 -233 -84h-25q-158 0 -269.5 111.5t-111.5 268.5v320q0 102 50.5 190.5t136.5 137.5q-35 59 -35 133q0 115 81 195.5t195.5 80.5t195.5 -81t81 -195q-1 -54 -19 -99zM608 1223
q-35 0 -57.5 -23.5t-22.5 -56.5t23.5 -56.5t56.5 -23.5t56.5 23.5t23.5 56.5t-22.5 56.5t-57.5 23.5zM635 178q76 0 130 54.5t54 129.5v320q0 76 -53 130t-131 54h-74q-78 0 -131 -54t-53 -130v-320q0 -76 54 -130t130 -54h74z" />
    <glyph glyph-name="AEacute" unicode="&#x1fc;" 
d="M993 1810l-299 -299l-139 142l297 297zM1075 1204h-289v-405h228v-197h-228v-405h289v-197h-485v313h-268q-2 -12 -3 -37v-276h-196v264q0 72 11 151t19.5 115.5t12.5 49.5l182 663q23 78 87.5 127t148.5 49q51 0 92 -18h399v-197zM352 510h238v713h-6q-41 0 -47 -37
l-179 -651z" />
    <glyph glyph-name="aeacute" unicode="&#x1fd;" 
d="M905 1454l-299 -299l-139 141l297 297zM1141 428h-430v-133q0 -47 34.5 -82t81.5 -35q41 0 72 25.5t41 62.5l188 -57q-29 -100 -111.5 -163.5t-189.5 -63.5q-63 0 -116 36v-28h-197v28q-53 -37 -117 -36q-131 0 -222 92t-91 221v455q0 131 91 222t222 91q63 0 117 -37v29
h197v-29q53 37 116 37q129 0 221.5 -91t92.5 -222v-322zM397 178q49 0 83 35t34 82v455q0 49 -34 82.5t-83 33.5q-47 0 -81.5 -33.5t-34.5 -82.5v-455q0 -47 34.5 -82t81.5 -35zM827 866q-47 0 -81.5 -33.5t-34.5 -82.5v-144h233v144q0 49 -34 82.5t-83 33.5z" />
    <glyph glyph-name="Oslashacute" unicode="&#x1fe;" 
d="M901 1810l-299 -299l-139 142l297 297zM1149 1395l-135 -221q25 -61 24 -136v-676q0 -158 -111.5 -269t-269.5 -111h-98q-125 0 -227 75l-96 -157l-170 102l137 223q-25 63 -25 137v676q0 158 111.5 269.5t269.5 111.5h98q131 0 232 -78l94 154zM375 1038v-532l409 665
q-51 51 -127 52h-98q-76 0 -130 -54.5t-54 -130.5zM842 362v529l-408 -666q53 -47 125 -47h98q76 0 130.5 54t54.5 130z" />
    <glyph glyph-name="oslashacute" unicode="&#x1ff;" 
d="M901 1454l-299 -299l-139 141l297 297zM1055 1063l-99 -160q70 -102 70 -221v-320q0 -158 -111.5 -269t-269.5 -111h-74q-84 0 -157 34l-82 -133l-168 103l96 157q-70 100 -70 219v320q0 158 112 269.5t269 111.5h74q84 0 158 -35l84 137zM387 362v-12l311 508
q-23 8 -53 8h-74q-76 0 -130 -54t-54 -130v-320zM829 682v12l-311 -508q23 -8 53 -8h74q76 0 130 54.5t54 129.5v320z" />
    <glyph glyph-name="Scommaaccent" unicode="&#x218;" 
d="M147 270l189 56q14 -63 64.5 -105.5t117.5 -42.5h137q76 0 130.5 54.5t54.5 129.5q0 156 -176 224l-181 67q-307 121 -307 385q0 158 111.5 269.5t269.5 111.5h96q131 0 233.5 -81t135.5 -205l-191 -56q-12 63 -62 104.5t-116 41.5h-96q-78 0 -131 -54.5t-53 -130.5
q0 -66 38 -112.5t148 -89.5l180 -70q139 -57 218 -160.5t79 -243.5q0 -158 -111.5 -269t-269.5 -111h-137q-133 0 -235.5 81.5t-135.5 206.5zM403 -154h367v-202q0 -141 -87 -251t-220 -143l-57 189q74 16 120.5 73.5t46.5 137.5h-170v196z" />
    <glyph glyph-name="scommaaccent" unicode="&#x219;" 
d="M193 209l188 57q10 -39 40 -63.5t71 -24.5h227q45 0 78.5 34t33.5 81q0 51 -33.5 83t-88.5 40l-203 26q-125 12 -210 101.5t-85 210.5q0 129 91 219t220 90h191q104 0 187 -63.5t112 -161.5l-189 -58q-8 39 -38.5 62.5t-71.5 23.5h-191q-47 0 -80.5 -32.5t-33.5 -79.5
q0 -49 35.5 -81t86.5 -36l209 -27q127 -18 208 -105t81 -212q0 -127 -91 -219t-218 -92h-227q-106 0 -188 63.5t-111 163.5zM426 -154h367v-202q0 -141 -87.5 -251t-220.5 -143l-57 189q74 16 121 73.5t47 137.5h-170v196z" />
    <glyph glyph-name="uni021A" unicode="&#x21a;" 
d="M166 1401h885v-197h-344v-1204h-197v1204h-344v197zM424 -154h367v-202q0 -141 -87.5 -251t-220.5 -143l-57 189q74 16 121 73.5t47 137.5h-170v196z" />
    <glyph glyph-name="uni021B" unicode="&#x21b;" 
d="M113 848v196h282v283h197v-283h467v-196h-467v-488q0 -76 53 -129t129 -53q66 0 115 41t63 103l189 -60q-33 -121 -134.5 -200.5t-232.5 -79.5q-156 0 -267.5 111.5t-111.5 266.5v488h-282zM590 -154h366v-202q0 -141 -87 -251t-220 -143l-57 189q74 16 121 73.5
t47 137.5h-170v196z" />
    <glyph glyph-name="uni021C" unicode="&#x21c;" 
d="M653 815q158 0 268.5 -111.5t110.5 -269.5v-53q0 -158 -110.5 -269.5t-268.5 -111.5h-424v197h422q78 0 131.5 53t53.5 131v53q0 78 -53.5 131t-131.5 53h-282v197l370 389h-508v197h783v-197l-375 -389h14z" />
    <glyph glyph-name="uni021D" unicode="&#x21d;" 
d="M653 459q158 0 268.5 -111.5t110.5 -269.5v-53q0 -158 -110.5 -269.5t-268.5 -111.5h-424v196h422q78 0 131.5 53.5t53.5 131.5v53q0 78 -53.5 131t-131.5 53h-282v197l370 389h-508v196h783v-196l-375 -389h14z" />
    <glyph glyph-name="uni0226" unicode="&#x226;" 
d="M707 1868v-326h-197v326h197zM1028 580l4 -19q4 -18 10.5 -49t12.5 -68.5t10 -86t4 -93.5v-264h-197v276q0 25 -2 39h-524q-2 -14 -2 -39v-276h-197v264q0 72 11.5 151t19.5 115.5t12 49.5l183 663q23 78 87 127t148 49t148.5 -49t87.5 -127zM377 512h465l-6 23l-179 651
q-10 37 -49 37q-41 0 -47 -37l-178 -651z" />
    <glyph glyph-name="uni0227" unicode="&#x227;" 
d="M707 1511v-325h-197v325h197zM819 1044h197v-1044h-197v66q-100 -84 -233 -84h-25q-158 0 -269.5 111.5t-111.5 268.5v320q0 158 111.5 269.5t269.5 111.5h25q133 0 233 -84v65zM635 178q76 0 130 54.5t54 129.5v320q0 76 -53 130t-131 54h-74q-78 0 -131 -54t-53 -130
v-320q0 -76 54 -130t130 -54h74z" />
    <glyph glyph-name="uni0228" unicode="&#x228;" 
d="M1057 1204h-639v-405h577v-197h-577v-405h639v-197h-316v-92q80 -29 129.5 -100.5t49.5 -157.5q0 -115 -81 -196t-196 -81h-98v197h98q33 0 56.5 22.5t23.5 57.5t-23.5 57.5t-56.5 22.5h-98v270h-324v1401h836v-197z" />
    <glyph glyph-name="uni0229" unicode="&#x229;" 
d="M1032 455h-639v-93q0 -76 53.5 -130t131.5 -54h79q66 0 115 41t66 103l188 -56q-29 -109 -114 -186.5t-197 -93.5v-78q80 -29 129 -100.5t49 -157.5q0 -115 -81 -196t-196 -81h-98v197h98q35 0 57.5 22.5t22.5 57.5t-22.5 57.5t-57.5 22.5h-98v256q-135 23 -228 129
t-93 247v320q0 158 111.5 269.5t269.5 111.5h73q158 0 269.5 -111.5t111.5 -269.5v-227zM393 682v-49h443v49q0 76 -53.5 130t-131.5 54h-73q-78 0 -131.5 -54t-53.5 -130z" />
    <glyph glyph-name="uni022A" unicode="&#x22a;" 
d="M307 1942v196h602v-196h-602zM326 1542v326h196v-326h-196zM694 1542v326h197v-326h-197zM559 -18q-158 0 -269.5 111.5t-111.5 268.5v676q0 158 111.5 269.5t269.5 111.5h98q158 0 269.5 -111.5t111.5 -269.5v-676q0 -158 -111.5 -269t-269.5 -111h-98zM559 178h98
q76 0 130.5 54.5t54.5 129.5v676q0 76 -54.5 130.5t-130.5 54.5h-98q-76 0 -130 -54.5t-54 -130.5v-676q0 -76 54 -130t130 -54z" />
    <glyph glyph-name="uni022B" unicode="&#x22b;" 
d="M307 1585v197h602v-197h-602zM326 1186v325h196v-325h-196zM694 1186v325h197v-325h-197zM571 1063h74q158 0 269.5 -111.5t111.5 -269.5v-320q0 -158 -111.5 -269t-269.5 -111h-74q-158 0 -269.5 111.5t-111.5 268.5v320q0 158 111.5 269.5t269.5 111.5zM571 866
q-76 0 -130 -54t-54 -130v-320q0 -76 54.5 -130t129.5 -54h74q76 0 130 54.5t54 129.5v320q0 76 -54 130t-130 54h-74z" />
    <glyph glyph-name="uni0232" unicode="&#x232;" 
d="M307 1554v197h602v-197h-602zM1057 1112q0 -145 -88 -256l-262 -336v-520h-197v520l-260 336q-10 10 -28.5 39t-40 91.5t-21.5 125.5v289h196v-289q0 -33 12.5 -66.5t22.5 -51t15 -19.5l202 -262l205 262l6 8q4 8 10.5 20.5t13.5 29t12 38t5 41.5v289h197v-289z" />
    <glyph glyph-name="uni0233" unicode="&#x233;" 
d="M307 1198v197h602v-197h-602zM164 1044h196v-131q0 -102 54 -202l198 -363l199 363q53 96 53 202v131h197v-131q0 -156 -78 -299l-448 -819q-37 -63 -106 -107t-153 -44h-172v196h172q35 0 57.5 19.5t28.5 34.5l138 251l-258 469q-78 143 -78 299v131z" />
    <glyph glyph-name="uni0237" unicode="&#x237;" 
d="M229 1044h621v-1040q0 -158 -110.5 -268.5t-268.5 -110.5q-131 0 -231.5 79t-133.5 202l189 57q14 -61 63.5 -101t112.5 -40q76 0 129 53t53 129v844h-424v196z" />
    <glyph glyph-name="uni0243" unicode="&#x243;" 
d="M899 717q76 -43 120 -120t44 -167v-49q0 -158 -111.5 -269.5t-269.5 -111.5h-467v319h-168v177h168v905h455q158 0 269.5 -111.5t111.5 -269.5v-25q0 -180 -152 -278zM670 1204h-258v-393h258q76 0 130 54.5t54 129.5v25q0 78 -54 131t-130 53zM866 381v49q0 78 -54 131
t-130 53h-270v-118h229v-177h-229v-122h270q76 0 130 54t54 130z" />
    <glyph glyph-name="uni0244" unicode="&#x244;" 
d="M1184 883v-197h-142v-324q0 -158 -111.5 -269t-268.5 -111h-99q-158 0 -269.5 111.5t-111.5 268.5v324h-149v197h149v518h197v-518h467v518h196v-518h142zM846 362v324h-467v-324q0 -76 54 -130t130 -54h99q76 0 130 54t54 130z" />
    <glyph glyph-name="uni0245" unicode="&#x245;" 
d="M147 0v266q0 66 16.5 164t37.5 154l282 817h252l283 -817q20 -57 36.5 -154.5t16.5 -163.5v-266h-197v279q0 123 -45 253l-219 646q-199 -582 -221 -646q-45 -143 -45 -253v-279h-197z" />
    <glyph glyph-name="uni024C" unicode="&#x24c;" 
d="M948 434q127 -133 127 -305v-129h-196v129q0 92 -74 170l-227 242h-160v-541h-197v541h-147v196h147v664h455q158 0 269.5 -111.5t111.5 -269.5v-98q0 -117 -65.5 -213.5t-172.5 -139.5zM418 1204v-467h258q78 0 131 53.5t53 131.5v98q0 78 -53 131t-131 53h-258z" />
    <glyph glyph-name="uni0250" unicode="&#x250;" 
d="M655 1063q158 0 269.5 -111.5t111.5 -269.5v-320q0 -158 -111.5 -269t-269.5 -111h-24q-133 0 -234 84v-66h-196v1044h196v-65q100 84 234 84h24zM840 362v320q0 76 -54.5 130t-130.5 54h-73q-76 0 -130.5 -54t-54.5 -130v-320q0 -76 53.5 -130t131.5 -54h73
q78 0 131.5 54t53.5 130z" />
    <glyph glyph-name="uni0251" unicode="&#x251;" 
d="M819 1044h197v-1044h-197v66q-100 -84 -233 -84h-25q-158 0 -269.5 111.5t-111.5 268.5v320q0 158 111.5 269.5t269.5 111.5h25q133 0 233 -84v65zM635 178q76 0 130 54.5t54 129.5v320q0 76 -53 130t-131 54h-74q-78 0 -131 -54t-53 -130v-320q0 -76 54 -130t130 -54h74
z" />
    <glyph glyph-name="uni0252" unicode="&#x252;" 
d="M655 1063q158 0 269.5 -111.5t111.5 -269.5v-320q0 -158 -111.5 -269t-269.5 -111h-24q-133 0 -234 84v-66h-196v1044h196v-65q100 84 234 84h24zM840 362v320q0 76 -53.5 130t-131.5 54h-73q-78 0 -131.5 -54t-53.5 -130v-320q0 -76 54.5 -130t130.5 -54h73
q76 0 130.5 54t54.5 130z" />
    <glyph glyph-name="uni0254" unicode="&#x254;" 
d="M1008 362q0 -158 -113 -269t-268 -111h-78q-133 0 -235.5 80.5t-133.5 205.5l189 58q14 -63 64 -105.5t116 -42.5h78q76 0 130 54.5t54 129.5v320q0 76 -53 130t-131 54h-78q-66 0 -116 -41t-64 -104l-189 55q31 125 133.5 206t235.5 81h78q158 0 269.5 -111.5
t111.5 -269.5v-320z" />
    <glyph glyph-name="uni0258" unicode="&#x258;" 
d="M639 1063q158 0 269.5 -111.5t111.5 -269.5v-320q0 -158 -112.5 -269t-268.5 -111h-80q-131 0 -233.5 80.5t-135.5 203.5l189 56q16 -61 65.5 -102.5t114.5 -41.5h80q78 0 131 54.5t53 129.5v93h-639v227q0 158 112 269.5t269 111.5h74zM823 633v49q0 76 -53 130t-131 54
h-74q-78 0 -131 -54t-53 -130v-49h442z" />
    <glyph glyph-name="uni0259" unicode="&#x259;" 
d="M639 -18h-74q-158 0 -269.5 111.5t-111.5 268.5v228h639v92q0 76 -53 130t-131 54h-80q-66 0 -115 -41t-65 -102l-189 55q33 123 135.5 204t233.5 81h80q156 0 268.5 -111.5t112.5 -269.5v-320q0 -158 -111.5 -269t-269.5 -111zM823 412h-442v-50q0 -76 53 -130t131 -54
h74q78 0 131 54.5t53 129.5v50z" />
    <glyph glyph-name="uni025B" unicode="&#x25b;" 
d="M733 178q45 0 78 27.5t43 68.5l188 -57q-29 -102 -114.5 -168.5t-194.5 -66.5h-198q-133 0 -227.5 94t-94.5 227q0 145 119 227q-106 82 -107 215q0 131 93.5 224.5t224.5 93.5h194q109 0 193 -63.5t112 -163.5l-188 -56q-10 37 -43 61.5t-74 24.5h-194q-51 0 -86 -35.5
t-35 -85.5q0 -51 35 -85.5t86 -34.5h227v-197h-235q-51 0 -88 -37t-37 -88q0 -53 36.5 -89t88.5 -36h198z" />
    <glyph glyph-name="uni025C" unicode="&#x25c;" 
d="M885 530q119 -82 119 -227q0 -133 -94.5 -227t-227.5 -94h-199q-109 0 -194.5 66.5t-114.5 168.5l188 57q10 -41 43 -68.5t78 -27.5h199q51 0 88 36t37 89q0 51 -37 88t-88 37h-236v197h228q51 0 86 34.5t35 85.5q0 49 -35 85t-86 36h-195q-41 0 -73.5 -24.5t-43.5 -61.5
l-188 56q29 100 113 163.5t192 63.5h195q131 0 224 -93t93 -225q0 -133 -106 -215z" />
    <glyph glyph-name="uni025E" unicode="&#x25e;" horiz-adv-x="1228" 
d="M936 530q119 -82 119 -227q0 -133 -94.5 -227t-227.5 -94h-198q-133 0 -227.5 94t-94.5 227v442q0 131 93 224.5t224 93.5h195q131 0 224 -93t93 -225q0 -133 -106 -215zM733 178q53 0 89 36t36 89q0 51 -37 88t-88 37h-155v197h147q51 0 86 34.5t35 85.5q0 49 -35 85
t-86 36h-195q-51 0 -85.5 -35.5t-34.5 -85.5v-442q0 -53 36.5 -89t88.5 -36h198z" />
    <glyph glyph-name="uni025F" unicode="&#x25f;" 
d="M1014 492v-197h-164v-291q0 -158 -110.5 -268.5t-268.5 -110.5q-131 0 -231.5 79t-133.5 202l189 57q14 -61 63.5 -101t112.5 -40q76 0 129 53t53 129v291h-239v197h239v356h-424v196h621v-552h164z" />
    <glyph glyph-name="uni0261" unicode="&#x261;" 
d="M817 1044h197v-1038q0 -158 -110.5 -269.5t-268.5 -111.5h-78q-133 0 -235.5 81t-133.5 206l189 55q14 -61 64.5 -103t115.5 -42h78q76 0 129 54t53 130v123q-100 -84 -233 -84h-25q-158 0 -269.5 111.5t-111.5 269.5v256q0 158 111.5 269.5t269.5 111.5h25
q131 0 233 -82v63zM633 242q76 0 130 54t54 130v256q0 76 -54 130t-130 54h-74q-76 0 -130 -54t-54 -130v-256q0 -76 54 -130t130 -54h74z" />
    <glyph glyph-name="uni0263" unicode="&#x263;" 
d="M860 1044h197v-131q0 -162 -84 -299l-248 -411l109 -180q37 -68 36 -136q0 -109 -76.5 -185.5t-185 -76.5t-185.5 77t-77 185q0 68 37 136l111 182l-248 409q-86 141 -86 299v131h196v-131q0 -102 56 -194l196 -324l197 324q55 88 55 194v131zM666 -80l-56 92l-57 -92
q-10 -14 -10 -33q0 -27 19.5 -46t46 -19t46 19.5t19.5 45.5q0 23 -8 33z" />
    <glyph glyph-name="uni0265" unicode="&#x265;" 
d="M1020 1044v-1400h-197v422q-100 -84 -233 -84h-25q-158 0 -269.5 111.5t-111.5 268.5v682h197v-682q0 -76 53 -130t131 -54h74q76 0 130 54.5t54 129.5v682h197z" />
    <glyph glyph-name="uni0268" unicode="&#x268;" horiz-adv-x="1228" 
d="M750 1511v-325h-197v325h197zM750 197h325v-197h-872v197h350v229h-201v197h201v225h-283v196h480v-421h202v-197h-202v-229z" />
    <glyph glyph-name="uni0269" unicode="&#x269;" 
d="M102 848v196h541v-702q0 -68 48 -116t116 -48q61 0 106 38t56 97l188 -59q-29 -119 -126 -195.5t-224 -76.5q-150 0 -255.5 105.5t-105.5 254.5v506h-344z" />
    <glyph glyph-name="uni026B" unicode="&#x26b;" 
d="M987 322l187 -60q-33 -123 -134.5 -201.5t-232.5 -78.5q-156 0 -267.5 111.5t-111.5 266.5v295q-29 12 -43 13q-31 0 -52.5 -20.5t-21.5 -53.5v-37h-196v37q0 113 79.5 191.5t190.5 78.5q29 0 43 -2v342h-307v197h504v-649q20 -10 34 -11q31 0 52.5 22.5t21.5 51.5v37
h197v-37q0 -111 -79 -190.5t-192 -79.5q-23 0 -34 2v-187q0 -76 53 -129t129 -53q66 0 115 41.5t65 102.5z" />
    <glyph glyph-name="uni026E" unicode="&#x26e;" horiz-adv-x="1228" 
d="M780 524q115 -37 188.5 -136t73.5 -224v-137q0 -160 -111.5 -271.5t-268.5 -111.5h-93v196h93q78 0 131 54.5t53 132.5v137q0 76 -54.5 130t-129.5 54h-111v197l223 303h-325v-848h-197v1401h197v-357h565v-196z" />
    <glyph glyph-name="uni026F" unicode="&#x26f;" 
d="M1106 1044v-1044h-197v43q-66 -61 -155 -61q-113 0 -179 86q-82 -86 -200 -86q-115 0 -196 80.5t-81 195.5v786h197v-761q0 -43 30.5 -74t73.5 -31t74 31t31 74v761h196v-761q0 -43 31 -74t74 -31t73.5 31t30.5 74v761h197z" />
    <glyph glyph-name="uni0272" unicode="&#x272;" 
d="M651 1063q158 0 269.5 -111.5t111.5 -269.5v-682h-196v682q0 76 -53.5 130t-131.5 54h-73q-76 0 -130.5 -54t-54.5 -130v-770q0 -111 -78.5 -189.5t-191.5 -78.5h-49v196h51q29 0 50.5 21.5t21.5 50.5v1132h196v-65q100 84 234 84h24z" />
    <glyph glyph-name="uni0275" unicode="&#x275;" 
d="M645 1063q158 0 269.5 -111.5t111.5 -269.5v-320q0 -158 -111.5 -269t-269.5 -111h-74q-158 0 -269.5 111.5t-111.5 268.5v320q0 158 112 269.5t269 111.5h74zM571 866q-76 0 -130 -54t-54 -130v-61h442v61q0 76 -54 130t-130 54h-74zM645 178q76 0 130 54.5t54 129.5v62
h-442v-62q0 -76 54.5 -130t129.5 -54h74z" />
    <glyph glyph-name="uni0278" unicode="&#x278;" 
d="M719 1059q158 0 269.5 -111.5t111.5 -269.5v-316q0 -158 -111.5 -269t-269.5 -111h-12v-338h-197v338h-10q-158 0 -269.5 111.5t-111.5 268.5v316q0 158 111.5 269.5t269.5 111.5h10v342h197v-342h12zM500 178h10v684h-10q-78 0 -131.5 -54t-53.5 -130v-316
q0 -76 53.5 -130t131.5 -54zM903 362v316q0 76 -54 130t-130 54h-12v-684h12q76 0 130 54t54 130z" />
    <glyph glyph-name="uni0283" unicode="&#x283;" horiz-adv-x="1222" 
d="M223 -356v196h103q76 0 130 53.5t54 131.5v995q0 158 111.5 269.5t269.5 111.5h102v-197h-102q-76 0 -130 -54t-54 -130v-995q0 -158 -112 -269.5t-269 -111.5h-103z" />
    <glyph glyph-name="uni0289" unicode="&#x289;" 
d="M1176 723v-197h-150v-164q0 -158 -111.5 -269t-269.5 -111h-74q-158 0 -269.5 111.5t-111.5 268.5v164h-147v197h147v321h197v-321h442v321h197v-321h150zM829 362v164h-442v-164q0 -76 54.5 -130t129.5 -54h74q76 0 130 54t54 130z" />
    <glyph glyph-name="uni028C" unicode="&#x28c;" 
d="M160 0v129q0 147 67 303l275 612h215l270 -612q70 -156 70 -303v-129h-197v129q0 109 -51 223l-201 453l-200 -453q-51 -115 -52 -223v-129h-196z" />
    <glyph glyph-name="uni028D" unicode="&#x28d;" 
d="M111 131q0 145 32 285l140 628h204l121 -585l123 585h205l139 -628q31 -139 31 -285v-131h-197v131q0 113 -26 242l-74 354l-113 -549h-174l-114 549l-72 -354q-29 -127 -29 -242v-131h-196v131z" />
    <glyph glyph-name="uni028E" unicode="&#x28e;" 
d="M1053 0h-197v131q0 102 -53 203l-199 362l-198 -362q-53 -96 -54 -203v-131h-196v131q0 156 77 299l449 819q37 63 105.5 107.5t152.5 44.5h172v-197h-172q-35 0 -57.5 -19.5t-28.5 -33.5l-137 -252l258 -469q78 -143 78 -299v-131z" />
    <glyph glyph-name="uni0292" unicode="&#x292;" 
d="M653 459q158 0 268.5 -111.5t110.5 -269.5v-53q0 -158 -110.5 -269.5t-268.5 -111.5h-424v196h422q78 0 131.5 53.5t53.5 131.5v53q0 78 -53.5 131t-131.5 53h-282v197l370 389h-508v196h783v-196l-375 -389h14z" />
    <glyph glyph-name="uni0298" unicode="&#x298;" horiz-adv-x="1222" 
d="M559 1419h98q158 0 269.5 -111.5t111.5 -269.5v-676q0 -158 -111.5 -269t-269.5 -111h-98q-158 0 -269.5 111.5t-111.5 268.5v676q0 158 111.5 269.5t269.5 111.5zM559 1223q-76 0 -130 -54.5t-54 -130.5v-676q0 -76 54 -130t130 -54h98q76 0 130.5 54.5t54.5 129.5v676
q0 76 -54.5 130.5t-130.5 54.5h-98zM510 864h197v-319h-197v319z" />
    <glyph glyph-name="uni029D" unicode="&#x29d;" horiz-adv-x="1228" 
d="M662 1196v326h196v-326h-196zM1081 131h-223v-156q0 -145 -102.5 -247.5t-248 -102.5t-248.5 102.5t-103 247.5q0 147 103 250t249 103h154v520h-424v196h620v-716h223v-197zM662 131h-154q-66 0 -111 -45t-45 -111q0 -63 46 -108t109.5 -45t109 45t45.5 108v156z" />
    <glyph glyph-name="circumflex" unicode="&#x2c6;" 
d="M272 1272l254 254h164l254 -254l-139 -139l-197 196l-196 -196z" />
    <glyph glyph-name="caron" unicode="&#x2c7;" 
d="M272 1452l140 139l196 -196l197 196l139 -139l-254 -254h-164z" />
    <glyph glyph-name="breve" unicode="&#x2d8;" 
d="M332 1475h196q0 -33 23.5 -56.5t56.5 -23.5t56.5 23.5t23.5 56.5h197q0 -115 -82 -196t-194.5 -81t-194.5 81t-82 196z" />
    <glyph glyph-name="dotaccent" unicode="&#x2d9;" 
d="M510 1198v326h197v-326h-197z" />
    <glyph glyph-name="ring" unicode="&#x2da;" 
d="M332 1474.5q0 114.5 81 195.5t195.5 81t195.5 -81t81 -195.5t-82 -195.5t-194.5 -81t-194.5 81t-82 195.5zM528 1474.5q0 -32.5 23.5 -56t56.5 -23.5t56.5 23.5t23.5 56t-22.5 56t-57.5 23.5t-57.5 -23.5t-22.5 -56z" />
    <glyph glyph-name="ogonek" unicode="&#x2db;" 
d="M498 0h196v-88q0 -29 21.5 -50.5t50.5 -21.5h51v-196h-49q-113 0 -191.5 78.5t-78.5 189.5v88z" />
    <glyph glyph-name="tilde" unicode="&#x2dc;" 
d="M201 1212v37q0 113 79.5 192t190.5 79q90 0 156 -50q10 -8 31.5 -26.5t31.5 -25.5t25.5 -14t29.5 -7q31 0 52.5 22.5t21.5 50.5v37h197v-37q0 -111 -79 -190.5t-192 -79.5q-88 0 -153 51q-10 8 -30.5 24.5t-32 25t-28 15.5t-30.5 7q-31 0 -52.5 -20.5t-21.5 -53.5v-37
h-196z" />
    <glyph glyph-name="hungarumlaut" unicode="&#x2dd;" 
d="M319 1155l-139 141l297 297l141 -139zM741 1155l-139 141l297 297l141 -139z" />
    <glyph glyph-name="gravecomb" unicode="&#x300;" horiz-adv-x="0" 
d="M299 1155l-299 299l141 139l297 -297z" />
    <glyph glyph-name="acutecomb" unicode="&#x301;" horiz-adv-x="0" 
d="M139 1155l-139 141l297 297l141 -139z" />
    <glyph glyph-name="uni0302" unicode="&#x302;" horiz-adv-x="0" 
d="M0 1272l254 254h164l254 -254l-140 -139l-196 196l-197 -196z" />
    <glyph glyph-name="tildecomb" unicode="&#x303;" horiz-adv-x="0" 
d="M0 1212v37q0 113 80 192t190 79q90 0 156 -50q10 -8 31.5 -26.5t32 -25.5t25.5 -14t30 -7q31 0 52 22.5t21 50.5v37h197v-37q0 -111 -79 -190.5t-191 -79.5q-88 0 -154 51q-10 8 -30.5 24.5t-32 25t-27.5 15.5t-31 7q-31 0 -52 -20.5t-21 -53.5v-37h-197z" />
    <glyph glyph-name="uni0304" unicode="&#x304;" horiz-adv-x="0" 
d="M0 1198v197h602v-197h-602z" />
    <glyph glyph-name="uni0306" unicode="&#x306;" horiz-adv-x="0" 
d="M0 1475h197q0 -33 23.5 -56.5t56 -23.5t56 23.5t23.5 56.5h197q0 -115 -82 -196t-194.5 -81t-194.5 81t-82 196z" />
    <glyph glyph-name="uni0307" unicode="&#x307;" horiz-adv-x="0" 
d="M0 1198v326h197v-326h-197z" />
    <glyph glyph-name="uni0308" unicode="&#x308;" horiz-adv-x="0" 
d="M0 1198v326h197v-326h-197zM369 1198v326h196v-326h-196z" />
    <glyph glyph-name="hookabovecomb" unicode="&#x309;" horiz-adv-x="0" 
d="M334 1370q0 -119 -82 -196l-139 137q25 29 24 59q0 33 -23.5 56.5t-56.5 23.5h-57v197h57q115 0 196 -82t81 -195z" />
    <glyph glyph-name="uni030A" unicode="&#x30a;" horiz-adv-x="0" 
d="M0 1474.5q0 114.5 81 195.5t195.5 81t195.5 -81t81 -195.5t-82 -195.5t-194.5 -81t-194.5 81t-82 195.5zM197 1474.5q0 -32.5 23.5 -56t56 -23.5t56 23.5t23.5 56t-22.5 56t-57 23.5t-57 -23.5t-22.5 -56z" />
    <glyph glyph-name="uni030B" unicode="&#x30b;" horiz-adv-x="0" 
d="M139 1155l-139 141l297 297l141 -139zM561 1155l-139 141l297 297l141 -139z" />
    <glyph glyph-name="uni030C" unicode="&#x30c;" horiz-adv-x="0" 
d="M0 1452l139 139l197 -196l196 196l140 -139l-254 -254h-164z" />
    <glyph glyph-name="uni0312" unicode="&#x312;" horiz-adv-x="0" 
d="M365 1198h-367v203q0 141 87 250.5t220 142.5l57 -188q-74 -16 -120.5 -73.5t-46.5 -137.5h170v-197z" />
    <glyph glyph-name="uni031B" unicode="&#x31b;" horiz-adv-x="0" 
d="M0 702v197h27q33 0 56 23.5t23 56.5v65h197v-65q0 -115 -82 -196t-194 -81h-27z" />
    <glyph glyph-name="dotbelowcomb" unicode="&#x323;" horiz-adv-x="0" 
d="M0 -479v325h197v-325h-197z" />
    <glyph glyph-name="uni0326" unicode="&#x326;" horiz-adv-x="0" 
d="M0 -154h367v-202q0 -141 -87 -251t-221 -143l-57 189q74 16 121 73.5t47 137.5h-170v196z" />
    <glyph glyph-name="uni0327" unicode="&#x327;" horiz-adv-x="0" 
d="M197 -92q80 -29 129 -100.5t49 -157.5q0 -115 -81 -196t-196 -81h-98v197h98q33 0 56.5 22.5t23.5 57.5t-23.5 57.5t-56.5 22.5h-98v270h197v-92z" />
    <glyph glyph-name="uni0328" unicode="&#x328;" horiz-adv-x="0" 
d="M0 0h197v-88q0 -29 21.5 -50.5t49.5 -21.5h51v-196h-49q-113 0 -191.5 78.5t-78.5 189.5v88z" />
    <glyph glyph-name="uni032C" unicode="&#x32c;" horiz-adv-x="0" 
d="M0 -274l139 139l197 -197l196 197l140 -139l-254 -254h-164z" />
    <glyph glyph-name="uni032D" unicode="&#x32d;" horiz-adv-x="0" 
d="M0 -358l254 254h164l254 -254l-140 -140l-196 197l-197 -197z" />
    <glyph glyph-name="uni0331" unicode="&#x331;" horiz-adv-x="0" 
d="M0 -350v196h602v-196h-602z" />
    <glyph glyph-name="uni0335" unicode="&#x335;" horiz-adv-x="0" 
d="M0 621h600v-197h-600v197z" />
    <glyph glyph-name="uni0336" unicode="&#x336;" horiz-adv-x="0" 
d="M0 621h655v-197h-655v197z" />
    <glyph glyph-name="uni0337" unicode="&#x337;" horiz-adv-x="0" 
d="M723 1165l168 -102l-723 -1180l-168 103z" />
    <glyph glyph-name="uni0338" unicode="&#x338;" horiz-adv-x="0" 
d="M918 1497l165 -100l-913 -1495l-170 102z" />
    <glyph glyph-name="tonos" unicode="&#x384;" 
d="M688 1141l-180 86l178 381l180 -84z" />
    <glyph glyph-name="dieresistonos" unicode="&#x385;" 
d="M692 1540l-180 86l178 381l180 -84zM330 1198v326h196v-326h-196zM698 1198v326h197v-326h-197z" />
    <glyph glyph-name="Alphatonos" unicode="&#x386;" 
d="M406 1356l-179 -383l-180 86l178 381zM1044 580l5 -19q4 -18 10 -49t12 -68.5t10 -86t4 -93.5v-264h-196v276q0 25 -2 39h-525q-2 -14 -2 -39v-276h-196v264q0 72 11 151t19.5 115.5t12.5 49.5l182 663q23 78 87.5 127t148.5 49t148.5 -49t86.5 -127zM393 512h465l-6 23
l-178 651q-10 37 -49 37q-41 0 -47 -37l-179 -651z" />
    <glyph glyph-name="Epsilontonos" unicode="&#x388;" 
d="M61 977l-180 86l178 381l181 -84zM254 0v1401h836v-197h-639v-405h577v-197h-577v-405h639v-197h-836z" />
    <glyph glyph-name="Etatonos" unicode="&#x389;" 
d="M31 977l-181 86l179 381l180 -84zM862 1401h197v-1401h-197v602h-442v-602h-197v1401h197v-602h442v602z" />
    <glyph glyph-name="Iotatonos" unicode="&#x38a;" 
d="M57 975l-180 86l178 381l181 -84zM223 197h320v1007h-301v197h798v-197h-301v-1007h320v-197h-836v197z" />
    <glyph glyph-name="Omicrontonos" unicode="&#x38c;" 
d="M125 979l-180 86l178 381l180 -84zM594 -18q-158 0 -269.5 111.5t-111.5 268.5v676q0 158 111.5 269.5t269.5 111.5h98q158 0 269.5 -111.5t111.5 -269.5v-676q0 -158 -111.5 -269t-269.5 -111h-98zM594 178h98q78 0 131.5 54.5t53.5 129.5v676q0 76 -53.5 130.5
t-131.5 54.5h-98q-78 0 -131 -54.5t-53 -130.5v-676q0 -76 53 -130t131 -54z" />
    <glyph glyph-name="Upsilontonos" unicode="&#x38e;" 
d="M10 981l-180 86l178 381l180 -84zM1090 1112q0 -145 -89 -256l-262 -336v-520h-196v520l-260 336q-10 10 -28.5 39t-40 91.5t-21.5 125.5v289h196v-289q0 -33 12.5 -66.5t22.5 -51t14 -19.5l203 -262l205 262l6 8q4 8 10 20.5t13.5 29t12.5 38t5 41.5v289h197v-289z" />
    <glyph glyph-name="Omegatonos" unicode="&#x38f;" 
d="M133 1460l180 -84l-178 -383l-180 86zM987 197h103v-197h-400v197q76 0 130 54t54 130v657q0 76 -54 130.5t-130 54.5h-98q-76 0 -130 -54.5t-54 -130.5v-657q0 -76 54 -130t130 -54v-197h-399v197h102q-84 100 -84 233v608q0 158 111.5 269.5t269.5 111.5h98
q158 0 269.5 -111.5t111.5 -269.5v-608q0 -133 -84 -233z" />
    <glyph glyph-name="iotadieresistonos" unicode="&#x390;" 
d="M625 1540l-181 86l179 381l180 -84zM262 1198v326h197v-326h-197zM631 1198v326h196v-326h-196zM102 848v196h541v-702q0 -68 48 -116t116 -48q61 0 106 38t56 97l188 -59q-29 -119 -126 -195.5t-224 -76.5q-150 0 -255.5 105.5t-105.5 254.5v506h-344z" />
    <glyph glyph-name="Alpha" unicode="&#x391;" 
d="M1028 580l4 -19q4 -18 10.5 -49t12.5 -68.5t10 -86t4 -93.5v-264h-197v276q0 25 -2 39h-524q-2 -14 -2 -39v-276h-197v264q0 72 11.5 151t19.5 115.5t12 49.5l183 663q23 78 87 127t148 49t148.5 -49t87.5 -127zM377 512h465l-6 23l-179 651q-10 37 -49 37q-41 0 -47 -37
l-178 -651z" />
    <glyph glyph-name="Beta" unicode="&#x392;" 
d="M899 717q76 -43 120 -120t44 -167v-49q0 -158 -111.5 -269.5t-269.5 -111.5h-467v1401h455q158 0 269.5 -111.5t111.5 -269.5v-25q0 -180 -152 -278zM670 1204h-258v-393h258q76 0 130 54.5t54 129.5v25q0 78 -54 131t-130 53zM866 381v49q0 78 -54 131t-130 53h-270
v-417h270q76 0 130 54t54 130z" />
    <glyph glyph-name="Gamma" unicode="&#x393;" 
d="M240 0v1401h817v-197h-621v-1204h-196z" />
    <glyph glyph-name="Delta" unicode="&#x394;" 
d="M129 0v197l354 1204h252l352 -1204v-197h-958zM334 197h551l-277 970z" />
    <glyph glyph-name="Epsilon" unicode="&#x395;" 
d="M221 0v1401h836v-197h-639v-405h577v-197h-577v-405h639v-197h-836z" />
    <glyph glyph-name="Zeta" unicode="&#x396;" 
d="M207 1401h799v-197l-596 -1007h614v-197h-836v197l596 1007h-577v197z" />
    <glyph glyph-name="Eta" unicode="&#x397;" 
d="M829 1401h197v-1401h-197v602h-442v-602h-197v1401h197v-602h442v602z" />
    <glyph glyph-name="Theta" unicode="&#x398;" 
d="M559 -18q-158 0 -269.5 111.5t-111.5 268.5v676q0 158 111.5 269.5t269.5 111.5h98q158 0 269.5 -111.5t111.5 -269.5v-676q0 -158 -111.5 -269t-269.5 -111h-98zM559 178h98q76 0 130.5 54.5t54.5 129.5v676q0 76 -54.5 130.5t-130.5 54.5h-98q-76 0 -130 -54.5
t-54 -130.5v-676q0 -76 54 -130t130 -54zM455 604v197h307v-197h-307z" />
    <glyph glyph-name="Iota" unicode="&#x399;" 
d="M190 197h320v1007h-301v197h799v-197h-301v-1007h319v-197h-836v197z" />
    <glyph glyph-name="Kappa" unicode="&#x39a;" 
d="M203 1401h196v-596h129l271 297q74 80 73 172v127h197v-129q0 -23 -4 -56.5t-35 -110.5t-86 -136l-244 -262l261 -273q55 -59 86.5 -137t35.5 -111.5t4 -56.5v-129h-196v129q0 90 -74 170l-291 309h-127v-608h-196v1401z" />
    <glyph glyph-name="Lambda" unicode="&#x39b;" 
d="M147 0v264q0 72 11.5 151t19.5 115.5t12 49.5l183 663q23 78 87 127t148 49t148.5 -49t87.5 -127l184 -663l4 -19q4 -18 10.5 -49t12.5 -68.5t10 -86t4 -93.5v-264h-197v276q0 125 -36 259l-179 651q-10 37 -49 37q-41 0 -47 -37l-178 -651q-39 -139 -39 -259v-276h-197z
" />
    <glyph glyph-name="Mu" unicode="&#x39c;" 
d="M129 0v1401h250l229 -725l232 725h247v-1401h-196v1053l-193 -611h-180l-192 611v-1053h-197z" />
    <glyph glyph-name="Nu" unicode="&#x39d;" 
d="M160 1401h246l454 -1045v1045h197v-1401h-246l-455 1044v-1044h-196v1401z" />
    <glyph glyph-name="Xi" unicode="&#x39e;" 
d="M190 1401h836v-197h-836v197zM238 799h743v-197h-743v197zM190 197h836v-197h-836v197z" />
    <glyph glyph-name="Omicron" unicode="&#x39f;" 
d="M559 -18q-158 0 -269.5 111.5t-111.5 268.5v676q0 158 111.5 269.5t269.5 111.5h98q158 0 269.5 -111.5t111.5 -269.5v-676q0 -158 -111.5 -269t-269.5 -111h-98zM559 178h98q76 0 130.5 54.5t54.5 129.5v676q0 76 -54.5 130.5t-130.5 54.5h-98q-76 0 -130 -54.5
t-54 -130.5v-676q0 -76 54 -130t130 -54z" />
    <glyph glyph-name="Pi" unicode="&#x3a0;" 
d="M190 0v1401h836v-1401h-197v1204h-442v-1204h-197z" />
    <glyph glyph-name="Rho" unicode="&#x3a1;" 
d="M240 0v1401h454q158 0 269.5 -111.5t111.5 -269.5v-125q0 -158 -111.5 -269.5t-269.5 -111.5h-258v-514h-196zM436 711h258q76 0 130.5 54t54.5 130v125q0 76 -54.5 130t-130.5 54h-258v-493z" />
    <glyph glyph-name="Sigma" unicode="&#x3a3;" 
d="M199 1401h839v-197h-606l311 -504l-323 -503h637v-197h-873v197l328 503l-313 504v197z" />
    <glyph glyph-name="Tau" unicode="&#x3a4;" 
d="M166 1401h885v-197h-344v-1204h-197v1204h-344v197z" />
    <glyph glyph-name="Upsilon" unicode="&#x3a5;" 
d="M1057 1112q0 -145 -88 -256l-262 -336v-520h-197v520l-260 336q-10 10 -28.5 39t-40 91.5t-21.5 125.5v289h196v-289q0 -33 12.5 -66.5t22.5 -51t15 -19.5l202 -262l205 262l6 8q4 8 10.5 20.5t13.5 29t12 38t5 41.5v289h197v-289z" />
    <glyph glyph-name="Phi" unicode="&#x3a6;" 
d="M719 1237q158 0 269.5 -111.5t111.5 -269.5v-311q0 -156 -111.5 -268.5t-269.5 -112.5h-12v-164h-197v164h-10q-158 0 -269.5 111.5t-111.5 269.5v311q0 158 111.5 269.5t269.5 111.5h10v164h197v-164h12zM500 360h10v680h-10q-78 0 -131.5 -53t-53.5 -131v-311
q0 -78 53.5 -131.5t131.5 -53.5zM903 545v311q0 78 -54 131t-130 53h-12v-680h12q76 0 130 53.5t54 131.5z" />
    <glyph glyph-name="Chi" unicode="&#x3a7;" 
d="M172 1401h197v-129q0 -33 17 -83t40 -79l182 -240l183 240q23 29 40 79t17 83v129h196v-129q0 -59 -28.5 -142t-71.5 -141l-215 -278l244 -322q12 -14 28.5 -42t39 -92.5t22.5 -127.5v-127h-197v127q0 33 -12 68.5t-25 54.5l-12 20l-209 279l-209 -279q-4 -4 -14 -20.5
t-22.5 -53t-12.5 -69.5v-127h-196v127q0 63 22.5 127.5t38.5 92.5t29 42l243 322l-215 278q-43 57 -71.5 140t-28.5 143v129z" />
    <glyph glyph-name="Psi" unicode="&#x3a8;" 
d="M903 1401h197v-682q0 -158 -111.5 -269.5t-269.5 -111.5h-12v-338h-197v338h-12q-158 0 -269.5 111.5t-111.5 269.5v682h196v-682q0 -76 54.5 -130t130.5 -54h12v866h197v-866h12q76 0 130 54t54 130v682z" />
    <glyph glyph-name="Omega" unicode="&#x3a9;" 
d="M954 197h103v-197h-400v197q76 0 130.5 54t54.5 130v657q0 76 -54.5 130.5t-130.5 54.5h-98q-76 0 -130 -54.5t-54 -130.5v-657q0 -76 54 -130t130 -54v-197h-399v197h102q-84 100 -84 233v608q0 158 111.5 269.5t269.5 111.5h98q158 0 269.5 -111.5t111.5 -269.5v-608
q0 -133 -84 -233z" />
    <glyph glyph-name="Iotadieresis" unicode="&#x3aa;" 
d="M326 1542v326h196v-326h-196zM694 1542v326h197v-326h-197zM190 197h320v1007h-301v197h799v-197h-301v-1007h319v-197h-836v197z" />
    <glyph glyph-name="Upsilondieresis" unicode="&#x3ab;" 
d="M326 1542v326h196v-326h-196zM694 1542v326h197v-326h-197zM1057 1112q0 -145 -88 -256l-262 -336v-520h-197v520l-260 336q-10 10 -28.5 39t-40 91.5t-21.5 125.5v289h196v-289q0 -33 12.5 -66.5t22.5 -51t15 -19.5l202 -262l205 262l6 8q4 8 10.5 20.5t13.5 29t12 38
t5 41.5v289h197v-289z" />
    <glyph glyph-name="alphatonos" unicode="&#x3ac;" 
d="M866 1524l-178 -383l-180 86l178 381zM1053 197h55v-197h-53q-139 0 -221 115q-111 -133 -283 -133h-25q-158 0 -269.5 111.5t-111.5 268.5v320q0 158 112 269.5t269 111.5h25q133 0 233 -84v65h197v-776q0 -29 21.5 -50t50.5 -21zM600 178q76 0 130 54.5t54 129.5v320
q0 76 -54 130t-130 54h-74q-76 0 -130 -54t-54 -130v-320q0 -76 54.5 -130t129.5 -54h74z" />
    <glyph glyph-name="epsilontonos" unicode="&#x3ad;" 
d="M866 1524l-178 -383l-180 86l178 381zM733 178q45 0 78 27.5t43 68.5l188 -57q-29 -102 -114.5 -168.5t-194.5 -66.5h-198q-133 0 -227.5 94t-94.5 227q0 145 119 227q-106 82 -107 215q0 131 93.5 224.5t224.5 93.5h194q109 0 193 -63.5t112 -163.5l-188 -56
q-10 37 -43 61.5t-74 24.5h-194q-51 0 -86 -35.5t-35 -85.5q0 -51 35 -85.5t86 -34.5h227v-197h-235q-51 0 -88 -37t-37 -88q0 -53 36.5 -89t88.5 -36h198z" />
    <glyph glyph-name="etatonos" unicode="&#x3ae;" 
d="M866 1524l-178 -383l-180 86l178 381zM655 1063q158 0 269.5 -111.5t111.5 -269.5v-1038h-196v1038q0 76 -53.5 130t-131.5 54h-73q-76 0 -130.5 -54t-54.5 -130v-682h-196v776q0 29 -21.5 50.5t-50.5 21.5h-53v196h53q137 0 219 -114q111 133 283 133h24z" />
    <glyph glyph-name="iotatonos" unicode="&#x3af;" 
d="M625 1141l-181 86l179 381l180 -84zM102 848v196h541v-702q0 -68 48 -116t116 -48q61 0 106 38t56 97l188 -59q-29 -119 -126 -195.5t-224 -76.5q-150 0 -255.5 105.5t-105.5 254.5v506h-344z" />
    <glyph glyph-name="upsilondieresistonos" unicode="&#x3b0;" 
d="M694 1540l-180 86l178 381l180 -84zM332 1198v326h196v-326h-196zM700 1198v326h197v-326h-197zM197 1044h196v-682q0 -76 53.5 -130t131.5 -54h73q78 0 131.5 54.5t53.5 129.5v312q0 68 -41 118t-105 62l55 190q125 -33 206 -135t81 -235v-312q0 -158 -111.5 -269
t-269.5 -111h-73q-158 0 -269.5 111.5t-111.5 268.5v682z" />
    <glyph glyph-name="alpha" unicode="&#x3b1;" 
d="M1053 197h55v-197h-53q-139 0 -221 115q-111 -133 -283 -133h-25q-158 0 -269.5 111.5t-111.5 268.5v320q0 158 112 269.5t269 111.5h25q133 0 233 -84v65h197v-776q0 -29 21.5 -50t50.5 -21zM600 178q76 0 130 54.5t54 129.5v320q0 76 -54 130t-130 54h-74
q-76 0 -130 -54t-54 -130v-320q0 -76 54.5 -130t129.5 -54h74z" />
    <glyph glyph-name="beta" unicode="&#x3b2;" 
d="M905 735q76 -43 120 -119.5t44 -166.5v-87q0 -158 -111.5 -269t-269.5 -111h-24q-133 0 -234 84v-422h-197v1394q0 158 112 269.5t269 111.5h62q158 0 269.5 -111.5t111.5 -269.5v-24q0 -179 -152 -279zM872 362v87q0 76 -54 130t-130 54h-117v196h105q76 0 130 54.5
t54 130.5v24q0 76 -54 130.5t-130 54.5h-62q-78 0 -131 -54.5t-53 -130.5v-676q0 -76 54.5 -130t129.5 -54h74q76 0 130 54t54 130z" />
    <glyph glyph-name="gamma" unicode="&#x3b3;" 
d="M1057 913q0 -158 -78 -299l-272 -497v-473h-197v473l-272 497q-78 141 -78 299v131h196v-131q0 -106 54 -202l198 -363l199 363q53 96 53 202v131h197v-131z" />
    <glyph glyph-name="delta" unicode="&#x3b4;" 
d="M1036 524v-2v-160q0 -158 -111.5 -269t-269.5 -111h-73q-158 0 -269.5 111.5t-111.5 268.5v140q0 106 56 195t149 134q-82 37 -131.5 111t-49.5 164q0 123 87 209t210 86h379v-197h-379q-41 0 -70.5 -28.5t-29.5 -69.5q0 -63 59 -92l326 -142q88 -37 149 -116
q80 -102 80 -230v-2zM840 362v160q0 88 -70 146l-8 4q-45 35 -107 35h-73q-78 0 -131.5 -54.5t-53.5 -130.5v-160q0 -76 54.5 -130t130.5 -54h73q76 0 130.5 54t54.5 130z" />
    <glyph glyph-name="epsilon" unicode="&#x3b5;" 
d="M733 178q45 0 78 27.5t43 68.5l188 -57q-29 -102 -114.5 -168.5t-194.5 -66.5h-198q-133 0 -227.5 94t-94.5 227q0 145 119 227q-106 82 -107 215q0 131 93.5 224.5t224.5 93.5h194q109 0 193 -63.5t112 -163.5l-188 -56q-10 37 -43 61.5t-74 24.5h-194q-51 0 -86 -35.5
t-35 -85.5q0 -51 35 -85.5t86 -34.5h227v-197h-235q-51 0 -88 -37t-37 -88q0 -53 36.5 -89t88.5 -36h198z" />
    <glyph glyph-name="zeta" unicode="&#x3b6;" 
d="M176 383q0 158 92 260l510 561h-559v197h821v-197l-626 -694q-41 -43 -41 -127q0 -76 54 -130t130 -54l236 -2q111 0 189.5 -79t78.5 -192v-282h-197v284q0 31 -20.5 51.5t-50.5 20.5l-236 2q-158 0 -269.5 110.5t-111.5 270.5z" />
    <glyph glyph-name="eta" unicode="&#x3b7;" 
d="M655 1063q158 0 269.5 -111.5t111.5 -269.5v-1038h-196v1038q0 76 -53.5 130t-131.5 54h-73q-76 0 -130.5 -54t-54.5 -130v-682h-196v776q0 29 -21.5 50.5t-50.5 21.5h-53v196h53q137 0 219 -114q111 133 283 133h24z" />
    <glyph glyph-name="theta" unicode="&#x3b8;" 
d="M657 1419q158 0 269.5 -111.5t111.5 -269.5v-676q0 -158 -111.5 -269t-269.5 -111h-98q-158 0 -269.5 111.5t-111.5 268.5v676q0 158 111.5 269.5t269.5 111.5h98zM559 1223q-76 0 -130 -54.5t-54 -130.5v-239h467v239q0 76 -54.5 130.5t-130.5 54.5h-98zM657 178
q76 0 130.5 54.5t54.5 129.5v240h-467v-240q0 -76 54 -130t130 -54h98z" />
    <glyph glyph-name="iota" unicode="&#x3b9;" 
d="M102 848v196h541v-702q0 -68 48 -116t116 -48q61 0 106 38t56 97l188 -59q-29 -119 -126 -195.5t-224 -76.5q-150 0 -255.5 105.5t-105.5 254.5v506h-344z" />
    <glyph glyph-name="kappa" unicode="&#x3ba;" 
d="M221 1044h197v-430h168l178 152q33 29 52.5 65.5t23.5 61.5l2 22v129h196v-129q0 -25 -4 -58.5t-41 -109t-100 -131.5l-121 -98l162 -129q123 -123 123 -262v-127h-197v127q0 27 -13 54.5t-24.5 41t-15.5 15.5l-219 180h-170v-418h-197v1044z" />
    <glyph glyph-name="lambda" unicode="&#x3bb;" 
d="M205 1204v197h151q92 0 161 -49t101 -121l441 -991q18 -43 65 -43h52v-197h-52q-80 0 -146.5 43t-98.5 119l-281 629l-195 -437q-51 -117 -51 -225v-129h-196v129q0 143 69 305l267 598l-52 119q-25 53 -84 53h-151z" />
    <glyph glyph-name="mu" unicode="&#x3bc;" 
d="M1073 197h55v-197h-53q-141 0 -223 119q-94 -137 -260 -137h-14q-121 0 -216 84v-422h-196v1400h196v-682q0 -76 54.5 -130t130.5 -54h74q76 0 130 54.5t54 129.5v682h196v-776q0 -29 21.5 -50t50.5 -21z" />
    <glyph glyph-name="nu" unicode="&#x3bd;" 
d="M160 1044h196v-129q0 -109 52 -223l200 -452l201 452q51 115 51 223v129h197v-129q0 -147 -70 -303l-270 -612h-215l-275 612q-68 156 -67 303v129z" />
    <glyph glyph-name="xi" unicode="&#x3be;" 
d="M793 197q111 0 189.5 -79t78.5 -192v-282h-197v284q0 29 -21.5 50.5t-49.5 21.5h-179q-158 0 -269.5 111.5t-111.5 269.5v49q0 90 44.5 166t119.5 121q-70 43 -110.5 117.5t-40.5 160.5v25q0 158 111.5 269.5t269.5 111.5h344v-197h-344q-76 0 -130.5 -54t-54.5 -130v-25
q0 -78 53.5 -131t131.5 -53h227v-197h-240q-76 0 -130 -54t-54 -130v-49q0 -78 53.5 -131t130.5 -53h179z" />
    <glyph glyph-name="omicron" unicode="&#x3bf;" 
d="M571 1063h74q158 0 269.5 -111.5t111.5 -269.5v-320q0 -158 -111.5 -269t-269.5 -111h-74q-158 0 -269.5 111.5t-111.5 268.5v320q0 158 111.5 269.5t269.5 111.5zM571 866q-76 0 -130 -54t-54 -130v-320q0 -76 54.5 -130t129.5 -54h74q76 0 130 54.5t54 129.5v320
q0 76 -54 130t-130 54h-74z" />
    <glyph glyph-name="pi" unicode="&#x3c0;" 
d="M1137 848h-191v-580q0 -31 21.5 -51t50.5 -20h55v-197h-53q-113 0 -191.5 79t-78.5 191v578h-295v-848h-197v848h-190v196h1069v-196z" />
    <glyph glyph-name="rho" unicode="&#x3c1;" 
d="M653 1063q158 0 269.5 -111.5t111.5 -269.5v-320q0 -158 -111.5 -269t-269.5 -111h-24q-133 0 -234 84v-422h-196v1038q0 158 111.5 269.5t269.5 111.5h73zM838 362v320q0 76 -54.5 130t-130.5 54h-73q-76 0 -130.5 -54t-54.5 -130v-320q0 -76 54.5 -130t130.5 -54h73
q76 0 130.5 54t54.5 130z" />
    <glyph glyph-name="sigma1" unicode="&#x3c2;" 
d="M201 381v301q0 158 111.5 269.5t269.5 111.5h73q158 0 269.5 -111.5t111.5 -269.5h-196q0 76 -53.5 130t-131.5 54h-73q-78 0 -131.5 -54t-53.5 -130v-301q0 -78 53.5 -131t131.5 -53h186q113 0 190.5 -79t77.5 -192v-282h-196v284q0 29 -20.5 50.5t-51.5 21.5h-186
q-156 0 -268.5 112.5t-112.5 268.5z" />
    <glyph glyph-name="sigma" unicode="&#x3c3;" 
d="M1112 1044v-196h-182q84 -100 84 -234v-252q0 -158 -111.5 -269t-269.5 -111h-74q-158 0 -269.5 111.5t-111.5 268.5v302q0 158 111.5 269t269.5 111h553zM817 664q0 78 -54 131t-130 53h-74q-76 0 -130 -54.5t-54 -129.5v-302q0 -76 54 -130t130 -54h74q76 0 130 54.5
t54 129.5v302z" />
    <glyph glyph-name="tau" unicode="&#x3c4;" 
d="M1040 848h-350v-580q0 -29 21.5 -50t50.5 -21h84v-197h-82q-113 0 -191.5 79t-78.5 191v578h-326v196h872v-196z" />
    <glyph glyph-name="upsilon" unicode="&#x3c5;" 
d="M197 1044h196v-682q0 -76 53.5 -130t131.5 -54h73q78 0 131.5 54.5t53.5 129.5v312q0 68 -41 118t-105 62l55 190q125 -33 206 -135t81 -235v-312q0 -158 -111.5 -269t-269.5 -111h-73q-158 0 -269.5 111.5t-111.5 268.5v682z" />
    <glyph glyph-name="phi" unicode="&#x3c6;" 
d="M719 1059q158 0 269.5 -111.5t111.5 -269.5v-316q0 -158 -111.5 -269t-269.5 -111h-12v-338h-197v338h-10q-158 0 -269.5 111.5t-111.5 268.5v316q0 158 111.5 269.5t269.5 111.5h10v342h197v-342h12zM500 178h10v684h-10q-78 0 -131.5 -54t-53.5 -130v-316
q0 -76 53.5 -130t131.5 -54zM903 362v316q0 76 -54 130t-130 54h-12v-684h12q76 0 130 54t54 130z" />
    <glyph glyph-name="chi" unicode="&#x3c7;" 
d="M172 1044h197v-129q0 -33 17 -83t40 -78l182 -240l183 240q23 29 40 79t17 82v129h196v-129q0 -59 -28.5 -142t-71.5 -140l-215 -279l244 -321q12 -14 28.5 -42t39 -92.5t22.5 -127.5v-127h-197v127q0 33 -12 68.5t-25 54.5l-12 20l-209 279l-209 -279q-4 -4 -14 -20.5
t-22.5 -53.5t-12.5 -69v-127h-196v127q0 63 22.5 127.5t38.5 92t29 42.5l243 321l-215 279q-43 57 -71.5 140t-28.5 142v129z" />
    <glyph glyph-name="psi" unicode="&#x3c8;" 
d="M903 1044h197v-682q0 -158 -111.5 -269t-269.5 -111h-12v-338h-197v338h-12q-158 0 -269.5 111.5t-111.5 268.5v682h196v-682q0 -76 54.5 -130t130.5 -54h12v1223h197v-1223h12q76 0 130 54.5t54 129.5v682z" />
    <glyph glyph-name="omega" unicode="&#x3c9;" 
d="M907 1044q92 -29 151.5 -107.5t59.5 -178.5v-477q0 -123 -87 -211t-212 -88q-129 0 -211 102q-80 -102 -211 -102q-123 0 -211 88t-88 211v477q0 100 60.5 179t154.5 107l56 -188q-33 -8 -53.5 -36.5t-20.5 -61.5v-471q0 -45 31.5 -77t77 -32t76 32t30.5 77v436h197v-436
q0 -45 31.5 -77t76.5 -32t76 32t31 77v471q0 35 -19.5 62.5t-52.5 35.5z" />
    <glyph glyph-name="iotadieresis" unicode="&#x3ca;" 
d="M262 1186v325h197v-325h-197zM631 1186v325h196v-325h-196zM102 848v196h541v-702q0 -68 48 -116t116 -48q61 0 106 38t56 97l188 -59q-29 -119 -126 -195.5t-224 -76.5q-150 0 -255.5 105.5t-105.5 254.5v506h-344z" />
    <glyph glyph-name="upsilondieresis" unicode="&#x3cb;" 
d="M332 1186v325h196v-325h-196zM700 1186v325h197v-325h-197zM197 1044h196v-682q0 -76 53.5 -130t131.5 -54h73q78 0 131.5 54.5t53.5 129.5v312q0 68 -41 118t-105 62l55 190q125 -33 206 -135t81 -235v-312q0 -158 -111.5 -269t-269.5 -111h-73q-158 0 -269.5 111.5
t-111.5 268.5v682z" />
    <glyph glyph-name="omicrontonos" unicode="&#x3cc;" 
d="M688 1141l-180 86l178 381l180 -84zM571 1063h74q158 0 269.5 -111.5t111.5 -269.5v-320q0 -158 -111.5 -269t-269.5 -111h-74q-158 0 -269.5 111.5t-111.5 268.5v320q0 158 111.5 269.5t269.5 111.5zM571 866q-76 0 -130 -54t-54 -130v-320q0 -76 54.5 -130t129.5 -54
h74q76 0 130 54.5t54 129.5v320q0 76 -54 130t-130 54h-74z" />
    <glyph glyph-name="upsilontonos" unicode="&#x3cd;" 
d="M694 1141l-180 86l178 381l180 -84zM197 1044h196v-682q0 -76 53.5 -130t131.5 -54h73q78 0 131.5 54.5t53.5 129.5v312q0 68 -41 118t-105 62l55 190q125 -33 206 -135t81 -235v-312q0 -158 -111.5 -269t-269.5 -111h-73q-158 0 -269.5 111.5t-111.5 268.5v682z" />
    <glyph glyph-name="omegatonos" unicode="&#x3ce;" 
d="M866 1524l-178 -383l-180 86l178 381zM907 1044q92 -29 151.5 -107.5t59.5 -178.5v-477q0 -123 -87 -211t-212 -88q-129 0 -211 102q-80 -102 -211 -102q-123 0 -211 88t-88 211v477q0 100 60.5 179t154.5 107l56 -188q-33 -8 -53.5 -36.5t-20.5 -61.5v-471
q0 -45 31.5 -77t77 -32t76 32t30.5 77v436h197v-436q0 -45 31.5 -77t76.5 -32t76 32t31 77v471q0 35 -19.5 62.5t-52.5 35.5z" />
    <glyph glyph-name="afii10023" unicode="&#x401;" 
d="M356 1542v326h197v-326h-197zM725 1542v326h197v-326h-197zM221 0v1401h836v-197h-639v-405h577v-197h-577v-405h639v-197h-836z" />
    <glyph glyph-name="afii10051" unicode="&#x402;" 
d="M698 903q158 0 269.5 -111.5t111.5 -269.5v-141q0 -158 -111.5 -269.5t-269.5 -111.5h-73v197h73q76 0 130.5 53t54.5 131v141q0 76 -54.5 130.5t-130.5 54.5h-73q-76 0 -130.5 -54.5t-54.5 -130.5v-522h-196v1204h-240v197h825v-197h-389v-385q100 84 234 84h24z" />
    <glyph glyph-name="afii10052" unicode="&#x403;" 
d="M655 1511l-139 142l297 297l141 -140zM240 0v1401h817v-197h-621v-1204h-196z" />
    <glyph glyph-name="afii10053" unicode="&#x404;" 
d="M674 178q66 0 116 42t64 106l188 -58q-33 -125 -135 -205.5t-233 -80.5h-99q-158 0 -269 111.5t-111 268.5v676q0 158 111.5 269.5t268.5 111.5h99q131 0 233.5 -81t134.5 -205l-188 -56q-14 61 -64.5 103.5t-115.5 42.5h-99q-76 0 -130 -54.5t-54 -130.5v-239h426v-197
h-426v-240q0 -76 54.5 -130t129.5 -54h99z" />
    <glyph glyph-name="afii10054" unicode="&#x405;" 
d="M147 270l189 56q14 -63 64.5 -105.5t117.5 -42.5h137q76 0 130.5 54.5t54.5 129.5q0 156 -176 224l-181 67q-307 121 -307 385q0 158 111.5 269.5t269.5 111.5h96q131 0 233.5 -81t135.5 -205l-191 -56q-12 63 -62 104.5t-116 41.5h-96q-78 0 -131 -54.5t-53 -130.5
q0 -66 38 -112.5t148 -89.5l180 -70q139 -57 218 -160.5t79 -243.5q0 -158 -111.5 -269t-269.5 -111h-137q-133 0 -235.5 81.5t-135.5 206.5z" />
    <glyph glyph-name="afii10055" unicode="&#x406;" 
d="M190 197h320v1007h-301v197h799v-197h-301v-1007h319v-197h-836v197z" />
    <glyph glyph-name="afii10056" unicode="&#x407;" 
d="M326 1542v326h196v-326h-196zM694 1542v326h197v-326h-197zM190 197h320v1007h-301v197h799v-197h-301v-1007h319v-197h-836v197z" />
    <glyph glyph-name="afii10057" unicode="&#x408;" 
d="M233 1401h762v-1039q0 -158 -111.5 -269t-269.5 -111h-79q-133 0 -235.5 80.5t-133.5 205.5l188 56q12 -61 62.5 -103.5t118.5 -42.5h79q76 0 130.5 54.5t54.5 129.5v842h-566v197z" />
    <glyph glyph-name="afii10058" unicode="&#x409;" 
d="M29 0v197h88q29 0 50 22.5t21 50.5v1131h584v-514h33q158 0 269.5 -111.5t111.5 -269.5v-125q0 -158 -111.5 -269.5t-269.5 -111.5h-230v1204h-190v-934q0 -113 -79 -191.5t-189 -78.5h-88zM772 197h33q76 0 130 53t54 131v125q0 76 -54 130t-130 54h-33v-493z" />
    <glyph glyph-name="afii10059" unicode="&#x40a;" 
d="M176 0v1401h197v-563h198v563h197v-563h33q158 0 269.5 -112t111.5 -269v-76q0 -158 -112 -269.5t-269 -111.5h-230v641h-198v-641h-197zM768 197h33q76 0 130 53t54 131v76q0 76 -54 130t-130 54h-33v-444z" />
    <glyph glyph-name="afii10060" unicode="&#x40b;" 
d="M680 903q158 0 269.5 -111.5t111.5 -269.5v-522h-197v522q0 76 -54 130.5t-130 54.5h-74q-76 0 -130 -54.5t-54 -130.5v-522h-197v1204h-237v197h825v-197h-391v-385q100 84 233 84h25z" />
    <glyph glyph-name="afii10061" unicode="&#x40c;" 
d="M602 1511l-139 142l297 297l141 -140zM203 1401h196v-596h129l271 297q74 80 73 172v127h197v-129q0 -23 -4 -56.5t-35 -110.5t-86 -136l-244 -262l261 -273q55 -59 86.5 -137t35.5 -111.5t4 -56.5v-129h-196v129q0 90 -74 170l-291 309h-127v-608h-196v1401z" />
    <glyph glyph-name="afii10062" unicode="&#x40e;" 
d="M332 1812h196q0 -33 23.5 -56t56.5 -23t56.5 23.5t23.5 55.5h197q0 -113 -82 -194.5t-194.5 -81.5t-194.5 81.5t-82 194.5zM188 0v197h179q53 0 84 55l51 117l-266 600q-70 156 -70 303v129h196v-129q0 -109 52 -223l194 -439l195 439q51 115 51 223v129h197v-129
q0 -147 -70 -303l-348 -791q-37 -80 -106.5 -129t-159.5 -49h-179z" />
    <glyph glyph-name="afii10145" unicode="&#x40f;" 
d="M1026 1401v-1401h-313v-356h-197v356h-326v1401h197v-1204h442v1204h197z" />
    <glyph glyph-name="afii10017" unicode="&#x410;" 
d="M1028 580l4 -19q4 -18 10.5 -49t12.5 -68.5t10 -86t4 -93.5v-264h-197v276q0 25 -2 39h-524q-2 -14 -2 -39v-276h-197v264q0 72 11.5 151t19.5 115.5t12 49.5l183 663q23 78 87 127t148 49t148.5 -49t87.5 -127zM377 512h465l-6 23l-179 651q-10 37 -49 37q-41 0 -47 -37
l-178 -651z" />
    <glyph glyph-name="afii10018" unicode="&#x411;" 
d="M694 887q158 0 269.5 -111.5t111.5 -269.5v-125q0 -158 -111.5 -269.5t-269.5 -111.5h-454v1401h731v-197h-535v-317h258zM879 381v125q0 76 -54.5 130t-130.5 54h-258v-493h258q76 0 130.5 54t54.5 130z" />
    <glyph glyph-name="afii10019" unicode="&#x412;" 
d="M899 717q76 -43 120 -120t44 -167v-49q0 -158 -111.5 -269.5t-269.5 -111.5h-467v1401h455q158 0 269.5 -111.5t111.5 -269.5v-25q0 -180 -152 -278zM670 1204h-258v-393h258q76 0 130 54.5t54 129.5v25q0 78 -54 131t-130 53zM866 381v49q0 78 -54 131t-130 53h-270
v-417h270q76 0 130 54t54 130z" />
    <glyph glyph-name="afii10020" unicode="&#x413;" 
d="M240 0v1401h817v-197h-621v-1204h-196z" />
    <glyph glyph-name="afii10021" unicode="&#x414;" 
d="M104 -356v553h115q80 231 80 639v565h670v-1204h123v-553h-197v356h-594v-356h-197zM422 197h350v1007h-276v-368q0 -414 -74 -639z" />
    <glyph glyph-name="afii10022" unicode="&#x415;" 
d="M221 0v1401h836v-197h-639v-405h577v-197h-577v-405h639v-197h-836z" />
    <glyph glyph-name="afii10024" unicode="&#x416;" 
d="M1040 442q74 -150 74 -309v-133h-196v133q0 111 -54 223l-121 246h-36v-602h-197v602h-37l-119 -246q-55 -113 -55 -223v-133h-197v133q0 156 76 309l127 265l-121 256q-74 154 -73 307v131h196v-131q0 -111 55 -223l111 -236h37v590h197v-590h38l111 236q53 111 53 223
v131h197v-131q0 -158 -72 -307l-121 -256z" />
    <glyph glyph-name="afii10025" unicode="&#x417;" 
d="M825 717q76 -43 121 -120t45 -167v-68q0 -158 -111.5 -269t-269.5 -111h-102q-133 0 -235.5 80.5t-133.5 205.5l189 56q12 -61 62 -103.5t118 -42.5h102q76 0 130.5 54.5t54.5 129.5v68q0 76 -54.5 130t-130.5 54h-209v197h197q76 0 130 54.5t54 129.5v43q0 76 -54 130.5
t-130 54.5h-90q-68 0 -118 -42t-62 -104l-189 56q31 125 133.5 205.5t235.5 80.5h90q158 0 269.5 -111.5t111.5 -269.5v-43q0 -86 -42 -159.5t-112 -118.5z" />
    <glyph glyph-name="afii10026" unicode="&#x418;" 
d="M1057 1401v-1401h-197v1044l-454 -1044h-246v1401h196v-1045l455 1045h246z" />
    <glyph glyph-name="afii10027" unicode="&#x419;" 
d="M332 1812h196q0 -33 23.5 -56t56.5 -23t56.5 23.5t23.5 55.5h197q0 -113 -82 -194.5t-194.5 -81.5t-194.5 81.5t-82 194.5zM1057 1401v-1401h-197v1044l-454 -1044h-246v1401h196v-1045l455 1045h246z" />
    <glyph glyph-name="afii10028" unicode="&#x41a;" 
d="M203 1401h196v-596h129l271 297q74 80 73 172v127h197v-129q0 -23 -4 -56.5t-35 -110.5t-86 -136l-244 -262l261 -273q55 -59 86.5 -137t35.5 -111.5t4 -56.5v-129h-196v129q0 90 -74 170l-291 309h-127v-608h-196v1401z" />
    <glyph glyph-name="afii10029" unicode="&#x41b;" 
d="M45 0v197h88q29 0 50.5 21.5t21.5 49.5v1133h827v-1401h-196v1204h-435v-934q0 -113 -78.5 -191.5t-189.5 -78.5h-88z" />
    <glyph glyph-name="afii10030" unicode="&#x41c;" 
d="M129 0v1401h250l229 -725l232 725h247v-1401h-196v1053l-193 -611h-180l-192 611v-1053h-197z" />
    <glyph glyph-name="afii10031" unicode="&#x41d;" 
d="M829 1401h197v-1401h-197v602h-442v-602h-197v1401h197v-602h442v602z" />
    <glyph glyph-name="afii10032" unicode="&#x41e;" 
d="M559 -18q-158 0 -269.5 111.5t-111.5 268.5v676q0 158 111.5 269.5t269.5 111.5h98q158 0 269.5 -111.5t111.5 -269.5v-676q0 -158 -111.5 -269t-269.5 -111h-98zM559 178h98q76 0 130.5 54.5t54.5 129.5v676q0 76 -54.5 130.5t-130.5 54.5h-98q-76 0 -130 -54.5
t-54 -130.5v-676q0 -76 54 -130t130 -54z" />
    <glyph glyph-name="afii10033" unicode="&#x41f;" 
d="M190 1401h836v-1401h-197v1204h-442v-1204h-197v1401z" />
    <glyph glyph-name="afii10034" unicode="&#x420;" 
d="M240 0v1401h454q158 0 269.5 -111.5t111.5 -269.5v-125q0 -158 -111.5 -269.5t-269.5 -111.5h-258v-514h-196zM436 711h258q76 0 130.5 54t54.5 130v125q0 76 -54.5 130t-130.5 54h-258v-493z" />
    <glyph glyph-name="afii10035" unicode="&#x421;" 
d="M1042 1133l-188 -56q-14 61 -64.5 103.5t-115.5 42.5h-99q-76 0 -130 -54.5t-54 -130.5v-676q0 -76 54.5 -130t129.5 -54h99q66 0 116 42t64 106l188 -58q-33 -125 -135 -205.5t-233 -80.5h-99q-158 0 -269 111.5t-111 268.5v676q0 158 111.5 269.5t268.5 111.5h99
q131 0 233 -80.5t135 -205.5z" />
    <glyph glyph-name="afii10036" unicode="&#x422;" 
d="M166 1401h885v-197h-344v-1204h-197v1204h-344v197z" />
    <glyph glyph-name="afii10037" unicode="&#x423;" 
d="M188 0v197h179q53 0 84 55l51 117l-266 600q-70 156 -70 303v129h196v-129q0 -109 52 -223l194 -439l195 439q51 115 51 223v129h197v-129q0 -147 -70 -303l-348 -791q-37 -80 -106.5 -129t-159.5 -49h-179z" />
    <glyph glyph-name="afii10038" unicode="&#x424;" 
d="M719 1237q158 0 269.5 -111.5t111.5 -269.5v-311q0 -156 -111.5 -268.5t-269.5 -112.5h-12v-164h-197v164h-10q-158 0 -269.5 111.5t-111.5 269.5v311q0 158 111.5 269.5t269.5 111.5h10v164h197v-164h12zM500 360h10v680h-10q-78 0 -131.5 -53t-53.5 -131v-311
q0 -78 53.5 -131.5t131.5 -53.5zM903 545v311q0 78 -54 131t-130 53h-12v-680h12q76 0 130 53.5t54 131.5z" />
    <glyph glyph-name="afii10039" unicode="&#x425;" 
d="M172 1401h197v-129q0 -33 17 -83t40 -79l182 -240l183 240q23 29 40 79t17 83v129h196v-129q0 -59 -28.5 -142t-71.5 -141l-215 -278l244 -322q12 -14 28.5 -42t39 -92.5t22.5 -127.5v-127h-197v127q0 33 -12 68.5t-25 54.5l-12 20l-209 279l-209 -279q-4 -4 -14 -20.5
t-22.5 -53t-12.5 -69.5v-127h-196v127q0 63 22.5 127.5t38.5 92.5t29 42l243 322l-215 278q-43 57 -71.5 140t-28.5 143v129z" />
    <glyph glyph-name="afii10040" unicode="&#x426;" 
d="M190 0v1401h197v-1204h442v1204h197v-1401h-836z" />
    <glyph glyph-name="afii10041" unicode="&#x427;" 
d="M1004 1401v-1401h-197v582q-100 -84 -234 -84h-24q-158 0 -269.5 111.5t-111.5 269.5v522h197v-522q0 -76 54 -130.5t130 -54.5h74q76 0 130 54.5t54 130.5v522h197z" />
    <glyph glyph-name="afii10042" unicode="&#x428;" 
d="M123 0v1401h196v-1204h191v1204h197v-1204h190v1204h197v-1401h-971z" />
    <glyph glyph-name="afii10043" unicode="&#x429;" 
d="M1094 197h80v-553h-197v356h-854v1401h196v-1204h191v1204h197v-1204h190v1204h197v-1204z" />
    <glyph glyph-name="afii10044" unicode="&#x42a;" 
d="M702 887q158 0 269.5 -111.5t111.5 -269.5v-125q0 -158 -111.5 -269.5t-269.5 -111.5h-454v1204h-240v197h436v-514h258zM887 381v125q0 76 -54.5 130t-130.5 54h-258v-493h258q76 0 130.5 54t54.5 130z" />
    <glyph glyph-name="afii10045" unicode="&#x42b;" 
d="M145 1401h197v-514h33q158 0 269.5 -111.5t111.5 -269.5v-125q0 -158 -112 -269.5t-269 -111.5h-230v1401zM874 1401h197v-1401h-197v1401zM342 690v-493h33q76 0 130 53t54 131v125q0 76 -54 130t-130 54h-33z" />
    <glyph glyph-name="afii10046" unicode="&#x42c;" 
d="M240 1401h196v-514h258q158 0 269.5 -111.5t111.5 -269.5v-125q0 -158 -111.5 -269.5t-269.5 -111.5h-454v1401zM436 690v-493h258q76 0 130.5 54t54.5 130v125q0 76 -54.5 130t-130.5 54h-258z" />
    <glyph glyph-name="afii10047" unicode="&#x42d;" 
d="M641 1419q158 0 269.5 -111.5t111.5 -269.5v-676q0 -158 -111.5 -269t-269.5 -111h-98q-131 0 -233.5 80.5t-135.5 205.5l188 58q14 -63 64.5 -105.5t116.5 -42.5h98q76 0 130 54.5t54 129.5v240h-426v197h426v239q0 76 -54 130.5t-130 54.5h-98q-66 0 -116 -42t-65 -104
l-188 56q33 125 135.5 205.5t233.5 80.5h98z" />
    <glyph glyph-name="afii10048" unicode="&#x42e;" 
d="M805 1419q131 0 222 -91t91 -222v-811q0 -129 -91 -221t-222 -92t-222 92t-91 221v307h-173v-602h-196v1401h196v-602h173v307q0 131 91 222t222 91zM922 295v811q0 49 -34 83t-83 34q-47 0 -82 -34t-35 -83v-811q0 -47 35 -82t82 -35q49 0 83 35t34 82z" />
    <glyph glyph-name="afii10049" unicode="&#x42f;" 
d="M553 1401h455v-1401h-197v541h-160l-227 -242q-74 -78 -74 -170v-129h-196v129q0 172 127 305l129 135q-106 43 -172 139.5t-66 213.5v98q0 158 111.5 269.5t269.5 111.5zM811 737v467h-258q-78 0 -131 -53t-53 -131v-98q0 -78 53 -131.5t131 -53.5h258z" />
    <glyph glyph-name="afii10065" unicode="&#x430;" 
d="M819 1044h197v-1044h-197v66q-100 -84 -233 -84h-25q-158 0 -269.5 111.5t-111.5 268.5v320q0 158 111.5 269.5t269.5 111.5h25q133 0 233 -84v65zM635 178q76 0 130 54.5t54 129.5v320q0 76 -53 130t-131 54h-74q-78 0 -131 -54t-53 -130v-320q0 -76 54 -130t130 -54h74
z" />
    <glyph glyph-name="afii10066" unicode="&#x431;" 
d="M647 1063q158 0 269.5 -111.5t111.5 -269.5v-320q0 -158 -111.5 -269t-269.5 -111h-74q-158 0 -269 111.5t-111 268.5v754q2 158 113.5 269.5t266.5 111.5h162q29 0 50.5 20.5t21.5 51.5v53h197v-53q0 -113 -79 -191t-190 -78h-162q-76 0 -130 -54t-54 -130v-137
q100 84 234 84h24zM831 362v320q0 76 -54 130t-130 54h-74q-76 0 -130 -54t-54 -130v-320q0 -76 53.5 -130t130.5 -54h74q78 0 131 54t53 130z" />
    <glyph glyph-name="afii10067" unicode="&#x432;" 
d="M930 535q115 -82 114 -224q0 -129 -90 -220t-221 -91h-512v1044h496q129 0 219 -90t90 -219q0 -124 -96 -200zM418 848v-225h299q47 0 79.5 32.5t32.5 79.5t-32.5 80t-79.5 33h-299zM733 197q47 0 81 33.5t34 80.5t-34 81t-81 34h-315v-229h315z" />
    <glyph glyph-name="afii10068" unicode="&#x433;" 
d="M240 0v1044h804v-196h-608v-848h-196z" />
    <glyph glyph-name="afii10069" unicode="&#x434;" 
d="M121 -356v553h115q80 231 79 639v208h646v-847h122v-553h-196v356h-570v-356h-196zM438 197h326v651h-252v-39q0 -389 -74 -612z" />
    <glyph glyph-name="afii10070" unicode="&#x435;" 
d="M578 1063h73q158 0 269.5 -111.5t111.5 -269.5v-227h-639v-93q0 -76 53.5 -130t131.5 -54h79q66 0 115 41t66 103l188 -56q-33 -123 -135.5 -203.5t-233.5 -80.5h-79q-156 0 -268.5 111.5t-112.5 268.5v320q0 158 111.5 269.5t269.5 111.5zM393 633h443v49
q0 76 -53.5 130t-131.5 54h-73q-78 0 -131.5 -54t-53.5 -130v-49z" />
    <glyph glyph-name="afii10072" unicode="&#x436;" 
d="M102 0v125q0 68 25 136.5t44 98t30 39.5l98 119l-74 88q-51 61 -79.5 139t-32.5 112t-4 56v131h196v-131q0 -96 72 -180l96 -117h37v428h197v-428h36l97 117q72 84 71 180v131h197v-131q0 -23 -4 -56.5t-33 -111t-80 -139.5l-73 -88l98 -119q10 -10 29.5 -39.5t44 -98
t24.5 -136.5v-125h-196v125q0 35 -13.5 73t-25 55t-15.5 21l-121 146h-36v-420h-197v420h-37l-121 -146l-4 -8l-10 -15t-13.5 -23.5t-12.5 -30t-9 -35t-4 -37.5v-125h-197z" />
    <glyph glyph-name="afii10073" unicode="&#x437;" 
d="M893 530q119 -82 119 -227q0 -133 -94.5 -227t-227.5 -94h-196q-111 0 -197 66.5t-115 168.5l191 57q10 -41 43 -68.5t78 -27.5h196q51 0 88 36t37 89q0 51 -37 88t-88 37h-215v197h207q51 0 86 34.5t35 85.5q0 49 -35 85t-86 36h-195q-39 0 -71.5 -24.5t-42.5 -61.5
l-189 56q29 100 113 163.5t190 63.5h195q133 0 225 -93t92 -225q0 -135 -106 -215z" />
    <glyph glyph-name="afii10074" unicode="&#x438;" 
d="M160 0v1044h196v-753l467 753h234v-1044h-197v754l-465 -754h-235z" />
    <glyph glyph-name="afii10075" unicode="&#x439;" 
d="M332 1456h196q0 -33 23.5 -56.5t56.5 -23.5t56.5 23.5t23.5 56.5h197q0 -113 -82 -194.5t-194.5 -81.5t-194.5 81.5t-82 194.5zM160 0v1044h196v-753l467 753h234v-1044h-197v754l-465 -754h-235z" />
    <glyph glyph-name="afii10076" unicode="&#x43a;" 
d="M221 1044h197v-430h168l178 152q33 29 52.5 65.5t23.5 61.5l2 22v129h196v-129q0 -25 -4 -58.5t-41 -109t-100 -131.5l-121 -98l162 -129q123 -123 123 -262v-127h-197v127q0 27 -13 54.5t-24.5 41t-15.5 15.5l-219 180h-170v-418h-197v1044z" />
    <glyph glyph-name="afii10077" unicode="&#x43b;" 
d="M45 0v197h88q29 0 50.5 21.5t21.5 49.5v776h827v-1044h-196v848h-435v-578q0 -113 -78.5 -191.5t-189.5 -78.5h-88z" />
    <glyph glyph-name="afii10078" unicode="&#x43c;" 
d="M129 0v1044h256l223 -714l226 714h253v-1044h-196v686l-191 -600h-184l-190 600v-686h-197z" />
    <glyph glyph-name="afii10079" unicode="&#x43d;" 
d="M190 1044h197v-434h442v434h197v-1044h-197v414h-442v-414h-197v1044z" />
    <glyph glyph-name="afii10080" unicode="&#x43e;" 
d="M571 1063h74q158 0 269.5 -111.5t111.5 -269.5v-320q0 -158 -111.5 -269t-269.5 -111h-74q-158 0 -269.5 111.5t-111.5 268.5v320q0 158 111.5 269.5t269.5 111.5zM571 866q-76 0 -130 -54t-54 -130v-320q0 -76 54.5 -130t129.5 -54h74q76 0 130 54.5t54 129.5v320
q0 76 -54 130t-130 54h-74z" />
    <glyph glyph-name="afii10081" unicode="&#x43f;" 
d="M190 1044h836v-1044h-197v848h-442v-848h-197v1044z" />
    <glyph glyph-name="afii10082" unicode="&#x440;" 
d="M657 1063q158 0 269.5 -111.5t111.5 -269.5v-320q0 -158 -111.5 -269t-269.5 -111h-24q-133 0 -234 84v-422h-196v1400h196v-65q100 84 234 84h24zM842 362v320q0 76 -54.5 130t-130.5 54h-73q-76 0 -130.5 -54t-54.5 -130v-320q0 -76 54.5 -130t130.5 -54h73
q76 0 130.5 54t54.5 130z" />
    <glyph glyph-name="afii10083" unicode="&#x441;" 
d="M209 362v320q0 158 111.5 269.5t269.5 111.5h78q133 0 235.5 -81t132.5 -206l-188 -55q-14 63 -64.5 104t-115.5 41h-78q-78 0 -131 -54t-53 -130v-320q0 -76 54 -130t130 -54h78q66 0 116 42t64 106l188 -58q-31 -125 -133 -205.5t-235 -80.5h-78q-156 0 -268.5 111
t-112.5 269z" />
    <glyph glyph-name="afii10084" unicode="&#x442;" 
d="M178 1044h860v-196h-331v-848h-197v848h-332v196z" />
    <glyph glyph-name="afii10085" unicode="&#x443;" 
d="M164 1044h196v-131q0 -102 54 -202l198 -363l199 363q53 96 53 202v131h197v-131q0 -156 -78 -299l-448 -819q-37 -63 -106 -107t-153 -44h-172v196h172q35 0 57.5 19.5t28.5 34.5l138 251l-258 469q-78 143 -78 299v131z" />
    <glyph glyph-name="afii10086" unicode="&#x444;" 
d="M719 1059q158 0 269.5 -111.5t111.5 -269.5v-316q0 -158 -111.5 -269t-269.5 -111h-12v-338h-197v338h-10q-158 0 -269.5 111.5t-111.5 268.5v316q0 158 111.5 269.5t269.5 111.5h10v342h197v-342h12zM500 178h10v684h-10q-78 0 -131.5 -54t-53.5 -130v-316
q0 -76 53.5 -130t131.5 -54zM903 362v316q0 76 -54 130t-130 54h-12v-684h12q76 0 130 54t54 130z" />
    <glyph glyph-name="afii10087" unicode="&#x445;" 
d="M190 1044h197v-129q0 -10 3 -27.5t22.5 -54t52.5 -63.5l141 -115l146 117q78 61 77 143v129h197v-129q0 -78 -43 -160.5t-111 -138.5l-120 -94l166 -135q127 -102 126 -260v-127h-196v127q0 27 -12.5 53.5t-24.5 40.5l-14 12l-189 154l-186 -151q-53 -53 -53 -109v-127
h-197v127q0 70 33 135.5t54.5 88t39.5 36.5l164 133l-121 96q-66 53 -103.5 130t-43 112t-5.5 57v129z" />
    <glyph glyph-name="afii10088" unicode="&#x446;" 
d="M1026 197h121v-553h-197v356h-760v1044h197v-847h442v847h197v-847z" />
    <glyph glyph-name="afii10089" unicode="&#x447;" 
d="M1008 1044v-1044h-197v410q-100 -84 -233 -84h-25q-158 0 -269.5 111.5t-111.5 269.5v337h197v-337q0 -76 54 -130.5t130 -54.5h74q76 0 130 54.5t54 130.5v337h197z" />
    <glyph glyph-name="afii10090" unicode="&#x448;" 
d="M123 0v1044h196v-847h191v847h197v-847h190v847h197v-1044h-971z" />
    <glyph glyph-name="afii10091" unicode="&#x449;" 
d="M1094 197h129v-553h-197v356h-903v1044h196v-847h191v847h197v-847h190v847h197v-847z" />
    <glyph glyph-name="afii10092" unicode="&#x44a;" 
d="M45 848v196h436v-282h197q158 0 269.5 -111.5t111.5 -269.5t-111.5 -269.5t-269.5 -111.5h-393v848h-240zM481 197h197q76 0 130 53t54 131t-54 131t-130 53h-197v-368z" />
    <glyph glyph-name="afii10093" unicode="&#x44b;" 
d="M141 0v1044h197v-389h92q137 0 232.5 -96t95.5 -231q0 -137 -95.5 -232.5t-232.5 -95.5h-289zM879 0v1044h196v-1044h-196zM338 197h92q55 0 93 37.5t38 93.5q0 53 -38 92t-93 39h-92v-262z" />
    <glyph glyph-name="afii10094" unicode="&#x44c;" 
d="M246 0v1044h196v-282h258q158 0 269.5 -111.5t111.5 -269.5t-111.5 -269.5t-269.5 -111.5h-454zM442 197h258q78 0 131.5 53t53.5 131t-53.5 131t-131.5 53h-258v-368z" />
    <glyph glyph-name="afii10095" unicode="&#x44d;" 
d="M627 1063q158 0 269.5 -111.5t111.5 -269.5v-320q0 -158 -113 -269t-268 -111h-78q-133 0 -235.5 80.5t-133.5 205.5l189 58q14 -63 64 -105.5t116 -42.5h78q76 0 130 54.5t54 129.5v68h-385v197h385v55q0 76 -53 130t-131 54h-78q-66 0 -116 -41t-64 -104l-189 55
q31 125 133.5 206t235.5 81h78z" />
    <glyph glyph-name="afii10096" unicode="&#x44e;" 
d="M809 1063q133 -2 223 -93t90 -220v-455q0 -129 -91 -220t-222 -93q-133 2 -223 94t-90 219v129h-172v-424h-197v1044h197v-423h172v129q0 131 90 221t223 92zM926 295v455q0 49 -34 82.5t-83 33.5q-47 0 -82 -33.5t-35 -82.5v-455q0 -47 35 -82t82 -35q49 0 83 35t34 82z
" />
    <glyph glyph-name="afii10097" unicode="&#x44f;" 
d="M524 1044h492v-1044h-197v356h-256l-153 -161q-39 -39 -39 -97v-98h-197v98q0 59 22.5 116.5t40 80t29.5 35.5l76 78q-74 47 -118 124.5t-44 167.5q0 143 100.5 243.5t243.5 100.5zM819 553v295h-295q-61 0 -104 -43t-43 -104.5t43 -104.5t104 -43h295z" />
    <glyph glyph-name="afii10071" unicode="&#x451;" 
d="M332 1186v325h196v-325h-196zM700 1186v325h197v-325h-197zM578 1063h73q158 0 269.5 -111.5t111.5 -269.5v-227h-639v-93q0 -76 53.5 -130t131.5 -54h79q66 0 115 41t66 103l188 -56q-33 -123 -135.5 -203.5t-233.5 -80.5h-79q-156 0 -268.5 111.5t-112.5 268.5v320
q0 158 111.5 269.5t269.5 111.5zM393 633h443v49q0 76 -53.5 130t-131.5 54h-73q-78 0 -131.5 -54t-53.5 -130v-49z" />
    <glyph glyph-name="afii10099" unicode="&#x452;" 
d="M651 1063q158 0 269.5 -111.5t111.5 -269.5v-770q0 -111 -79 -189.5t-189 -78.5h-88v196h88q29 0 50.5 21.5t21.5 50.5v770q0 76 -53.5 130t-131.5 54h-73q-76 0 -130.5 -54t-54.5 -130v-682h-196v1174h-142v196h142v152h196v-152h264v-196h-264v-195q100 84 234 84h24z
" />
    <glyph glyph-name="afii10100" unicode="&#x453;" 
d="M643 1155l-139 141l297 297l141 -139zM240 0v1044h804v-196h-608v-848h-196z" />
    <glyph glyph-name="afii10101" unicode="&#x454;" 
d="M668 178q66 0 116 42t64 106l188 -58q-31 -125 -133 -205.5t-235 -80.5h-78q-156 0 -268.5 111.5t-112.5 268.5v320q0 158 111.5 269.5t269.5 111.5h78q133 0 235.5 -81t132.5 -206l-188 -55q-14 63 -64.5 104t-115.5 41h-78q-78 0 -131 -54t-53 -130v-55h385v-197h-385
v-68q0 -76 54 -130t130 -54h78z" />
    <glyph glyph-name="afii10102" unicode="&#x455;" 
d="M193 209l188 57q10 -39 40 -63.5t71 -24.5h227q45 0 78.5 34t33.5 81q0 51 -33.5 83t-88.5 40l-203 26q-125 12 -210 101.5t-85 210.5q0 129 91 219t220 90h191q104 0 187 -63.5t112 -161.5l-189 -58q-8 39 -38.5 62.5t-71.5 23.5h-191q-47 0 -80.5 -32.5t-33.5 -79.5
q0 -49 35.5 -81t86.5 -36l209 -27q127 -18 208 -105t81 -212q0 -127 -91 -219t-218 -92h-227q-106 0 -188 63.5t-111 163.5z" />
    <glyph glyph-name="afii10103" unicode="&#x456;" 
d="M553 1186v325h197v-325h-197zM270 1044h480v-847h325v-197h-872v197h350v651h-283v196z" />
    <glyph glyph-name="afii10104" unicode="&#x457;" 
d="M369 1186v325h196v-325h-196zM737 1186v325h197v-325h-197zM270 1044h480v-847h325v-197h-872v197h350v651h-283v196z" />
    <glyph glyph-name="afii10105" unicode="&#x458;" 
d="M653 1186v325h197v-325h-197zM229 1044h621v-1040q0 -158 -110.5 -268.5t-268.5 -110.5q-131 0 -231.5 79t-133.5 202l189 57q14 -61 63.5 -101t112.5 -40q76 0 129 53t53 129v844h-424v196z" />
    <glyph glyph-name="afii10106" unicode="&#x459;" 
d="M39 0v197h53q29 0 50.5 21.5t21.5 49.5v776h584v-389h92q137 0 232 -96t95 -231q0 -137 -95 -232.5t-232 -95.5h-289v848h-191v-578q0 -113 -78.5 -191.5t-189.5 -78.5h-53zM748 197h92q55 0 93 37.5t38 93.5q0 53 -38 92t-93 39h-92v-262z" />
    <glyph glyph-name="afii10107" unicode="&#x45a;" 
d="M147 0v1044h197v-389h199v389h196v-389h92q137 0 232.5 -96t95.5 -231q0 -137 -95 -232.5t-233 -95.5h-288v459h-199v-459h-197zM739 197h92q55 0 93.5 37.5t38.5 93.5q0 53 -38 92t-94 39h-92v-262z" />
    <glyph glyph-name="afii10108" unicode="&#x45b;" 
d="M651 1063q158 0 269.5 -111.5t111.5 -269.5v-682h-196v682q0 76 -53.5 130t-131.5 54h-73q-76 0 -130.5 -54t-54.5 -130v-682h-196v1174h-142v196h142v152h196v-152h264v-196h-264v-195q100 84 234 84h24z" />
    <glyph glyph-name="afii10109" unicode="&#x45c;" 
d="M614 1155l-139 141l297 297l141 -139zM221 1044h197v-430h168l178 152q33 29 52.5 65.5t23.5 61.5l2 22v129h196v-129q0 -25 -4 -58.5t-41 -109t-100 -131.5l-121 -98l162 -129q123 -123 123 -262v-127h-197v127q0 27 -13 54.5t-24.5 41t-15.5 15.5l-219 180h-170v-418
h-197v1044z" />
    <glyph glyph-name="afii10110" unicode="&#x45e;" 
d="M332 1456h196q0 -33 23.5 -56.5t56.5 -23.5t56.5 23.5t23.5 56.5h197q0 -113 -82 -194.5t-194.5 -81.5t-194.5 81.5t-82 194.5zM164 1044h196v-131q0 -102 54 -202l198 -363l199 363q53 96 53 202v131h197v-131q0 -156 -78 -299l-448 -819q-37 -63 -106 -107t-153 -44
h-172v196h172q35 0 57.5 19.5t28.5 34.5l138 251l-258 469q-78 143 -78 299v131z" />
    <glyph glyph-name="afii10193" unicode="&#x45f;" 
d="M1026 1044v-1044h-319v-356h-197v356h-320v1044h197v-847h442v847h197z" />
    <glyph glyph-name="afii10146" unicode="&#x462;" 
d="M698 887q158 0 269.5 -111.5t111.5 -269.5v-125q0 -158 -111.5 -269.5t-269.5 -111.5h-454v1204h-240v197h825v-197h-389v-317h258zM883 381v125q0 76 -54.5 130t-130.5 54h-258v-493h258q76 0 130.5 54t54.5 130z" />
    <glyph glyph-name="afii10194" unicode="&#x463;" 
d="M33 967v196h239v238h197v-238h389v-196h-389v-205h197q158 0 269.5 -111.5t111.5 -269.5t-112 -269.5t-269 -111.5h-394v967h-239zM469 197h197q76 0 130 53t54 131t-54.5 131t-129.5 53h-197v-368z" />
    <glyph glyph-name="afii10147" unicode="&#x472;" 
d="M657 1419q158 0 269.5 -111.5t111.5 -269.5v-676q0 -158 -111.5 -269t-269.5 -111h-98q-158 0 -269.5 111.5t-111.5 268.5v676q0 158 111.5 269.5t269.5 111.5h98zM559 1223q-76 0 -130 -54.5t-54 -130.5v-198q51 20 96 20q78 0 152 -45q10 -8 39.5 -33.5t50 -37
t43.5 -11.5q35 0 60.5 22.5t25.5 55.5v227q0 76 -54.5 130.5t-130.5 54.5h-98zM657 178q76 0 130.5 54.5t54.5 129.5v199q-51 -20 -97 -20q-84 0 -149 47q-25 14 -45.5 30.5t-30.5 26.5t-24.5 16.5t-34.5 6.5q-35 0 -60.5 -21.5t-25.5 -56.5v-228q0 -76 54 -130t130 -54h98z
" />
    <glyph glyph-name="afii10195" unicode="&#x473;" 
d="M645 1063q158 0 269.5 -111.5t111.5 -269.5v-320q0 -158 -111.5 -269t-269.5 -111h-74q-158 0 -269.5 111.5t-111.5 268.5v320q0 158 112 269.5t269 111.5h74zM571 866q-76 0 -130 -54t-54 -130v-16q43 16 84 16q78 0 152 -45q14 -10 40.5 -32.5t46 -34t40.5 -11.5
q33 0 56 21.5t23 52.5v49q0 76 -54 130t-130 54h-74zM645 178q76 0 130 54.5t54 129.5v17q-43 -16 -84 -17q-84 0 -149 48q-31 18 -54.5 39.5t-38 29.5t-36.5 8q-31 0 -55.5 -22.5t-24.5 -52.5v-50q0 -76 54.5 -130t129.5 -54h74z" />
    <glyph glyph-name="afii10148" unicode="&#x474;" 
d="M147 1135v266h197v-279q0 -127 45 -254l219 -645l340 996q29 80 98.5 131t157.5 51h49v-197h-49q-51 0 -69 -49l-400 -1155h-254l-282 815q-20 57 -36 155.5t-16 164.5z" />
    <glyph glyph-name="afii10196" unicode="&#x475;" 
d="M154 915v129h196v-129q0 -104 53 -223l199 -452l287 645q33 74 100.5 116.5t147.5 42.5h49v-196h-51q-47 0 -66 -43l-358 -805h-215l-273 610q-69 155 -69 305z" />
    <glyph glyph-name="afii10050" unicode="&#x490;" 
d="M860 1579h197v-375h-621v-1204h-196v1401h620v178z" />
    <glyph glyph-name="afii10098" unicode="&#x491;" 
d="M848 1401h196v-553h-608v-848h-196v1044h608v357z" />
    <glyph glyph-name="uni0492" unicode="&#x492;" 
d="M1090 1204h-621v-446h502v-197h-502v-561h-197v561h-170v197h170v643h818v-197z" />
    <glyph glyph-name="uni0493" unicode="&#x493;" 
d="M1077 848h-608v-283h502v-196h-502v-369h-197v369h-170v196h170v479h805v-196z" />
    <glyph glyph-name="uni0496" unicode="&#x496;" 
d="M1110 197h78v-553h-197v356h-73v133q0 111 -54 223l-121 246h-36v-602h-197v602h-37l-119 -246q-55 -113 -55 -223v-133h-197v133q0 156 76 309l127 265l-121 256q-74 154 -73 307v131h196v-131q0 -111 55 -223l111 -236h37v590h197v-590h38l111 236q53 111 53 223v131
h197v-131q0 -158 -72 -307l-121 -256l127 -265q56 -110 70 -245z" />
    <glyph glyph-name="uni0497" unicode="&#x497;" 
d="M1108 197h80v-553h-197v356h-73v125q0 35 -13.5 73t-25 55t-15.5 21l-121 146h-36v-420h-197v420h-37l-121 -146l-4 -8l-10 -15t-13.5 -23.5t-12.5 -30t-9 -35t-4 -37.5v-125h-197v125q0 68 25 136.5t44 98t30 39.5l98 119l-74 88q-51 61 -79.5 139t-32.5 112t-4 56v131
h196v-131q0 -96 72 -180l96 -117h37v428h197v-428h36l97 117q72 84 71 180v131h197v-131q0 -23 -4 -56.5t-33 -111t-80 -139.5l-73 -88l98 -119q8 -8 22.5 -29.5t38 -71.5t31.5 -101z" />
    <glyph glyph-name="uni0498" unicode="&#x498;" 
d="M825 717q76 -43 121 -120t45 -167v-68q0 -143 -94 -249.5t-231 -126.5v-78q80 -29 129 -100.5t49 -157.5q0 -115 -81 -196t-196 -81h-98v197h98q35 0 57.5 22.5t22.5 57.5t-22.5 57.5t-57.5 22.5h-98v254q-119 12 -210 91t-120 193l189 56q12 -61 62 -103.5t118 -42.5
h102q76 0 130.5 54.5t54.5 129.5v68q0 76 -54.5 130t-130.5 54h-209v197h197q76 0 130 54.5t54 129.5v43q0 76 -54 130.5t-130 54.5h-90q-68 0 -118 -42t-62 -104l-189 56q31 125 133.5 205.5t235.5 80.5h90q158 0 269.5 -111.5t111.5 -269.5v-43q0 -86 -42 -159.5
t-112 -118.5z" />
    <glyph glyph-name="uni0499" unicode="&#x499;" 
d="M1012 303q0 -129 -89 -222t-216 -99v-74q80 -29 129 -100.5t49 -157.5q0 -115 -81 -196t-196 -81h-98v197h98q35 0 57.5 22.5t22.5 57.5t-22.5 57.5t-57.5 22.5h-98v252h-16q-111 0 -197 66.5t-115 168.5l191 57q10 -41 43 -68.5t78 -27.5h196q51 0 88 36t37 89
q0 51 -37 88t-88 37h-215v197h207q51 0 86 34.5t35 85.5q0 49 -35 85t-86 36h-195q-39 0 -71.5 -24.5t-42.5 -61.5l-189 56q29 100 113 163.5t190 63.5h195q133 0 225 -93t92 -225q0 -135 -106 -215q119 -82 119 -227z" />
    <glyph glyph-name="uni049A" unicode="&#x49a;" 
d="M1079 197h123v-553h-196v356h-115v129q0 90 -74 170l-291 309h-127v-608h-196v1401h196v-596h129l271 297q74 80 73 172v127h197v-129q0 -23 -4 -56.5t-35 -110.5t-86 -136l-244 -262l261 -273q95 -100 118 -237z" />
    <glyph glyph-name="uni049B" unicode="&#x49b;" 
d="M1049 197h122v-553h-196v356h-115v127q0 27 -13 54.5t-24.5 41t-15.5 15.5l-219 180h-170v-418h-197v1044h197v-430h168l178 152q33 29 52.5 65.5t23.5 61.5l2 22v129h196v-129q0 -25 -4 -58.5t-41 -109t-100 -131.5l-121 -98l162 -129q95 -94 115 -192z" />
    <glyph glyph-name="uni04A2" unicode="&#x4a2;" 
d="M1026 197h115v-553h-197v356h-115v602h-442v-602h-197v1401h197v-602h442v602h197v-1204z" />
    <glyph glyph-name="uni04A3" unicode="&#x4a3;" 
d="M1026 197h115v-553h-197v356h-115v414h-442v-414h-197v1044h197v-434h442v434h197v-847z" />
    <glyph glyph-name="uni04AA" unicode="&#x4aa;" 
d="M674 178q66 0 116 42t64 106l188 -58q-31 -117 -123 -195.5t-212 -88.5v-76q80 -29 129 -100.5t49 -157.5q0 -115 -81 -196t-196 -81h-98v197h98q35 0 57.5 22.5t22.5 57.5t-22.5 57.5t-57.5 22.5h-98v258q-135 23 -225 128t-90 246v676q0 158 111.5 269.5t268.5 111.5
h99q131 0 233.5 -81t134.5 -205l-188 -56q-14 61 -64.5 103.5t-115.5 42.5h-99q-76 0 -130 -54.5t-54 -130.5v-676q0 -76 54.5 -130t129.5 -54h99z" />
    <glyph glyph-name="uni04AB" unicode="&#x4ab;" 
d="M668 178q66 0 116 42t64 106l188 -58q-29 -111 -112.5 -187.5t-196.5 -94.5v-78q80 -29 129 -100.5t49 -157.5q0 -115 -81 -196t-195 -81h-99v197h99q35 0 57.5 22.5t22.5 57.5t-22.5 57.5t-57.5 22.5h-99v256q-135 23 -228 129t-93 247v320q0 158 111.5 269.5
t269.5 111.5h78q133 0 235.5 -81t132.5 -206l-188 -55q-14 63 -64.5 104t-115.5 41h-78q-78 0 -131 -54t-53 -130v-320q0 -76 54 -130t130 -54h78z" />
    <glyph glyph-name="uni04AC" unicode="&#x4ac;" 
d="M1051 1204h-344v-1007h114v-553h-196v356h-115v1204h-344v197h885v-197z" />
    <glyph glyph-name="uni04AD" unicode="&#x4ad;" 
d="M1038 848h-331v-651h114v-553h-196v356h-115v848h-332v196h860v-196z" />
    <glyph glyph-name="uni04AE" unicode="&#x4ae;" 
d="M1057 1112q0 -145 -88 -256l-262 -336v-520h-197v520l-260 336q-10 10 -28.5 39t-40 91.5t-21.5 125.5v289h196v-289q0 -33 12.5 -66.5t22.5 -51t15 -19.5l202 -262l205 262l6 8q4 8 10.5 20.5t13.5 29t12 38t5 41.5v289h197v-289z" />
    <glyph glyph-name="uni04AF" unicode="&#x4af;" 
d="M1057 913q0 -158 -78 -299l-272 -497v-473h-197v473l-272 497q-78 141 -78 299v131h196v-131q0 -106 54 -202l198 -363l199 363q53 96 53 202v131h197v-131z" />
    <glyph glyph-name="uni04B0" unicode="&#x4b0;" 
d="M1057 1112q0 -145 -88 -256l-181 -231h261v-197h-342v-428h-197v428h-342v197h262l-180 231q-10 10 -28.5 39t-40 91.5t-21.5 125.5v289h196v-289q0 -33 12.5 -66.5t22.5 -51t15 -19.5l202 -262l205 262l6 8q4 8 10.5 20.5t13.5 29t12 38t5 41.5v289h197v-289z" />
    <glyph glyph-name="uni04B1" unicode="&#x4b1;" 
d="M1057 913q0 -158 -78 -299l-164 -301h166v-196h-274v-473h-197v473h-266v196h157l-163 301q-78 141 -78 299v131h196v-131q0 -106 54 -202l198 -363l199 363q53 96 53 202v131h197v-131z" />
    <glyph glyph-name="uni04B2" unicode="&#x4b2;" 
d="M1057 197h121v-553h-197v356h-115v127q0 33 -12 68.5t-25 54.5l-12 20l-209 279l-209 -279q-4 -4 -14 -20.5t-22.5 -53t-12.5 -69.5v-127h-196v127q0 63 22.5 127.5t38.5 92.5t29 42l243 322l-215 278q-43 57 -71.5 140t-28.5 143v129h197v-129q0 -33 17 -83t40 -79
l182 -240l183 240q23 29 40 79t17 83v129h196v-129q0 -59 -28.5 -142t-71.5 -141l-215 -278l244 -322q66 -79 84 -192z" />
    <glyph glyph-name="uni04B3" unicode="&#x4b3;" 
d="M1036 197h123v-553h-196v356h-115v127q0 27 -12.5 53.5t-24.5 40.5l-14 12l-189 154l-186 -151q-53 -53 -53 -109v-127h-197v127q0 70 33 135.5t54.5 88t39.5 36.5l164 133l-121 96q-66 53 -103.5 130t-43 112t-5.5 57v129h197v-129q0 -10 3 -27.5t22.5 -54t52.5 -63.5
l141 -115l146 117q78 61 77 143v129h197v-129q0 -78 -43 -160.5t-111 -138.5l-120 -94l166 -135q12 -8 29.5 -26.5t47 -65.5t41.5 -98z" />
    <glyph glyph-name="uni04B6" unicode="&#x4b6;" 
d="M1004 197h114v-553h-196v356h-115v582q-100 -84 -234 -84h-24q-158 0 -269.5 111.5t-111.5 269.5v522h197v-522q0 -76 54 -130.5t130 -54.5h74q76 0 130 54.5t54 130.5v522h197v-1204z" />
    <glyph glyph-name="uni04B7" unicode="&#x4b7;" 
d="M1008 197h114v-553h-196v356h-115v410q-100 -84 -233 -84h-25q-158 0 -269.5 111.5t-111.5 269.5v337h197v-337q0 -76 54 -130.5t130 -54.5h74q76 0 130 54.5t54 130.5v337h197v-847z" />
    <glyph glyph-name="uni04BA" unicode="&#x4ba;" 
d="M668 903q158 0 269.5 -111.5t111.5 -269.5v-522h-197v522q0 76 -54.5 130.5t-129.5 54.5h-74q-76 0 -130 -54.5t-54 -130.5v-522h-197v1401h197v-582q100 84 233 84h25z" />
    <glyph glyph-name="uni04BB" unicode="&#x4bb;" 
d="M651 1063q158 0 269.5 -111.5t111.5 -269.5v-682h-196v682q0 76 -53.5 130t-131.5 54h-73q-76 0 -130.5 -54t-54.5 -130v-682h-196v1401h196v-422q100 84 234 84h24z" />
    <glyph glyph-name="uni04C0" unicode="&#x4c0;" 
d="M190 197h320v1007h-301v197h799v-197h-301v-1007h319v-197h-836v197z" />
    <glyph glyph-name="uni04C1" unicode="&#x4c1;" 
d="M608.5 1536q-112.5 0 -194.5 82t-82 194h196q0 -33 23.5 -56t56.5 -23t56.5 23.5t23.5 55.5h197q0 -113 -82 -194.5t-194.5 -81.5zM1040 442q74 -150 74 -309v-133h-196v133q0 111 -54 223l-121 246h-36v-602h-197v602h-37l-119 -246q-55 -113 -55 -223v-133h-197v133
q0 156 76 309l127 265l-121 256q-74 154 -73 307v131h196v-131q0 -111 55 -223l111 -236h37v590h197v-590h38l111 236q53 111 53 223v131h197v-131q0 -158 -72 -307l-121 -256z" />
    <glyph glyph-name="uni04C2" unicode="&#x4c2;" 
d="M332 1456h196q0 -33 23.5 -56.5t56.5 -23.5t56.5 23.5t23.5 56.5h197q0 -113 -82 -194.5t-194.5 -81.5t-194.5 81.5t-82 194.5zM102 0v125q0 68 25 136.5t44 98t30 39.5l98 119l-74 88q-51 61 -79.5 139t-32.5 112t-4 56v131h196v-131q0 -96 72 -180l96 -117h37v428h197
v-428h36l97 117q72 84 71 180v131h197v-131q0 -23 -4 -56.5t-33 -111t-80 -139.5l-73 -88l98 -119q10 -10 29.5 -39.5t44 -98t24.5 -136.5v-125h-196v125q0 35 -13.5 73t-25 55t-15.5 21l-121 146h-36v-420h-197v420h-37l-121 -146l-4 -8l-10 -15t-13.5 -23.5t-12.5 -30
t-9 -35t-4 -37.5v-125h-197z" />
    <glyph glyph-name="uni04CB" unicode="&#x4cb;" 
d="M1004 197h114v-553h-196v356h-115v582q-100 -84 -234 -84h-24q-158 0 -269.5 111.5t-111.5 269.5v522h197v-522q0 -76 54 -130.5t130 -54.5h74q76 0 130 54.5t54 130.5v522h197v-1204z" />
    <glyph glyph-name="uni04CC" unicode="&#x4cc;" 
d="M1008 197h114v-553h-196v356h-115v410q-100 -84 -233 -84h-25q-158 0 -269.5 111.5t-111.5 269.5v337h197v-337q0 -76 54 -130.5t130 -54.5h74q76 0 130 54.5t54 130.5v337h197v-847z" />
    <glyph glyph-name="uni04CF" unicode="&#x4cf;" 
d="M190 197h320v1007h-301v197h799v-197h-301v-1007h319v-197h-836v197z" />
    <glyph glyph-name="uni04D0" unicode="&#x4d0;" 
d="M608.5 1536q-112.5 0 -194.5 82t-82 194h196q0 -33 23.5 -56t56.5 -23t56.5 23.5t23.5 55.5h197q0 -113 -82 -194.5t-194.5 -81.5zM1028 580l4 -19q4 -18 10.5 -49t12.5 -68.5t10 -86t4 -93.5v-264h-197v276q0 25 -2 39h-524q-2 -14 -2 -39v-276h-197v264q0 72 11.5 151
t19.5 115.5t12 49.5l183 663q23 78 87 127t148 49t148.5 -49t87.5 -127zM377 512h465l-6 23l-179 651q-10 37 -49 37q-41 0 -47 -37l-178 -651z" />
    <glyph glyph-name="uni04D1" unicode="&#x4d1;" 
d="M608.5 1180q-112.5 0 -194.5 81.5t-82 194.5h196q0 -33 23.5 -56.5t56.5 -23.5t56.5 23.5t23.5 56.5h197q0 -113 -82 -194.5t-194.5 -81.5zM819 1044h197v-1044h-197v66q-100 -84 -233 -84h-25q-158 0 -269.5 111.5t-111.5 268.5v320q0 158 111.5 269.5t269.5 111.5h25
q133 0 233 -84v65zM635 178q76 0 130 54.5t54 129.5v320q0 76 -53 130t-131 54h-74q-78 0 -131 -54t-53 -130v-320q0 -76 54 -130t130 -54h74z" />
    <glyph glyph-name="uni04D2" unicode="&#x4d2;" 
d="M522 1868v-326h-196v326h196zM891 1868v-326h-197v326h197zM1028 580l4 -19q4 -18 10.5 -49t12.5 -68.5t10 -86t4 -93.5v-264h-197v276q0 25 -2 39h-524q-2 -14 -2 -39v-276h-197v264q0 72 11.5 151t19.5 115.5t12 49.5l183 663q23 78 87 127t148 49t148.5 -49t87.5 -127
zM377 512h465l-6 23l-179 651q-10 37 -49 37q-41 0 -47 -37l-178 -651z" />
    <glyph glyph-name="uni04D3" unicode="&#x4d3;" 
d="M522 1511v-325h-196v325h196zM891 1511v-325h-197v325h197zM819 1044h197v-1044h-197v66q-100 -84 -233 -84h-25q-158 0 -269.5 111.5t-111.5 268.5v320q0 158 111.5 269.5t269.5 111.5h25q133 0 233 -84v65zM635 178q76 0 130 54.5t54 129.5v320q0 76 -53 130t-131 54
h-74q-78 0 -131 -54t-53 -130v-320q0 -76 54 -130t130 -54h74z" />
    <glyph glyph-name="uni04D4" unicode="&#x4d4;" 
d="M1075 1204h-289v-405h228v-197h-228v-405h289v-197h-485v313h-268q-2 -12 -3 -37v-276h-196v264q0 72 11 151t19.5 115.5t12.5 49.5l182 663q23 78 87.5 127t148.5 49q51 0 92 -18h399v-197zM352 510h238v713h-6q-41 0 -47 -37l-179 -651z" />
    <glyph glyph-name="uni04D5" unicode="&#x4d5;" 
d="M1141 428h-430v-133q0 -47 34.5 -82t81.5 -35q41 0 72 25.5t41 62.5l188 -57q-29 -100 -111.5 -163.5t-189.5 -63.5q-63 0 -116 36v-28h-197v28q-53 -37 -117 -36q-131 0 -222 92t-91 221v455q0 131 91 222t222 91q63 0 117 -37v29h197v-29q53 37 116 37q129 0 221.5 -91
t92.5 -222v-322zM397 178q49 0 83 35t34 82v455q0 49 -34 82.5t-83 33.5q-47 0 -81.5 -33.5t-34.5 -82.5v-455q0 -47 34.5 -82t81.5 -35zM827 866q-47 0 -81.5 -33.5t-34.5 -82.5v-144h233v144q0 49 -34 82.5t-83 33.5z" />
    <glyph glyph-name="uni04D6" unicode="&#x4d6;" 
d="M362 1812h197q0 -33 23.5 -56t56.5 -23t56.5 23.5t23.5 55.5h196q0 -113 -80.5 -194.5t-195.5 -81.5t-196 81.5t-81 194.5zM221 0v1401h836v-197h-639v-405h577v-197h-577v-405h639v-197h-836z" />
    <glyph glyph-name="uni04D7" unicode="&#x4d7;" 
d="M338 1456h197q0 -33 23.5 -56.5t56 -23.5t56 23.5t23.5 56.5h197q0 -113 -81 -194.5t-195.5 -81.5t-195.5 81.5t-81 194.5zM578 1063h73q158 0 269.5 -111.5t111.5 -269.5v-227h-639v-93q0 -76 53.5 -130t131.5 -54h79q66 0 115 41t66 103l188 -56
q-33 -123 -135.5 -203.5t-233.5 -80.5h-79q-156 0 -268.5 111.5t-112.5 268.5v320q0 158 111.5 269.5t269.5 111.5zM393 633h443v49q0 76 -53.5 130t-131.5 54h-73q-78 0 -131.5 -54t-53.5 -130v-49z" />
    <glyph glyph-name="uni04D8" unicode="&#x4d8;" 
d="M184 1133q31 125 133.5 205.5t235.5 80.5h102q156 0 267.5 -110.5t113.5 -268.5v-678q0 -158 -111.5 -269t-269.5 -111h-98q-158 0 -270.5 111.5t-110.5 268.5v437h664v239q0 76 -54.5 130.5t-130.5 54.5h-102q-66 0 -116 -42t-64 -104zM373 602v-240q-2 -76 52 -130
t132 -54h98q76 0 130.5 54.5t54.5 129.5v240h-467z" />
    <glyph glyph-name="afii10846" unicode="&#x4d9;" 
d="M639 -18h-74q-158 0 -269.5 111.5t-111.5 268.5v228h639v92q0 76 -53 130t-131 54h-80q-66 0 -115 -41t-65 -102l-189 55q33 123 135.5 204t233.5 81h80q156 0 268.5 -111.5t112.5 -269.5v-320q0 -158 -111.5 -269t-269.5 -111zM823 412h-442v-50q0 -76 53 -130t131 -54
h74q78 0 131 54.5t53 129.5v50z" />
    <glyph glyph-name="uni04DA" unicode="&#x4da;" 
d="M326 1542v326h196v-326h-196zM694 1542v326h197v-326h-197zM184 1133q31 125 133.5 205.5t235.5 80.5h102q156 0 267.5 -110.5t113.5 -268.5v-678q0 -158 -111.5 -269t-269.5 -111h-98q-158 0 -270.5 111.5t-110.5 268.5v437h664v239q0 76 -54.5 130.5t-130.5 54.5h-102
q-66 0 -116 -42t-64 -104zM373 602v-240q-2 -76 52 -130t132 -54h98q76 0 130.5 54.5t54.5 129.5v240h-467z" />
    <glyph glyph-name="uni04DB" unicode="&#x4db;" 
d="M317 1186v325h197v-325h-197zM686 1186v325h197v-325h-197zM639 -18h-74q-158 0 -269.5 111.5t-111.5 268.5v228h639v92q0 76 -53 130t-131 54h-80q-66 0 -115 -41t-65 -102l-189 55q33 123 135.5 204t233.5 81h80q156 0 268.5 -111.5t112.5 -269.5v-320
q0 -158 -111.5 -269t-269.5 -111zM823 412h-442v-50q0 -76 53 -130t131 -54h74q78 0 131 54.5t53 129.5v50z" />
    <glyph glyph-name="uni04DC" unicode="&#x4dc;" 
d="M522 1868v-326h-196v326h196zM891 1868v-326h-197v326h197zM1040 442q74 -150 74 -309v-133h-196v133q0 111 -54 223l-121 246h-36v-602h-197v602h-37l-119 -246q-55 -113 -55 -223v-133h-197v133q0 156 76 309l127 265l-121 256q-74 154 -73 307v131h196v-131
q0 -111 55 -223l111 -236h37v590h197v-590h38l111 236q53 111 53 223v131h197v-131q0 -158 -72 -307l-121 -256z" />
    <glyph glyph-name="uni04DD" unicode="&#x4dd;" 
d="M326 1186v325h196v-325h-196zM694 1186v325h197v-325h-197zM102 0v125q0 68 25 136.5t44 98t30 39.5l98 119l-74 88q-51 61 -79.5 139t-32.5 112t-4 56v131h196v-131q0 -96 72 -180l96 -117h37v428h197v-428h36l97 117q72 84 71 180v131h197v-131q0 -23 -4 -56.5
t-33 -111t-80 -139.5l-73 -88l98 -119q10 -10 29.5 -39.5t44 -98t24.5 -136.5v-125h-196v125q0 35 -13.5 73t-25 55t-15.5 21l-121 146h-36v-420h-197v420h-37l-121 -146l-4 -8l-10 -15t-13.5 -23.5t-12.5 -30t-9 -35t-4 -37.5v-125h-197z" />
    <glyph glyph-name="uni04DE" unicode="&#x4de;" 
d="M481 1868v-326h-196v326h196zM850 1868v-326h-197v326h197zM825 717q76 -43 121 -120t45 -167v-68q0 -158 -111.5 -269t-269.5 -111h-102q-133 0 -235.5 80.5t-133.5 205.5l189 56q12 -61 62 -103.5t118 -42.5h102q76 0 130.5 54.5t54.5 129.5v68q0 76 -54.5 130
t-130.5 54h-209v197h197q76 0 130 54.5t54 129.5v43q0 76 -54 130.5t-130 54.5h-90q-68 0 -118 -42t-62 -104l-189 56q31 125 133.5 205.5t235.5 80.5h90q158 0 269.5 -111.5t111.5 -269.5v-43q0 -86 -42 -159.5t-112 -118.5z" />
    <glyph glyph-name="uni04DF" unicode="&#x4df;" 
d="M522 1511v-325h-196v325h196zM891 1511v-325h-197v325h197zM893 530q119 -82 119 -227q0 -133 -94.5 -227t-227.5 -94h-196q-111 0 -197 66.5t-115 168.5l191 57q10 -41 43 -68.5t78 -27.5h196q51 0 88 36t37 89q0 51 -37 88t-88 37h-215v197h207q51 0 86 34.5t35 85.5
q0 49 -35 85t-86 36h-195q-39 0 -71.5 -24.5t-42.5 -61.5l-189 56q29 100 113 163.5t190 63.5h195q133 0 225 -93t92 -225q0 -135 -106 -215z" />
    <glyph glyph-name="uni04E0" unicode="&#x4e0;" 
d="M182 268l189 58q14 -63 64 -105.5t116 -42.5h76q78 0 131 54.5t53 129.5v123q0 76 -53 130.5t-131 54.5h-185v196l289 338h-528v197h784v-197l-287 -334l-10 -10q135 -23 226.5 -128t91.5 -247v-123q0 -158 -112 -269t-269 -111h-76q-133 0 -235.5 80.5t-133.5 205.5z
" />
    <glyph glyph-name="uni04E1" unicode="&#x4e1;" 
d="M182 -88l189 57q14 -63 64 -105t116 -42h76q78 0 131 54t53 130v123q0 76 -53 130t-131 54h-185v197l289 338h-528v196h784v-196l-287 -334l-10 -10q135 -23 226.5 -128.5t91.5 -246.5v-123q0 -158 -112 -269.5t-269 -111.5h-76q-133 0 -235.5 81t-133.5 206z" />
    <glyph glyph-name="uni04E2" unicode="&#x4e2;" 
d="M307 1554v197h602v-197h-602zM1057 1401v-1401h-197v1044l-454 -1044h-246v1401h196v-1045l455 1045h246z" />
    <glyph glyph-name="uni04E3" unicode="&#x4e3;" 
d="M307 1198v197h602v-197h-602zM160 0v1044h196v-753l467 753h234v-1044h-197v754l-465 -754h-235z" />
    <glyph glyph-name="uni04E4" unicode="&#x4e4;" 
d="M326 1542v326h196v-326h-196zM694 1542v326h197v-326h-197zM1057 1401v-1401h-197v1044l-454 -1044h-246v1401h196v-1045l455 1045h246z" />
    <glyph glyph-name="uni04E5" unicode="&#x4e5;" 
d="M326 1186v325h196v-325h-196zM694 1186v325h197v-325h-197zM160 0v1044h196v-753l467 753h234v-1044h-197v754l-465 -754h-235z" />
    <glyph glyph-name="uni04E6" unicode="&#x4e6;" 
d="M326 1542v326h196v-326h-196zM694 1542v326h197v-326h-197zM559 -18q-158 0 -269.5 111.5t-111.5 268.5v676q0 158 111.5 269.5t269.5 111.5h98q158 0 269.5 -111.5t111.5 -269.5v-676q0 -158 -111.5 -269t-269.5 -111h-98zM559 178h98q76 0 130.5 54.5t54.5 129.5v676
q0 76 -54.5 130.5t-130.5 54.5h-98q-76 0 -130 -54.5t-54 -130.5v-676q0 -76 54 -130t130 -54z" />
    <glyph glyph-name="uni04E7" unicode="&#x4e7;" 
d="M326 1186v325h196v-325h-196zM694 1186v325h197v-325h-197zM571 1063h74q158 0 269.5 -111.5t111.5 -269.5v-320q0 -158 -111.5 -269t-269.5 -111h-74q-158 0 -269.5 111.5t-111.5 268.5v320q0 158 111.5 269.5t269.5 111.5zM571 866q-76 0 -130 -54t-54 -130v-320
q0 -76 54.5 -130t129.5 -54h74q76 0 130 54.5t54 129.5v320q0 76 -54 130t-130 54h-74z" />
    <glyph glyph-name="uni04E8" unicode="&#x4e8;" 
d="M657 1419q158 0 269.5 -111.5t111.5 -269.5v-676q0 -158 -111.5 -269t-269.5 -111h-98q-158 0 -269.5 111.5t-111.5 268.5v676q0 158 111.5 269.5t269.5 111.5h98zM559 1223q-76 0 -130 -54.5t-54 -130.5v-239h467v239q0 76 -54.5 130.5t-130.5 54.5h-98zM657 178
q76 0 130.5 54.5t54.5 129.5v240h-467v-240q0 -76 54 -130t130 -54h98z" />
    <glyph glyph-name="uni04E9" unicode="&#x4e9;" 
d="M645 1063q158 0 269.5 -111.5t111.5 -269.5v-320q0 -158 -111.5 -269t-269.5 -111h-74q-158 0 -269.5 111.5t-111.5 268.5v320q0 158 112 269.5t269 111.5h74zM571 866q-76 0 -130 -54t-54 -130v-61h442v61q0 76 -54 130t-130 54h-74zM645 178q76 0 130 54.5t54 129.5v62
h-442v-62q0 -76 54.5 -130t129.5 -54h74z" />
    <glyph glyph-name="uni04EA" unicode="&#x4ea;" 
d="M522 1868v-326h-196v326h196zM891 1868v-326h-197v326h197zM657 1419q158 0 269.5 -111.5t111.5 -269.5v-676q0 -158 -111.5 -269t-269.5 -111h-98q-158 0 -269.5 111.5t-111.5 268.5v676q0 158 111.5 269.5t269.5 111.5h98zM559 1223q-76 0 -130 -54.5t-54 -130.5v-239
h467v239q0 76 -54.5 130.5t-130.5 54.5h-98zM657 178q76 0 130.5 54.5t54.5 129.5v240h-467v-240q0 -76 54 -130t130 -54h98z" />
    <glyph glyph-name="uni04EB" unicode="&#x4eb;" 
d="M522 1511v-325h-196v325h196zM891 1511v-325h-197v325h197zM645 1063q158 0 269.5 -111.5t111.5 -269.5v-320q0 -158 -111.5 -269t-269.5 -111h-74q-158 0 -269.5 111.5t-111.5 268.5v320q0 158 112 269.5t269 111.5h74zM571 866q-76 0 -130 -54t-54 -130v-61h442v61
q0 76 -54 130t-130 54h-74zM645 178q76 0 130 54.5t54 129.5v62h-442v-62q0 -76 54.5 -130t129.5 -54h74z" />
    <glyph glyph-name="uni04EC" unicode="&#x4ec;" 
d="M506 1868v-326h-197v326h197zM874 1868v-326h-196v326h196zM641 1419q158 0 269.5 -111.5t111.5 -269.5v-676q0 -158 -111.5 -269t-269.5 -111h-98q-131 0 -233.5 80.5t-135.5 205.5l188 58q14 -63 64.5 -105.5t116.5 -42.5h98q76 0 130 54.5t54 129.5v240h-426v197h426
v239q0 76 -54 130.5t-130 54.5h-98q-66 0 -116 -42t-65 -104l-188 56q33 125 135.5 205.5t233.5 80.5h98z" />
    <glyph glyph-name="uni04ED" unicode="&#x4ed;" 
d="M502 1511v-325h-197v325h197zM870 1511v-325h-196v325h196zM627 1063q158 0 269.5 -111.5t111.5 -269.5v-320q0 -158 -113 -269t-268 -111h-78q-133 0 -235.5 80.5t-133.5 205.5l189 58q14 -63 64 -105.5t116 -42.5h78q76 0 130 54.5t54 129.5v68h-385v197h385v55
q0 76 -53 130t-131 54h-78q-66 0 -116 -41t-64 -104l-189 55q31 125 133.5 206t235.5 81h78z" />
    <glyph glyph-name="uni04EE" unicode="&#x4ee;" 
d="M307 1554v197h602v-197h-602zM188 0v197h179q53 0 84 55l51 117l-266 600q-70 156 -70 303v129h196v-129q0 -109 52 -223l194 -439l195 439q51 115 51 223v129h197v-129q0 -147 -70 -303l-348 -791q-37 -80 -106.5 -129t-159.5 -49h-179z" />
    <glyph glyph-name="uni04EF" unicode="&#x4ef;" 
d="M307 1198v197h602v-197h-602zM164 1044h196v-131q0 -102 54 -202l198 -363l199 363q53 96 53 202v131h197v-131q0 -156 -78 -299l-448 -819q-37 -63 -106 -107t-153 -44h-172v196h172q35 0 57.5 19.5t28.5 34.5l138 251l-258 469q-78 143 -78 299v131z" />
    <glyph glyph-name="uni04F0" unicode="&#x4f0;" 
d="M326 1542v326h196v-326h-196zM694 1542v326h197v-326h-197zM188 0v197h179q53 0 84 55l51 117l-266 600q-70 156 -70 303v129h196v-129q0 -109 52 -223l194 -439l195 439q51 115 51 223v129h197v-129q0 -147 -70 -303l-348 -791q-37 -80 -106.5 -129t-159.5 -49h-179z
" />
    <glyph glyph-name="uni04F1" unicode="&#x4f1;" 
d="M326 1186v325h196v-325h-196zM694 1186v325h197v-325h-197zM164 1044h196v-131q0 -102 54 -202l198 -363l199 363q53 96 53 202v131h197v-131q0 -156 -78 -299l-448 -819q-37 -63 -106 -107t-153 -44h-172v196h172q35 0 57.5 19.5t28.5 34.5l138 251l-258 469
q-78 143 -78 299v131z" />
    <glyph glyph-name="uni04F2" unicode="&#x4f2;" 
d="M430 1511l-139 142l297 297l141 -140zM852 1511l-139 142l297 297l141 -140zM188 0v197h179q53 0 84 55l51 117l-266 600q-70 156 -70 303v129h196v-129q0 -109 52 -223l194 -439l195 439q51 115 51 223v129h197v-129q0 -147 -70 -303l-348 -791q-37 -80 -106.5 -129
t-159.5 -49h-179z" />
    <glyph glyph-name="uni04F3" unicode="&#x4f3;" 
d="M430 1155l-139 141l297 297l141 -139zM852 1155l-139 141l297 297l141 -139zM164 1044h196v-131q0 -102 54 -202l198 -363l199 363q53 96 53 202v131h197v-131q0 -156 -78 -299l-448 -819q-37 -63 -106 -107t-153 -44h-172v196h172q35 0 57.5 19.5t28.5 34.5l138 251
l-258 469q-78 143 -78 299v131z" />
    <glyph glyph-name="uni04F4" unicode="&#x4f4;" 
d="M522 1868v-326h-196v326h196zM891 1868v-326h-197v326h197zM1004 1401v-1401h-197v582q-100 -84 -234 -84h-24q-158 0 -269.5 111.5t-111.5 269.5v522h197v-522q0 -76 54 -130.5t130 -54.5h74q76 0 130 54.5t54 130.5v522h197z" />
    <glyph glyph-name="uni04F5" unicode="&#x4f5;" 
d="M522 1511v-325h-196v325h196zM891 1511v-325h-197v325h197zM1008 1044v-1044h-197v410q-100 -84 -233 -84h-25q-158 0 -269.5 111.5t-111.5 269.5v337h197v-337q0 -76 54 -130.5t130 -54.5h74q76 0 130 54.5t54 130.5v337h197z" />
    <glyph glyph-name="uni04F6" unicode="&#x4f6;" 
d="M1057 1204h-621v-1007h115v-553h-197v356h-114v1401h817v-197z" />
    <glyph glyph-name="uni04F7" unicode="&#x4f7;" 
d="M1044 848h-608v-651h115v-553h-197v356h-114v1044h804v-196z" />
    <glyph glyph-name="uni04F8" unicode="&#x4f8;" 
d="M326 1542v326h196v-326h-196zM694 1542v326h197v-326h-197zM145 1401h197v-514h33q158 0 269.5 -111.5t111.5 -269.5v-125q0 -158 -112 -269.5t-269 -111.5h-230v1401zM874 1401h197v-1401h-197v1401zM342 690v-493h33q76 0 130 53t54 131v125q0 76 -54 130t-130 54h-33z
" />
    <glyph glyph-name="uni04F9" unicode="&#x4f9;" 
d="M326 1186v325h196v-325h-196zM694 1186v325h197v-325h-197zM141 0v1044h197v-389h92q137 0 232.5 -96t95.5 -231q0 -137 -95.5 -232.5t-232.5 -95.5h-289zM879 0v1044h196v-1044h-196zM338 197h92q55 0 93 37.5t38 93.5q0 53 -38 92t-93 39h-92v-262z" />
    <glyph glyph-name="uni0510" unicode="&#x510;" 
d="M709 178q68 0 118 42t62 104l188 -56q-31 -125 -133 -205.5t-235 -80.5h-103q-158 0 -269.5 111.5t-111.5 268.5v68q0 90 45 167t121 120q-70 45 -111.5 118.5t-41.5 159.5v43q0 158 111.5 269.5t268.5 111.5h91q133 0 235.5 -81t132.5 -205l-188 -56q-12 61 -62.5 103.5
t-117.5 42.5h-91q-76 0 -130 -54.5t-54 -130.5v-43q0 -76 54.5 -130t129.5 -54h197v-197h-209q-76 0 -130 -54t-54 -130v-68q0 -76 54 -130t130 -54h103z" />
    <glyph glyph-name="uni0511" unicode="&#x511;" 
d="M844 274l190 -57q-29 -102 -114.5 -168.5t-196.5 -66.5h-197q-133 0 -227 94t-94 227q0 145 119 227q-106 80 -107 215q0 131 92 224.5t226 93.5h194q106 0 190.5 -63.5t112.5 -163.5l-188 -56q-10 37 -43 61.5t-72 24.5h-194q-51 0 -86 -35.5t-35 -85.5
q0 -51 34.5 -85.5t86.5 -34.5h206v-197h-215q-51 0 -88 -37t-37 -88q0 -53 37 -89t88 -36h197q45 0 78 27.5t43 68.5z" />
    <glyph glyph-name="uni051C" unicode="&#x51c;" 
d="M113 1401h196v-275q0 -115 21 -252l84 -548l98 553h197l96 -547l82 542q20 123 20 254v273h197v-275q0 -143 -21 -284l-135 -842h-221l-117 614l-118 -614h-224l-133 842q-23 141 -22 284v275z" />
    <glyph glyph-name="uni051D" unicode="&#x51d;" 
d="M111 913v131h196v-131q0 -115 29 -241l72 -355l114 549h174l113 -549l74 355q27 129 26 241v131h197v-131q0 -145 -31 -284l-139 -629h-205l-123 586l-121 -586h-204l-140 629q-32 139 -32 284z" />
    <glyph glyph-name="uni0524" unicode="&#x524;" 
d="M1026 197h115v-553h-197v356h-115v1204h-442v-1204h-197v1401h836v-1204z" />
    <glyph glyph-name="uni0525" unicode="&#x525;" 
d="M1026 197h115v-553h-197v356h-115v848h-442v-848h-197v1044h836v-847z" />
    <glyph glyph-name="uni0526" unicode="&#x526;" 
d="M1049 197h114v-553h-196v356h-115v522q0 76 -54.5 130.5t-129.5 54.5h-74q-76 0 -130 -54.5t-54 -130.5v-522h-197v1401h197v-582q100 84 233 84h25q158 0 269.5 -111.5t111.5 -269.5v-325z" />
    <glyph glyph-name="uni0527" unicode="&#x527;" 
d="M1032 197h115v-553h-197v356h-114v682q0 76 -53.5 130t-131.5 54h-73q-76 0 -130.5 -54t-54.5 -130v-682h-196v1401h196v-422q100 84 234 84h24q158 0 269.5 -111.5t111.5 -269.5v-485z" />
    <glyph glyph-name="uni0E3F" unicode="&#xe3f;" 
d="M899 717q76 -43 120 -120t44 -167v-49q0 -150 -102.5 -259.5t-249.5 -119.5v-180h-197v178h-299v1401h299v178h197v-180q145 -16 242.5 -124t97.5 -255v-25q0 -180 -152 -278zM670 1204h-258v-393h258q76 0 130 54.5t54 129.5v25q0 78 -54 131t-130 53zM866 381v49
q0 78 -54 131t-130 53h-270v-417h270q76 0 130 54t54 130z" />
    <glyph glyph-name="uni1D6B" unicode="&#x1d6b;" horiz-adv-x="1228" 
d="M1157 428h-430v-133q0 -47 35 -82t82 -35q41 0 72.5 25.5t41.5 62.5l189 -55q-29 -100 -113 -164.5t-190 -64.5q-131 0 -215 106q-80 -106 -215 -106q-129 0 -221.5 92t-92.5 221v749h197v-749q0 -47 35 -82t82 -35q49 0 82.5 35t33.5 82v749h197v-18q53 37 117 37
q131 0 222 -91t91 -222v-322zM844 866q-47 0 -82 -33.5t-35 -82.5v-144h234v144q0 49 -34 82.5t-83 33.5z" />
    <glyph glyph-name="uni1E04" unicode="&#x1e04;" 
d="M899 717q76 -43 120 -120t44 -167v-49q0 -158 -111.5 -269.5t-269.5 -111.5h-467v1401h455q158 0 269.5 -111.5t111.5 -269.5v-25q0 -180 -152 -278zM670 1204h-258v-393h258q76 0 130 54.5t54 129.5v25q0 78 -54 131t-130 53zM866 381v49q0 78 -54 131t-130 53h-270
v-417h270q76 0 130 54t54 130zM504 -467v326h196v-326h-196z" />
    <glyph glyph-name="uni1E05" unicode="&#x1e05;" 
d="M657 1063q158 0 269.5 -111.5t111.5 -269.5v-320q0 -158 -111.5 -269t-269.5 -111h-24q-133 0 -234 84v-66h-196v1401h196v-422q100 84 234 84h24zM842 362v320q0 76 -54.5 130t-130.5 54h-73q-76 0 -130.5 -54t-54.5 -130v-320q0 -76 54.5 -130t130.5 -54h73
q76 0 130.5 54t54.5 130zM520 -467v326h197v-326h-197z" />
    <glyph glyph-name="uni1E0C" unicode="&#x1e0c;" 
d="M203 0v1401h454q158 0 269.5 -111.5t111.5 -269.5v-639q0 -158 -111.5 -269.5t-269.5 -111.5h-454zM399 197h258q76 0 130.5 53t54.5 131v639q0 78 -54.5 131t-130.5 53h-258v-1007zM502 -467v326h196v-326h-196z" />
    <glyph glyph-name="uni1E0D" unicode="&#x1e0d;" 
d="M817 1401h197v-1401h-197v66q-100 -84 -233 -84h-25q-158 0 -269.5 111.5t-111.5 268.5v320q0 158 111.5 269.5t269.5 111.5h25q133 0 233 -84v422zM633 178q76 0 130 54.5t54 129.5v320q0 76 -54 130t-130 54h-74q-76 0 -130 -54t-54 -130v-320q0 -76 54 -130t130 -54
h74zM498 -467v326h196v-326h-196z" />
    <glyph glyph-name="uni1E0E" unicode="&#x1e0e;" 
d="M203 0v1401h454q158 0 269.5 -111.5t111.5 -269.5v-639q0 -158 -111.5 -269.5t-269.5 -111.5h-454zM399 197h258q76 0 130.5 53t54.5 131v639q0 78 -54.5 131t-130.5 53h-258v-1007zM299 -350v196h602v-196h-602z" />
    <glyph glyph-name="uni1E0F" unicode="&#x1e0f;" 
d="M817 1401h197v-1401h-197v66q-100 -84 -233 -84h-25q-158 0 -269.5 111.5t-111.5 268.5v320q0 158 111.5 269.5t269.5 111.5h25q133 0 233 -84v422zM633 178q76 0 130 54.5t54 129.5v320q0 76 -54 130t-130 54h-74q-76 0 -130 -54t-54 -130v-320q0 -76 54 -130t130 -54
h74zM295 -350v196h602v-196h-602z" />
    </font>
</defs>
</svg>
