<?xml version="1.0" standalone="no"?>
<!DOCTYPE svg PUBLIC "-//W3C//DTD SVG 1.1//EN" "http://www.w3.org/Graphics/SVG/1.1/DTD/svg11.dtd" >
<svg xmlns="http://www.w3.org/2000/svg" xmlns:xlink="http://www.w3.org/1999/xlink" version="1.1">
<metadata>
Created by FontForge 20170731 at Wed Jun 28 20:11:19 2017
 By Aleksey,,,
Copyright (c) 2015 by Bold Studio. All rights reserved.
</metadata>
<defs>
<font id="BBRollerMonoProST-Thin" horiz-adv-x="1216" >
  <font-face 
    font-family="BB Roller Mono Pro ST Th"
    font-weight="200"
    font-stretch="normal"
    units-per-em="2048"
    panose-1="0 0 3 0 0 0 0 0 0 0"
    ascent="1638"
    descent="-410"
    x-height="1044"
    cap-height="1401"
    bbox="-47 -1237 2355 2171"
    underline-thickness="0"
    underline-position="0"
    unicode-range="U+0009-1F6E1"
  />
<missing-glyph 
d="M68 698q0 223 159.5 383t380.5 160q223 0 382 -159.5t159 -383t-159 -381t-382 -157.5q-221 0 -380.5 158.5t-159.5 379.5z" />
    <glyph glyph-name="uniFB01" unicode="fi" 
d="M94 903v49h225v125q0 143 99.5 242.5t243.5 99.5q119 0 211 -72.5t120 -187.5l-47 -12q-23 96 -102.5 159.5t-181.5 63.5q-123 0 -208 -86t-85 -207v-125h624v-952h-49v903h-575v-903h-50v903h-225z" />
    <glyph glyph-name="uniFB02" unicode="fl" 
d="M1120 49h27v-49h-27q-78 0 -134 55.5t-56 134.5v689h-586v-879h-49v879h-225v49h225v149q0 143 99.5 242.5t242.5 99.5t242.5 -99t99.5 -243v-887q0 -59 41 -100t100 -41zM344 928h586v149q0 121 -85 207t-208 86t-208 -86t-85 -207v-149z" />
    <glyph glyph-name=".notdef" 
d="M68 698q0 223 159.5 383t380.5 160q223 0 382 -159.5t159 -383t-159 -381t-382 -157.5q-221 0 -380.5 158.5t-159.5 379.5z" />
    <glyph glyph-name="glyph1" horiz-adv-x="0" 
 />
    <glyph glyph-name="glyph2" horiz-adv-x="681" 
 />
    <glyph glyph-name="uni0009" unicode="&#x9;" 
 />
    <glyph glyph-name="space" unicode=" " 
 />
    <glyph glyph-name="exclam" unicode="!" 
d="M584 473v928h49v-928h-49zM584 0v274h49v-274h-49z" />
    <glyph glyph-name="quotedbl" unicode="&#x22;" 
d="M475 899v502h47v-502h-47zM694 899v502h47v-502h-47z" />
    <glyph glyph-name="numbersign" unicode="#" 
d="M49 406v49h283v491h-283v49h283v406h49v-406h467v406h49v-406h270v-49h-270v-491h270v-49h-270v-406h-49v406h-467v-406h-49v406h-283zM381 455h467v491h-467v-491z" />
    <glyph glyph-name="dollar" unicode="$" 
d="M727 694q270 -104 270 -370q0 -141 -100 -241.5t-242 -100.5h-51v-152h-49v152h-35q-119 0 -211 72.5t-121 183.5l48 14q23 -96 102.5 -158.5t181.5 -62.5h135q121 0 207 86t86 207q0 233 -239 325l-207 80q-139 51 -213 133t-74 215q0 143 99.5 242.5t242.5 99.5h29v168
h49v-168h14q119 0 211 -71.5t121 -184.5l-47 -14q-25 96 -103.5 158.5t-181.5 62.5h-92q-123 0 -208 -86t-85 -207q0 -111 61.5 -181.5t194.5 -121.5z" />
    <glyph glyph-name="percent" unicode="%" 
d="M362 915q-102 0 -176.5 75t-74.5 177q0 104 74.5 178t176.5 74q104 0 178 -73.5t74 -178.5q0 -102 -74 -177t-178 -75zM240 0v125q0 18 2 38.5t6 38t10 34t12 31t11.5 25.5t11.5 21.5l10 17.5t8 11l2 4l531 692q84 111 84 234v129h49v-129q0 -139 -94 -262l-531 -695
q-63 -86 -63 -190v-125h-49zM362.5 965q83.5 0 143 59t59.5 143t-59.5 143.5t-143 59.5t-143 -59.5t-59.5 -143.5q0 -82 59.5 -142t143 -60zM854 -18q-102 0 -177 74.5t-75 176.5q0 104 75 178t177 74q104 0 178 -73.5t74 -178.5q0 -102 -74 -176.5t-178 -74.5zM854 31
q84 0 143.5 59.5t59.5 143t-59.5 143t-143.5 59.5t-143.5 -59.5t-59.5 -143.5q0 -82 59.5 -142t143.5 -60z" />
    <glyph glyph-name="ampersand" unicode="&#x26;" 
d="M1202 143l47 -14q-16 -63 -70.5 -105t-121.5 -42q-82 0 -141.5 58t-59.5 142v520h-358q-121 0 -207 -86t-86 -206v-68q0 -121 86 -207t207 -86h80v-49h-80q-143 0 -242.5 100.5t-99.5 241.5v68q0 117 70.5 206t179.5 117q-94 37 -153.5 122t-59.5 189v33q0 143 99 242.5
t243 99.5h28q141 0 241.5 -99t100.5 -243v-325h230v-41h-9v-9h-221v-520q0 -63 44 -107t108 -44q51 0 92 31.5t53 80.5zM242 1044q0 -121 85 -206.5t208 -85.5h321v325q0 121 -86 207t-207 86h-28q-123 0 -208 -86t-85 -207v-33z" />
    <glyph glyph-name="quotesingle" unicode="'" 
d="M584 899v502h47v-502h-47z" />
    <glyph glyph-name="parenleft" unicode="(" 
d="M485 96v1012q0 121 87 207t206 86h111v-49h-111q-100 0 -171.5 -72t-71.5 -172v-1012q0 -100 71.5 -171.5t171.5 -71.5h111v-50h-111q-121 0 -207 86t-86 207z" />
    <glyph glyph-name="parenright" unicode=")" 
d="M731 96q0 -121 -86 -207t-207 -86h-110v50h110q100 0 172 71.5t72 171.5v1012q0 100 -71.5 172t-172.5 72h-110v49h110q119 0 206 -86t87 -207v-1012z" />
    <glyph glyph-name="asterisk" unicode="*" 
d="M584 1401h49v-350l334 106l16 -47l-334 -109l205 -284l-39 -27l-207 285l-207 -285l-39 27l207 284l-336 109l17 47l334 -106v350z" />
    <glyph glyph-name="plus" unicode="+" 
d="M209 567v49h375v375h49v-375h375v-49h-375v-374h-49v374h-375z" />
    <glyph glyph-name="comma" unicode="," 
d="M463 49h244v-53q0 -106 -61.5 -190.5t-158.5 -120.5l-14 47q82 31 133 104.5t51 163.5h-194v49z" />
    <glyph glyph-name="hyphen" unicode="-" 
d="M920 616v-49h-623v49h623z" />
    <glyph glyph-name="period" unicode="." 
d="M584 0v258h49v-258h-49z" />
    <glyph glyph-name="slash" unicode="/" 
d="M240 0v125q0 18 2 38.5t6 38t10 34t12 31t11.5 25.5t11.5 21.5l10 17.5t8 11l2 4l531 692q84 111 84 234v129h49v-129q0 -139 -94 -262l-531 -695q-63 -86 -63 -190v-125h-49z" />
    <glyph glyph-name="zero" unicode="0" 
d="M659 1419q141 0 241.5 -99t100.5 -243v-753q0 -141 -100 -241.5t-242 -100.5h-98q-143 0 -243.5 100t-100.5 242v753q0 143 100.5 242.5t243.5 99.5h98zM561 1370q-123 0 -209 -86t-86 -207v-684l686 686q-2 121 -87 206t-206 85h-98zM659 31q121 0 207 86t86 207v686
l-686 -686q0 -121 86 -207t209 -86h98z" />
    <glyph glyph-name="one" unicode="1" 
d="M266 1026l375 375h49v-1352h342v-49h-758v49h367v1282l-340 -340z" />
    <glyph glyph-name="two" unicode="2" 
d="M264 1159q29 113 121 186.5t211 73.5h74q141 0 241.5 -100t100.5 -242q0 -231 -277 -387l-172 -98q-158 -84 -209 -175t-51 -253v-115h709v-49h-758v164q0 178 62.5 280.5t224.5 192.5l168 96q254 135 254 344q0 121 -86 207t-207 86h-74q-102 0 -182 -63.5t-103 -159.5z
" />
    <glyph glyph-name="three" unicode="3" 
d="M221 242l47 12q23 -96 103 -159.5t182 -63.5h74q121 0 207 86t86 207v139q0 121 -86 207t-207 86h-160v49l420 547h-645v49h708v-49l-420 -547h105q137 -2 235.5 -102.5t98.5 -239.5v-139q0 -141 -100.5 -241.5t-241.5 -100.5h-74q-119 0 -211 72.5t-121 187.5z" />
    <glyph glyph-name="four" unicode="4" 
d="M268 393v207q0 145 70 272l293 531l43 -25l-293 -530q-63 -119 -64 -248v-158h566v402h49v-842h-49v391h-615z" />
    <glyph glyph-name="five" unicode="5" 
d="M639 883q141 0 241.5 -100.5t100.5 -241.5v-217q0 -143 -100.5 -242.5t-241.5 -99.5h-76q-119 0 -211 72.5t-121 187.5l48 12q25 -96 103.5 -159.5t180.5 -63.5h76q121 0 207 86t86 207v217q0 121 -86 207t-207 86h-51q-104 0 -184 -64.5t-103 -163.5l-37 10l-14 5v780
h692v-49h-643v-645q45 80 125 128t174 48h41z" />
    <glyph glyph-name="six" unicode="6" 
d="M651 883q141 0 241.5 -99.5t100.5 -242.5v-217q0 -141 -100 -241.5t-242 -100.5h-73q-143 0 -242.5 100t-99.5 242v753q0 143 99 242.5t243 99.5h73q119 0 211 -72.5t121 -187.5l-47 -12q-23 96 -102.5 159.5t-182.5 63.5h-73q-123 0 -208 -86t-85 -207v-377
q43 84 123.5 133.5t179.5 49.5h63zM944 324v217q0 121 -86 207t-207 86h-73q-123 0 -208 -86t-85 -207v-217q0 -121 85 -207t208 -86h73q121 0 207 86t86 207z" />
    <glyph glyph-name="seven" unicode="7" 
d="M209 1092v309h749v-129q0 -133 -71 -262l-285 -494q-2 0 -17.5 -32.5t-31.5 -94t-16 -121.5v-268h-50v268q0 29 4.5 59.5t10.5 56.5t13 50.5t14.5 44t13.5 32.5t10 21l4 9l287 491q14 25 25.5 53.5t17.5 52t11 47t7 39t4 29.5v13v86h-651v-260h-49z" />
    <glyph glyph-name="eight" unicode="8" 
d="M745 733q113 -33 180.5 -119t67.5 -200v-90q0 -143 -100 -242.5t-242 -99.5h-86q-143 0 -242.5 99t-99.5 243v92q0 113 67.5 202t172.5 119q-100 37 -160.5 122t-60.5 194v24q0 141 99 241.5t243 100.5h49q141 0 241.5 -100t100.5 -242v-26q0 -109 -65 -196t-165 -122z
M291 1053q0 -121 82 -202t207 -89l57 -8q121 2 205 88t84 207v28q0 121 -86 207t-207 86h-49q-121 0 -207 -86t-86 -207v-24zM944 324v90q0 115 -78 194.5t-213 93.5l-73 11h-15q-123 0 -208 -86t-85 -207v-96q0 -121 85 -207t208 -86h86q121 0 207 86t86 207z" />
    <glyph glyph-name="nine" unicode="9" 
d="M639 1419q143 0 242.5 -100t99.5 -242v-753q0 -143 -99.5 -242.5t-242.5 -99.5h-74q-119 0 -211 72.5t-121 187.5l48 12q23 -96 102.5 -159.5t181.5 -63.5h74q123 0 208 86t85 207v376q-43 -84 -124 -133t-179 -49h-64q-141 0 -241.5 99.5t-100.5 242.5v217
q0 141 100.5 241.5t241.5 100.5h74zM639 567q123 0 208 86t85 207v217q0 121 -85 207t-208 86h-74q-121 0 -207 -86t-86 -207v-217q0 -121 86 -207t207 -86h74z" />
    <glyph glyph-name="colon" unicode=":" 
d="M584 645v258h49v-258h-49zM584 0v258h49v-258h-49z" />
    <glyph glyph-name="semicolon" unicode=";" 
d="M584 627v270h49v-270h-49zM463 49h244v-53q0 -106 -61.5 -190.5t-158.5 -120.5l-14 47q82 31 133 104.5t51 163.5h-194v49z" />
    <glyph glyph-name="less" unicode="&#x3c;" 
d="M969 297l-19 -45l-753 303v70l753 303l19 -45l-723 -293z" />
    <glyph glyph-name="equal" unicode="=" 
d="M209 735v49h799v-49h-799zM1008 449v-50h-799v50h799z" />
    <glyph glyph-name="greater" unicode="&#x3e;" 
d="M201 297l723 293l-723 293l18 45l754 -303v-70l-754 -303z" />
    <glyph glyph-name="question" unicode="?" 
d="M209 1137q29 113 121 184.5t211 71.5h80q141 0 241.5 -99.5t100.5 -242.5q0 -195 -183 -303q-178 -111 -178 -238v-37h-49v37q0 74 54.5 147.5t148.5 130.5q158 98 157 263q0 123 -86 207.5t-206 84.5h-80q-102 0 -181 -62t-104 -159zM553 0v274h49v-274h-49z" />
    <glyph glyph-name="at" unicode="@" 
d="M662 1233q145 0 248.5 -103.5t103.5 -248.5v-682q0 -88 -64.5 -152.5t-152.5 -64.5q-68 0 -121 36.5t-76 98.5q-23 -61 -76 -98t-121 -37q-88 0 -152.5 64.5t-64.5 152.5v338q0 90 63.5 153.5t153.5 63.5q121 0 177 -107v90h41v-538q0 -72 52 -124t123.5 -52t124 52
t52.5 124v682q0 129 -91 220t-220 91h-134q-109 0 -193.5 -67.5t-107.5 -172.5l-41 13q29 117 124.5 192.5t217.5 75.5h134zM580 199v338q0 72 -52.5 124t-124 52t-124 -52.5t-52.5 -123.5v-338q0 -72 52.5 -124t124 -52t124 52t52.5 124z" />
    <glyph glyph-name="A" unicode="A" 
d="M977 553q35 -129 35 -281v-272h-49v272q0 55 -7 111h-696q-6 -55 -6 -111v-272h-49v272q0 141 35 281l200 737q14 55 61.5 92t106.5 37q61 0 107.5 -36.5t60.5 -92.5zM266 432h684q-12 76 -22 107l-199 737q-10 41 -43 67.5t-78 26.5t-77.5 -26.5t-43.5 -67.5l-198 -737
q-11 -31 -23 -107z" />
    <glyph glyph-name="B" unicode="B" 
d="M788 715q102 -31 169 -119t67 -201v-53q0 -141 -100.5 -241.5t-241.5 -100.5h-428v1401h416q141 0 241.5 -99.5t100.5 -242.5v-29q0 -109 -63 -194.5t-161 -120.5zM670 1352h-367v-615h367q121 0 207 86t86 207v29q0 121 -86 207t-207 86zM975 342v53q0 121 -86 207
t-207 86h-379v-639h379q121 0 207 86t86 207z" />
    <glyph glyph-name="C" unicode="C" 
d="M1008 1163l-47 -14q-25 96 -104 158.5t-181 62.5h-98q-121 0 -207 -86t-86 -207v-753q0 -121 86 -207t207 -86h98q102 0 181 62.5t104 158.5l47 -14q-29 -113 -121 -184.5t-211 -71.5h-98q-143 0 -242.5 99t-99.5 243v753q0 141 99 241.5t243 100.5h98q119 0 211 -72.5
t121 -183.5z" />
    <glyph glyph-name="D" unicode="D" 
d="M238 0v1401h421q143 0 244 -99.5t101 -242.5v-717q0 -143 -100.5 -242.5t-244.5 -99.5h-421zM287 49h372q123 0 209 86t86 207v717q0 121 -86 207t-209 86h-372v-1303z" />
    <glyph glyph-name="E" unicode="E" 
d="M256 0v1401h766v-49h-717v-627h651v-49h-651v-627h717v-49h-766z" />
    <glyph glyph-name="F" unicode="F" 
d="M303 0v1401h758v-49h-709v-643h647v-50h-647v-659h-49z" />
    <glyph glyph-name="G" unicode="G" 
d="M995 1163l-47 -14q-25 96 -103.5 158.5t-180.5 62.5h-99q-121 0 -207 -86t-86 -207v-753q0 -121 86 -207t207 -86h99q121 0 206.5 86t85.5 207v352h-321v49h371v-401q0 -141 -100.5 -241.5t-241.5 -100.5h-99q-141 0 -241.5 100t-100.5 242v753q0 141 100.5 241.5
t241.5 100.5h99q119 0 210.5 -72.5t120.5 -183.5z" />
    <glyph glyph-name="H" unicode="H" 
d="M938 1401h49v-1401h-49v676h-659v-676h-50v1401h50v-676h659v676z" />
    <glyph glyph-name="I" unicode="I" 
d="M229 49h355v1303h-351v49h750v-49h-350v-1303h354v-49h-758v49z" />
    <glyph glyph-name="J" unicode="J" 
d="M254 1401h702v-1077q0 -141 -100 -241.5t-242 -100.5h-69q-119 0 -211 72.5t-121 183.5l47 14q23 -96 102.5 -158.5t182.5 -62.5h69q121 0 207 86t86 207v1028h-653v49z" />
    <glyph glyph-name="K" unicode="K" 
d="M242 1401h49v-670h266l307 338q27 31 54.5 89.5t27.5 113.5v129h49v-129q0 -59 -31.5 -130t-62.5 -106l-303 -329l322 -342q31 -33 62.5 -105t31.5 -131v-129h-49v129q0 57 -29 116.5t-53 86.5l-328 350h-264v-682h-49v1401z" />
    <glyph glyph-name="L" unicode="L" 
d="M279 1401h49v-1352h690v-49h-739v1401z" />
    <glyph glyph-name="M" unicode="M" 
d="M190 0v1401h66l352 -895l353 895h65v-1401h-49v1311l-342 -869h-53l-342 869v-1311h-50z" />
    <glyph glyph-name="N" unicode="N" 
d="M211 1401h61l684 -1315v1315h50v-1401h-62l-684 1315v-1315h-49v1401z" />
    <glyph glyph-name="O" unicode="O" 
d="M559 -18q-141 0 -241.5 100t-100.5 242v753q0 141 100.5 241.5t241.5 100.5h98q143 0 242.5 -100t99.5 -242v-753q0 -141 -99 -241.5t-243 -100.5h-98zM559 31h98q123 0 208 86t85 207v753q0 121 -85 207t-208 86h-98q-121 0 -207 -86t-86 -207v-753q0 -121 86 -207
t207 -86z" />
    <glyph glyph-name="P" unicode="P" 
d="M279 0v1401h415q141 0 241.5 -99.5t100.5 -242.5v-127q0 -141 -100 -241.5t-242 -100.5h-366v-590h-49zM328 639h366q121 0 207 86t86 207v127q0 121 -86 207t-207 86h-366v-713z" />
    <glyph glyph-name="Q" unicode="Q" 
d="M657 1419q143 0 242.5 -100t99.5 -242v-753q0 -141 -99 -241.5t-243 -100.5h-24v-338h-49v338h-25q-141 0 -241.5 100t-100.5 242v753q0 141 100.5 241.5t241.5 100.5h98zM950 324v753q0 121 -85 207t-208 86h-98q-121 0 -207 -86t-86 -207v-753q0 -121 86 -207t207 -86
h98q123 0 208 86t85 207z" />
    <glyph glyph-name="R" unicode="R" 
d="M922 365q31 -31 62.5 -94.5t31.5 -141.5v-129h-49v129q0 47 -18.5 94t-35 71.5t-28.5 37.5l-262 282h-326v-614h-49v1401h416q143 0 242.5 -100.5t99.5 -241.5v-103q0 -135 -92.5 -234t-227.5 -108zM297 1352v-688h367q123 0 207.5 86t84.5 206v103q0 121 -85 207
t-207 86h-367z" />
    <glyph glyph-name="S" unicode="S" 
d="M188 238l48 14q23 -96 102.5 -158.5t181.5 -62.5h135q121 0 207 86t86 207q0 233 -239 325l-207 80q-139 51 -213 133t-74 215q0 143 99.5 242.5t242.5 99.5h92q119 0 211 -71.5t121 -184.5l-47 -14q-25 96 -103.5 158.5t-181.5 62.5h-92q-123 0 -208 -86t-85 -207
q0 -111 61.5 -181.5t194.5 -121.5l207 -80q270 -104 270 -370q0 -141 -100 -241.5t-242 -100.5h-135q-119 0 -211 72.5t-121 183.5z" />
    <glyph glyph-name="T" unicode="T" 
d="M186 1401h844v-49h-397v-1352h-49v1352h-398v49z" />
    <glyph glyph-name="U" unicode="U" 
d="M219 1401h49v-1077q0 -121 86 -207t207 -86h98q121 0 207 86t86 207v1077h49v-1077q0 -141 -99 -241.5t-243 -100.5h-98q-141 0 -241.5 100t-100.5 242v1077z" />
    <glyph glyph-name="V" unicode="V" 
d="M205 1401h49v-275q0 -131 47 -260l307 -809q266 702 307 809q47 123 48 260v275h49v-275q0 -145 -49 -276l-324 -850h-61l-322 850q-51 131 -51 276v275z" />
    <glyph glyph-name="W" unicode="W" 
d="M158 1401h49v-275q0 -125 26 -264l162 -790l185 762h59l184 -760l160 788q27 139 27 264v275h49v-275q0 -139 -27 -272l-172 -854h-65l-187 774l-186 -774h-66l-172 854q-27 133 -26 272v275z" />
    <glyph glyph-name="X" unicode="X" 
d="M238 1401h49v-129q0 -49 16 -98.5t33 -73.5l18 -25l254 -325l254 325q68 86 68 197v129h49v-129q0 -55 -19.5 -112.5t-36 -83t-22.5 -32.5l-262 -333l274 -349q41 -51 62.5 -122.5t21.5 -112.5v-127h-49v127q0 33 -17.5 95.5t-56.5 109.5l-266 340l-266 -340
q-37 -47 -55.5 -110.5t-18.5 -94.5v-127h-49v127q0 41 21.5 112.5t62.5 122.5l275 349l-263 333l-4 9q-6 6 -12 17t-14.5 26.5t-16.5 35t-15 41t-11 48t-4 51.5v129z" />
    <glyph glyph-name="Y" unicode="Y" 
d="M989 1114q0 -25 -4 -50.5t-11 -46t-15.5 -40t-16.5 -34.5t-14 -25.5t-10 -16.5l-7 -8l-278 -342v-551h-49v551l-279 342q-6 6 -22.5 31.5t-36 81t-19.5 108.5v287h49v-287q0 -47 18.5 -95t32 -69.5t19.5 -27.5l262 -324l262 324l7 10q8 10 18 28.5t20.5 41t17.5 53
t7 59.5v287h49v-287z" />
    <glyph glyph-name="Z" unicode="Z" 
d="M233 1401h748v-49l-705 -1303h723v-49h-780v49l707 1303h-693v49z" />
    <glyph glyph-name="bracketleft" unicode="[" 
d="M510 -197v1598h405v-49h-356v-1499h356v-50h-405z" />
    <glyph glyph-name="backslash" unicode="\" 
d="M977 0h-49v125q0 47 -15.5 94t-31.5 72l-17 24l-530 695q-94 123 -94 262v129h49v-129q0 -123 84 -234l530 -692l2 -4q4 -4 8.5 -11t10.5 -17.5t11 -21.5t11 -25.5t12.5 -31t10.5 -34t6 -38t2 -38.5v-125z" />
    <glyph glyph-name="bracketright" unicode="]" 
d="M707 -197h-406v50h356v1499h-356v49h406v-1598z" />
    <glyph glyph-name="asciicircum" unicode="^" 
d="M342 825l231 576h70l231 -576l-47 -18l-219 545l-221 -545z" />
    <glyph glyph-name="underscore" unicode="_" 
d="M248 -166v49h721v-49h-721z" />
    <glyph glyph-name="grave" unicode="`" 
d="M700 1155l-221 221l37 35l219 -221z" />
    <glyph glyph-name="a" unicode="a" 
d="M928 1044h49v-1044h-49v166q-43 -84 -125 -134t-178 -50h-64q-143 0 -242.5 100t-99.5 242v397q0 141 99.5 241.5t242.5 100.5h64q96 0 178 -50t125 -134v165zM635 31q121 0 207 86t86 207v397q0 121 -86 207t-207 86h-74q-123 0 -208 -86t-85 -207v-397q0 -121 85 -207
t208 -86h74z" />
    <glyph glyph-name="b" unicode="b" 
d="M657 1063q143 0 242.5 -100.5t99.5 -241.5v-397q0 -141 -99 -241.5t-243 -100.5h-63q-96 0 -178 50t-125 134v-166h-49v1401h49v-522q43 84 125 134t178 50h63zM950 324v397q0 121 -85 207t-208 86h-73q-121 0 -207 -86t-86 -207v-397q0 -121 86 -207t207 -86h73
q123 0 208 86t85 207z" />
    <glyph glyph-name="c" unicode="c" 
d="M248 324v397q0 141 99 241.5t243 100.5h74q119 0 211 -74t120 -186l-47 -12q-23 96 -102.5 159.5t-181.5 63.5h-74q-121 0 -207 -86t-86 -207v-397q0 -121 86 -207t207 -86h74q102 0 182 63.5t102 159.5l47 -12q-29 -113 -121 -186.5t-210 -73.5h-74q-143 0 -242.5 100.5
t-99.5 241.5z" />
    <glyph glyph-name="d" unicode="d" 
d="M926 1401h49v-1401h-49v166q-43 -84 -125 -134t-178 -50h-64q-143 0 -242.5 100t-99.5 242v397q0 141 99.5 241.5t242.5 100.5h64q96 0 178 -50t125 -134v522zM633 31q121 0 207 86t86 207v397q0 121 -86 207t-207 86h-74q-123 0 -208 -86t-85 -207v-397q0 -121 85 -207
t208 -86h74z" />
    <glyph glyph-name="e" unicode="e" 
d="M578 1063h73q141 0 241.5 -100.5t100.5 -241.5v-193h-708v-204q0 -121 85 -207t208 -86h73q102 0 182 63.5t103 159.5l47 -12q-29 -113 -121 -186.5t-211 -73.5h-73q-143 0 -242.5 100t-99.5 242v397q0 141 99.5 241.5t242.5 100.5zM285 578h659v143q0 121 -86 207
t-207 86h-73q-123 0 -208 -86t-85 -207v-143z" />
    <glyph glyph-name="f" unicode="f" 
d="M229 0v49h234v854h-234v49h234v125q0 143 99.5 242.5t242.5 99.5h74q119 0 211 -72.5t120 -187.5l-47 -12q-23 96 -102.5 159.5t-181.5 63.5h-74q-123 0 -208 -86t-85 -207v-125h385v-49h-385v-854h494v-49h-777z" />
    <glyph glyph-name="g" unicode="g" 
d="M926 1044h49v-1077q0 -141 -99.5 -241.5t-242.5 -100.5h-74q-119 0 -211 74t-121 186l47 13q23 -96 103 -160t182 -64h74q123 0 208 86t85 207v295q-43 -84 -124 -133t-179 -49h-64q-141 0 -241.5 100.5t-100.5 241.5v299q0 143 100.5 242.5t241.5 99.5h64q98 0 179 -49
t124 -133v163zM633 129q123 0 208 86t85 207v299q0 121 -85 207t-208 86h-74q-121 0 -207 -86t-86 -207v-299q0 -121 86 -207t207 -86h74z" />
    <glyph glyph-name="h" unicode="h" 
d="M651 1063q143 0 242.5 -100.5t99.5 -241.5v-721h-49v721q0 121 -85 207t-208 86h-73q-121 0 -207 -86t-86 -207v-721h-49v1401h49v-522q43 84 125 134t178 50h63z" />
    <glyph glyph-name="i" unicode="i" 
d="M627 1190v248h49v-248h-49zM309 1044h367v-995h360v-49h-794v49h385v946h-318v49z" />
    <glyph glyph-name="j" unicode="j" 
d="M762 1190v248h49v-248h-49zM266 1044h545v-1079q0 -141 -100.5 -240.5t-239.5 -99.5q-121 0 -212 73t-118 185l47 15q23 -98 101 -161t182 -63q119 0 205 85t86 206v1030h-496v49z" />
    <glyph glyph-name="k" unicode="k" 
d="M260 1401h49v-860h295l215 174q31 27 63.5 83t32.5 113v133h50v-133q0 -51 -28 -117.5t-85 -115.5l-203 -162l230 -176q41 -31 72.5 -89t31.5 -122v-129h-49v129q0 47 -21.5 90t-41 62.5t-23.5 19.5l-244 191h-295v-492h-49v1401z" />
    <glyph glyph-name="l" unicode="l" 
d="M1139 240q-29 -113 -121 -185.5t-211 -72.5q-141 0 -240.5 99t-99.5 241v1030h-307v49h356v-1079q0 -121 86 -206t205 -85q102 0 181 62.5t104 160.5z" />
    <glyph glyph-name="m" unicode="m" 
d="M819 1063q92 0 158.5 -65.5t66.5 -159.5v-838h-49v836q0 74 -53 126t-125 52q-74 0 -126 -52.5t-52 -125.5v-836h-49v836q0 74 -53.5 126t-124.5 52q-74 0 -126.5 -52.5t-52.5 -125.5v-836h-49v1044h49v-86q61 104 185 105q66 0 120 -37t78 -94q27 59 81 95t122 36z" />
    <glyph glyph-name="n" unicode="n" 
d="M651 1063q143 0 242.5 -100.5t99.5 -241.5v-721h-49v721q0 121 -85 207t-208 86h-73q-121 0 -207 -86t-86 -207v-721h-49v1044h49v-165q43 84 125 134t178 50h63z" />
    <glyph glyph-name="o" unicode="o" 
d="M571 1063h74q143 0 242.5 -100.5t99.5 -241.5v-397q0 -141 -99.5 -241.5t-242.5 -100.5h-74q-141 0 -241.5 100t-100.5 242v397q0 141 100.5 241.5t241.5 100.5zM571 1014q-121 0 -206.5 -86t-85.5 -207v-397q0 -121 86 -207t206 -86h74q123 0 208 86t85 207v397
q0 121 -85 207t-208 86h-74z" />
    <glyph glyph-name="p" unicode="p" 
d="M657 1063q143 0 242.5 -100.5t99.5 -241.5v-397q0 -141 -99 -241.5t-243 -100.5h-63q-96 0 -178 50t-125 134v-522h-49v1400h49v-165q43 84 125 134t178 50h63zM950 324v397q0 121 -85 207t-208 86h-73q-121 0 -207 -86t-86 -207v-397q0 -121 86 -207t207 -86h73
q123 0 208 86t85 207z" />
    <glyph glyph-name="q" unicode="q" 
d="M926 1044h49v-1400h-49v522q-43 -84 -125 -134t-178 -50h-64q-143 0 -242.5 100t-99.5 242v397q0 141 99.5 241.5t242.5 100.5h64q96 0 178 -50t125 -134v165zM633 31q121 0 207 86t86 207v397q0 121 -86 207t-207 86h-74q-123 0 -208 -86t-85 -207v-397q0 -121 85 -207
t208 -86h74z" />
    <glyph glyph-name="r" unicode="r" 
d="M156 0v49h209v672q0 143 100 242.5t242 99.5h73q119 0 211 -72.5t121 -187.5l-47 -12q-23 98 -101.5 160.5t-183.5 62.5h-73q-121 0 -207 -86t-86 -207v-672h524v-49h-782z" />
    <glyph glyph-name="s" unicode="s" 
d="M231 164l50 14q23 -66 79 -106.5t127 -40.5h234q90 0 154.5 64.5t64.5 154.5q0 82 -50 148.5t-140 80.5l-263 41q-109 16 -173 90t-64 185q0 113 78 190.5t190 77.5h197q88 0 157.5 -51t98.5 -133l-49 -15q-23 68 -79.5 109t-127.5 41h-197q-90 0 -154.5 -64.5
t-64.5 -154.5q0 -94 53.5 -153.5t143.5 -74.5l262 -39q102 -16 166.5 -94t64.5 -184q0 -111 -77.5 -189.5t-190.5 -78.5h-234q-88 0 -157.5 50t-98.5 132z" />
    <glyph glyph-name="t" unicode="t" 
d="M152 995v49h282v283h49v-283h537v-49h-537v-673q0 -121 86 -206t205 -85q102 0 181 63.5t102 159.5l47 -14q-29 -113 -120 -185.5t-210 -72.5q-139 0 -239.5 100t-100.5 240v673h-282z" />
    <glyph glyph-name="u" unicode="u" 
d="M229 1044h50v-720q0 -121 86 -207t206 -86h74q123 0 208 86t85 207v720h49v-720q0 -141 -99.5 -241.5t-242.5 -100.5h-74q-141 0 -241.5 100t-100.5 242v720z" />
    <glyph glyph-name="v" unicode="v" 
d="M225 1044h49v-131q0 -129 56 -247l278 -607l279 607q55 123 55 247v131h49v-131q0 -135 -59 -268l-297 -645h-53l-297 645q-59 129 -60 268v131z" />
    <glyph glyph-name="w" unicode="w" 
d="M156 911v133h49v-133q0 -131 33 -256l147 -575l197 786h53l196 -786l148 575q14 55 22.5 120t10.5 102v34v133h49v-133q0 -135 -33 -266l-166 -645h-57l-197 786l-196 -786h-58l-166 645q-32 131 -32 266z" />
    <glyph glyph-name="x" unicode="x" 
d="M231 1044h50v-131q0 -14 3 -36.5t28.5 -74.5t70.5 -85l225 -170l226 170q45 33 70.5 82t29.5 82l2 32v131h49v-131q0 -63 -33.5 -129.5t-87.5 -105.5l-215 -160l238 -178q43 -35 73.5 -92.5t30.5 -118.5v-129h-49v129q0 47 -22.5 90t-42.5 64l-23 18l-246 186l-246 -186
q-4 0 -23.5 -19.5t-42 -62.5t-22.5 -90v-129h-49v129q0 61 32 119.5t73 91.5l237 178l-215 160q-61 47 -91 115.5t-30 119.5v131z" />
    <glyph glyph-name="y" unicode="y" 
d="M238 1044h49v-133q0 -123 63 -237l262 -492l265 492q61 111 61 237v133h49v-133q0 -137 -65 -262l-496 -913q-53 -92 -154 -92h-153v49h153q14 0 28.5 3t25 9t19.5 13.5t15.5 13.5t10.5 12t6 10l4 4l205 375l-281 516q-68 129 -67 262v133z" />
    <glyph glyph-name="z" unicode="z" 
d="M262 1044h699v-49l-656 -946h674v-49h-735v49l655 946h-637v49z" />
    <glyph glyph-name="braceleft" unicode="{" 
d="M614 827q0 -76 -43 -137t-112 -88q70 -27 112.5 -88t42.5 -137v-303q0 -92 64.5 -156.5t157.5 -64.5h135v-50h-135q-115 0 -193 78t-78 193v303q0 82 -59.5 141.5t-140.5 59.5h-37v49h37v-9h2v9q82 0 140 59t58 141v303q0 113 79 192t192 79h135v-49h-135
q-92 0 -157 -64.5t-65 -157.5v-303z" />
    <glyph glyph-name="bar" unicode="|" 
d="M584 -197v1598h49v-1598h-49z" />
    <glyph glyph-name="braceright" unicode="}" 
d="M852 627h37v-49h-37q-82 0 -141.5 -59.5t-59.5 -141.5v-303q0 -115 -77.5 -193t-192.5 -78h-135v50h135q92 0 156.5 64.5t64.5 156.5v303q0 76 43 137t113 88q-70 27 -113 88.5t-43 136.5v303q0 92 -64.5 157t-156.5 65h-135v49h135q113 0 191.5 -79t78.5 -192v-303
q0 -82 58.5 -141t140.5 -59v-9h2v9z" />
    <glyph glyph-name="asciitilde" unicode="~" 
d="M221 483v13q0 90 63.5 153.5t155.5 63.5q115 0 174 -95q70 -98 162 -98q70 0 120 50.5t50 119.5v12h49v-12q0 -90 -64.5 -154.5t-154.5 -64.5q-113 0 -174 94q-63 98 -162 99q-70 0 -120 -49.5t-50 -118.5v-13h-49z" />
    <glyph glyph-name="uni00A0" unicode="&#xa0;" 
 />
    <glyph glyph-name="exclamdown" unicode="&#xa1;" 
d="M584 1044h49v-274h-49v274zM584 571h49v-927h-49v927z" />
    <glyph glyph-name="cent" unicode="&#xa2;" 
d="M666 201q102 0 182 63.5t102 159.5l47 -12q-29 -113 -121 -186.5t-210 -73.5h-17v-152h-49v152h-8q-143 0 -242.5 100t-99.5 242v397q0 141 99.5 241.5t242.5 100.5h8v168h49v-168h17q119 0 211 -74t120 -186l-47 -12q-23 96 -102.5 159.5t-181.5 63.5h-74
q-121 0 -207 -86t-86 -207v-397q0 -121 86 -207t207 -86h74z" />
    <glyph glyph-name="sterling" unicode="&#xa3;" 
d="M1069 229l47 -14q-27 -94 -105.5 -154.5t-176.5 -60.5h-652v49h43q47 0 80 33t33 80v514h-156v49h156v352q0 141 99.5 241.5t242.5 100.5q119 0 211 -72.5t121 -183.5l-47 -14q-25 96 -105 158.5t-180 62.5q-121 0 -207 -86t-86 -207v-352h504v-49h-504v-504
q0 -78 -65 -123h512q84 0 148 50t87 130z" />
    <glyph glyph-name="currency" unicode="&#xa4;" 
d="M979 633q0 -129 -82 -223l186 -189l-32 -35l-189 189q-96 -86 -225 -86h-57q-129 0 -226 86l-188 -189l-33 35l186 189q-82 94 -81 223v57q0 131 84 225l-189 189l35 35l188 -189q94 82 224 82h57q125 0 223 -82l189 189l34 -35l-188 -189q84 -100 84 -225v-57zM580 338
h57q121 0 207 87t86 208v57q0 121 -86 207t-207 86h-57q-121 0 -207 -86t-86 -207v-57q0 -121 86 -208t207 -87z" />
    <glyph glyph-name="yen" unicode="&#xa5;" 
d="M989 1114q0 -25 -4 -50.5t-11 -46t-15.5 -40t-16.5 -34.5t-14 -25.5t-10 -16.5l-7 -8l-102 -127h166v-49h-207l-129 -158h336v-49h-342v-510h-49v510h-342v49h336l-129 158h-207v49h166l-103 127q-6 6 -22.5 31.5t-36 81t-19.5 108.5v287h49v-287q0 -47 18.5 -95
t32 -69.5t19.5 -27.5l262 -324l262 324l7 10q8 10 18 28.5t20.5 41t17.5 53t7 59.5v287h49v-287z" />
    <glyph glyph-name="brokenbar" unicode="&#xa6;" 
d="M582 731v670h49v-670h-49zM582 -197v670h49v-670h-49z" />
    <glyph glyph-name="section" unicode="&#xa7;" 
d="M983 1159l-47 -12q-23 96 -102.5 159.5t-182.5 63.5h-80q-121 0 -206.5 -86t-85.5 -207q0 -244 282 -307l217 -53q139 -33 224 -121t85 -217q0 -143 -112 -256q29 -70 29 -156q0 -141 -99.5 -241.5t-242.5 -100.5h-80q-119 0 -211 74t-121 186l47 13q23 -96 102.5 -160
t182.5 -64h80q123 0 207.5 86t84.5 207q0 240 -280 309l-217 52q-156 39 -234 129t-78 209q0 147 115 258q-31 68 -31 153q0 141 100.5 241.5t241.5 100.5h80q121 0 212 -73.5t120 -186.5zM195 666q0 -35 9 -70t34.5 -79t85 -82t145.5 -60l215 -51q182 -43 260 -160
q94 104 94 215q0 104 -74.5 182t-197.5 107l-217 53q-193 47 -260 162q-94 -115 -94 -217z" />
    <glyph glyph-name="dieresis" unicode="&#xa8;" 
d="M473 1237v248h49v-248h-49zM694 1237v248h49v-248h-49z" />
    <glyph glyph-name="copyright" unicode="&#xa9;" 
d="M170 561v279q0 182 128 310t310 128q180 0 309.5 -128t129.5 -310v-279q0 -180 -129.5 -309t-309.5 -129q-182 0 -310 129t-128 309zM209 561q0 -166 116.5 -283.5t282.5 -117.5q164 0 282 117.5t118 283.5v279q0 168 -117 284.5t-283 116.5t-282.5 -116.5t-116.5 -284.5
v-279zM782 891l-37 -12q-10 37 -39.5 60.5t-68.5 23.5h-41q-45 0 -78 -33t-33 -78v-305q0 -45 33 -79t78 -34h41q37 0 67.5 24.5t40.5 61.5l37 -12q-14 -49 -54 -80t-91 -31h-41q-61 0 -104 44t-43 106v305q0 61 43 105t104 44h41q51 0 91 -30.5t54 -79.5z" />
    <glyph glyph-name="ordfeminine" unicode="&#xaa;" 
d="M356 971v233q0 88 61.5 148.5t147.5 60.5h35q61 0 109.5 -31.5t68.5 -87.5v107h41v-627h-41v107q-20 -53 -69.5 -86t-108.5 -33h-35q-86 0 -147.5 61.5t-61.5 147.5zM397 971q0 -68 49.5 -118t118.5 -50h45q70 0 119 50t49 118v233q0 70 -49 119t-119 49h-45
q-70 0 -119 -49t-49 -119v-233zM371 590h448v-43h-448v43z" />
    <glyph glyph-name="guillemotleft" unicode="&#xab;" 
d="M219 592l375 375l33 -33l-340 -342l340 -340l-33 -35zM588 592l375 375l32 -33l-340 -342l340 -340l-32 -35z" />
    <glyph glyph-name="logicalnot" unicode="&#xac;" 
d="M205 670v49h764v-397h-49v348h-715z" />
    <glyph glyph-name="registered" unicode="&#xae;" 
d="M170 561v279q0 182 128 310t310 128q180 0 309.5 -128t129.5 -310v-279q0 -180 -129.5 -309t-309.5 -129q-182 0 -310 129t-128 309zM209 561q0 -166 116.5 -283.5t282.5 -117.5q164 0 282 117.5t118 283.5v279q0 168 -117 284.5t-283 116.5t-282.5 -116.5t-116.5 -284.5
v-279zM455 999h178q63 0 107 -43t44 -106v-41q0 -53 -36.5 -95t-90.5 -48l86 -95q43 -43 43 -106v-53h-36v53q0 27 -12.5 50.5t-20.5 29.5l-107 117h-116v-250h-39v587zM494 963v-265h141q45 0 77.5 33t32.5 78v41q0 47 -31.5 80t-78.5 33h-141z" />
    <glyph glyph-name="macron" unicode="&#xaf;" 
d="M328 1241v49h561v-49h-561z" />
    <glyph glyph-name="degree" unicode="&#xb0;" 
d="M315 1126q0 121 86 207t207 86q123 0 208 -86t85 -207q0 -123 -85 -209t-208 -86q-121 0 -207 86t-86 209zM365 1126q0 -102 71.5 -173.5t172 -71.5t172 71.5t71.5 173.5q0 100 -71.5 172t-172 72t-172 -72t-71.5 -172z" />
    <glyph glyph-name="plusminus" unicode="&#xb1;" 
d="M209 711v49h375v289h49v-289h375v-49h-375v-289h-49v289h-375zM209 213v49h799v-49h-799z" />
    <glyph glyph-name="uni00B2" unicode="&#xb2;" 
d="M383 1610q16 70 72.5 114.5t130.5 44.5h47q86 0 147.5 -61t61.5 -147q0 -143 -170 -238l-103 -57q-92 -49 -120.5 -102.5t-28.5 -149.5v-58h422v-41h-463v97q0 113 37 174t135 117l98 55q152 82 152 203q0 68 -50.5 116.5t-117.5 48.5h-47q-57 0 -102.5 -36.5
t-59.5 -92.5z" />
    <glyph glyph-name="uni00B3" unicode="&#xb3;" 
d="M367 1065l39 12q14 -55 60 -92t103 -37h45q70 0 119 49.5t49 116.5v82q0 68 -49 118t-119 50h-100v41l244 313h-379v41h434v-41l-246 -313l62 -2q82 -2 138 -62.5t56 -144.5v-82q0 -86 -60.5 -147.5t-148.5 -61.5h-45q-72 0 -129 45t-73 115z" />
    <glyph glyph-name="acute" unicode="&#xb4;" 
d="M516 1155l-35 35l219 221l37 -35z" />
    <glyph glyph-name="uni00B5" unicode="&#xb5;" 
d="M1104 49h26v-49h-26q-74 0 -128 49t-61 121q-43 -84 -123.5 -136t-179.5 -52h-57q-96 0 -177 52t-124 136v-526h-49v1400h49v-720q0 -121 86 -207t207 -86h74q121 0 206.5 86t85.5 207v720h50v-854q0 -59 41 -100t100 -41z" />
    <glyph glyph-name="paragraph" unicode="&#xb6;" 
d="M209 838v223q0 141 100.5 241.5t241.5 100.5h405v-1757h-49v1708h-356q-121 0 -207 -86t-86 -207v-223q0 -123 86 -208t207 -85h174v-49h-174q-141 0 -241.5 99.5t-100.5 242.5z" />
    <glyph glyph-name="periodcentered" unicode="&#xb7;" 
d="M584 463v256h49v-256h-49z" />
    <glyph glyph-name="cedilla" unicode="&#xb8;" 
d="M627 -115q76 -8 128 -65.5t52 -134.5q0 -84 -59.5 -143.5t-143.5 -59.5h-29v49h29q63 0 108.5 45t45.5 108.5t-45 108.5t-109 45h-26v162h49v-115z" />
    <glyph glyph-name="uni00B9" unicode="&#xb9;" 
d="M379 1528l229 229h39v-801h201v-41h-461v41h219v740l-198 -199z" />
    <glyph glyph-name="ordmasculine" unicode="&#xba;" 
d="M377 973v231q0 88 61.5 148.5t147.5 60.5h45q86 0 147.5 -60.5t61.5 -148.5v-231q0 -88 -61.5 -148.5t-147.5 -60.5h-45q-86 0 -147.5 60.5t-61.5 148.5zM418 973q0 -70 49 -119t119 -49h45q70 0 119 49t49 119v231q0 70 -49.5 119t-118.5 49h-45q-70 0 -119 -49
t-49 -119v-231zM391 547v43h434v-43h-434z" />
    <glyph glyph-name="guillemotright" unicode="&#xbb;" 
d="M629 592l-375 -375l-33 35l340 340l-340 342l33 33zM997 592l-374 -375l-33 35l340 340l-340 342l33 33z" />
    <glyph glyph-name="onequarter" unicode="&#xbc;" 
d="M379 1528l229 229h39v-801h201v-41h-461v41h219v740l-198 -199zM162 721h893v-41h-893v41zM412 -127v131q0 86 43 166l176 317l37 -20l-176 -317q-16 -31 -25.5 -67t-11.5 -58v-21v-88h323v234h41v-506h-41v229h-366z" />
    <glyph glyph-name="onehalf" unicode="&#xbd;" 
d="M379 1528l229 229h39v-801h201v-41h-461v41h219v740l-198 -199zM162 721h893v-41h-893v41zM383 338q16 70 72.5 115t130.5 45h47q86 0 147.5 -61.5t61.5 -147.5q0 -143 -170 -238l-103 -57q-92 -49 -120.5 -102.5t-28.5 -149.5v-57h422v-41h-463v96q0 113 37 174t135 117
l98 55q152 82 152 203q0 68 -50.5 117t-117.5 49h-47q-57 0 -102.5 -37t-59.5 -92z" />
    <glyph glyph-name="threequarters" unicode="&#xbe;" 
d="M367 1065l39 12q14 -55 60 -92t103 -37h45q70 0 119 49.5t49 116.5v82q0 68 -49 118t-119 50h-100v41l244 313h-379v41h434v-41l-246 -313l62 -2q82 -2 138 -62.5t56 -144.5v-82q0 -86 -60.5 -147.5t-148.5 -61.5h-45q-72 0 -129 45t-73 115zM162 721h893v-41h-893v41z
M412 -127v131q0 86 43 166l176 317l37 -20l-176 -317q-16 -31 -25.5 -67t-11.5 -58v-21v-88h323v234h41v-506h-41v229h-366z" />
    <glyph glyph-name="questiondown" unicode="&#xbf;" 
d="M664 1018v-275h-50v275h50zM1008 -119q-29 -113 -121 -184.5t-211 -71.5h-80q-141 0 -241.5 99.5t-100.5 242.5q0 195 182 303q178 111 178 238v37h50v-37q0 -74 -54.5 -147.5t-148.5 -131.5q-158 -98 -158 -262q0 -123 86 -208t207 -85h80q102 0 181 62.5t104 159.5z
" />
    <glyph glyph-name="Agrave" unicode="&#xc0;" 
d="M643 1546l-35 -35l-221 222l37 34zM977 553q35 -129 35 -281v-272h-49v272q0 55 -7 111h-696q-6 -55 -6 -111v-272h-49v272q0 141 35 281l200 737q14 55 61.5 92t106.5 37q61 0 107.5 -36.5t60.5 -92.5zM266 432h684q-12 76 -22 107l-199 737q-10 41 -43 67.5t-78 26.5
t-77.5 -26.5t-43.5 -67.5l-198 -737q-11 -31 -23 -107z" />
    <glyph glyph-name="Aacute" unicode="&#xc1;" 
d="M829 1733l-221 -222l-35 35l220 221zM977 553q35 -129 35 -281v-272h-49v272q0 55 -7 111h-696q-6 -55 -6 -111v-272h-49v272q0 141 35 281l200 737q14 55 61.5 92t106.5 37q61 0 107.5 -36.5t60.5 -92.5zM266 432h684q-12 76 -22 107l-199 737q-10 41 -43 67.5t-78 26.5
t-77.5 -26.5t-43.5 -67.5l-198 -737q-11 -31 -23 -107z" />
    <glyph glyph-name="Acircumflex" unicode="&#xc2;" 
d="M608 1794l-215 -215l-35 35l230 229h43l229 -229l-35 -35zM977 553q35 -129 35 -281v-272h-49v272q0 55 -7 111h-696q-6 -55 -6 -111v-272h-49v272q0 141 35 281l200 737q14 55 61.5 92t106.5 37q61 0 107.5 -36.5t60.5 -92.5zM266 432h684q-12 76 -22 107l-199 737
q-10 41 -43 67.5t-78 26.5t-77.5 -26.5t-43.5 -67.5l-198 -737q-11 -31 -23 -107z" />
    <glyph glyph-name="Atilde" unicode="&#xc3;" 
d="M270 1561v-13h-49v13q0 90 63.5 153.5t155.5 63.5q115 0 174 -95q70 -98 162 -98q70 0 120 50.5t50 119.5v12h49v-12q0 -90 -64.5 -154.5t-154.5 -64.5q-113 0 -174 94q-63 98 -162 99q-70 0 -120 -49t-50 -119zM977 553q35 -129 35 -281v-272h-49v272q0 55 -7 111h-696
q-6 -55 -6 -111v-272h-49v272q0 141 35 281l200 737q14 55 61.5 92t106.5 37q61 0 107.5 -36.5t60.5 -92.5zM266 432h684q-12 76 -22 107l-199 737q-10 41 -43 67.5t-78 26.5t-77.5 -26.5t-43.5 -67.5l-198 -737q-11 -31 -23 -107z" />
    <glyph glyph-name="Adieresis" unicode="&#xc4;" 
d="M522 1794v-248h-49v248h49zM743 1794v-248h-49v248h49zM977 553q35 -129 35 -281v-272h-49v272q0 55 -7 111h-696q-6 -55 -6 -111v-272h-49v272q0 141 35 281l200 737q14 55 61.5 92t106.5 37q61 0 107.5 -36.5t60.5 -92.5zM266 432h684q-12 76 -22 107l-199 737
q-10 41 -43 67.5t-78 26.5t-77.5 -26.5t-43.5 -67.5l-198 -737q-11 -31 -23 -107z" />
    <glyph glyph-name="Aring" unicode="&#xc5;" 
d="M977 553q35 -129 35 -281v-272h-49v272q0 55 -7 111h-696q-6 -55 -6 -111v-272h-49v272q0 141 35 281l200 737q16 66 78 103q-109 57 -108 180q0 84 59 143.5t143 59.5t143.5 -60.5t59.5 -142.5q0 -125 -113 -180q59 -39 74 -103zM459 1573q0 -66 45 -110t108.5 -44
t108.5 45t45 108.5t-45 108.5t-108.5 45t-108.5 -45t-45 -108zM266 432h684q-12 76 -22 107l-199 737q-10 41 -43 67.5t-78 26.5t-77.5 -26.5t-43.5 -67.5l-198 -737q-11 -31 -23 -107z" />
    <glyph glyph-name="AE" unicode="&#xc6;" 
d="M1036 1352h-379v-627h318v-49h-318v-627h379v-49h-428v383h-372q-6 -55 -7 -111v-272h-49v272q0 156 35 281l201 737q14 55 60 92t108 37q43 0 75 -18h377v-49zM242 432h366v936q-8 2 -24 2q-45 0 -78 -26.5t-43 -67.5l-199 -737q-10 -37 -22 -107z" />
    <glyph glyph-name="Ccedilla" unicode="&#xc7;" 
d="M676 31q102 0 181 62.5t104 158.5l47 -14q-29 -113 -121 -184.5t-211 -71.5h-43v-97q76 -8 128 -65.5t52 -134.5q0 -84 -59.5 -143.5t-143.5 -59.5h-28v49h28q63 0 108.5 45t45.5 108.5t-45 108.5t-109 45h-26v144h-6q-143 0 -242.5 99t-99.5 243v753q0 141 99 241.5
t243 100.5h98q119 0 211 -72.5t121 -183.5l-47 -14q-25 96 -104 158.5t-181 62.5h-98q-121 0 -207 -86t-86 -207v-753q0 -121 86 -207t207 -86h98z" />
    <glyph glyph-name="Egrave" unicode="&#xc8;" 
d="M639 1511l-221 222l37 34l219 -221zM256 0v1401h766v-49h-717v-627h651v-49h-651v-627h717v-49h-766z" />
    <glyph glyph-name="Eacute" unicode="&#xc9;" 
d="M639 1511l-35 35l219 221l37 -34zM256 0v1401h766v-49h-717v-627h651v-49h-651v-627h717v-49h-766z" />
    <glyph glyph-name="Ecircumflex" unicode="&#xca;" 
d="M389 1579l229 229h44l229 -229l-35 -35l-217 215l-215 -215zM256 0v1401h766v-49h-717v-627h651v-49h-651v-627h717v-49h-766z" />
    <glyph glyph-name="Edieresis" unicode="&#xcb;" 
d="M504 1546v248h49v-248h-49zM725 1546v248h49v-248h-49zM256 0v1401h766v-49h-717v-627h651v-49h-651v-627h717v-49h-766z" />
    <glyph glyph-name="Igrave" unicode="&#xcc;" 
d="M608 1511l-221 222l37 34l219 -221zM229 49h355v1303h-351v49h750v-49h-350v-1303h354v-49h-758v49z" />
    <glyph glyph-name="Iacute" unicode="&#xcd;" 
d="M608 1511l-35 35l220 221l36 -34zM229 49h355v1303h-351v49h750v-49h-350v-1303h354v-49h-758v49z" />
    <glyph glyph-name="Icircumflex" unicode="&#xce;" 
d="M358 1579l230 229h43l229 -229l-35 -35l-217 215l-215 -215zM229 49h355v1303h-351v49h750v-49h-350v-1303h354v-49h-758v49z" />
    <glyph glyph-name="Idieresis" unicode="&#xcf;" 
d="M473 1546v248h49v-248h-49zM694 1546v248h49v-248h-49zM229 49h355v1303h-351v49h750v-49h-350v-1303h354v-49h-758v49z" />
    <glyph glyph-name="Eth" unicode="&#xd0;" 
d="M686 1401q143 0 243.5 -99.5t100.5 -242.5v-717q0 -143 -100.5 -242.5t-243.5 -99.5h-422v676h-153v49h153v676h422zM981 342v717q0 121 -86 207t-209 86h-373v-627h314v-49h-314v-627h373q123 0 209 86t86 207z" />
    <glyph glyph-name="Ntilde" unicode="&#xd1;" 
d="M221 1548v13q0 90 63.5 153.5t155.5 63.5q115 0 174 -95q70 -98 162 -98q70 0 120 50.5t50 119.5v12h49v-12q0 -90 -64.5 -154.5t-154.5 -64.5q-113 0 -174 94q-63 98 -162 99q-70 0 -120 -49.5t-50 -118.5v-13h-49zM211 1401h61l684 -1315v1315h50v-1401h-62l-684 1315
v-1315h-49v1401z" />
    <glyph glyph-name="Ograve" unicode="&#xd2;" 
d="M608 1511l-221 222l37 34l219 -221zM559 -18q-141 0 -241.5 100t-100.5 242v753q0 141 100.5 241.5t241.5 100.5h98q143 0 242.5 -100t99.5 -242v-753q0 -141 -99 -241.5t-243 -100.5h-98zM559 31h98q123 0 208 86t85 207v753q0 121 -85 207t-208 86h-98q-121 0 -207 -86
t-86 -207v-753q0 -121 86 -207t207 -86z" />
    <glyph glyph-name="Oacute" unicode="&#xd3;" 
d="M608 1511l-35 35l220 221l36 -34zM559 -18q-141 0 -241.5 100t-100.5 242v753q0 141 100.5 241.5t241.5 100.5h98q143 0 242.5 -100t99.5 -242v-753q0 -141 -99 -241.5t-243 -100.5h-98zM559 31h98q123 0 208 86t85 207v753q0 121 -85 207t-208 86h-98q-121 0 -207 -86
t-86 -207v-753q0 -121 86 -207t207 -86z" />
    <glyph glyph-name="Ocircumflex" unicode="&#xd4;" 
d="M358 1579l230 229h43l229 -229l-35 -35l-217 215l-215 -215zM559 -18q-141 0 -241.5 100t-100.5 242v753q0 141 100.5 241.5t241.5 100.5h98q143 0 242.5 -100t99.5 -242v-753q0 -141 -99 -241.5t-243 -100.5h-98zM559 31h98q123 0 208 86t85 207v753q0 121 -85 207
t-208 86h-98q-121 0 -207 -86t-86 -207v-753q0 -121 86 -207t207 -86z" />
    <glyph glyph-name="Otilde" unicode="&#xd5;" 
d="M221 1548v13q0 90 63.5 153.5t155.5 63.5q115 0 174 -95q70 -98 162 -98q70 0 120 50.5t50 119.5v12h49v-12q0 -90 -64.5 -154.5t-154.5 -64.5q-113 0 -174 94q-63 98 -162 99q-70 0 -120 -49.5t-50 -118.5v-13h-49zM559 -18q-141 0 -241.5 100t-100.5 242v753
q0 141 100.5 241.5t241.5 100.5h98q143 0 242.5 -100t99.5 -242v-753q0 -141 -99 -241.5t-243 -100.5h-98zM559 31h98q123 0 208 86t85 207v753q0 121 -85 207t-208 86h-98q-121 0 -207 -86t-86 -207v-753q0 -121 86 -207t207 -86z" />
    <glyph glyph-name="Odieresis" unicode="&#xd6;" 
d="M473 1546v248h49v-248h-49zM694 1546v248h49v-248h-49zM559 -18q-141 0 -241.5 100t-100.5 242v753q0 141 100.5 241.5t241.5 100.5h98q143 0 242.5 -100t99.5 -242v-753q0 -141 -99 -241.5t-243 -100.5h-98zM559 31h98q123 0 208 86t85 207v753q0 121 -85 207t-208 86
h-98q-121 0 -207 -86t-86 -207v-753q0 -121 86 -207t207 -86z" />
    <glyph glyph-name="multiply" unicode="&#xd7;" 
d="M293 311l280 281l-280 278l37 35l278 -280l279 280l35 -35l-279 -278l279 -281l-35 -35l-279 281l-278 -278z" />
    <glyph glyph-name="Oslash" unicode="&#xd8;" 
d="M1073 1413l-110 -180q37 -72 36 -156v-753q0 -141 -99 -241.5t-243 -100.5h-98q-176 0 -276 141l-99 -160l-41 25l111 180q-37 78 -37 156v753q0 141 100.5 241.5t241.5 100.5h98q176 0 277 -141l98 160zM266 324q0 -55 19 -105l622 1014q-86 137 -250 137h-98
q-121 0 -207 -86t-86 -207v-753zM950 1077q0 55 -18 105l-621 -1014q86 -137 248 -137h98q123 0 208 86t85 207v753z" />
    <glyph glyph-name="Ugrave" unicode="&#xd9;" 
d="M608 1511l-221 222l37 34l219 -221zM219 1401h49v-1077q0 -121 86 -207t207 -86h98q121 0 207 86t86 207v1077h49v-1077q0 -141 -99 -241.5t-243 -100.5h-98q-141 0 -241.5 100t-100.5 242v1077z" />
    <glyph glyph-name="Uacute" unicode="&#xda;" 
d="M608 1511l-35 35l220 221l36 -34zM219 1401h49v-1077q0 -121 86 -207t207 -86h98q121 0 207 86t86 207v1077h49v-1077q0 -141 -99 -241.5t-243 -100.5h-98q-141 0 -241.5 100t-100.5 242v1077z" />
    <glyph glyph-name="Ucircumflex" unicode="&#xdb;" 
d="M358 1579l230 229h43l229 -229l-35 -35l-217 215l-215 -215zM219 1401h49v-1077q0 -121 86 -207t207 -86h98q121 0 207 86t86 207v1077h49v-1077q0 -141 -99 -241.5t-243 -100.5h-98q-141 0 -241.5 100t-100.5 242v1077z" />
    <glyph glyph-name="Udieresis" unicode="&#xdc;" 
d="M473 1546v248h49v-248h-49zM694 1546v248h49v-248h-49zM219 1401h49v-1077q0 -121 86 -207t207 -86h98q121 0 207 86t86 207v1077h49v-1077q0 -141 -99 -241.5t-243 -100.5h-98q-141 0 -241.5 100t-100.5 242v1077z" />
    <glyph glyph-name="Yacute" unicode="&#xdd;" 
d="M608 1511l-35 35l220 221l36 -34zM989 1114q0 -25 -4 -50.5t-11 -46t-15.5 -40t-16.5 -34.5t-14 -25.5t-10 -16.5l-7 -8l-278 -342v-551h-49v551l-279 342q-6 6 -22.5 31.5t-36 81t-19.5 108.5v287h49v-287q0 -47 18.5 -95t32 -69.5t19.5 -27.5l262 -324l262 324l7 10
q8 10 18 28.5t20.5 41t17.5 53t7 59.5v287h49v-287z" />
    <glyph glyph-name="Thorn" unicode="&#xde;" 
d="M279 0v1401h49v-295h366q141 0 241.5 -101.5t100.5 -242.5v-125q0 -143 -99 -242.5t-243 -99.5h-366v-295h-49zM328 344h366q123 0 208 86t85 207v125q0 123 -85 209t-208 86h-366v-713z" />
    <glyph glyph-name="germandbls" unicode="&#xdf;" 
d="M782 721q102 -33 169 -121t67 -201v-57q0 -141 -100.5 -241.5t-241.5 -100.5h-219v49h219q121 0 207 86t86 207v57q0 121 -86 208t-207 87h-172v49h160q121 0 206.5 86t85.5 207v27q0 121 -86 208t-206 87h-62q-123 0 -208 -86t-85 -209v-1063h-49v1063q0 143 99.5 243.5
t242.5 100.5h62q141 0 241.5 -100.5t100.5 -243.5v-27q0 -109 -63 -194.5t-161 -120.5z" />
    <glyph glyph-name="agrave" unicode="&#xe0;" 
d="M643 1190l-35 -35l-221 221l37 35zM928 1044h49v-1044h-49v166q-43 -84 -125 -134t-178 -50h-64q-143 0 -242.5 100t-99.5 242v397q0 141 99.5 241.5t242.5 100.5h64q96 0 178 -50t125 -134v165zM635 31q121 0 207 86t86 207v397q0 121 -86 207t-207 86h-74
q-123 0 -208 -86t-85 -207v-397q0 -121 85 -207t208 -86h74z" />
    <glyph glyph-name="aacute" unicode="&#xe1;" 
d="M829 1376l-221 -221l-35 35l220 221zM928 1044h49v-1044h-49v166q-43 -84 -125 -134t-178 -50h-64q-143 0 -242.5 100t-99.5 242v397q0 141 99.5 241.5t242.5 100.5h64q96 0 178 -50t125 -134v165zM635 31q121 0 207 86t86 207v397q0 121 -86 207t-207 86h-74
q-123 0 -208 -86t-85 -207v-397q0 -121 85 -207t208 -86h74z" />
    <glyph glyph-name="acircumflex" unicode="&#xe2;" 
d="M608 1403l-215 -215l-35 35l230 229h43l229 -229l-35 -35zM928 1044h49v-1044h-49v166q-43 -84 -125 -134t-178 -50h-64q-143 0 -242.5 100t-99.5 242v397q0 141 99.5 241.5t242.5 100.5h64q96 0 178 -50t125 -134v165zM635 31q121 0 207 86t86 207v397q0 121 -86 207
t-207 86h-74q-123 0 -208 -86t-85 -207v-397q0 -121 85 -207t208 -86h74z" />
    <glyph glyph-name="atilde" unicode="&#xe3;" 
d="M946 1411h49v-12q0 -90 -64.5 -154.5t-154.5 -64.5q-113 0 -174 94q-63 98 -162 98q-70 0 -120 -49t-50 -119v-12h-49v12q0 90 63.5 153.5t155.5 63.5q115 0 174 -94q70 -98 162 -98q70 0 120 50t50 120v12zM928 879v165h49v-1044h-49v166q-43 -84 -125 -134t-178 -50
h-64q-143 0 -242.5 100t-99.5 242v397q0 141 99.5 241.5t242.5 100.5h64q96 0 178 -50t125 -134zM635 31q121 0 207 86t86 207v397q0 121 -86 207t-207 86h-74q-123 0 -208 -86t-85 -207v-397q0 -121 85 -207t208 -86h74z" />
    <glyph glyph-name="adieresis" unicode="&#xe4;" 
d="M522 1438v-248h-49v248h49zM743 1438v-248h-49v248h49zM928 1044h49v-1044h-49v166q-43 -84 -125 -134t-178 -50h-64q-143 0 -242.5 100t-99.5 242v397q0 141 99.5 241.5t242.5 100.5h64q96 0 178 -50t125 -134v165zM635 31q121 0 207 86t86 207v397q0 121 -86 207
t-207 86h-74q-123 0 -208 -86t-85 -207v-397q0 -121 85 -207t208 -86h74z" />
    <glyph glyph-name="aring" unicode="&#xe5;" 
d="M928 1044h49v-1044h-49v166q-43 -84 -125 -134t-178 -50h-64q-143 0 -242.5 100t-99.5 242v397q0 121 75 214t191 120q-80 59 -79 162q0 84 59 143t143 59t143.5 -60.5t59.5 -141.5q0 -109 -90 -168q139 -41 207 -170v165zM455 1217q0 -66 45 -110t108.5 -44t108.5 45
t45 108.5t-45 108.5t-108.5 45t-108.5 -45t-45 -108zM635 31q121 0 207 86t86 207v397q0 121 -86 207t-207 86h-74q-123 0 -208 -86t-85 -207v-397q0 -121 85 -207t208 -86h74z" />
    <glyph glyph-name="ae" unicode="&#xe6;" 
d="M1102 498h-465v-258q0 -88 60.5 -148.5t148.5 -60.5q68 0 122 41t74 102l48 -14q-25 -78 -92.5 -128t-151.5 -50q-143 0 -209 127v-109h-49v109q-66 -127 -209 -127q-106 0 -181 75.5t-75 182.5v565q0 106 74.5 182t181.5 76q143 0 209 -127v108h49v-108q66 127 209 127
q106 0 181 -76t75 -182v-307zM379 31q88 0 148.5 60.5t60.5 148.5v565q0 88 -60.5 148.5t-148.5 60.5q-86 0 -146.5 -60.5t-60.5 -148.5v-565q0 -88 60.5 -148.5t146.5 -60.5zM846 1014q-88 0 -148.5 -60.5t-60.5 -148.5v-258h416v258q0 88 -60.5 148.5t-146.5 60.5z" />
    <glyph glyph-name="ccedilla" unicode="&#xe7;" 
d="M664 31q102 0 182 63.5t102 159.5l47 -12q-29 -113 -121 -186.5t-210 -73.5h-11v-97q76 -8 128.5 -65.5t52.5 -134.5q0 -84 -59.5 -143.5t-143.5 -59.5h-29v49h29q63 0 108 45t45 108.5t-45 108.5t-108 45h-27v144h-14q-143 0 -242.5 100t-99.5 242v397q0 141 99 241.5
t243 100.5h74q119 0 211 -74t120 -186l-47 -12q-23 96 -102.5 159.5t-181.5 63.5h-74q-121 0 -207 -86t-86 -207v-397q0 -121 86 -207t207 -86h74z" />
    <glyph glyph-name="egrave" unicode="&#xe8;" 
d="M614 1155l-221 221l37 35l219 -221zM578 1063h73q141 0 241.5 -100.5t100.5 -241.5v-193h-708v-204q0 -121 85 -207t208 -86h73q102 0 182 63.5t103 159.5l47 -12q-29 -113 -121 -186.5t-211 -73.5h-73q-143 0 -242.5 100t-99.5 242v397q0 141 99.5 241.5t242.5 100.5z
M285 578h659v143q0 121 -86 207t-207 86h-73q-123 0 -208 -86t-85 -207v-143z" />
    <glyph glyph-name="eacute" unicode="&#xe9;" 
d="M614 1155l-34 35l219 221l37 -35zM578 1063h73q141 0 241.5 -100.5t100.5 -241.5v-193h-708v-204q0 -121 85 -207t208 -86h73q102 0 182 63.5t103 159.5l47 -12q-29 -113 -121 -186.5t-211 -73.5h-73q-143 0 -242.5 100t-99.5 242v397q0 141 99.5 241.5t242.5 100.5z
M285 578h659v143q0 121 -86 207t-207 86h-73q-123 0 -208 -86t-85 -207v-143z" />
    <glyph glyph-name="ecircumflex" unicode="&#xea;" 
d="M365 1223l229 229h43l229 -229l-35 -35l-217 215l-215 -215zM578 1063h73q141 0 241.5 -100.5t100.5 -241.5v-193h-708v-204q0 -121 85 -207t208 -86h73q102 0 182 63.5t103 159.5l47 -12q-29 -113 -121 -186.5t-211 -73.5h-73q-143 0 -242.5 100t-99.5 242v397
q0 141 99.5 241.5t242.5 100.5zM285 578h659v143q0 121 -86 207t-207 86h-73q-123 0 -208 -86t-85 -207v-143z" />
    <glyph glyph-name="edieresis" unicode="&#xeb;" 
d="M479 1190v248h49v-248h-49zM700 1190v248h50v-248h-50zM578 1063h73q141 0 241.5 -100.5t100.5 -241.5v-193h-708v-204q0 -121 85 -207t208 -86h73q102 0 182 63.5t103 159.5l47 -12q-29 -113 -121 -186.5t-211 -73.5h-73q-143 0 -242.5 100t-99.5 242v397
q0 141 99.5 241.5t242.5 100.5zM285 578h659v143q0 121 -86 207t-207 86h-73q-123 0 -208 -86t-85 -207v-143z" />
    <glyph glyph-name="igrave" unicode="&#xec;" 
d="M651 1155l-221 221l37 35l219 -221zM309 1044h367v-995h360v-49h-794v49h385v946h-318v49z" />
    <glyph glyph-name="iacute" unicode="&#xed;" 
d="M651 1155l-35 35l220 221l36 -35zM309 1044h367v-995h360v-49h-794v49h385v946h-318v49z" />
    <glyph glyph-name="icircumflex" unicode="&#xee;" 
d="M401 1223l230 229h43l229 -229l-35 -35l-217 215l-215 -215zM309 1044h367v-995h360v-49h-794v49h385v946h-318v49z" />
    <glyph glyph-name="idieresis" unicode="&#xef;" 
d="M516 1190v248h49v-248h-49zM737 1190v248h49v-248h-49zM309 1044h367v-995h360v-49h-794v49h385v946h-318v49z" />
    <glyph glyph-name="eth" unicode="&#xf0;" 
d="M1155 1241v-49h-197q6 -31 7 -62v-806q0 -141 -99.5 -241.5t-242.5 -100.5h-74q-141 0 -241.5 100t-100.5 242v397q0 141 100.5 241.5t241.5 100.5h63q98 0 179 -49t124 -133v249q0 31 -6 62h-303v49h287q-33 82 -106.5 132t-163.5 50v50q113 0 200.5 -65t122.5 -167h209
zM623 31q121 0 206.5 86t85.5 207v397q0 121 -86 207t-206 86h-74q-121 0 -207 -86t-86 -207v-397q0 -121 86 -207t207 -86h74z" />
    <glyph glyph-name="ntilde" unicode="&#xf1;" 
d="M956 1411h50v-12q0 -90 -64.5 -154.5t-155.5 -64.5q-113 0 -174 94q-63 98 -161 98q-70 0 -120 -49t-50 -119v-12h-50v12q0 90 63.5 153.5t156.5 63.5q115 0 174 -94q70 -98 161 -98q70 0 120 50t50 120v12zM651 1063q143 0 242.5 -100.5t99.5 -241.5v-721h-49v721
q0 121 -85 207t-208 86h-73q-121 0 -207 -86t-86 -207v-721h-49v1044h49v-165q43 84 125 134t178 50h63z" />
    <glyph glyph-name="ograve" unicode="&#xf2;" 
d="M608 1155l-221 221l37 35l219 -221zM571 1063h74q143 0 242.5 -100.5t99.5 -241.5v-397q0 -141 -99.5 -241.5t-242.5 -100.5h-74q-141 0 -241.5 100t-100.5 242v397q0 141 100.5 241.5t241.5 100.5zM571 1014q-121 0 -206.5 -86t-85.5 -207v-397q0 -121 86 -207t206 -86
h74q123 0 208 86t85 207v397q0 121 -85 207t-208 86h-74z" />
    <glyph glyph-name="oacute" unicode="&#xf3;" 
d="M608 1155l-35 35l220 221l36 -35zM571 1063h74q143 0 242.5 -100.5t99.5 -241.5v-397q0 -141 -99.5 -241.5t-242.5 -100.5h-74q-141 0 -241.5 100t-100.5 242v397q0 141 100.5 241.5t241.5 100.5zM571 1014q-121 0 -206.5 -86t-85.5 -207v-397q0 -121 86 -207t206 -86h74
q123 0 208 86t85 207v397q0 121 -85 207t-208 86h-74z" />
    <glyph glyph-name="ocircumflex" unicode="&#xf4;" 
d="M358 1223l230 229h43l229 -229l-35 -35l-217 215l-215 -215zM571 1063h74q143 0 242.5 -100.5t99.5 -241.5v-397q0 -141 -99.5 -241.5t-242.5 -100.5h-74q-141 0 -241.5 100t-100.5 242v397q0 141 100.5 241.5t241.5 100.5zM571 1014q-121 0 -206.5 -86t-85.5 -207v-397
q0 -121 86 -207t206 -86h74q123 0 208 86t85 207v397q0 121 -85 207t-208 86h-74z" />
    <glyph glyph-name="otilde" unicode="&#xf5;" 
d="M221 1192v12q0 90 63.5 153.5t155.5 63.5q115 0 174 -94q70 -98 162 -98q70 0 120 50t50 120v12h49v-12q0 -90 -64.5 -154.5t-154.5 -64.5q-113 0 -174 94q-63 98 -162 98q-70 0 -120 -49t-50 -119v-12h-49zM571 1063h74q143 0 242.5 -100.5t99.5 -241.5v-397
q0 -141 -99.5 -241.5t-242.5 -100.5h-74q-141 0 -241.5 100t-100.5 242v397q0 141 100.5 241.5t241.5 100.5zM571 1014q-121 0 -206.5 -86t-85.5 -207v-397q0 -121 86 -207t206 -86h74q123 0 208 86t85 207v397q0 121 -85 207t-208 86h-74z" />
    <glyph glyph-name="odieresis" unicode="&#xf6;" 
d="M473 1190v248h49v-248h-49zM694 1190v248h49v-248h-49zM571 1063h74q143 0 242.5 -100.5t99.5 -241.5v-397q0 -141 -99.5 -241.5t-242.5 -100.5h-74q-141 0 -241.5 100t-100.5 242v397q0 141 100.5 241.5t241.5 100.5zM571 1014q-121 0 -206.5 -86t-85.5 -207v-397
q0 -121 86 -207t206 -86h74q123 0 208 86t85 207v397q0 121 -85 207t-208 86h-74z" />
    <glyph glyph-name="divide" unicode="&#xf7;" 
d="M584 844v258h49v-258h-49zM209 567v49h799v-49h-799zM584 88v258h49v-258h-49z" />
    <glyph glyph-name="oslash" unicode="&#xf8;" 
d="M899 950q88 -98 88 -229v-397q0 -141 -99.5 -241.5t-242.5 -100.5h-74q-123 0 -217 77l-71 -114l-43 26l75 125q-86 98 -86 228v397q0 141 100.5 241.5t241.5 100.5h74q123 0 217 -78l72 119l43 -27zM279 324q0 -102 65 -185l492 805q-82 70 -191 70h-74
q-121 0 -206.5 -86t-85.5 -207v-397zM938 324v397q0 104 -66 186l-493 -805q82 -72 192 -71h74q123 0 208 86t85 207z" />
    <glyph glyph-name="ugrave" unicode="&#xf9;" 
d="M608 1155l-221 221l37 35l219 -221zM229 1044h50v-720q0 -121 86 -207t206 -86h74q123 0 208 86t85 207v720h49v-720q0 -141 -99.5 -241.5t-242.5 -100.5h-74q-141 0 -241.5 100t-100.5 242v720z" />
    <glyph glyph-name="uacute" unicode="&#xfa;" 
d="M608 1155l-35 35l220 221l36 -35zM229 1044h50v-720q0 -121 86 -207t206 -86h74q123 0 208 86t85 207v720h49v-720q0 -141 -99.5 -241.5t-242.5 -100.5h-74q-141 0 -241.5 100t-100.5 242v720z" />
    <glyph glyph-name="ucircumflex" unicode="&#xfb;" 
d="M358 1223l230 229h43l229 -229l-35 -35l-217 215l-215 -215zM229 1044h50v-720q0 -121 86 -207t206 -86h74q123 0 208 86t85 207v720h49v-720q0 -141 -99.5 -241.5t-242.5 -100.5h-74q-141 0 -241.5 100t-100.5 242v720z" />
    <glyph glyph-name="udieresis" unicode="&#xfc;" 
d="M473 1190v248h49v-248h-49zM694 1190v248h49v-248h-49zM229 1044h50v-720q0 -121 86 -207t206 -86h74q123 0 208 86t85 207v720h49v-720q0 -141 -99.5 -241.5t-242.5 -100.5h-74q-141 0 -241.5 100t-100.5 242v720z" />
    <glyph glyph-name="yacute" unicode="&#xfd;" 
d="M608 1155l-35 35l220 221l36 -35zM238 1044h49v-133q0 -123 63 -237l262 -492l265 492q61 111 61 237v133h49v-133q0 -137 -65 -262l-496 -913q-53 -92 -154 -92h-153v49h153q14 0 28.5 3t25 9t19.5 13.5t15.5 13.5t10.5 12t6 10l4 4l205 375l-281 516q-68 129 -67 262
v133z" />
    <glyph glyph-name="thorn" unicode="&#xfe;" 
d="M657 1063q143 0 242.5 -100.5t99.5 -241.5v-397q0 -141 -99 -241.5t-243 -100.5h-63q-96 0 -178 50t-125 134v-522h-49v1757h49v-522q43 84 125 134t178 50h63zM950 324v397q0 121 -85 207t-208 86h-73q-121 0 -207 -86t-86 -207v-397q0 -121 86 -207t207 -86h73
q123 0 208 86t85 207z" />
    <glyph glyph-name="ydieresis" unicode="&#xff;" 
d="M473 1190v248h49v-248h-49zM694 1190v248h49v-248h-49zM238 1044h49v-133q0 -123 63 -237l262 -492l265 492q61 111 61 237v133h49v-133q0 -137 -65 -262l-496 -913q-53 -92 -154 -92h-153v49h153q14 0 28.5 3t25 9t19.5 13.5t15.5 13.5t10.5 12t6 10l4 4l205 375
l-281 516q-68 129 -67 262v133z" />
    <glyph glyph-name="Amacron" unicode="&#x100;" 
d="M889 1642v-49h-561v49h561zM977 553q35 -129 35 -281v-272h-49v272q0 55 -7 111h-696q-6 -55 -6 -111v-272h-49v272q0 141 35 281l200 737q14 55 61.5 92t106.5 37q61 0 107.5 -36.5t60.5 -92.5zM266 432h684q-12 76 -22 107l-199 737q-10 41 -43 67.5t-78 26.5
t-77.5 -26.5t-43.5 -67.5l-198 -737q-11 -31 -23 -107z" />
    <glyph glyph-name="amacron" unicode="&#x101;" 
d="M889 1286v-49h-561v49h561zM928 1044h49v-1044h-49v166q-43 -84 -125 -134t-178 -50h-64q-143 0 -242.5 100t-99.5 242v397q0 141 99.5 241.5t242.5 100.5h64q96 0 178 -50t125 -134v165zM635 31q121 0 207 86t86 207v397q0 121 -86 207t-207 86h-74q-123 0 -208 -86
t-85 -207v-397q0 -121 85 -207t208 -86h74z" />
    <glyph glyph-name="Abreve" unicode="&#x102;" 
d="M608 1540q-84 0 -143 59.5t-59 143.5h49q0 -63 45 -108.5t108.5 -45.5t108.5 45t45 109h49q0 -84 -59.5 -143.5t-143.5 -59.5zM977 553q35 -129 35 -281v-272h-49v272q0 55 -7 111h-696q-6 -55 -6 -111v-272h-49v272q0 141 35 281l200 737q14 55 61.5 92t106.5 37
q61 0 107.5 -36.5t60.5 -92.5zM266 432h684q-12 76 -22 107l-199 737q-10 41 -43 67.5t-78 26.5t-77.5 -26.5t-43.5 -67.5l-198 -737q-11 -31 -23 -107z" />
    <glyph glyph-name="abreve" unicode="&#x103;" 
d="M608 1184q-84 0 -143 59.5t-59 142.5h49q0 -63 45 -108t108.5 -45t108.5 45t45 108h49q0 -84 -59.5 -143t-143.5 -59zM928 1044h49v-1044h-49v166q-43 -84 -125 -134t-178 -50h-64q-143 0 -242.5 100t-99.5 242v397q0 141 99.5 241.5t242.5 100.5h64q96 0 178 -50
t125 -134v165zM635 31q121 0 207 86t86 207v397q0 121 -86 207t-207 86h-74q-123 0 -208 -86t-85 -207v-397q0 -121 85 -207t208 -86h74z" />
    <glyph glyph-name="Aogonek" unicode="&#x104;" 
d="M1165 -307h11v-49h-11q-84 0 -143 59t-59 143v426q0 55 -7 111h-696q-6 -55 -6 -111v-272h-49v272q0 141 35 281l200 737q14 55 61.5 92t106.5 37q61 0 107.5 -36.5t60.5 -92.5l201 -737q35 -129 35 -281v-426q0 -63 45 -108t108 -45zM266 432h684q-12 76 -22 107
l-199 737q-10 41 -43 67.5t-78 26.5t-77.5 -26.5t-43.5 -67.5l-198 -737q-11 -31 -23 -107z" />
    <glyph glyph-name="aogonek" unicode="&#x105;" 
d="M1130 -307h11v-49h-11q-84 0 -143 59t-59 143v320q-43 -84 -125 -134t-178 -50h-64q-143 0 -242.5 100t-99.5 242v397q0 141 99.5 241.5t242.5 100.5h64q96 0 178 -50t125 -134v165h49v-1198q0 -63 45 -108t108 -45zM635 31q121 0 207 86t86 207v397q0 121 -86 207
t-207 86h-74q-123 0 -208 -86t-85 -207v-397q0 -121 85 -207t208 -86h74z" />
    <glyph glyph-name="Cacute" unicode="&#x106;" 
d="M629 1511l-35 35l219 221l37 -34zM1008 1163l-47 -14q-25 96 -104 158.5t-181 62.5h-98q-121 0 -207 -86t-86 -207v-753q0 -121 86 -207t207 -86h98q102 0 181 62.5t104 158.5l47 -14q-29 -113 -121 -184.5t-211 -71.5h-98q-143 0 -242.5 99t-99.5 243v753
q0 141 99 241.5t243 100.5h98q119 0 211 -72.5t121 -183.5z" />
    <glyph glyph-name="cacute" unicode="&#x107;" 
d="M629 1155l-35 35l219 221l37 -35zM248 324v397q0 141 99 241.5t243 100.5h74q119 0 211 -74t120 -186l-47 -12q-23 96 -102.5 159.5t-181.5 63.5h-74q-121 0 -207 -86t-86 -207v-397q0 -121 86 -207t207 -86h74q102 0 182 63.5t102 159.5l47 -12q-29 -113 -121 -186.5
t-210 -73.5h-74q-143 0 -242.5 100.5t-99.5 241.5z" />
    <glyph glyph-name="Ccircumflex" unicode="&#x108;" 
d="M379 1579l229 229h43l230 -229l-35 -35l-217 215l-215 -215zM1008 1163l-47 -14q-25 96 -104 158.5t-181 62.5h-98q-121 0 -207 -86t-86 -207v-753q0 -121 86 -207t207 -86h98q102 0 181 62.5t104 158.5l47 -14q-29 -113 -121 -184.5t-211 -71.5h-98q-143 0 -242.5 99
t-99.5 243v753q0 141 99 241.5t243 100.5h98q119 0 211 -72.5t121 -183.5z" />
    <glyph glyph-name="ccircumflex" unicode="&#x109;" 
d="M379 1223l229 229h43l230 -229l-35 -35l-217 215l-215 -215zM248 324v397q0 141 99 241.5t243 100.5h74q119 0 211 -74t120 -186l-47 -12q-23 96 -102.5 159.5t-181.5 63.5h-74q-121 0 -207 -86t-86 -207v-397q0 -121 86 -207t207 -86h74q102 0 182 63.5t102 159.5
l47 -12q-29 -113 -121 -186.5t-210 -73.5h-74q-143 0 -242.5 100.5t-99.5 241.5z" />
    <glyph glyph-name="Cdotaccent" unicode="&#x10a;" 
d="M604 1546v248h49v-248h-49zM1008 1163l-47 -14q-25 96 -104 158.5t-181 62.5h-98q-121 0 -207 -86t-86 -207v-753q0 -121 86 -207t207 -86h98q102 0 181 62.5t104 158.5l47 -14q-29 -113 -121 -184.5t-211 -71.5h-98q-143 0 -242.5 99t-99.5 243v753q0 141 99 241.5
t243 100.5h98q119 0 211 -72.5t121 -183.5z" />
    <glyph glyph-name="cdotaccent" unicode="&#x10b;" 
d="M604 1190v248h49v-248h-49zM248 324v397q0 141 99 241.5t243 100.5h74q119 0 211 -74t120 -186l-47 -12q-23 96 -102.5 159.5t-181.5 63.5h-74q-121 0 -207 -86t-86 -207v-397q0 -121 86 -207t207 -86h74q102 0 182 63.5t102 159.5l47 -12q-29 -113 -121 -186.5
t-210 -73.5h-74q-143 0 -242.5 100.5t-99.5 241.5z" />
    <glyph glyph-name="Ccaron" unicode="&#x10c;" 
d="M379 1788l35 35l215 -215l217 215l35 -35l-230 -229h-43zM1008 1163l-47 -14q-25 96 -104 158.5t-181 62.5h-98q-121 0 -207 -86t-86 -207v-753q0 -121 86 -207t207 -86h98q102 0 181 62.5t104 158.5l47 -14q-29 -113 -121 -184.5t-211 -71.5h-98q-143 0 -242.5 99
t-99.5 243v753q0 141 99 241.5t243 100.5h98q119 0 211 -72.5t121 -183.5z" />
    <glyph glyph-name="ccaron" unicode="&#x10d;" 
d="M379 1432l35 34l215 -215l217 215l35 -34l-230 -230h-43zM248 324v397q0 141 99 241.5t243 100.5h74q119 0 211 -74t120 -186l-47 -12q-23 96 -102.5 159.5t-181.5 63.5h-74q-121 0 -207 -86t-86 -207v-397q0 -121 86 -207t207 -86h74q102 0 182 63.5t102 159.5l47 -12
q-29 -113 -121 -186.5t-210 -73.5h-74q-143 0 -242.5 100.5t-99.5 241.5z" />
    <glyph glyph-name="Dcaron" unicode="&#x10e;" 
d="M342 1788l35 35l215 -215l217 215l35 -35l-230 -229h-43zM238 0v1401h421q143 0 244 -99.5t101 -242.5v-717q0 -143 -100.5 -242.5t-244.5 -99.5h-421zM287 49h372q123 0 209 86t86 207v717q0 121 -86 207t-209 86h-372v-1303z" />
    <glyph glyph-name="dcaron" unicode="&#x10f;" 
d="M1034 1614h244v-53q0 -106 -61.5 -190.5t-157.5 -121.5l-15 47q82 31 133.5 105t51.5 164h-195v49zM915 879v522h50v-1401h-50v166q-43 -84 -124.5 -134t-178.5 -50h-63q-143 0 -242.5 100t-99.5 242v397q0 141 99.5 241.5t242.5 100.5h63q96 0 178 -50t125 -134zM623 31
q121 0 206.5 86t85.5 207v397q0 121 -86 207t-206 86h-74q-123 0 -208 -86t-85 -207v-397q0 -121 85 -207t208 -86h74z" />
    <glyph glyph-name="Dcroat" unicode="&#x110;" 
d="M686 1401q143 0 243.5 -99.5t100.5 -242.5v-717q0 -143 -100.5 -242.5t-243.5 -99.5h-422v676h-153v49h153v676h422zM981 342v717q0 121 -86 207t-209 86h-373v-627h314v-49h-314v-627h373q123 0 209 86t86 207z" />
    <glyph glyph-name="dcroat" unicode="&#x111;" 
d="M1116 1264v-50h-141v-1214h-49v166q-43 -84 -125 -134t-178 -50h-64q-143 0 -242.5 100t-99.5 242v397q0 141 99.5 241.5t242.5 100.5h64q96 0 178 -50t125 -134v335h-334v50h334v178h49v-178h141zM633 31q121 0 207 86t86 207v397q0 121 -86 207t-207 86h-74
q-123 0 -208 -86t-85 -207v-397q0 -121 85 -207t208 -86h74z" />
    <glyph glyph-name="Emacron" unicode="&#x112;" 
d="M358 1593v49h562v-49h-562zM256 0v1401h766v-49h-717v-627h651v-49h-651v-627h717v-49h-766z" />
    <glyph glyph-name="emacron" unicode="&#x113;" 
d="M334 1237v49h561v-49h-561zM578 1063h73q141 0 241.5 -100.5t100.5 -241.5v-193h-708v-204q0 -121 85 -207t208 -86h73q102 0 182 63.5t103 159.5l47 -12q-29 -113 -121 -186.5t-211 -73.5h-73q-143 0 -242.5 100t-99.5 242v397q0 141 99.5 241.5t242.5 100.5zM285 578
h659v143q0 121 -86 207t-207 86h-73q-123 0 -208 -86t-85 -207v-143z" />
    <glyph glyph-name="Ebreve" unicode="&#x114;" 
d="M436 1743h49q0 -63 44 -108.5t110 -45.5q63 0 108.5 45t45.5 109h49q0 -84 -59.5 -143.5t-143.5 -59.5t-143.5 59.5t-59.5 143.5zM256 0v1401h766v-49h-717v-627h651v-49h-651v-627h717v-49h-766z" />
    <glyph glyph-name="ebreve" unicode="&#x115;" 
d="M412 1386h49q0 -63 44 -108t109 -45q63 0 108.5 45t45.5 108h49q0 -84 -59.5 -143t-143.5 -59t-143 59t-59 143zM578 1063h73q141 0 241.5 -100.5t100.5 -241.5v-193h-708v-204q0 -121 85 -207t208 -86h73q102 0 182 63.5t103 159.5l47 -12q-29 -113 -121 -186.5
t-211 -73.5h-73q-143 0 -242.5 100t-99.5 242v397q0 141 99.5 241.5t242.5 100.5zM285 578h659v143q0 121 -86 207t-207 86h-73q-123 0 -208 -86t-85 -207v-143z" />
    <glyph glyph-name="Edotaccent" unicode="&#x116;" 
d="M614 1546v248h50v-248h-50zM256 0v1401h766v-49h-717v-627h651v-49h-651v-627h717v-49h-766z" />
    <glyph glyph-name="edotaccent" unicode="&#x117;" 
d="M590 1190v248h49v-248h-49zM578 1063h73q141 0 241.5 -100.5t100.5 -241.5v-193h-708v-204q0 -121 85 -207t208 -86h73q102 0 182 63.5t103 159.5l47 -12q-29 -113 -121 -186.5t-211 -73.5h-73q-143 0 -242.5 100t-99.5 242v397q0 141 99.5 241.5t242.5 100.5zM285 578
h659v143q0 121 -86 207t-207 86h-73q-123 0 -208 -86t-85 -207v-143z" />
    <glyph glyph-name="Eogonek" unicode="&#x118;" 
d="M1176 -307h10v-49h-10q-84 0 -143.5 59t-59.5 143v154h-717v1401h766v-49h-717v-627h651v-49h-651v-627h717v-203q0 -63 45.5 -108t108.5 -45z" />
    <glyph glyph-name="eogonek" unicode="&#x119;" 
d="M993 528h-708v-204q0 -121 85 -207t208 -86h73q102 0 182 63.5t103 159.5l47 -12q-29 -113 -121 -186.5t-211 -73.5h-12v-146q0 -63 45 -108t109 -45h10v-50h-10q-84 0 -143.5 59.5t-59.5 143.5v146h-12q-143 0 -242.5 100t-99.5 242v397q0 141 99 241.5t243 100.5h73
q141 0 241.5 -100.5t100.5 -241.5v-193zM285 721v-143h659v143q0 121 -86 207t-207 86h-73q-123 0 -208 -86t-85 -207z" />
    <glyph glyph-name="Ecaron" unicode="&#x11a;" 
d="M389 1788l35 35l215 -215l217 215l35 -35l-229 -229h-44zM256 0v1401h766v-49h-717v-627h651v-49h-651v-627h717v-49h-766z" />
    <glyph glyph-name="ecaron" unicode="&#x11b;" 
d="M365 1432l34 34l215 -215l217 215l35 -34l-229 -230h-43zM578 1063h73q141 0 241.5 -100.5t100.5 -241.5v-193h-708v-204q0 -121 85 -207t208 -86h73q102 0 182 63.5t103 159.5l47 -12q-29 -113 -121 -186.5t-211 -73.5h-73q-143 0 -242.5 100t-99.5 242v397
q0 141 99.5 241.5t242.5 100.5zM285 578h659v143q0 121 -86 207t-207 86h-73q-123 0 -208 -86t-85 -207v-143z" />
    <glyph glyph-name="Gcircumflex" unicode="&#x11c;" 
d="M365 1579l229 229h43l229 -229l-35 -35l-217 215l-215 -215zM995 1163l-47 -14q-25 96 -103.5 158.5t-180.5 62.5h-99q-121 0 -207 -86t-86 -207v-753q0 -121 86 -207t207 -86h99q121 0 206.5 86t85.5 207v352h-321v49h371v-401q0 -141 -100.5 -241.5t-241.5 -100.5h-99
q-141 0 -241.5 100t-100.5 242v753q0 141 100.5 241.5t241.5 100.5h99q119 0 210.5 -72.5t120.5 -183.5z" />
    <glyph glyph-name="gcircumflex" unicode="&#x11d;" 
d="M592 1403l-215 -215l-35 35l229 229h43l230 -229l-35 -35zM926 1044h49v-1077q0 -141 -99.5 -241.5t-242.5 -100.5h-74q-119 0 -211 74t-121 186l47 13q23 -96 103 -160t182 -64h74q123 0 208 86t85 207v295q-43 -84 -124 -133t-179 -49h-64q-141 0 -241.5 100.5
t-100.5 241.5v299q0 143 100.5 242.5t241.5 99.5h64q98 0 179 -49t124 -133v163zM633 129q123 0 208 86t85 207v299q0 121 -85 207t-208 86h-74q-121 0 -207 -86t-86 -207v-299q0 -121 86 -207t207 -86h74z" />
    <glyph glyph-name="Gbreve" unicode="&#x11e;" 
d="M412 1743h49q0 -63 44 -108.5t109 -45.5q63 0 108.5 45t45.5 109h49q0 -84 -59.5 -143.5t-143.5 -59.5t-143 59.5t-59 143.5zM995 1163l-47 -14q-25 96 -103.5 158.5t-180.5 62.5h-99q-121 0 -207 -86t-86 -207v-753q0 -121 86 -207t207 -86h99q121 0 206.5 86t85.5 207
v352h-321v49h371v-401q0 -141 -100.5 -241.5t-241.5 -100.5h-99q-141 0 -241.5 100t-100.5 242v753q0 141 100.5 241.5t241.5 100.5h99q119 0 210.5 -72.5t120.5 -183.5z" />
    <glyph glyph-name="gbreve" unicode="&#x11f;" 
d="M592 1184q-84 0 -143.5 59.5t-59.5 142.5h49q0 -63 45 -108t108.5 -45t108.5 45t45 108h50q0 -84 -59.5 -143t-143.5 -59zM926 1044h49v-1077q0 -141 -99.5 -241.5t-242.5 -100.5h-74q-119 0 -211 74t-121 186l47 13q23 -96 103 -160t182 -64h74q123 0 208 86t85 207v295
q-43 -84 -124 -133t-179 -49h-64q-141 0 -241.5 100.5t-100.5 241.5v299q0 143 100.5 242.5t241.5 99.5h64q98 0 179 -49t124 -133v163zM633 129q123 0 208 86t85 207v299q0 121 -85 207t-208 86h-74q-121 0 -207 -86t-86 -207v-299q0 -121 86 -207t207 -86h74z" />
    <glyph glyph-name="Gdotaccent" unicode="&#x120;" 
d="M590 1546v248h49v-248h-49zM995 1163l-47 -14q-25 96 -103.5 158.5t-180.5 62.5h-99q-121 0 -207 -86t-86 -207v-753q0 -121 86 -207t207 -86h99q121 0 206.5 86t85.5 207v352h-321v49h371v-401q0 -141 -100.5 -241.5t-241.5 -100.5h-99q-141 0 -241.5 100t-100.5 242
v753q0 141 100.5 241.5t241.5 100.5h99q119 0 210.5 -72.5t120.5 -183.5z" />
    <glyph glyph-name="gdotaccent" unicode="&#x121;" 
d="M616 1438v-248h-49v248h49zM926 1044h49v-1077q0 -141 -99.5 -241.5t-242.5 -100.5h-74q-119 0 -211 74t-121 186l47 13q23 -96 103 -160t182 -64h74q123 0 208 86t85 207v295q-43 -84 -124 -133t-179 -49h-64q-141 0 -241.5 100.5t-100.5 241.5v299q0 143 100.5 242.5
t241.5 99.5h64q98 0 179 -49t124 -133v163zM633 129q123 0 208 86t85 207v299q0 121 -85 207t-208 86h-74q-121 0 -207 -86t-86 -207v-299q0 -121 86 -207t207 -86h74z" />
    <glyph glyph-name="Gcommaaccent" unicode="&#x122;" 
d="M995 1163l-47 -14q-25 96 -103.5 158.5t-180.5 62.5h-99q-121 0 -207 -86t-86 -207v-753q0 -121 86 -207t207 -86h99q121 0 206.5 86t85.5 207v352h-321v49h371v-401q0 -141 -100.5 -241.5t-241.5 -100.5h-99q-141 0 -241.5 100t-100.5 242v753q0 141 100.5 241.5
t241.5 100.5h99q119 0 210.5 -72.5t120.5 -183.5zM492 -193h243v-53q0 -106 -61.5 -190t-157.5 -121l-14 47q82 31 133 104.5t51 163.5h-194v49z" />
    <glyph glyph-name="gcommaaccent" unicode="&#x123;" 
d="M713 1284v-49h-244v53q0 106 61.5 190.5t157.5 120.5l14 -47q-82 -31 -133 -104.5t-51 -163.5h195zM926 1044h49v-1077q0 -141 -99.5 -241.5t-242.5 -100.5h-74q-119 0 -211 74t-121 186l47 13q23 -96 103 -160t182 -64h74q123 0 208 86t85 207v295q-43 -84 -124 -133
t-179 -49h-64q-141 0 -241.5 100.5t-100.5 241.5v299q0 143 100.5 242.5t241.5 99.5h64q98 0 179 -49t124 -133v163zM633 129q123 0 208 86t85 207v299q0 121 -85 207t-208 86h-74q-121 0 -207 -86t-86 -207v-299q0 -121 86 -207t207 -86h74z" />
    <glyph glyph-name="Hcircumflex" unicode="&#x124;" 
d="M358 1579l230 229h43l229 -229l-35 -35l-217 215l-215 -215zM938 1401h49v-1401h-49v676h-659v-676h-50v1401h50v-676h659v676z" />
    <glyph glyph-name="hcircumflex" unicode="&#x125;" 
d="M477 1544l-217 215l-215 -215l-35 35l230 229h43l229 -229zM651 1063q143 0 242.5 -100.5t99.5 -241.5v-721h-49v721q0 121 -85 207t-208 86h-73q-121 0 -207 -86t-86 -207v-721h-49v1401h49v-522q43 84 125 134t178 50h63z" />
    <glyph glyph-name="Hbar" unicode="&#x126;" 
d="M1171 1092v-50h-184v-1042h-49v676h-659v-676h-50v1042h-184v50h184v309h50v-309h659v309h49v-309h184zM938 725v317h-659v-317h659z" />
    <glyph glyph-name="hbar" unicode="&#x127;" 
d="M651 1063q143 0 242.5 -100.5t99.5 -241.5v-721h-49v721q0 121 -85 207t-208 86h-73q-121 0 -207 -86t-86 -207v-721h-49v1214h-142v50h142v178h49v-178h333v-50h-333v-335q43 84 125 134t178 50h63z" />
    <glyph glyph-name="Itilde" unicode="&#x128;" 
d="M221 1548v13q0 90 63.5 153.5t155.5 63.5q115 0 174 -95q70 -98 162 -98q70 0 120 50.5t50 119.5v12h49v-12q0 -90 -64.5 -154.5t-154.5 -64.5q-113 0 -174 94q-63 98 -162 99q-70 0 -120 -49.5t-50 -118.5v-13h-49zM229 49h355v1303h-351v49h750v-49h-350v-1303h354v-49
h-758v49z" />
    <glyph glyph-name="itilde" unicode="&#x129;" 
d="M264 1192v12q0 90 63.5 153.5t155.5 63.5q115 0 174 -94q70 -98 162 -98q70 0 120 50t50 120v12h49v-12q0 -90 -64.5 -154.5t-154.5 -64.5q-113 0 -174 94q-63 98 -162 98q-70 0 -120 -49t-50 -119v-12h-49zM309 1044h367v-995h360v-49h-794v49h385v946h-318v49z" />
    <glyph glyph-name="Imacron" unicode="&#x12a;" 
d="M328 1593v49h561v-49h-561zM229 49h355v1303h-351v49h750v-49h-350v-1303h354v-49h-758v49z" />
    <glyph glyph-name="imacron" unicode="&#x12b;" 
d="M371 1237v49h561v-49h-561zM309 1044h367v-995h360v-49h-794v49h385v946h-318v49z" />
    <glyph glyph-name="Ibreve" unicode="&#x12c;" 
d="M406 1743h49q0 -63 45 -108.5t108.5 -45.5t108.5 45t45 109h49q0 -84 -59.5 -143.5t-143.5 -59.5t-143 59.5t-59 143.5zM229 49h355v1303h-351v49h750v-49h-350v-1303h354v-49h-758v49z" />
    <glyph glyph-name="ibreve" unicode="&#x12d;" 
d="M449 1386h49q0 -63 44 -108t109 -45q63 0 108.5 45t45.5 108h49q0 -84 -59.5 -143t-143.5 -59t-143 59t-59 143zM309 1044h367v-995h360v-49h-794v49h385v946h-318v49z" />
    <glyph glyph-name="Iogonek" unicode="&#x12e;" 
d="M1141 -307h10v-49h-10q-84 0 -143.5 59t-59.5 143v154h-709v49h355v1303h-351v49h750v-49h-350v-1303h354v-203q0 -63 45.5 -108t108.5 -45z" />
    <glyph glyph-name="iogonek" unicode="&#x12f;" 
d="M676 1438v-248h-49v248h49zM1190 -307h10v-49h-10q-84 0 -143.5 59t-59.5 143v154h-745v49h385v946h-318v49h367v-995h360v-203q0 -63 45.5 -108t108.5 -45z" />
    <glyph glyph-name="Idotaccent" unicode="&#x130;" 
d="M584 1546v248h49v-248h-49zM229 49h355v1303h-351v49h750v-49h-350v-1303h354v-49h-758v49z" />
    <glyph glyph-name="dotlessi" unicode="&#x131;" 
d="M309 1044h367v-995h360v-49h-794v49h385v946h-318v49z" />
    <glyph glyph-name="Jcircumflex" unicode="&#x134;" 
d="M358 1579l230 229h43l229 -229l-35 -35l-217 215l-215 -215zM254 1401h702v-1077q0 -141 -100 -241.5t-242 -100.5h-69q-119 0 -211 72.5t-121 183.5l47 14q23 -96 102.5 -158.5t182.5 -62.5h69q121 0 207 86t86 207v1028h-653v49z" />
    <glyph glyph-name="jcircumflex" unicode="&#x135;" 
d="M537 1223l229 229h43l229 -229l-34 -35l-218 215l-215 -215zM266 1044h545v-1079q0 -141 -100.5 -240.5t-239.5 -99.5q-121 0 -212 73t-118 185l47 15q23 -98 101 -161t182 -63q119 0 205 85t86 206v1030h-496v49z" />
    <glyph glyph-name="Kcommaaccent" unicode="&#x136;" 
d="M242 1401h49v-670h266l307 338q27 31 54.5 89.5t27.5 113.5v129h49v-129q0 -59 -31.5 -130t-62.5 -106l-303 -329l322 -342q31 -33 62.5 -105t31.5 -131v-129h-49v129q0 57 -29 116.5t-53 86.5l-328 350h-264v-682h-49v1401zM502 -193h243v-53q0 -106 -61 -190t-158 -121
l-14 47q82 31 133 104.5t51 163.5h-194v49z" />
    <glyph glyph-name="kcommaaccent" unicode="&#x137;" 
d="M260 1401h49v-860h295l215 174q31 27 63.5 83t32.5 113v133h50v-133q0 -51 -28 -117.5t-85 -115.5l-203 -162l230 -176q41 -31 72.5 -89t31.5 -122v-129h-49v129q0 47 -21.5 90t-41 62.5t-23.5 19.5l-244 191h-295v-492h-49v1401zM502 -193h243v-53q0 -106 -61 -190
t-158 -121l-14 47q82 31 133 104.5t51 163.5h-194v49z" />
    <glyph glyph-name="kgreenlandic" unicode="&#x138;" 
d="M260 1044h49v-503h295l215 174q31 27 63.5 83t32.5 113v133h50v-133q0 -51 -28 -117.5t-85 -115.5l-203 -162l230 -176q41 -31 72.5 -89t31.5 -122v-129h-49v129q0 47 -21.5 90t-41 62.5t-23.5 19.5l-244 191h-295v-492h-49v1044z" />
    <glyph glyph-name="Lacute" unicode="&#x139;" 
d="M303 1511l-35 35l219 221l37 -34zM279 1401h49v-1352h690v-49h-739v1401z" />
    <glyph glyph-name="lacute" unicode="&#x13a;" 
d="M489 1511l-34 35l219 221l37 -34zM1139 240q-29 -113 -121 -185.5t-211 -72.5q-141 0 -240.5 99t-99.5 241v1030h-307v49h356v-1079q0 -121 86 -206t205 -85q102 0 181 62.5t104 160.5z" />
    <glyph glyph-name="Lcommaaccent" unicode="&#x13b;" 
d="M279 1401h49v-1352h690v-49h-739v1401zM526 -193h244v-53q0 -106 -61.5 -190t-157.5 -121l-14 47q82 31 133 104.5t51 163.5h-195v49z" />
    <glyph glyph-name="lcommaaccent" unicode="&#x13c;" 
d="M1139 240q-29 -113 -121 -185.5t-211 -72.5q-141 0 -240.5 99t-99.5 241v1030h-307v49h356v-1079q0 -121 86 -206t205 -85q102 0 181 62.5t104 160.5zM684 -193h244v-53q0 -106 -61.5 -190t-157.5 -121l-15 47q82 31 133.5 104.5t51.5 163.5h-195v49z" />
    <glyph glyph-name="Lcaron" unicode="&#x13d;" 
d="M279 1401h49v-1352h690v-49h-739v1401zM453 1401h243v-53q0 -106 -61.5 -190.5t-157.5 -121.5l-14 47q82 31 133 105t51 164h-194v49z" />
    <glyph glyph-name="lcaron" unicode="&#x13e;" 
d="M1139 240q-29 -113 -121 -185.5t-211 -72.5q-141 0 -240.5 99t-99.5 241v1030h-307v49h356v-1079q0 -121 86 -206t205 -85q102 0 181 62.5t104 160.5zM641 1401h244v-53q0 -106 -61.5 -190.5t-157.5 -121.5l-15 47q82 31 133.5 105t51.5 164h-195v49z" />
    <glyph glyph-name="Ldot" unicode="&#x13f;" 
d="M279 1401h49v-1352h690v-49h-739v1401zM584 573v256h49v-256h-49z" />
    <glyph glyph-name="ldot" unicode="&#x140;" 
d="M1139 240q-29 -113 -121 -185.5t-211 -72.5q-141 0 -240.5 99t-99.5 241v1030h-307v49h356v-1079q0 -121 86 -206t205 -85q102 0 181 62.5t104 160.5zM627 627v256h49v-256h-49z" />
    <glyph glyph-name="Lslash" unicode="&#x141;" 
d="M379 49h690v-49h-739v575l-150 -149l-35 35l185 184v756h49v-707l311 312l33 -35l-344 -346v-576z" />
    <glyph glyph-name="lslash" unicode="&#x142;" 
d="M1092 254l47 -14q-29 -113 -121 -185.5t-211 -72.5q-141 0 -240.5 99t-99.5 241v352l-127 -127l-35 35l162 161v609h-307v49h356v-608l164 163l35 -36l-199 -197v-401q0 -121 86 -206t205 -85q102 0 181 62.5t104 160.5z" />
    <glyph glyph-name="Nacute" unicode="&#x143;" 
d="M608 1511l-35 35l220 221l36 -34zM211 1401h61l684 -1315v1315h50v-1401h-62l-684 1315v-1315h-49v1401z" />
    <glyph glyph-name="nacute" unicode="&#x144;" 
d="M840 1376l-222 -221l-34 35l219 221zM651 1063q143 0 242.5 -100.5t99.5 -241.5v-721h-49v721q0 121 -85 207t-208 86h-73q-121 0 -207 -86t-86 -207v-721h-49v1044h49v-165q43 84 125 134t178 50h63z" />
    <glyph glyph-name="Ncommaaccent" unicode="&#x145;" 
d="M211 1401h61l684 -1315v1315h50v-1401h-62l-684 1315v-1315h-49v1401zM485 -193h244v-53q0 -106 -61.5 -190t-157.5 -121l-14 47q82 31 133 104.5t51 163.5h-195v49z" />
    <glyph glyph-name="ncommaaccent" unicode="&#x146;" 
d="M651 1063q143 0 242.5 -100.5t99.5 -241.5v-721h-49v721q0 121 -85 207t-208 86h-73q-121 0 -207 -86t-86 -207v-721h-49v1044h49v-165q43 84 125 134t178 50h63zM496 -242v49h243v-53q0 -106 -61.5 -190t-157.5 -121l-14 47q82 31 133 104.5t51 163.5h-194z" />
    <glyph glyph-name="Ncaron" unicode="&#x147;" 
d="M358 1788l35 35l215 -215l217 215l35 -35l-229 -229h-43zM211 1401h61l684 -1315v1315h50v-1401h-62l-684 1315v-1315h-49v1401z" />
    <glyph glyph-name="ncaron" unicode="&#x148;" 
d="M641 1202h-43l-229 230l34 34l215 -215l218 215l34 -34zM651 1063q143 0 242.5 -100.5t99.5 -241.5v-721h-49v721q0 121 -85 207t-208 86h-73q-121 0 -207 -86t-86 -207v-721h-49v1044h49v-165q43 84 125 134t178 50h63z" />
    <glyph glyph-name="napostrophe" unicode="&#x149;" 
d="M324 1458v-53q0 -106 -61.5 -190.5t-158.5 -120.5l-14 47q82 31 133 104.5t51 163.5h-194v49h244zM651 1063q143 0 242.5 -100.5t99.5 -241.5v-721h-49v721q0 121 -85 207t-208 86h-73q-121 0 -207 -86t-86 -207v-721h-49v1044h49v-165q43 84 125 134t178 50h63z" />
    <glyph glyph-name="Eng" unicode="&#x14a;" 
d="M956 1401h50v-1555q0 -84 -59.5 -143t-143.5 -59h-10v49h10q63 0 108 45t45 108v154h-12l-684 1315v-1315h-49v1401h61l684 -1315v1315z" />
    <glyph glyph-name="eng" unicode="&#x14b;" 
d="M651 1063q143 0 242.5 -100.5t99.5 -241.5v-875q0 -84 -59.5 -143t-142.5 -59h-11v49h11q63 0 108 45t45 108v875q0 121 -85 207t-208 86h-73q-121 0 -207 -86t-86 -207v-721h-49v1044h49v-165q43 84 125 134t178 50h63z" />
    <glyph glyph-name="Omacron" unicode="&#x14c;" 
d="M328 1593v49h561v-49h-561zM559 -18q-141 0 -241.5 100t-100.5 242v753q0 141 100.5 241.5t241.5 100.5h98q143 0 242.5 -100t99.5 -242v-753q0 -141 -99 -241.5t-243 -100.5h-98zM559 31h98q123 0 208 86t85 207v753q0 121 -85 207t-208 86h-98q-121 0 -207 -86
t-86 -207v-753q0 -121 86 -207t207 -86z" />
    <glyph glyph-name="omacron" unicode="&#x14d;" 
d="M328 1237v49h561v-49h-561zM571 1063h74q143 0 242.5 -100.5t99.5 -241.5v-397q0 -141 -99.5 -241.5t-242.5 -100.5h-74q-141 0 -241.5 100t-100.5 242v397q0 141 100.5 241.5t241.5 100.5zM571 1014q-121 0 -206.5 -86t-85.5 -207v-397q0 -121 86 -207t206 -86h74
q123 0 208 86t85 207v397q0 121 -85 207t-208 86h-74z" />
    <glyph glyph-name="Obreve" unicode="&#x14e;" 
d="M406 1743h49q0 -63 45 -108.5t108.5 -45.5t108.5 45t45 109h49q0 -84 -59.5 -143.5t-143.5 -59.5t-143 59.5t-59 143.5zM559 -18q-141 0 -241.5 100t-100.5 242v753q0 141 100.5 241.5t241.5 100.5h98q143 0 242.5 -100t99.5 -242v-753q0 -141 -99 -241.5t-243 -100.5
h-98zM559 31h98q123 0 208 86t85 207v753q0 121 -85 207t-208 86h-98q-121 0 -207 -86t-86 -207v-753q0 -121 86 -207t207 -86z" />
    <glyph glyph-name="obreve" unicode="&#x14f;" 
d="M406 1386h49q0 -63 45 -108t108.5 -45t108.5 45t45 108h49q0 -84 -59.5 -143t-143.5 -59t-143 59t-59 143zM571 1063h74q143 0 242.5 -100.5t99.5 -241.5v-397q0 -141 -99.5 -241.5t-242.5 -100.5h-74q-141 0 -241.5 100t-100.5 242v397q0 141 100.5 241.5t241.5 100.5z
M571 1014q-121 0 -206.5 -86t-85.5 -207v-397q0 -121 86 -207t206 -86h74q123 0 208 86t85 207v397q0 121 -85 207t-208 86h-74z" />
    <glyph glyph-name="Ohungarumlaut" unicode="&#x150;" 
d="M498 1511l-35 35l219 221l37 -34zM743 1511l-34 35l219 221l37 -34zM559 -18q-141 0 -241.5 100t-100.5 242v753q0 141 100.5 241.5t241.5 100.5h98q143 0 242.5 -100t99.5 -242v-753q0 -141 -99 -241.5t-243 -100.5h-98zM559 31h98q123 0 208 86t85 207v753
q0 121 -85 207t-208 86h-98q-121 0 -207 -86t-86 -207v-753q0 -121 86 -207t207 -86z" />
    <glyph glyph-name="ohungarumlaut" unicode="&#x151;" 
d="M498 1155l-35 35l219 221l37 -35zM743 1155l-34 35l219 221l37 -35zM571 1063h74q143 0 242.5 -100.5t99.5 -241.5v-397q0 -141 -99.5 -241.5t-242.5 -100.5h-74q-141 0 -241.5 100t-100.5 242v397q0 141 100.5 241.5t241.5 100.5zM571 1014q-121 0 -206.5 -86
t-85.5 -207v-397q0 -121 86 -207t206 -86h74q123 0 208 86t85 207v397q0 121 -85 207t-208 86h-74z" />
    <glyph glyph-name="OE" unicode="&#x152;" 
d="M1110 1352h-377v-627h316v-49h-316v-627h377v-49h-426v109q-29 -57 -85 -92t-124 -35q-106 0 -182 74.5t-76 183.5v921q0 109 76 183.5t182 74.5q68 0 124 -34.5t85 -92.5v109h426v-49zM475 31q86 0 147.5 60.5t61.5 148.5v921q0 88 -61.5 148.5t-147.5 60.5
t-147.5 -60.5t-61.5 -148.5v-921q0 -88 61.5 -148.5t147.5 -60.5z" />
    <glyph glyph-name="oe" unicode="&#x153;" 
d="M1092 500h-465v-260q0 -86 60.5 -147.5t148.5 -61.5q68 0 122 41t74 102l47 -14q-25 -78 -92 -128t-151 -50q-78 0 -141.5 44t-92.5 113q-29 -70 -92.5 -113.5t-140.5 -43.5q-106 0 -181 75.5t-75 182.5v565q0 106 74.5 182t181.5 76q78 0 141 -44t92 -114
q29 70 92.5 114t141.5 44q106 0 181 -76t75 -182v-305zM578 240v565q0 88 -60.5 148.5t-148.5 60.5q-86 0 -146.5 -60.5t-60.5 -148.5v-565q0 -86 60.5 -147.5t146.5 -61.5q88 0 148.5 61.5t60.5 147.5zM627 805v-256h415v256q0 88 -60 148.5t-146 60.5q-88 0 -148.5 -60.5
t-60.5 -148.5z" />
    <glyph glyph-name="Racute" unicode="&#x154;" 
d="M823 1733l-221 -222l-35 35l219 221zM922 365q31 -31 62.5 -94.5t31.5 -141.5v-129h-49v129q0 47 -18.5 94t-35 71.5t-28.5 37.5l-262 282h-326v-614h-49v1401h416q143 0 242.5 -100.5t99.5 -241.5v-103q0 -135 -92.5 -234t-227.5 -108zM297 1352v-688h367
q123 0 207.5 86t84.5 206v103q0 121 -85 207t-207 86h-367z" />
    <glyph glyph-name="racute" unicode="&#x155;" 
d="M743 1155l-34 35l219 221l37 -35zM156 0v49h209v672q0 143 100 242.5t242 99.5h73q119 0 211 -72.5t121 -187.5l-47 -12q-23 98 -101.5 160.5t-183.5 62.5h-73q-121 0 -207 -86t-86 -207v-672h524v-49h-782z" />
    <glyph glyph-name="Rcommaaccent" unicode="&#x156;" 
d="M922 365q31 -31 62.5 -94.5t31.5 -141.5v-129h-49v129q0 47 -18.5 94t-35 71.5t-28.5 37.5l-262 282h-326v-614h-49v1401h416q143 0 242.5 -100.5t99.5 -241.5v-103q0 -135 -92.5 -234t-227.5 -108zM297 1352v-688h367q123 0 207.5 86t84.5 206v103q0 121 -85 207
t-207 86h-367zM502 -242v49h243v-53q0 -106 -61 -190t-158 -121l-14 47q82 31 133 104.5t51 163.5h-194z" />
    <glyph glyph-name="rcommaaccent" unicode="&#x157;" 
d="M156 0v49h209v672q0 143 100 242.5t242 99.5h73q119 0 211 -72.5t121 -187.5l-47 -12q-23 98 -101.5 160.5t-183.5 62.5h-73q-121 0 -207 -86t-86 -207v-672h524v-49h-782zM424 -193h244v-53q0 -106 -61.5 -190t-157.5 -121l-15 47q82 31 133 104.5t51 163.5h-194v49z
" />
    <glyph glyph-name="Rcaron" unicode="&#x158;" 
d="M625 1559h-43l-230 229l35 35l215 -215l217 215l35 -35zM922 365q31 -31 62.5 -94.5t31.5 -141.5v-129h-49v129q0 47 -18.5 94t-35 71.5t-28.5 37.5l-262 282h-326v-614h-49v1401h416q143 0 242.5 -100.5t99.5 -241.5v-103q0 -135 -92.5 -234t-227.5 -108zM297 1352v-688
h367q123 0 207.5 86t84.5 206v103q0 121 -85 207t-207 86h-367z" />
    <glyph glyph-name="rcaron" unicode="&#x159;" 
d="M494 1432l34 34l215 -215l218 215l34 -34l-229 -230h-43zM156 0v49h209v672q0 143 100 242.5t242 99.5h73q119 0 211 -72.5t121 -187.5l-47 -12q-23 98 -101.5 160.5t-183.5 62.5h-73q-121 0 -207 -86t-86 -207v-672h524v-49h-782z" />
    <glyph glyph-name="Sacute" unicode="&#x15a;" 
d="M606 1511l-35 35l220 221l36 -34zM188 238l48 14q23 -96 102.5 -158.5t181.5 -62.5h135q121 0 207 86t86 207q0 233 -239 325l-207 80q-139 51 -213 133t-74 215q0 143 99.5 242.5t242.5 99.5h92q119 0 211 -71.5t121 -184.5l-47 -14q-25 96 -103.5 158.5t-181.5 62.5
h-92q-123 0 -208 -86t-85 -207q0 -111 61.5 -181.5t194.5 -121.5l207 -80q270 -104 270 -370q0 -141 -100 -241.5t-242 -100.5h-135q-119 0 -211 72.5t-121 183.5z" />
    <glyph glyph-name="sacute" unicode="&#x15b;" 
d="M621 1155l-35 35l219 221l37 -35zM231 164l50 14q23 -66 79 -106.5t127 -40.5h234q90 0 154.5 64.5t64.5 154.5q0 82 -50 148.5t-140 80.5l-263 41q-109 16 -173 90t-64 185q0 113 78 190.5t190 77.5h197q88 0 157.5 -51t98.5 -133l-49 -15q-23 68 -79.5 109t-127.5 41
h-197q-90 0 -154.5 -64.5t-64.5 -154.5q0 -94 53.5 -153.5t143.5 -74.5l262 -39q102 -16 166.5 -94t64.5 -184q0 -111 -77.5 -189.5t-190.5 -78.5h-234q-88 0 -157.5 50t-98.5 132z" />
    <glyph glyph-name="Scircumflex" unicode="&#x15c;" 
d="M356 1579l230 229h43l229 -229l-35 -35l-217 215l-215 -215zM188 238l48 14q23 -96 102.5 -158.5t181.5 -62.5h135q121 0 207 86t86 207q0 233 -239 325l-207 80q-139 51 -213 133t-74 215q0 143 99.5 242.5t242.5 99.5h92q119 0 211 -71.5t121 -184.5l-47 -14
q-25 96 -103.5 158.5t-181.5 62.5h-92q-123 0 -208 -86t-85 -207q0 -111 61.5 -181.5t194.5 -121.5l207 -80q270 -104 270 -370q0 -141 -100 -241.5t-242 -100.5h-135q-119 0 -211 72.5t-121 183.5z" />
    <glyph glyph-name="scircumflex" unicode="&#x15d;" 
d="M371 1223l229 229h43l229 -229l-34 -35l-217 215l-215 -215zM231 164l50 14q23 -66 79 -106.5t127 -40.5h234q90 0 154.5 64.5t64.5 154.5q0 82 -50 148.5t-140 80.5l-263 41q-109 16 -173 90t-64 185q0 113 78 190.5t190 77.5h197q88 0 157.5 -51t98.5 -133l-49 -15
q-23 68 -79.5 109t-127.5 41h-197q-90 0 -154.5 -64.5t-64.5 -154.5q0 -94 53.5 -153.5t143.5 -74.5l262 -39q102 -16 166.5 -94t64.5 -184q0 -111 -77.5 -189.5t-190.5 -78.5h-234q-88 0 -157.5 50t-98.5 132z" />
    <glyph glyph-name="Scedilla" unicode="&#x15e;" 
d="M655 -18h-39v-97q76 -8 128.5 -65.5t52.5 -134.5q0 -84 -59.5 -143.5t-143.5 -59.5h-29v49h29q63 0 108.5 45t45.5 108.5t-45.5 108.5t-108.5 45h-27v144h-47q-119 0 -211 72.5t-121 183.5l48 14q23 -96 102.5 -158.5t181.5 -62.5h135q121 0 207 86t86 207
q0 233 -239 325l-207 80q-139 51 -213 133t-74 215q0 143 99.5 242.5t242.5 99.5h92q119 0 211 -71.5t121 -184.5l-47 -14q-25 96 -103.5 158.5t-181.5 62.5h-92q-123 0 -208 -86t-85 -207q0 -111 61.5 -181.5t194.5 -121.5l207 -80q270 -104 270 -370q0 -141 -100.5 -241.5
t-241.5 -100.5z" />
    <glyph glyph-name="scedilla" unicode="&#x15f;" 
d="M721 -18h-88v-97q76 -8 128 -65.5t52 -134.5q0 -84 -59.5 -143.5t-143.5 -59.5h-28v49h28q63 0 108.5 45t45.5 108.5t-45 108.5t-109 45h-26v144h-97q-88 0 -157.5 50t-98.5 132l50 14q23 -66 79 -106.5t127 -40.5h234q90 0 154.5 64.5t64.5 154.5q0 82 -50 148.5
t-140 80.5l-263 41q-109 16 -173 90t-64 185q0 113 78 190.5t190 77.5h197q88 0 157.5 -51t98.5 -133l-49 -15q-23 68 -79.5 109t-127.5 41h-197q-90 0 -154.5 -64.5t-64.5 -154.5q0 -94 53.5 -153.5t143.5 -74.5l262 -39q102 -16 166.5 -94t64.5 -184q0 -111 -77.5 -189.5
t-190.5 -78.5z" />
    <glyph glyph-name="Scaron" unicode="&#x160;" 
d="M356 1788l35 35l215 -215l217 215l35 -35l-229 -229h-43zM188 238l48 14q23 -96 102.5 -158.5t181.5 -62.5h135q121 0 207 86t86 207q0 233 -239 325l-207 80q-139 51 -213 133t-74 215q0 143 99.5 242.5t242.5 99.5h92q119 0 211 -71.5t121 -184.5l-47 -14
q-25 96 -103.5 158.5t-181.5 62.5h-92q-123 0 -208 -86t-85 -207q0 -111 61.5 -181.5t194.5 -121.5l207 -80q270 -104 270 -370q0 -141 -100 -241.5t-242 -100.5h-135q-119 0 -211 72.5t-121 183.5z" />
    <glyph glyph-name="scaron" unicode="&#x161;" 
d="M371 1432l35 34l215 -215l217 215l34 -34l-229 -230h-43zM231 164l50 14q23 -66 79 -106.5t127 -40.5h234q90 0 154.5 64.5t64.5 154.5q0 82 -50 148.5t-140 80.5l-263 41q-109 16 -173 90t-64 185q0 113 78 190.5t190 77.5h197q88 0 157.5 -51t98.5 -133l-49 -15
q-23 68 -79.5 109t-127.5 41h-197q-90 0 -154.5 -64.5t-64.5 -154.5q0 -94 53.5 -153.5t143.5 -74.5l262 -39q102 -16 166.5 -94t64.5 -184q0 -111 -77.5 -189.5t-190.5 -78.5h-234q-88 0 -157.5 50t-98.5 132z" />
    <glyph glyph-name="Tcommaaccent" unicode="&#x162;" 
d="M633 1352v-1467q76 -8 128 -65.5t52 -134.5q0 -84 -59.5 -143.5t-143.5 -59.5h-28v49h28q63 0 108.5 45t45.5 108.5t-45 108.5t-109 45h-26v1514h-398v49h844v-49h-397z" />
    <glyph glyph-name="tcommaaccent" unicode="&#x163;" 
d="M1104 240q-27 -104 -111 -177t-194 -81v-97q76 -8 128 -65.5t52 -134.5q0 -84 -59.5 -143.5t-143.5 -59.5h-28v49h28q63 0 108.5 45t45.5 108.5t-45 108.5t-109 45h-26v144q-133 10 -224.5 108t-91.5 232v673h-282v49h282v283h49v-283h537v-49h-537v-673q0 -121 86 -206
t205 -85q102 0 181 63.5t102 159.5z" />
    <glyph glyph-name="Tcaron" unicode="&#x164;" 
d="M358 1788l35 35l215 -215l217 215l35 -35l-229 -229h-43zM186 1401h844v-49h-397v-1352h-49v1352h-398v49z" />
    <glyph glyph-name="tcaron" unicode="&#x165;" 
d="M649 1550h244v-53q0 -106 -61.5 -190t-157.5 -121l-15 47q82 31 133.5 104.5t51.5 163.5h-195v49zM152 995v49h282v283h49v-283h537v-49h-537v-673q0 -121 86 -206t205 -85q102 0 181 63.5t102 159.5l47 -14q-29 -113 -120 -185.5t-210 -72.5q-139 0 -239.5 100
t-100.5 240v673h-282z" />
    <glyph glyph-name="Tbar" unicode="&#x166;" 
d="M1030 1352h-397v-607h274v-49h-274v-696h-49v696h-275v49h275v607h-398v49h844v-49z" />
    <glyph glyph-name="tbar" unicode="&#x167;" 
d="M1057 254l47 -14q-29 -113 -120 -185.5t-210 -72.5q-139 0 -239.5 100t-100.5 240v299h-205v49h205v325h-282v49h282v283h49v-283h537v-49h-537v-325h308v-49h-308v-299q0 -121 86 -206t205 -85q102 0 181 63.5t102 159.5z" />
    <glyph glyph-name="Utilde" unicode="&#x168;" 
d="M221 1548v13q0 90 63.5 153.5t155.5 63.5q115 0 174 -95q70 -98 162 -98q70 0 120 50.5t50 119.5v12h49v-12q0 -90 -64.5 -154.5t-154.5 -64.5q-113 0 -174 94q-63 98 -162 99q-70 0 -120 -49.5t-50 -118.5v-13h-49zM219 1401h49v-1077q0 -121 86 -207t207 -86h98
q121 0 207 86t86 207v1077h49v-1077q0 -141 -99 -241.5t-243 -100.5h-98q-141 0 -241.5 100t-100.5 242v1077z" />
    <glyph glyph-name="utilde" unicode="&#x169;" 
d="M221 1192v12q0 90 63.5 153.5t155.5 63.5q115 0 174 -94q70 -98 162 -98q70 0 120 50t50 120v12h49v-12q0 -90 -64.5 -154.5t-154.5 -64.5q-113 0 -174 94q-63 98 -162 98q-70 0 -120 -49t-50 -119v-12h-49zM229 1044h50v-720q0 -121 86 -207t206 -86h74q123 0 208 86
t85 207v720h49v-720q0 -141 -99.5 -241.5t-242.5 -100.5h-74q-141 0 -241.5 100t-100.5 242v720z" />
    <glyph glyph-name="Umacron" unicode="&#x16a;" 
d="M328 1593v49h561v-49h-561zM219 1401h49v-1077q0 -121 86 -207t207 -86h98q121 0 207 86t86 207v1077h49v-1077q0 -141 -99 -241.5t-243 -100.5h-98q-141 0 -241.5 100t-100.5 242v1077z" />
    <glyph glyph-name="umacron" unicode="&#x16b;" 
d="M328 1237v49h561v-49h-561zM229 1044h50v-720q0 -121 86 -207t206 -86h74q123 0 208 86t85 207v720h49v-720q0 -141 -99.5 -241.5t-242.5 -100.5h-74q-141 0 -241.5 100t-100.5 242v720z" />
    <glyph glyph-name="Ubreve" unicode="&#x16c;" 
d="M406 1743h49q0 -63 45 -108.5t108.5 -45.5t108.5 45t45 109h49q0 -84 -59.5 -143.5t-143.5 -59.5t-143 59.5t-59 143.5zM219 1401h49v-1077q0 -121 86 -207t207 -86h98q121 0 207 86t86 207v1077h49v-1077q0 -141 -99 -241.5t-243 -100.5h-98q-141 0 -241.5 100
t-100.5 242v1077z" />
    <glyph glyph-name="ubreve" unicode="&#x16d;" 
d="M406 1386h49q0 -63 45 -108t108.5 -45t108.5 45t45 108h49q0 -84 -59.5 -143t-143.5 -59t-143 59t-59 143zM229 1044h50v-720q0 -121 86 -207t206 -86h74q123 0 208 86t85 207v720h49v-720q0 -141 -99.5 -241.5t-242.5 -100.5h-74q-141 0 -241.5 100t-100.5 242v720z" />
    <glyph glyph-name="Uring" unicode="&#x16e;" 
d="M406 1604q0 84 59 143t143 59t143.5 -59t59.5 -143t-59.5 -143.5t-143.5 -59.5t-143 59.5t-59 143.5zM455 1603.5q0 -63.5 45 -108.5t108.5 -45t108.5 45t45 108.5t-45 108.5t-108.5 45t-108.5 -45t-45 -108.5zM219 1401h49v-1077q0 -121 86 -207t207 -86h98
q121 0 207 86t86 207v1077h49v-1077q0 -141 -99 -241.5t-243 -100.5h-98q-141 0 -241.5 100t-100.5 242v1077z" />
    <glyph glyph-name="uring" unicode="&#x16f;" 
d="M406 1247q0 84 59 143.5t143 59.5t143.5 -59.5t59.5 -143.5t-59.5 -143.5t-143.5 -59.5t-143 59.5t-59 143.5zM455 1247.5q0 -63.5 45 -108.5t108.5 -45t108.5 45t45 108.5t-45 108.5t-108.5 45t-108.5 -45t-45 -108.5zM229 1044h50v-720q0 -121 86 -207t206 -86h74
q123 0 208 86t85 207v720h49v-720q0 -141 -99.5 -241.5t-242.5 -100.5h-74q-141 0 -241.5 100t-100.5 242v720z" />
    <glyph glyph-name="Uhungarumlaut" unicode="&#x170;" 
d="M498 1511l-35 35l219 221l37 -34zM743 1511l-34 35l219 221l37 -34zM219 1401h49v-1077q0 -121 86 -207t207 -86h98q121 0 207 86t86 207v1077h49v-1077q0 -141 -99 -241.5t-243 -100.5h-98q-141 0 -241.5 100t-100.5 242v1077z" />
    <glyph glyph-name="uhungarumlaut" unicode="&#x171;" 
d="M498 1155l-35 35l219 221l37 -35zM743 1155l-34 35l219 221l37 -35zM229 1044h50v-720q0 -121 86 -207t206 -86h74q123 0 208 86t85 207v720h49v-720q0 -141 -99.5 -241.5t-242.5 -100.5h-74q-141 0 -241.5 100t-100.5 242v720z" />
    <glyph glyph-name="Uogonek" unicode="&#x172;" 
d="M952 1401h49v-1077q0 -141 -99 -241.5t-243 -100.5h-26v-144q0 -63 45 -108t108 -45h11v-50h-11q-84 0 -143 59.5t-59 143.5v144h-23q-141 0 -241.5 100t-100.5 242v1077h49v-1077q0 -121 86 -207t207 -86h98q121 0 207 86t86 207v1077z" />
    <glyph glyph-name="uogonek" unicode="&#x173;" 
d="M938 1044h49v-720q0 -141 -99.5 -241.5t-242.5 -100.5h-12v-136q0 -63 45 -108t108 -45h11v-49h-11q-84 0 -143 59t-59 143v136h-13q-141 0 -241.5 100t-100.5 242v720h50v-720q0 -121 86 -207t206 -86h74q123 0 208 86t85 207v720z" />
    <glyph glyph-name="Wcircumflex" unicode="&#x174;" 
d="M358 1579l230 229h43l229 -229l-35 -35l-217 215l-215 -215zM158 1401h49v-275q0 -125 26 -264l162 -790l185 762h59l184 -760l160 788q27 139 27 264v275h49v-275q0 -139 -27 -272l-172 -854h-65l-187 774l-186 -774h-66l-172 854q-27 133 -26 272v275z" />
    <glyph glyph-name="wcircumflex" unicode="&#x175;" 
d="M358 1223l230 229h43l229 -229l-35 -35l-217 215l-215 -215zM156 911v133h49v-133q0 -131 33 -256l147 -575l197 786h53l196 -786l148 575q14 55 22.5 120t10.5 102v34v133h49v-133q0 -135 -33 -266l-166 -645h-57l-197 786l-196 -786h-58l-166 645q-32 131 -32 266z" />
    <glyph glyph-name="Ycircumflex" unicode="&#x176;" 
d="M358 1579l230 229h43l229 -229l-35 -35l-217 215l-215 -215zM989 1114q0 -25 -4 -50.5t-11 -46t-15.5 -40t-16.5 -34.5t-14 -25.5t-10 -16.5l-7 -8l-278 -342v-551h-49v551l-279 342q-6 6 -22.5 31.5t-36 81t-19.5 108.5v287h49v-287q0 -47 18.5 -95t32 -69.5t19.5 -27.5
l262 -324l262 324l7 10q8 10 18 28.5t20.5 41t17.5 53t7 59.5v287h49v-287z" />
    <glyph glyph-name="ycircumflex" unicode="&#x177;" 
d="M358 1223l230 229h43l229 -229l-35 -35l-217 215l-215 -215zM238 1044h49v-133q0 -123 63 -237l262 -492l265 492q61 111 61 237v133h49v-133q0 -137 -65 -262l-496 -913q-53 -92 -154 -92h-153v49h153q14 0 28.5 3t25 9t19.5 13.5t15.5 13.5t10.5 12t6 10l4 4l205 375
l-281 516q-68 129 -67 262v133z" />
    <glyph glyph-name="Ydieresis" unicode="&#x178;" 
d="M473 1546v248h49v-248h-49zM694 1546v248h49v-248h-49zM989 1114q0 -25 -4 -50.5t-11 -46t-15.5 -40t-16.5 -34.5t-14 -25.5t-10 -16.5l-7 -8l-278 -342v-551h-49v551l-279 342q-6 6 -22.5 31.5t-36 81t-19.5 108.5v287h49v-287q0 -47 18.5 -95t32 -69.5t19.5 -27.5
l262 -324l262 324l7 10q8 10 18 28.5t20.5 41t17.5 53t7 59.5v287h49v-287z" />
    <glyph glyph-name="Zacute" unicode="&#x179;" 
d="M608 1511l-35 35l220 221l36 -34zM233 1401h748v-49l-705 -1303h723v-49h-780v49l707 1303h-693v49z" />
    <glyph glyph-name="zacute" unicode="&#x17a;" 
d="M612 1155l-34 35l219 221l37 -35zM262 1044h699v-49l-656 -946h674v-49h-735v49l655 946h-637v49z" />
    <glyph glyph-name="Zdotaccent" unicode="&#x17b;" 
d="M584 1546v248h49v-248h-49zM233 1401h748v-49l-705 -1303h723v-49h-780v49l707 1303h-693v49z" />
    <glyph glyph-name="zdotaccent" unicode="&#x17c;" 
d="M588 1190v248h49v-248h-49zM262 1044h699v-49l-656 -946h674v-49h-735v49l655 946h-637v49z" />
    <glyph glyph-name="Zcaron" unicode="&#x17d;" 
d="M358 1788l35 35l215 -215l217 215l35 -35l-229 -229h-43zM233 1401h748v-49l-705 -1303h723v-49h-780v49l707 1303h-693v49z" />
    <glyph glyph-name="zcaron" unicode="&#x17e;" 
d="M362 1432l35 34l215 -215l217 215l35 -34l-229 -230h-43zM262 1044h699v-49l-656 -946h674v-49h-735v49l655 946h-637v49z" />
    <glyph glyph-name="uni0186" unicode="&#x186;" 
d="M209 1163q29 111 121 183.5t211 72.5h98q143 0 242.5 -100t99.5 -242v-753q0 -143 -99.5 -242.5t-242.5 -99.5h-98q-119 0 -211 71.5t-121 184.5l47 14q25 -96 103.5 -158.5t181.5 -62.5h98q121 0 207 86t86 207v753q0 121 -86 207t-207 86h-98q-102 0 -181 -62.5
t-104 -158.5z" />
    <glyph glyph-name="uni0189" unicode="&#x189;" 
d="M686 1401q143 0 243.5 -99.5t100.5 -242.5v-717q0 -143 -100.5 -242.5t-243.5 -99.5h-422v676h-153v49h153v676h422zM981 342v717q0 121 -86 207t-209 86h-373v-627h314v-49h-314v-627h373q123 0 209 86t86 207z" />
    <glyph glyph-name="uni018E" unicode="&#x18e;" 
d="M961 0h-766v49h716v627h-651v49h651v627h-716v49h766v-1401z" />
    <glyph glyph-name="uni018F" unicode="&#x18f;" 
d="M227 1163q29 111 121 183.5t211 72.5h98q141 0 241.5 -100t100.5 -242v-753q0 -141 -100 -241.5t-242 -100.5h-98q-141 0 -241.5 100t-100.5 242v401h733v352q0 121 -86 207t-207 86h-98q-102 0 -181 -62.5t-104 -158.5zM266 676v-352q0 -121 86 -207t207 -86h98
q121 0 207 86t86 207v352h-684z" />
    <glyph glyph-name="uni0190" unicode="&#x190;" 
d="M985 252l47 -14q-29 -111 -121 -183.5t-211 -72.5h-102q-141 0 -242.5 100t-101.5 242v71q0 111 66.5 200t171.5 120q-100 35 -163 121t-63 194v47q0 141 101.5 241.5t242.5 100.5h88q119 0 211 -72.5t121 -183.5l-47 -14q-23 96 -102.5 158.5t-182.5 62.5h-88
q-121 0 -208 -86t-87 -207v-47q0 -121 87 -207t208 -86h205v-49h-217q-121 0 -208 -86t-87 -207v-71q0 -121 87 -207t208 -86h102q102 0 182 62.5t103 158.5z" />
    <glyph glyph-name="florin" unicode="&#x192;" 
d="M829 1419q86 0 154 -54t86 -138l-47 -15q-14 68 -67.5 113t-125.5 45q-82 0 -139 -58.5t-57 -137.5v-449h323v-49h-323v-449q0 -102 -72 -173.5t-174 -71.5q-88 0 -155.5 54t-84.5 136l48 14q14 -68 67 -111.5t125 -43.5q82 0 139.5 57t57.5 139v449h-324v49h324v449
q0 102 71.5 173.5t173.5 71.5z" />
    <glyph glyph-name="uni0197" unicode="&#x197;" 
d="M633 49h354v-49h-758v49h355v643h-281v49h281v611h-351v49h750v-49h-350v-611h280v-49h-280v-643z" />
    <glyph glyph-name="uni019D" unicode="&#x19d;" 
d="M956 1401h50v-1401h-62l-684 1315v-1469q0 -84 -59.5 -143t-143.5 -59h-10v49h10q63 0 108.5 45t45.5 108v1555h61l684 -1315v1315z" />
    <glyph glyph-name="uni019F" unicode="&#x19f;" 
d="M657 1419q143 0 242.5 -100t99.5 -242v-753q0 -141 -99 -241.5t-243 -100.5h-98q-141 0 -241.5 100t-100.5 242v753q0 141 100.5 241.5t241.5 100.5h98zM559 1370q-121 0 -207 -86t-86 -207v-352h684v352q0 121 -85 207t-208 86h-98zM657 31q123 0 208 86t85 207v352
h-684v-352q0 -121 86 -207t207 -86h98z" />
    <glyph glyph-name="Ohorn" unicode="&#x1a0;" 
d="M1122 1401h49v-45q0 -76 -52 -134.5t-128 -66.5q8 -33 8 -78v-753q0 -141 -99 -241.5t-243 -100.5h-98q-141 0 -241.5 100t-100.5 242v753q0 141 100.5 241.5t241.5 100.5h98q106 0 193.5 -60.5t126.5 -156.5q59 4 102 48t43 106v45zM950 324v753q0 121 -85 207t-208 86
h-98q-121 0 -207 -86t-86 -207v-753q0 -121 86 -207t207 -86h98q123 0 208 86t85 207z" />
    <glyph glyph-name="ohorn" unicode="&#x1a1;" 
d="M1116 1044h49v-45q0 -78 -54 -137t-132 -65q8 -33 8 -76v-397q0 -141 -99.5 -241.5t-242.5 -100.5h-74q-141 0 -241.5 100t-100.5 242v397q0 141 100.5 241.5t241.5 100.5h74q106 0 193.5 -60.5t126.5 -156.5q61 0 106 45t45 108v45zM938 324v397q0 121 -85 207t-208 86
h-74q-121 0 -206.5 -86t-85.5 -207v-397q0 -121 86 -207t206 -86h74q123 0 208 86t85 207z" />
    <glyph glyph-name="uni01A9" unicode="&#x1a9;" 
d="M238 1401h761v-49h-702l403 -652l-421 -651h739v-49h-799v49l422 651l-403 652v49z" />
    <glyph glyph-name="Uhorn" unicode="&#x1af;" 
d="M1161 1401h49v-45q0 -82 -60 -142.5t-142 -60.5h-7v-829q0 -141 -99 -241.5t-243 -100.5h-98q-141 0 -241.5 100t-100.5 242v1077h49v-1077q0 -121 86 -207t207 -86h98q121 0 207 86t86 207v1077h49v-199h7q63 0 108 45t45 109v45z" />
    <glyph glyph-name="uhorn" unicode="&#x1b0;" 
d="M1120 1243h49v-45q0 -78 -53 -135t-129 -66v-673q0 -141 -99.5 -241.5t-242.5 -100.5h-74q-141 0 -241.5 100t-100.5 242v720h50v-720q0 -121 86 -207t206 -86h74q123 0 208 86t85 207v720h29q63 0 108 45.5t45 108.5v45z" />
    <glyph glyph-name="uni01B1" unicode="&#x1b1;" 
d="M1018 1401v-49h-203q84 -43 134 -125t50 -180v-723q0 -143 -99 -242.5t-243 -99.5h-98q-141 0 -241.5 99t-100.5 243v723q0 96 51 179t133 126h-202v49h360v-49q-121 0 -207 -86t-86 -207v-735q0 -121 86 -207t207 -86h98q123 0 208 86t85 207v735q0 121 -85 207t-208 86
v49h361z" />
    <glyph glyph-name="uni01CD" unicode="&#x1cd;" 
d="M631 1559h-43l-230 229l35 35l215 -215l217 215l35 -35zM977 553q35 -129 35 -281v-272h-49v272q0 55 -7 111h-696q-6 -55 -6 -111v-272h-49v272q0 141 35 281l200 737q14 55 61.5 92t106.5 37q61 0 107.5 -36.5t60.5 -92.5zM266 432h684q-12 76 -22 107l-199 737
q-10 41 -43 67.5t-78 26.5t-77.5 -26.5t-43.5 -67.5l-198 -737q-11 -31 -23 -107z" />
    <glyph glyph-name="uni01CE" unicode="&#x1ce;" 
d="M631 1202h-43l-230 230l35 34l215 -215l217 215l35 -34zM928 1044h49v-1044h-49v166q-43 -84 -125 -134t-178 -50h-64q-143 0 -242.5 100t-99.5 242v397q0 141 99.5 241.5t242.5 100.5h64q96 0 178 -50t125 -134v165zM635 31q121 0 207 86t86 207v397q0 121 -86 207
t-207 86h-74q-123 0 -208 -86t-85 -207v-397q0 -121 85 -207t208 -86h74z" />
    <glyph glyph-name="uni01CF" unicode="&#x1cf;" 
d="M358 1788l35 35l215 -215l217 215l35 -35l-229 -229h-43zM229 49h355v1303h-351v49h750v-49h-350v-1303h354v-49h-758v49z" />
    <glyph glyph-name="uni01D0" unicode="&#x1d0;" 
d="M401 1432l35 34l215 -215l217 215l35 -34l-229 -230h-43zM309 1044h367v-995h360v-49h-794v49h385v946h-318v49z" />
    <glyph glyph-name="uni01D1" unicode="&#x1d1;" 
d="M358 1788l35 35l215 -215l217 215l35 -35l-229 -229h-43zM559 -18q-141 0 -241.5 100t-100.5 242v753q0 141 100.5 241.5t241.5 100.5h98q143 0 242.5 -100t99.5 -242v-753q0 -141 -99 -241.5t-243 -100.5h-98zM559 31h98q123 0 208 86t85 207v753q0 121 -85 207t-208 86
h-98q-121 0 -207 -86t-86 -207v-753q0 -121 86 -207t207 -86z" />
    <glyph glyph-name="uni01D2" unicode="&#x1d2;" 
d="M358 1432l35 34l215 -215l217 215l35 -34l-229 -230h-43zM571 1063h74q143 0 242.5 -100.5t99.5 -241.5v-397q0 -141 -99.5 -241.5t-242.5 -100.5h-74q-141 0 -241.5 100t-100.5 242v397q0 141 100.5 241.5t241.5 100.5zM571 1014q-121 0 -206.5 -86t-85.5 -207v-397
q0 -121 86 -207t206 -86h74q123 0 208 86t85 207v397q0 121 -85 207t-208 86h-74z" />
    <glyph glyph-name="uni01D3" unicode="&#x1d3;" 
d="M358 1788l35 35l215 -215l217 215l35 -35l-229 -229h-43zM219 1401h49v-1077q0 -121 86 -207t207 -86h98q121 0 207 86t86 207v1077h49v-1077q0 -141 -99 -241.5t-243 -100.5h-98q-141 0 -241.5 100t-100.5 242v1077z" />
    <glyph glyph-name="uni01D4" unicode="&#x1d4;" 
d="M358 1432l35 34l215 -215l217 215l35 -34l-229 -230h-43zM229 1044h50v-720q0 -121 86 -207t206 -86h74q123 0 208 86t85 207v720h49v-720q0 -141 -99.5 -241.5t-242.5 -100.5h-74q-141 0 -241.5 100t-100.5 242v720z" />
    <glyph glyph-name="uni01D5" unicode="&#x1d5;" 
d="M328 1933v49h561v-49h-561zM473 1546v248h49v-248h-49zM694 1546v248h49v-248h-49zM219 1401h49v-1077q0 -121 86 -207t207 -86h98q121 0 207 86t86 207v1077h49v-1077q0 -141 -99 -241.5t-243 -100.5h-98q-141 0 -241.5 100t-100.5 242v1077z" />
    <glyph glyph-name="uni01D6" unicode="&#x1d6;" 
d="M328 1577v49h561v-49h-561zM473 1190v248h49v-248h-49zM694 1190v248h49v-248h-49zM229 1044h50v-720q0 -121 86 -207t206 -86h74q123 0 208 86t85 207v720h49v-720q0 -141 -99.5 -241.5t-242.5 -100.5h-74q-141 0 -241.5 100t-100.5 242v720z" />
    <glyph glyph-name="uni01D7" unicode="&#x1d7;" 
d="M608 1851l-35 35l220 221l36 -34zM473 1546v248h49v-248h-49zM694 1546v248h49v-248h-49zM219 1401h49v-1077q0 -121 86 -207t207 -86h98q121 0 207 86t86 207v1077h49v-1077q0 -141 -99 -241.5t-243 -100.5h-98q-141 0 -241.5 100t-100.5 242v1077z" />
    <glyph glyph-name="uni01D8" unicode="&#x1d8;" 
d="M608 1495l-35 35l220 221l36 -35zM473 1190v248h49v-248h-49zM694 1190v248h49v-248h-49zM229 1044h50v-720q0 -121 86 -207t206 -86h74q123 0 208 86t85 207v720h49v-720q0 -141 -99.5 -241.5t-242.5 -100.5h-74q-141 0 -241.5 100t-100.5 242v720z" />
    <glyph glyph-name="uni01D9" unicode="&#x1d9;" 
d="M358 2128l35 35l215 -215l217 215l35 -35l-229 -230h-43zM473 1546v248h49v-248h-49zM694 1546v248h49v-248h-49zM219 1401h49v-1077q0 -121 86 -207t207 -86h98q121 0 207 86t86 207v1077h49v-1077q0 -141 -99 -241.5t-243 -100.5h-98q-141 0 -241.5 100t-100.5 242
v1077z" />
    <glyph glyph-name="uni01DA" unicode="&#x1da;" 
d="M358 1772l35 34l215 -215l217 215l35 -34l-229 -230h-43zM473 1190v248h49v-248h-49zM694 1190v248h49v-248h-49zM229 1044h50v-720q0 -121 86 -207t206 -86h74q123 0 208 86t85 207v720h49v-720q0 -141 -99.5 -241.5t-242.5 -100.5h-74q-141 0 -241.5 100t-100.5 242
v720z" />
    <glyph glyph-name="uni01DB" unicode="&#x1db;" 
d="M608 1851l-221 222l37 34l219 -221zM473 1546v248h49v-248h-49zM694 1546v248h49v-248h-49zM219 1401h49v-1077q0 -121 86 -207t207 -86h98q121 0 207 86t86 207v1077h49v-1077q0 -141 -99 -241.5t-243 -100.5h-98q-141 0 -241.5 100t-100.5 242v1077z" />
    <glyph glyph-name="uni01DC" unicode="&#x1dc;" 
d="M608 1495l-221 221l37 35l219 -221zM473 1190v248h49v-248h-49zM694 1190v248h49v-248h-49zM229 1044h50v-720q0 -121 86 -207t206 -86h74q123 0 208 86t85 207v720h49v-720q0 -141 -99.5 -241.5t-242.5 -100.5h-74q-141 0 -241.5 100t-100.5 242v720z" />
    <glyph glyph-name="uni01DD" unicode="&#x1dd;" 
d="M639 -18h-74q-141 0 -241.5 100t-100.5 242v192h709v205q0 121 -85 207t-208 86h-74q-102 0 -182 -63.5t-102 -159.5l-48 12q29 113 121 186.5t211 73.5h74q143 0 242.5 -100.5t99.5 -241.5v-397q0 -141 -99.5 -241.5t-242.5 -100.5zM932 467h-660v-143q0 -121 86 -207
t207 -86h74q123 0 208 86t85 207v143z" />
    <glyph glyph-name="uni01DE" unicode="&#x1de;" 
d="M889 1982v-49h-561v49h561zM522 1546h-49v248h49v-248zM743 1546h-49v248h49v-248zM977 553q35 -129 35 -281v-272h-49v272q0 55 -7 111h-696q-6 -55 -6 -111v-272h-49v272q0 141 35 281l200 737q14 55 61.5 92t106.5 37q61 0 107.5 -36.5t60.5 -92.5zM266 432h684
q-12 76 -22 107l-199 737q-10 41 -43 67.5t-78 26.5t-77.5 -26.5t-43.5 -67.5l-198 -737q-11 -31 -23 -107z" />
    <glyph glyph-name="uni01DF" unicode="&#x1df;" 
d="M889 1626v-49h-561v49h561zM522 1190h-49v248h49v-248zM743 1190h-49v248h49v-248zM928 1044h49v-1044h-49v166q-43 -84 -125 -134t-178 -50h-64q-143 0 -242.5 100t-99.5 242v397q0 141 99.5 241.5t242.5 100.5h64q96 0 178 -50t125 -134v165zM635 31q121 0 207 86
t86 207v397q0 121 -86 207t-207 86h-74q-123 0 -208 -86t-85 -207v-397q0 -121 85 -207t208 -86h74z" />
    <glyph glyph-name="Gcaron" unicode="&#x1e6;" 
d="M365 1788l34 35l215 -215l217 215l35 -35l-229 -229h-43zM995 1163l-47 -14q-25 96 -103.5 158.5t-180.5 62.5h-99q-121 0 -207 -86t-86 -207v-753q0 -121 86 -207t207 -86h99q121 0 206.5 86t85.5 207v352h-321v49h371v-401q0 -141 -100.5 -241.5t-241.5 -100.5h-99
q-141 0 -241.5 100t-100.5 242v753q0 141 100.5 241.5t241.5 100.5h99q119 0 210.5 -72.5t120.5 -183.5z" />
    <glyph glyph-name="gcaron" unicode="&#x1e7;" 
d="M614 1202h-43l-229 230l35 34l215 -215l217 215l35 -34zM926 1044h49v-1077q0 -141 -99.5 -241.5t-242.5 -100.5h-74q-119 0 -211 74t-121 186l47 13q23 -96 103 -160t182 -64h74q123 0 208 86t85 207v295q-43 -84 -124 -133t-179 -49h-64q-141 0 -241.5 100.5
t-100.5 241.5v299q0 143 100.5 242.5t241.5 99.5h64q98 0 179 -49t124 -133v163zM633 129q123 0 208 86t85 207v299q0 121 -85 207t-208 86h-74q-121 0 -207 -86t-86 -207v-299q0 -121 86 -207t207 -86h74z" />
    <glyph glyph-name="Aringacute" unicode="&#x1fa;" 
d="M829 2042l-221 -221l-35 34l220 222zM977 553q35 -129 35 -281v-272h-49v272q0 55 -7 111h-696q-6 -55 -6 -111v-272h-49v272q0 141 35 281l200 737q16 66 76 103q-111 55 -110 180q0 84 59 143.5t143 59.5t143.5 -60.5t59.5 -142.5q0 -121 -111 -180q59 -37 76 -103z
M455 1573q0 -66 45 -110t108.5 -44t108.5 45t45 108.5t-45 108.5t-108.5 45t-108.5 -45t-45 -108zM266 432h684q-12 76 -22 107l-199 737q-10 41 -43 67.5t-78 26.5t-77.5 -26.5t-43.5 -67.5l-198 -737q-11 -31 -23 -107z" />
    <glyph glyph-name="aringacute" unicode="&#x1fb;" 
d="M829 1686l-221 -222l-35 35l220 221zM928 1044h49v-1044h-49v166q-43 -84 -125 -134t-178 -50h-64q-143 0 -242.5 100t-99.5 242v397q0 121 75 214t191 120q-80 59 -79 162q0 84 59 143t143 59t143.5 -60.5t59.5 -141.5q0 -109 -90 -168q139 -41 207 -170v165zM455 1217
q0 -66 45 -110t108.5 -44t108.5 45t45 108.5t-45 108.5t-108.5 45t-108.5 -45t-45 -108zM635 31q121 0 207 86t86 207v397q0 121 -86 207t-207 86h-74q-123 0 -208 -86t-85 -207v-397q0 -121 85 -207t208 -86h74z" />
    <glyph glyph-name="AEacute" unicode="&#x1fc;" 
d="M948 1733l-221 -222l-35 35l219 221zM1036 1352h-379v-627h318v-49h-318v-627h379v-49h-428v383h-372q-6 -55 -7 -111v-272h-49v272q0 156 35 281l201 737q14 55 60 92t108 37q43 0 75 -18h377v-49zM242 432h366v936q-8 2 -24 2q-45 0 -78 -26.5t-43 -67.5l-199 -737
q-10 -37 -22 -107z" />
    <glyph glyph-name="aeacute" unicode="&#x1fd;" 
d="M834 1376l-222 -221l-34 35l219 221zM1102 498h-465v-258q0 -88 60.5 -148.5t148.5 -60.5q68 0 122 41t74 102l48 -14q-25 -78 -92.5 -128t-151.5 -50q-143 0 -209 127v-109h-49v109q-66 -127 -209 -127q-106 0 -181 75.5t-75 182.5v565q0 106 74.5 182t181.5 76
q143 0 209 -127v108h49v-108q66 127 209 127q106 0 181 -76t75 -182v-307zM379 31q88 0 148.5 60.5t60.5 148.5v565q0 88 -60.5 148.5t-148.5 60.5q-86 0 -146.5 -60.5t-60.5 -148.5v-565q0 -88 60.5 -148.5t146.5 -60.5zM846 1014q-88 0 -148.5 -60.5t-60.5 -148.5v-258
h416v258q0 88 -60.5 148.5t-146.5 60.5z" />
    <glyph glyph-name="Oslashacute" unicode="&#x1fe;" 
d="M829 1733l-221 -222l-35 35l220 221zM1073 1413l-110 -180q37 -72 36 -156v-753q0 -141 -99 -241.5t-243 -100.5h-98q-176 0 -276 141l-99 -160l-41 25l111 180q-37 78 -37 156v753q0 141 100.5 241.5t241.5 100.5h98q176 0 277 -141l98 160zM266 324q0 -55 19 -105
l622 1014q-86 137 -250 137h-98q-121 0 -207 -86t-86 -207v-753zM950 1077q0 55 -18 105l-621 -1014q86 -137 248 -137h98q123 0 208 86t85 207v753z" />
    <glyph glyph-name="oslashacute" unicode="&#x1ff;" 
d="M829 1376l-221 -221l-35 35l220 221zM899 950q88 -98 88 -229v-397q0 -141 -99.5 -241.5t-242.5 -100.5h-74q-123 0 -217 77l-71 -114l-43 26l75 125q-86 98 -86 228v397q0 141 100.5 241.5t241.5 100.5h74q123 0 217 -78l72 119l43 -27zM279 324q0 -102 65 -185l492 805
q-82 70 -191 70h-74q-121 0 -206.5 -86t-85.5 -207v-397zM938 324v397q0 104 -66 186l-493 -805q82 -72 192 -71h74q123 0 208 86t85 207z" />
    <glyph glyph-name="Scommaaccent" unicode="&#x218;" 
d="M188 238l48 14q23 -96 102.5 -158.5t181.5 -62.5h135q121 0 207 86t86 207q0 233 -239 325l-207 80q-139 51 -213 133t-74 215q0 143 99.5 242.5t242.5 99.5h92q119 0 211 -71.5t121 -184.5l-47 -14q-25 96 -103.5 158.5t-181.5 62.5h-92q-123 0 -208 -86t-85 -207
q0 -111 61.5 -181.5t194.5 -121.5l207 -80q270 -104 270 -370q0 -141 -100 -241.5t-242 -100.5h-135q-119 0 -211 72.5t-121 183.5zM469 -193h244v-53q0 -106 -61.5 -190t-157.5 -121l-15 47q82 31 133.5 104.5t51.5 163.5h-195v49z" />
    <glyph glyph-name="scommaaccent" unicode="&#x219;" 
d="M231 164l50 14q23 -66 79 -106.5t127 -40.5h234q90 0 154.5 64.5t64.5 154.5q0 82 -50 148.5t-140 80.5l-263 41q-109 16 -173 90t-64 185q0 113 78 190.5t190 77.5h197q88 0 157.5 -51t98.5 -133l-49 -15q-23 68 -79.5 109t-127.5 41h-197q-90 0 -154.5 -64.5
t-64.5 -154.5q0 -94 53.5 -153.5t143.5 -74.5l262 -39q102 -16 166.5 -94t64.5 -184q0 -111 -77.5 -189.5t-190.5 -78.5h-234q-88 0 -157.5 50t-98.5 132zM485 -193h244v-53q0 -106 -61.5 -190t-157.5 -121l-14 47q82 31 133 104.5t51 163.5h-195v49z" />
    <glyph glyph-name="uni021A" unicode="&#x21a;" 
d="M186 1401h844v-49h-397v-1352h-49v1352h-398v49zM485 -193h244v-53q0 -106 -61.5 -190t-157.5 -121l-14 47q82 31 133 104.5t51 163.5h-195v49z" />
    <glyph glyph-name="uni021B" unicode="&#x21b;" 
d="M152 995v49h282v283h49v-283h537v-49h-537v-673q0 -121 86 -206t205 -85q102 0 181 63.5t102 159.5l47 -14q-29 -113 -120 -185.5t-210 -72.5q-139 0 -239.5 100t-100.5 240v673h-282zM651 -193h244v-53q0 -106 -61.5 -190t-157.5 -121l-14 47q82 31 133 104.5t51 163.5
h-195v49z" />
    <glyph glyph-name="uni021C" unicode="&#x21c;" 
d="M651 776q143 0 242.5 -100.5t99.5 -241.5v-92q0 -141 -99 -241.5t-243 -100.5h-383v49h383q123 0 208 86t85 207v92q0 121 -85 207t-208 86h-243v49l501 576h-639v49h705v-49l-502 -576h178z" />
    <glyph glyph-name="uni021D" unicode="&#x21d;" 
d="M651 420q143 0 242.5 -100.5t99.5 -241.5v-92q0 -141 -99 -241.5t-243 -100.5h-383v49h383q123 0 208 86t85 207v92q0 121 -85 207t-208 86h-243v49l501 575h-639v49h705v-49l-502 -575h178z" />
    <glyph glyph-name="uni0226" unicode="&#x226;" 
d="M633 1794v-248h-49v248h49zM977 553q35 -129 35 -281v-272h-49v272q0 55 -7 111h-696q-6 -55 -6 -111v-272h-49v272q0 141 35 281l200 737q14 55 61.5 92t106.5 37q61 0 107.5 -36.5t60.5 -92.5zM266 432h684q-12 76 -22 107l-199 737q-10 41 -43 67.5t-78 26.5
t-77.5 -26.5t-43.5 -67.5l-198 -737q-11 -31 -23 -107z" />
    <glyph glyph-name="uni0227" unicode="&#x227;" 
d="M633 1438v-248h-49v248h49zM928 1044h49v-1044h-49v166q-43 -84 -125 -134t-178 -50h-64q-143 0 -242.5 100t-99.5 242v397q0 141 99.5 241.5t242.5 100.5h64q96 0 178 -50t125 -134v165zM635 31q121 0 207 86t86 207v397q0 121 -86 207t-207 86h-74q-123 0 -208 -86
t-85 -207v-397q0 -121 85 -207t208 -86h74z" />
    <glyph glyph-name="uni0228" unicode="&#x228;" 
d="M1022 1352h-717v-627h651v-49h-651v-627h717v-49h-356v-115q76 -8 128 -65.5t52 -134.5q0 -84 -59.5 -143.5t-143.5 -59.5h-29v49h29q63 0 108.5 45t45.5 108.5t-45 108.5t-109 45h-27v162h-360v1401h766v-49z" />
    <glyph glyph-name="uni0229" unicode="&#x229;" 
d="M993 528h-708v-204q0 -121 85 -207t208 -86h73q102 0 182 63.5t103 159.5l47 -12q-29 -113 -121 -186.5t-211 -73.5h-12v-97q76 -8 128 -65.5t52 -134.5q0 -84 -59.5 -143.5t-143.5 -59.5h-28v49h28q63 0 108.5 45t45.5 108.5t-45 108.5t-109 45h-26v144h-12
q-143 0 -242.5 100t-99.5 242v397q0 141 99 241.5t243 100.5h73q141 0 241.5 -100.5t100.5 -241.5v-193zM285 721v-143h659v143q0 121 -86 207t-207 86h-73q-123 0 -208 -86t-85 -207z" />
    <glyph glyph-name="uni022A" unicode="&#x22a;" 
d="M328 1933v49h561v-49h-561zM473 1546v248h49v-248h-49zM694 1546v248h49v-248h-49zM559 -18q-141 0 -241.5 100t-100.5 242v753q0 141 100.5 241.5t241.5 100.5h98q143 0 242.5 -100t99.5 -242v-753q0 -141 -99 -241.5t-243 -100.5h-98zM559 31h98q123 0 208 86t85 207
v753q0 121 -85 207t-208 86h-98q-121 0 -207 -86t-86 -207v-753q0 -121 86 -207t207 -86z" />
    <glyph glyph-name="uni022B" unicode="&#x22b;" 
d="M328 1577v49h561v-49h-561zM473 1190v248h49v-248h-49zM694 1190v248h49v-248h-49zM571 1063h74q143 0 242.5 -100.5t99.5 -241.5v-397q0 -141 -99.5 -241.5t-242.5 -100.5h-74q-141 0 -241.5 100t-100.5 242v397q0 141 100.5 241.5t241.5 100.5zM571 1014
q-121 0 -206.5 -86t-85.5 -207v-397q0 -121 86 -207t206 -86h74q123 0 208 86t85 207v397q0 121 -85 207t-208 86h-74z" />
    <glyph glyph-name="uni0232" unicode="&#x232;" 
d="M328 1593v49h561v-49h-561zM989 1114q0 -25 -4 -50.5t-11 -46t-15.5 -40t-16.5 -34.5t-14 -25.5t-10 -16.5l-7 -8l-278 -342v-551h-49v551l-279 342q-6 6 -22.5 31.5t-36 81t-19.5 108.5v287h49v-287q0 -47 18.5 -95t32 -69.5t19.5 -27.5l262 -324l262 324l7 10
q8 10 18 28.5t20.5 41t17.5 53t7 59.5v287h49v-287z" />
    <glyph glyph-name="uni0233" unicode="&#x233;" 
d="M328 1237v49h561v-49h-561zM238 1044h49v-133q0 -123 63 -237l262 -492l265 492q61 111 61 237v133h49v-133q0 -137 -65 -262l-496 -913q-53 -92 -154 -92h-153v49h153q14 0 28.5 3t25 9t19.5 13.5t15.5 13.5t10.5 12t6 10l4 4l205 375l-281 516q-68 129 -67 262v133z
" />
    <glyph glyph-name="uni0237" unicode="&#x237;" 
d="M266 1044h545v-1079q0 -141 -100.5 -240.5t-239.5 -99.5q-121 0 -212 73t-118 185l47 15q23 -98 101 -161t182 -63q119 0 205 85t86 206v1030h-496v49z" />
    <glyph glyph-name="uni0243" unicode="&#x243;" 
d="M788 715q102 -31 169 -119t67 -201v-53q0 -141 -100.5 -241.5t-241.5 -100.5h-428v342h-156v49h156v1010h416q141 0 241.5 -99.5t100.5 -242.5v-29q0 -109 -63 -194.5t-161 -120.5zM670 1352h-367v-615h367q121 0 207 86t86 207v29q0 121 -86 207t-207 86zM975 342v53
q0 121 -86 207t-207 86h-379v-297h311v-49h-311v-293h379q121 0 207 86t86 207z" />
    <glyph glyph-name="uni0244" unicode="&#x244;" 
d="M1153 786v-49h-152v-413q0 -141 -99 -241.5t-243 -100.5h-98q-141 0 -241.5 100t-100.5 242v413h-156v49h156v615h49v-615h684v615h49v-615h152zM952 324v413h-684v-413q0 -121 86 -207t207 -86h98q121 0 207 86t86 207z" />
    <glyph glyph-name="uni0245" unicode="&#x245;" 
d="M205 0v274q0 145 51 277l322 850h61l324 -850q49 -131 49 -277v-274h-49v274q0 137 -48 261l-307 808q-266 -702 -307 -808q-47 -129 -47 -261v-274h-49z" />
    <glyph glyph-name="uni024C" unicode="&#x24c;" 
d="M934 365q31 -31 62.5 -94.5t31.5 -141.5v-129h-49v129q0 47 -18.5 94t-35 71.5t-28.5 37.5l-262 282h-326v-614h-49v614h-156v50h156v737h416q143 0 242.5 -100.5t99.5 -241.5v-103q0 -135 -92 -234t-228 -108zM309 1352v-688h367q123 0 208 86t85 206v103q0 121 -85 207
t-208 86h-367z" />
    <glyph glyph-name="uni0250" unicode="&#x250;" 
d="M655 1063q143 0 242.5 -100.5t99.5 -241.5v-397q0 -141 -99 -241.5t-243 -100.5h-63q-96 0 -178 50t-125 134v-166h-49v1044h49v-165q43 84 125 134t178 50h63zM948 324v397q0 121 -85 207t-208 86h-73q-121 0 -207 -86t-86 -207v-397q0 -121 86 -207t207 -86h73
q123 0 208 86t85 207z" />
    <glyph glyph-name="uni0251" unicode="&#x251;" 
d="M928 1044h49v-1044h-49v166q-43 -84 -125 -134t-178 -50h-64q-143 0 -242.5 100t-99.5 242v397q0 141 99.5 241.5t242.5 100.5h64q96 0 178 -50t125 -134v165zM635 31q121 0 207 86t86 207v397q0 121 -86 207t-207 86h-74q-123 0 -208 -86t-85 -207v-397q0 -121 85 -207
t208 -86h74z" />
    <glyph glyph-name="uni0252" unicode="&#x252;" 
d="M655 1063q143 0 242.5 -100.5t99.5 -241.5v-397q0 -141 -99 -241.5t-243 -100.5h-63q-96 0 -178 50t-125 134v-166h-49v1044h49v-165q43 84 125 134t178 50h63zM948 324v397q0 121 -85 207t-208 86h-73q-121 0 -207 -86t-86 -207v-397q0 -121 86 -207t207 -86h73
q123 0 208 86t85 207z" />
    <glyph glyph-name="uni0254" unicode="&#x254;" 
d="M969 324q0 -141 -99.5 -241.5t-242.5 -100.5h-74q-119 0 -211 73.5t-121 186.5l47 12q23 -96 103 -159.5t182 -63.5h74q121 0 207 86t86 207v397q0 121 -86 207t-207 86h-74q-102 0 -182 -63.5t-103 -159.5l-47 12q29 113 121 186.5t211 73.5h74q143 0 242.5 -100.5
t99.5 -241.5v-397z" />
    <glyph glyph-name="uni0258" unicode="&#x258;" 
d="M639 1063q143 0 242.5 -100.5t99.5 -241.5v-397q0 -141 -99.5 -241.5t-242.5 -100.5h-74q-119 0 -211 73.5t-121 186.5l48 12q23 -96 102.5 -159.5t181.5 -63.5h74q123 0 208 86t85 207v204h-709v193q0 141 100.5 241.5t241.5 100.5h74zM932 578v143q0 121 -85 207
t-208 86h-74q-121 0 -207 -86t-86 -207v-143h660z" />
    <glyph glyph-name="uni0259" unicode="&#x259;" 
d="M639 -18h-74q-141 0 -241.5 100t-100.5 242v192h709v205q0 121 -85 207t-208 86h-74q-102 0 -182 -63.5t-102 -159.5l-48 12q29 113 121 186.5t211 73.5h74q143 0 242.5 -100.5t99.5 -241.5v-397q0 -141 -99.5 -241.5t-242.5 -100.5zM932 467h-660v-143q0 -121 86 -207
t207 -86h74q123 0 208 86t85 207v143z" />
    <glyph glyph-name="uni025B" unicode="&#x25b;" 
d="M952 211l47 -14q-23 -94 -100.5 -154.5t-175.5 -60.5h-205q-117 0 -201 82.5t-84 201.5q0 92 55.5 166t143.5 100q-74 29 -121 97.5t-47 152.5q0 117 82 199t199 82h180q96 0 171 -57.5t99 -147.5l-47 -14q-20 74 -81.5 122t-141.5 48h-180q-96 0 -164 -67.5t-68 -164
t68 -164t164 -67.5h211v-49h-238q-98 0 -166.5 -70t-68.5 -166q0 -98 68.5 -166.5t166.5 -68.5h205q82 0 145.5 50t83.5 130z" />
    <glyph glyph-name="uni025C" unicode="&#x25c;" 
d="M784 532q88 -27 143.5 -100.5t55.5 -165.5q0 -119 -84 -201.5t-201 -82.5h-204q-98 0 -176 60t-101 155l47 14q20 -80 84 -130t146 -50h204q98 0 167 68.5t69 166.5q0 96 -68.5 166t-167.5 70h-237v49h211q96 0 163.5 67.5t67.5 164t-67.5 164t-163.5 67.5h-180
q-80 0 -141.5 -48t-82.5 -122l-47 14q25 90 99.5 147.5t171.5 57.5h180q117 0 198.5 -82t81.5 -199q0 -84 -47 -152.5t-121 -97.5z" />
    <glyph glyph-name="uni025E" unicode="&#x25e;" horiz-adv-x="1228" 
d="M809 532q88 -27 143.5 -100.5t55.5 -165.5q0 -119 -83 -201.5t-202 -82.5h-205q-117 0 -201 82.5t-84 201.5v516q0 117 83 199t198 82h184q115 0 198 -82t83 -199q0 -84 -47 -152.5t-123 -97.5zM723 31q98 0 166.5 68.5t68.5 166.5q0 96 -68.5 166t-166.5 70h-215v49h190
q96 0 164 67.5t68 163.5q0 94 -67.5 163t-164.5 69h-184q-96 0 -163.5 -67.5t-67.5 -164.5v-516q0 -98 68.5 -166.5t166.5 -68.5h205z" />
    <glyph glyph-name="uni025F" unicode="&#x25f;" 
d="M1024 438v-49h-213v-424q0 -141 -100.5 -240.5t-239.5 -99.5q-121 0 -212 73t-118 185l47 15q23 -98 101 -161t182 -63q119 0 205 85t86 206v424h-348v49h348v557h-496v49h545v-606h213z" />
    <glyph glyph-name="uni0261" unicode="&#x261;" 
d="M926 1044h49v-1077q0 -141 -99.5 -241.5t-242.5 -100.5h-74q-119 0 -211 74t-121 186l47 13q23 -96 103 -160t182 -64h74q123 0 208 86t85 207v295q-43 -84 -124 -133t-179 -49h-64q-141 0 -241.5 100.5t-100.5 241.5v299q0 143 100.5 242.5t241.5 99.5h64q98 0 179 -49
t124 -133v163zM633 129q123 0 208 86t85 207v299q0 121 -85 207t-208 86h-74q-121 0 -207 -86t-86 -207v-299q0 -121 86 -207t207 -86h74z" />
    <glyph glyph-name="uni0263" unicode="&#x263;" 
d="M934 1044h49v-133q0 -137 -70 -262l-276 -497l137 -248q23 -45 23 -90q0 -78 -55.5 -133.5t-133.5 -55.5t-133 55.5t-55 133.5q0 45 22 90l138 248l-277 497q-70 125 -70 262v133h50v-133q0 -121 63 -235l262 -473l262 473q63 115 64 235v133zM729 -119l-121 217
l-121 -217q-18 -27 -18 -67q0 -57 41 -98.5t98.5 -41.5t98.5 41t41 99q-1 38 -19 67z" />
    <glyph glyph-name="uni0265" unicode="&#x265;" 
d="M981 1044v-1400h-49v522q-43 -84 -125 -134t-178 -50h-64q-143 0 -242.5 100t-99.5 242v720h49v-720q0 -121 85 -207t208 -86h74q121 0 207 86t86 207v720h49z" />
    <glyph glyph-name="uni0268" unicode="&#x268;" horiz-adv-x="1228" 
d="M676 1438v-248h-49v248h49zM676 49h360v-49h-794v49h385v449h-281v49h281v448h-318v49h367v-497h280v-49h-280v-449z" />
    <glyph glyph-name="uni0269" unicode="&#x269;" 
d="M115 995v49h420v-741q0 -113 79.5 -192.5t192.5 -79.5q98 0 173 61.5t95 155.5l47 -15q-25 -111 -112.5 -181t-202.5 -70q-133 0 -227.5 94t-94.5 227v692h-370z" />
    <glyph glyph-name="uni026B" unicode="&#x26b;" 
d="M1092 254l47 -14q-29 -113 -121 -185.5t-211 -72.5q-141 0 -240.5 99t-99.5 241v378q-57 63 -135 64q-70 0 -120 -49t-50 -119v-12h-49v12q0 90 63.5 153.5t155.5 63.5q80 0 135 -49v588h-307v49h356v-696q66 -84 152 -84q70 0 120 50t50 120v12h49v-12q0 -90 -64.5 -155
t-154.5 -65t-152 66v-315q0 -121 86 -206t205 -85q102 0 181 62.5t104 160.5z" />
    <glyph glyph-name="uni026E" unicode="&#x26e;" horiz-adv-x="1228" 
d="M664 502q141 0 241.5 -100.5t100.5 -241.5v-174q0 -143 -100.5 -242.5t-241.5 -99.5h-175v49h175q121 0 206.5 86t85.5 207v174q0 121 -86 207t-206 86h-144v49l393 493h-573v-995h-49v1401h49v-357h635v-49l-391 -493h80z" />
    <glyph glyph-name="uni026F" unicode="&#x26f;" 
d="M1032 1044v-1044h-49v86q-61 -104 -184 -104q-66 0 -120 36.5t-79 94.5q-27 -59 -81 -95t-122 -36q-92 0 -158.5 65.5t-66.5 159.5v837h49v-835q0 -74 53.5 -126t124.5 -52q74 0 126.5 52t52.5 126v835h49v-835q0 -74 53 -126t125 -52q74 0 126 52t52 126v835h49z" />
    <glyph glyph-name="uni0272" unicode="&#x272;" 
d="M651 1063q143 0 242.5 -100.5t99.5 -241.5v-721h-49v721q0 121 -85 207t-208 86h-73q-121 0 -207 -86t-86 -207v-875q0 -84 -59.5 -143t-143.5 -59h-10v49h10q63 0 108.5 45t45.5 108v1198h49v-165q43 84 125 134t178 50h63z" />
    <glyph glyph-name="uni0275" unicode="&#x275;" 
d="M645 1063q143 0 242.5 -100.5t99.5 -241.5v-397q0 -141 -99.5 -241.5t-242.5 -100.5h-74q-141 0 -241.5 100t-100.5 242v397q0 141 100.5 241.5t241.5 100.5h74zM571 1014q-121 0 -206.5 -86t-85.5 -207v-174h659v174q0 121 -85 207t-208 86h-74zM645 31q123 0 208 86
t85 207v174h-659v-174q0 -121 86 -207t206 -86h74z" />
    <glyph glyph-name="uni0278" unicode="&#x278;" 
d="M684 1055q141 0 241.5 -100.5t100.5 -241.5v-396q0 -139 -100.5 -237t-241.5 -98h-51v-338h-49v338h-52q-141 0 -241.5 98t-100.5 237v396q0 141 100.5 241.5t241.5 100.5h52v346h49v-346h51zM532 31h52v975h-52q-121 0 -206.5 -86t-85.5 -207v-396q0 -121 84.5 -203.5
t207.5 -82.5zM977 317v396q0 121 -86 207t-207 86h-51v-975h51q123 0 208 82.5t85 203.5z" />
    <glyph glyph-name="uni0283" unicode="&#x283;" horiz-adv-x="1224" 
d="M260 -356v49h80q100 0 172 71.5t72 172.5v1171q0 121 86 207t207 86h79v-49h-79q-100 0 -172 -72t-72 -172v-1171q0 -121 -86 -207t-207 -86h-80z" />
    <glyph glyph-name="uni0289" unicode="&#x289;" 
d="M1143 612v-49h-156v-239q0 -141 -99.5 -241.5t-242.5 -100.5h-74q-141 0 -241.5 100t-100.5 242v239h-155v49h155v432h50v-432h659v432h49v-432h156zM938 324v239h-659v-239q0 -121 86 -207t206 -86h74q123 0 208 86t85 207z" />
    <glyph glyph-name="uni028C" unicode="&#x28c;" 
d="M225 0v131q0 139 60 268l297 645h53l297 -645q59 -133 59 -268v-131h-49v131q0 125 -55 248l-279 606l-278 -606q-25 -53 -38 -114.5t-16 -96.5l-2 -37v-131h-49z" />
    <glyph glyph-name="uni028D" unicode="&#x28d;" 
d="M156 133q0 135 32 266l166 645h58l196 -786l197 786h57l166 -645q33 -131 33 -266v-133h-49v133q0 131 -33 256l-148 576l-196 -787h-53l-197 787l-147 -576q-14 -55 -22.5 -119.5t-10.5 -101.5v-35v-133h-49v133z" />
    <glyph glyph-name="uni028E" unicode="&#x28e;" 
d="M979 0h-49v133q0 123 -64 238l-262 491l-264 -491q-61 -111 -61 -238v-133h-50v133q0 137 66 262l496 914q53 92 153 92h154v-49h-154q-14 0 -28.5 -3t-24.5 -9.5t-19.5 -13.5t-15.5 -13t-10 -12.5t-6 -10.5l-4 -4l-205 -375l280 -516q68 -129 68 -262v-133z" />
    <glyph glyph-name="uni0292" unicode="&#x292;" 
d="M651 420q143 0 242.5 -100.5t99.5 -241.5v-92q0 -141 -99 -241.5t-243 -100.5h-383v49h383q123 0 208 86t85 207v92q0 121 -85 207t-208 86h-243v49l501 575h-639v49h705v-49l-502 -575h178z" />
    <glyph glyph-name="uni0298" unicode="&#x298;" horiz-adv-x="1224" 
d="M559 1419h98q143 0 242.5 -100t99.5 -242v-753q0 -141 -99 -241.5t-243 -100.5h-98q-141 0 -241.5 100t-100.5 242v753q0 141 100.5 241.5t241.5 100.5zM559 1370q-121 0 -207 -86t-86 -207v-753q0 -121 86 -207t207 -86h98q121 0 207 86t86 207v753q0 121 -86 207
t-207 86h-98zM584 827h49v-252h-49v252z" />
    <glyph glyph-name="uni029D" unicode="&#x29d;" horiz-adv-x="1228" 
d="M756 1202v248h49v-248h-49zM1028 203h-223v-264q0 -129 -91 -221.5t-222 -92.5q-129 0 -221.5 92.5t-92.5 221.5q0 131 92 222t222 91h264v743h-492v49h541v-792h223v-49zM756 203h-264q-109 0 -187 -77t-78 -187q0 -109 78 -187t187 -78q111 0 187.5 78t76.5 187v264z
" />
    <glyph glyph-name="circumflex" unicode="&#x2c6;" 
d="M358 1257l230 230h43l229 -230l-35 -34l-217 215l-215 -215z" />
    <glyph glyph-name="caron" unicode="&#x2c7;" 
d="M358 1466l35 35l215 -215l217 215l35 -35l-229 -229h-43z" />
    <glyph glyph-name="breve" unicode="&#x2d8;" 
d="M406 1440h49q0 -63 45 -108.5t108.5 -45.5t108.5 45t45 109h49q0 -84 -59.5 -143.5t-143.5 -59.5t-143 59.5t-59 143.5z" />
    <glyph glyph-name="dotaccent" unicode="&#x2d9;" 
d="M584 1237v248h49v-248h-49z" />
    <glyph glyph-name="ring" unicode="&#x2da;" 
d="M406 1440q0 84 59 143t143 59t143.5 -59t59.5 -143t-59.5 -143.5t-143.5 -59.5t-143 59.5t-59 143.5zM455 1439.5q0 -63.5 45 -108.5t108.5 -45t108.5 45t45 108.5t-45 108.5t-108.5 45t-108.5 -45t-45 -108.5z" />
    <glyph glyph-name="ogonek" unicode="&#x2db;" 
d="M567 0h49v-154q0 -63 45.5 -108t108.5 -45h10v-49h-10q-84 0 -143.5 59t-59.5 143v154z" />
    <glyph glyph-name="tilde" unicode="&#x2dc;" 
d="M221 1227v12q0 90 63.5 153.5t155.5 63.5q115 0 174 -94q70 -98 162 -98q70 0 120 50t50 120v12h49v-12q0 -90 -64.5 -155t-154.5 -65q-113 0 -174 95q-63 98 -162 98q-70 0 -120 -49t-50 -119v-12h-49z" />
    <glyph glyph-name="hungarumlaut" unicode="&#x2dd;" 
d="M393 1155l-35 35l220 221l36 -35zM639 1155l-35 35l219 221l37 -35z" />
    <glyph glyph-name="gravecomb" unicode="&#x300;" horiz-adv-x="0" 
d="M238 1155l-222 221l37 35l219 -221z" />
    <glyph glyph-name="acutecomb" unicode="&#x301;" horiz-adv-x="0" 
d="M35 1155l-35 35l219 221l37 -35z" />
    <glyph glyph-name="uni0302" unicode="&#x302;" horiz-adv-x="0" 
d="M0 1257l229 230h43l230 -230l-35 -34l-217 215l-215 -215z" />
    <glyph glyph-name="tildecomb" unicode="&#x303;" horiz-adv-x="0" 
d="M0 1227v12q0 90 63.5 153.5t155.5 63.5q115 0 174 -94q70 -98 162 -98q70 0 120 50t50 120v12h49v-12q0 -90 -64.5 -155t-154.5 -65q-113 0 -174 95q-63 98 -162 98q-70 0 -120 -49t-50 -119v-12h-49z" />
    <glyph glyph-name="uni0304" unicode="&#x304;" horiz-adv-x="0" 
d="M0 1237v49h561v-49h-561z" />
    <glyph glyph-name="uni0306" unicode="&#x306;" horiz-adv-x="0" 
d="M0 1440h49q0 -63 45 -108.5t108.5 -45.5t108.5 45t45 109h50q0 -84 -59.5 -143.5t-143.5 -59.5t-143.5 59.5t-59.5 143.5z" />
    <glyph glyph-name="uni0307" unicode="&#x307;" horiz-adv-x="0" 
d="M0 1237v248h49v-248h-49z" />
    <glyph glyph-name="uni0308" unicode="&#x308;" horiz-adv-x="0" 
d="M0 1237v248h49v-248h-49zM221 1237v248h49v-248h-49z" />
    <glyph glyph-name="hookabovecomb" unicode="&#x309;" horiz-adv-x="0" 
d="M260 1356q0 -86 -61 -144l-35 35q47 47 47 109q0 63 -45 108t-109 45h-57v50h57q82 0 142.5 -60.5t60.5 -142.5z" />
    <glyph glyph-name="uni030A" unicode="&#x30a;" horiz-adv-x="0" 
d="M0 1440q0 84 59.5 143t143.5 59t143.5 -59t59.5 -143t-59.5 -143.5t-143.5 -59.5t-143.5 59.5t-59.5 143.5zM49 1439.5q0 -63.5 45 -108.5t108.5 -45t108.5 45t45 108.5t-45 108.5t-108.5 45t-108.5 -45t-45 -108.5z" />
    <glyph glyph-name="uni030B" unicode="&#x30b;" horiz-adv-x="0" 
d="M35 1155l-35 35l219 221l37 -35zM281 1155l-35 35l219 221l37 -35z" />
    <glyph glyph-name="uni030C" unicode="&#x30c;" horiz-adv-x="0" 
d="M0 1466l35 35l215 -215l217 215l35 -35l-230 -229h-43z" />
    <glyph glyph-name="uni0312" unicode="&#x312;" horiz-adv-x="0" 
d="M244 1235h-244v53q0 106 61.5 190.5t157.5 120.5l14 -47q-82 -31 -133 -104.5t-51 -163.5h195v-49z" />
    <glyph glyph-name="uni031B" unicode="&#x31b;" horiz-adv-x="0" 
d="M0 797v49h6q63 0 108.5 45t45.5 108v45h49v-45q0 -82 -59.5 -142t-143.5 -60h-6z" />
    <glyph glyph-name="dotbelowcomb" unicode="&#x323;" horiz-adv-x="0" 
d="M0 -440v247h49v-247h-49z" />
    <glyph glyph-name="uni0326" unicode="&#x326;" horiz-adv-x="0" 
d="M0 -193h244v-53q0 -106 -61.5 -190t-157.5 -121l-15 47q82 31 133.5 104.5t51.5 163.5h-195v49z" />
    <glyph glyph-name="uni0327" unicode="&#x327;" horiz-adv-x="0" 
d="M51 -115q76 -8 128 -65.5t52 -134.5q0 -84 -59 -143.5t-143 -59.5h-29v49h29q63 0 108 45t45 108.5t-45 108.5t-108 45h-27v162h49v-115z" />
    <glyph glyph-name="uni0328" unicode="&#x328;" horiz-adv-x="0" 
d="M0 0h49v-154q0 -63 45 -108t109 -45h10v-49h-10q-84 0 -143.5 59t-59.5 143v154z" />
    <glyph glyph-name="uni032C" unicode="&#x32c;" horiz-adv-x="0" 
d="M0 -260l35 35l215 -215l217 215l35 -35l-230 -229h-43z" />
    <glyph glyph-name="uni032D" unicode="&#x32d;" horiz-adv-x="0" 
d="M0 -340l229 229h43l230 -229l-35 -35l-217 215l-215 -215z" />
    <glyph glyph-name="uni0331" unicode="&#x331;" horiz-adv-x="0" 
d="M0 -240v50h561v-50h-561z" />
    <glyph glyph-name="uni0335" unicode="&#x335;" horiz-adv-x="0" 
d="M0 547h610v-49h-610v49z" />
    <glyph glyph-name="uni0336" unicode="&#x336;" horiz-adv-x="0" 
d="M0 547h717v-49h-717v49z" />
    <glyph glyph-name="uni0337" unicode="&#x337;" horiz-adv-x="0" 
d="M694 1104l43 -27l-694 -1132l-43 26z" />
    <glyph glyph-name="uni0338" unicode="&#x338;" horiz-adv-x="0" 
d="M889 1438l41 -25l-889 -1450l-41 25z" />
    <glyph glyph-name="tonos" unicode="&#x384;" 
d="M639 1141l-45 22l127 285l45 -23z" />
    <glyph glyph-name="dieresistonos" unicode="&#x385;" 
d="M641 1528l-45 22l127 285l45 -23zM475 1237v248h49v-248h-49zM696 1237v248h49v-248h-49z" />
    <glyph glyph-name="Alphatonos" unicode="&#x386;" 
d="M993 553q35 -129 35 -281v-272h-49v272q0 55 -6 111h-697q-6 -55 -6 -111v-272h-49v272q0 141 35 281l201 737q14 55 61 92t107 37q61 0 107 -36.5t61 -92.5zM406 1397l-127 -285l-46 23l127 284zM283 432h684q-12 76 -23 107l-199 737q-10 41 -42.5 67.5t-77.5 26.5
t-78 -26.5t-43 -67.5l-199 -737q-10 -31 -22 -107z" />
    <glyph glyph-name="Epsilontonos" unicode="&#x388;" 
d="M102 1106l-45 22l127 285l45 -22zM276 0v1401h766v-49h-716v-627h651v-49h-651v-627h716v-49h-766z" />
    <glyph glyph-name="Etatonos" unicode="&#x389;" 
d="M63 1106l-45 22l127 285l45 -22zM948 1401h49v-1401h-49v676h-659v-676h-49v1401h49v-676h659v676z" />
    <glyph glyph-name="Iotatonos" unicode="&#x38a;" 
d="M117 1106l-45 22l127 285l45 -22zM250 49h354v1303h-350v49h750v-49h-351v-1303h355v-49h-758v49z" />
    <glyph glyph-name="Omicrontonos" unicode="&#x38c;" 
d="M156 1118l-45 23l127 284l45 -22zM569 -18q-141 0 -241.5 100t-100.5 242v753q0 141 100.5 241.5t241.5 100.5h99q143 0 242.5 -100t99.5 -242v-753q0 -141 -99.5 -241.5t-242.5 -100.5h-99zM569 31h99q123 0 208 86t85 207v753q0 121 -85 207t-208 86h-99
q-121 0 -207 -86t-86 -207v-753q0 -121 86 -207t207 -86z" />
    <glyph glyph-name="Upsilontonos" unicode="&#x38e;" 
d="M68 1110l-45 23l127 284l45 -22zM999 1114q0 -25 -4 -50.5t-11 -46t-15 -40t-16.5 -34.5t-14.5 -25.5t-12 -16.5l-4 -8l-279 -342v-551h-49v551l-279 342q-6 6 -22.5 31.5t-35.5 81t-19 108.5v287h49v-287q0 -47 18.5 -95t31.5 -69.5t19 -27.5l262 -324l263 324l8 10
q6 10 16 28.5t20.5 41t17.5 53t7 59.5v287h49v-287z" />
    <glyph glyph-name="Omegatonos" unicode="&#x38f;" 
d="M233 1434l46 -23l-127 -285l-46 23zM825 49h203v-49h-360v49q123 0 208 86t85 207v735q0 121 -85 207t-208 86h-99q-121 0 -207 -86t-86 -207v-735q0 -121 86.5 -207t206.5 -86v-49h-360v49h203q-82 43 -133.5 126t-51.5 179v723q0 143 100.5 242.5t241.5 99.5h99
q143 0 242.5 -99t99.5 -243v-723q0 -98 -50.5 -180t-134.5 -125z" />
    <glyph glyph-name="iotadieresistonos" unicode="&#x390;" 
d="M541 1528l-45 22l127 285l45 -23zM375 1237v248h49v-248h-49zM596 1237v248h49v-248h-49zM115 995v49h420v-741q0 -113 79.5 -192.5t192.5 -79.5q98 0 173 61.5t95 155.5l47 -15q-25 -111 -112.5 -181t-202.5 -70q-133 0 -227.5 94t-94.5 227v692h-370z" />
    <glyph glyph-name="Alpha" unicode="&#x391;" 
d="M977 553q35 -129 35 -281v-272h-49v272q0 55 -7 111h-696q-6 -55 -6 -111v-272h-49v272q0 141 35 281l200 737q14 55 61.5 92t106.5 37q61 0 107.5 -36.5t60.5 -92.5zM266 432h684q-12 76 -22 107l-199 737q-10 41 -43 67.5t-78 26.5t-77.5 -26.5t-43.5 -67.5l-198 -737
q-11 -31 -23 -107z" />
    <glyph glyph-name="Beta" unicode="&#x392;" 
d="M788 715q102 -31 169 -119t67 -201v-53q0 -141 -100.5 -241.5t-241.5 -100.5h-428v1401h416q141 0 241.5 -99.5t100.5 -242.5v-29q0 -109 -63 -194.5t-161 -120.5zM670 1352h-367v-615h367q121 0 207 86t86 207v29q0 121 -86 207t-207 86zM975 342v53q0 121 -86 207
t-207 86h-379v-639h379q121 0 207 86t86 207z" />
    <glyph glyph-name="Gamma" unicode="&#x393;" 
d="M279 0v1401h739v-49h-690v-1352h-49z" />
    <glyph glyph-name="Delta" unicode="&#x394;" 
d="M156 0v49l419 1352h66l420 -1352v-49h-905zM207 49h803l-402 1292z" />
    <glyph glyph-name="Epsilon" unicode="&#x395;" 
d="M256 0v1401h766v-49h-717v-627h651v-49h-651v-627h717v-49h-766z" />
    <glyph glyph-name="Zeta" unicode="&#x396;" 
d="M233 1401h748v-49l-705 -1303h723v-49h-780v49l707 1303h-693v49z" />
    <glyph glyph-name="Eta" unicode="&#x397;" 
d="M938 1401h49v-1401h-49v676h-659v-676h-50v1401h50v-676h659v676z" />
    <glyph glyph-name="Theta" unicode="&#x398;" 
d="M559 -18q-141 0 -241.5 100t-100.5 242v753q0 141 100.5 241.5t241.5 100.5h98q143 0 242.5 -100t99.5 -242v-753q0 -141 -99 -241.5t-243 -100.5h-98zM559 31h98q123 0 208 86t85 207v753q0 121 -85 207t-208 86h-98q-121 0 -207 -86t-86 -207v-753q0 -121 86 -207
t207 -86zM381 680v49h450v-49h-450z" />
    <glyph glyph-name="Iota" unicode="&#x399;" 
d="M229 49h355v1303h-351v49h750v-49h-350v-1303h354v-49h-758v49z" />
    <glyph glyph-name="Kappa" unicode="&#x39a;" 
d="M242 1401h49v-670h266l307 338q27 31 54.5 89.5t27.5 113.5v129h49v-129q0 -59 -31.5 -130t-62.5 -106l-303 -329l322 -342q31 -33 62.5 -105t31.5 -131v-129h-49v129q0 57 -29 116.5t-53 86.5l-328 350h-264v-682h-49v1401z" />
    <glyph glyph-name="Lambda" unicode="&#x39b;" 
d="M205 0v272q0 141 35 281l200 737q14 55 61.5 92t106.5 37q61 0 107.5 -36.5t60.5 -92.5l201 -737q35 -129 35 -281v-272h-49v272q0 139 -35 267l-199 737q-10 41 -43 67.5t-78 26.5t-77.5 -26.5t-43.5 -67.5l-198 -737q-35 -127 -35 -267v-272h-49z" />
    <glyph glyph-name="Mu" unicode="&#x39c;" 
d="M190 0v1401h66l352 -895l353 895h65v-1401h-49v1311l-342 -869h-53l-342 869v-1311h-50z" />
    <glyph glyph-name="Nu" unicode="&#x39d;" 
d="M211 1401h61l684 -1315v1315h50v-1401h-62l-684 1315v-1315h-49v1401z" />
    <glyph glyph-name="Xi" unicode="&#x39e;" 
d="M219 1401h778v-49h-778v49zM281 725h655v-49h-655v49zM219 49h778v-49h-778v49z" />
    <glyph glyph-name="Omicron" unicode="&#x39f;" 
d="M559 -18q-141 0 -241.5 100t-100.5 242v753q0 141 100.5 241.5t241.5 100.5h98q143 0 242.5 -100t99.5 -242v-753q0 -141 -99 -241.5t-243 -100.5h-98zM559 31h98q123 0 208 86t85 207v753q0 121 -85 207t-208 86h-98q-121 0 -207 -86t-86 -207v-753q0 -121 86 -207
t207 -86z" />
    <glyph glyph-name="Pi" unicode="&#x3a0;" 
d="M229 0v1401h758v-1401h-49v1352h-659v-1352h-50z" />
    <glyph glyph-name="Rho" unicode="&#x3a1;" 
d="M279 0v1401h415q141 0 241.5 -99.5t100.5 -242.5v-127q0 -141 -100 -241.5t-242 -100.5h-366v-590h-49zM328 639h366q121 0 207 86t86 207v127q0 121 -86 207t-207 86h-366v-713z" />
    <glyph glyph-name="Sigma" unicode="&#x3a3;" 
d="M238 1401h761v-49h-702l403 -652l-421 -651h739v-49h-799v49l422 651l-403 652v49z" />
    <glyph glyph-name="Tau" unicode="&#x3a4;" 
d="M186 1401h844v-49h-397v-1352h-49v1352h-398v49z" />
    <glyph glyph-name="Upsilon" unicode="&#x3a5;" 
d="M989 1114q0 -25 -4 -50.5t-11 -46t-15.5 -40t-16.5 -34.5t-14 -25.5t-10 -16.5l-7 -8l-278 -342v-551h-49v551l-279 342q-6 6 -22.5 31.5t-36 81t-19.5 108.5v287h49v-287q0 -47 18.5 -95t32 -69.5t19.5 -27.5l262 -324l262 324l7 10q8 10 18 28.5t20.5 41t17.5 53
t7 59.5v287h49v-287z" />
    <glyph glyph-name="Phi" unicode="&#x3a6;" 
d="M684 1237q141 0 241.5 -100.5t100.5 -241.5v-395q0 -139 -100.5 -237.5t-241.5 -98.5h-51v-164h-49v164h-52q-141 0 -241.5 98t-100.5 238v395q0 141 100.5 241.5t241.5 100.5h52v164h49v-164h51zM532 213h52v975h-52q-121 0 -206.5 -86t-85.5 -207v-395
q0 -121 84.5 -204t207.5 -83zM977 500v395q0 121 -86 207t-207 86h-51v-975h51q123 0 208 83t85 204z" />
    <glyph glyph-name="Chi" unicode="&#x3a7;" 
d="M238 1401h49v-129q0 -49 16 -98.5t33 -73.5l18 -25l254 -325l254 325q68 86 68 197v129h49v-129q0 -55 -19.5 -112.5t-36 -83t-22.5 -32.5l-262 -333l274 -349q41 -51 62.5 -122.5t21.5 -112.5v-127h-49v127q0 33 -17.5 95.5t-56.5 109.5l-266 340l-266 -340
q-37 -47 -55.5 -110.5t-18.5 -94.5v-127h-49v127q0 41 21.5 112.5t62.5 122.5l275 349l-263 333l-4 9q-6 6 -12 17t-14.5 26.5t-16.5 35t-15 41t-11 48t-4 51.5v129z" />
    <glyph glyph-name="Psi" unicode="&#x3a8;" 
d="M977 1401h49v-721q0 -141 -100.5 -241.5t-241.5 -100.5h-51v-338h-49v338h-52q-141 0 -241.5 100.5t-100.5 241.5v721h50v-721q0 -121 86 -207t206 -86h52v1014h49v-1014h51q121 0 207 86t86 207v721z" />
    <glyph glyph-name="Omega" unicode="&#x3a9;" 
d="M815 49h203v-49h-361v49q123 0 208 86t85 207v735q0 121 -85 207t-208 86h-98q-121 0 -207 -86t-86 -207v-735q0 -121 86 -207t207 -86v-49h-360v49h202q-82 43 -133 126t-51 179v723q0 143 100.5 242.5t241.5 99.5h98q143 0 242.5 -99t99.5 -243v-723q0 -98 -50 -180
t-134 -125z" />
    <glyph glyph-name="Iotadieresis" unicode="&#x3aa;" 
d="M473 1546v248h49v-248h-49zM694 1546v248h49v-248h-49zM229 49h355v1303h-351v49h750v-49h-350v-1303h354v-49h-758v49z" />
    <glyph glyph-name="Upsilondieresis" unicode="&#x3ab;" 
d="M473 1546v248h49v-248h-49zM694 1546v248h49v-248h-49zM989 1114q0 -25 -4 -50.5t-11 -46t-15.5 -40t-16.5 -34.5t-14 -25.5t-10 -16.5l-7 -8l-278 -342v-551h-49v551l-279 342q-6 6 -22.5 31.5t-36 81t-19.5 108.5v287h49v-287q0 -47 18.5 -95t32 -69.5t19.5 -27.5
l262 -324l262 324l7 10q8 10 18 28.5t20.5 41t17.5 53t7 59.5v287h49v-287z" />
    <glyph glyph-name="alphatonos" unicode="&#x3ac;" 
d="M766 1425l-127 -284l-45 22l127 285zM1083 49h27v-49h-27q-72 0 -126 48t-62 120q-43 -84 -125 -135t-180 -51h-64q-141 0 -241.5 100t-100.5 242v397q0 141 100.5 241.5t241.5 100.5h64q98 0 179 -49t124 -133v163h49v-854q0 -59 41 -100t100 -41zM600 31q123 0 208 86
t85 207v397q0 121 -85 207t-208 86h-74q-121 0 -207 -86t-86 -207v-397q0 -121 86.5 -207t206.5 -86h74z" />
    <glyph glyph-name="epsilontonos" unicode="&#x3ad;" 
d="M766 1425l-127 -284l-45 22l127 285zM952 211l47 -14q-23 -94 -100.5 -154.5t-175.5 -60.5h-205q-117 0 -201 82.5t-84 201.5q0 92 55.5 166t143.5 100q-74 29 -121 97.5t-47 152.5q0 117 82 199t199 82h180q96 0 171 -57.5t99 -147.5l-47 -14q-20 74 -81.5 122
t-141.5 48h-180q-96 0 -164 -67.5t-68 -164t68 -164t164 -67.5h211v-49h-238q-98 0 -166.5 -70t-68.5 -166q0 -98 68.5 -166.5t166.5 -68.5h205q82 0 145.5 50t83.5 130z" />
    <glyph glyph-name="etatonos" unicode="&#x3ae;" 
d="M766 1425l-127 -284l-45 22l127 285zM655 1063q143 0 242.5 -100.5t99.5 -241.5v-1077h-49v1077q0 121 -85 207t-208 86h-73q-121 0 -207 -86t-86 -207v-721h-49v854q0 59 -42 100t-100 41h-26v49h26q72 0 126.5 -48t62.5 -119q43 84 125 135t180 51h63z" />
    <glyph glyph-name="iotatonos" unicode="&#x3af;" 
d="M541 1141l-45 22l127 285l45 -23zM115 995v49h420v-741q0 -113 79.5 -192.5t192.5 -79.5q98 0 173 61.5t95 155.5l47 -15q-25 -111 -112.5 -181t-202.5 -70q-133 0 -227.5 94t-94.5 227v692h-370z" />
    <glyph glyph-name="upsilondieresistonos" unicode="&#x3b0;" 
d="M645 1528l-45 22l127 285l45 -23zM479 1237v248h49v-248h-49zM700 1237v248h50v-248h-50zM236 1044h49v-720q0 -121 86 -207t207 -86h73q121 0 207 86t86 207v389q0 100 -62.5 180t-158.5 104l12 47q113 -29 185.5 -122t72.5 -209v-389q0 -143 -99 -242.5t-243 -99.5h-73
q-141 0 -241.5 99t-100.5 243v720z" />
    <glyph glyph-name="alpha" unicode="&#x3b1;" 
d="M1083 49h27v-49h-27q-72 0 -126 48t-62 120q-43 -84 -125 -135t-180 -51h-64q-141 0 -241.5 100t-100.5 242v397q0 141 100.5 241.5t241.5 100.5h64q98 0 179 -49t124 -133v163h49v-854q0 -59 41 -100t100 -41zM600 31q123 0 208 86t85 207v397q0 121 -85 207t-208 86
h-74q-121 0 -207 -86t-86 -207v-397q0 -121 86.5 -207t206.5 -86h74z" />
    <glyph glyph-name="beta" unicode="&#x3b2;" 
d="M795 721q102 -33 168.5 -121t66.5 -201v-75q0 -141 -100.5 -241.5t-241.5 -100.5h-63q-96 0 -178 50t-125 134v-522h-50v1419q0 143 99.5 243.5t242.5 100.5h62q141 0 241.5 -100.5t100.5 -243.5v-27q0 -109 -62.5 -194.5t-160.5 -120.5zM981 324v75q0 121 -86 208
t-207 87h-172v49h160q121 0 207 86t86 207v27q0 121 -86 208t-207 87h-62q-123 0 -207.5 -86t-84.5 -209v-739q0 -121 86 -207t206 -86h74q121 0 207 86t86 207z" />
    <glyph glyph-name="gamma" unicode="&#x3b3;" 
d="M983 911q0 -139 -65 -262l-285 -524v-481h-49v481l-285 524q-66 123 -66 262v133h50v-133q0 -127 61 -237l264 -492l264 492q61 111 62 237v133h49v-133z" />
    <glyph glyph-name="delta" unicode="&#x3b4;" 
d="M997 563v-2v-237q0 -141 -100 -241.5t-242 -100.5h-73q-143 0 -242.5 100t-99.5 242v231q0 143 99 243.5t243 100.5h32l-225 98q-55 27 -89 79t-34 114q0 88 61.5 149.5t149.5 61.5h385v-49h-385q-68 0 -115 -47.5t-47 -114.5q0 -104 97 -150l364 -159q98 -35 158.5 -121
t62.5 -195v-2zM948 324v237v2v2q-2 119 -87 204t-206 85h-73q-121 0 -207 -86t-86 -207v-237q0 -121 86 -207t207 -86h73q121 0 207 86t86 207z" />
    <glyph glyph-name="epsilon" unicode="&#x3b5;" 
d="M952 211l47 -14q-23 -94 -100.5 -154.5t-175.5 -60.5h-205q-117 0 -201 82.5t-84 201.5q0 92 55.5 166t143.5 100q-74 29 -121 97.5t-47 152.5q0 117 82 199t199 82h180q96 0 171 -57.5t99 -147.5l-47 -14q-20 74 -81.5 122t-141.5 48h-180q-96 0 -164 -67.5t-68 -164
t68 -164t164 -67.5h211v-49h-238q-98 0 -166.5 -70t-68.5 -166q0 -98 68.5 -166.5t166.5 -68.5h205q82 0 145.5 50t83.5 130z" />
    <glyph glyph-name="zeta" unicode="&#x3b6;" 
d="M215 344q0 145 82 242l637 766h-678v49h743v-49l-665 -799q-70 -84 -70 -209q0 -121 86 -207t207 -88h277q78 0 133 -55t55 -135v-215h-49v215q0 59 -40 100t-99 41h-277q-141 2 -241.5 101.5t-100.5 242.5z" />
    <glyph glyph-name="eta" unicode="&#x3b7;" 
d="M655 1063q143 0 242.5 -100.5t99.5 -241.5v-1077h-49v1077q0 121 -85 207t-208 86h-73q-121 0 -207 -86t-86 -207v-721h-49v854q0 59 -42 100t-100 41h-26v49h26q72 0 126.5 -48t62.5 -119q43 84 125 135t180 51h63z" />
    <glyph glyph-name="theta" unicode="&#x3b8;" 
d="M657 1419q143 0 242.5 -100t99.5 -242v-753q0 -141 -99 -241.5t-243 -100.5h-98q-141 0 -241.5 100t-100.5 242v753q0 141 100.5 241.5t241.5 100.5h98zM559 1370q-121 0 -207 -86t-86 -207v-352h684v352q0 121 -85 207t-208 86h-98zM657 31q123 0 208 86t85 207v352
h-684v-352q0 -121 86 -207t207 -86h98z" />
    <glyph glyph-name="iota" unicode="&#x3b9;" 
d="M115 995v49h420v-741q0 -113 79.5 -192.5t192.5 -79.5q98 0 173 61.5t95 155.5l47 -15q-25 -111 -112.5 -181t-202.5 -70q-133 0 -227.5 94t-94.5 227v692h-370z" />
    <glyph glyph-name="kappa" unicode="&#x3ba;" 
d="M260 1044h49v-503h295l215 174q31 27 63.5 83t32.5 113v133h50v-133q0 -51 -28 -117.5t-85 -115.5l-203 -162l230 -176q41 -31 72.5 -89t31.5 -122v-129h-49v129q0 47 -21.5 90t-41 62.5t-23.5 19.5l-244 191h-295v-492h-49v1044z" />
    <glyph glyph-name="lambda" unicode="&#x3bb;" 
d="M236 1352v49h124q104 0 152 -101l526 -1179q18 -39 53 -55.5t58 -16.5h37v-49h-37q-109 0 -156 102l-395 885l-270 -608q-55 -121 -56 -248v-131h-49v131q0 133 60 268l288 648l-104 235q-35 70 -107 70h-124z" />
    <glyph glyph-name="mu" unicode="&#x3bc;" 
d="M1104 49h26v-49h-26q-74 0 -128 49t-61 121q-43 -84 -123.5 -136t-179.5 -52h-57q-96 0 -177 52t-124 136v-526h-49v1400h49v-720q0 -121 86 -207t207 -86h74q121 0 206.5 86t85.5 207v720h50v-854q0 -59 41 -100t100 -41z" />
    <glyph glyph-name="nu" unicode="&#x3bd;" 
d="M225 1044h49v-131q0 -129 56 -247l278 -607l279 607q55 123 55 247v131h49v-131q0 -135 -59 -268l-297 -645h-53l-297 645q-59 129 -60 268v131z" />
    <glyph glyph-name="xi" unicode="&#x3be;" 
d="M834 49q78 0 133 -56t55 -134v-215h-49v215q0 59 -41 100t-98 41h-220q-143 0 -242.5 99.5t-99.5 242.5v53q0 111 67 200t169 120q-98 35 -160.5 121t-62.5 194v29q0 141 99 241.5t243 100.5h344v-49h-344q-121 0 -207 -86t-86 -207v-29q0 -121 86 -207t207 -86h227v-49
h-240q-121 0 -206.5 -86t-85.5 -207v-53q0 -121 86 -207t206 -86h220z" />
    <glyph glyph-name="omicron" unicode="&#x3bf;" 
d="M571 1063h74q143 0 242.5 -100.5t99.5 -241.5v-397q0 -141 -99.5 -241.5t-242.5 -100.5h-74q-141 0 -241.5 100t-100.5 242v397q0 141 100.5 241.5t241.5 100.5zM571 1014q-121 0 -206.5 -86t-85.5 -207v-397q0 -121 86 -207t206 -86h74q123 0 208 86t85 207v397
q0 121 -85 207t-208 86h-74z" />
    <glyph glyph-name="pi" unicode="&#x3c0;" 
d="M1098 995h-213v-805q0 -59 41 -100t100 -41h25v-49h-25q-78 0 -134 55.5t-56 134.5v805h-467v-995h-50v995h-213v49h992v-49z" />
    <glyph glyph-name="rho" unicode="&#x3c1;" 
d="M653 1063q141 0 241.5 -99.5t100.5 -242.5v-397q0 -141 -100 -241.5t-242 -100.5h-63q-96 0 -178 50t-125 134v-522h-49v1077q0 143 100 242.5t242 99.5h73zM946 324v397q0 121 -86 207t-207 86h-73q-121 0 -207 -86t-86 -207v-397q0 -121 86 -207t207 -86h73
q121 0 207 86t86 207z" />
    <glyph glyph-name="sigma1" unicode="&#x3c2;" 
d="M240 342v379q0 141 100 241.5t242 100.5h73q143 0 242.5 -100.5t99.5 -241.5h-49q0 121 -85 207t-208 86h-73q-121 0 -207 -86t-86 -207v-379q0 -121 86 -207t207 -86h227q78 0 133 -56t55 -134v-215h-49v215q0 59 -41 100t-98 41h-227q-141 0 -241.5 100.5t-100.5 241.5
z" />
    <glyph glyph-name="sigma" unicode="&#x3c3;" 
d="M1065 1044v-49h-274q82 -43 133 -126t51 -179v-366q0 -143 -100.5 -242.5t-241.5 -99.5h-74q-143 0 -242.5 99t-99.5 243v378q0 141 99.5 241.5t242.5 100.5h506zM926 702q0 121 -86 207t-207 86h-74q-123 0 -208 -86t-85 -207v-378q0 -121 85 -207t208 -86h74
q121 0 207 86t86 207v378z" />
    <glyph glyph-name="tau" unicode="&#x3c4;" 
d="M1001 995h-385v-805q0 -59 42 -100t100 -41h59v-49h-59q-78 0 -134.5 56.5t-56.5 133.5v805h-360v49h794v-49z" />
    <glyph glyph-name="upsilon" unicode="&#x3c5;" 
d="M236 1044h49v-720q0 -121 86 -207t207 -86h73q121 0 207 86t86 207v389q0 100 -62.5 180t-158.5 104l12 47q113 -29 185.5 -122t72.5 -209v-389q0 -143 -99 -242.5t-243 -99.5h-73q-141 0 -241.5 99t-100.5 243v720z" />
    <glyph glyph-name="phi" unicode="&#x3c6;" 
d="M684 1055q141 0 241.5 -100.5t100.5 -241.5v-396q0 -139 -100.5 -237t-241.5 -98h-51v-338h-49v338h-52q-141 0 -241.5 98t-100.5 237v396q0 141 100.5 241.5t241.5 100.5h52v346h49v-346h51zM532 31h52v975h-52q-121 0 -206.5 -86t-85.5 -207v-396q0 -121 84.5 -203.5
t207.5 -82.5zM977 317v396q0 121 -86 207t-207 86h-51v-975h51q123 0 208 82.5t85 203.5z" />
    <glyph glyph-name="chi" unicode="&#x3c7;" 
d="M238 1044h49v-129q0 -49 16 -98t33 -74l18 -24l254 -326l254 326q68 86 68 196v129h49v-129q0 -55 -19.5 -112.5t-36 -83t-22.5 -31.5l-262 -334l274 -348q41 -51 62.5 -122.5t21.5 -112.5v-127h-49v127q0 33 -17.5 95t-56.5 109l-266 340l-266 -340
q-37 -47 -55.5 -110.5t-18.5 -93.5v-127h-49v127q0 41 21.5 112.5t62.5 122.5l275 348l-263 334l-4 8q-6 6 -12 17.5t-14.5 27t-16.5 35t-15 41t-11 48t-4 50.5v129z" />
    <glyph glyph-name="psi" unicode="&#x3c8;" 
d="M977 1044h49v-720q0 -141 -100.5 -241.5t-241.5 -100.5h-51v-338h-49v338h-52q-141 0 -241.5 100t-100.5 242v720h50v-720q0 -121 86 -207t206 -86h52v1370h49v-1370h51q121 0 207 86t86 207v720z" />
    <glyph glyph-name="omega" unicode="&#x3c9;" 
d="M862 1044q76 -16 126 -78.5t50 -142.5v-616q0 -94 -65.5 -159.5t-159.5 -65.5q-68 0 -123 36.5t-82 98.5q-27 -61 -82 -98t-123 -37q-94 0 -159.5 65.5t-65.5 159.5v616q0 80 50.5 142.5t125.5 78.5l15 -47q-61 -14 -101.5 -62t-40.5 -112v-614q0 -74 52.5 -126t126 -52
t126 52t52.5 126v514h49v-514q0 -74 52 -126t126 -52t126 52t52 126v614q0 63 -40 111.5t-101 62.5z" />
    <glyph glyph-name="iotadieresis" unicode="&#x3ca;" 
d="M375 1190v248h49v-248h-49zM596 1190v248h49v-248h-49zM115 995v49h420v-741q0 -113 79.5 -192.5t192.5 -79.5q98 0 173 61.5t95 155.5l47 -15q-25 -111 -112.5 -181t-202.5 -70q-133 0 -227.5 94t-94.5 227v692h-370z" />
    <glyph glyph-name="upsilondieresis" unicode="&#x3cb;" 
d="M479 1190v248h49v-248h-49zM700 1190v248h50v-248h-50zM236 1044h49v-720q0 -121 86 -207t207 -86h73q121 0 207 86t86 207v389q0 100 -62.5 180t-158.5 104l12 47q113 -29 185.5 -122t72.5 -209v-389q0 -143 -99 -242.5t-243 -99.5h-73q-141 0 -241.5 99t-100.5 243v720
z" />
    <glyph glyph-name="omicrontonos" unicode="&#x3cc;" 
d="M639 1141l-45 22l127 285l45 -23zM571 1063h74q143 0 242.5 -100.5t99.5 -241.5v-397q0 -141 -99.5 -241.5t-242.5 -100.5h-74q-141 0 -241.5 100t-100.5 242v397q0 141 100.5 241.5t241.5 100.5zM571 1014q-121 0 -206.5 -86t-85.5 -207v-397q0 -121 86 -207t206 -86h74
q123 0 208 86t85 207v397q0 121 -85 207t-208 86h-74z" />
    <glyph glyph-name="upsilontonos" unicode="&#x3cd;" 
d="M645 1141l-45 22l127 285l45 -23zM236 1044h49v-720q0 -121 86 -207t207 -86h73q121 0 207 86t86 207v389q0 100 -62.5 180t-158.5 104l12 47q113 -29 185.5 -122t72.5 -209v-389q0 -143 -99 -242.5t-243 -99.5h-73q-141 0 -241.5 99t-100.5 243v720z" />
    <glyph glyph-name="omegatonos" unicode="&#x3ce;" 
d="M766 1425l-127 -284l-45 22l127 285zM862 1044q76 -16 126 -78.5t50 -142.5v-616q0 -94 -65.5 -159.5t-159.5 -65.5q-68 0 -123 36.5t-82 98.5q-27 -61 -82 -98t-123 -37q-94 0 -159.5 65.5t-65.5 159.5v616q0 80 50.5 142.5t125.5 78.5l15 -47q-61 -14 -101.5 -62
t-40.5 -112v-614q0 -74 52.5 -126t126 -52t126 52t52.5 126v514h49v-514q0 -74 52 -126t126 -52t126 52t52 126v614q0 63 -40 111.5t-101 62.5z" />
    <glyph glyph-name="afii10023" unicode="&#x401;" 
d="M504 1546v248h49v-248h-49zM725 1546v248h49v-248h-49zM256 0v1401h766v-49h-717v-627h651v-49h-651v-627h717v-49h-766z" />
    <glyph glyph-name="afii10051" unicode="&#x402;" 
d="M698 836q143 0 242.5 -100.5t99.5 -241.5v-152q0 -141 -99 -241.5t-243 -100.5h-94v49h94q123 0 208 86t85 207v152q0 121 -85 206.5t-208 85.5h-73q-121 0 -207 -86t-86 -206v-494h-49v1352h-240v49h748v-49h-459v-701q43 84 125 134.5t178 50.5h63z" />
    <glyph glyph-name="afii10052" unicode="&#x403;" 
d="M664 1511l-35 35l219 221l37 -34zM279 0v1401h739v-49h-690v-1352h-49z" />
    <glyph glyph-name="afii10053" unicode="&#x404;" 
d="M676 31q102 0 181 62.5t104 158.5l47 -14q-29 -113 -121 -184.5t-211 -71.5h-98q-143 0 -242.5 99t-99.5 243v753q0 141 99 241.5t243 100.5h98q119 0 211 -72.5t121 -183.5l-47 -14q-25 96 -104 158.5t-181 62.5h-98q-121 0 -207 -86t-86 -207v-352h577v-49h-577v-352
q0 -121 86 -207t207 -86h98z" />
    <glyph glyph-name="afii10054" unicode="&#x405;" 
d="M188 238l48 14q23 -96 102.5 -158.5t181.5 -62.5h135q121 0 207 86t86 207q0 233 -239 325l-207 80q-139 51 -213 133t-74 215q0 143 99.5 242.5t242.5 99.5h92q119 0 211 -71.5t121 -184.5l-47 -14q-25 96 -103.5 158.5t-181.5 62.5h-92q-123 0 -208 -86t-85 -207
q0 -111 61.5 -181.5t194.5 -121.5l207 -80q270 -104 270 -370q0 -141 -100 -241.5t-242 -100.5h-135q-119 0 -211 72.5t-121 183.5z" />
    <glyph glyph-name="afii10055" unicode="&#x406;" 
d="M229 49h355v1303h-351v49h750v-49h-350v-1303h354v-49h-758v49z" />
    <glyph glyph-name="afii10056" unicode="&#x407;" 
d="M473 1546v248h49v-248h-49zM694 1546v248h49v-248h-49zM229 49h355v1303h-351v49h750v-49h-350v-1303h354v-49h-758v49z" />
    <glyph glyph-name="afii10057" unicode="&#x408;" 
d="M254 1401h702v-1077q0 -141 -100 -241.5t-242 -100.5h-69q-119 0 -211 72.5t-121 183.5l47 14q23 -96 102.5 -158.5t182.5 -62.5h69q121 0 207 86t86 207v1028h-653v49z" />
    <glyph glyph-name="afii10058" unicode="&#x409;" 
d="M29 0v49h57q57 0 99 41t42 100v1211h471v-588h107q141 0 241.5 -100.5t100.5 -241.5v-129q0 -141 -100.5 -241.5t-241.5 -100.5h-156v1352h-373v-1162q0 -78 -56 -134t-134 -56h-57zM698 49h107q121 0 207 86t86 207v129q0 121 -86 207t-207 86h-107v-715z" />
    <glyph glyph-name="afii10059" unicode="&#x40a;" 
d="M215 0v1401h49v-637h381v637h49v-637h107q141 0 241.5 -100.5t100.5 -241.5v-80q0 -141 -100.5 -241.5t-241.5 -100.5h-156v715h-381v-715h-49zM694 49h107q121 0 207 86t86 207v80q0 121 -86 207t-207 86h-107v-666z" />
    <glyph glyph-name="afii10060" unicode="&#x40b;" 
d="M692 836q143 0 242.5 -100.5t99.5 -241.5v-494h-49v494q0 121 -85 206.5t-208 85.5h-74q-121 0 -206.5 -86t-85.5 -206v-494h-50v1352h-249v49h747v-49h-448v-701q43 84 124.5 134.5t178.5 50.5h63z" />
    <glyph glyph-name="afii10061" unicode="&#x40c;" 
d="M608 1511l-35 35l220 221l36 -34zM242 1401h49v-670h266l307 338q27 31 54.5 89.5t27.5 113.5v129h49v-129q0 -59 -31.5 -130t-62.5 -106l-303 -329l322 -342q31 -33 62.5 -105t31.5 -131v-129h-49v129q0 57 -29 116.5t-53 86.5l-328 350h-264v-682h-49v1401z" />
    <glyph glyph-name="afii10062" unicode="&#x40e;" 
d="M406 1778h49q0 -66 45 -110t108.5 -44t108.5 45t45 109h49q0 -84 -59.5 -143.5t-143.5 -59.5t-143 59.5t-59 143.5zM217 0v49h152q72 0 106 70l105 235l-289 647q-59 135 -60 269v131h50v-131q0 -123 55 -248l270 -608l273 608q53 121 53 248v131h49v-131
q0 -133 -59 -269l-402 -901q-47 -100 -151 -100h-152z" />
    <glyph glyph-name="afii10145" unicode="&#x40f;" 
d="M987 1401v-1401h-348v-356h-49v356h-361v1401h50v-1352h659v1352h49z" />
    <glyph glyph-name="afii10017" unicode="&#x410;" 
d="M977 553q35 -129 35 -281v-272h-49v272q0 55 -7 111h-696q-6 -55 -6 -111v-272h-49v272q0 141 35 281l200 737q14 55 61.5 92t106.5 37q61 0 107.5 -36.5t60.5 -92.5zM266 432h684q-12 76 -22 107l-199 737q-10 41 -43 67.5t-78 26.5t-77.5 -26.5t-43.5 -67.5l-198 -737
q-11 -31 -23 -107z" />
    <glyph glyph-name="afii10018" unicode="&#x411;" 
d="M694 811q141 0 241.5 -100.5t100.5 -241.5v-127q0 -143 -100 -242.5t-242 -99.5h-415v1401h653v-49h-604v-541h366zM987 342v127q0 121 -86 207t-207 86h-366v-713h366q121 0 207 86t86 207z" />
    <glyph glyph-name="afii10019" unicode="&#x412;" 
d="M788 715q102 -31 169 -119t67 -201v-53q0 -141 -100.5 -241.5t-241.5 -100.5h-428v1401h416q141 0 241.5 -99.5t100.5 -242.5v-29q0 -109 -63 -194.5t-161 -120.5zM670 1352h-367v-615h367q121 0 207 86t86 207v29q0 121 -86 207t-207 86zM975 342v53q0 121 -86 207
t-207 86h-379v-639h379q121 0 207 86t86 207z" />
    <glyph glyph-name="afii10020" unicode="&#x413;" 
d="M279 0v1401h739v-49h-690v-1352h-49z" />
    <glyph glyph-name="afii10021" unicode="&#x414;" 
d="M143 -356v405h72q74 205 93.5 393.5t19.5 565.5v393h602v-1352h123v-405h-49v356h-811v-356h-50zM266 49h615v1303h-504v-344q0 -254 -4 -373t-29 -277.5t-78 -308.5z" />
    <glyph glyph-name="afii10022" unicode="&#x415;" 
d="M256 0v1401h766v-49h-717v-627h651v-49h-651v-627h717v-49h-766z" />
    <glyph glyph-name="afii10024" unicode="&#x416;" 
d="M975 408q66 -135 65 -275v-133h-49v133q0 129 -61 254l-144 295h-153v-682h-49v682h-154l-143 -295q-61 -125 -62 -254v-133h-49v133q0 139 66 275l145 299l-137 286q-66 137 -66 275v133h49v-133q0 -127 62 -254l135 -283h154v670h49v-670h153l136 283q27 57 42 120.5
t17 98.5l2 35v133h49v-133q0 -137 -65 -275l-138 -286z" />
    <glyph glyph-name="afii10025" unicode="&#x417;" 
d="M725 715q104 -31 171 -120t67 -200v-71q0 -141 -101.5 -241.5t-243.5 -100.5h-102q-119 0 -211 72.5t-121 183.5l47 14q23 -96 103 -158.5t182 -62.5h102q121 0 208 86t87 207v71q0 121 -87 207t-208 86h-217v49h205q121 0 208 86t87 207v47q0 121 -87 207t-208 86h-88
q-102 0 -182 -62.5t-103 -158.5l-47 14q29 111 121 183.5t211 72.5h88q141 0 242.5 -100t101.5 -242v-47q0 -109 -62.5 -194.5t-162.5 -120.5z" />
    <glyph glyph-name="afii10026" unicode="&#x418;" 
d="M1006 1401v-1401h-50v1315l-684 -1315h-61v1401h49v-1315l684 1315h62z" />
    <glyph glyph-name="afii10027" unicode="&#x419;" 
d="M406 1778h49q0 -66 45 -110t108.5 -44t108.5 45t45 109h49q0 -84 -59.5 -143.5t-143.5 -59.5t-143 59.5t-59 143.5zM1006 1401v-1401h-50v1315l-684 -1315h-61v1401h49v-1315l684 1315h62z" />
    <glyph glyph-name="afii10028" unicode="&#x41a;" 
d="M242 1401h49v-670h266l307 338q27 31 54.5 89.5t27.5 113.5v129h49v-129q0 -59 -31.5 -130t-62.5 -106l-303 -329l322 -342q31 -33 62.5 -105t31.5 -131v-129h-49v129q0 57 -29 116.5t-53 86.5l-328 350h-264v-682h-49v1401z" />
    <glyph glyph-name="afii10029" unicode="&#x41b;" 
d="M45 0v49h57q57 0 99.5 41t42.5 100v1211h749v-1401h-49v1352h-651v-1162q0 -78 -56.5 -134t-134.5 -56h-57z" />
    <glyph glyph-name="afii10030" unicode="&#x41c;" 
d="M190 0v1401h66l352 -895l353 895h65v-1401h-49v1311l-342 -869h-53l-342 869v-1311h-50z" />
    <glyph glyph-name="afii10031" unicode="&#x41d;" 
d="M938 1401h49v-1401h-49v676h-659v-676h-50v1401h50v-676h659v676z" />
    <glyph glyph-name="afii10032" unicode="&#x41e;" 
d="M559 -18q-141 0 -241.5 100t-100.5 242v753q0 141 100.5 241.5t241.5 100.5h98q143 0 242.5 -100t99.5 -242v-753q0 -141 -99 -241.5t-243 -100.5h-98zM559 31h98q123 0 208 86t85 207v753q0 121 -85 207t-208 86h-98q-121 0 -207 -86t-86 -207v-753q0 -121 86 -207
t207 -86z" />
    <glyph glyph-name="afii10033" unicode="&#x41f;" 
d="M229 1401h758v-1401h-49v1352h-659v-1352h-50v1401z" />
    <glyph glyph-name="afii10034" unicode="&#x420;" 
d="M279 0v1401h415q141 0 241.5 -99.5t100.5 -242.5v-127q0 -141 -100 -241.5t-242 -100.5h-366v-590h-49zM328 639h366q121 0 207 86t86 207v127q0 121 -86 207t-207 86h-366v-713z" />
    <glyph glyph-name="afii10035" unicode="&#x421;" 
d="M1008 1163l-47 -14q-25 96 -104 158.5t-181 62.5h-98q-121 0 -207 -86t-86 -207v-753q0 -121 86 -207t207 -86h98q102 0 181 62.5t104 158.5l47 -14q-29 -113 -121 -184.5t-211 -71.5h-98q-143 0 -242.5 99t-99.5 243v753q0 141 99 241.5t243 100.5h98q119 0 211 -72.5
t121 -183.5z" />
    <glyph glyph-name="afii10036" unicode="&#x422;" 
d="M186 1401h844v-49h-397v-1352h-49v1352h-398v49z" />
    <glyph glyph-name="afii10037" unicode="&#x423;" 
d="M217 0v49h152q72 0 106 70l105 235l-289 647q-59 135 -60 269v131h50v-131q0 -123 55 -248l270 -608l273 608q53 121 53 248v131h49v-131q0 -133 -59 -269l-402 -901q-47 -100 -151 -100h-152z" />
    <glyph glyph-name="afii10038" unicode="&#x424;" 
d="M684 1237q141 0 241.5 -100.5t100.5 -241.5v-395q0 -139 -100.5 -237.5t-241.5 -98.5h-51v-164h-49v164h-52q-141 0 -241.5 98t-100.5 238v395q0 141 100.5 241.5t241.5 100.5h52v164h49v-164h51zM532 213h52v975h-52q-121 0 -206.5 -86t-85.5 -207v-395
q0 -121 84.5 -204t207.5 -83zM977 500v395q0 121 -86 207t-207 86h-51v-975h51q123 0 208 83t85 204z" />
    <glyph glyph-name="afii10039" unicode="&#x425;" 
d="M238 1401h49v-129q0 -49 16 -98.5t33 -73.5l18 -25l254 -325l254 325q68 86 68 197v129h49v-129q0 -55 -19.5 -112.5t-36 -83t-22.5 -32.5l-262 -333l274 -349q41 -51 62.5 -122.5t21.5 -112.5v-127h-49v127q0 33 -17.5 95.5t-56.5 109.5l-266 340l-266 -340
q-37 -47 -55.5 -110.5t-18.5 -94.5v-127h-49v127q0 41 21.5 112.5t62.5 122.5l275 349l-263 333l-4 9q-6 6 -12 17t-14.5 26.5t-16.5 35t-15 41t-11 48t-4 51.5v129z" />
    <glyph glyph-name="afii10040" unicode="&#x426;" 
d="M229 0v1401h50v-1352h659v1352h49v-1401h-758z" />
    <glyph glyph-name="afii10041" unicode="&#x427;" 
d="M965 1401v-1401h-50v750q-43 -84 -124.5 -134.5t-178.5 -50.5h-63q-143 0 -242.5 100.5t-99.5 241.5v494h49v-494q0 -121 85 -207t208 -86h74q121 0 206.5 86t85.5 207v494h50z" />
    <glyph glyph-name="afii10042" unicode="&#x428;" 
d="M190 0v1401h50v-1352h344v1352h49v-1352h344v1352h49v-1401h-836z" />
    <glyph glyph-name="afii10043" unicode="&#x429;" 
d="M1026 49h29v-405h-49v356h-816v1401h50v-1352h344v1352h49v-1352h344v1352h49v-1352z" />
    <glyph glyph-name="afii10044" unicode="&#x42a;" 
d="M702 811q141 0 241.5 -100.5t100.5 -241.5v-127q0 -143 -100 -242.5t-242 -99.5h-415v1352h-240v49h289v-590h366zM995 342v127q0 121 -86 207t-207 86h-366v-713h366q121 0 207 86t86 207z" />
    <glyph glyph-name="afii10045" unicode="&#x42b;" 
d="M225 1401h49v-588h107q141 0 241.5 -100.5t100.5 -241.5v-129q0 -141 -100.5 -241.5t-241.5 -100.5h-156v1401zM942 1401h49v-1401h-49v1401zM274 764v-715h107q121 0 207 86t86 207v129q0 121 -86 207t-207 86h-107z" />
    <glyph glyph-name="afii10046" unicode="&#x42c;" 
d="M279 1401h49v-590h366q141 0 241.5 -100.5t100.5 -241.5v-127q0 -143 -100 -242.5t-242 -99.5h-415v1401zM328 762v-713h366q121 0 207 86t86 207v127q0 121 -86 207t-207 86h-366z" />
    <glyph glyph-name="afii10047" unicode="&#x42d;" 
d="M639 1419q143 0 242.5 -100t99.5 -242v-753q0 -143 -99.5 -242.5t-242.5 -99.5h-98q-119 0 -211 71.5t-121 184.5l47 14q25 -96 103.5 -158.5t181.5 -62.5h98q121 0 207 86t86 207v352h-578v49h578v352q0 121 -86 207t-207 86h-98q-102 0 -181 -62.5t-104 -158.5l-47 14
q29 111 121 183.5t211 72.5h98z" />
    <glyph glyph-name="afii10048" unicode="&#x42e;" 
d="M788.5 1419q106.5 0 182.5 -75.5t76 -182.5v-921q0 -106 -76 -182t-182.5 -76t-182.5 75.5t-76 182.5v434h-284v-674h-49v1401h49v-678h284v438q0 106 76 182t182.5 76zM997 240v921q0 88 -61.5 148.5t-147.5 60.5t-147 -60.5t-61 -148.5v-921q0 -88 61 -148.5t147 -60.5
t147.5 60.5t61.5 148.5z" />
    <glyph glyph-name="afii10049" unicode="&#x42f;" 
d="M553 1401h416v-1401h-49v614h-326l-262 -282q-12 -12 -28.5 -37t-35 -72t-18.5 -94v-129h-49v129q0 78 31.5 141.5t62.5 94.5l235 249q-135 8 -227 107.5t-92 234.5v103q0 141 99.5 241.5t242.5 100.5zM920 664v688h-367q-123 0 -208 -86t-85 -207v-103q0 -121 85 -206.5
t208 -85.5h367z" />
    <glyph glyph-name="afii10065" unicode="&#x430;" 
d="M928 1044h49v-1044h-49v166q-43 -84 -125 -134t-178 -50h-64q-143 0 -242.5 100t-99.5 242v397q0 141 99.5 241.5t242.5 100.5h64q96 0 178 -50t125 -134v165zM635 31q121 0 207 86t86 207v397q0 121 -86 207t-207 86h-74q-123 0 -208 -86t-85 -207v-397q0 -121 85 -207
t208 -86h74z" />
    <glyph glyph-name="afii10066" unicode="&#x431;" 
d="M647 1063q141 0 241.5 -100.5t100.5 -241.5v-397q0 -143 -100.5 -242.5t-241.5 -99.5h-74q-141 0 -241.5 99t-100.5 243v755q0 141 100.5 241.5t241.5 100.5h203q59 0 99 41t40 101v24h50v-24q0 -80 -55.5 -135.5t-133.5 -55.5h-203q-121 0 -206.5 -86t-85.5 -207v-200
q43 84 124.5 134t178.5 50h63zM940 324v397q0 121 -86 207t-207 86h-74q-121 0 -206.5 -86t-85.5 -207v-397q0 -121 86 -207t206 -86h74q121 0 207 86t86 207z" />
    <glyph glyph-name="afii10067" unicode="&#x432;" 
d="M819 526q82 -25 134.5 -94.5t52.5 -157.5q0 -115 -80 -194.5t-195 -79.5h-471v1044h455q113 0 192.5 -79.5t79.5 -192.5q0 -84 -46 -149.5t-122 -96.5zM309 995v-446h406q94 0 158.5 65.5t64.5 157.5t-64.5 157.5t-158.5 65.5h-406zM731 49q94 0 159.5 65.5t65.5 160
t-65.5 160t-159.5 65.5h-422v-451h422z" />
    <glyph glyph-name="afii10068" unicode="&#x433;" 
d="M279 0v1044h727v-49h-678v-995h-49z" />
    <glyph glyph-name="afii10069" unicode="&#x434;" 
d="M160 -356v405h71q70 213 91.5 397.5t21.5 542.5v55h578v-995h122v-405h-49v356h-786v-356h-49zM283 49h589v946h-479v-20q0 -348 -21 -532.5t-89 -393.5z" />
    <glyph glyph-name="afii10070" unicode="&#x435;" 
d="M578 1063h73q141 0 241.5 -100.5t100.5 -241.5v-193h-708v-204q0 -121 85 -207t208 -86h73q102 0 182 63.5t103 159.5l47 -12q-29 -113 -121 -186.5t-211 -73.5h-73q-143 0 -242.5 100t-99.5 242v397q0 141 99.5 241.5t242.5 100.5zM285 578h659v143q0 121 -86 207
t-207 86h-73q-123 0 -208 -86t-85 -207v-143z" />
    <glyph glyph-name="afii10072" unicode="&#x436;" 
d="M176 0v125q0 57 20.5 113.5t37 81t22.5 30.5l139 168l-112 135q-43 51 -69 119t-29 96.5t-3 44.5v131h49v-131q0 -14 3.5 -38.5t25 -84t59.5 -106.5l119 -141h146v501h49v-501h143l119 141q39 47 61.5 106.5t25.5 84t3 38.5v131h49v-131q0 -16 -3 -44.5t-28.5 -96
t-68.5 -119.5l-113 -135l137 -168q6 -6 22.5 -29.5t38 -81t21.5 -114.5v-125h-49v125q0 49 -18.5 98t-34.5 74l-18 25l-144 172h-143v-494h-49v494h-146l-143 -172q-6 -6 -19.5 -28t-32 -71t-18.5 -98v-125h-49z" />
    <glyph glyph-name="afii10073" unicode="&#x437;" 
d="M793 532q88 -27 143 -100.5t55 -165.5q0 -119 -83 -201.5t-201 -82.5h-205q-98 0 -175 60t-102 155l49 14q18 -80 82 -130t146 -50h205q98 0 166.5 68.5t68.5 166.5q0 96 -68.5 166t-166.5 70h-193v49h166q96 0 163.5 67.5t67.5 164t-67.5 164t-163.5 67.5h-180
q-80 0 -141.5 -48t-82.5 -122l-47 14q25 88 99.5 146.5t171.5 58.5h180q117 0 199 -82t82 -199q0 -84 -47 -152.5t-121 -97.5z" />
    <glyph glyph-name="afii10074" unicode="&#x438;" 
d="M233 0v1044h50v-964l647 964h53v-1044h-49v965l-647 -965h-54z" />
    <glyph glyph-name="afii10075" unicode="&#x439;" 
d="M406 1421h49q0 -66 45 -109.5t108.5 -43.5t108.5 45t45 108h49q0 -84 -59.5 -143t-143.5 -59t-143 59t-59 143zM233 0v1044h50v-964l647 964h53v-1044h-49v965l-647 -965h-54z" />
    <glyph glyph-name="afii10076" unicode="&#x43a;" 
d="M260 1044h49v-503h295l215 174q31 27 63.5 83t32.5 113v133h50v-133q0 -51 -28 -117.5t-85 -115.5l-203 -162l230 -176q41 -31 72.5 -89t31.5 -122v-129h-49v129q0 47 -21.5 90t-41 62.5t-23.5 19.5l-244 191h-295v-492h-49v1044z" />
    <glyph glyph-name="afii10077" unicode="&#x43b;" 
d="M45 0v49h57q57 0 99.5 41t42.5 100v854h749v-1044h-49v995h-651v-805q0 -78 -56.5 -134t-134.5 -56h-57z" />
    <glyph glyph-name="afii10078" unicode="&#x43c;" 
d="M190 0v1044h66l352 -894l353 894h65v-1044h-49v954l-342 -868h-53l-342 868v-954h-50z" />
    <glyph glyph-name="afii10079" unicode="&#x43d;" 
d="M229 1044h50v-499h659v499h49v-1044h-49v496h-659v-496h-50v1044z" />
    <glyph glyph-name="afii10080" unicode="&#x43e;" 
d="M571 1063h74q143 0 242.5 -100.5t99.5 -241.5v-397q0 -141 -99.5 -241.5t-242.5 -100.5h-74q-141 0 -241.5 100t-100.5 242v397q0 141 100.5 241.5t241.5 100.5zM571 1014q-121 0 -206.5 -86t-85.5 -207v-397q0 -121 86 -207t206 -86h74q123 0 208 86t85 207v397
q0 121 -85 207t-208 86h-74z" />
    <glyph glyph-name="afii10081" unicode="&#x43f;" 
d="M229 1044h758v-1044h-49v995h-659v-995h-50v1044z" />
    <glyph glyph-name="afii10082" unicode="&#x440;" 
d="M657 1063q143 0 242.5 -100.5t99.5 -241.5v-397q0 -141 -99 -241.5t-243 -100.5h-63q-96 0 -178 50t-125 134v-522h-49v1400h49v-165q43 84 125 134t178 50h63zM950 324v397q0 121 -85 207t-208 86h-73q-121 0 -207 -86t-86 -207v-397q0 -121 86 -207t207 -86h73
q123 0 208 86t85 207z" />
    <glyph glyph-name="afii10083" unicode="&#x441;" 
d="M248 324v397q0 141 99 241.5t243 100.5h74q119 0 211 -74t120 -186l-47 -12q-23 96 -102.5 159.5t-181.5 63.5h-74q-121 0 -207 -86t-86 -207v-397q0 -121 86 -207t207 -86h74q102 0 182 63.5t102 159.5l47 -12q-29 -113 -121 -186.5t-210 -73.5h-74q-143 0 -242.5 100.5
t-99.5 241.5z" />
    <glyph glyph-name="afii10084" unicode="&#x442;" 
d="M190 1044h836v-49h-393v-995h-49v995h-394v49z" />
    <glyph glyph-name="afii10085" unicode="&#x443;" 
d="M238 1044h49v-133q0 -123 63 -237l262 -492l265 492q61 111 61 237v133h49v-133q0 -137 -65 -262l-496 -913q-53 -92 -154 -92h-153v49h153q14 0 28.5 3t25 9t19.5 13.5t15.5 13.5t10.5 12t6 10l4 4l205 375l-281 516q-68 129 -67 262v133z" />
    <glyph glyph-name="afii10086" unicode="&#x444;" 
d="M684 1055q141 0 241.5 -100.5t100.5 -241.5v-396q0 -139 -100.5 -237t-241.5 -98h-51v-338h-49v338h-52q-141 0 -241.5 98t-100.5 237v396q0 141 100.5 241.5t241.5 100.5h52v346h49v-346h51zM532 31h52v975h-52q-121 0 -206.5 -86t-85.5 -207v-396q0 -121 84.5 -203.5
t207.5 -82.5zM977 317v396q0 121 -86 207t-207 86h-51v-975h51q123 0 208 82.5t85 203.5z" />
    <glyph glyph-name="afii10087" unicode="&#x445;" 
d="M231 1044h50v-131q0 -14 3 -36.5t28.5 -74.5t70.5 -85l225 -170l226 170q45 33 70.5 82t29.5 82l2 32v131h49v-131q0 -63 -33.5 -129.5t-87.5 -105.5l-215 -160l238 -178q43 -35 73.5 -92.5t30.5 -118.5v-129h-49v129q0 47 -22.5 90t-42.5 64l-23 18l-246 186l-246 -186
q-4 0 -23.5 -19.5t-42 -62.5t-22.5 -90v-129h-49v129q0 61 32 119.5t73 91.5l237 178l-215 160q-61 47 -91 115.5t-30 119.5v131z" />
    <glyph glyph-name="afii10088" unicode="&#x446;" 
d="M987 49h43v-405h-49v356h-752v1044h50v-995h659v995h49v-995z" />
    <glyph glyph-name="afii10089" unicode="&#x447;" 
d="M969 1044v-1044h-49v547q-43 -82 -125 -132t-179 -50h-63q-143 0 -242.5 99t-99.5 243v337h49v-337q0 -121 85 -207t208 -86h74q121 0 207 86t86 207v337h49z" />
    <glyph glyph-name="afii10090" unicode="&#x448;" 
d="M190 0v1044h50v-995h344v995h49v-995h344v995h49v-1044h-836z" />
    <glyph glyph-name="afii10091" unicode="&#x449;" 
d="M1026 49h41v-405h-49v356h-828v1044h50v-995h344v995h49v-995h344v995h49v-995z" />
    <glyph glyph-name="afii10092" unicode="&#x44a;" 
d="M82 995v49h289v-358h305q141 0 242.5 -100.5t101.5 -243.5q0 -141 -101.5 -241.5t-242.5 -100.5h-354v995h-240zM371 49h305q121 0 208 86t87 207q0 123 -87 209t-208 86h-305v-588z" />
    <glyph glyph-name="afii10093" unicode="&#x44b;" 
d="M221 0v1044h49v-462h164q121 0 206 -85t85 -206t-85 -206t-206 -85h-213zM946 0v1044h49v-1044h-49zM270 49h164q102 0 172 69.5t70 172.5q0 100 -70.5 170.5t-171.5 70.5h-164v-483z" />
    <glyph glyph-name="afii10094" unicode="&#x44c;" 
d="M285 0v1044h49v-358h366q141 0 241.5 -100.5t100.5 -243.5q0 -141 -100 -241.5t-242 -100.5h-415zM334 49h366q121 0 207 86t86 207q0 123 -86 209t-207 86h-366v-588z" />
    <glyph glyph-name="afii10095" unicode="&#x44d;" 
d="M627 1063q143 0 242.5 -100.5t99.5 -241.5v-397q0 -141 -99.5 -241.5t-242.5 -100.5h-74q-119 0 -211 73.5t-121 186.5l47 12q23 -96 103 -159.5t182 -63.5h74q121 0 207 86t86 207v180h-578v49h578v168q0 121 -86 207t-207 86h-74q-102 0 -182 -63.5t-103 -159.5l-47 12
q29 113 121 186.5t211 73.5h74z" />
    <glyph glyph-name="afii10096" unicode="&#x44e;" 
d="M793 1063q109 -2 183.5 -77t74.5 -181v-565q0 -106 -75 -181t-183 -77q-109 2 -183.5 76.5t-74.5 181.5v258h-285v-498h-49v1044h49v-497h285v258q0 106 74.5 181t183.5 77zM1001 240v565q0 88 -61 148.5t-147 60.5t-147.5 -60.5t-61.5 -148.5v-565q0 -88 61.5 -148.5
t147.5 -60.5t147 60.5t61 148.5z" />
    <glyph glyph-name="afii10097" unicode="&#x44f;" 
d="M526 1044h451v-1044h-49v430h-402q-18 0 -26 2l-174 -188q-2 0 -15.5 -17.5t-28 -54.5t-14.5 -74v-98h-49v98q0 45 18.5 91.5t32 64.5t19.5 25l153 163q-98 29 -160.5 110t-62.5 185q0 127 90 217t217 90zM928 479v516h-402q-109 0 -183.5 -75.5t-74.5 -182t75 -182.5
t183 -76h402z" />
    <glyph glyph-name="afii10071" unicode="&#x451;" 
d="M479 1190v248h49v-248h-49zM700 1190v248h50v-248h-50zM578 1063h73q141 0 241.5 -100.5t100.5 -241.5v-193h-708v-204q0 -121 85 -207t208 -86h73q102 0 182 63.5t103 159.5l47 -12q-29 -113 -121 -186.5t-211 -73.5h-73q-143 0 -242.5 100t-99.5 242v397
q0 141 99.5 241.5t242.5 100.5zM285 578h659v143q0 121 -86 207t-207 86h-73q-123 0 -208 -86t-85 -207v-143z" />
    <glyph glyph-name="afii10099" unicode="&#x452;" 
d="M651 1063q143 0 242.5 -100.5t99.5 -241.5v-887q0 -78 -55 -134t-133 -56h-57v49h57q57 0 98 41t41 100v887q0 121 -85 207t-208 86h-73q-121 0 -207 -86t-86 -207v-721h-49v1214h-142v50h142v178h49v-178h333v-50h-333v-335q43 84 125 134t178 50h63z" />
    <glyph glyph-name="afii10100" unicode="&#x453;" 
d="M645 1155l-35 35l219 221l37 -35zM279 0v1044h727v-49h-678v-995h-49z" />
    <glyph glyph-name="afii10101" unicode="&#x454;" 
d="M664 31q102 0 182 63.5t102 159.5l47 -12q-29 -113 -121 -186.5t-210 -73.5h-74q-143 0 -242.5 100t-99.5 242v397q0 141 99 241.5t243 100.5h74q119 0 211 -74t120 -186l-47 -12q-23 96 -102.5 159.5t-181.5 63.5h-74q-121 0 -207 -86t-86 -207v-168h577v-49h-577v-180
q0 -121 86 -207t207 -86h74z" />
    <glyph glyph-name="afii10102" unicode="&#x455;" 
d="M231 164l50 14q23 -66 79 -106.5t127 -40.5h234q90 0 154.5 64.5t64.5 154.5q0 82 -50 148.5t-140 80.5l-263 41q-109 16 -173 90t-64 185q0 113 78 190.5t190 77.5h197q88 0 157.5 -51t98.5 -133l-49 -15q-23 68 -79.5 109t-127.5 41h-197q-90 0 -154.5 -64.5
t-64.5 -154.5q0 -94 53.5 -153.5t143.5 -74.5l262 -39q102 -16 166.5 -94t64.5 -184q0 -111 -77.5 -189.5t-190.5 -78.5h-234q-88 0 -157.5 50t-98.5 132z" />
    <glyph glyph-name="afii10103" unicode="&#x456;" 
d="M627 1190v248h49v-248h-49zM309 1044h367v-995h360v-49h-794v49h385v946h-318v49z" />
    <glyph glyph-name="afii10104" unicode="&#x457;" 
d="M516 1190v248h49v-248h-49zM737 1190v248h49v-248h-49zM309 1044h367v-995h360v-49h-794v49h385v946h-318v49z" />
    <glyph glyph-name="afii10105" unicode="&#x458;" 
d="M762 1190v248h49v-248h-49zM266 1044h545v-1079q0 -141 -100.5 -240.5t-239.5 -99.5q-121 0 -212 73t-118 185l47 15q23 -98 101 -161t182 -63q119 0 205 85t86 206v1030h-496v49z" />
    <glyph glyph-name="afii10106" unicode="&#x459;" 
d="M35 0v49h26q57 0 99.5 41t42.5 100v854h471v-462h164q121 0 205.5 -85t84.5 -206t-85 -206t-205 -85h-213v995h-373v-805q0 -78 -56.5 -134t-134.5 -56h-26zM674 49h164q100 0 170.5 69.5t70.5 172.5q0 100 -70.5 170.5t-170.5 70.5h-164v-483z" />
    <glyph glyph-name="afii10107" unicode="&#x45a;" 
d="M186 0v1044h50v-462h380v462h50v-462h163q121 0 206 -85t85 -206t-85 -206t-206 -85h-213v532h-380v-532h-50zM666 49h163q100 0 171 69.5t71 172.5q0 100 -70.5 170.5t-171.5 70.5h-163v-483z" />
    <glyph glyph-name="afii10108" unicode="&#x45b;" 
d="M651 1063q143 0 242.5 -100.5t99.5 -241.5v-721h-49v721q0 121 -85 207t-208 86h-73q-121 0 -207 -86t-86 -207v-721h-49v1214h-142v50h142v178h49v-178h333v-50h-333v-335q43 84 125 134t178 50h63z" />
    <glyph glyph-name="afii10109" unicode="&#x45c;" 
d="M612 1155l-34 35l219 221l37 -35zM260 1044h49v-503h295l215 174q31 27 63.5 83t32.5 113v133h50v-133q0 -51 -28 -117.5t-85 -115.5l-203 -162l230 -176q41 -31 72.5 -89t31.5 -122v-129h-49v129q0 47 -21.5 90t-41 62.5t-23.5 19.5l-244 191h-295v-492h-49v1044z" />
    <glyph glyph-name="afii10110" unicode="&#x45e;" 
d="M406 1421h49q0 -66 45 -109.5t108.5 -43.5t108.5 45t45 108h49q0 -84 -59.5 -143t-143.5 -59t-143 59t-59 143zM238 1044h49v-133q0 -123 63 -237l262 -492l265 492q61 111 61 237v133h49v-133q0 -137 -65 -262l-496 -913q-53 -92 -154 -92h-153v49h153q14 0 28.5 3t25 9
t19.5 13.5t15.5 13.5t10.5 12t6 10l4 4l205 375l-281 516q-68 129 -67 262v133z" />
    <glyph glyph-name="afii10193" unicode="&#x45f;" 
d="M987 1044v-1044h-354v-356h-49v356h-355v1044h50v-995h659v995h49z" />
    <glyph glyph-name="afii10146" unicode="&#x462;" 
d="M698 811q141 0 241.5 -100.5t100.5 -241.5v-127q0 -143 -100 -242.5t-242 -99.5h-415v1352h-240v49h748v-49h-459v-541h366zM991 342v127q0 121 -86 207t-207 86h-366v-713h366q121 0 207 86t86 207z" />
    <glyph glyph-name="afii10194" unicode="&#x463;" 
d="M70 1016v49h239v336h49v-336h461v-49h-461v-330h306q141 0 242.5 -100.5t101.5 -243.5q0 -141 -101.5 -241.5t-242.5 -100.5h-355v1016h-239zM358 49h306q121 0 207.5 86t86.5 207q0 123 -87 209t-207 86h-306v-588z" />
    <glyph glyph-name="afii10147" unicode="&#x472;" 
d="M657 1419q143 0 242.5 -100t99.5 -242v-753q0 -143 -99 -242.5t-243 -99.5h-98q-141 0 -241.5 99t-100.5 243v753q0 141 100.5 241.5t241.5 100.5h98zM559 1370q-121 0 -207 -86t-86 -207v-348q66 92 174 92q111 0 170 -92q80 -102 170 -102q70 0 120 49t50 121v280
q0 121 -85 207t-208 86h-98zM657 31q123 0 208 86t85 207v346q-66 -90 -174 -90q-113 0 -170 90q-41 51 -77.5 76.5t-92.5 25.5q-70 0 -120 -49t-50 -121v-278q0 -121 86 -207t207 -86h98z" />
    <glyph glyph-name="afii10195" unicode="&#x473;" 
d="M645 1063q143 0 242.5 -100.5t99.5 -241.5v-397q0 -143 -99.5 -242.5t-242.5 -99.5h-74q-141 0 -241.5 99t-100.5 243v397q0 141 100.5 241.5t241.5 100.5h74zM571 1014q-121 0 -206.5 -86t-85.5 -207v-164q66 86 167 86q104 0 164 -92q78 -100 162 -100q70 0 118 49
t48 118v103q0 121 -85 207t-208 86h-74zM645 31q123 0 208 86t85 207v161q-63 -84 -168 -84q-106 0 -164 91q-41 53 -74.5 77.5t-87.5 24.5q-70 0 -117.5 -50t-47.5 -120v-100q0 -121 86 -207t206 -86h74z" />
    <glyph glyph-name="afii10148" unicode="&#x474;" 
d="M205 1135v266h49v-266q0 -131 47 -261l307 -817l463 1233q18 49 62.5 80t97.5 31h47v-49h-47q-86 0 -115 -80l-477 -1272h-61l-324 858q-49 134 -49 277z" />
    <glyph glyph-name="afii10196" unicode="&#x475;" 
d="M227 913v131h49v-131q0 -125 56 -247l270 -607l395 883q25 55 73 78.5t83 23.5h37v-49h-37q-20 0 -56 -16t-55 -57l-413 -922h-54l-288 645q-60 139 -60 268z" />
    <glyph glyph-name="afii10050" unicode="&#x490;" 
d="M969 1575h49v-223h-690v-1352h-49v1401h690v174z" />
    <glyph glyph-name="afii10098" unicode="&#x491;" 
d="M956 1401h50v-406h-678v-995h-49v1044h677v357z" />
    <glyph glyph-name="uni0492" unicode="&#x492;" 
d="M1051 1352h-691v-668h547v-49h-547v-635h-49v635h-155v49h155v717h740v-49z" />
    <glyph glyph-name="uni0493" unicode="&#x493;" 
d="M1038 995h-678v-432h547v-49h-547v-514h-49v514h-155v49h155v481h727v-49z" />
    <glyph glyph-name="uni0496" unicode="&#x496;" 
d="M1040 49h27v-405h-49v356h-27v133q0 129 -61 254l-144 295h-153v-682h-49v682h-154l-143 -295q-61 -125 -62 -254v-133h-49v133q0 139 66 275l145 299l-137 286q-66 137 -66 275v133h49v-133q0 -127 62 -254l135 -283h154v670h49v-670h153l136 283q27 57 42 120.5
t17 98.5l2 35v133h49v-133q0 -137 -65 -275l-138 -286l146 -299q66 -135 65 -275v-84z" />
    <glyph glyph-name="uni0497" unicode="&#x497;" 
d="M1040 49h27v-405h-49v356h-27v125q0 49 -18.5 98t-34.5 74l-18 25l-144 172h-143v-494h-49v494h-146l-143 -172q-6 -6 -19.5 -28t-32 -71t-18.5 -98v-125h-49v125q0 57 20.5 113.5t37 81t22.5 30.5l139 168l-112 135q-43 51 -69 119t-29 96.5t-3 44.5v131h49v-131
q0 -14 3.5 -38.5t25 -84t59.5 -106.5l119 -141h146v501h49v-501h143l119 141q39 47 61.5 106.5t25.5 84t3 38.5v131h49v-131q0 -16 -3 -44.5t-28.5 -96t-68.5 -119.5l-113 -135l137 -168q6 -6 22.5 -29.5t38 -81t21.5 -114.5v-76z" />
    <glyph glyph-name="uni0498" unicode="&#x498;" 
d="M725 715q104 -31 171 -120t67 -200v-71q0 -141 -101.5 -241.5t-243.5 -100.5h-16v-107q76 -8 128 -65.5t52 -135.5q0 -84 -59 -143t-143 -59h-29v49h29q63 0 108 45t45 108.5t-45 108.5t-108 45h-27v154h-37q-119 0 -211 72.5t-121 183.5l47 14q23 -96 103 -158.5
t182 -62.5h102q121 0 208 86t87 207v71q0 121 -87 207t-208 86h-217v49h205q121 0 208 86t87 207v47q0 121 -87 207t-208 86h-88q-102 0 -182 -62.5t-103 -158.5l-47 14q29 111 121 183.5t211 72.5h88q141 0 242.5 -100t101.5 -242v-47q0 -109 -62.5 -194.5t-162.5 -120.5z
" />
    <glyph glyph-name="uni0499" unicode="&#x499;" 
d="M707 -18h-74v-97q76 -8 128 -65.5t52 -134.5q0 -84 -59.5 -143.5t-143.5 -59.5h-28v49h28q63 0 108.5 45t45.5 108.5t-45 108.5t-109 45h-26v144h-82q-98 0 -175 60t-102 155l49 14q18 -80 82 -130t146 -50h205q98 0 166.5 68.5t68.5 166.5q0 96 -68.5 166t-166.5 70
h-193v49h166q96 0 163.5 67.5t67.5 164t-67.5 164t-163.5 67.5h-180q-80 0 -141.5 -48t-82.5 -122l-47 14q25 88 99.5 146.5t171.5 58.5h180q117 0 199 -82t82 -199q0 -84 -47.5 -152.5t-120.5 -97.5q88 -27 143 -100.5t55 -165.5q0 -119 -82.5 -201.5t-201.5 -82.5z" />
    <glyph glyph-name="uni049A" unicode="&#x49a;" 
d="M1014 49h39v-405h-49v356h-39v129q0 57 -29 116.5t-53 86.5l-328 350h-264v-682h-49v1401h49v-670h266l307 338q27 31 54.5 89.5t27.5 113.5v129h49v-129q0 -59 -31.5 -130t-62.5 -106l-303 -329l322 -342q31 -33 62.5 -105t31.5 -131v-80z" />
    <glyph glyph-name="uni049B" unicode="&#x49b;" 
d="M983 49h39v-405h-49v356h-39v129q0 47 -21.5 90t-41 62.5t-23.5 19.5l-244 191h-295v-492h-49v1044h49v-503h295l215 174q31 27 63.5 83t32.5 113v133h50v-133q0 -51 -28 -117.5t-85 -115.5l-203 -162l230 -176q41 -31 72.5 -89t31.5 -122v-80z" />
    <glyph glyph-name="uni04A2" unicode="&#x4a2;" 
d="M987 49h39v-405h-49v356h-39v676h-659v-676h-50v1401h50v-676h659v676h49v-1352z" />
    <glyph glyph-name="uni04A3" unicode="&#x4a3;" 
d="M987 49h39v-405h-49v356h-39v496h-659v-496h-50v1044h50v-499h659v499h49v-995z" />
    <glyph glyph-name="uni04AA" unicode="&#x4aa;" 
d="M676 31q102 0 181 62.5t104 158.5l47 -14q-29 -113 -121 -184.5t-211 -71.5h-43v-97q76 -8 128 -65.5t52 -134.5q0 -84 -59.5 -143.5t-143.5 -59.5h-28v49h28q63 0 108.5 45t45.5 108.5t-45 108.5t-109 45h-26v144h-6q-143 0 -242.5 99t-99.5 243v753q0 141 99 241.5
t243 100.5h98q119 0 211 -72.5t121 -183.5l-47 -14q-25 96 -104 158.5t-181 62.5h-98q-121 0 -207 -86t-86 -207v-753q0 -121 86 -207t207 -86h98z" />
    <glyph glyph-name="uni04AB" unicode="&#x4ab;" 
d="M664 31q102 0 182 63.5t102 159.5l47 -12q-29 -113 -121 -186.5t-210 -73.5h-11v-97q76 -8 128.5 -65.5t52.5 -134.5q0 -84 -59.5 -143.5t-143.5 -59.5h-29v49h29q63 0 108 45t45 108.5t-45 108.5t-108 45h-27v144h-14q-143 0 -242.5 100t-99.5 242v397q0 141 99 241.5
t243 100.5h74q119 0 211 -74t120 -186l-47 -12q-23 96 -102.5 159.5t-181.5 63.5h-74q-121 0 -207 -86t-86 -207v-397q0 -121 86 -207t207 -86h74z" />
    <glyph glyph-name="uni04AC" unicode="&#x4ac;" 
d="M1030 1352h-397v-1303h39v-405h-49v356h-39v1352h-398v49h844v-49z" />
    <glyph glyph-name="uni04AD" unicode="&#x4ad;" 
d="M1026 995h-393v-946h39v-405h-49v356h-39v995h-394v49h836v-49z" />
    <glyph glyph-name="uni04AE" unicode="&#x4ae;" 
d="M989 1114q0 -25 -4 -50.5t-11 -46t-15.5 -40t-16.5 -34.5t-14 -25.5t-10 -16.5l-7 -8l-278 -342v-551h-49v551l-279 342q-6 6 -22.5 31.5t-36 81t-19.5 108.5v287h49v-287q0 -47 18.5 -95t32 -69.5t19.5 -27.5l262 -324l262 324l7 10q8 10 18 28.5t20.5 41t17.5 53
t7 59.5v287h49v-287z" />
    <glyph glyph-name="uni04AF" unicode="&#x4af;" 
d="M983 911q0 -139 -65 -262l-285 -524v-481h-49v481l-285 524q-66 123 -66 262v133h50v-133q0 -127 61 -237l264 -492l264 492q61 111 62 237v133h49v-133z" />
    <glyph glyph-name="uni04B0" unicode="&#x4b0;" 
d="M1010 580v-50h-377v-530h-49v530h-377v50h354l-256 313q-6 6 -22.5 31.5t-36 81t-19.5 108.5v287h49v-287q0 -47 18.5 -95t32 -69.5t19.5 -27.5l262 -324l262 324l7 10q8 10 18 28.5t20.5 41t17.5 53t7 59.5v287h49v-287q0 -25 -4 -50.5t-11 -46t-15.5 -40t-16.5 -34.5
t-14 -25.5t-10 -16.5l-7 -8l-256 -313h355z" />
    <glyph glyph-name="uni04B1" unicode="&#x4b1;" 
d="M934 1044h49v-133q0 -139 -65 -262l-259 -475h256v-49h-282v-481h-49v481h-279v49h252l-258 475q-66 123 -66 262v133h50v-133q0 -127 61 -237l264 -492l264 492q61 111 62 237v133z" />
    <glyph glyph-name="uni04B2" unicode="&#x4b2;" 
d="M997 49h39v-405h-49v356h-39v127q0 33 -17.5 95.5t-56.5 109.5l-266 340l-266 -340q-37 -47 -55.5 -110.5t-18.5 -94.5v-127h-49v127q0 41 21.5 112.5t62.5 122.5l275 349l-263 333l-4 9q-6 6 -12 17t-14.5 26.5t-16.5 35t-15 41t-11 48t-4 51.5v129h49v-129
q0 -49 16 -98.5t33 -73.5l18 -25l254 -325l254 325q68 86 68 197v129h49v-129q0 -55 -19.5 -112.5t-36 -83t-22.5 -32.5l-262 -333l274 -349q41 -51 62.5 -122.5t21.5 -112.5v-78z" />
    <glyph glyph-name="uni04B3" unicode="&#x4b3;" 
d="M991 49h39v-405h-49v356h-39v129q0 47 -22.5 90t-42.5 64l-23 18l-246 186l-246 -186q-4 0 -23.5 -19.5t-42 -62.5t-22.5 -90v-129h-49v129q0 61 32 119.5t73 91.5l237 178l-215 160q-61 47 -91 115.5t-30 119.5v131h50v-131q0 -14 3 -36.5t28.5 -74.5t70.5 -85l225 -170
l226 170q45 33 70.5 82t29.5 82l2 32v131h49v-131q0 -63 -33.5 -129.5t-87.5 -105.5l-215 -160l238 -178q43 -35 73.5 -92.5t30.5 -118.5v-80z" />
    <glyph glyph-name="uni04B6" unicode="&#x4b6;" 
d="M965 49h39v-405h-50v356h-39v750q-43 -84 -124.5 -134.5t-178.5 -50.5h-63q-143 0 -242.5 100.5t-99.5 241.5v494h49v-494q0 -121 85 -207t208 -86h74q121 0 206.5 86t85.5 207v494h50v-1352z" />
    <glyph glyph-name="uni04B7" unicode="&#x4b7;" 
d="M969 49h39v-405h-50v356h-38v547q-43 -82 -125 -132t-179 -50h-63q-143 0 -242.5 99t-99.5 243v337h49v-337q0 -121 85 -207t208 -86h74q121 0 207 86t86 207v337h49v-995z" />
    <glyph glyph-name="uni04BA" unicode="&#x4ba;" 
d="M668 836q143 0 242.5 -100.5t99.5 -241.5v-494h-49v494q0 121 -85 206.5t-208 85.5h-74q-121 0 -207 -86t-86 -206v-494h-49v1401h49v-750q43 84 125 134.5t178 50.5h64z" />
    <glyph glyph-name="uni04BB" unicode="&#x4bb;" 
d="M651 1063q143 0 242.5 -100.5t99.5 -241.5v-721h-49v721q0 121 -85 207t-208 86h-73q-121 0 -207 -86t-86 -207v-721h-49v1401h49v-522q43 84 125 134t178 50h63z" />
    <glyph glyph-name="uni04C0" unicode="&#x4c0;" 
d="M229 49h355v1303h-351v49h750v-49h-350v-1303h354v-49h-758v49z" />
    <glyph glyph-name="uni04C1" unicode="&#x4c1;" 
d="M608 1575q-84 0 -143 59.5t-59 143.5h49q0 -66 45 -110t108.5 -44t108.5 45t45 109h49q0 -84 -59.5 -143.5t-143.5 -59.5zM975 408q66 -135 65 -275v-133h-49v133q0 129 -61 254l-144 295h-153v-682h-49v682h-154l-143 -295q-61 -125 -62 -254v-133h-49v133q0 139 66 275
l145 299l-137 286q-66 137 -66 275v133h49v-133q0 -127 62 -254l135 -283h154v670h49v-670h153l136 283q27 57 42 120.5t17 98.5l2 35v133h49v-133q0 -137 -65 -275l-138 -286z" />
    <glyph glyph-name="uni04C2" unicode="&#x4c2;" 
d="M406 1421h49q0 -66 45 -109.5t108.5 -43.5t108.5 45t45 108h49q0 -84 -59.5 -143t-143.5 -59t-143 59t-59 143zM176 0v125q0 57 20.5 113.5t37 81t22.5 30.5l139 168l-112 135q-43 51 -69 119t-29 96.5t-3 44.5v131h49v-131q0 -14 3.5 -38.5t25 -84t59.5 -106.5l119 -141
h146v501h49v-501h143l119 141q39 47 61.5 106.5t25.5 84t3 38.5v131h49v-131q0 -16 -3 -44.5t-28.5 -96t-68.5 -119.5l-113 -135l137 -168q6 -6 22.5 -29.5t38 -81t21.5 -114.5v-125h-49v125q0 49 -18.5 98t-34.5 74l-18 25l-144 172h-143v-494h-49v494h-146l-143 -172
q-6 -6 -19.5 -28t-32 -71t-18.5 -98v-125h-49z" />
    <glyph glyph-name="uni04CB" unicode="&#x4cb;" 
d="M965 49h39v-405h-50v356h-39v750q-43 -84 -124.5 -134.5t-178.5 -50.5h-63q-143 0 -242.5 100.5t-99.5 241.5v494h49v-494q0 -121 85 -207t208 -86h74q121 0 206.5 86t85.5 207v494h50v-1352z" />
    <glyph glyph-name="uni04CC" unicode="&#x4cc;" 
d="M969 49h39v-405h-50v356h-38v547q-43 -82 -125 -132t-179 -50h-63q-143 0 -242.5 99t-99.5 243v337h49v-337q0 -121 85 -207t208 -86h74q121 0 207 86t86 207v337h49v-995z" />
    <glyph glyph-name="uni04CF" unicode="&#x4cf;" 
d="M229 49h355v1303h-351v49h750v-49h-350v-1303h354v-49h-758v49z" />
    <glyph glyph-name="uni04D0" unicode="&#x4d0;" 
d="M608 1575q-84 0 -143 59.5t-59 143.5h49q0 -66 45 -110t108.5 -44t108.5 45t45 109h49q0 -84 -59.5 -143.5t-143.5 -59.5zM977 553q35 -129 35 -281v-272h-49v272q0 55 -7 111h-696q-6 -55 -6 -111v-272h-49v272q0 141 35 281l200 737q14 55 61.5 92t106.5 37
q61 0 107.5 -36.5t60.5 -92.5zM266 432h684q-12 76 -22 107l-199 737q-10 41 -43 67.5t-78 26.5t-77.5 -26.5t-43.5 -67.5l-198 -737q-11 -31 -23 -107z" />
    <glyph glyph-name="uni04D1" unicode="&#x4d1;" 
d="M608 1219q-84 0 -143 59t-59 143h49q0 -66 45 -109.5t108.5 -43.5t108.5 45t45 108h49q0 -84 -59.5 -143t-143.5 -59zM928 1044h49v-1044h-49v166q-43 -84 -125 -134t-178 -50h-64q-143 0 -242.5 100t-99.5 242v397q0 141 99.5 241.5t242.5 100.5h64q96 0 178 -50
t125 -134v165zM635 31q121 0 207 86t86 207v397q0 121 -86 207t-207 86h-74q-123 0 -208 -86t-85 -207v-397q0 -121 85 -207t208 -86h74z" />
    <glyph glyph-name="uni04D2" unicode="&#x4d2;" 
d="M522 1794v-248h-49v248h49zM743 1794v-248h-49v248h49zM977 553q35 -129 35 -281v-272h-49v272q0 55 -7 111h-696q-6 -55 -6 -111v-272h-49v272q0 141 35 281l200 737q14 55 61.5 92t106.5 37q61 0 107.5 -36.5t60.5 -92.5zM266 432h684q-12 76 -22 107l-199 737
q-10 41 -43 67.5t-78 26.5t-77.5 -26.5t-43.5 -67.5l-198 -737q-11 -31 -23 -107z" />
    <glyph glyph-name="uni04D3" unicode="&#x4d3;" 
d="M522 1438v-248h-49v248h49zM743 1438v-248h-49v248h49zM928 1044h49v-1044h-49v166q-43 -84 -125 -134t-178 -50h-64q-143 0 -242.5 100t-99.5 242v397q0 141 99.5 241.5t242.5 100.5h64q96 0 178 -50t125 -134v165zM635 31q121 0 207 86t86 207v397q0 121 -86 207
t-207 86h-74q-123 0 -208 -86t-85 -207v-397q0 -121 85 -207t208 -86h74z" />
    <glyph glyph-name="uni04D4" unicode="&#x4d4;" 
d="M1036 1352h-379v-627h318v-49h-318v-627h379v-49h-428v383h-372q-6 -55 -7 -111v-272h-49v272q0 156 35 281l201 737q14 55 60 92t108 37q43 0 75 -18h377v-49zM242 432h366v936q-8 2 -24 2q-45 0 -78 -26.5t-43 -67.5l-199 -737q-10 -37 -22 -107z" />
    <glyph glyph-name="uni04D5" unicode="&#x4d5;" 
d="M1102 498h-465v-258q0 -88 60.5 -148.5t148.5 -60.5q68 0 122 41t74 102l48 -14q-25 -78 -92.5 -128t-151.5 -50q-143 0 -209 127v-109h-49v109q-66 -127 -209 -127q-106 0 -181 75.5t-75 182.5v565q0 106 74.5 182t181.5 76q143 0 209 -127v108h49v-108q66 127 209 127
q106 0 181 -76t75 -182v-307zM379 31q88 0 148.5 60.5t60.5 148.5v565q0 88 -60.5 148.5t-148.5 60.5q-86 0 -146.5 -60.5t-60.5 -148.5v-565q0 -88 60.5 -148.5t146.5 -60.5zM846 1014q-88 0 -148.5 -60.5t-60.5 -148.5v-258h416v258q0 88 -60.5 148.5t-146.5 60.5z" />
    <glyph glyph-name="uni04D6" unicode="&#x4d6;" 
d="M436 1778h49q0 -66 44 -110t110 -44q63 0 108.5 45t45.5 109h49q0 -84 -59.5 -143.5t-143.5 -59.5t-143.5 59.5t-59.5 143.5zM256 0v1401h766v-49h-717v-627h651v-49h-651v-627h717v-49h-766z" />
    <glyph glyph-name="uni04D7" unicode="&#x4d7;" 
d="M412 1421h49q0 -66 44 -109.5t109 -43.5q63 0 108.5 45t45.5 108h49q0 -84 -59.5 -143t-143.5 -59t-143 59t-59 143zM578 1063h73q141 0 241.5 -100.5t100.5 -241.5v-193h-708v-204q0 -121 85 -207t208 -86h73q102 0 182 63.5t103 159.5l47 -12q-29 -113 -121 -186.5
t-211 -73.5h-73q-143 0 -242.5 100t-99.5 242v397q0 141 99.5 241.5t242.5 100.5zM285 578h659v143q0 121 -86 207t-207 86h-73q-123 0 -208 -86t-85 -207v-143z" />
    <glyph glyph-name="uni04D8" unicode="&#x4d8;" 
d="M221 1163q29 111 121 183.5t211 72.5h98q141 0 241.5 -100t100.5 -242v-753q0 -141 -100 -241.5t-242 -100.5h-98q-141 0 -241.5 100t-100.5 242v401h733v352q0 121 -86 207t-207 86h-98q-102 0 -181 -62.5t-104 -158.5zM260 676v-352q0 -121 86 -207t207 -86h98
q121 0 207 86t86 207v352h-684z" />
    <glyph glyph-name="afii10846" unicode="&#x4d9;" 
d="M639 -18h-74q-141 0 -241.5 100t-100.5 242v192h709v205q0 121 -85 207t-208 86h-74q-102 0 -182 -63.5t-102 -159.5l-48 12q29 113 121 186.5t211 73.5h74q143 0 242.5 -100.5t99.5 -241.5v-397q0 -141 -99.5 -241.5t-242.5 -100.5zM932 467h-660v-143q0 -121 86 -207
t207 -86h74q123 0 208 86t85 207v143z" />
    <glyph glyph-name="uni04DA" unicode="&#x4da;" 
d="M473 1546v248h49v-248h-49zM694 1546v248h49v-248h-49zM221 1163q29 111 121 183.5t211 72.5h98q141 0 241.5 -100t100.5 -242v-753q0 -141 -100 -241.5t-242 -100.5h-98q-141 0 -241.5 100t-100.5 242v401h733v352q0 121 -86 207t-207 86h-98q-102 0 -181 -62.5
t-104 -158.5zM260 676v-352q0 -121 86 -207t207 -86h98q121 0 207 86t86 207v352h-684z" />
    <glyph glyph-name="uni04DB" unicode="&#x4db;" 
d="M467 1190v248h49v-248h-49zM688 1190v248h49v-248h-49zM639 -18h-74q-141 0 -241.5 100t-100.5 242v192h709v205q0 121 -85 207t-208 86h-74q-102 0 -182 -63.5t-102 -159.5l-48 12q29 113 121 186.5t211 73.5h74q143 0 242.5 -100.5t99.5 -241.5v-397
q0 -141 -99.5 -241.5t-242.5 -100.5zM932 467h-660v-143q0 -121 86 -207t207 -86h74q123 0 208 86t85 207v143z" />
    <glyph glyph-name="uni04DC" unicode="&#x4dc;" 
d="M522 1794v-248h-49v248h49zM743 1794v-248h-49v248h49zM975 408q66 -135 65 -275v-133h-49v133q0 129 -61 254l-144 295h-153v-682h-49v682h-154l-143 -295q-61 -125 -62 -254v-133h-49v133q0 139 66 275l145 299l-137 286q-66 137 -66 275v133h49v-133q0 -127 62 -254
l135 -283h154v670h49v-670h153l136 283q27 57 42 120.5t17 98.5l2 35v133h49v-133q0 -137 -65 -275l-138 -286z" />
    <glyph glyph-name="uni04DD" unicode="&#x4dd;" 
d="M473 1190v248h49v-248h-49zM694 1190v248h49v-248h-49zM176 0v125q0 57 20.5 113.5t37 81t22.5 30.5l139 168l-112 135q-43 51 -69 119t-29 96.5t-3 44.5v131h49v-131q0 -14 3.5 -38.5t25 -84t59.5 -106.5l119 -141h146v501h49v-501h143l119 141q39 47 61.5 106.5
t25.5 84t3 38.5v131h49v-131q0 -16 -3 -44.5t-28.5 -96t-68.5 -119.5l-113 -135l137 -168q6 -6 22.5 -29.5t38 -81t21.5 -114.5v-125h-49v125q0 49 -18.5 98t-34.5 74l-18 25l-144 172h-143v-494h-49v494h-146l-143 -172q-6 -6 -19.5 -28t-32 -71t-18.5 -98v-125h-49z" />
    <glyph glyph-name="uni04DE" unicode="&#x4de;" 
d="M492 1794v-248h-50v248h50zM713 1794v-248h-49v248h49zM725 715q104 -31 171 -120t67 -200v-71q0 -141 -101.5 -241.5t-243.5 -100.5h-102q-119 0 -211 72.5t-121 183.5l47 14q23 -96 103 -158.5t182 -62.5h102q121 0 208 86t87 207v71q0 121 -87 207t-208 86h-217v49
h205q121 0 208 86t87 207v47q0 121 -87 207t-208 86h-88q-102 0 -182 -62.5t-103 -158.5l-47 14q29 111 121 183.5t211 72.5h88q141 0 242.5 -100t101.5 -242v-47q0 -109 -62.5 -194.5t-162.5 -120.5z" />
    <glyph glyph-name="uni04DF" unicode="&#x4df;" 
d="M522 1438v-248h-49v248h49zM743 1438v-248h-49v248h49zM793 532q88 -27 143 -100.5t55 -165.5q0 -119 -83 -201.5t-201 -82.5h-205q-98 0 -175 60t-102 155l49 14q18 -80 82 -130t146 -50h205q98 0 166.5 68.5t68.5 166.5q0 96 -68.5 166t-166.5 70h-193v49h166
q96 0 163.5 67.5t67.5 164t-67.5 164t-163.5 67.5h-180q-80 0 -141.5 -48t-82.5 -122l-47 14q25 88 99.5 146.5t171.5 58.5h180q117 0 199 -82t82 -199q0 -84 -47 -152.5t-121 -97.5z" />
    <glyph glyph-name="uni04E0" unicode="&#x4e0;" 
d="M221 242l47 12q23 -96 103 -159.5t182 -63.5h74q121 0 207 86t86 207v139q0 121 -86 207t-207 86h-160v49l420 547h-645v49h708v-49l-420 -547h105q137 -2 235.5 -102.5t98.5 -239.5v-139q0 -141 -100.5 -241.5t-241.5 -100.5h-74q-119 0 -211 72.5t-121 187.5z" />
    <glyph glyph-name="uni04E1" unicode="&#x4e1;" 
d="M221 -115l47 13q23 -96 103 -160t182 -64h74q121 0 207 86t86 207v139q0 121 -86 207t-207 86h-160v50l420 546h-645v49h708v-49l-420 -546h105q137 -2 235.5 -102.5t98.5 -240.5v-139q0 -141 -100.5 -241.5t-241.5 -100.5h-74q-119 0 -211 72.5t-121 187.5z" />
    <glyph glyph-name="uni04E2" unicode="&#x4e2;" 
d="M328 1593v49h561v-49h-561zM1006 1401v-1401h-50v1315l-684 -1315h-61v1401h49v-1315l684 1315h62z" />
    <glyph glyph-name="uni04E3" unicode="&#x4e3;" 
d="M328 1237v49h561v-49h-561zM233 0v1044h50v-964l647 964h53v-1044h-49v965l-647 -965h-54z" />
    <glyph glyph-name="uni04E4" unicode="&#x4e4;" 
d="M473 1546v248h49v-248h-49zM694 1546v248h49v-248h-49zM1006 1401v-1401h-50v1315l-684 -1315h-61v1401h49v-1315l684 1315h62z" />
    <glyph glyph-name="uni04E5" unicode="&#x4e5;" 
d="M473 1190v248h49v-248h-49zM694 1190v248h49v-248h-49zM233 0v1044h50v-964l647 964h53v-1044h-49v965l-647 -965h-54z" />
    <glyph glyph-name="uni04E6" unicode="&#x4e6;" 
d="M473 1546v248h49v-248h-49zM694 1546v248h49v-248h-49zM559 -18q-141 0 -241.5 100t-100.5 242v753q0 141 100.5 241.5t241.5 100.5h98q143 0 242.5 -100t99.5 -242v-753q0 -141 -99 -241.5t-243 -100.5h-98zM559 31h98q123 0 208 86t85 207v753q0 121 -85 207t-208 86
h-98q-121 0 -207 -86t-86 -207v-753q0 -121 86 -207t207 -86z" />
    <glyph glyph-name="uni04E7" unicode="&#x4e7;" 
d="M473 1190v248h49v-248h-49zM694 1190v248h49v-248h-49zM571 1063h74q143 0 242.5 -100.5t99.5 -241.5v-397q0 -141 -99.5 -241.5t-242.5 -100.5h-74q-141 0 -241.5 100t-100.5 242v397q0 141 100.5 241.5t241.5 100.5zM571 1014q-121 0 -206.5 -86t-85.5 -207v-397
q0 -121 86 -207t206 -86h74q123 0 208 86t85 207v397q0 121 -85 207t-208 86h-74z" />
    <glyph glyph-name="uni04E8" unicode="&#x4e8;" 
d="M657 1419q143 0 242.5 -100t99.5 -242v-753q0 -141 -99 -241.5t-243 -100.5h-98q-141 0 -241.5 100t-100.5 242v753q0 141 100.5 241.5t241.5 100.5h98zM559 1370q-121 0 -207 -86t-86 -207v-352h684v352q0 121 -85 207t-208 86h-98zM657 31q123 0 208 86t85 207v352
h-684v-352q0 -121 86 -207t207 -86h98z" />
    <glyph glyph-name="uni04E9" unicode="&#x4e9;" 
d="M645 1063q143 0 242.5 -100.5t99.5 -241.5v-397q0 -141 -99.5 -241.5t-242.5 -100.5h-74q-141 0 -241.5 100t-100.5 242v397q0 141 100.5 241.5t241.5 100.5h74zM571 1014q-121 0 -206.5 -86t-85.5 -207v-174h659v174q0 121 -85 207t-208 86h-74zM645 31q123 0 208 86
t85 207v174h-659v-174q0 -121 86 -207t206 -86h74z" />
    <glyph glyph-name="uni04EA" unicode="&#x4ea;" 
d="M522 1794v-248h-49v248h49zM743 1794v-248h-49v248h49zM657 1419q143 0 242.5 -100t99.5 -242v-753q0 -141 -99 -241.5t-243 -100.5h-98q-141 0 -241.5 100t-100.5 242v753q0 141 100.5 241.5t241.5 100.5h98zM559 1370q-121 0 -207 -86t-86 -207v-352h684v352
q0 121 -85 207t-208 86h-98zM657 31q123 0 208 86t85 207v352h-684v-352q0 -121 86 -207t207 -86h98z" />
    <glyph glyph-name="uni04EB" unicode="&#x4eb;" 
d="M522 1438v-248h-49v248h49zM743 1438v-248h-49v248h49zM645 1063q143 0 242.5 -100.5t99.5 -241.5v-397q0 -141 -99.5 -241.5t-242.5 -100.5h-74q-141 0 -241.5 100t-100.5 242v397q0 141 100.5 241.5t241.5 100.5h74zM571 1014q-121 0 -206.5 -86t-85.5 -207v-174h659
v174q0 121 -85 207t-208 86h-74zM645 31q123 0 208 86t85 207v174h-659v-174q0 -121 86 -207t206 -86h74z" />
    <glyph glyph-name="uni04EC" unicode="&#x4ec;" 
d="M502 1794v-248h-49v248h49zM723 1794v-248h-49v248h49zM639 1419q143 0 242.5 -100t99.5 -242v-753q0 -143 -99.5 -242.5t-242.5 -99.5h-98q-119 0 -211 71.5t-121 184.5l47 14q25 -96 103.5 -158.5t181.5 -62.5h98q121 0 207 86t86 207v352h-578v49h578v352
q0 121 -86 207t-207 86h-98q-102 0 -181 -62.5t-104 -158.5l-47 14q29 111 121 183.5t211 72.5h98z" />
    <glyph glyph-name="uni04ED" unicode="&#x4ed;" 
d="M502 1438v-248h-49v248h49zM723 1438v-248h-49v248h49zM627 1063q143 0 242.5 -100.5t99.5 -241.5v-397q0 -141 -99.5 -241.5t-242.5 -100.5h-74q-119 0 -211 73.5t-121 186.5l47 12q23 -96 103 -159.5t182 -63.5h74q121 0 207 86t86 207v180h-578v49h578v168
q0 121 -86 207t-207 86h-74q-102 0 -182 -63.5t-103 -159.5l-47 12q29 113 121 186.5t211 73.5h74z" />
    <glyph glyph-name="uni04EE" unicode="&#x4ee;" 
d="M328 1593v49h561v-49h-561zM217 0v49h152q72 0 106 70l105 235l-289 647q-59 135 -60 269v131h50v-131q0 -123 55 -248l270 -608l273 608q53 121 53 248v131h49v-131q0 -133 -59 -269l-402 -901q-47 -100 -151 -100h-152z" />
    <glyph glyph-name="uni04EF" unicode="&#x4ef;" 
d="M328 1237v49h561v-49h-561zM238 1044h49v-133q0 -123 63 -237l262 -492l265 492q61 111 61 237v133h49v-133q0 -137 -65 -262l-496 -913q-53 -92 -154 -92h-153v49h153q14 0 28.5 3t25 9t19.5 13.5t15.5 13.5t10.5 12t6 10l4 4l205 375l-281 516q-68 129 -67 262v133z
" />
    <glyph glyph-name="uni04F0" unicode="&#x4f0;" 
d="M473 1546v248h49v-248h-49zM694 1546v248h49v-248h-49zM217 0v49h152q72 0 106 70l105 235l-289 647q-59 135 -60 269v131h50v-131q0 -123 55 -248l270 -608l273 608q53 121 53 248v131h49v-131q0 -133 -59 -269l-402 -901q-47 -100 -151 -100h-152z" />
    <glyph glyph-name="uni04F1" unicode="&#x4f1;" 
d="M473 1190v248h49v-248h-49zM694 1190v248h49v-248h-49zM238 1044h49v-133q0 -123 63 -237l262 -492l265 492q61 111 61 237v133h49v-133q0 -137 -65 -262l-496 -913q-53 -92 -154 -92h-153v49h153q14 0 28.5 3t25 9t19.5 13.5t15.5 13.5t10.5 12t6 10l4 4l205 375
l-281 516q-68 129 -67 262v133z" />
    <glyph glyph-name="uni04F2" unicode="&#x4f2;" 
d="M498 1511l-35 35l219 221l37 -34zM743 1511l-34 35l219 221l37 -34zM217 0v49h152q72 0 106 70l105 235l-289 647q-59 135 -60 269v131h50v-131q0 -123 55 -248l270 -608l273 608q53 121 53 248v131h49v-131q0 -133 -59 -269l-402 -901q-47 -100 -151 -100h-152z" />
    <glyph glyph-name="uni04F3" unicode="&#x4f3;" 
d="M498 1155l-35 35l219 221l37 -35zM743 1155l-34 35l219 221l37 -35zM238 1044h49v-133q0 -123 63 -237l262 -492l265 492q61 111 61 237v133h49v-133q0 -137 -65 -262l-496 -913q-53 -92 -154 -92h-153v49h153q14 0 28.5 3t25 9t19.5 13.5t15.5 13.5t10.5 12t6 10l4 4
l205 375l-281 516q-68 129 -67 262v133z" />
    <glyph glyph-name="uni04F4" unicode="&#x4f4;" 
d="M522 1794v-248h-49v248h49zM743 1794v-248h-49v248h49zM965 1401v-1401h-50v750q-43 -84 -124.5 -134.5t-178.5 -50.5h-63q-143 0 -242.5 100.5t-99.5 241.5v494h49v-494q0 -121 85 -207t208 -86h74q121 0 206.5 86t85.5 207v494h50z" />
    <glyph glyph-name="uni04F5" unicode="&#x4f5;" 
d="M522 1438v-248h-49v248h49zM743 1438v-248h-49v248h49zM969 1044v-1044h-49v547q-43 -82 -125 -132t-179 -50h-63q-143 0 -242.5 99t-99.5 243v337h49v-337q0 -121 85 -207t208 -86h74q121 0 207 86t86 207v337h49z" />
    <glyph glyph-name="uni04F6" unicode="&#x4f6;" 
d="M1018 1352h-690v-1303h39v-405h-50v356h-38v1401h739v-49z" />
    <glyph glyph-name="uni04F7" unicode="&#x4f7;" 
d="M1006 995h-678v-946h39v-405h-50v356h-38v1044h727v-49z" />
    <glyph glyph-name="uni04F8" unicode="&#x4f8;" 
d="M473 1546v248h49v-248h-49zM694 1546v248h49v-248h-49zM225 1401h49v-588h107q141 0 241.5 -100.5t100.5 -241.5v-129q0 -141 -100.5 -241.5t-241.5 -100.5h-156v1401zM942 1401h49v-1401h-49v1401zM274 764v-715h107q121 0 207 86t86 207v129q0 121 -86 207t-207 86
h-107z" />
    <glyph glyph-name="uni04F9" unicode="&#x4f9;" 
d="M473 1190v248h49v-248h-49zM694 1190v248h49v-248h-49zM221 0v1044h49v-462h164q121 0 206 -85t85 -206t-85 -206t-206 -85h-213zM946 0v1044h49v-1044h-49zM270 49h164q102 0 172 69.5t70 172.5q0 100 -70.5 170.5t-171.5 70.5h-164v-483z" />
    <glyph glyph-name="uni0510" unicode="&#x510;" 
d="M985 252l47 -14q-29 -111 -121 -183.5t-211 -72.5h-102q-141 0 -242.5 100t-101.5 242v71q0 111 66.5 200t171.5 120q-100 35 -163 121t-63 194v47q0 141 101.5 241.5t242.5 100.5h88q119 0 211 -72.5t121 -183.5l-47 -14q-23 96 -102.5 158.5t-182.5 62.5h-88
q-121 0 -208 -86t-87 -207v-47q0 -121 87 -207t208 -86h205v-49h-217q-121 0 -208 -86t-87 -207v-71q0 -121 87 -207t208 -86h102q102 0 182 62.5t103 158.5z" />
    <glyph glyph-name="uni0511" unicode="&#x511;" 
d="M942 211l49 -14q-25 -94 -101.5 -154.5t-174.5 -60.5h-205q-119 0 -202 82.5t-83 201.5q0 92 55.5 166t143.5 100q-74 29 -121 97.5t-47 152.5q0 117 82 199t199 82h180q96 0 171 -58.5t99 -146.5l-47 -14q-20 74 -81.5 122t-141.5 48h-180q-96 0 -164 -67.5t-68 -164
t67.5 -164t164.5 -67.5h165v-49h-192q-98 0 -167 -70t-69 -166q0 -98 69 -166.5t167 -68.5h205q82 0 145.5 50t81.5 130z" />
    <glyph glyph-name="uni051C" unicode="&#x51c;" 
d="M158 1401h49v-275q0 -125 26 -264l162 -790l185 762h59l184 -760l160 788q27 139 27 264v275h49v-275q0 -139 -27 -272l-172 -854h-65l-187 774l-186 -774h-66l-172 854q-27 133 -26 272v275z" />
    <glyph glyph-name="uni051D" unicode="&#x51d;" 
d="M156 911v133h49v-133q0 -131 33 -256l147 -575l197 786h53l196 -786l148 575q14 55 22.5 120t10.5 102v34v133h49v-133q0 -135 -33 -266l-166 -645h-57l-197 786l-196 -786h-58l-166 645q-32 131 -32 266z" />
    <glyph glyph-name="uni0524" unicode="&#x524;" 
d="M987 49h39v-405h-49v356h-39v1352h-659v-1352h-50v1401h758v-1352z" />
    <glyph glyph-name="uni0525" unicode="&#x525;" 
d="M987 49h39v-405h-49v356h-39v995h-659v-995h-50v1044h758v-995z" />
    <glyph glyph-name="uni0526" unicode="&#x526;" 
d="M1010 49h39v-405h-50v356h-38v494q0 121 -85 206.5t-208 85.5h-74q-121 0 -207 -86t-86 -206v-494h-49v1401h49v-750q43 84 125 134.5t178 50.5h64q143 0 242.5 -100.5t99.5 -241.5v-445z" />
    <glyph glyph-name="uni0527" unicode="&#x527;" 
d="M993 49h39v-405h-49v356h-39v721q0 121 -85 207t-208 86h-73q-121 0 -207 -86t-86 -207v-721h-49v1401h49v-522q43 84 125 134t178 50h63q143 0 242.5 -100.5t99.5 -241.5v-672z" />
    <glyph glyph-name="uni0E3F" unicode="&#xe3f;" 
d="M788 715q102 -31 169 -119t67 -201v-53q0 -141 -100.5 -241.5t-241.5 -100.5h-45v-170h-49v170h-334v1401h334v186h49v-186h33q141 0 241.5 -99.5t100.5 -242.5v-29q0 -109 -63 -194.5t-161 -120.5zM670 1352h-367v-615h367q121 0 207 86t86 207v29q0 121 -86 207
t-207 86zM975 342v53q0 121 -86 207t-207 86h-379v-639h379q121 0 207 86t86 207z" />
    <glyph glyph-name="uni1D6B" unicode="&#x1d6b;" horiz-adv-x="1228" 
d="M1118 500h-465v-260q0 -86 61.5 -147.5t147.5 -61.5q68 0 122 40t75 103l47 -14q-25 -78 -92.5 -128t-151.5 -50q-78 0 -142.5 45t-90.5 114q-27 -70 -91.5 -114.5t-142.5 -44.5q-106 0 -181 75.5t-75 182.5v804h49v-804q0 -86 60.5 -147.5t146.5 -61.5q88 0 148.5 61.5
t60.5 147.5v804h49v-106q31 57 86.5 91t122.5 34q106 0 181 -75t75 -183v-305zM862 1014q-86 0 -147.5 -60.5t-61.5 -148.5v-256h416v256q0 88 -60.5 148.5t-146.5 60.5z" />
    <glyph glyph-name="uni1E04" unicode="&#x1e04;" 
d="M788 715q102 -31 169 -119t67 -201v-53q0 -141 -100.5 -241.5t-241.5 -100.5h-428v1401h416q141 0 241.5 -99.5t100.5 -242.5v-29q0 -109 -63 -194.5t-161 -120.5zM670 1352h-367v-615h367q121 0 207 86t86 207v29q0 121 -86 207t-207 86zM975 342v53q0 121 -86 207
t-207 86h-379v-639h379q121 0 207 86t86 207zM578 -428v248h49v-248h-49z" />
    <glyph glyph-name="uni1E05" unicode="&#x1e05;" 
d="M657 1063q143 0 242.5 -100.5t99.5 -241.5v-397q0 -141 -99 -241.5t-243 -100.5h-63q-96 0 -178 50t-125 134v-166h-49v1401h49v-522q43 84 125 134t178 50h63zM950 324v397q0 121 -85 207t-208 86h-73q-121 0 -207 -86t-86 -207v-397q0 -121 86 -207t207 -86h73
q123 0 208 86t85 207zM594 -428v248h49v-248h-49z" />
    <glyph glyph-name="uni1E0C" unicode="&#x1e0c;" 
d="M238 0v1401h421q143 0 244 -99.5t101 -242.5v-717q0 -143 -100.5 -242.5t-244.5 -99.5h-421zM287 49h372q123 0 209 86t86 207v717q0 121 -86 207t-209 86h-372v-1303zM578 -428v248h49v-248h-49z" />
    <glyph glyph-name="uni1E0D" unicode="&#x1e0d;" 
d="M926 1401h49v-1401h-49v166q-43 -84 -125 -134t-178 -50h-64q-143 0 -242.5 100t-99.5 242v397q0 141 99.5 241.5t242.5 100.5h64q96 0 178 -50t125 -134v522zM633 31q121 0 207 86t86 207v397q0 121 -86 207t-207 86h-74q-123 0 -208 -86t-85 -207v-397q0 -121 85 -207
t208 -86h74zM580 -428v248h49v-248h-49z" />
    <glyph glyph-name="uni1E0E" unicode="&#x1e0e;" 
d="M238 0v1401h421q143 0 244 -99.5t101 -242.5v-717q0 -143 -100.5 -242.5t-244.5 -99.5h-421zM287 49h372q123 0 209 86t86 207v717q0 121 -86 207t-209 86h-372v-1303zM322 -240v50h561v-50h-561z" />
    <glyph glyph-name="uni1E0F" unicode="&#x1e0f;" 
d="M926 1401h49v-1401h-49v166q-43 -84 -125 -134t-178 -50h-64q-143 0 -242.5 100t-99.5 242v397q0 141 99.5 241.5t242.5 100.5h64q96 0 178 -50t125 -134v522zM633 31q121 0 207 86t86 207v397q0 121 -86 207t-207 86h-74q-123 0 -208 -86t-85 -207v-397q0 -121 85 -207
t208 -86h74zM324 -240v50h561v-50h-561z" />
    <glyph glyph-name="uni1E12" unicode="&#x1e12;" 
d="M238 0v1401h421q143 0 244 -99.5t101 -242.5v-717q0 -143 -100.5 -242.5t-244.5 -99.5h-421zM287 49h372q123 0 209 86t86 207v717q0 121 -86 207t-209 86h-372v-1303zM352 -340l230 229h43l229 -229l-35 -35l-217 215l-215 -215z" />
    <glyph glyph-name="uni1E13" unicode="&#x1e13;" 
d="M926 1401h49v-1401h-49v166q-43 -84 -125 -134t-178 -50h-64q-143 0 -242.5 100t-99.5 242v397q0 141 99.5 241.5t242.5 100.5h64q96 0 178 -50t125 -134v522zM633 31q121 0 207 86t86 207v397q0 121 -86 207t-207 86h-74q-123 0 -208 -86t-85 -207v-397q0 -121 85 -207
t208 -86h74zM584 -111h43l229 -229l-35 -35l-217 215l-215 -215l-35 35z" />
    <glyph glyph-name="uni1E24" unicode="&#x1e24;" 
d="M938 1401h49v-1401h-49v676h-659v-676h-50v1401h50v-676h659v676zM584 -428v248h49v-248h-49z" />
    <glyph glyph-name="uni1E25" unicode="&#x1e25;" 
d="M651 1063q143 0 242.5 -100.5t99.5 -241.5v-721h-49v721q0 121 -85 207t-208 86h-73q-121 0 -207 -86t-86 -207v-721h-49v1401h49v-522q43 84 125 134t178 50h63zM584 -428v248h49v-248h-49z" />
    <glyph glyph-name="uni1E2E" unicode="&#x1e2e;" 
d="M608 1851l-35 35l220 221l36 -34zM473 1546v248h49v-248h-49zM694 1546v248h49v-248h-49zM229 49h355v1303h-351v49h750v-49h-350v-1303h354v-49h-758v49z" />
    </font>
</defs>
</svg>
