<?xml version="1.0" standalone="no"?>
<!DOCTYPE svg PUBLIC "-//W3C//DTD SVG 1.1//EN" "http://www.w3.org/Graphics/SVG/1.1/DTD/svg11.dtd" >
<svg xmlns="http://www.w3.org/2000/svg" xmlns:xlink="http://www.w3.org/1999/xlink" version="1.1">
<metadata>
Created by FontForge 20170731 at Wed Jun 28 19:12:13 2017
 By Aleksey,,,
Copyright (c) 2015 by Bold Studio. All rights reserved.
</metadata>
<defs>
<font id="BBRollerMonoProST-SemiLight" horiz-adv-x="1216" >
  <font-face 
    font-family="BB Roller Mono Pro ST Sl"
    font-weight="210"
    font-stretch="normal"
    units-per-em="2048"
    panose-1="0 0 3 0 0 0 0 0 0 0"
    ascent="1638"
    descent="-410"
    x-height="1044"
    cap-height="1401"
    bbox="-51 -1237 2361 2214"
    underline-thickness="0"
    underline-position="0"
    unicode-range="U+0009-1F6E1"
  />
<missing-glyph 
d="M68 698q0 223 159.5 383t380.5 160q223 0 382 -159.5t159 -383t-159 -381t-382 -157.5q-221 0 -380.5 158.5t-159.5 379.5z" />
    <glyph glyph-name="uniFB01" unicode="fi" 
d="M92 879v73h221v119q0 145 101.5 246.5t247.5 101.5q121 0 215 -73.5t122 -190.5l-71 -20q-23 92 -96.5 151.5t-169.5 59.5q-115 0 -195 -80t-80 -195v-119h612v-952h-73v879h-539v-879h-74v879h-221z" />
    <glyph glyph-name="uniFB02" unicode="fl" 
d="M1118 74h29v-74h-29q-86 0 -146.5 59.5t-60.5 145.5v649h-549v-854h-73v854h-221v74h221v143q0 145 101.5 246.5t246.5 101.5t246.5 -101t101.5 -247v-866q0 -55 39 -93t94 -38zM362 928h549v143q0 115 -79.5 195t-194.5 80t-195 -80t-80 -195v-143z" />
    <glyph glyph-name=".notdef" 
d="M68 698q0 223 159.5 383t380.5 160q223 0 382 -159.5t159 -383t-159 -381t-382 -157.5q-221 0 -380.5 158.5t-159.5 379.5z" />
    <glyph glyph-name="glyph1" horiz-adv-x="0" 
 />
    <glyph glyph-name="glyph2" horiz-adv-x="681" 
 />
    <glyph glyph-name="uni0009" unicode="&#x9;" 
 />
    <glyph glyph-name="space" unicode=" " 
 />
    <glyph glyph-name="exclam" unicode="!" 
d="M571 473v928h74v-928h-74zM571 0v276h74v-276h-74z" />
    <glyph glyph-name="quotedbl" unicode="&#x22;" 
d="M451 897v504h71v-504h-71zM694 897v504h72v-504h-72z" />
    <glyph glyph-name="numbersign" unicode="#" 
d="M49 393v74h270v467h-270v74h270v393h74v-393h443v393h73v-393h258v-74h-258v-467h258v-74h-258v-393h-73v393h-443v-393h-74v393h-270zM393 467h443v467h-443v-467z" />
    <glyph glyph-name="dollar" unicode="$" 
d="M729 707q274 -109 275 -377q0 -143 -102.5 -245.5t-246.5 -102.5h-39v-154h-73v154h-23q-121 0 -215 74.5t-123 187.5l70 20q23 -90 97.5 -149.5t170.5 -59.5h135q113 0 194 81t81 194q0 221 -228 307l-204 80q-141 51 -215 136t-74 218q0 145 101.5 246.5t246.5 101.5
h18v166h74v-166q121 0 215 -73.5t123 -188.5l-72 -20q-23 92 -96.5 150.5t-169.5 58.5h-92q-115 0 -194.5 -80t-79.5 -195q0 -104 56 -169.5t187 -117.5z" />
    <glyph glyph-name="percent" unicode="%" 
d="M362 915q-102 0 -176.5 75t-74.5 177q0 104 74.5 178t176.5 74q104 0 178 -73.5t74 -178.5q0 -102 -74 -177t-178 -75zM227 0v125q0 115 76 227l531 695q82 106 81 225v129h74v-129q0 -143 -96 -268l-531 -697q-61 -82 -61 -182v-125h-74zM362.5 989q73.5 0 126 52.5
t52.5 126t-52.5 126t-126 52.5t-126 -52.5t-52.5 -126t52.5 -126t126 -52.5zM854 -18q-102 0 -177 74.5t-75 176.5q0 104 75 178t177 74q104 0 178 -73.5t74 -178.5q0 -102 -74 -176.5t-178 -74.5zM854 55q74 0 126 52.5t52 126t-52 126t-126 52.5t-126 -52.5t-52 -126
t52 -126t126 -52.5z" />
    <glyph glyph-name="ampersand" unicode="&#x26;" 
d="M1178 158l71 -21q-16 -68 -72.5 -111.5t-127.5 -43.5q-88 0 -149.5 61t-61.5 147v500h-340q-113 0 -194 -81t-81 -193v-68q0 -115 81 -194.5t194 -79.5h80v-74h-80q-145 0 -246.5 102.5t-101.5 245.5v68q0 111 63 197.5t166 121.5q-86 41 -139.5 123t-53.5 180v33
q0 145 101.5 246.5t247.5 101.5h28q145 0 246.5 -101t101.5 -247v-307h228v-62h-6v-12h-222v-500q0 -55 40 -95t98 -40q45 0 82 30t47 73zM260 1038q0 -113 80 -193.5t195 -80.5h303v307q0 113 -81 194t-194 81h-28q-115 0 -195 -80t-80 -195v-33z" />
    <glyph glyph-name="quotesingle" unicode="'" 
d="M571 897v504h72v-504h-72z" />
    <glyph glyph-name="parenleft" unicode="(" 
d="M473 115v975q0 127 92 219t219 92h111v-74h-111q-96 0 -166.5 -70.5t-70.5 -166.5v-975q0 -98 70.5 -168t166.5 -70h111v-74h-111q-127 0 -219 91.5t-92 220.5z" />
    <glyph glyph-name="parenright" unicode=")" 
d="M743 115q0 -129 -92 -220.5t-219 -91.5h-110v74h110q96 0 167 69.5t71 168.5v975q0 96 -71 166.5t-167 70.5h-110v74h110q127 0 219 -92t92 -219v-975z" />
    <glyph glyph-name="asterisk" unicode="*" 
d="M571 1401h74v-334l318 102l24 -71l-319 -103l196 -272l-59 -41l-197 270l-196 -270l-60 41l197 272l-320 103l23 71l319 -102v334z" />
    <glyph glyph-name="plus" unicode="+" 
d="M207 555v74h364v364h74v-364h365v-74h-365v-365h-74v365h-364z" />
    <glyph glyph-name="comma" unicode="," 
d="M457 74h262v-80q0 -111 -65.5 -200t-168.5 -122l-20 70q80 29 130 98.5t50 159.5h-188v74z" />
    <glyph glyph-name="hyphen" unicode="-" 
d="M922 629v-74h-627v74h627z" />
    <glyph glyph-name="period" unicode="." 
d="M571 0v268h74v-268h-74z" />
    <glyph glyph-name="slash" unicode="/" 
d="M227 0v125q0 115 76 227l531 695q82 106 81 225v129h74v-129q0 -143 -96 -268l-531 -697q-61 -82 -61 -182v-125h-74z" />
    <glyph glyph-name="zero" unicode="0" 
d="M659 1419q143 0 246 -101t103 -247v-741q0 -143 -102.5 -245.5t-246.5 -102.5h-98q-145 0 -247.5 102t-102.5 246v741q0 145 102.5 246.5t247.5 101.5h98zM561 1346q-115 0 -195.5 -80t-80.5 -195v-643l649 649q-4 113 -83 191t-192 78h-98zM659 55q113 0 194 81t81 194
v645l-649 -649q2 -111 83 -191t193 -80h98z" />
    <glyph glyph-name="one" unicode="1" 
d="M258 1026l375 375h74v-1327h331v-74h-770v74h365v1222l-324 -323z" />
    <glyph glyph-name="two" unicode="2" 
d="M258 1155q29 115 123 189.5t215 74.5h74q143 0 245.5 -102.5t102.5 -245.5q0 -238 -287 -391l-143 -82q-162 -82 -214 -170t-52 -229v-125h696v-74h-770v199q0 170 69.5 273t239.5 194l133 75q254 133 254 330q0 113 -81 194t-193 81h-74q-96 0 -170 -59.5t-96 -151.5z
" />
    <glyph glyph-name="three" unicode="3" 
d="M215 246l72 20q23 -92 96.5 -151.5t169.5 -59.5h74q115 0 194.5 81t79.5 194v139q0 113 -81 193.5t-193 80.5h-160v74l395 510h-626v74h720v-74l-395 -510h80q139 -6 236.5 -107.5t97.5 -240.5v-139q0 -145 -102.5 -246.5t-245.5 -101.5h-74q-123 0 -216 73.5t-122 190.5
z" />
    <glyph glyph-name="four" unicode="4" 
d="M256 385v213q0 152 72 283l288 522l66 -37l-289 -520q-63 -119 -63 -248v-139h534v385h74v-842h-74v383h-608z" />
    <glyph glyph-name="five" unicode="5" 
d="M639 889q143 0 245.5 -102.5t102.5 -245.5v-211q0 -145 -102.5 -246.5t-245.5 -101.5h-76q-121 0 -215 74.5t-123 189.5l72 20q23 -92 96.5 -151.5t169.5 -59.5h76q115 0 194.5 81t79.5 194v211q0 115 -79.5 194.5t-194.5 79.5h-49q-98 0 -173 -60.5t-98 -154.5l-53 16
l-22 9v776h704v-74h-631v-592q106 154 289 154h33z" />
    <glyph glyph-name="six" unicode="6" 
d="M651 889q145 0 246.5 -101.5t101.5 -246.5v-211q0 -143 -102 -245.5t-246 -102.5h-73q-145 0 -247 102t-102 246v741q0 145 101.5 246.5t247.5 101.5h73q121 0 215.5 -73.5t122.5 -190.5l-71 -20q-23 92 -96.5 151.5t-170.5 59.5h-73q-115 0 -195 -80t-80 -195v-338
q47 72 124 114t167 42h57zM926 330v211q0 115 -80 194.5t-195 79.5h-73q-115 0 -195 -80t-80 -194v-211q0 -113 80 -194t195 -81h73q113 0 194 81t81 194z" />
    <glyph glyph-name="seven" unicode="7" 
d="M209 1079v322h762v-129q0 -137 -74 -271l-279 -485l-4 -8q-2 -6 -8 -19.5t-13 -30t-13.5 -39t-12.5 -46t-9 -51t-3 -54.5v-268h-74v268q0 31 4 62.5t10.5 58.5t13.5 52.5t15 45t14.5 34t10.5 22.5l4 8l278 485q51 88 66 226v65h-614v-248h-74z" />
    <glyph glyph-name="eight" unicode="8" 
d="M770 733q106 -39 167.5 -121t61.5 -192v-90q0 -145 -102 -246.5t-246 -101.5h-86q-145 0 -246.5 101t-101.5 247v92q0 109 61.5 196t159.5 121q-94 43 -148 123t-54 185v24q0 145 101 246.5t247 101.5h49q145 0 246.5 -101t101.5 -247v-27q0 -104 -58.5 -189t-152.5 -122
zM309 1047q0 -111 75 -183.5t194 -87.5l59 -12q113 2 191.5 83t78.5 193v31q0 113 -81 194t-193 81h-49q-113 0 -194 -81t-81 -194v-24zM926 330v90q0 100 -69 173t-202 93l-77 16h-13q-115 0 -194.5 -79.5t-79.5 -194.5v-98q0 -115 80 -195t194 -80h86q115 0 195 81t80 194
z" />
    <glyph glyph-name="nine" unicode="9" 
d="M639 1419q145 0 246.5 -102.5t101.5 -245.5v-741q0 -145 -101.5 -246.5t-246.5 -101.5h-74q-121 0 -215 73.5t-123 190.5l72 20q23 -92 96.5 -151.5t169.5 -59.5h74q115 0 194.5 80t79.5 195v338q-47 -72 -123.5 -114t-166.5 -42h-58q-145 0 -246.5 101.5t-101.5 246.5
v211q0 143 102.5 245.5t245.5 102.5h74zM639 586q115 0 194.5 79.5t79.5 194.5v211q0 113 -79.5 194t-194.5 81h-74q-113 0 -193.5 -81t-80.5 -194v-211q0 -115 80 -194.5t194 -79.5h74z" />
    <glyph glyph-name="colon" unicode=":" 
d="M571 635v268h74v-268h-74zM571 0v268h74v-268h-74z" />
    <glyph glyph-name="semicolon" unicode=";" 
d="M571 616v279h74v-279h-74zM457 74h262v-80q0 -111 -65.5 -200t-168.5 -122l-20 70q80 29 130 98.5t50 159.5h-188v74z" />
    <glyph glyph-name="less" unicode="&#x3c;" 
d="M973 305l-29 -67l-749 301v102l749 303l29 -67l-705 -287z" />
    <glyph glyph-name="equal" unicode="=" 
d="M207 727v74h803v-74h-803zM1010 457v-74h-803v74h803z" />
    <glyph glyph-name="greater" unicode="&#x3e;" 
d="M197 305l704 285l-704 287l28 67l750 -303v-102l-750 -301z" />
    <glyph glyph-name="question" unicode="?" 
d="M203 1139q29 115 123 187.5t215 72.5h80q145 0 246.5 -101.5t101.5 -246.5q0 -199 -189 -312q-166 -102 -166 -229v-37h-73v37q0 170 202 291q152 96 152 250q0 115 -80 194.5t-194 79.5h-80q-98 0 -171 -58.5t-96 -150.5zM541 0v276h73v-276h-73z" />
    <glyph glyph-name="at" unicode="@" 
d="M662 1233q147 0 252.5 -104.5t105.5 -254.5v-667q0 -94 -66.5 -159.5t-158.5 -65.5q-63 0 -115.5 33.5t-79.5 88.5q-27 -55 -79 -88.5t-115 -33.5q-92 0 -159 65.5t-67 159.5v321q0 94 66.5 160t159.5 66q104 0 163 -86v69h62v-530q0 -68 48 -116t115.5 -48t114.5 48
t47 116v667q0 125 -86 211t-208 86h-134q-104 0 -184 -64.5t-102 -162.5l-62 17q29 119 126 195.5t222 76.5h134zM569 207v321q0 68 -48 116t-115.5 48t-114.5 -48t-47 -116v-321q0 -68 47 -116t114.5 -48t115.5 48t48 116z" />
    <glyph glyph-name="A" unicode="A" 
d="M985 559q37 -137 37 -289v-270h-74v270q0 29 -6 101h-668q-6 -72 -6 -101v-270h-73v270q0 137 36 289l197 723q16 61 66.5 99t113.5 38q66 0 115 -38t65 -99zM285 444h647q-6 49 -19 95l-196 723q-10 37 -39 60.5t-70 23.5t-69.5 -24t-38.5 -60l-197 -723
q-12 -44 -18 -95z" />
    <glyph glyph-name="B" unicode="B" 
d="M815 715q94 -37 154.5 -122t60.5 -192v-53q0 -143 -102.5 -245.5t-245.5 -102.5h-434v1401h422q145 0 246.5 -102.5t101.5 -245.5v-29q0 -102 -56.5 -186t-146.5 -123zM670 1327h-348v-577h348q113 0 193.5 80.5t80.5 193.5v29q0 115 -80.5 194.5t-193.5 79.5zM956 348
v53q0 115 -80.5 195t-193.5 80h-360v-602h360q113 0 193.5 80.5t80.5 193.5z" />
    <glyph glyph-name="C" unicode="C" 
d="M1014 1157l-72 -20q-23 92 -96.5 150.5t-169.5 58.5h-98q-113 0 -194 -81t-81 -194v-741q0 -113 80 -194t195 -81h98q96 0 170 58.5t96 150.5l72 -20q-29 -115 -123 -188.5t-215 -73.5h-98q-145 0 -247 101t-102 247v741q0 143 101.5 245.5t247.5 102.5h98
q121 0 215 -74.5t123 -187.5z" />
    <glyph glyph-name="D" unicode="D" 
d="M231 0v1401h428q145 0 248 -101.5t103 -246.5v-705q0 -145 -102.5 -246.5t-248.5 -101.5h-428zM305 74h354q115 0 196 79.5t81 194.5v705q0 115 -81 194.5t-196 79.5h-354v-1253z" />
    <glyph glyph-name="E" unicode="E" 
d="M250 0v1401h778v-74h-704v-590h639v-73h-639v-590h704v-74h-778z" />
    <glyph glyph-name="F" unicode="F" 
d="M297 0v1401h770v-74h-696v-606h635v-74h-635v-647h-74z" />
    <glyph glyph-name="G" unicode="G" 
d="M1001 1157l-71 -20q-23 92 -96.5 150.5t-169.5 58.5h-99q-115 0 -194.5 -81t-79.5 -194v-741q0 -113 80 -194t194 -81h99q115 0 194.5 81t79.5 194v334h-309v73h383v-407q0 -145 -102.5 -246.5t-245.5 -101.5h-99q-143 0 -245.5 101t-102.5 247v741q0 143 102.5 245.5
t245.5 102.5h99q121 0 214.5 -74.5t122.5 -187.5z" />
    <glyph glyph-name="H" unicode="H" 
d="M920 1401h73v-1401h-73v664h-623v-664h-74v1401h74v-664h623v664z" />
    <glyph glyph-name="I" unicode="I" 
d="M223 74h348v1253h-340v74h754v-74h-340v-1253h348v-74h-770v74z" />
    <glyph glyph-name="J" unicode="J" 
d="M252 1401h711v-1071q0 -143 -102.5 -245.5t-246.5 -102.5h-69q-121 0 -216.5 74.5t-123.5 187.5l71 20q23 -92 96.5 -150.5t172.5 -58.5h69q115 0 195 81t80 194v997h-637v74z" />
    <glyph glyph-name="K" unicode="K" 
d="M236 1401h73v-658h244l299 330q29 33 55.5 93.5t26.5 105.5v129h74v-129q0 -51 -30 -127t-71 -121l-293 -317l312 -330q41 -43 70.5 -119t29.5 -129v-129h-74v129q0 47 -26.5 107.5t-55.5 91.5l-321 342h-240v-670h-73v1401z" />
    <glyph glyph-name="L" unicode="L" 
d="M272 1401h74v-1327h678v-74h-752v1401z" />
    <glyph glyph-name="M" unicode="M" 
d="M178 0v1401h98l332 -864l332 864h98v-1401h-73v1266l-318 -824h-78l-317 824v-1266h-74z" />
    <glyph glyph-name="N" unicode="N" 
d="M205 1401h92l641 -1270v1270h74v-1401h-92l-641 1270v-1270h-74v1401z" />
    <glyph glyph-name="O" unicode="O" 
d="M559 -18q-145 0 -246.5 101t-101.5 247v741q0 143 102.5 245.5t245.5 102.5h98q143 0 246 -102.5t103 -245.5v-741q0 -145 -101.5 -246.5t-247.5 -101.5h-98zM559 55h98q115 0 195 80t80 195v741q0 115 -80 195t-195 80h-98q-113 0 -193.5 -81t-80.5 -194v-741
q0 -113 80.5 -194t193.5 -81z" />
    <glyph glyph-name="P" unicode="P" 
d="M272 0v1401h422q145 0 246.5 -102.5t101.5 -245.5v-127q0 -143 -102 -245.5t-246 -102.5h-348v-578h-74zM346 651h348q113 0 194 81t81 194v127q0 115 -81 194.5t-194 79.5h-348v-676z" />
    <glyph glyph-name="Q" unicode="Q" 
d="M657 1419q143 0 246 -102.5t103 -245.5v-741q0 -145 -101.5 -246.5t-247.5 -101.5h-12v-338h-74v338h-12q-145 0 -246.5 101t-101.5 247v741q0 143 102.5 245.5t245.5 102.5h98zM932 330v741q0 115 -80 195t-195 80h-98q-113 0 -193.5 -81t-80.5 -194v-741
q0 -113 80.5 -194t193.5 -81h98q115 0 195 80t80 195z" />
    <glyph glyph-name="R" unicode="R" 
d="M924 377q100 -106 100 -248v-129h-74v129q0 113 -80 199l-258 274h-297v-602h-73v1401h422q145 0 246.5 -102.5t101.5 -245.5v-103q0 -131 -86 -229t-215 -115zM315 1327v-651h349q115 0 194.5 80t79.5 194v103q0 115 -80 194.5t-194 79.5h-349z" />
    <glyph glyph-name="S" unicode="S" 
d="M182 244l70 20q23 -90 97.5 -149.5t170.5 -59.5h135q113 0 194 81t81 194q0 221 -228 307l-204 80q-141 51 -215 136t-74 218q0 145 101.5 246.5t246.5 101.5h92q121 0 215 -73.5t123 -188.5l-72 -20q-23 92 -96.5 150.5t-169.5 58.5h-92q-115 0 -194.5 -80t-79.5 -195
q0 -104 56 -169.5t187 -117.5l203 -77q274 -109 275 -377q0 -143 -102.5 -245.5t-246.5 -102.5h-135q-121 0 -215 74.5t-123 187.5z" />
    <glyph glyph-name="T" unicode="T" 
d="M184 1401h848v-74h-387v-1327h-74v1327h-387v74z" />
    <glyph glyph-name="U" unicode="U" 
d="M213 1401h74v-1071q0 -113 79.5 -194t194.5 -81h98q115 0 196 80t81 195v1071h74v-1071q0 -145 -102.5 -246.5t-248.5 -101.5h-98q-143 0 -245.5 102t-102.5 246v1071z" />
    <glyph glyph-name="V" unicode="V" 
d="M195 1401h73v-275q0 -129 47 -260l293 -782q258 686 293 782q47 123 47 260v275h74v-275q0 -147 -51 -282l-316 -844h-92l-317 844q-51 135 -51 282v275z" />
    <glyph glyph-name="W" unicode="W" 
d="M152 1401h73v-275q0 -123 25 -262l145 -760l168 736h92l168 -731l144 755q25 139 24 262v275h74v-275q0 -139 -25 -274l-161 -852h-99l-172 754l-170 -754h-100l-162 852q-25 135 -24 274v275z" />
    <glyph glyph-name="X" unicode="X" 
d="M227 1401h74v-129q0 -47 15.5 -93t31.5 -69l17 -25l243 -315l244 315q63 82 63 187v129h74v-129q0 -57 -19.5 -114.5t-35.5 -83t-25 -34.5l-256 -329l271 -346q35 -45 59.5 -117t24.5 -121v-127h-74v127q0 35 -19.5 94.5t-48.5 97.5l-258 334l-258 -334q-29 -39 -48 -98
t-19 -94v-127h-74v127q0 49 24.5 120.5t59.5 117.5l270 346l-256 329q-80 119 -80 232v129z" />
    <glyph glyph-name="Y" unicode="Y" 
d="M999 1114q0 -106 -79 -227l-275 -342v-545h-74v545l-274 342q-8 8 -24.5 33.5t-36 82t-19.5 111.5v287h74v-287q0 -43 16.5 -89t31.5 -69.5t17 -23.5l252 -316l252 316q66 84 66 182v287h73v-287z" />
    <glyph glyph-name="Z" unicode="Z" 
d="M229 1401h756v-74l-686 -1253h705v-74h-789v74l686 1253h-672v74z" />
    <glyph glyph-name="bracketleft" unicode="[" 
d="M487 -197v1598h424v-74h-350v-1450h350v-74h-424z" />
    <glyph glyph-name="backslash" unicode="\" 
d="M989 0h-74v125q0 45 -15 90t-32 68l-14 24l-530 697q-96 125 -97 268v129h74v-129q0 -119 82 -225l530 -695q76 -113 76 -227v-125z" />
    <glyph glyph-name="bracketright" unicode="]" 
d="M729 -197h-424v74h350v1450h-350v74h424v-1598z" />
    <glyph glyph-name="asciicircum" unicode="^" 
d="M326 827l231 574h102l230 -574l-68 -26l-213 526l-215 -526z" />
    <glyph glyph-name="underscore" unicode="_" 
d="M242 -190v73h733v-73h-733z" />
    <glyph glyph-name="grave" unicode="`" 
d="M696 1155l-231 231l53 54l232 -232z" />
    <glyph glyph-name="a" unicode="a" 
d="M909 1044h74v-1044h-74v139q-106 -158 -291 -157h-57q-143 0 -245.5 101t-102.5 247v385q0 145 102.5 246.5t245.5 101.5h57q184 0 291 -158v139zM635 55q115 0 194.5 81t79.5 194v385q0 113 -79.5 193.5t-194.5 80.5h-74q-115 0 -194.5 -80t-79.5 -194v-385
q0 -115 79.5 -195t194.5 -80h74z" />
    <glyph glyph-name="b" unicode="b" 
d="M657 1063q145 0 247 -101.5t102 -246.5v-385q0 -145 -101.5 -246.5t-247.5 -101.5h-57q-184 0 -291 157v-139h-73v1401h73v-496q106 158 291 158h57zM932 330v385q0 115 -80 194.5t-195 79.5h-73q-113 0 -194 -81t-81 -193v-385q0 -113 81 -194t194 -81h73q115 0 195 80
t80 195z" />
    <glyph glyph-name="c" unicode="c" 
d="M242 330v385q0 145 102 246.5t246 101.5h74q121 0 215 -75t122 -189l-71 -21q-23 92 -96.5 151.5t-169.5 59.5h-74q-115 0 -195 -81t-80 -193v-385q0 -113 80 -194t195 -81h74q96 0 169.5 59.5t96.5 151.5l71 -20q-29 -115 -123 -189.5t-214 -74.5h-74
q-143 0 -245.5 101.5t-102.5 246.5z" />
    <glyph glyph-name="d" unicode="d" 
d="M907 1401h74v-1401h-74v139q-106 -158 -291 -157h-57q-145 0 -246.5 101t-101.5 247v385q0 145 101.5 246.5t246.5 101.5h57q184 0 291 -158v496zM633 55q113 0 193.5 81t80.5 194v385q0 113 -81 193.5t-193 80.5h-74q-115 0 -194.5 -80t-79.5 -194v-385
q0 -115 79.5 -195t194.5 -80h74z" />
    <glyph glyph-name="e" unicode="e" 
d="M578 1063h73q143 0 245.5 -101.5t102.5 -246.5v-197h-696v-188q0 -115 80 -195t195 -80h73q96 0 170 59.5t97 151.5l71 -20q-29 -115 -123 -189.5t-215 -74.5h-73q-143 0 -246 102t-103 246v385q0 145 103 246.5t246 101.5zM303 592h623v123q0 113 -80 193.5t-195 80.5
h-73q-115 0 -195 -80t-80 -194v-123z" />
    <glyph glyph-name="f" unicode="f" 
d="M223 0v74h234v805h-234v73h234v119q0 145 101 246.5t247 101.5h74q121 0 215 -73.5t123 -190.5l-72 -20q-23 92 -96.5 151.5t-169.5 59.5h-74q-115 0 -195 -80t-80 -195v-119h373v-73h-373v-805h482v-74h-789z" />
    <glyph glyph-name="g" unicode="g" 
d="M907 1044h74v-1071q0 -143 -101.5 -245.5t-246.5 -102.5h-74q-121 0 -215 75t-123 189l72 21q23 -92 96.5 -151.5t169.5 -59.5h74q115 0 194.5 81t79.5 193v252q-47 -72 -123.5 -114.5t-167.5 -42.5h-57q-143 0 -245.5 102t-102.5 246v299q0 145 101.5 246.5t246.5 101.5
h57q90 0 167 -42t124 -114v137zM633 141q115 0 194.5 81t79.5 194v299q0 115 -79.5 194.5t-194.5 79.5h-74q-113 0 -193.5 -81t-80.5 -193v-299q0 -113 80.5 -194t193.5 -81h74z" />
    <glyph glyph-name="h" unicode="h" 
d="M651 1063q143 0 245.5 -101.5t102.5 -246.5v-715h-73v715q0 115 -80 194.5t-195 79.5h-73q-115 0 -195 -81t-80 -193v-715h-74v1401h74v-496q106 158 291 158h57z" />
    <glyph glyph-name="i" unicode="i" 
d="M614 1192v260h74v-260h-74zM303 1044h385v-970h354v-74h-806v74h378v897h-311v73z" />
    <glyph glyph-name="j" unicode="j" 
d="M743 1192v260h74v-260h-74zM260 1044h557v-1073q0 -143 -101.5 -244.5t-244.5 -101.5q-121 0 -214 74t-122 188l72 23q20 -92 94 -151.5t170 -59.5q113 0 192.5 80t79.5 192v1000h-483v73z" />
    <glyph glyph-name="k" unicode="k" 
d="M254 1401h74v-848h274l207 170q33 29 63.5 85t30.5 103v133h74v-133q0 -47 -27.5 -118.5t-91.5 -124.5l-188 -152l219 -170q37 -27 71.5 -87t34.5 -130v-129h-73v129q0 43 -20.5 83t-38 58.5t-21.5 18.5l-240 190h-274v-479h-74v1401z" />
    <glyph glyph-name="l" unicode="l" 
d="M1145 244q-29 -115 -123 -188.5t-215 -73.5q-143 0 -244.5 101t-101.5 245v999h-307v74h381v-1073q0 -113 79.5 -193t192.5 -80q96 0 170 59.5t96 151.5z" />
    <glyph glyph-name="m" unicode="m" 
d="M821 1063q96 0 166 -68.5t70 -167.5v-827h-74v823q0 70 -49 118t-117 48q-70 0 -118 -48t-48 -118v-823h-73v823q0 70 -49.5 118t-116.5 48q-70 0 -118 -48t-48 -118v-823h-74v1044h74v-69q68 88 176 88q63 0 115.5 -33t78.5 -88q70 121 205 121z" />
    <glyph glyph-name="n" unicode="n" 
d="M651 1063q143 0 245.5 -101.5t102.5 -246.5v-715h-73v715q0 115 -80 194.5t-195 79.5h-73q-115 0 -195 -81t-80 -193v-715h-74v1044h74v-139q106 158 291 158h57z" />
    <glyph glyph-name="o" unicode="o" 
d="M571 1063h74q145 0 246.5 -101.5t101.5 -246.5v-385q0 -143 -102.5 -245.5t-245.5 -102.5h-74q-143 0 -245.5 102t-102.5 246v385q0 145 101.5 246.5t246.5 101.5zM571 989q-113 0 -193.5 -81t-80.5 -193v-385q0 -113 81 -194t193 -81h74q115 0 195 80t80 195v385
q0 115 -80 194.5t-195 79.5h-74z" />
    <glyph glyph-name="p" unicode="p" 
d="M657 1063q145 0 247 -101.5t102 -246.5v-385q0 -145 -101.5 -246.5t-247.5 -101.5h-57q-184 0 -291 157v-495h-73v1400h73v-139q106 158 291 158h57zM932 330v385q0 115 -80 194.5t-195 79.5h-73q-113 0 -194 -81t-81 -193v-385q0 -113 81 -194t194 -81h73q115 0 195 80
t80 195z" />
    <glyph glyph-name="q" unicode="q" 
d="M907 1044h74v-1400h-74v495q-106 -158 -291 -157h-57q-145 0 -246.5 101t-101.5 247v385q0 145 101.5 246.5t246.5 101.5h57q184 0 291 -158v139zM633 55q113 0 193.5 81t80.5 194v385q0 113 -81 193.5t-193 80.5h-74q-115 0 -194.5 -80t-79.5 -194v-385
q0 -115 79.5 -195t194.5 -80h74z" />
    <glyph glyph-name="r" unicode="r" 
d="M150 0v74h208v641q0 145 101.5 246.5t247.5 101.5h73q123 0 216.5 -74t121.5 -190l-71 -21q-20 92 -94 151.5t-173 59.5h-73q-113 0 -194 -81t-81 -193v-641h512v-74h-794z" />
    <glyph glyph-name="s" unicode="s" 
d="M225 170l72 23q20 -61 72.5 -99.5t117.5 -38.5h234q82 0 141.5 59.5t59.5 141.5q0 78 -48.5 137.5t-130.5 73.5l-254 41q-111 16 -178 93t-67 187q0 115 79.5 195t194.5 80h197q90 0 161.5 -53.5t100.5 -137.5l-72 -20q-20 61 -72.5 99t-117.5 38h-197
q-84 0 -142.5 -58.5t-58.5 -142.5q0 -88 50.5 -142t134.5 -66l254 -39q106 -16 172.5 -96t66.5 -189q0 -113 -80.5 -193.5t-193.5 -80.5h-234q-90 0 -161.5 53t-100.5 135z" />
    <glyph glyph-name="t" unicode="t" 
d="M145 971v73h283v283h74v-283h524v-73h-524v-643q0 -113 80 -193t192 -80q96 0 170 59.5t94 151.5l72 -22q-29 -115 -122 -188.5t-214 -73.5q-143 0 -244.5 102t-101.5 244v643h-283z" />
    <glyph glyph-name="u" unicode="u" 
d="M223 1044h74v-714q0 -113 81 -194t193 -81h74q115 0 195 80t80 195v714h73v-714q0 -145 -101 -246.5t-247 -101.5h-74q-145 0 -246.5 101t-101.5 247v714z" />
    <glyph glyph-name="v" unicode="v" 
d="M215 1044h74v-131q0 -125 55 -243l264 -580l264 580q55 123 56 243v131h73v-131q0 -135 -61 -274l-293 -639h-78l-293 639q-61 135 -61 274v131z" />
    <glyph glyph-name="w" unicode="w" 
d="M150 911v133h73v-133q0 -129 31 -254l133 -536l182 745h78l182 -745l134 536q14 55 21 119t7 101l2 34v133h74v-133q0 -137 -33 -270l-160 -641h-86l-180 748l-180 -748h-86l-160 641q-32 133 -32 270z" />
    <glyph glyph-name="x" unicode="x" 
d="M225 1044h74v-131q0 -12 3 -34.5t27.5 -71.5t65.5 -82l213 -162l213 162q41 33 65.5 80t26.5 78l5 30v131h73v-131q0 -66 -34.5 -134t-90.5 -111l-196 -150l225 -172q39 -31 72.5 -90t33.5 -127v-129h-73v129q0 43 -19.5 83t-40.5 58l-20 19l-240 186l-239 -186
q-4 0 -21.5 -18.5t-38 -58.5t-20.5 -83v-129h-74v129q0 68 35 127t72 90l225 172l-197 150q-68 51 -96.5 124.5t-28.5 120.5v131z" />
    <glyph glyph-name="y" unicode="y" 
d="M225 1044h74v-133q0 -119 61 -231l252 -471l254 471q59 109 60 231v133h73v-133q0 -141 -67 -268l-488 -899q-10 -16 -27.5 -36.5t-56 -42t-84.5 -21.5h-157v73h157q16 0 31 4.5t25 10.5t19 14t14.5 14.5t9.5 12.5l4 6l192 354l-276 510q-70 131 -70 268v133z" />
    <glyph glyph-name="z" unicode="z" 
d="M258 1044h707v-73l-633 -897h651v-74h-743v74l632 897h-614v73z" />
    <glyph glyph-name="braceleft" unicode="{" 
d="M627 834q0 -76 -41 -138.5t-107 -93.5q68 -31 108 -93.5t40 -137.5v-285q0 -88 60.5 -148.5t148.5 -60.5h141v-74h-141q-119 0 -201 82t-82 201v285q0 80 -57.5 137t-137.5 57h-36v74h36v-12h2v12q80 0 136.5 56.5t56.5 138.5v284q0 117 82 200t201 83h141v-74h-141
q-88 0 -148.5 -60.5t-60.5 -148.5v-284z" />
    <glyph glyph-name="bar" unicode="|" 
d="M571 -197v1598h74v-1598h-74z" />
    <glyph glyph-name="braceright" unicode="}" 
d="M858 639h37v-74h-37q-80 0 -137 -57t-57 -137v-285q0 -119 -82 -201t-201 -82h-141v74h141q88 0 148.5 60.5t60.5 148.5v285q0 76 40 138t107 93q-66 31 -106.5 93.5t-40.5 138.5v284q0 88 -60.5 148.5t-148.5 60.5h-141v74h141q119 0 201 -83t82 -200v-284
q0 -82 56 -138.5t136 -56.5v-12h2v12z" />
    <glyph glyph-name="asciitilde" unicode="~" 
d="M219 477v17q0 94 66.5 159.5t160.5 65.5q109 0 170 -84q76 -96 154 -96q63 0 108.5 45t45.5 106v19h73v-19q0 -94 -66.5 -159.5t-160.5 -65.5q-109 0 -170 86q-72 94 -154 94q-63 0 -108 -44t-45 -107v-17h-74z" />
    <glyph glyph-name="uni00A0" unicode="&#xa0;" 
 />
    <glyph glyph-name="exclamdown" unicode="&#xa1;" 
d="M571 1044h74v-276h-74v276zM571 571h74v-927h-74v927z" />
    <glyph glyph-name="cent" unicode="&#xa2;" 
d="M666 227q96 0 169.5 59.5t96.5 151.5l72 -20q-29 -115 -123.5 -189.5t-214.5 -74.5h-4v-154h-74v154q-143 2 -243.5 103t-100.5 245v385q0 143 100 244.5t244 103.5v166h74v-166h4q121 0 215 -75t123 -189l-72 -21q-23 92 -96.5 151.5t-169.5 59.5h-74q-113 0 -194 -81
t-81 -193v-385q0 -113 81 -194t194 -81h74z" />
    <glyph glyph-name="sterling" unicode="&#xa3;" 
d="M1051 242l71 -23q-27 -96 -107.5 -157.5t-180.5 -61.5h-658v74h39q47 0 82 33.5t35 80.5v476h-156v73h156v334q0 143 101.5 245.5t246.5 102.5q121 0 215 -74.5t123 -187.5l-72 -20q-23 90 -96.5 149.5t-169.5 59.5q-113 0 -193.5 -81t-80.5 -194v-334h485v-73h-485v-457
q0 -84 -64 -133h492q78 0 138.5 47t78.5 121z" />
    <glyph glyph-name="currency" unicode="&#xa4;" 
d="M985 633q0 -121 -76 -217l181 -183l-52 -53l-182 182q-92 -80 -219 -79h-57q-125 0 -222 77l-180 -180l-51 53l180 183q-76 96 -76 217v57q0 125 78 219l-182 183l53 53l182 -182q96 76 218 75h57q121 0 217 -75l182 182l54 -53l-183 -183q78 -94 78 -219v-57zM580 356
h57q113 0 193.5 81t80.5 196v57q0 113 -80.5 194t-193.5 81h-57q-113 0 -194 -81t-81 -194v-57q0 -115 81 -196t194 -81z" />
    <glyph glyph-name="yen" unicode="&#xa5;" 
d="M999 1114q0 -106 -79 -227l-89 -111h150v-74h-209l-119 -147h328v-74h-336v-481h-74v481h-335v74h327l-119 147h-208v74h149l-88 111q-8 8 -24.5 33.5t-36 82t-19.5 111.5v287h74v-287q0 -43 16.5 -89t31.5 -69.5t17 -23.5l252 -316l252 316q66 84 66 182v287h73v-287z
" />
    <glyph glyph-name="brokenbar" unicode="&#xa6;" 
d="M569 731v670h74v-670h-74zM569 -197v670h74v-670h-74z" />
    <glyph glyph-name="section" unicode="&#xa7;" 
d="M989 1155l-71 -20q-20 92 -94 151.5t-173 59.5h-80q-113 0 -193.5 -81t-80.5 -194q0 -225 268 -289l207 -51q145 -35 231.5 -125t86.5 -223q0 -147 -109 -256q29 -70 29 -154q0 -145 -101.5 -246.5t-246.5 -101.5h-80q-121 0 -216.5 75t-123.5 189l71 21
q23 -92 97.5 -151.5t171.5 -59.5h80q113 0 193.5 81t80.5 193q0 223 -268 291l-205 49q-158 39 -240 131.5t-82 217.5q0 147 111 258q-29 68 -29 151q0 145 101.5 246.5t246.5 101.5h80q121 0 215 -74.5t123 -189.5zM215 662q0 -209 266 -277l203 -49q166 -39 252 -148
q80 96 80 195q0 94 -65.5 169t-196.5 107l-207 50q-182 45 -250 149q-82 -106 -82 -196z" />
    <glyph glyph-name="dieresis" unicode="&#xa8;" 
d="M449 1231v260h73v-260h-73zM694 1231v260h74v-260h-74z" />
    <glyph glyph-name="copyright" unicode="&#xa9;" 
d="M166 565v271q0 184 130 313t312.5 129t312.5 -129t130 -313v-271q0 -182 -130 -312t-312.5 -130t-312.5 130t-130 312zM221 565q0 -160 112.5 -273.5t274.5 -113.5q160 0 273.5 114t113.5 273v271q0 162 -113.5 274.5t-273.5 112.5q-162 0 -274.5 -113t-112.5 -274v-271z
M786 887l-53 -17q-10 33 -36.5 53.5t-59.5 20.5h-41q-41 0 -69.5 -28.5t-28.5 -67.5v-297q0 -39 29.5 -68.5t68.5 -29.5h41q33 0 59.5 21.5t36.5 53.5l53 -16q-14 -49 -55 -82t-94 -33h-41q-63 0 -107.5 45t-44.5 109v297q0 63 44 108t108 45h41q53 0 94 -32.5t55 -81.5z
" />
    <glyph glyph-name="ordfeminine" unicode="&#xaa;" 
d="M350 977v221q0 90 62.5 152.5t152.5 62.5h29q121 0 168 -100v88h63v-627h-63v88q-23 -45 -68 -72.5t-100 -27.5h-29q-90 0 -152.5 63.5t-62.5 151.5zM414 977q0 -63 44 -108.5t107 -45.5h45q63 0 107.5 45t44.5 109v221q0 63 -44 108.5t-108 45.5h-45q-63 0 -107 -45
t-44 -109v-221zM365 594h460v-64h-460v64z" />
    <glyph glyph-name="guillemotleft" unicode="&#xab;" 
d="M203 592l381 381l49 -49l-332 -332l332 -330l-49 -51zM584 592l381 381l49 -49l-332 -332l332 -330l-49 -51z" />
    <glyph glyph-name="logicalnot" unicode="&#xac;" 
d="M199 657v74h776v-416h-74v342h-702z" />
    <glyph glyph-name="registered" unicode="&#xae;" 
d="M166 565v271q0 184 130 313t312.5 129t312.5 -129t130 -313v-271q0 -182 -130 -312t-312.5 -130t-312.5 130t-130 312zM221 565q0 -160 112.5 -273.5t274.5 -113.5q160 0 273.5 114t113.5 273v271q0 162 -113.5 274.5t-273.5 112.5q-162 0 -274.5 -113t-112.5 -274v-271z
M451 999h182q66 0 110.5 -45t44.5 -108v-41q0 -51 -33.5 -93t-82.5 -53l73 -79q47 -47 48 -115v-53h-56v53q0 23 -11 46.5t-19 29.5l-103 110h-98v-239h-55v587zM506 944v-237h129q41 0 69.5 29.5t28.5 68.5v41q0 41 -28.5 69.5t-69.5 28.5h-129z" />
    <glyph glyph-name="macron" unicode="&#xaf;" 
d="M326 1237v74h565v-74h-565z" />
    <glyph glyph-name="degree" unicode="&#xb0;" 
d="M309 1120q0 123 87 211t212 88t212 -88t87 -211q0 -127 -87 -214t-212 -87t-212 88t-87 213zM383 1120q0 -94 65.5 -160.5t159.5 -66.5t160 66.5t66 160.5q0 92 -66 159t-160 67t-159.5 -67t-65.5 -159z" />
    <glyph glyph-name="plusminus" unicode="&#xb1;" 
d="M207 698v74h364v277h74v-277h365v-74h-365v-276h-74v276h-364zM207 197v73h803v-73h-803z" />
    <glyph glyph-name="uni00B2" unicode="&#xb2;" 
d="M377 1606q16 72 74.5 117.5t134.5 45.5h47q88 0 151.5 -63.5t63.5 -151.5q0 -82 -45 -138t-133 -105l-86 -47q-90 -47 -119 -97.5t-29 -136.5v-53h412v-62h-475v113q0 111 41 174.5t143 116.5l78 45q150 76 149 190q0 63 -45 107.5t-106 44.5h-47q-53 0 -94 -33t-56 -84z
" />
    <glyph glyph-name="uni00B3" unicode="&#xb3;" 
d="M360 1069l60 16q12 -49 54 -82.5t95 -33.5h45q63 0 107.5 44t44.5 107v78q0 63 -44 108.5t-108 45.5h-104v61l227 285h-364v61h444v-61l-225 -283l43 -4q82 -6 138 -67.5t56 -145.5v-78q0 -88 -62 -151.5t-153 -63.5h-45q-74 0 -132.5 46t-76.5 118z" />
    <glyph glyph-name="acute" unicode="&#xb4;" 
d="M520 1155l-53 53l231 232l54 -54z" />
    <glyph glyph-name="uni00B5" unicode="&#xb5;" 
d="M1102 74h28v-74h-28q-72 0 -127 43t-74 109q-43 -76 -122 -123t-171 -47h-49q-90 0 -166 43t-121 116v-497h-73v1400h73v-714q0 -113 81 -194t194 -81h74q113 0 193.5 81t80.5 194v714h74v-839q0 -53 39 -92t94 -39z" />
    <glyph glyph-name="paragraph" unicode="&#xb6;" 
d="M201 838v217q0 143 102.5 245.5t245.5 102.5h416v-1757h-74v1683h-342q-113 0 -194 -81t-81 -193v-217q0 -115 80 -195t195 -80h166v-74h-166q-145 0 -246.5 102t-101.5 247z" />
    <glyph glyph-name="periodcentered" unicode="&#xb7;" 
d="M571 457v268h74v-268h-74z" />
    <glyph glyph-name="cedilla" unicode="&#xb8;" 
d="M641 -109q78 -12 130 -72.5t52 -140.5q0 -88 -63.5 -151.5t-151.5 -63.5h-43v74h43q59 0 100.5 41t41.5 100.5t-41 100.5t-101 41h-41v180h74v-109z" />
    <glyph glyph-name="uni00B9" unicode="&#xb9;" 
d="M371 1526l231 231h57v-780h195v-62h-473v62h217v688l-184 -184z" />
    <glyph glyph-name="ordmasculine" unicode="&#xba;" 
d="M371 979v219q0 88 63.5 151.5t151.5 63.5h45q90 0 152.5 -63.5t62.5 -151.5v-219q0 -90 -62.5 -152.5t-152.5 -62.5h-45q-88 0 -151.5 62.5t-63.5 152.5zM434 979q0 -63 44 -108.5t108 -45.5h45q63 0 107 45t44 109v219q0 63 -44 108.5t-107 45.5h-45q-63 0 -107.5 -45
t-44.5 -109v-219zM385 530v64h446v-64h-446z" />
    <glyph glyph-name="guillemotright" unicode="&#xbb;" 
d="M633 592l-381 -381l-49 51l332 330l-332 332l49 49zM1014 592l-381 -381l-49 51l331 330l-331 332l49 49z" />
    <glyph glyph-name="onequarter" unicode="&#xbc;" 
d="M371 1526l231 231h57v-780h195v-62h-473v62h217v688l-184 -184zM156 731h905v-61h-905v61zM403 -133v135q0 90 46 174l174 311l53 -28l-172 -314q-16 -29 -25.5 -64.5t-11.5 -55.5v-23v-74h295v222h63v-506h-63v223h-359z" />
    <glyph glyph-name="onehalf" unicode="&#xbd;" 
d="M371 1526l231 231h57v-780h195v-62h-473v62h217v688l-184 -184zM156 731h905v-61h-905v61zM377 334q16 72 74.5 118t134.5 46h47q88 0 151.5 -63.5t63.5 -151.5q0 -82 -45 -138.5t-133 -105.5l-86 -47q-90 -47 -119 -97.5t-29 -136.5v-53h412v-61h-475v112
q0 111 41 174.5t143 116.5l78 45q150 76 149 191q0 63 -45 107t-106 44h-47q-53 0 -94 -32.5t-56 -84.5z" />
    <glyph glyph-name="threequarters" unicode="&#xbe;" 
d="M360 1069l60 16q12 -49 54 -82.5t95 -33.5h45q63 0 107.5 44t44.5 107v78q0 63 -44 108.5t-108 45.5h-104v61l227 285h-364v61h444v-61l-225 -283l43 -4q82 -6 138 -67.5t56 -145.5v-78q0 -88 -62 -151.5t-153 -63.5h-45q-74 0 -132.5 46t-76.5 118zM156 731h905v-61
h-905v61zM403 -133v135q0 90 46 174l174 311l53 -28l-172 -314q-16 -29 -25.5 -64.5t-11.5 -55.5v-23v-74h295v222h63v-506h-63v223h-359z" />
    <glyph glyph-name="questiondown" unicode="&#xbf;" 
d="M676 1024v-276h-74v276h74zM1014 -115q-29 -115 -123 -187.5t-215 -72.5h-80q-145 0 -246.5 101.5t-101.5 246.5q0 199 188 312q166 102 166 229v37h74v-37q0 -170 -203 -291q-152 -96 -151 -250q0 -115 79.5 -194.5t194.5 -79.5h80q98 0 171 58.5t95 150.5z" />
    <glyph glyph-name="Agrave" unicode="&#xc0;" 
d="M662 1565l-54 -54l-231 232l53 53zM985 559q37 -137 37 -289v-270h-74v270q0 29 -6 101h-668q-6 -72 -6 -101v-270h-73v270q0 137 36 289l197 723q16 61 66.5 99t113.5 38q66 0 115 -38t65 -99zM285 444h647q-6 49 -19 95l-196 723q-10 37 -39 60.5t-70 23.5t-69.5 -24
t-38.5 -60l-197 -723q-12 -44 -18 -95z" />
    <glyph glyph-name="Aacute" unicode="&#xc1;" 
d="M840 1743l-232 -232l-53 54l231 231zM985 559q37 -137 37 -289v-270h-74v270q0 29 -6 101h-668q-6 -72 -6 -101v-270h-73v270q0 137 36 289l197 723q16 61 66.5 99t113.5 38q66 0 115 -38t65 -99zM285 444h647q-6 49 -19 95l-196 723q-10 37 -39 60.5t-70 23.5t-69.5 -24
t-38.5 -60l-197 -723q-12 -44 -18 -95z" />
    <glyph glyph-name="Acircumflex" unicode="&#xc2;" 
d="M608 1776l-211 -211l-53 51l234 233h63l233 -233l-53 -51zM985 559q37 -137 37 -289v-270h-74v270q0 29 -6 101h-668q-6 -72 -6 -101v-270h-73v270q0 137 36 289l197 723q16 61 66.5 99t113.5 38q66 0 115 -38t65 -99zM285 444h647q-6 49 -19 95l-196 723
q-10 37 -39 60.5t-70 23.5t-69.5 -24t-38.5 -60l-197 -723q-12 -44 -18 -95z" />
    <glyph glyph-name="Atilde" unicode="&#xc3;" 
d="M293 1571v-17h-74v17q0 94 66.5 159.5t160.5 65.5q109 0 170 -84q76 -96 154 -96q63 0 108.5 45t45.5 106v19h73v-19q0 -94 -66.5 -159.5t-160.5 -65.5q-109 0 -170 86q-72 94 -154 94q-63 0 -108 -44t-45 -107zM985 559q37 -137 37 -289v-270h-74v270q0 29 -6 101h-668
q-6 -72 -6 -101v-270h-73v270q0 137 36 289l197 723q16 61 66.5 99t113.5 38q66 0 115 -38t65 -99zM285 444h647q-6 49 -19 95l-196 723q-10 37 -39 60.5t-70 23.5t-69.5 -24t-38.5 -60l-197 -723q-12 -44 -18 -95z" />
    <glyph glyph-name="Adieresis" unicode="&#xc4;" 
d="M522 1808v-260h-73v260h73zM768 1808v-260h-74v260h74zM985 559q37 -137 37 -289v-270h-74v270q0 29 -6 101h-668q-6 -72 -6 -101v-270h-73v270q0 137 36 289l197 723q16 61 66.5 99t113.5 38q66 0 115 -38t65 -99zM285 444h647q-6 49 -19 95l-196 723q-10 37 -39 60.5
t-70 23.5t-69.5 -24t-38.5 -60l-197 -723q-12 -44 -18 -95z" />
    <glyph glyph-name="Aring" unicode="&#xc5;" 
d="M985 559q37 -137 37 -289v-270h-74v270q0 29 -6 101h-668q-6 -72 -6 -101v-270h-73v270q0 137 36 289l197 723q18 59 66 98q-96 66 -97 181q0 88 63.5 151.5t151.5 63.5t151.5 -63.5t63.5 -151.5q0 -117 -102 -183q49 -39 63 -96zM612.5 1702q-59.5 0 -100.5 -41
t-41 -100.5t41 -100.5t100.5 -41t100.5 41t41 101q0 57 -41 99t-100.5 42zM285 444h647q-6 49 -19 95l-196 723q-10 37 -39 60.5t-70 23.5t-69.5 -24t-38.5 -60l-197 -723q-12 -44 -18 -95z" />
    <glyph glyph-name="AE" unicode="&#xc6;" 
d="M1042 1327h-362v-590h301v-73h-301v-590h362v-74h-436v371h-356q-6 -72 -6 -101v-270h-74v270q0 152 37 289l196 723q16 61 65.5 99t115.5 38q43 0 78 -18h380v-74zM260 444h346v899q-8 2 -22 3q-41 0 -70 -24t-39 -60l-196 -723q-13 -44 -19 -95z" />
    <glyph glyph-name="Ccedilla" unicode="&#xc7;" 
d="M676 55q96 0 170 58.5t96 150.5l72 -20q-29 -115 -123 -188.5t-215 -73.5h-31v-91q78 -12 130 -72.5t52 -140.5q0 -88 -63.5 -151.5t-151.5 -63.5h-43v74h43q59 0 100.5 41t41.5 100.5t-41 100.5t-101 41h-41v162q-143 2 -242.5 103t-99.5 245v741q0 143 101.5 245.5
t247.5 102.5h98q121 0 215 -74.5t123 -187.5l-72 -20q-23 92 -96.5 150.5t-169.5 58.5h-98q-113 0 -194 -81t-81 -194v-741q0 -113 80 -194t195 -81h98z" />
    <glyph glyph-name="Egrave" unicode="&#xc8;" 
d="M637 1511l-231 232l53 53l231 -231zM250 0v1401h778v-74h-704v-590h639v-73h-639v-590h704v-74h-778z" />
    <glyph glyph-name="Eacute" unicode="&#xc9;" 
d="M637 1511l-53 54l231 231l53 -53zM250 0v1401h778v-74h-704v-590h639v-73h-639v-590h704v-74h-778z" />
    <glyph glyph-name="Ecircumflex" unicode="&#xca;" 
d="M373 1589l233 234h64l233 -234l-53 -51l-213 211l-211 -211zM250 0v1401h778v-74h-704v-590h639v-73h-639v-590h704v-74h-778z" />
    <glyph glyph-name="Edieresis" unicode="&#xcb;" 
d="M477 1548v260h74v-260h-74zM723 1548v260h74v-260h-74zM250 0v1401h778v-74h-704v-590h639v-73h-639v-590h704v-74h-778z" />
    <glyph glyph-name="Igrave" unicode="&#xcc;" 
d="M608 1511l-231 232l53 53l232 -231zM223 74h348v1253h-340v74h754v-74h-340v-1253h348v-74h-770v74z" />
    <glyph glyph-name="Iacute" unicode="&#xcd;" 
d="M608 1511l-53 54l231 231l54 -53zM223 74h348v1253h-340v74h754v-74h-340v-1253h348v-74h-770v74z" />
    <glyph glyph-name="Icircumflex" unicode="&#xce;" 
d="M344 1589l234 234h63l233 -234l-53 -51l-213 211l-211 -211zM223 74h348v1253h-340v74h754v-74h-340v-1253h348v-74h-770v74z" />
    <glyph glyph-name="Idieresis" unicode="&#xcf;" 
d="M449 1548v260h73v-260h-73zM694 1548v260h74v-260h-74zM223 74h348v1253h-340v74h754v-74h-340v-1253h348v-74h-770v74z" />
    <glyph glyph-name="Eth" unicode="&#xd0;" 
d="M684 1401q145 0 247.5 -101.5t102.5 -246.5v-705q0 -145 -102.5 -246.5t-247.5 -101.5h-428v664h-158v73h158v664h428zM961 348v705q0 115 -81 194.5t-196 79.5h-354v-590h309v-73h-309v-590h354q115 0 196 79.5t81 194.5z" />
    <glyph glyph-name="Ntilde" unicode="&#xd1;" 
d="M219 1554v17q0 94 66.5 159.5t160.5 65.5q109 0 170 -84q76 -96 154 -96q63 0 108.5 45t45.5 106v19h73v-19q0 -94 -66.5 -159.5t-160.5 -65.5q-109 0 -170 86q-72 94 -154 94q-63 0 -108 -44t-45 -107v-17h-74zM205 1401h92l641 -1270v1270h74v-1401h-92l-641 1270
v-1270h-74v1401z" />
    <glyph glyph-name="Ograve" unicode="&#xd2;" 
d="M608 1511l-231 232l53 53l232 -231zM559 -18q-145 0 -246.5 101t-101.5 247v741q0 143 102.5 245.5t245.5 102.5h98q143 0 246 -102.5t103 -245.5v-741q0 -145 -101.5 -246.5t-247.5 -101.5h-98zM559 55h98q115 0 195 80t80 195v741q0 115 -80 195t-195 80h-98
q-113 0 -193.5 -81t-80.5 -194v-741q0 -113 80.5 -194t193.5 -81z" />
    <glyph glyph-name="Oacute" unicode="&#xd3;" 
d="M608 1511l-53 54l231 231l54 -53zM559 -18q-145 0 -246.5 101t-101.5 247v741q0 143 102.5 245.5t245.5 102.5h98q143 0 246 -102.5t103 -245.5v-741q0 -145 -101.5 -246.5t-247.5 -101.5h-98zM559 55h98q115 0 195 80t80 195v741q0 115 -80 195t-195 80h-98
q-113 0 -193.5 -81t-80.5 -194v-741q0 -113 80.5 -194t193.5 -81z" />
    <glyph glyph-name="Ocircumflex" unicode="&#xd4;" 
d="M344 1589l234 234h63l233 -234l-53 -51l-213 211l-211 -211zM559 -18q-145 0 -246.5 101t-101.5 247v741q0 143 102.5 245.5t245.5 102.5h98q143 0 246 -102.5t103 -245.5v-741q0 -145 -101.5 -246.5t-247.5 -101.5h-98zM559 55h98q115 0 195 80t80 195v741
q0 115 -80 195t-195 80h-98q-113 0 -193.5 -81t-80.5 -194v-741q0 -113 80.5 -194t193.5 -81z" />
    <glyph glyph-name="Otilde" unicode="&#xd5;" 
d="M219 1554v17q0 94 66.5 159.5t160.5 65.5q109 0 170 -84q76 -96 154 -96q63 0 108.5 45t45.5 106v19h73v-19q0 -94 -66.5 -159.5t-160.5 -65.5q-109 0 -170 86q-72 94 -154 94q-63 0 -108 -44t-45 -107v-17h-74zM559 -18q-145 0 -246.5 101t-101.5 247v741
q0 143 102.5 245.5t245.5 102.5h98q143 0 246 -102.5t103 -245.5v-741q0 -145 -101.5 -246.5t-247.5 -101.5h-98zM559 55h98q115 0 195 80t80 195v741q0 115 -80 195t-195 80h-98q-113 0 -193.5 -81t-80.5 -194v-741q0 -113 80.5 -194t193.5 -81z" />
    <glyph glyph-name="Odieresis" unicode="&#xd6;" 
d="M449 1548v260h73v-260h-73zM694 1548v260h74v-260h-74zM559 -18q-145 0 -246.5 101t-101.5 247v741q0 143 102.5 245.5t245.5 102.5h98q143 0 246 -102.5t103 -245.5v-741q0 -145 -101.5 -246.5t-247.5 -101.5h-98zM559 55h98q115 0 195 80t80 195v741q0 115 -80 195
t-195 80h-98q-113 0 -193.5 -81t-80.5 -194v-741q0 -113 80.5 -194t193.5 -81z" />
    <glyph glyph-name="multiply" unicode="&#xd7;" 
d="M281 317l274 275l-274 274l53 52l274 -275l275 275l51 -52l-275 -274l275 -277l-51 -51l-275 275l-274 -273z" />
    <glyph glyph-name="Oslash" unicode="&#xd8;" 
d="M1085 1409l-114 -186q35 -74 35 -152v-741q0 -145 -101.5 -246.5t-247.5 -101.5h-98q-164 0 -268 127l-96 -156l-64 37l115 188q-35 70 -35 152v741q0 143 102.5 245.5t245.5 102.5h98q166 0 271 -129l96 158zM285 330q0 -33 10 -74l592 967q-82 123 -230 123h-98
q-113 0 -193.5 -81t-80.5 -194v-741zM932 1071q0 35 -10 72l-590 -967q80 -121 227 -121h98q115 0 195 80t80 195v741z" />
    <glyph glyph-name="Ugrave" unicode="&#xd9;" 
d="M608 1511l-231 232l53 53l232 -231zM213 1401h74v-1071q0 -113 79.5 -194t194.5 -81h98q115 0 196 80t81 195v1071h74v-1071q0 -145 -102.5 -246.5t-248.5 -101.5h-98q-143 0 -245.5 102t-102.5 246v1071z" />
    <glyph glyph-name="Uacute" unicode="&#xda;" 
d="M608 1511l-53 54l231 231l54 -53zM213 1401h74v-1071q0 -113 79.5 -194t194.5 -81h98q115 0 196 80t81 195v1071h74v-1071q0 -145 -102.5 -246.5t-248.5 -101.5h-98q-143 0 -245.5 102t-102.5 246v1071z" />
    <glyph glyph-name="Ucircumflex" unicode="&#xdb;" 
d="M344 1589l234 234h63l233 -234l-53 -51l-213 211l-211 -211zM213 1401h74v-1071q0 -113 79.5 -194t194.5 -81h98q115 0 196 80t81 195v1071h74v-1071q0 -145 -102.5 -246.5t-248.5 -101.5h-98q-143 0 -245.5 102t-102.5 246v1071z" />
    <glyph glyph-name="Udieresis" unicode="&#xdc;" 
d="M449 1548v260h73v-260h-73zM694 1548v260h74v-260h-74zM213 1401h74v-1071q0 -113 79.5 -194t194.5 -81h98q115 0 196 80t81 195v1071h74v-1071q0 -145 -102.5 -246.5t-248.5 -101.5h-98q-143 0 -245.5 102t-102.5 246v1071z" />
    <glyph glyph-name="Yacute" unicode="&#xdd;" 
d="M608 1511l-53 54l231 231l54 -53zM999 1114q0 -106 -79 -227l-275 -342v-545h-74v545l-274 342q-8 8 -24.5 33.5t-36 82t-19.5 111.5v287h74v-287q0 -43 16.5 -89t31.5 -69.5t17 -23.5l252 -316l252 316q66 84 66 182v287h73v-287z" />
    <glyph glyph-name="Thorn" unicode="&#xde;" 
d="M272 0v1401h74v-289h348q145 0 246.5 -102.5t101.5 -247.5v-125q0 -145 -101 -246.5t-247 -101.5h-348v-289h-74zM346 362h348q115 0 195 80t80 195v125q0 115 -80 195.5t-195 80.5h-348v-676z" />
    <glyph glyph-name="germandbls" unicode="&#xdf;" 
d="M809 725q96 -37 155.5 -123t59.5 -192v-62q0 -143 -102.5 -245.5t-245.5 -102.5h-207v74h207q115 0 194.5 79.5t79.5 194.5v62q0 115 -79.5 194.5t-194.5 79.5h-162v74h150q115 0 194.5 81t79.5 195v27q0 115 -80 194.5t-194 79.5h-62q-115 0 -194.5 -79.5t-79.5 -194.5
v-1061h-74v1061q0 145 101.5 246.5t246.5 101.5h62q143 0 245.5 -102.5t102.5 -245.5v-27q0 -102 -56.5 -186t-146.5 -123z" />
    <glyph glyph-name="agrave" unicode="&#xe0;" 
d="M662 1208l-54 -53l-231 231l53 54zM909 1044h74v-1044h-74v139q-106 -158 -291 -157h-57q-143 0 -245.5 101t-102.5 247v385q0 145 102.5 246.5t245.5 101.5h57q184 0 291 -158v139zM635 55q115 0 194.5 81t79.5 194v385q0 113 -79.5 193.5t-194.5 80.5h-74
q-115 0 -194.5 -80t-79.5 -194v-385q0 -115 79.5 -195t194.5 -80h74z" />
    <glyph glyph-name="aacute" unicode="&#xe1;" 
d="M840 1386l-232 -231l-53 53l231 232zM909 1044h74v-1044h-74v139q-106 -158 -291 -157h-57q-143 0 -245.5 101t-102.5 247v385q0 145 102.5 246.5t245.5 101.5h57q184 0 291 -158v139zM635 55q115 0 194.5 81t79.5 194v385q0 113 -79.5 193.5t-194.5 80.5h-74
q-115 0 -194.5 -80t-79.5 -194v-385q0 -115 79.5 -195t194.5 -80h74z" />
    <glyph glyph-name="acircumflex" unicode="&#xe2;" 
d="M608 1393l-211 -211l-53 51l234 233h63l233 -233l-53 -51zM909 1044h74v-1044h-74v139q-106 -158 -291 -157h-57q-143 0 -245.5 101t-102.5 247v385q0 145 102.5 246.5t245.5 101.5h57q184 0 291 -158v139zM635 55q115 0 194.5 81t79.5 194v385q0 113 -79.5 193.5
t-194.5 80.5h-74q-115 0 -194.5 -80t-79.5 -194v-385q0 -115 79.5 -195t194.5 -80h74z" />
    <glyph glyph-name="atilde" unicode="&#xe3;" 
d="M924 1430h73v-19q0 -94 -66.5 -159.5t-160.5 -65.5q-109 0 -170 86q-72 94 -154 94q-63 0 -108 -44t-45 -108v-16h-74v16q0 94 66.5 160t160.5 66q109 0 170 -84q76 -96 154 -96q63 0 108.5 45t45.5 106v19zM909 905v139h74v-1044h-74v139q-106 -158 -291 -157h-57
q-143 0 -245.5 101t-102.5 247v385q0 145 102.5 246.5t245.5 101.5h57q185 0 291 -158zM635 55q115 0 194.5 81t79.5 194v385q0 113 -79.5 193.5t-194.5 80.5h-74q-115 0 -194.5 -80t-79.5 -194v-385q0 -115 79.5 -195t194.5 -80h74z" />
    <glyph glyph-name="adieresis" unicode="&#xe4;" 
d="M522 1452v-260h-73v260h73zM768 1452v-260h-74v260h74zM909 1044h74v-1044h-74v139q-106 -158 -291 -157h-57q-143 0 -245.5 101t-102.5 247v385q0 145 102.5 246.5t245.5 101.5h57q184 0 291 -158v139zM635 55q115 0 194.5 81t79.5 194v385q0 113 -79.5 193.5
t-194.5 80.5h-74q-115 0 -194.5 -80t-79.5 -194v-385q0 -115 79.5 -195t194.5 -80h74z" />
    <glyph glyph-name="aring" unicode="&#xe5;" 
d="M909 1044h74v-1044h-74v139q-106 -158 -291 -157h-57q-143 0 -245.5 101t-102.5 247v385q0 117 69.5 209t178.5 125q-68 63 -68 155q0 88 63.5 151.5t151.5 63.5t151.5 -63.5t63.5 -151.5q0 -98 -78 -166q102 -41 164 -133v139zM608.5 1346q-59.5 0 -100.5 -41
t-41 -100.5t41 -100.5t100.5 -41t100.5 41t41 100q0 57 -41 99.5t-100.5 42.5zM635 55q115 0 194.5 81t79.5 194v385q0 113 -79.5 193.5t-194.5 80.5h-74q-115 0 -194.5 -80t-79.5 -194v-385q0 -115 79.5 -195t194.5 -80h74z" />
    <glyph glyph-name="ae" unicode="&#xe6;" 
d="M1108 485h-459v-237q0 -80 56.5 -136.5t136.5 -56.5q63 0 114.5 38t69.5 95l70 -20q-25 -82 -95.5 -134t-158.5 -52q-125 0 -193 104v-86h-74v86q-68 -104 -192 -104q-111 0 -188.5 78.5t-77.5 187.5v549q0 111 77.5 188.5t188.5 77.5q125 0 192 -105v86h74v-86
q68 104 193 105q111 0 188.5 -78t77.5 -188v-312zM383 55q80 0 136 56.5t56 136.5v549q0 80 -56 136t-136 56t-136.5 -56t-56.5 -136v-549q0 -80 56.5 -136.5t136.5 -56.5zM842 989q-80 0 -136.5 -56t-56.5 -136v-238h385v238q0 80 -56 136t-136 56z" />
    <glyph glyph-name="ccedilla" unicode="&#xe7;" 
d="M664 55q96 0 169.5 59.5t96.5 151.5l71 -20q-29 -115 -122 -189.5t-213 -74.5v-91q78 -12 130 -72.5t52 -140.5q0 -88 -63.5 -151.5t-151.5 -63.5h-43v74h43q59 0 100 41t41 100.5t-41 100.5t-100 41h-41v162h-2q-143 0 -245.5 101t-102.5 247v385q0 145 102 246.5
t246 101.5h74q121 0 215 -75t122 -189l-71 -21q-23 92 -96.5 151.5t-169.5 59.5h-74q-115 0 -195 -81t-80 -193v-385q0 -113 80 -194t195 -81h74z" />
    <glyph glyph-name="egrave" unicode="&#xe8;" 
d="M614 1155l-231 231l53 54l232 -232zM578 1063h73q143 0 245.5 -101.5t102.5 -246.5v-197h-696v-188q0 -115 80 -195t195 -80h73q96 0 170 59.5t97 151.5l71 -20q-29 -115 -123 -189.5t-215 -74.5h-73q-143 0 -246 102t-103 246v385q0 145 103 246.5t246 101.5zM303 592
h623v123q0 113 -80 193.5t-195 80.5h-73q-115 0 -195 -80t-80 -194v-123z" />
    <glyph glyph-name="eacute" unicode="&#xe9;" 
d="M614 1155l-53 53l232 232l53 -54zM578 1063h73q143 0 245.5 -101.5t102.5 -246.5v-197h-696v-188q0 -115 80 -195t195 -80h73q96 0 170 59.5t97 151.5l71 -20q-29 -115 -123 -189.5t-215 -74.5h-73q-143 0 -246 102t-103 246v385q0 145 103 246.5t246 101.5zM303 592h623
v123q0 113 -80 193.5t-195 80.5h-73q-115 0 -195 -80t-80 -194v-123z" />
    <glyph glyph-name="ecircumflex" unicode="&#xea;" 
d="M350 1233l234 233h63l234 -233l-54 -51l-213 211l-211 -211zM578 1063h73q143 0 245.5 -101.5t102.5 -246.5v-197h-696v-188q0 -115 80 -195t195 -80h73q96 0 170 59.5t97 151.5l71 -20q-29 -115 -123 -189.5t-215 -74.5h-73q-143 0 -246 102t-103 246v385
q0 145 103 246.5t246 101.5zM303 592h623v123q0 113 -80 193.5t-195 80.5h-73q-115 0 -195 -80t-80 -194v-123z" />
    <glyph glyph-name="edieresis" unicode="&#xeb;" 
d="M455 1192v260h73v-260h-73zM700 1192v260h74v-260h-74zM578 1063h73q143 0 245.5 -101.5t102.5 -246.5v-197h-696v-188q0 -115 80 -195t195 -80h73q96 0 170 59.5t97 151.5l71 -20q-29 -115 -123 -189.5t-215 -74.5h-73q-143 0 -246 102t-103 246v385q0 145 103 246.5
t246 101.5zM303 592h623v123q0 113 -80 193.5t-195 80.5h-73q-115 0 -195 -80t-80 -194v-123z" />
    <glyph glyph-name="igrave" unicode="&#xec;" 
d="M651 1155l-231 231l53 54l232 -232zM303 1044h385v-970h354v-74h-806v74h378v897h-311v73z" />
    <glyph glyph-name="iacute" unicode="&#xed;" 
d="M651 1155l-53 53l231 232l54 -54zM303 1044h385v-970h354v-74h-806v74h378v897h-311v73z" />
    <glyph glyph-name="icircumflex" unicode="&#xee;" 
d="M387 1233l234 233h63l234 -233l-54 -51l-213 211l-211 -211zM303 1044h385v-970h354v-74h-806v74h378v897h-311v73z" />
    <glyph glyph-name="idieresis" unicode="&#xef;" 
d="M492 1192v260h73v-260h-73zM737 1192v260h74v-260h-74zM303 1044h385v-970h354v-74h-806v74h378v897h-311v73z" />
    <glyph glyph-name="eth" unicode="&#xf0;" 
d="M1161 1253v-73h-192q2 -10 2 -29v-821q0 -143 -101.5 -245.5t-246.5 -102.5h-74q-143 0 -245.5 102t-102.5 246v385q0 143 102.5 245.5t245.5 102.5h57q90 0 167 -43t124 -115v246q0 18 -2 29h-295v73h279q-31 78 -100.5 126t-155.5 48v74q117 0 209 -69.5t124 -178.5
h205zM623 55q115 0 194.5 81t79.5 194v385q0 113 -80 193.5t-194 80.5h-74q-115 0 -195 -81t-80 -193v-385q0 -113 80 -194t195 -81h74z" />
    <glyph glyph-name="ntilde" unicode="&#xf1;" 
d="M938 1430h74v-19q0 -94 -66.5 -159.5t-161.5 -65.5q-109 0 -170 86q-72 94 -153 94q-63 0 -108.5 -44t-45.5 -108v-16h-74v16q0 94 67 160t161 66q109 0 170 -84q76 -96 153 -96q63 0 108.5 45t45.5 106v19zM651 1063q143 0 245.5 -101.5t102.5 -246.5v-715h-73v715
q0 115 -80 194.5t-195 79.5h-73q-115 0 -195 -81t-80 -193v-715h-74v1044h74v-139q106 158 291 158h57z" />
    <glyph glyph-name="ograve" unicode="&#xf2;" 
d="M608 1155l-231 231l53 54l232 -232zM571 1063h74q145 0 246.5 -101.5t101.5 -246.5v-385q0 -143 -102.5 -245.5t-245.5 -102.5h-74q-143 0 -245.5 102t-102.5 246v385q0 145 101.5 246.5t246.5 101.5zM571 989q-113 0 -193.5 -81t-80.5 -193v-385q0 -113 81 -194t193 -81
h74q115 0 195 80t80 195v385q0 115 -80 194.5t-195 79.5h-74z" />
    <glyph glyph-name="oacute" unicode="&#xf3;" 
d="M608 1155l-53 53l231 232l54 -54zM571 1063h74q145 0 246.5 -101.5t101.5 -246.5v-385q0 -143 -102.5 -245.5t-245.5 -102.5h-74q-143 0 -245.5 102t-102.5 246v385q0 145 101.5 246.5t246.5 101.5zM571 989q-113 0 -193.5 -81t-80.5 -193v-385q0 -113 81 -194t193 -81
h74q115 0 195 80t80 195v385q0 115 -80 194.5t-195 79.5h-74z" />
    <glyph glyph-name="ocircumflex" unicode="&#xf4;" 
d="M344 1233l234 233h63l233 -233l-53 -51l-213 211l-211 -211zM571 1063h74q145 0 246.5 -101.5t101.5 -246.5v-385q0 -143 -102.5 -245.5t-245.5 -102.5h-74q-143 0 -245.5 102t-102.5 246v385q0 145 101.5 246.5t246.5 101.5zM571 989q-113 0 -193.5 -81t-80.5 -193v-385
q0 -113 81 -194t193 -81h74q115 0 195 80t80 195v385q0 115 -80 194.5t-195 79.5h-74z" />
    <glyph glyph-name="otilde" unicode="&#xf5;" 
d="M219 1198v16q0 94 66.5 160t160.5 66q109 0 170 -84q76 -96 154 -96q63 0 108.5 45t45.5 106v19h73v-19q0 -94 -66.5 -159.5t-160.5 -65.5q-109 0 -170 86q-72 94 -154 94q-63 0 -108 -44t-45 -108v-16h-74zM571 1063h74q145 0 246.5 -101.5t101.5 -246.5v-385
q0 -143 -102.5 -245.5t-245.5 -102.5h-74q-143 0 -245.5 102t-102.5 246v385q0 145 101.5 246.5t246.5 101.5zM571 989q-113 0 -193.5 -81t-80.5 -193v-385q0 -113 81 -194t193 -81h74q115 0 195 80t80 195v385q0 115 -80 194.5t-195 79.5h-74z" />
    <glyph glyph-name="odieresis" unicode="&#xf6;" 
d="M449 1192v260h73v-260h-73zM694 1192v260h74v-260h-74zM571 1063h74q145 0 246.5 -101.5t101.5 -246.5v-385q0 -143 -102.5 -245.5t-245.5 -102.5h-74q-143 0 -245.5 102t-102.5 246v385q0 145 101.5 246.5t246.5 101.5zM571 989q-113 0 -193.5 -81t-80.5 -193v-385
q0 -113 81 -194t193 -81h74q115 0 195 80t80 195v385q0 115 -80 194.5t-195 79.5h-74z" />
    <glyph glyph-name="divide" unicode="&#xf7;" 
d="M571 844v268h74v-268h-74zM207 555v74h803v-74h-803zM571 78v268h74v-268h-74z" />
    <glyph glyph-name="oslash" unicode="&#xf8;" 
d="M907 942q86 -96 86 -227v-385q0 -143 -102.5 -245.5t-245.5 -102.5h-74q-117 0 -209 69l-71 -117l-64 39l80 131q-84 94 -84 226v385q0 145 101.5 246.5t246.5 101.5h74q117 0 207 -68l74 119l63 -39zM297 330q0 -90 51 -160l465 762q-70 57 -168 57h-74
q-113 0 -193.5 -81t-80.5 -193v-385zM920 330v385q0 92 -52 162l-467 -762q76 -59 170 -60h74q115 0 195 80t80 195z" />
    <glyph glyph-name="ugrave" unicode="&#xf9;" 
d="M608 1155l-231 231l53 54l232 -232zM223 1044h74v-714q0 -113 81 -194t193 -81h74q115 0 195 80t80 195v714h73v-714q0 -145 -101 -246.5t-247 -101.5h-74q-145 0 -246.5 101t-101.5 247v714z" />
    <glyph glyph-name="uacute" unicode="&#xfa;" 
d="M608 1155l-53 53l231 232l54 -54zM223 1044h74v-714q0 -113 81 -194t193 -81h74q115 0 195 80t80 195v714h73v-714q0 -145 -101 -246.5t-247 -101.5h-74q-145 0 -246.5 101t-101.5 247v714z" />
    <glyph glyph-name="ucircumflex" unicode="&#xfb;" 
d="M344 1233l234 233h63l233 -233l-53 -51l-213 211l-211 -211zM223 1044h74v-714q0 -113 81 -194t193 -81h74q115 0 195 80t80 195v714h73v-714q0 -145 -101 -246.5t-247 -101.5h-74q-145 0 -246.5 101t-101.5 247v714z" />
    <glyph glyph-name="udieresis" unicode="&#xfc;" 
d="M449 1192v260h73v-260h-73zM694 1192v260h74v-260h-74zM223 1044h74v-714q0 -113 81 -194t193 -81h74q115 0 195 80t80 195v714h73v-714q0 -145 -101 -246.5t-247 -101.5h-74q-145 0 -246.5 101t-101.5 247v714z" />
    <glyph glyph-name="yacute" unicode="&#xfd;" 
d="M608 1155l-53 53l231 232l54 -54zM225 1044h74v-133q0 -119 61 -231l252 -471l254 471q59 109 60 231v133h73v-133q0 -141 -67 -268l-488 -899q-10 -16 -27.5 -36.5t-56 -42t-84.5 -21.5h-157v73h157q16 0 31 4.5t25 10.5t19 14t14.5 14.5t9.5 12.5l4 6l192 354l-276 510
q-70 131 -70 268v133z" />
    <glyph glyph-name="thorn" unicode="&#xfe;" 
d="M657 1063q145 0 247 -101.5t102 -246.5v-385q0 -145 -101.5 -246.5t-247.5 -101.5h-57q-184 0 -291 157v-495h-73v1757h73v-496q106 158 291 158h57zM932 330v385q0 115 -80 194.5t-195 79.5h-73q-113 0 -194 -81t-81 -193v-385q0 -113 81 -194t194 -81h73q115 0 195 80
t80 195z" />
    <glyph glyph-name="ydieresis" unicode="&#xff;" 
d="M449 1192v260h73v-260h-73zM694 1192v260h74v-260h-74zM225 1044h74v-133q0 -119 61 -231l252 -471l254 471q59 109 60 231v133h73v-133q0 -141 -67 -268l-488 -899q-10 -16 -27.5 -36.5t-56 -42t-84.5 -21.5h-157v73h157q16 0 31 4.5t25 10.5t19 14t14.5 14.5t9.5 12.5
l4 6l192 354l-276 510q-70 131 -70 268v133z" />
    <glyph glyph-name="Amacron" unicode="&#x100;" 
d="M891 1661v-74h-565v74h565zM985 559q37 -137 37 -289v-270h-74v270q0 29 -6 101h-668q-6 -72 -6 -101v-270h-73v270q0 137 36 289l197 723q16 61 66.5 99t113.5 38q66 0 115 -38t65 -99zM285 444h647q-6 49 -19 95l-196 723q-10 37 -39 60.5t-70 23.5t-69.5 -24
t-38.5 -60l-197 -723q-12 -44 -18 -95z" />
    <glyph glyph-name="amacron" unicode="&#x101;" 
d="M891 1305v-74h-565v74h565zM909 1044h74v-1044h-74v139q-106 -158 -291 -157h-57q-143 0 -245.5 101t-102.5 247v385q0 145 102.5 246.5t245.5 101.5h57q184 0 291 -158v139zM635 55q115 0 194.5 81t79.5 194v385q0 113 -79.5 193.5t-194.5 80.5h-74q-115 0 -194.5 -80
t-79.5 -194v-385q0 -115 79.5 -195t194.5 -80h74z" />
    <glyph glyph-name="Abreve" unicode="&#x102;" 
d="M608 1542q-88 0 -151.5 62.5t-63.5 152.5h74q0 -59 41 -100t100.5 -41t100.5 41t41 100h73q0 -88 -63.5 -151.5t-151.5 -63.5zM985 559q37 -137 37 -289v-270h-74v270q0 29 -6 101h-668q-6 -72 -6 -101v-270h-73v270q0 137 36 289l197 723q16 61 66.5 99t113.5 38
q66 0 115 -38t65 -99zM285 444h647q-6 49 -19 95l-196 723q-10 37 -39 60.5t-70 23.5t-69.5 -24t-38.5 -60l-197 -723q-12 -44 -18 -95z" />
    <glyph glyph-name="abreve" unicode="&#x103;" 
d="M608 1186q-88 0 -151.5 62.5t-63.5 152.5h74q0 -59 41 -100t100.5 -41t100.5 40.5t41 100.5h73q0 -88 -63.5 -151.5t-151.5 -63.5zM909 1044h74v-1044h-74v139q-106 -158 -291 -157h-57q-143 0 -245.5 101t-102.5 247v385q0 145 102.5 246.5t245.5 101.5h57
q184 0 291 -158v139zM635 55q115 0 194.5 81t79.5 194v385q0 113 -79.5 193.5t-194.5 80.5h-74q-115 0 -194.5 -80t-79.5 -194v-385q0 -115 79.5 -195t194.5 -80h74z" />
    <glyph glyph-name="Aogonek" unicode="&#x104;" 
d="M1163 -283h17v-73h-17q-90 0 -152.5 63.5t-62.5 151.5v411q0 29 -6 101h-668q-6 -72 -6 -101v-270h-73v270q0 137 36 289l197 723q16 61 66.5 99t113.5 38q66 0 115 -38t65 -99l197 -723q37 -137 37 -289v-411q0 -59 42 -100.5t99 -41.5zM285 444h647q-6 49 -19 95
l-196 723q-10 37 -39 60.5t-70 23.5t-69.5 -24t-38.5 -60l-197 -723q-12 -44 -18 -95z" />
    <glyph glyph-name="aogonek" unicode="&#x105;" 
d="M1124 -283h17v-73h-17q-88 0 -151.5 63.5t-63.5 151.5v280q-106 -158 -291 -157h-57q-143 0 -245.5 101t-102.5 247v385q0 145 102.5 246.5t245.5 101.5h57q184 0 291 -158v139h74v-1185q0 -59 41 -100.5t100 -41.5zM635 55q115 0 194.5 81t79.5 194v385
q0 113 -79.5 193.5t-194.5 80.5h-74q-115 0 -194.5 -80t-79.5 -194v-385q0 -115 79.5 -195t194.5 -80h74z" />
    <glyph glyph-name="Cacute" unicode="&#x106;" 
d="M629 1511l-54 54l232 231l53 -53zM1014 1157l-72 -20q-23 92 -96.5 150.5t-169.5 58.5h-98q-113 0 -194 -81t-81 -194v-741q0 -113 80 -194t195 -81h98q96 0 170 58.5t96 150.5l72 -20q-29 -115 -123 -188.5t-215 -73.5h-98q-145 0 -247 101t-102 247v741
q0 143 101.5 245.5t247.5 102.5h98q121 0 215 -74.5t123 -187.5z" />
    <glyph glyph-name="cacute" unicode="&#x107;" 
d="M629 1155l-54 53l232 232l53 -54zM242 330v385q0 145 102 246.5t246 101.5h74q121 0 215 -75t122 -189l-71 -21q-23 92 -96.5 151.5t-169.5 59.5h-74q-115 0 -195 -81t-80 -193v-385q0 -113 80 -194t195 -81h74q96 0 169.5 59.5t96.5 151.5l71 -20q-29 -115 -123 -189.5
t-214 -74.5h-74q-143 0 -245.5 101.5t-102.5 246.5z" />
    <glyph glyph-name="Ccircumflex" unicode="&#x108;" 
d="M365 1589l233 234h64l233 -234l-53 -51l-213 211l-211 -211zM1014 1157l-72 -20q-23 92 -96.5 150.5t-169.5 58.5h-98q-113 0 -194 -81t-81 -194v-741q0 -113 80 -194t195 -81h98q96 0 170 58.5t96 150.5l72 -20q-29 -115 -123 -188.5t-215 -73.5h-98q-145 0 -247 101
t-102 247v741q0 143 101.5 245.5t247.5 102.5h98q121 0 215 -74.5t123 -187.5z" />
    <glyph glyph-name="ccircumflex" unicode="&#x109;" 
d="M365 1233l233 233h64l233 -233l-53 -51l-213 211l-211 -211zM242 330v385q0 145 102 246.5t246 101.5h74q121 0 215 -75t122 -189l-71 -21q-23 92 -96.5 151.5t-169.5 59.5h-74q-115 0 -195 -81t-80 -193v-385q0 -113 80 -194t195 -81h74q96 0 169.5 59.5t96.5 151.5
l71 -20q-29 -115 -123 -189.5t-214 -74.5h-74q-143 0 -245.5 101.5t-102.5 246.5z" />
    <glyph glyph-name="Cdotaccent" unicode="&#x10a;" 
d="M592 1548v260h74v-260h-74zM1014 1157l-72 -20q-23 92 -96.5 150.5t-169.5 58.5h-98q-113 0 -194 -81t-81 -194v-741q0 -113 80 -194t195 -81h98q96 0 170 58.5t96 150.5l72 -20q-29 -115 -123 -188.5t-215 -73.5h-98q-145 0 -247 101t-102 247v741q0 143 101.5 245.5
t247.5 102.5h98q121 0 215 -74.5t123 -187.5z" />
    <glyph glyph-name="cdotaccent" unicode="&#x10b;" 
d="M592 1192v260h74v-260h-74zM242 330v385q0 145 102 246.5t246 101.5h74q121 0 215 -75t122 -189l-71 -21q-23 92 -96.5 151.5t-169.5 59.5h-74q-115 0 -195 -81t-80 -193v-385q0 -113 80 -194t195 -81h74q96 0 169.5 59.5t96.5 151.5l71 -20q-29 -115 -123 -189.5
t-214 -74.5h-74q-143 0 -245.5 101.5t-102.5 246.5z" />
    <glyph glyph-name="Ccaron" unicode="&#x10c;" 
d="M365 1794l53 51l211 -211l213 211l53 -51l-233 -233h-64zM1014 1157l-72 -20q-23 92 -96.5 150.5t-169.5 58.5h-98q-113 0 -194 -81t-81 -194v-741q0 -113 80 -194t195 -81h98q96 0 170 58.5t96 150.5l72 -20q-29 -115 -123 -188.5t-215 -73.5h-98q-145 0 -247 101
t-102 247v741q0 143 101.5 245.5t247.5 102.5h98q121 0 215 -74.5t123 -187.5z" />
    <glyph glyph-name="ccaron" unicode="&#x10d;" 
d="M365 1438l53 51l211 -211l213 211l53 -51l-233 -234h-64zM242 330v385q0 145 102 246.5t246 101.5h74q121 0 215 -75t122 -189l-71 -21q-23 92 -96.5 151.5t-169.5 59.5h-74q-115 0 -195 -81t-80 -193v-385q0 -113 80 -194t195 -81h74q96 0 169.5 59.5t96.5 151.5l71 -20
q-29 -115 -123 -189.5t-214 -74.5h-74q-143 0 -245.5 101.5t-102.5 246.5z" />
    <glyph glyph-name="Dcaron" unicode="&#x10e;" 
d="M328 1794l53 51l211 -211l213 211l53 -51l-233 -233h-64zM231 0v1401h428q145 0 248 -101.5t103 -246.5v-705q0 -145 -102.5 -246.5t-248.5 -101.5h-428zM305 74h354q115 0 196 79.5t81 194.5v705q0 115 -81 194.5t-196 79.5h-354v-1253z" />
    <glyph glyph-name="dcaron" unicode="&#x10f;" 
d="M1028 1638h262v-79q0 -111 -65.5 -200t-167.5 -122l-21 70q80 29 130.5 98.5t50.5 159.5h-189v73zM891 905v496h74v-1401h-74v139q-106 -158 -291 -157h-57q-145 0 -246.5 101t-101.5 247v385q0 145 101 246.5t247 101.5h57q185 0 291 -158zM616 55q113 0 194 81t81 194
v385q0 113 -81 193.5t-194 80.5h-73q-115 0 -195 -80t-80 -194v-385q0 -115 80 -195t195 -80h73z" />
    <glyph glyph-name="Dcroat" unicode="&#x110;" 
d="M684 1401q145 0 247.5 -101.5t102.5 -246.5v-705q0 -145 -102.5 -246.5t-247.5 -101.5h-428v664h-158v73h158v664h428zM961 348v705q0 115 -81 194.5t-196 79.5h-354v-590h309v-73h-309v-590h354q115 0 196 79.5t81 194.5z" />
    <glyph glyph-name="dcroat" unicode="&#x111;" 
d="M1122 1282v-74h-141v-1208h-74v139q-106 -158 -291 -157h-57q-145 0 -246.5 101t-101.5 247v385q0 145 101.5 246.5t246.5 101.5h57q184 0 291 -158v303h-321v74h321v172h74v-172h141zM633 55q113 0 193.5 81t80.5 194v385q0 113 -81 193.5t-193 80.5h-74
q-115 0 -194.5 -80t-79.5 -194v-385q0 -115 79.5 -195t194.5 -80h74z" />
    <glyph glyph-name="Emacron" unicode="&#x112;" 
d="M354 1587v74h566v-74h-566zM250 0v1401h778v-74h-704v-590h639v-73h-639v-590h704v-74h-778z" />
    <glyph glyph-name="emacron" unicode="&#x113;" 
d="M332 1231v74h565v-74h-565zM578 1063h73q143 0 245.5 -101.5t102.5 -246.5v-197h-696v-188q0 -115 80 -195t195 -80h73q96 0 170 59.5t97 151.5l71 -20q-29 -115 -123 -189.5t-215 -74.5h-73q-143 0 -246 102t-103 246v385q0 145 103 246.5t246 101.5zM303 592h623v123
q0 113 -80 193.5t-195 80.5h-73q-115 0 -195 -80t-80 -194v-123z" />
    <glyph glyph-name="Ebreve" unicode="&#x114;" 
d="M422 1757h74q0 -59 41 -100t100 -41t100 41t41 100h74q0 -88 -63.5 -151.5t-151.5 -63.5t-151.5 62.5t-63.5 152.5zM250 0v1401h778v-74h-704v-590h639v-73h-639v-590h704v-74h-778z" />
    <glyph glyph-name="ebreve" unicode="&#x115;" 
d="M399 1401h74q0 -59 41 -100t100.5 -41t100.5 40.5t41 100.5h73q0 -88 -63.5 -151.5t-151.5 -63.5q-90 0 -152.5 62.5t-62.5 152.5zM578 1063h73q143 0 245.5 -101.5t102.5 -246.5v-197h-696v-188q0 -115 80 -195t195 -80h73q96 0 170 59.5t97 151.5l71 -20
q-29 -115 -123 -189.5t-215 -74.5h-73q-143 0 -246 102t-103 246v385q0 145 103 246.5t246 101.5zM303 592h623v123q0 113 -80 193.5t-195 80.5h-73q-115 0 -195 -80t-80 -194v-123z" />
    <glyph glyph-name="Edotaccent" unicode="&#x116;" 
d="M600 1548v260h74v-260h-74zM250 0v1401h778v-74h-704v-590h639v-73h-639v-590h704v-74h-778z" />
    <glyph glyph-name="edotaccent" unicode="&#x117;" 
d="M578 1192v260h73v-260h-73zM578 1063h73q143 0 245.5 -101.5t102.5 -246.5v-197h-696v-188q0 -115 80 -195t195 -80h73q96 0 170 59.5t97 151.5l71 -20q-29 -115 -123 -189.5t-215 -74.5h-73q-143 0 -246 102t-103 246v385q0 145 103 246.5t246 101.5zM303 592h623v123
q0 113 -80 193.5t-195 80.5h-73q-115 0 -195 -80t-80 -194v-123z" />
    <glyph glyph-name="Eogonek" unicode="&#x118;" 
d="M1169 -283h17v-73h-17q-88 0 -151.5 63.5t-63.5 151.5v141h-704v1401h778v-74h-704v-590h639v-73h-639v-590h704v-215q0 -59 41 -100.5t100 -41.5z" />
    <glyph glyph-name="eogonek" unicode="&#x119;" 
d="M999 518h-696v-188q0 -115 80 -195t195 -80h73q96 0 170 59.5t97 151.5l71 -20q-29 -115 -123 -189.5t-215 -74.5v-132q0 -59 41 -100t101 -41h16v-74h-16q-88 0 -151.5 63.5t-63.5 151.5v132q-143 0 -246 102t-103 246v385q0 145 102.5 246.5t246.5 101.5h73
q143 0 245.5 -101.5t102.5 -246.5v-197zM303 715v-123h623v123q0 113 -80 193.5t-195 80.5h-73q-115 0 -195 -79.5t-80 -194.5z" />
    <glyph glyph-name="Ecaron" unicode="&#x11a;" 
d="M373 1794l53 51l211 -211l213 211l53 -51l-233 -233h-64zM250 0v1401h778v-74h-704v-590h639v-73h-639v-590h704v-74h-778z" />
    <glyph glyph-name="ecaron" unicode="&#x11b;" 
d="M350 1438l53 51l211 -211l213 211l54 -51l-234 -234h-63zM578 1063h73q143 0 245.5 -101.5t102.5 -246.5v-197h-696v-188q0 -115 80 -195t195 -80h73q96 0 170 59.5t97 151.5l71 -20q-29 -115 -123 -189.5t-215 -74.5h-73q-143 0 -246 102t-103 246v385q0 145 103 246.5
t246 101.5zM303 592h623v123q0 113 -80 193.5t-195 80.5h-73q-115 0 -195 -80t-80 -194v-123z" />
    <glyph glyph-name="Gcircumflex" unicode="&#x11c;" 
d="M350 1589l234 234h63l234 -234l-54 -51l-213 211l-211 -211zM1001 1157l-71 -20q-23 92 -96.5 150.5t-169.5 58.5h-99q-115 0 -194.5 -81t-79.5 -194v-741q0 -113 80 -194t194 -81h99q115 0 194.5 81t79.5 194v334h-309v73h383v-407q0 -145 -102.5 -246.5t-245.5 -101.5
h-99q-143 0 -245.5 101t-102.5 247v741q0 143 102.5 245.5t245.5 102.5h99q121 0 214.5 -74.5t122.5 -187.5z" />
    <glyph glyph-name="gcircumflex" unicode="&#x11d;" 
d="M590 1393l-211 -211l-53 51l233 233h64l233 -233l-53 -51zM907 1044h74v-1071q0 -143 -101.5 -245.5t-246.5 -102.5h-74q-121 0 -215 75t-123 189l72 21q23 -92 96.5 -151.5t169.5 -59.5h74q115 0 194.5 81t79.5 193v252q-47 -72 -123.5 -114.5t-167.5 -42.5h-57
q-143 0 -245.5 102t-102.5 246v299q0 145 101.5 246.5t246.5 101.5h57q90 0 167 -42t124 -114v137zM633 141q115 0 194.5 81t79.5 194v299q0 115 -79.5 194.5t-194.5 79.5h-74q-113 0 -193.5 -81t-80.5 -193v-299q0 -113 80.5 -194t193.5 -81h74z" />
    <glyph glyph-name="Gbreve" unicode="&#x11e;" 
d="M399 1757h74q0 -59 41 -100t100.5 -41t100.5 41t41 100h73q0 -88 -63.5 -151.5t-151.5 -63.5q-90 0 -152.5 62.5t-62.5 152.5zM1001 1157l-71 -20q-23 92 -96.5 150.5t-169.5 58.5h-99q-115 0 -194.5 -81t-79.5 -194v-741q0 -113 80 -194t194 -81h99q115 0 194.5 81
t79.5 194v334h-309v73h383v-407q0 -145 -102.5 -246.5t-245.5 -101.5h-99q-143 0 -245.5 101t-102.5 247v741q0 143 102.5 245.5t245.5 102.5h99q121 0 214.5 -74.5t122.5 -187.5z" />
    <glyph glyph-name="gbreve" unicode="&#x11f;" 
d="M590 1186q-90 0 -152.5 62.5t-62.5 152.5h74q0 -59 40.5 -100t100 -41t100.5 40.5t41 100.5h74q0 -88 -63.5 -151.5t-151.5 -63.5zM907 1044h74v-1071q0 -143 -101.5 -245.5t-246.5 -102.5h-74q-121 0 -215 75t-123 189l72 21q23 -92 96.5 -151.5t169.5 -59.5h74
q115 0 194.5 81t79.5 193v252q-47 -72 -123.5 -114.5t-167.5 -42.5h-57q-143 0 -245.5 102t-102.5 246v299q0 145 101.5 246.5t246.5 101.5h57q90 0 167 -42t124 -114v137zM633 141q115 0 194.5 81t79.5 194v299q0 115 -79.5 194.5t-194.5 79.5h-74q-113 0 -193.5 -81
t-80.5 -193v-299q0 -113 80.5 -194t193.5 -81h74z" />
    <glyph glyph-name="Gdotaccent" unicode="&#x120;" 
d="M578 1548v260h73v-260h-73zM1001 1157l-71 -20q-23 92 -96.5 150.5t-169.5 58.5h-99q-115 0 -194.5 -81t-79.5 -194v-741q0 -113 80 -194t194 -81h99q115 0 194.5 81t79.5 194v334h-309v73h383v-407q0 -145 -102.5 -246.5t-245.5 -101.5h-99q-143 0 -245.5 101
t-102.5 247v741q0 143 102.5 245.5t245.5 102.5h99q121 0 214.5 -74.5t122.5 -187.5z" />
    <glyph glyph-name="gdotaccent" unicode="&#x121;" 
d="M627 1452v-260h-74v260h74zM907 1044h74v-1071q0 -143 -101.5 -245.5t-246.5 -102.5h-74q-121 0 -215 75t-123 189l72 21q23 -92 96.5 -151.5t169.5 -59.5h74q115 0 194.5 81t79.5 193v252q-47 -72 -123.5 -114.5t-167.5 -42.5h-57q-143 0 -245.5 102t-102.5 246v299
q0 145 101.5 246.5t246.5 101.5h57q90 0 167 -42t124 -114v137zM633 141q115 0 194.5 81t79.5 194v299q0 115 -79.5 194.5t-194.5 79.5h-74q-113 0 -193.5 -81t-80.5 -193v-299q0 -113 80.5 -194t193.5 -81h74z" />
    <glyph glyph-name="Gcommaaccent" unicode="&#x122;" 
d="M1001 1157l-71 -20q-23 92 -96.5 150.5t-169.5 58.5h-99q-115 0 -194.5 -81t-79.5 -194v-741q0 -113 80 -194t194 -81h99q115 0 194.5 81t79.5 194v334h-309v73h383v-407q0 -145 -102.5 -246.5t-245.5 -101.5h-99q-143 0 -245.5 101t-102.5 247v741q0 143 102.5 245.5
t245.5 102.5h99q121 0 214.5 -74.5t122.5 -187.5zM483 -186h262v-80q0 -111 -65.5 -200t-167.5 -122l-20 70q80 29 130 98.5t50 159.5h-189v74z" />
    <glyph glyph-name="gcommaaccent" unicode="&#x123;" 
d="M721 1303v-74h-262v80q0 111 65.5 199.5t167.5 121.5l21 -69q-80 -29 -130.5 -98.5t-50.5 -159.5h189zM907 1044h74v-1071q0 -143 -101.5 -245.5t-246.5 -102.5h-74q-121 0 -215 75t-123 189l72 21q23 -92 96.5 -151.5t169.5 -59.5h74q115 0 194.5 81t79.5 193v252
q-47 -72 -123.5 -114.5t-167.5 -42.5h-57q-143 0 -245.5 102t-102.5 246v299q0 145 101.5 246.5t246.5 101.5h57q90 0 167 -42t124 -114v137zM633 141q115 0 194.5 81t79.5 194v299q0 115 -79.5 194.5t-194.5 79.5h-74q-113 0 -193.5 -81t-80.5 -193v-299q0 -113 80.5 -194
t193.5 -81h74z" />
    <glyph glyph-name="Hcircumflex" unicode="&#x124;" 
d="M344 1589l234 234h63l233 -234l-53 -51l-213 211l-211 -211zM920 1401h73v-1401h-73v664h-623v-664h-74v1401h74v-664h623v664z" />
    <glyph glyph-name="hcircumflex" unicode="&#x125;" 
d="M479 1538l-213 211l-211 -211l-53 51l234 234h63l233 -234zM651 1063q143 0 245.5 -101.5t102.5 -246.5v-715h-73v715q0 115 -80 194.5t-195 79.5h-73q-115 0 -195 -81t-80 -193v-715h-74v1401h74v-496q106 158 291 158h57z" />
    <glyph glyph-name="Hbar" unicode="&#x126;" 
d="M1178 1106v-74h-185v-1032h-73v664h-623v-664h-74v1032h-184v74h184v295h74v-295h623v295h73v-295h185zM920 737v295h-623v-295h623z" />
    <glyph glyph-name="hbar" unicode="&#x127;" 
d="M651 1063q143 0 245.5 -101.5t102.5 -246.5v-715h-73v715q0 115 -80 194.5t-195 79.5h-73q-115 0 -195 -81t-80 -193v-715h-74v1208h-141v74h141v172h74v-172h322v-74h-322v-303q106 158 291 158h57z" />
    <glyph glyph-name="Itilde" unicode="&#x128;" 
d="M219 1554v17q0 94 66.5 159.5t160.5 65.5q109 0 170 -84q76 -96 154 -96q63 0 108.5 45t45.5 106v19h73v-19q0 -94 -66.5 -159.5t-160.5 -65.5q-109 0 -170 86q-72 94 -154 94q-63 0 -108 -44t-45 -107v-17h-74zM223 74h348v1253h-340v74h754v-74h-340v-1253h348v-74
h-770v74z" />
    <glyph glyph-name="itilde" unicode="&#x129;" 
d="M262 1198v16q0 94 66.5 160t160.5 66q109 0 170 -84q76 -96 154 -96q63 0 108.5 45t45.5 106v19h73v-19q0 -94 -66.5 -159.5t-160.5 -65.5q-109 0 -170 86q-72 94 -154 94q-63 0 -108 -44t-45 -108v-16h-74zM303 1044h385v-970h354v-74h-806v74h378v897h-311v73z" />
    <glyph glyph-name="Imacron" unicode="&#x12a;" 
d="M326 1587v74h565v-74h-565zM223 74h348v1253h-340v74h754v-74h-340v-1253h348v-74h-770v74z" />
    <glyph glyph-name="imacron" unicode="&#x12b;" 
d="M369 1231v74h565v-74h-565zM303 1044h385v-970h354v-74h-806v74h378v897h-311v73z" />
    <glyph glyph-name="Ibreve" unicode="&#x12c;" 
d="M393 1757h74q0 -59 41 -100t100.5 -41t100.5 41t41 100h73q0 -88 -63.5 -151.5t-151.5 -63.5t-151.5 62.5t-63.5 152.5zM223 74h348v1253h-340v74h754v-74h-340v-1253h348v-74h-770v74z" />
    <glyph glyph-name="ibreve" unicode="&#x12d;" 
d="M436 1401h74q0 -59 41 -100t100.5 -41t100.5 40.5t41 100.5h73q0 -88 -63.5 -151.5t-151.5 -63.5q-90 0 -152.5 62.5t-62.5 152.5zM303 1044h385v-970h354v-74h-806v74h378v897h-311v73z" />
    <glyph glyph-name="Iogonek" unicode="&#x12e;" 
d="M1135 -283h16v-73h-16q-90 0 -152.5 63.5t-62.5 151.5v141h-697v74h348v1253h-340v74h754v-74h-340v-1253h348v-215q0 -59 42.5 -100.5t99.5 -41.5z" />
    <glyph glyph-name="iogonek" unicode="&#x12f;" 
d="M688 1452v-260h-74v260h74zM1184 -283h16v-73h-16q-90 0 -152.5 63.5t-62.5 151.5v141h-733v74h378v897h-311v73h385v-970h354v-215q0 -59 42.5 -100.5t99.5 -41.5z" />
    <glyph glyph-name="Idotaccent" unicode="&#x130;" 
d="M571 1548v260h74v-260h-74zM223 74h348v1253h-340v74h754v-74h-340v-1253h348v-74h-770v74z" />
    <glyph glyph-name="dotlessi" unicode="&#x131;" 
d="M303 1044h385v-970h354v-74h-806v74h378v897h-311v73z" />
    <glyph glyph-name="Jcircumflex" unicode="&#x134;" 
d="M344 1589l234 234h63l233 -234l-53 -51l-213 211l-211 -211zM252 1401h711v-1071q0 -143 -102.5 -245.5t-246.5 -102.5h-69q-121 0 -216.5 74.5t-123.5 187.5l71 20q23 -92 96.5 -150.5t172.5 -58.5h69q115 0 195 81t80 194v997h-637v74z" />
    <glyph glyph-name="jcircumflex" unicode="&#x135;" 
d="M516 1233l234 233h63l234 -233l-54 -51l-213 211l-211 -211zM260 1044h557v-1073q0 -143 -101.5 -244.5t-244.5 -101.5q-121 0 -214 74t-122 188l72 23q20 -92 94 -151.5t170 -59.5q113 0 192.5 80t79.5 192v1000h-483v73z" />
    <glyph glyph-name="Kcommaaccent" unicode="&#x136;" 
d="M236 1401h73v-658h244l299 330q29 33 55.5 93.5t26.5 105.5v129h74v-129q0 -51 -30 -127t-71 -121l-293 -317l312 -330q41 -43 70.5 -119t29.5 -129v-129h-74v129q0 47 -26.5 107.5t-55.5 91.5l-321 342h-240v-670h-73v1401zM496 -186h262v-80q0 -111 -65.5 -200
t-168.5 -122l-20 70q80 29 130 98.5t50 159.5h-188v74z" />
    <glyph glyph-name="kcommaaccent" unicode="&#x137;" 
d="M254 1401h74v-848h274l207 170q33 29 63.5 85t30.5 103v133h74v-133q0 -47 -27.5 -118.5t-91.5 -124.5l-188 -152l219 -170q37 -27 71.5 -87t34.5 -130v-129h-73v129q0 43 -20.5 83t-38 58.5t-21.5 18.5l-240 190h-274v-479h-74v1401zM496 -186h262v-80
q0 -111 -65.5 -200t-168.5 -122l-20 70q80 29 130 98.5t50 159.5h-188v74z" />
    <glyph glyph-name="kgreenlandic" unicode="&#x138;" 
d="M254 1044h74v-491h274l207 170q33 29 63.5 85t30.5 103v133h74v-133q0 -47 -27.5 -118.5t-91.5 -124.5l-188 -152l219 -170q37 -27 71.5 -87t34.5 -130v-129h-73v129q0 43 -20.5 83t-38 58.5t-21.5 18.5l-240 190h-274v-479h-74v1044z" />
    <glyph glyph-name="Lacute" unicode="&#x139;" 
d="M309 1511l-53 54l231 231l54 -53zM272 1401h74v-1327h678v-74h-752v1401z" />
    <glyph glyph-name="lacute" unicode="&#x13a;" 
d="M496 1511l-54 54l232 231l53 -53zM1145 244q-29 -115 -123 -188.5t-215 -73.5q-143 0 -244.5 101t-101.5 245v999h-307v74h381v-1073q0 -113 79.5 -193t192.5 -80q96 0 170 59.5t96 151.5z" />
    <glyph glyph-name="Lcommaaccent" unicode="&#x13b;" 
d="M272 1401h74v-1327h678v-74h-752v1401zM518 -186h262v-80q0 -111 -65.5 -200t-167.5 -122l-21 70q80 29 130.5 98.5t50.5 159.5h-189v74z" />
    <glyph glyph-name="lcommaaccent" unicode="&#x13c;" 
d="M1145 244q-29 -115 -123 -188.5t-215 -73.5q-143 0 -244.5 101t-101.5 245v999h-307v74h381v-1073q0 -113 79.5 -193t192.5 -80q96 0 170 59.5t96 151.5zM676 -186h262v-80q0 -111 -65.5 -200t-167.5 -122l-21 70q80 29 130 98.5t50 159.5h-188v74z" />
    <glyph glyph-name="Lcaron" unicode="&#x13d;" 
d="M272 1401h74v-1327h678v-74h-752v1401zM461 1401h262v-80q0 -111 -65.5 -200t-168.5 -122l-20 70q80 29 130 98.5t50 159.5h-188v74z" />
    <glyph glyph-name="lcaron" unicode="&#x13e;" 
d="M1145 244q-29 -115 -123 -188.5t-215 -73.5q-143 0 -244.5 101t-101.5 245v999h-307v74h381v-1073q0 -113 79.5 -193t192.5 -80q96 0 170 59.5t96 151.5zM649 1401h262v-80q0 -111 -65.5 -200t-167.5 -122l-21 70q80 29 130.5 98.5t50.5 159.5h-189v74z" />
    <glyph glyph-name="Ldot" unicode="&#x13f;" 
d="M272 1401h74v-1327h678v-74h-752v1401zM571 567v269h74v-269h-74z" />
    <glyph glyph-name="ldot" unicode="&#x140;" 
d="M1145 244q-29 -115 -123 -188.5t-215 -73.5q-143 0 -244.5 101t-101.5 245v999h-307v74h381v-1073q0 -113 79.5 -193t192.5 -80q96 0 170 59.5t96 151.5zM639 627v268h74v-268h-74z" />
    <glyph glyph-name="Lslash" unicode="&#x141;" 
d="M399 74h678v-74h-751v545l-133 -133l-52 51l185 184v754h73v-680l297 299l52 -53l-349 -349v-544z" />
    <glyph glyph-name="lslash" unicode="&#x142;" 
d="M1073 266l72 -22q-29 -115 -123 -188.5t-215 -73.5q-143 0 -244.5 101t-101.5 245v315l-111 -111l-53 54l164 164v577h-307v74h381v-580l147 148l51 -54l-198 -198v-389q0 -113 79.5 -193t192.5 -80q96 0 169.5 59.5t96.5 151.5z" />
    <glyph glyph-name="Nacute" unicode="&#x143;" 
d="M608 1511l-53 54l231 231l54 -53zM205 1401h92l641 -1270v1270h74v-1401h-92l-641 1270v-1270h-74v1401z" />
    <glyph glyph-name="nacute" unicode="&#x144;" 
d="M854 1386l-231 -231l-54 53l232 232zM651 1063q143 0 245.5 -101.5t102.5 -246.5v-715h-73v715q0 115 -80 194.5t-195 79.5h-73q-115 0 -195 -81t-80 -193v-715h-74v1044h74v-139q106 158 291 158h57z" />
    <glyph glyph-name="Ncommaaccent" unicode="&#x145;" 
d="M205 1401h92l641 -1270v1270h74v-1401h-92l-641 1270v-1270h-74v1401zM477 -186h262v-80q0 -111 -65.5 -200t-167.5 -122l-21 70q80 29 130.5 98.5t50.5 159.5h-189v74z" />
    <glyph glyph-name="ncommaaccent" unicode="&#x146;" 
d="M651 1063q143 0 245.5 -101.5t102.5 -246.5v-715h-73v715q0 115 -80 194.5t-195 79.5h-73q-115 0 -195 -81t-80 -193v-715h-74v1044h74v-139q106 158 291 158h57zM492 -260v74h262v-80q0 -111 -65.5 -200t-168.5 -122l-20 70q80 29 130 98.5t50 159.5h-188z" />
    <glyph glyph-name="Ncaron" unicode="&#x147;" 
d="M344 1794l53 51l211 -211l213 211l53 -51l-233 -233h-63zM205 1401h92l641 -1270v1270h74v-1401h-92l-641 1270v-1270h-74v1401z" />
    <glyph glyph-name="ncaron" unicode="&#x148;" 
d="M655 1204h-63l-234 234l54 51l211 -211l213 211l53 -51zM651 1063q143 0 245.5 -101.5t102.5 -246.5v-715h-73v715q0 115 -80 194.5t-195 79.5h-73q-115 0 -195 -81t-80 -193v-715h-74v1044h74v-139q106 158 291 158h57z" />
    <glyph glyph-name="napostrophe" unicode="&#x149;" 
d="M324 1493v-80q0 -111 -65.5 -200t-168.5 -121l-20 69q80 29 130 98.5t50 159.5h-189v74h263zM651 1063q143 0 245.5 -101.5t102.5 -246.5v-715h-73v715q0 115 -80 194.5t-195 79.5h-73q-115 0 -195 -81t-80 -193v-715h-74v1044h74v-139q106 158 291 158h57z" />
    <glyph glyph-name="Eng" unicode="&#x14a;" 
d="M938 1401h74v-1542q0 -88 -63.5 -151.5t-151.5 -63.5h-17v73h17q59 0 100 41t41 101v141h-18l-641 1270v-1270h-74v1401h92l641 -1270v1270z" />
    <glyph glyph-name="eng" unicode="&#x14b;" 
d="M651 1063q143 0 245.5 -101.5t102.5 -246.5v-856q0 -88 -63.5 -151.5t-151.5 -63.5h-16v73h16q59 0 100.5 41t41.5 101v856q0 115 -80 194.5t-195 79.5h-73q-115 0 -195 -81t-80 -193v-715h-74v1044h74v-139q106 158 291 158h57z" />
    <glyph glyph-name="Omacron" unicode="&#x14c;" 
d="M326 1587v74h565v-74h-565zM559 -18q-145 0 -246.5 101t-101.5 247v741q0 143 102.5 245.5t245.5 102.5h98q143 0 246 -102.5t103 -245.5v-741q0 -145 -101.5 -246.5t-247.5 -101.5h-98zM559 55h98q115 0 195 80t80 195v741q0 115 -80 195t-195 80h-98q-113 0 -193.5 -81
t-80.5 -194v-741q0 -113 80.5 -194t193.5 -81z" />
    <glyph glyph-name="omacron" unicode="&#x14d;" 
d="M326 1231v74h565v-74h-565zM571 1063h74q145 0 246.5 -101.5t101.5 -246.5v-385q0 -143 -102.5 -245.5t-245.5 -102.5h-74q-143 0 -245.5 102t-102.5 246v385q0 145 101.5 246.5t246.5 101.5zM571 989q-113 0 -193.5 -81t-80.5 -193v-385q0 -113 81 -194t193 -81h74
q115 0 195 80t80 195v385q0 115 -80 194.5t-195 79.5h-74z" />
    <glyph glyph-name="Obreve" unicode="&#x14e;" 
d="M393 1757h74q0 -59 41 -100t100.5 -41t100.5 41t41 100h73q0 -88 -63.5 -151.5t-151.5 -63.5t-151.5 62.5t-63.5 152.5zM559 -18q-145 0 -246.5 101t-101.5 247v741q0 143 102.5 245.5t245.5 102.5h98q143 0 246 -102.5t103 -245.5v-741q0 -145 -101.5 -246.5
t-247.5 -101.5h-98zM559 55h98q115 0 195 80t80 195v741q0 115 -80 195t-195 80h-98q-113 0 -193.5 -81t-80.5 -194v-741q0 -113 80.5 -194t193.5 -81z" />
    <glyph glyph-name="obreve" unicode="&#x14f;" 
d="M393 1401h74q0 -59 41 -100t100.5 -41t100.5 40.5t41 100.5h73q0 -88 -63.5 -151.5t-151.5 -63.5t-151.5 62.5t-63.5 152.5zM571 1063h74q145 0 246.5 -101.5t101.5 -246.5v-385q0 -143 -102.5 -245.5t-245.5 -102.5h-74q-143 0 -245.5 102t-102.5 246v385
q0 145 101.5 246.5t246.5 101.5zM571 989q-113 0 -193.5 -81t-80.5 -193v-385q0 -113 81 -194t193 -81h74q115 0 195 80t80 195v385q0 115 -80 194.5t-195 79.5h-74z" />
    <glyph glyph-name="Ohungarumlaut" unicode="&#x150;" 
d="M485 1511l-53 54l232 231l53 -53zM758 1511l-53 54l231 231l53 -53zM559 -18q-145 0 -246.5 101t-101.5 247v741q0 143 102.5 245.5t245.5 102.5h98q143 0 246 -102.5t103 -245.5v-741q0 -145 -101.5 -246.5t-247.5 -101.5h-98zM559 55h98q115 0 195 80t80 195v741
q0 115 -80 195t-195 80h-98q-113 0 -193.5 -81t-80.5 -194v-741q0 -113 80.5 -194t193.5 -81z" />
    <glyph glyph-name="ohungarumlaut" unicode="&#x151;" 
d="M485 1155l-53 53l232 232l53 -54zM758 1155l-53 53l231 232l53 -54zM571 1063h74q145 0 246.5 -101.5t101.5 -246.5v-385q0 -143 -102.5 -245.5t-245.5 -102.5h-74q-143 0 -245.5 102t-102.5 246v385q0 145 101.5 246.5t246.5 101.5zM571 989q-113 0 -193.5 -81
t-80.5 -193v-385q0 -113 81 -194t193 -81h74q115 0 195 80t80 195v385q0 115 -80 194.5t-195 79.5h-74z" />
    <glyph glyph-name="OE" unicode="&#x152;" 
d="M1112 1327h-362v-590h301v-73h-301v-590h362v-74h-436v86q-68 -104 -195 -104q-111 0 -188.5 77.5t-77.5 188.5v905q0 111 78 188.5t188 77.5q127 0 195 -104v86h436v-74zM481 55q80 0 137.5 56.5t57.5 136.5v905q0 80 -57.5 136.5t-137.5 56.5t-136 -56.5t-56 -136.5
v-905q0 -80 56 -136.5t136 -56.5z" />
    <glyph glyph-name="oe" unicode="&#x153;" 
d="M1102 487h-461v-239q0 -80 56.5 -136.5t138.5 -56.5q61 0 112 38t70 95l72 -20q-27 -82 -96.5 -134t-157.5 -52q-74 0 -136.5 39.5t-93.5 103.5q-33 -63 -95 -103t-136 -40q-111 0 -188.5 78.5t-77.5 187.5v549q0 111 77.5 188.5t188.5 77.5q74 0 136 -40t95 -103
q31 63 93.5 103t136.5 40q111 0 188.5 -78t77.5 -188v-310zM567 248v549q0 80 -56 136t-136 56t-136.5 -56t-56.5 -136v-549q0 -78 56.5 -135.5t136.5 -57.5t136 57.5t56 135.5zM641 797v-236h387v236q0 80 -56.5 136t-135.5 56q-82 0 -138.5 -56t-56.5 -136z" />
    <glyph glyph-name="Racute" unicode="&#x154;" 
d="M834 1743l-232 -232l-53 54l231 231zM924 377q100 -106 100 -248v-129h-74v129q0 113 -80 199l-258 274h-297v-602h-73v1401h422q145 0 246.5 -102.5t101.5 -245.5v-103q0 -131 -86 -229t-215 -115zM315 1327v-651h349q115 0 194.5 80t79.5 194v103q0 115 -80 194.5
t-194 79.5h-349z" />
    <glyph glyph-name="racute" unicode="&#x155;" 
d="M743 1155l-53 53l232 232l53 -54zM150 0v74h208v641q0 145 101.5 246.5t247.5 101.5h73q123 0 216.5 -74t121.5 -190l-71 -21q-20 92 -94 151.5t-173 59.5h-73q-113 0 -194 -81t-81 -193v-641h512v-74h-794z" />
    <glyph glyph-name="Rcommaaccent" unicode="&#x156;" 
d="M924 377q100 -106 100 -248v-129h-74v129q0 113 -80 199l-258 274h-297v-602h-73v1401h422q145 0 246.5 -102.5t101.5 -245.5v-103q0 -131 -86 -229t-215 -115zM315 1327v-651h349q115 0 194.5 80t79.5 194v103q0 115 -80 194.5t-194 79.5h-349zM496 -260v74h262v-80
q0 -111 -65.5 -200t-168.5 -122l-20 70q80 29 130 98.5t50 159.5h-188z" />
    <glyph glyph-name="rcommaaccent" unicode="&#x157;" 
d="M150 0v74h208v641q0 145 101.5 246.5t247.5 101.5h73q123 0 216.5 -74t121.5 -190l-71 -21q-20 92 -94 151.5t-173 59.5h-73q-113 0 -194 -81t-81 -193v-641h512v-74h-794zM416 -186h262v-80q0 -111 -65.5 -200t-168.5 -122l-20 70q80 29 130 98.5t50 159.5h-188v74z" />
    <glyph glyph-name="Rcaron" unicode="&#x158;" 
d="M635 1561h-64l-233 233l53 51l211 -211l213 211l53 -51zM924 377q100 -106 100 -248v-129h-74v129q0 113 -80 199l-258 274h-297v-602h-73v1401h422q145 0 246.5 -102.5t101.5 -245.5v-103q0 -131 -86 -229t-215 -115zM315 1327v-651h349q115 0 194.5 80t79.5 194v103
q0 115 -80 194.5t-194 79.5h-349z" />
    <glyph glyph-name="rcaron" unicode="&#x159;" 
d="M479 1438l53 51l211 -211l213 211l54 -51l-234 -234h-63zM150 0v74h208v641q0 145 101.5 246.5t247.5 101.5h73q123 0 216.5 -74t121.5 -190l-71 -21q-20 92 -94 151.5t-173 59.5h-73q-113 0 -194 -81t-81 -193v-641h512v-74h-794z" />
    <glyph glyph-name="Sacute" unicode="&#x15a;" 
d="M606 1511l-53 54l231 231l54 -53zM182 244l70 20q23 -90 97.5 -149.5t170.5 -59.5h135q113 0 194 81t81 194q0 221 -228 307l-204 80q-141 51 -215 136t-74 218q0 145 101.5 246.5t246.5 101.5h92q121 0 215 -73.5t123 -188.5l-72 -20q-23 92 -96.5 150.5t-169.5 58.5
h-92q-115 0 -194.5 -80t-79.5 -195q0 -104 56 -169.5t187 -117.5l203 -77q274 -109 275 -377q0 -143 -102.5 -245.5t-246.5 -102.5h-135q-121 0 -215 74.5t-123 187.5z" />
    <glyph glyph-name="sacute" unicode="&#x15b;" 
d="M621 1155l-54 53l232 232l53 -54zM225 170l72 23q20 -61 72.5 -99.5t117.5 -38.5h234q82 0 141.5 59.5t59.5 141.5q0 78 -48.5 137.5t-130.5 73.5l-254 41q-111 16 -178 93t-67 187q0 115 79.5 195t194.5 80h197q90 0 161.5 -53.5t100.5 -137.5l-72 -20q-20 61 -72.5 99
t-117.5 38h-197q-84 0 -142.5 -58.5t-58.5 -142.5q0 -88 50.5 -142t134.5 -66l254 -39q106 -16 172.5 -96t66.5 -189q0 -113 -80.5 -193.5t-193.5 -80.5h-234q-90 0 -161.5 53t-100.5 135z" />
    <glyph glyph-name="Scircumflex" unicode="&#x15c;" 
d="M342 1589l233 234h64l233 -234l-53 -51l-213 211l-211 -211zM182 244l70 20q23 -90 97.5 -149.5t170.5 -59.5h135q113 0 194 81t81 194q0 221 -228 307l-204 80q-141 51 -215 136t-74 218q0 145 101.5 246.5t246.5 101.5h92q121 0 215 -73.5t123 -188.5l-72 -20
q-23 92 -96.5 150.5t-169.5 58.5h-92q-115 0 -194.5 -80t-79.5 -195q0 -104 56 -169.5t187 -117.5l203 -77q274 -109 275 -377q0 -143 -102.5 -245.5t-246.5 -102.5h-135q-121 0 -215 74.5t-123 187.5z" />
    <glyph glyph-name="scircumflex" unicode="&#x15d;" 
d="M356 1233l234 233h63l234 -233l-53 -51l-213 211l-211 -211zM225 170l72 23q20 -61 72.5 -99.5t117.5 -38.5h234q82 0 141.5 59.5t59.5 141.5q0 78 -48.5 137.5t-130.5 73.5l-254 41q-111 16 -178 93t-67 187q0 115 79.5 195t194.5 80h197q90 0 161.5 -53.5t100.5 -137.5
l-72 -20q-20 61 -72.5 99t-117.5 38h-197q-84 0 -142.5 -58.5t-58.5 -142.5q0 -88 50.5 -142t134.5 -66l254 -39q106 -16 172.5 -96t66.5 -189q0 -113 -80.5 -193.5t-193.5 -80.5h-234q-90 0 -161.5 53t-100.5 135z" />
    <glyph glyph-name="Scedilla" unicode="&#x15e;" 
d="M655 -18h-26v-91q78 -12 130 -72.5t52 -140.5q0 -88 -63.5 -151.5t-151.5 -63.5h-43v74h43q59 0 100 41t41 100.5t-41 100.5t-100 41h-41v162h-35q-121 0 -215 74.5t-123 187.5l70 20q23 -90 97.5 -149.5t170.5 -59.5h135q113 0 194 81t81 194q0 221 -228 307l-204 80
q-141 51 -215 136t-74 218q0 145 101.5 246.5t246.5 101.5h92q121 0 215 -73.5t123 -188.5l-72 -20q-23 92 -96.5 150.5t-169.5 58.5h-92q-115 0 -194.5 -80t-79.5 -195q0 -104 56 -169.5t187 -117.5l203 -77q274 -109 275 -377q0 -143 -103 -245.5t-246 -102.5z" />
    <glyph glyph-name="scedilla" unicode="&#x15f;" 
d="M721 -18h-76v-91q78 -12 130 -72.5t52 -140.5q0 -88 -63.5 -151.5t-151.5 -63.5h-43v74h43q59 0 100.5 41t41.5 100.5t-41 100.5t-101 41h-41v162h-84q-90 0 -161.5 53t-100.5 135l72 23q20 -61 72.5 -99.5t117.5 -38.5h234q82 0 141.5 59.5t59.5 141.5q0 78 -48.5 137.5
t-130.5 73.5l-254 41q-111 16 -178 93t-67 187q0 115 79.5 195t194.5 80h197q90 0 161.5 -53.5t100.5 -137.5l-72 -20q-20 61 -72.5 99t-117.5 38h-197q-84 0 -142.5 -58.5t-58.5 -142.5q0 -88 50.5 -142t134.5 -66l254 -39q106 -16 172.5 -96t66.5 -189
q0 -113 -80.5 -193.5t-193.5 -80.5z" />
    <glyph glyph-name="Scaron" unicode="&#x160;" 
d="M342 1794l53 51l211 -211l213 211l53 -51l-233 -233h-64zM182 244l70 20q23 -90 97.5 -149.5t170.5 -59.5h135q113 0 194 81t81 194q0 221 -228 307l-204 80q-141 51 -215 136t-74 218q0 145 101.5 246.5t246.5 101.5h92q121 0 215 -73.5t123 -188.5l-72 -20
q-23 92 -96.5 150.5t-169.5 58.5h-92q-115 0 -194.5 -80t-79.5 -195q0 -104 56 -169.5t187 -117.5l203 -77q274 -109 275 -377q0 -143 -102.5 -245.5t-246.5 -102.5h-135q-121 0 -215 74.5t-123 187.5z" />
    <glyph glyph-name="scaron" unicode="&#x161;" 
d="M356 1438l54 51l211 -211l213 211l53 -51l-234 -234h-63zM225 170l72 23q20 -61 72.5 -99.5t117.5 -38.5h234q82 0 141.5 59.5t59.5 141.5q0 78 -48.5 137.5t-130.5 73.5l-254 41q-111 16 -178 93t-67 187q0 115 79.5 195t194.5 80h197q90 0 161.5 -53.5t100.5 -137.5
l-72 -20q-20 61 -72.5 99t-117.5 38h-197q-84 0 -142.5 -58.5t-58.5 -142.5q0 -88 50.5 -142t134.5 -66l254 -39q106 -16 172.5 -96t66.5 -189q0 -113 -80.5 -193.5t-193.5 -80.5h-234q-90 0 -161.5 53t-100.5 135z" />
    <glyph glyph-name="Tcommaaccent" unicode="&#x162;" 
d="M645 1327v-1436q78 -12 130 -72.5t52 -140.5q0 -88 -63.5 -151.5t-151.5 -63.5h-43v74h43q59 0 100.5 41t41.5 100.5t-41 100.5t-101 41h-41v1507h-387v74h848v-74h-387z" />
    <glyph glyph-name="tcommaaccent" unicode="&#x163;" 
d="M1110 244q-27 -104 -108.5 -177t-190.5 -83v-93q78 -12 130 -72.5t52 -140.5q0 -88 -62.5 -151.5t-152.5 -63.5h-43v74h43q57 0 99.5 41t42.5 100.5t-42 100.5t-100 41h-41v164q-131 14 -220 113.5t-89 230.5v643h-283v73h283v283h74v-283h524v-73h-524v-643
q0 -113 80 -193t192 -80q96 0 170 59.5t94 151.5z" />
    <glyph glyph-name="Tcaron" unicode="&#x164;" 
d="M344 1794l53 51l211 -211l213 211l53 -51l-233 -233h-63zM184 1401h848v-74h-387v-1327h-74v1327h-387v74z" />
    <glyph glyph-name="tcaron" unicode="&#x165;" 
d="M653 1575h262v-80q0 -111 -65.5 -200t-167.5 -121l-20 69q80 29 130 98.5t50 159.5h-189v74zM145 971v73h283v283h74v-283h524v-73h-524v-643q0 -113 80 -193t192 -80q96 0 170 59.5t94 151.5l72 -22q-29 -115 -122 -188.5t-214 -73.5q-143 0 -244.5 102t-101.5 244v643
h-283z" />
    <glyph glyph-name="Tbar" unicode="&#x166;" 
d="M1032 1327h-387v-582h264v-73h-264v-672h-74v672h-264v73h264v582h-387v74h848v-74z" />
    <glyph glyph-name="tbar" unicode="&#x167;" 
d="M1038 266l72 -22q-29 -115 -122 -188.5t-214 -73.5q-143 0 -244.5 102t-101.5 244v268h-205v74h205v301h-283v73h283v283h74v-283h524v-73h-524v-301h295v-74h-295v-268q0 -113 80 -193t192 -80q96 0 170 59.5t94 151.5z" />
    <glyph glyph-name="Utilde" unicode="&#x168;" 
d="M219 1554v17q0 94 66.5 159.5t160.5 65.5q109 0 170 -84q76 -96 154 -96q63 0 108.5 45t45.5 106v19h73v-19q0 -94 -66.5 -159.5t-160.5 -65.5q-109 0 -170 86q-72 94 -154 94q-63 0 -108 -44t-45 -107v-17h-74zM213 1401h74v-1071q0 -113 79.5 -194t194.5 -81h98
q115 0 196 80t81 195v1071h74v-1071q0 -145 -102.5 -246.5t-248.5 -101.5h-98q-143 0 -245.5 102t-102.5 246v1071z" />
    <glyph glyph-name="utilde" unicode="&#x169;" 
d="M219 1198v16q0 94 66.5 160t160.5 66q109 0 170 -84q76 -96 154 -96q63 0 108.5 45t45.5 106v19h73v-19q0 -94 -66.5 -159.5t-160.5 -65.5q-109 0 -170 86q-72 94 -154 94q-63 0 -108 -44t-45 -108v-16h-74zM223 1044h74v-714q0 -113 81 -194t193 -81h74q115 0 195 80
t80 195v714h73v-714q0 -145 -101 -246.5t-247 -101.5h-74q-145 0 -246.5 101t-101.5 247v714z" />
    <glyph glyph-name="Umacron" unicode="&#x16a;" 
d="M326 1587v74h565v-74h-565zM213 1401h74v-1071q0 -113 79.5 -194t194.5 -81h98q115 0 196 80t81 195v1071h74v-1071q0 -145 -102.5 -246.5t-248.5 -101.5h-98q-143 0 -245.5 102t-102.5 246v1071z" />
    <glyph glyph-name="umacron" unicode="&#x16b;" 
d="M326 1231v74h565v-74h-565zM223 1044h74v-714q0 -113 81 -194t193 -81h74q115 0 195 80t80 195v714h73v-714q0 -145 -101 -246.5t-247 -101.5h-74q-145 0 -246.5 101t-101.5 247v714z" />
    <glyph glyph-name="Ubreve" unicode="&#x16c;" 
d="M393 1757h74q0 -59 41 -100t100.5 -41t100.5 41t41 100h73q0 -88 -63.5 -151.5t-151.5 -63.5t-151.5 62.5t-63.5 152.5zM213 1401h74v-1071q0 -113 79.5 -194t194.5 -81h98q115 0 196 80t81 195v1071h74v-1071q0 -145 -102.5 -246.5t-248.5 -101.5h-98q-143 0 -245.5 102
t-102.5 246v1071z" />
    <glyph glyph-name="ubreve" unicode="&#x16d;" 
d="M393 1401h74q0 -59 41 -100t100.5 -41t100.5 40.5t41 100.5h73q0 -88 -63.5 -151.5t-151.5 -63.5t-151.5 62.5t-63.5 152.5zM223 1044h74v-714q0 -113 81 -194t193 -81h74q115 0 195 80t80 195v714h73v-714q0 -145 -101 -246.5t-247 -101.5h-74q-145 0 -246.5 101
t-101.5 247v714z" />
    <glyph glyph-name="Uring" unicode="&#x16e;" 
d="M393 1616q0 88 63.5 151.5t151.5 63.5t151.5 -63.5t63.5 -151.5t-63.5 -151.5t-151.5 -63.5t-151.5 63.5t-63.5 151.5zM467 1615.5q0 -59.5 41 -100t100.5 -40.5t100.5 40.5t41 100t-41 100.5t-100.5 41t-100.5 -41t-41 -100.5zM213 1401h74v-1071q0 -113 79.5 -194
t194.5 -81h98q115 0 196 80t81 195v1071h74v-1071q0 -145 -102.5 -246.5t-248.5 -101.5h-98q-143 0 -245.5 102t-102.5 246v1071z" />
    <glyph glyph-name="uring" unicode="&#x16f;" 
d="M393 1259.5q0 88.5 63.5 152t151.5 63.5t151.5 -63.5t63.5 -152t-63.5 -152t-151.5 -63.5t-151.5 63.5t-63.5 152zM467 1259.5q0 -59.5 41 -100.5t100.5 -41t100.5 41t41 100.5t-41 100.5t-100.5 41t-100.5 -41t-41 -100.5zM223 1044h74v-714q0 -113 81 -194t193 -81h74
q115 0 195 80t80 195v714h73v-714q0 -145 -101 -246.5t-247 -101.5h-74q-145 0 -246.5 101t-101.5 247v714z" />
    <glyph glyph-name="Uhungarumlaut" unicode="&#x170;" 
d="M485 1511l-53 54l232 231l53 -53zM758 1511l-53 54l231 231l53 -53zM213 1401h74v-1071q0 -113 79.5 -194t194.5 -81h98q115 0 196 80t81 195v1071h74v-1071q0 -145 -102.5 -246.5t-248.5 -101.5h-98q-143 0 -245.5 102t-102.5 246v1071z" />
    <glyph glyph-name="uhungarumlaut" unicode="&#x171;" 
d="M485 1155l-53 53l232 232l53 -54zM758 1155l-53 53l231 232l53 -54zM223 1044h74v-714q0 -113 81 -194t193 -81h74q115 0 195 80t80 195v714h73v-714q0 -145 -101 -246.5t-247 -101.5h-74q-145 0 -246.5 101t-101.5 247v714z" />
    <glyph glyph-name="Uogonek" unicode="&#x172;" 
d="M936 1401h74v-1071q0 -145 -102.5 -246.5t-248.5 -101.5h-14v-129q0 -57 42 -99.5t99 -42.5h17v-73h-17q-90 0 -152.5 62t-62.5 153v129h-10q-143 0 -245.5 102t-102.5 246v1071h74v-1071q0 -113 79.5 -194t194.5 -81h98q115 0 196 80t81 195v1071z" />
    <glyph glyph-name="uogonek" unicode="&#x173;" 
d="M920 1044h73v-714q0 -145 -101 -246.5t-247 -101.5v-123q0 -59 42 -100.5t99 -41.5h17v-73h-17q-90 0 -152.5 63.5t-62.5 151.5v123q-145 0 -246.5 101t-101.5 247v714h74v-714q0 -113 81 -194t193 -81h74q115 0 195 80t80 195v714z" />
    <glyph glyph-name="Wcircumflex" unicode="&#x174;" 
d="M344 1589l234 234h63l233 -234l-53 -51l-213 211l-211 -211zM152 1401h73v-275q0 -123 25 -262l145 -760l168 736h92l168 -731l144 755q25 139 24 262v275h74v-275q0 -139 -25 -274l-161 -852h-99l-172 754l-170 -754h-100l-162 852q-25 135 -24 274v275z" />
    <glyph glyph-name="wcircumflex" unicode="&#x175;" 
d="M344 1233l234 233h63l233 -233l-53 -51l-213 211l-211 -211zM150 911v133h73v-133q0 -129 31 -254l133 -536l182 745h78l182 -745l134 536q14 55 21 119t7 101l2 34v133h74v-133q0 -137 -33 -270l-160 -641h-86l-180 748l-180 -748h-86l-160 641q-32 133 -32 270z" />
    <glyph glyph-name="Ycircumflex" unicode="&#x176;" 
d="M344 1589l234 234h63l233 -234l-53 -51l-213 211l-211 -211zM999 1114q0 -106 -79 -227l-275 -342v-545h-74v545l-274 342q-8 8 -24.5 33.5t-36 82t-19.5 111.5v287h74v-287q0 -43 16.5 -89t31.5 -69.5t17 -23.5l252 -316l252 316q66 84 66 182v287h73v-287z" />
    <glyph glyph-name="ycircumflex" unicode="&#x177;" 
d="M344 1233l234 233h63l233 -233l-53 -51l-213 211l-211 -211zM225 1044h74v-133q0 -119 61 -231l252 -471l254 471q59 109 60 231v133h73v-133q0 -141 -67 -268l-488 -899q-10 -16 -27.5 -36.5t-56 -42t-84.5 -21.5h-157v73h157q16 0 31 4.5t25 10.5t19 14t14.5 14.5
t9.5 12.5l4 6l192 354l-276 510q-70 131 -70 268v133z" />
    <glyph glyph-name="Ydieresis" unicode="&#x178;" 
d="M449 1548v260h73v-260h-73zM694 1548v260h74v-260h-74zM999 1114q0 -106 -79 -227l-275 -342v-545h-74v545l-274 342q-8 8 -24.5 33.5t-36 82t-19.5 111.5v287h74v-287q0 -43 16.5 -89t31.5 -69.5t17 -23.5l252 -316l252 316q66 84 66 182v287h73v-287z" />
    <glyph glyph-name="Zacute" unicode="&#x179;" 
d="M608 1511l-53 54l231 231l54 -53zM229 1401h756v-74l-686 -1253h705v-74h-789v74l686 1253h-672v74z" />
    <glyph glyph-name="zacute" unicode="&#x17a;" 
d="M612 1155l-53 53l232 232l53 -54zM258 1044h707v-73l-633 -897h651v-74h-743v74l632 897h-614v73z" />
    <glyph glyph-name="Zdotaccent" unicode="&#x17b;" 
d="M571 1548v260h74v-260h-74zM229 1401h756v-74l-686 -1253h705v-74h-789v74l686 1253h-672v74z" />
    <glyph glyph-name="zdotaccent" unicode="&#x17c;" 
d="M575 1192v260h74v-260h-74zM258 1044h707v-73l-633 -897h651v-74h-743v74l632 897h-614v73z" />
    <glyph glyph-name="Zcaron" unicode="&#x17d;" 
d="M344 1794l53 51l211 -211l213 211l53 -51l-233 -233h-63zM229 1401h756v-74l-686 -1253h705v-74h-789v74l686 1253h-672v74z" />
    <glyph glyph-name="zcaron" unicode="&#x17e;" 
d="M348 1438l53 51l211 -211l213 211l54 -51l-234 -234h-63zM258 1044h707v-73l-633 -897h651v-74h-743v74l632 897h-614v73z" />
    <glyph glyph-name="uni0186" unicode="&#x186;" 
d="M203 1157q29 113 123 187.5t215 74.5h98q145 0 246.5 -102.5t101.5 -245.5v-741q0 -145 -101.5 -246.5t-246.5 -101.5h-98q-121 0 -215.5 73.5t-122.5 188.5l71 20q23 -92 96.5 -150.5t170.5 -58.5h98q115 0 194.5 81t79.5 194v741q0 113 -80.5 194t-193.5 81h-98
q-96 0 -170 -58.5t-97 -150.5z" />
    <glyph glyph-name="uni0189" unicode="&#x189;" 
d="M684 1401q145 0 247.5 -101.5t102.5 -246.5v-705q0 -145 -102.5 -246.5t-247.5 -101.5h-428v664h-158v73h158v664h428zM961 348v705q0 115 -81 194.5t-196 79.5h-354v-590h309v-73h-309v-590h354q115 0 196 79.5t81 194.5z" />
    <glyph glyph-name="uni018E" unicode="&#x18e;" 
d="M967 0h-779v74h705v590h-639v73h639v590h-705v74h779v-1401z" />
    <glyph glyph-name="uni018F" unicode="&#x18f;" 
d="M221 1157q29 113 123 187.5t215 74.5h98q143 0 246 -102.5t103 -245.5v-741q0 -145 -101.5 -246.5t-247.5 -101.5h-98q-145 0 -246.5 101t-101.5 247v407h721v334q0 113 -81 194t-194 81h-98q-96 0 -170 -58.5t-96 -150.5zM285 664v-334q0 -113 80.5 -194t193.5 -81h98
q113 0 194 81t81 194v334h-647z" />
    <glyph glyph-name="uni0190" unicode="&#x190;" 
d="M969 264l71 -20q-29 -115 -124 -188.5t-216 -73.5h-100q-145 0 -247.5 102t-102.5 246v71q0 104 60.5 190.5t156.5 123.5q-90 39 -147.5 123t-57.5 186v47q0 143 103.5 245.5t246.5 102.5h88q121 0 215.5 -74.5t122.5 -187.5l-69 -20q-23 90 -97.5 149.5t-171.5 59.5h-88
q-113 0 -194.5 -81t-81.5 -194v-47q0 -113 81 -193.5t195 -80.5h203v-74h-215q-113 0 -194.5 -81t-81.5 -194v-71q0 -113 80.5 -194t195.5 -81h100q98 0 172 58.5t97 150.5z" />
    <glyph glyph-name="florin" unicode="&#x192;" 
d="M829 1346q-76 0 -130 -54.5t-54 -130.5v-424h318v-73h-318v-424q0 -106 -75.5 -182t-182.5 -76q-92 0 -162.5 57t-89.5 143l72 21q12 -63 62 -105.5t118 -42.5q76 0 130 54.5t54 130.5v424h-317v73h317v424q0 106 76 182t182 76q92 0 162 -57t90 -145l-71 -21
q-12 66 -62.5 108t-118.5 42z" />
    <glyph glyph-name="uni0197" unicode="&#x197;" 
d="M645 74h348v-74h-770v74h348v606h-268v74h268v573h-340v74h754v-74h-340v-573h270v-74h-270v-606z" />
    <glyph glyph-name="uni019D" unicode="&#x19d;" 
d="M938 1401h74v-1401h-92l-641 1270v-1411q0 -88 -63.5 -151.5t-152.5 -63.5h-16v73h16q59 0 100.5 41t41.5 101v1542h92l641 -1270v1270z" />
    <glyph glyph-name="uni019F" unicode="&#x19f;" 
d="M657 1419q143 0 246 -102.5t103 -245.5v-741q0 -145 -101.5 -246.5t-247.5 -101.5h-98q-145 0 -246.5 101t-101.5 247v741q0 143 102.5 245.5t245.5 102.5h98zM559 1346q-113 0 -193.5 -81t-80.5 -194v-334h647v334q0 115 -80 195t-195 80h-98zM657 55q115 0 195 80
t80 195v334h-647v-334q0 -113 80.5 -194t193.5 -81h98z" />
    <glyph glyph-name="Ohorn" unicode="&#x1a0;" 
d="M1110 1401h74v-47q0 -80 -53.5 -141.5t-131.5 -71.5q6 -35 7 -70v-741q0 -145 -101.5 -246.5t-247.5 -101.5h-98q-145 0 -246.5 101t-101.5 247v741q0 143 102.5 245.5t245.5 102.5h98q104 0 190.5 -57t127.5 -150q57 4 96 44t39 98v47zM932 330v741q0 115 -80 195
t-195 80h-98q-113 0 -193.5 -81t-80.5 -194v-741q0 -113 80.5 -194t193.5 -81h98q115 0 195 80t80 195z" />
    <glyph glyph-name="ohorn" unicode="&#x1a1;" 
d="M1104 1044h74v-47q0 -82 -55.5 -142t-135.5 -71q6 -35 6 -69v-385q0 -143 -102.5 -245.5t-245.5 -102.5h-74q-143 0 -245.5 102t-102.5 246v385q0 145 101.5 246.5t246.5 101.5h74q104 0 190.5 -57.5t127.5 -149.5q57 0 99 41t42 100v47zM920 330v385q0 115 -80 194.5
t-195 79.5h-74q-113 0 -193.5 -81t-80.5 -193v-385q0 -113 81 -194t193 -81h74q115 0 195 80t80 195z" />
    <glyph glyph-name="uni01A9" unicode="&#x1a9;" 
d="M229 1401h777v-74h-687l390 -627l-406 -626h721v-74h-811v74l408 626l-392 627v74z" />
    <glyph glyph-name="Uhorn" unicode="&#x1af;" 
d="M1159 1401h74v-47q0 -88 -63.5 -151.5t-151.5 -63.5h-8v-809q0 -145 -102.5 -246.5t-248.5 -101.5h-98q-143 0 -245.5 102t-102.5 246v1071h74v-1071q0 -113 79.5 -194t194.5 -81h98q115 0 196 80t81 195v1071h74v-189h8q59 0 100 41t41 101v47z" />
    <glyph glyph-name="uhorn" unicode="&#x1b0;" 
d="M1106 1233h74v-47q0 -80 -53.5 -141.5t-133.5 -71.5v-643q0 -145 -101 -246.5t-247 -101.5h-74q-145 0 -246.5 101t-101.5 247v714h74v-714q0 -113 81 -194t193 -81h74q115 0 195 80t80 195v714h45q59 0 100 41t41 101v47z" />
    <glyph glyph-name="uni01B1" unicode="&#x1b1;" 
d="M1024 1401v-74h-174q156 -104 156 -293v-704q0 -145 -101.5 -246.5t-247.5 -101.5h-98q-145 0 -246.5 101t-101.5 247v704q0 186 158 293h-176v74h366v-74q-113 0 -193.5 -81t-80.5 -193v-723q0 -113 80.5 -194t193.5 -81h98q115 0 195 80t80 195v723q0 113 -80 193.5
t-195 80.5v74h367z" />
    <glyph glyph-name="uni01CD" unicode="&#x1cd;" 
d="M641 1561h-63l-234 233l53 51l211 -211l213 211l53 -51zM985 559q37 -137 37 -289v-270h-74v270q0 29 -6 101h-668q-6 -72 -6 -101v-270h-73v270q0 137 36 289l197 723q16 61 66.5 99t113.5 38q66 0 115 -38t65 -99zM285 444h647q-6 49 -19 95l-196 723q-10 37 -39 60.5
t-70 23.5t-69.5 -24t-38.5 -60l-197 -723q-12 -44 -18 -95z" />
    <glyph glyph-name="uni01CE" unicode="&#x1ce;" 
d="M641 1204h-63l-234 234l53 51l211 -211l213 211l53 -51zM909 1044h74v-1044h-74v139q-106 -158 -291 -157h-57q-143 0 -245.5 101t-102.5 247v385q0 145 102.5 246.5t245.5 101.5h57q184 0 291 -158v139zM635 55q115 0 194.5 81t79.5 194v385q0 113 -79.5 193.5
t-194.5 80.5h-74q-115 0 -194.5 -80t-79.5 -194v-385q0 -115 79.5 -195t194.5 -80h74z" />
    <glyph glyph-name="uni01CF" unicode="&#x1cf;" 
d="M344 1794l53 51l211 -211l213 211l53 -51l-233 -233h-63zM223 74h348v1253h-340v74h754v-74h-340v-1253h348v-74h-770v74z" />
    <glyph glyph-name="uni01D0" unicode="&#x1d0;" 
d="M387 1438l53 51l211 -211l213 211l54 -51l-234 -234h-63zM303 1044h385v-970h354v-74h-806v74h378v897h-311v73z" />
    <glyph glyph-name="uni01D1" unicode="&#x1d1;" 
d="M344 1794l53 51l211 -211l213 211l53 -51l-233 -233h-63zM559 -18q-145 0 -246.5 101t-101.5 247v741q0 143 102.5 245.5t245.5 102.5h98q143 0 246 -102.5t103 -245.5v-741q0 -145 -101.5 -246.5t-247.5 -101.5h-98zM559 55h98q115 0 195 80t80 195v741q0 115 -80 195
t-195 80h-98q-113 0 -193.5 -81t-80.5 -194v-741q0 -113 80.5 -194t193.5 -81z" />
    <glyph glyph-name="uni01D2" unicode="&#x1d2;" 
d="M344 1438l53 51l211 -211l213 211l53 -51l-233 -234h-63zM571 1063h74q145 0 246.5 -101.5t101.5 -246.5v-385q0 -143 -102.5 -245.5t-245.5 -102.5h-74q-143 0 -245.5 102t-102.5 246v385q0 145 101.5 246.5t246.5 101.5zM571 989q-113 0 -193.5 -81t-80.5 -193v-385
q0 -113 81 -194t193 -81h74q115 0 195 80t80 195v385q0 115 -80 194.5t-195 79.5h-74z" />
    <glyph glyph-name="uni01D3" unicode="&#x1d3;" 
d="M344 1794l53 51l211 -211l213 211l53 -51l-233 -233h-63zM213 1401h74v-1071q0 -113 79.5 -194t194.5 -81h98q115 0 196 80t81 195v1071h74v-1071q0 -145 -102.5 -246.5t-248.5 -101.5h-98q-143 0 -245.5 102t-102.5 246v1071z" />
    <glyph glyph-name="uni01D4" unicode="&#x1d4;" 
d="M344 1438l53 51l211 -211l213 211l53 -51l-233 -234h-63zM223 1044h74v-714q0 -113 81 -194t193 -81h74q115 0 195 80t80 195v714h73v-714q0 -145 -101 -246.5t-247 -101.5h-74q-145 0 -246.5 101t-101.5 247v714z" />
    <glyph glyph-name="uni01D5" unicode="&#x1d5;" 
d="M326 1933v74h565v-74h-565zM449 1548v260h73v-260h-73zM694 1548v260h74v-260h-74zM213 1401h74v-1071q0 -113 79.5 -194t194.5 -81h98q115 0 196 80t81 195v1071h74v-1071q0 -145 -102.5 -246.5t-248.5 -101.5h-98q-143 0 -245.5 102t-102.5 246v1071z" />
    <glyph glyph-name="uni01D6" unicode="&#x1d6;" 
d="M326 1577v74h565v-74h-565zM449 1192v260h73v-260h-73zM694 1192v260h74v-260h-74zM223 1044h74v-714q0 -113 81 -194t193 -81h74q115 0 195 80t80 195v714h73v-714q0 -145 -101 -246.5t-247 -101.5h-74q-145 0 -246.5 101t-101.5 247v714z" />
    <glyph glyph-name="uni01D7" unicode="&#x1d7;" 
d="M608 1858l-53 53l231 231l54 -53zM449 1548v260h73v-260h-73zM694 1548v260h74v-260h-74zM213 1401h74v-1071q0 -113 79.5 -194t194.5 -81h98q115 0 196 80t81 195v1071h74v-1071q0 -145 -102.5 -246.5t-248.5 -101.5h-98q-143 0 -245.5 102t-102.5 246v1071z" />
    <glyph glyph-name="uni01D8" unicode="&#x1d8;" 
d="M608 1501l-53 53l231 232l54 -53zM449 1192v260h73v-260h-73zM694 1192v260h74v-260h-74zM223 1044h74v-714q0 -113 81 -194t193 -81h74q115 0 195 80t80 195v714h73v-714q0 -145 -101 -246.5t-247 -101.5h-74q-145 0 -246.5 101t-101.5 247v714z" />
    <glyph glyph-name="uni01D9" unicode="&#x1d9;" 
d="M344 2140l53 51l211 -211l213 211l53 -51l-233 -233h-63zM449 1548v260h73v-260h-73zM694 1548v260h74v-260h-74zM213 1401h74v-1071q0 -113 79.5 -194t194.5 -81h98q115 0 196 80t81 195v1071h74v-1071q0 -145 -102.5 -246.5t-248.5 -101.5h-98q-143 0 -245.5 102
t-102.5 246v1071z" />
    <glyph glyph-name="uni01DA" unicode="&#x1da;" 
d="M344 1784l53 51l211 -211l213 211l53 -51l-233 -234h-63zM449 1192v260h73v-260h-73zM694 1192v260h74v-260h-74zM223 1044h74v-714q0 -113 81 -194t193 -81h74q115 0 195 80t80 195v714h73v-714q0 -145 -101 -246.5t-247 -101.5h-74q-145 0 -246.5 101t-101.5 247v714z
" />
    <glyph glyph-name="uni01DB" unicode="&#x1db;" 
d="M608 1858l-231 231l53 53l232 -231zM449 1548v260h73v-260h-73zM694 1548v260h74v-260h-74zM213 1401h74v-1071q0 -113 79.5 -194t194.5 -81h98q115 0 196 80t81 195v1071h74v-1071q0 -145 -102.5 -246.5t-248.5 -101.5h-98q-143 0 -245.5 102t-102.5 246v1071z" />
    <glyph glyph-name="uni01DC" unicode="&#x1dc;" 
d="M608 1501l-231 232l53 53l232 -232zM449 1192v260h73v-260h-73zM694 1192v260h74v-260h-74zM223 1044h74v-714q0 -113 81 -194t193 -81h74q115 0 195 80t80 195v714h73v-714q0 -145 -101 -246.5t-247 -101.5h-74q-145 0 -246.5 101t-101.5 247v714z" />
    <glyph glyph-name="uni01DD" unicode="&#x1dd;" 
d="M639 -18h-74q-143 0 -245.5 101t-102.5 247v196h696v189q0 115 -79.5 194.5t-194.5 79.5h-74q-96 0 -169.5 -59.5t-96.5 -151.5l-72 21q29 115 123 189.5t215 74.5h74q143 0 245.5 -102.5t102.5 -245.5v-385q0 -145 -102.5 -246.5t-245.5 -101.5zM913 453h-622v-123
q0 -113 80 -194t194 -81h74q115 0 194.5 80t79.5 195v123z" />
    <glyph glyph-name="uni01DE" unicode="&#x1de;" 
d="M891 2007v-74h-565v74h565zM522 1548h-73v260h73v-260zM768 1548h-74v260h74v-260zM985 559q37 -137 37 -289v-270h-74v270q0 29 -6 101h-668q-6 -72 -6 -101v-270h-73v270q0 137 36 289l197 723q16 61 66.5 99t113.5 38q66 0 115 -38t65 -99zM285 444h647q-6 49 -19 95
l-196 723q-10 37 -39 60.5t-70 23.5t-69.5 -24t-38.5 -60l-197 -723q-12 -44 -18 -95z" />
    <glyph glyph-name="uni01DF" unicode="&#x1df;" 
d="M891 1651v-74h-565v74h565zM522 1192h-73v260h73v-260zM768 1192h-74v260h74v-260zM909 1044h74v-1044h-74v139q-106 -158 -291 -157h-57q-143 0 -245.5 101t-102.5 247v385q0 145 102.5 246.5t245.5 101.5h57q184 0 291 -158v139zM635 55q115 0 194.5 81t79.5 194v385
q0 113 -79.5 193.5t-194.5 80.5h-74q-115 0 -194.5 -80t-79.5 -194v-385q0 -115 79.5 -195t194.5 -80h74z" />
    <glyph glyph-name="Gcaron" unicode="&#x1e6;" 
d="M350 1794l53 51l211 -211l213 211l54 -51l-234 -233h-63zM1001 1157l-71 -20q-23 92 -96.5 150.5t-169.5 58.5h-99q-115 0 -194.5 -81t-79.5 -194v-741q0 -113 80 -194t194 -81h99q115 0 194.5 81t79.5 194v334h-309v73h383v-407q0 -145 -102.5 -246.5t-245.5 -101.5h-99
q-143 0 -245.5 101t-102.5 247v741q0 143 102.5 245.5t245.5 102.5h99q121 0 214.5 -74.5t122.5 -187.5z" />
    <glyph glyph-name="gcaron" unicode="&#x1e7;" 
d="M623 1204h-64l-233 234l53 51l211 -211l213 211l53 -51zM907 1044h74v-1071q0 -143 -101.5 -245.5t-246.5 -102.5h-74q-121 0 -215 75t-123 189l72 21q23 -92 96.5 -151.5t169.5 -59.5h74q115 0 194.5 81t79.5 193v252q-47 -72 -123.5 -114.5t-167.5 -42.5h-57
q-143 0 -245.5 102t-102.5 246v299q0 145 101.5 246.5t246.5 101.5h57q90 0 167 -42t124 -114v137zM633 141q115 0 194.5 81t79.5 194v299q0 115 -79.5 194.5t-194.5 79.5h-74q-113 0 -193.5 -81t-80.5 -193v-299q0 -113 80.5 -194t193.5 -81h74z" />
    <glyph glyph-name="Aringacute" unicode="&#x1fa;" 
d="M840 2050l-232 -231l-53 53l231 231zM985 559q37 -137 37 -289v-270h-74v270q0 29 -6 101h-668q-6 -72 -6 -101v-270h-73v270q0 137 36 289l197 723q16 59 66 96q-100 63 -101 183q0 88 63.5 151.5t151.5 63.5t151.5 -63.5t63.5 -151.5q0 -119 -100 -181q51 -41 65 -98z
M467 1560.5q0 -59.5 41 -100.5t100.5 -41t100.5 41t41 101q0 57 -41 99t-100.5 42t-100.5 -41t-41 -100.5zM285 444h647q-6 49 -19 95l-196 723q-10 37 -39 60.5t-70 23.5t-69.5 -24t-38.5 -60l-197 -723q-12 -44 -18 -95z" />
    <glyph glyph-name="aringacute" unicode="&#x1fb;" 
d="M840 1694l-232 -232l-53 54l231 231zM909 1044h74v-1044h-74v139q-106 -158 -291 -157h-57q-143 0 -245.5 101t-102.5 247v385q0 117 69.5 209t178.5 125q-68 63 -68 155q0 88 63.5 151.5t151.5 63.5t151.5 -63.5t63.5 -151.5q0 -98 -78 -166q102 -41 164 -133v139z
M608.5 1346q-59.5 0 -100.5 -41t-41 -100.5t41 -100.5t100.5 -41t100.5 41t41 100q0 57 -41 99.5t-100.5 42.5zM635 55q115 0 194.5 81t79.5 194v385q0 113 -79.5 193.5t-194.5 80.5h-74q-115 0 -194.5 -80t-79.5 -194v-385q0 -115 79.5 -195t194.5 -80h74z" />
    <glyph glyph-name="AEacute" unicode="&#x1fc;" 
d="M948 1743l-231 -232l-53 54l231 231zM1042 1327h-362v-590h301v-73h-301v-590h362v-74h-436v371h-356q-6 -72 -6 -101v-270h-74v270q0 152 37 289l196 723q16 61 65.5 99t115.5 38q43 0 78 -18h380v-74zM260 444h346v899q-8 2 -22 3q-41 0 -70 -24t-39 -60l-196 -723
q-13 -44 -19 -95z" />
    <glyph glyph-name="aeacute" unicode="&#x1fd;" 
d="M844 1386l-232 -231l-53 53l232 232zM1108 485h-459v-237q0 -80 56.5 -136.5t136.5 -56.5q63 0 114.5 38t69.5 95l70 -20q-25 -82 -95.5 -134t-158.5 -52q-125 0 -193 104v-86h-74v86q-68 -104 -192 -104q-111 0 -188.5 78.5t-77.5 187.5v549q0 111 77.5 188.5
t188.5 77.5q125 0 192 -105v86h74v-86q68 104 193 105q111 0 188.5 -78t77.5 -188v-312zM383 55q80 0 136 56.5t56 136.5v549q0 80 -56 136t-136 56t-136.5 -56t-56.5 -136v-549q0 -80 56.5 -136.5t136.5 -56.5zM842 989q-80 0 -136.5 -56t-56.5 -136v-238h385v238
q0 80 -56 136t-136 56z" />
    <glyph glyph-name="Oslashacute" unicode="&#x1fe;" 
d="M840 1743l-232 -232l-53 54l231 231zM1085 1409l-114 -186q35 -74 35 -152v-741q0 -145 -101.5 -246.5t-247.5 -101.5h-98q-164 0 -268 127l-96 -156l-64 37l115 188q-35 70 -35 152v741q0 143 102.5 245.5t245.5 102.5h98q166 0 271 -129l96 158zM285 330q0 -33 10 -74
l592 967q-82 123 -230 123h-98q-113 0 -193.5 -81t-80.5 -194v-741zM932 1071q0 35 -10 72l-590 -967q80 -121 227 -121h98q115 0 195 80t80 195v741z" />
    <glyph glyph-name="oslashacute" unicode="&#x1ff;" 
d="M840 1386l-232 -231l-53 53l231 232zM907 942q86 -96 86 -227v-385q0 -143 -102.5 -245.5t-245.5 -102.5h-74q-117 0 -209 69l-71 -117l-64 39l80 131q-84 94 -84 226v385q0 145 101.5 246.5t246.5 101.5h74q117 0 207 -68l74 119l63 -39zM297 330q0 -90 51 -160l465 762
q-70 57 -168 57h-74q-113 0 -193.5 -81t-80.5 -193v-385zM920 330v385q0 92 -52 162l-467 -762q76 -59 170 -60h74q115 0 195 80t80 195z" />
    <glyph glyph-name="Scommaaccent" unicode="&#x218;" 
d="M182 244l70 20q23 -90 97.5 -149.5t170.5 -59.5h135q113 0 194 81t81 194q0 221 -228 307l-204 80q-141 51 -215 136t-74 218q0 145 101.5 246.5t246.5 101.5h92q121 0 215 -73.5t123 -188.5l-72 -20q-23 92 -96.5 150.5t-169.5 58.5h-92q-115 0 -194.5 -80t-79.5 -195
q0 -104 56 -169.5t187 -117.5l203 -77q274 -109 275 -377q0 -143 -102.5 -245.5t-246.5 -102.5h-135q-121 0 -215 74.5t-123 187.5zM461 -186h262v-80q0 -111 -65.5 -200t-168.5 -122l-20 70q80 29 130 98.5t50 159.5h-188v74z" />
    <glyph glyph-name="scommaaccent" unicode="&#x219;" 
d="M225 170l72 23q20 -61 72.5 -99.5t117.5 -38.5h234q82 0 141.5 59.5t59.5 141.5q0 78 -48.5 137.5t-130.5 73.5l-254 41q-111 16 -178 93t-67 187q0 115 79.5 195t194.5 80h197q90 0 161.5 -53.5t100.5 -137.5l-72 -20q-20 61 -72.5 99t-117.5 38h-197
q-84 0 -142.5 -58.5t-58.5 -142.5q0 -88 50.5 -142t134.5 -66l254 -39q106 -16 172.5 -96t66.5 -189q0 -113 -80.5 -193.5t-193.5 -80.5h-234q-90 0 -161.5 53t-100.5 135zM477 -186h262v-80q0 -111 -65.5 -200t-167.5 -122l-21 70q80 29 130.5 98.5t50.5 159.5h-189v74z
" />
    <glyph glyph-name="uni021A" unicode="&#x21a;" 
d="M184 1401h848v-74h-387v-1327h-74v1327h-387v74zM477 -186h262v-80q0 -111 -65.5 -200t-167.5 -122l-21 70q80 29 130.5 98.5t50.5 159.5h-189v74z" />
    <glyph glyph-name="uni021B" unicode="&#x21b;" 
d="M145 971v73h283v283h74v-283h524v-73h-524v-643q0 -113 80 -193t192 -80q96 0 170 59.5t94 151.5l72 -22q-29 -115 -122 -188.5t-214 -73.5q-143 0 -244.5 102t-101.5 244v643h-283zM643 -186h262v-80q0 -111 -65.5 -200t-167.5 -122l-21 70q80 29 130 98.5t50 159.5
h-188v74z" />
    <glyph glyph-name="uni021C" unicode="&#x21c;" 
d="M651 782q145 0 246.5 -101t101.5 -247v-86q0 -145 -101 -246.5t-247 -101.5h-389v74h389q115 0 195 79.5t80 194.5v86q0 115 -80 195t-195 80h-250v73l482 545h-619v74h717v-74l-479 -545h149z" />
    <glyph glyph-name="uni021D" unicode="&#x21d;" 
d="M651 426q145 0 246.5 -101.5t101.5 -246.5v-86q0 -145 -101 -246.5t-247 -101.5h-389v73h389q115 0 195 80t80 195v86q0 115 -80 194.5t-195 79.5h-250v74l482 545h-619v73h717v-73l-479 -545h149z" />
    <glyph glyph-name="uni0226" unicode="&#x226;" 
d="M645 1808v-260h-74v260h74zM985 559q37 -137 37 -289v-270h-74v270q0 29 -6 101h-668q-6 -72 -6 -101v-270h-73v270q0 137 36 289l197 723q16 61 66.5 99t113.5 38q66 0 115 -38t65 -99zM285 444h647q-6 49 -19 95l-196 723q-10 37 -39 60.5t-70 23.5t-69.5 -24
t-38.5 -60l-197 -723q-12 -44 -18 -95z" />
    <glyph glyph-name="uni0227" unicode="&#x227;" 
d="M645 1452v-260h-74v260h74zM909 1044h74v-1044h-74v139q-106 -158 -291 -157h-57q-143 0 -245.5 101t-102.5 247v385q0 145 102.5 246.5t245.5 101.5h57q184 0 291 -158v139zM635 55q115 0 194.5 81t79.5 194v385q0 113 -79.5 193.5t-194.5 80.5h-74q-115 0 -194.5 -80
t-79.5 -194v-385q0 -115 79.5 -195t194.5 -80h74z" />
    <glyph glyph-name="uni0228" unicode="&#x228;" 
d="M1028 1327h-704v-590h639v-73h-639v-590h704v-74h-350v-109q78 -12 130 -72.5t52 -140.5q0 -88 -63.5 -151.5t-151.5 -63.5h-43v74h43q59 0 100 41t41 100.5t-40.5 100.5t-100.5 41h-41v180h-354v1401h778v-74z" />
    <glyph glyph-name="uni0229" unicode="&#x229;" 
d="M999 518h-696v-188q0 -115 80 -195t195 -80h73q96 0 170 59.5t97 151.5l71 -20q-29 -115 -123 -189.5t-215 -74.5v-91q78 -12 130.5 -72.5t52.5 -140.5q0 -88 -62.5 -151.5t-153.5 -63.5h-43v74h43q57 0 99.5 41t42.5 100.5t-42 100.5t-100 41h-40v162q-143 0 -246 102
t-103 246v385q0 145 102.5 246.5t246.5 101.5h73q143 0 245.5 -101.5t102.5 -246.5v-197zM303 715v-123h623v123q0 113 -80 193.5t-195 80.5h-73q-115 0 -195 -79.5t-80 -194.5z" />
    <glyph glyph-name="uni022A" unicode="&#x22a;" 
d="M326 1933v74h565v-74h-565zM449 1548v260h73v-260h-73zM694 1548v260h74v-260h-74zM559 -18q-145 0 -246.5 101t-101.5 247v741q0 143 102.5 245.5t245.5 102.5h98q143 0 246 -102.5t103 -245.5v-741q0 -145 -101.5 -246.5t-247.5 -101.5h-98zM559 55h98q115 0 195 80
t80 195v741q0 115 -80 195t-195 80h-98q-113 0 -193.5 -81t-80.5 -194v-741q0 -113 80.5 -194t193.5 -81z" />
    <glyph glyph-name="uni022B" unicode="&#x22b;" 
d="M326 1577v74h565v-74h-565zM449 1192v260h73v-260h-73zM694 1192v260h74v-260h-74zM571 1063h74q145 0 246.5 -101.5t101.5 -246.5v-385q0 -143 -102.5 -245.5t-245.5 -102.5h-74q-143 0 -245.5 102t-102.5 246v385q0 145 101.5 246.5t246.5 101.5zM571 989
q-113 0 -193.5 -81t-80.5 -193v-385q0 -113 81 -194t193 -81h74q115 0 195 80t80 195v385q0 115 -80 194.5t-195 79.5h-74z" />
    <glyph glyph-name="uni0232" unicode="&#x232;" 
d="M326 1587v74h565v-74h-565zM999 1114q0 -106 -79 -227l-275 -342v-545h-74v545l-274 342q-8 8 -24.5 33.5t-36 82t-19.5 111.5v287h74v-287q0 -43 16.5 -89t31.5 -69.5t17 -23.5l252 -316l252 316q66 84 66 182v287h73v-287z" />
    <glyph glyph-name="uni0233" unicode="&#x233;" 
d="M326 1231v74h565v-74h-565zM225 1044h74v-133q0 -119 61 -231l252 -471l254 471q59 109 60 231v133h73v-133q0 -141 -67 -268l-488 -899q-10 -16 -27.5 -36.5t-56 -42t-84.5 -21.5h-157v73h157q16 0 31 4.5t25 10.5t19 14t14.5 14.5t9.5 12.5l4 6l192 354l-276 510
q-70 131 -70 268v133z" />
    <glyph glyph-name="uni0237" unicode="&#x237;" 
d="M260 1044h557v-1073q0 -143 -101.5 -244.5t-244.5 -101.5q-121 0 -214 74t-122 188l72 23q20 -92 94 -151.5t170 -59.5q113 0 192.5 80t79.5 192v1000h-483v73z" />
    <glyph glyph-name="uni0243" unicode="&#x243;" 
d="M815 715q94 -37 154.5 -122t60.5 -192v-53q0 -143 -102.5 -245.5t-245.5 -102.5h-434v338h-160v74h160v989h422q145 0 246.5 -102.5t101.5 -245.5v-29q0 -102 -56.5 -186t-146.5 -123zM670 1327h-348v-577h348q113 0 193.5 80.5t80.5 193.5v29q0 115 -80.5 194.5
t-193.5 79.5zM956 348v53q0 115 -80.5 195t-193.5 80h-360v-264h307v-74h-307v-264h360q113 0 193.5 80.5t80.5 193.5z" />
    <glyph glyph-name="uni0244" unicode="&#x244;" 
d="M1157 799v-74h-147v-395q0 -145 -102.5 -246.5t-248.5 -101.5h-98q-143 0 -245.5 102t-102.5 246v395h-154v74h154v602h74v-602h649v602h74v-602h147zM936 330v395h-649v-395q0 -113 79.5 -194t194.5 -81h98q115 0 196 80t81 195z" />
    <glyph glyph-name="uni0245" unicode="&#x245;" 
d="M195 0v274q0 147 51 283l317 844h92l316 -844q51 -135 51 -283v-274h-74v274q0 137 -47 261l-293 782q-256 -686 -293 -782q-47 -131 -47 -261v-274h-73z" />
    <glyph glyph-name="uni024C" unicode="&#x24c;" 
d="M936 377q100 -106 100 -248v-129h-73v129q0 113 -80 199l-258 274h-297v-602h-74v602h-154v74h154v725h422q145 0 246.5 -102.5t101.5 -245.5v-103q0 -131 -86 -229t-215 -115zM328 1327v-651h348q115 0 194.5 80t79.5 194v103q0 115 -79.5 194.5t-194.5 79.5h-348z" />
    <glyph glyph-name="uni0250" unicode="&#x250;" 
d="M655 1063q143 0 246 -101.5t103 -246.5v-385q0 -145 -102.5 -246.5t-246.5 -101.5h-57q-184 0 -291 157v-139h-74v1044h74v-139q106 158 291 158h57zM930 330v385q0 115 -80 194.5t-195 79.5h-73q-115 0 -195 -81t-80 -193v-385q0 -113 80 -194t195 -81h73q115 0 195 80
t80 195z" />
    <glyph glyph-name="uni0251" unicode="&#x251;" 
d="M909 1044h74v-1044h-74v139q-106 -158 -291 -157h-57q-143 0 -245.5 101t-102.5 247v385q0 145 102.5 246.5t245.5 101.5h57q184 0 291 -158v139zM635 55q115 0 194.5 81t79.5 194v385q0 113 -79.5 193.5t-194.5 80.5h-74q-115 0 -194.5 -80t-79.5 -194v-385
q0 -115 79.5 -195t194.5 -80h74z" />
    <glyph glyph-name="uni0252" unicode="&#x252;" 
d="M655 1063q143 0 246 -101.5t103 -246.5v-385q0 -145 -102.5 -246.5t-246.5 -101.5h-57q-184 0 -291 157v-139h-74v1044h74v-139q106 158 291 158h57zM930 330v385q0 115 -80 194.5t-195 79.5h-73q-115 0 -195 -81t-80 -193v-385q0 -113 80 -194t195 -81h73q115 0 195 80
t80 195z" />
    <glyph glyph-name="uni0254" unicode="&#x254;" 
d="M975 330q0 -145 -102.5 -246.5t-245.5 -101.5h-74q-121 0 -215 74.5t-123 189.5l72 20q23 -92 96.5 -151.5t169.5 -59.5h74q115 0 194.5 81t79.5 194v385q0 113 -80 193.5t-194 80.5h-74q-96 0 -170 -59.5t-96 -151.5l-72 21q29 115 123 189.5t215 74.5h74
q143 0 245.5 -101.5t102.5 -246.5v-385z" />
    <glyph glyph-name="uni0258" unicode="&#x258;" 
d="M639 1063q143 0 245.5 -101.5t102.5 -246.5v-385q0 -143 -102.5 -245.5t-245.5 -102.5h-74q-121 0 -215 74.5t-123 189.5l72 20q23 -92 96.5 -151.5t169.5 -59.5h74q115 0 194.5 80t79.5 195v188h-696v197q0 145 102.5 246.5t245.5 101.5h74zM913 592v123
q0 115 -79.5 194.5t-194.5 79.5h-74q-115 0 -194.5 -81t-79.5 -193v-123h622z" />
    <glyph glyph-name="uni0259" unicode="&#x259;" 
d="M639 -18h-74q-143 0 -245.5 101t-102.5 247v196h696v189q0 115 -79.5 194.5t-194.5 79.5h-74q-96 0 -169.5 -59.5t-96.5 -151.5l-72 21q29 115 123 189.5t215 74.5h74q143 0 245.5 -102.5t102.5 -245.5v-385q0 -145 -102.5 -246.5t-245.5 -101.5zM913 453h-622v-123
q0 -113 80 -194t194 -81h74q115 0 194.5 80t79.5 195v123z" />
    <glyph glyph-name="uni025B" unicode="&#x25b;" 
d="M936 221l70 -22q-23 -94 -102 -155.5t-179 -61.5h-203q-121 0 -206 85t-85 205q0 88 50.5 159t132.5 101q-70 33 -113 98.5t-43 145.5q0 119 84 203t203 84h182q98 0 174 -59.5t103 -149.5l-72 -20q-18 68 -74.5 111.5t-130.5 43.5h-182q-88 0 -150.5 -62.5t-62.5 -150.5
t61.5 -150.5t151.5 -62.5h217v-74h-240q-90 0 -153.5 -63.5t-63.5 -153.5t63.5 -153.5t153.5 -63.5h203q76 0 134.5 46t76.5 120z" />
    <glyph glyph-name="uni025C" unicode="&#x25c;" 
d="M803 532q82 -31 132 -101.5t50 -158.5q0 -121 -85 -205.5t-206 -84.5h-202q-100 0 -179.5 61t-101.5 156l70 22q18 -74 76.5 -120t134.5 -46h202q90 0 153.5 63.5t63.5 153.5t-63.5 153.5t-153.5 63.5h-239v74h217q90 0 151.5 62.5t61.5 150.5t-62.5 150.5t-150.5 62.5
h-183q-74 0 -130 -44t-74 -111l-72 20q27 90 102.5 149.5t173.5 59.5h183q119 0 202.5 -84t83.5 -203q0 -80 -42.5 -145.5t-112.5 -98.5z" />
    <glyph glyph-name="uni025E" unicode="&#x25e;" horiz-adv-x="1228" 
d="M834 530q82 -29 132 -99.5t50 -158.5q0 -121 -85 -205.5t-206 -84.5h-203q-121 0 -206 85t-85 205v504q0 119 84 203t203 84h187q119 0 202.5 -84t83.5 -203q0 -80 -42.5 -145.5t-114.5 -100.5zM725 55q90 0 153.5 63.5t63.5 153.5t-63.5 153.5t-153.5 63.5h-205v74h185
q88 0 150.5 62.5t62.5 150.5t-62.5 150.5t-150.5 62.5h-187q-88 0 -150.5 -62.5t-62.5 -150.5v-504q0 -90 63.5 -153.5t153.5 -63.5h203z" />
    <glyph glyph-name="uni025F" unicode="&#x25f;" 
d="M1026 451v-74h-209v-406q0 -143 -101.5 -244.5t-244.5 -101.5q-121 0 -214 74t-122 188l72 23q20 -92 94 -151.5t170 -59.5q113 0 192.5 80t79.5 192v406h-329v74h329v520h-483v73h557v-593h209z" />
    <glyph glyph-name="uni0261" unicode="&#x261;" 
d="M907 1044h74v-1071q0 -143 -101.5 -245.5t-246.5 -102.5h-74q-121 0 -215 75t-123 189l72 21q23 -92 96.5 -151.5t169.5 -59.5h74q115 0 194.5 81t79.5 193v252q-47 -72 -123.5 -114.5t-167.5 -42.5h-57q-143 0 -245.5 102t-102.5 246v299q0 145 101.5 246.5t246.5 101.5
h57q90 0 167 -42t124 -114v137zM633 141q115 0 194.5 81t79.5 194v299q0 115 -79.5 194.5t-194.5 79.5h-74q-113 0 -193.5 -81t-80.5 -193v-299q0 -113 80.5 -194t193.5 -81h74z" />
    <glyph glyph-name="uni0263" unicode="&#x263;" 
d="M922 1044h73v-133q0 -141 -71 -268l-273 -483l133 -238q25 -45 25 -96q0 -84 -58.5 -142.5t-142.5 -58.5t-142 58.5t-58 142.5q0 51 24 96l133 238l-272 483q-72 127 -72 268v133h74v-133q0 -119 61 -229l252 -446l252 446q61 111 62 229v133zM719 -113l-111 197
l-110 -197q-16 -27 -17 -61q0 -51 38 -89t89 -38t89 38t38 89q0 34 -16 61z" />
    <glyph glyph-name="uni0265" unicode="&#x265;" 
d="M987 1044v-1400h-74v495q-106 -158 -290 -157h-58q-143 0 -245.5 101t-102.5 247v714h74v-714q0 -115 80 -195t194 -80h74q115 0 194.5 81t79.5 194v714h74z" />
    <glyph glyph-name="uni0268" unicode="&#x268;" horiz-adv-x="1228" 
d="M688 1452v-260h-74v260h74zM688 74h354v-74h-806v74h378v411h-268v74h268v412h-311v73h385v-485h270v-74h-270v-411z" />
    <glyph glyph-name="uni0269" unicode="&#x269;" 
d="M115 971v73h438v-735q0 -104 74.5 -179t179.5 -75q92 0 162.5 57.5t87.5 147.5l71 -22q-25 -111 -114.5 -183.5t-206.5 -72.5q-137 0 -232.5 96t-95.5 231v662h-364z" />
    <glyph glyph-name="uni026B" unicode="&#x26b;" 
d="M1073 266l72 -22q-29 -115 -123 -188.5t-215 -73.5q-143 0 -244.5 101t-101.5 245v364q-55 55 -121 56q-63 0 -108.5 -44.5t-45.5 -107.5v-16h-73v16q0 94 66.5 159.5t160.5 65.5q70 0 121 -37v543h-307v74h381v-692q61 -68 129 -68q63 0 108 45t45 107v18h74v-18
q0 -94 -66.5 -160t-160.5 -66q-74 0 -129 43v-282q0 -113 79.5 -193t192.5 -80q96 0 169.5 59.5t96.5 151.5z" />
    <glyph glyph-name="uni026E" unicode="&#x26e;" horiz-adv-x="1228" 
d="M664 508q143 0 245.5 -102.5t102.5 -245.5v-168q0 -143 -102.5 -245.5t-245.5 -102.5h-160v73h160q115 0 194.5 80t79.5 195v168q0 115 -80 194.5t-194 79.5h-142v74l367 463h-531v-971h-73v1401h73v-357h623v-73l-365 -463h48z" />
    <glyph glyph-name="uni026F" unicode="&#x26f;" 
d="M1044 1044v-1044h-73v70q-68 -88 -176 -88q-63 0 -115.5 32.5t-79.5 87.5q-70 -121 -205 -120q-96 0 -165.5 68.5t-69.5 166.5v827h73v-823q0 -70 49.5 -118t116.5 -48q70 0 118 48.5t48 117.5v823h74v-823q0 -70 49 -118t117 -48q70 0 118 48.5t48 117.5v823h73z" />
    <glyph glyph-name="uni0272" unicode="&#x272;" 
d="M651 1063q143 0 245.5 -101.5t102.5 -246.5v-715h-73v715q0 115 -80 194.5t-195 79.5h-73q-115 0 -195 -81t-80 -193v-856q0 -88 -63.5 -151.5t-151.5 -63.5h-16v73h16q59 0 100 41t41 101v1185h74v-139q106 158 291 158h57z" />
    <glyph glyph-name="uni0275" unicode="&#x275;" 
d="M645 1063q145 0 246.5 -101.5t101.5 -246.5v-385q0 -143 -102.5 -245.5t-245.5 -102.5h-74q-143 0 -245.5 102t-102.5 246v385q0 145 101.5 246.5t246.5 101.5h74zM571 989q-113 0 -193.5 -81t-80.5 -193v-156h623v156q0 115 -80 194.5t-195 79.5h-74zM645 55
q115 0 195 80t80 195v155h-623v-155q0 -113 81 -194t193 -81h74z" />
    <glyph glyph-name="uni0278" unicode="&#x278;" 
d="M690 1055q145 0 246.5 -101.5t101.5 -246.5v-381q0 -143 -101 -243.5t-247 -100.5h-45v-338h-74v338h-45q-143 0 -245.5 100t-102.5 244v381q0 143 102.5 245.5t245.5 102.5h45v346h74v-346h45zM526 55h45v926h-45q-113 0 -193.5 -81t-80.5 -193v-381q0 -113 79.5 -192
t194.5 -79zM965 326v381q0 113 -81 193.5t-194 80.5h-45v-926h45q115 0 195 79t80 192z" />
    <glyph glyph-name="uni0283" unicode="&#x283;" horiz-adv-x="1222" 
d="M254 -356v73h80q98 0 167.5 70t69.5 168v1135q0 129 91.5 220t220.5 91h80v-74h-80q-96 0 -167 -69.5t-71 -167.5v-1135q0 -129 -91 -220t-220 -91h-80z" />
    <glyph glyph-name="uni0289" unicode="&#x289;" 
d="M1147 629v-74h-154v-225q0 -145 -101 -246.5t-247 -101.5h-74q-145 0 -246.5 101t-101.5 247v225h-153v74h153v415h74v-415h623v415h73v-415h154zM920 330v225h-623v-225q0 -113 81 -194t193 -81h74q115 0 195 80t80 195z" />
    <glyph glyph-name="uni028C" unicode="&#x28c;" 
d="M215 0v131q0 139 61 275l293 638h78l293 -638q61 -139 61 -275v-131h-73v131q0 121 -56 244l-264 579l-264 -579q-25 -53 -39 -113.5t-14 -95.5l-2 -35v-131h-74z" />
    <glyph glyph-name="uni028D" unicode="&#x28d;" 
d="M150 133q0 137 32 270l160 641h86l180 -747l180 747h86l160 -641q33 -133 33 -270v-133h-74v133q0 129 -30 254l-134 537l-182 -746h-78l-182 746l-133 -537q-14 -55 -21.5 -118.5t-7.5 -100.5l-2 -35v-133h-73v133z" />
    <glyph glyph-name="uni028E" unicode="&#x28e;" 
d="M991 0h-73v133q0 119 -62 232l-252 471l-254 -471q-59 -109 -59 -232v-133h-74v133q0 141 68 268l487 899q10 16 27.5 37t56.5 42.5t84 21.5h158v-74h-158q-16 0 -30.5 -4t-25 -10t-19.5 -14.5t-14 -14.5t-9 -12l-4 -6l-193 -355l277 -510q70 -131 69 -268v-133z" />
    <glyph glyph-name="uni0292" unicode="&#x292;" 
d="M651 426q145 0 246.5 -101.5t101.5 -246.5v-86q0 -145 -101 -246.5t-247 -101.5h-389v73h389q115 0 195 80t80 195v86q0 115 -80 194.5t-195 79.5h-250v74l482 545h-619v73h717v-73l-479 -545h149z" />
    <glyph glyph-name="uni0298" unicode="&#x298;" horiz-adv-x="1222" 
d="M559 1419h98q143 0 246 -102.5t103 -245.5v-741q0 -145 -101.5 -246.5t-247.5 -101.5h-98q-145 0 -246.5 101t-101.5 247v741q0 143 102.5 245.5t245.5 102.5zM559 1346q-113 0 -193.5 -81t-80.5 -194v-741q0 -113 80.5 -194t193.5 -81h98q113 0 194 81t81 194v741
q0 113 -81 194t-194 81h-98zM571 834h74v-263h-74v263z" />
    <glyph glyph-name="uni029D" unicode="&#x29d;" horiz-adv-x="1228" 
d="M741 1204v260h74v-260h-74zM1038 190h-223v-245q0 -133 -94 -226.5t-225 -93.5t-225.5 93.5t-94.5 226.5t94.5 226t225.5 93h245v707h-481v73h555v-780h223v-74zM741 190h-245q-102 0 -174 -71.5t-72 -173.5q0 -100 71.5 -173t174 -73t174 71.5t71.5 174.5v245z" />
    <glyph glyph-name="circumflex" unicode="&#x2c6;" 
d="M344 1260l234 233h63l233 -233l-53 -52l-213 211l-211 -211z" />
    <glyph glyph-name="caron" unicode="&#x2c7;" 
d="M344 1464l53 52l211 -211l213 211l53 -52l-233 -233h-63z" />
    <glyph glyph-name="breve" unicode="&#x2d8;" 
d="M393 1446h74q0 -59 41 -100t100.5 -41t100.5 40.5t41 100.5h73q0 -88 -63.5 -151.5t-151.5 -63.5t-151.5 62.5t-63.5 152.5z" />
    <glyph glyph-name="dotaccent" unicode="&#x2d9;" 
d="M571 1231v260h74v-260h-74z" />
    <glyph glyph-name="ring" unicode="&#x2da;" 
d="M393 1446q0 88 63.5 151.5t151.5 63.5t151.5 -63.5t63.5 -151.5t-63.5 -151.5t-151.5 -63.5t-151.5 62.5t-63.5 152.5zM467 1445.5q0 -59.5 41 -100t100.5 -40.5t100.5 40.5t41 100.5q0 57 -41 99t-100.5 42t-100.5 -41t-41 -100.5z" />
    <glyph glyph-name="ogonek" unicode="&#x2db;" 
d="M555 0h74v-141q0 -59 42 -100.5t99 -41.5h16v-73h-16q-90 0 -152.5 63.5t-62.5 151.5v141z" />
    <glyph glyph-name="tilde" unicode="&#x2dc;" 
d="M219 1225v16q0 94 66.5 159.5t160.5 65.5q109 0 170 -84q76 -96 154 -96q63 0 108.5 45t45.5 107v18h73v-18q0 -94 -66.5 -160t-160.5 -66q-109 0 -170 86q-72 94 -154 95q-63 0 -108 -44t-45 -108v-16h-74z" />
    <glyph glyph-name="hungarumlaut" unicode="&#x2dd;" 
d="M383 1155l-53 53l231 232l53 -54zM655 1155l-53 53l232 232l53 -54z" />
    <glyph glyph-name="gravecomb" unicode="&#x300;" horiz-adv-x="0" 
d="M244 1155l-232 231l54 54l231 -232z" />
    <glyph glyph-name="acutecomb" unicode="&#x301;" horiz-adv-x="0" 
d="M53 1155l-53 53l231 232l54 -54z" />
    <glyph glyph-name="uni0302" unicode="&#x302;" horiz-adv-x="0" 
d="M0 1260l233 233h64l233 -233l-53 -52l-213 211l-211 -211z" />
    <glyph glyph-name="tildecomb" unicode="&#x303;" horiz-adv-x="0" 
d="M0 1225v16q0 94 66.5 159.5t160.5 65.5q109 0 170 -84q76 -96 154 -96q63 0 108.5 45t45.5 107v18h73v-18q0 -94 -66.5 -160t-160.5 -66q-109 0 -170 86q-72 94 -154 95q-63 0 -108 -44t-45 -108v-16h-74z" />
    <glyph glyph-name="uni0304" unicode="&#x304;" horiz-adv-x="0" 
d="M0 1231v74h565v-74h-565z" />
    <glyph glyph-name="uni0306" unicode="&#x306;" horiz-adv-x="0" 
d="M0 1446h74q0 -59 41 -100t100 -41t100 40.5t41 100.5h74q0 -88 -63.5 -151.5t-151.5 -63.5t-151.5 62.5t-63.5 152.5z" />
    <glyph glyph-name="uni0307" unicode="&#x307;" horiz-adv-x="0" 
d="M0 1231v260h74v-260h-74z" />
    <glyph glyph-name="uni0308" unicode="&#x308;" horiz-adv-x="0" 
d="M0 1231v260h74v-260h-74zM246 1231v260h73v-260h-73z" />
    <glyph glyph-name="hookabovecomb" unicode="&#x309;" horiz-adv-x="0" 
d="M272 1358q0 -92 -65 -152l-51 51q43 43 43 101q0 59 -42 100t-100 41h-57v74h57q88 0 151.5 -63.5t63.5 -151.5z" />
    <glyph glyph-name="uni030A" unicode="&#x30a;" horiz-adv-x="0" 
d="M0 1446q0 88 63.5 151.5t151.5 63.5t151.5 -63.5t63.5 -151.5t-63.5 -151.5t-151.5 -63.5t-151.5 62.5t-63.5 152.5zM74 1445.5q0 -59.5 41 -100t100 -40.5t100 40.5t41 100.5q0 57 -41 99t-100 42t-100 -41t-41 -100.5z" />
    <glyph glyph-name="uni030B" unicode="&#x30b;" horiz-adv-x="0" 
d="M53 1155l-53 53l231 232l54 -54zM326 1155l-54 53l232 232l53 -54z" />
    <glyph glyph-name="uni030C" unicode="&#x30c;" horiz-adv-x="0" 
d="M0 1464l53 52l211 -211l213 211l53 -52l-233 -233h-64z" />
    <glyph glyph-name="uni0312" unicode="&#x312;" horiz-adv-x="0" 
d="M262 1229h-262v80q0 111 65.5 199.5t167.5 121.5l21 -69q-80 -29 -130 -98.5t-50 -159.5h188v-74z" />
    <glyph glyph-name="uni031B" unicode="&#x31b;" horiz-adv-x="0" 
d="M0 782v74h8q57 0 99.5 41t42.5 100v47h73v-47q0 -88 -63.5 -151.5t-151.5 -63.5h-8z" />
    <glyph glyph-name="dotbelowcomb" unicode="&#x323;" horiz-adv-x="0" 
d="M0 -446v260h74v-260h-74z" />
    <glyph glyph-name="uni0326" unicode="&#x326;" horiz-adv-x="0" 
d="M0 -186h262v-80q0 -111 -65.5 -200t-167.5 -122l-21 70q80 29 130 98.5t50 159.5h-188v74z" />
    <glyph glyph-name="uni0327" unicode="&#x327;" horiz-adv-x="0" 
d="M76 -109q78 -12 130 -72.5t52 -140.5q0 -88 -63.5 -151.5t-151.5 -63.5h-43v74h43q59 0 100 41t41 100.5t-41 100.5t-100 41h-41v180h74v-109z" />
    <glyph glyph-name="uni0328" unicode="&#x328;" horiz-adv-x="0" 
d="M0 0h74v-141q0 -59 41 -100.5t100 -41.5h16v-73h-16q-88 0 -151.5 63.5t-63.5 151.5v141z" />
    <glyph glyph-name="uni032C" unicode="&#x32c;" horiz-adv-x="0" 
d="M0 -262l53 51l211 -211l213 211l53 -51l-233 -234h-64z" />
    <glyph glyph-name="uni032D" unicode="&#x32d;" horiz-adv-x="0" 
d="M0 -344l233 233h64l233 -233l-53 -51l-213 211l-211 -211z" />
    <glyph glyph-name="uni0331" unicode="&#x331;" horiz-adv-x="0" 
d="M0 -258v74h565v-74h-565z" />
    <glyph glyph-name="uni0335" unicode="&#x335;" horiz-adv-x="0" 
d="M0 559h612v-74h-612v74z" />
    <glyph glyph-name="uni0336" unicode="&#x336;" horiz-adv-x="0" 
d="M0 559h709v-74h-709v74z" />
    <glyph glyph-name="uni0337" unicode="&#x337;" horiz-adv-x="0" 
d="M698 1114l64 -39l-699 -1141l-63 39z" />
    <glyph glyph-name="uni0338" unicode="&#x338;" horiz-adv-x="0" 
d="M893 1448l61 -39l-891 -1456l-63 37z" />
    <glyph glyph-name="tonos" unicode="&#x384;" 
d="M647 1141l-65 33l133 296l67 -32z" />
    <glyph glyph-name="dieresistonos" unicode="&#x385;" 
d="M649 1526l-65 33l133 296l67 -32zM451 1231v260h73v-260h-73zM696 1231v260h74v-260h-74z" />
    <glyph glyph-name="Alphatonos" unicode="&#x386;" 
d="M403 1386l-135 -296l-65 32l133 297zM1001 559q37 -137 37 -289v-270h-73v270q0 29 -7 101h-667q-6 -72 -6 -101v-270h-74v270q0 137 37 289l196 723q16 61 66.5 99t114.5 38q66 0 114.5 -38t65.5 -99zM301 444h647q-6 49 -18 95l-197 723q-10 37 -38.5 60.5t-69.5 23.5
t-70 -24t-39 -60l-197 -723q-12 -44 -18 -95z" />
    <glyph glyph-name="Epsilontonos" unicode="&#x388;" 
d="M96 1087l-65 33l133 297l67 -33zM274 0v1401h779v-74h-705v-590h639v-73h-639v-590h705v-74h-779z" />
    <glyph glyph-name="Etatonos" unicode="&#x389;" 
d="M59 1087l-65 33l133 297l68 -33zM936 1401h74v-1401h-74v664h-623v-664h-73v1401h73v-664h623v664z" />
    <glyph glyph-name="Iotatonos" unicode="&#x38a;" 
d="M109 1087l-66 33l133 297l68 -33zM248 74h348v1253h-340v74h754v-74h-340v-1253h348v-74h-770v74z" />
    <glyph glyph-name="Omicrontonos" unicode="&#x38c;" 
d="M152 1098l-66 32l133 297l68 -32zM575 -18q-145 0 -246.5 101t-101.5 247v741q0 143 102.5 245.5t245.5 102.5h99q143 0 245.5 -102.5t102.5 -245.5v-741q0 -145 -101.5 -246.5t-246.5 -101.5h-99zM575 55h99q115 0 194.5 80t79.5 195v741q0 115 -80 195t-194 80h-99
q-113 0 -193.5 -81t-80.5 -194v-741q0 -113 80.5 -194t193.5 -81z" />
    <glyph glyph-name="Upsilontonos" unicode="&#x38e;" 
d="M63 1092l-65 32l133 297l68 -32zM1016 1114q0 -106 -80 -227l-274 -342v-545h-74v545l-275 342q-8 8 -24.5 33.5t-36 82t-19.5 111.5v287h74v-287q0 -43 16.5 -89t32 -69.5t17.5 -23.5l252 -316l252 316q66 84 65 182v287h74v-287z" />
    <glyph glyph-name="Omegatonos" unicode="&#x38f;" 
d="M219 1440l68 -33l-135 -297l-66 33zM866 74h174v-74h-366v74q115 0 194.5 81t79.5 193v723q0 115 -80 195t-194 80h-99q-113 0 -193.5 -81t-80.5 -194v-723q0 -113 81 -193.5t193 -80.5v-74h-366v74h176q-158 106 -158 293v704q0 145 101.5 246.5t246.5 101.5h99
q145 0 246.5 -101t101.5 -247v-704q0 -189 -156 -293z" />
    <glyph glyph-name="iotadieresistonos" unicode="&#x390;" 
d="M555 1526l-66 33l134 296l67 -32zM356 1231v260h74v-260h-74zM602 1231v260h74v-260h-74zM115 971v73h438v-735q0 -104 74.5 -179t179.5 -75q92 0 162.5 57.5t87.5 147.5l71 -22q-25 -111 -114.5 -183.5t-206.5 -72.5q-137 0 -232.5 96t-95.5 231v662h-364z" />
    <glyph glyph-name="Alpha" unicode="&#x391;" 
d="M985 559q37 -137 37 -289v-270h-74v270q0 29 -6 101h-668q-6 -72 -6 -101v-270h-73v270q0 137 36 289l197 723q16 61 66.5 99t113.5 38q66 0 115 -38t65 -99zM285 444h647q-6 49 -19 95l-196 723q-10 37 -39 60.5t-70 23.5t-69.5 -24t-38.5 -60l-197 -723
q-12 -44 -18 -95z" />
    <glyph glyph-name="Beta" unicode="&#x392;" 
d="M815 715q94 -37 154.5 -122t60.5 -192v-53q0 -143 -102.5 -245.5t-245.5 -102.5h-434v1401h422q145 0 246.5 -102.5t101.5 -245.5v-29q0 -102 -56.5 -186t-146.5 -123zM670 1327h-348v-577h348q113 0 193.5 80.5t80.5 193.5v29q0 115 -80.5 194.5t-193.5 79.5zM956 348
v53q0 115 -80.5 195t-193.5 80h-360v-602h360q113 0 193.5 80.5t80.5 193.5z" />
    <glyph glyph-name="Gamma" unicode="&#x393;" 
d="M272 0v1401h752v-74h-678v-1327h-74z" />
    <glyph glyph-name="Delta" unicode="&#x394;" 
d="M150 0v74l409 1327h98l410 -1327v-74h-917zM227 74h762l-381 1241z" />
    <glyph glyph-name="Epsilon" unicode="&#x395;" 
d="M250 0v1401h778v-74h-704v-590h639v-73h-639v-590h704v-74h-778z" />
    <glyph glyph-name="Zeta" unicode="&#x396;" 
d="M229 1401h756v-74l-686 -1253h705v-74h-789v74l686 1253h-672v74z" />
    <glyph glyph-name="Eta" unicode="&#x397;" 
d="M920 1401h73v-1401h-73v664h-623v-664h-74v1401h74v-664h623v664z" />
    <glyph glyph-name="Theta" unicode="&#x398;" 
d="M559 -18q-145 0 -246.5 101t-101.5 247v741q0 143 102.5 245.5t245.5 102.5h98q143 0 246 -102.5t103 -245.5v-741q0 -145 -101.5 -246.5t-247.5 -101.5h-98zM559 55h98q115 0 195 80t80 195v741q0 115 -80 195t-195 80h-98q-113 0 -193.5 -81t-80.5 -194v-741
q0 -113 80.5 -194t193.5 -81zM395 668v73h422v-73h-422z" />
    <glyph glyph-name="Iota" unicode="&#x399;" 
d="M223 74h348v1253h-340v74h754v-74h-340v-1253h348v-74h-770v74z" />
    <glyph glyph-name="Kappa" unicode="&#x39a;" 
d="M236 1401h73v-658h244l299 330q29 33 55.5 93.5t26.5 105.5v129h74v-129q0 -51 -30 -127t-71 -121l-293 -317l312 -330q41 -43 70.5 -119t29.5 -129v-129h-74v129q0 47 -26.5 107.5t-55.5 91.5l-321 342h-240v-670h-73v1401z" />
    <glyph glyph-name="Lambda" unicode="&#x39b;" 
d="M195 0v270q0 137 36 289l197 723q16 61 66.5 99t113.5 38q66 0 115 -38t65 -99l197 -723q37 -137 37 -289v-270h-74v270q0 131 -35 269l-196 723q-10 37 -39 60.5t-70 23.5t-69.5 -24t-38.5 -60l-197 -723q-35 -137 -35 -269v-270h-73z" />
    <glyph glyph-name="Mu" unicode="&#x39c;" 
d="M178 0v1401h98l332 -864l332 864h98v-1401h-73v1266l-318 -824h-78l-317 824v-1266h-74z" />
    <glyph glyph-name="Nu" unicode="&#x39d;" 
d="M205 1401h92l641 -1270v1270h74v-1401h-92l-641 1270v-1270h-74v1401z" />
    <glyph glyph-name="Xi" unicode="&#x39e;" 
d="M215 1401h786v-74h-786v74zM276 737h664v-73h-664v73zM215 74h786v-74h-786v74z" />
    <glyph glyph-name="Omicron" unicode="&#x39f;" 
d="M559 -18q-145 0 -246.5 101t-101.5 247v741q0 143 102.5 245.5t245.5 102.5h98q143 0 246 -102.5t103 -245.5v-741q0 -145 -101.5 -246.5t-247.5 -101.5h-98zM559 55h98q115 0 195 80t80 195v741q0 115 -80 195t-195 80h-98q-113 0 -193.5 -81t-80.5 -194v-741
q0 -113 80.5 -194t193.5 -81z" />
    <glyph glyph-name="Pi" unicode="&#x3a0;" 
d="M223 0v1401h770v-1401h-73v1327h-623v-1327h-74z" />
    <glyph glyph-name="Rho" unicode="&#x3a1;" 
d="M272 0v1401h422q145 0 246.5 -102.5t101.5 -245.5v-127q0 -143 -102 -245.5t-246 -102.5h-348v-578h-74zM346 651h348q113 0 194 81t81 194v127q0 115 -81 194.5t-194 79.5h-348v-676z" />
    <glyph glyph-name="Sigma" unicode="&#x3a3;" 
d="M229 1401h777v-74h-687l390 -627l-406 -626h721v-74h-811v74l408 626l-392 627v74z" />
    <glyph glyph-name="Tau" unicode="&#x3a4;" 
d="M184 1401h848v-74h-387v-1327h-74v1327h-387v74z" />
    <glyph glyph-name="Upsilon" unicode="&#x3a5;" 
d="M999 1114q0 -106 -79 -227l-275 -342v-545h-74v545l-274 342q-8 8 -24.5 33.5t-36 82t-19.5 111.5v287h74v-287q0 -43 16.5 -89t31.5 -69.5t17 -23.5l252 -316l252 316q66 84 66 182v287h73v-287z" />
    <glyph glyph-name="Phi" unicode="&#x3a6;" 
d="M690 1237q145 0 246.5 -102.5t101.5 -245.5v-381q0 -143 -101 -243.5t-247 -100.5h-45v-164h-74v164h-45q-143 0 -245.5 100.5t-102.5 243.5v381q0 143 102.5 245.5t245.5 102.5h45v164h74v-164h45zM526 238h45v925h-45q-113 0 -193.5 -79.5t-80.5 -194.5v-381
q0 -113 79.5 -191.5t194.5 -78.5zM965 508v381q0 115 -81 194.5t-194 79.5h-45v-925h45q115 0 195 78.5t80 191.5z" />
    <glyph glyph-name="Chi" unicode="&#x3a7;" 
d="M227 1401h74v-129q0 -47 15.5 -93t31.5 -69l17 -25l243 -315l244 315q63 82 63 187v129h74v-129q0 -57 -19.5 -114.5t-35.5 -83t-25 -34.5l-256 -329l271 -346q35 -45 59.5 -117t24.5 -121v-127h-74v127q0 35 -19.5 94.5t-48.5 97.5l-258 334l-258 -334q-29 -39 -48 -98
t-19 -94v-127h-74v127q0 49 24.5 120.5t59.5 117.5l270 346l-256 329q-80 119 -80 232v129z" />
    <glyph glyph-name="Psi" unicode="&#x3a8;" 
d="M965 1401h73v-715q0 -143 -102 -245.5t-246 -102.5h-45v-338h-74v338h-45q-143 0 -245.5 102.5t-102.5 245.5v715h74v-715q0 -113 81 -193.5t193 -80.5h45v989h74v-989h45q113 0 194 80.5t81 193.5v715z" />
    <glyph glyph-name="Omega" unicode="&#x3a9;" 
d="M850 74h174v-74h-367v74q115 0 195 81t80 193v723q0 115 -80 195t-195 80h-98q-113 0 -193.5 -81t-80.5 -194v-723q0 -113 80.5 -193.5t193.5 -80.5v-74h-366v74h176q-158 106 -158 293v704q0 145 101.5 246.5t246.5 101.5h98q145 0 247 -101t102 -247v-704
q0 -189 -156 -293z" />
    <glyph glyph-name="Iotadieresis" unicode="&#x3aa;" 
d="M449 1548v260h73v-260h-73zM694 1548v260h74v-260h-74zM223 74h348v1253h-340v74h754v-74h-340v-1253h348v-74h-770v74z" />
    <glyph glyph-name="Upsilondieresis" unicode="&#x3ab;" 
d="M449 1548v260h73v-260h-73zM694 1548v260h74v-260h-74zM999 1114q0 -106 -79 -227l-275 -342v-545h-74v545l-274 342q-8 8 -24.5 33.5t-36 82t-19.5 111.5v287h74v-287q0 -43 16.5 -89t31.5 -69.5t17 -23.5l252 -316l252 316q66 84 66 182v287h73v-287z" />
    <glyph glyph-name="alphatonos" unicode="&#x3ac;" 
d="M782 1438l-135 -297l-65 33l133 296zM1081 74h29v-74h-29q-72 0 -127 42t-71 110q-47 -78 -126 -124t-173 -46h-58q-143 0 -245.5 102t-102.5 246v385q0 145 101.5 246.5t246.5 101.5h58q90 0 166.5 -42t123.5 -114v137h74v-839q0 -53 39 -92t94 -39zM600 55
q115 0 194.5 80t79.5 195v385q0 115 -79.5 194.5t-194.5 79.5h-74q-113 0 -193.5 -81t-80.5 -193v-385q0 -113 81 -194t193 -81h74z" />
    <glyph glyph-name="epsilontonos" unicode="&#x3ad;" 
d="M782 1438l-135 -297l-65 33l133 296zM936 221l70 -22q-23 -94 -102 -155.5t-179 -61.5h-203q-121 0 -206 85t-85 205q0 88 50.5 159t132.5 101q-70 33 -113 98.5t-43 145.5q0 119 84 203t203 84h182q98 0 174 -59.5t103 -149.5l-72 -20q-18 68 -74.5 111.5t-130.5 43.5
h-182q-88 0 -150.5 -62.5t-62.5 -150.5t61.5 -150.5t151.5 -62.5h217v-74h-240q-90 0 -153.5 -63.5t-63.5 -153.5t63.5 -153.5t153.5 -63.5h203q76 0 134.5 46t76.5 120z" />
    <glyph glyph-name="etatonos" unicode="&#x3ae;" 
d="M782 1438l-135 -297l-65 33l133 296zM655 1063q143 0 246 -101.5t103 -246.5v-1071h-74v1071q0 115 -80 194.5t-195 79.5h-73q-115 0 -195 -81t-80 -193v-715h-74v840q0 53 -38.5 92t-94.5 39h-28v73h28q72 0 127.5 -41.5t71.5 -107.5q47 76 127 122t172 46h57z" />
    <glyph glyph-name="iotatonos" unicode="&#x3af;" 
d="M555 1141l-66 33l134 296l67 -32zM115 971v73h438v-735q0 -104 74.5 -179t179.5 -75q92 0 162.5 57.5t87.5 147.5l71 -22q-25 -111 -114.5 -183.5t-206.5 -72.5q-137 0 -232.5 96t-95.5 231v662h-364z" />
    <glyph glyph-name="upsilondieresistonos" unicode="&#x3b0;" 
d="M653 1526l-65 33l133 296l67 -32zM455 1231v260h73v-260h-73zM700 1231v260h74v-260h-74zM229 1044h74v-714q0 -113 80 -194t195 -81h73q115 0 195 81t80 194v377q0 94 -58.5 168.5t-150.5 97.5l20 71q115 -29 188.5 -123t73.5 -214v-377q0 -145 -101 -246.5t-247 -101.5
h-73q-143 0 -246 101t-103 247v714z" />
    <glyph glyph-name="alpha" unicode="&#x3b1;" 
d="M1081 74h29v-74h-29q-72 0 -127 42t-71 110q-47 -78 -126 -124t-173 -46h-58q-143 0 -245.5 102t-102.5 246v385q0 145 101.5 246.5t246.5 101.5h58q90 0 166.5 -42t123.5 -114v137h74v-839q0 -53 39 -92t94 -39zM600 55q115 0 194.5 80t79.5 195v385q0 115 -79.5 194.5
t-194.5 79.5h-74q-113 0 -193.5 -81t-80.5 -193v-385q0 -113 81 -194t193 -81h74z" />
    <glyph glyph-name="beta" unicode="&#x3b2;" 
d="M821 725q96 -37 155.5 -123t59.5 -192v-80q0 -143 -102.5 -245.5t-245.5 -102.5h-57q-184 0 -291 157v-495h-74v1417q0 145 101.5 246.5t246.5 101.5h62q143 0 245.5 -102.5t102.5 -245.5v-27q0 -102 -56.5 -186t-146.5 -123zM963 330v80q0 115 -80 194.5t-195 79.5h-162
v74h150q115 0 194.5 81t79.5 195v27q0 115 -79.5 194.5t-194.5 79.5h-62q-115 0 -194.5 -79.5t-79.5 -194.5v-731q0 -113 80 -194t194 -81h74q115 0 195 81t80 194z" />
    <glyph glyph-name="gamma" unicode="&#x3b3;" 
d="M995 911q0 -141 -67 -268l-283 -520v-479h-74v479l-282 520q-68 127 -68 268v133h74v-133q0 -123 59 -231l254 -471l254 471q59 109 60 231v133h73v-133z" />
    <glyph glyph-name="delta" unicode="&#x3b4;" 
d="M1004 557v-2v-225q0 -143 -102.5 -245.5t-246.5 -102.5h-73q-145 0 -247 102t-102 246v217q0 139 96.5 240.5t235.5 107.5l-172 76q-61 29 -97 83t-36 122q0 94 65.5 159.5t157.5 65.5h385v-74h-385q-63 0 -106 -44t-43 -107q0 -98 90 -140l377 -164q70 -31 119 -90
q84 -98 84 -223v-2zM930 330v225v2q0 76 -39 140.5t-105 99.5q-2 2 -8 4t-10 4l-16 6q-43 18 -97 18h-73q-115 0 -195 -80.5t-80 -193.5v-225q0 -113 81 -194t194 -81h73q113 0 194 81t81 194z" />
    <glyph glyph-name="epsilon" unicode="&#x3b5;" 
d="M936 221l70 -22q-23 -94 -102 -155.5t-179 -61.5h-203q-121 0 -206 85t-85 205q0 88 50.5 159t132.5 101q-70 33 -113 98.5t-43 145.5q0 119 84 203t203 84h182q98 0 174 -59.5t103 -149.5l-72 -20q-18 68 -74.5 111.5t-130.5 43.5h-182q-88 0 -150.5 -62.5t-62.5 -150.5
t61.5 -150.5t151.5 -62.5h217v-74h-240q-90 0 -153.5 -63.5t-63.5 -153.5t63.5 -153.5t153.5 -63.5h203q76 0 134.5 46t76.5 120z" />
    <glyph glyph-name="zeta" unicode="&#x3b6;" 
d="M209 350q0 150 84 248l616 729h-659v74h758v-74l-662 -782q-63 -78 -63 -195q0 -113 79.5 -193.5t194.5 -82.5h266q86 0 145.5 -59.5t59.5 -145.5v-225h-74v225q0 55 -37.5 93t-93.5 38h-266q-145 2 -246.5 104.5t-101.5 245.5z" />
    <glyph glyph-name="eta" unicode="&#x3b7;" 
d="M655 1063q143 0 246 -101.5t103 -246.5v-1071h-74v1071q0 115 -80 194.5t-195 79.5h-73q-115 0 -195 -81t-80 -193v-715h-74v840q0 53 -38.5 92t-94.5 39h-28v73h28q72 0 127.5 -41.5t71.5 -107.5q47 76 127 122t172 46h57z" />
    <glyph glyph-name="theta" unicode="&#x3b8;" 
d="M657 1419q143 0 246 -102.5t103 -245.5v-741q0 -145 -101.5 -246.5t-247.5 -101.5h-98q-145 0 -246.5 101t-101.5 247v741q0 143 102.5 245.5t245.5 102.5h98zM559 1346q-113 0 -193.5 -81t-80.5 -194v-334h647v334q0 115 -80 195t-195 80h-98zM657 55q115 0 195 80
t80 195v334h-647v-334q0 -113 80.5 -194t193.5 -81h98z" />
    <glyph glyph-name="iota" unicode="&#x3b9;" 
d="M115 971v73h438v-735q0 -104 74.5 -179t179.5 -75q92 0 162.5 57.5t87.5 147.5l71 -22q-25 -111 -114.5 -183.5t-206.5 -72.5q-137 0 -232.5 96t-95.5 231v662h-364z" />
    <glyph glyph-name="kappa" unicode="&#x3ba;" 
d="M254 1044h74v-491h274l207 170q33 29 63.5 85t30.5 103v133h74v-133q0 -47 -27.5 -118.5t-91.5 -124.5l-188 -152l219 -170q37 -27 71.5 -87t34.5 -130v-129h-73v129q0 43 -20.5 83t-38 58.5t-21.5 18.5l-240 190h-274v-479h-74v1044z" />
    <glyph glyph-name="lambda" unicode="&#x3bb;" 
d="M236 1327v74h129q66 0 106.5 -35t56.5 -74l514 -1149q16 -37 49 -53t58 -16h35v-74h-35q-47 0 -97.5 27.5t-76.5 87.5l-377 841l-258 -581q-55 -119 -55 -244v-131h-74v131q0 135 61 275l287 641l-98 217q-31 63 -96 63h-129z" />
    <glyph glyph-name="mu" unicode="&#x3bc;" 
d="M1102 74h28v-74h-28q-72 0 -127 43t-74 109q-43 -76 -122 -123t-171 -47h-49q-90 0 -166 43t-121 116v-497h-73v1400h73v-714q0 -113 81 -194t194 -81h74q113 0 193.5 81t80.5 194v714h74v-839q0 -53 39 -92t94 -39z" />
    <glyph glyph-name="nu" unicode="&#x3bd;" 
d="M215 1044h74v-131q0 -125 55 -243l264 -580l264 580q55 123 56 243v131h73v-131q0 -135 -61 -274l-293 -639h-78l-293 639q-61 135 -61 274v131z" />
    <glyph glyph-name="xi" unicode="&#x3be;" 
d="M823 74q86 0 145.5 -60.5t59.5 -144.5v-225h-74v225q0 53 -37.5 92t-93.5 39h-209q-145 0 -246.5 101.5t-101.5 246.5v53q0 104 60.5 190.5t154.5 123.5q-90 39 -146 123t-56 186v29q0 143 101 245.5t247 102.5h344v-74h-344q-113 0 -194 -81t-81 -193v-29
q0 -115 80 -194.5t195 -79.5h227v-74h-240q-113 0 -193.5 -81t-80.5 -194v-53q0 -115 80 -194.5t194 -79.5h209z" />
    <glyph glyph-name="omicron" unicode="&#x3bf;" 
d="M571 1063h74q145 0 246.5 -101.5t101.5 -246.5v-385q0 -143 -102.5 -245.5t-245.5 -102.5h-74q-143 0 -245.5 102t-102.5 246v385q0 145 101.5 246.5t246.5 101.5zM571 989q-113 0 -193.5 -81t-80.5 -193v-385q0 -113 81 -194t193 -81h74q115 0 195 80t80 195v385
q0 115 -80 194.5t-195 79.5h-74z" />
    <glyph glyph-name="pi" unicode="&#x3c0;" 
d="M1104 971h-207v-766q0 -55 39 -93t92 -38h29v-74h-29q-84 0 -144.5 59.5t-60.5 145.5v766h-442v-971h-74v971h-207v73h1004v-73z" />
    <glyph glyph-name="rho" unicode="&#x3c1;" 
d="M653 1063q145 0 246.5 -101.5t101.5 -246.5v-385q0 -143 -102 -245.5t-246 -102.5h-57q-184 0 -291 157v-495h-74v1071q0 145 101.5 246.5t247.5 101.5h73zM928 330v385q0 113 -81 193.5t-194 80.5h-73q-113 0 -194 -81t-81 -193v-385q0 -113 81 -194t194 -81h73
q113 0 194 81t81 194z" />
    <glyph glyph-name="sigma1" unicode="&#x3c2;" 
d="M233 348v367q0 145 102.5 246.5t246.5 101.5h73q143 0 246 -101.5t103 -246.5h-74q0 115 -80 194.5t-195 79.5h-73q-115 0 -195 -81t-80 -193v-367q0 -115 80 -194.5t195 -79.5h217q86 0 145.5 -60.5t59.5 -144.5v-225h-74v225q0 53 -38 92t-93 39h-217
q-143 0 -246 102.5t-103 245.5z" />
    <glyph glyph-name="sigma" unicode="&#x3c3;" 
d="M1073 1044v-73h-250q158 -106 158 -293v-348q0 -145 -101.5 -246.5t-246.5 -101.5h-74q-145 0 -246.5 101t-101.5 247v366q0 143 101.5 245.5t246.5 102.5h514zM907 696q0 113 -81 194t-193 81h-74q-115 0 -194.5 -81t-79.5 -194v-366q0 -115 79.5 -195t194.5 -80h74
q113 0 193.5 81t80.5 194v366z" />
    <glyph glyph-name="tau" unicode="&#x3c4;" 
d="M1008 971h-379v-766q0 -53 39 -92t92 -39h61v-74h-61q-84 0 -144.5 60.5t-60.5 144.5v766h-354v73h807v-73z" />
    <glyph glyph-name="upsilon" unicode="&#x3c5;" 
d="M229 1044h74v-714q0 -113 80 -194t195 -81h73q115 0 195 81t80 194v377q0 94 -58.5 168.5t-150.5 97.5l20 71q115 -29 188.5 -123t73.5 -214v-377q0 -145 -101 -246.5t-247 -101.5h-73q-143 0 -246 101t-103 247v714z" />
    <glyph glyph-name="phi" unicode="&#x3c6;" 
d="M690 1055q145 0 246.5 -101.5t101.5 -246.5v-381q0 -143 -101 -243.5t-247 -100.5h-45v-338h-74v338h-45q-143 0 -245.5 100t-102.5 244v381q0 143 102.5 245.5t245.5 102.5h45v346h74v-346h45zM526 55h45v926h-45q-113 0 -193.5 -81t-80.5 -193v-381q0 -113 79.5 -192
t194.5 -79zM965 326v381q0 113 -81 193.5t-194 80.5h-45v-926h45q115 0 195 79t80 192z" />
    <glyph glyph-name="chi" unicode="&#x3c7;" 
d="M227 1044h74v-129q0 -47 15.5 -93t31.5 -68l17 -25l243 -315l244 315q63 82 63 186v129h74v-129q0 -57 -19.5 -114.5t-35.5 -83t-25 -33.5l-256 -330l271 -346q35 -45 59.5 -116.5t24.5 -120.5v-127h-74v127q0 35 -19.5 94t-48.5 98l-258 334l-258 -334
q-29 -39 -48 -98.5t-19 -93.5v-127h-74v127q0 49 24.5 120.5t59.5 116.5l270 346l-256 330q-80 121 -80 231v129z" />
    <glyph glyph-name="psi" unicode="&#x3c8;" 
d="M965 1044h73v-714q0 -143 -102 -245.5t-246 -102.5h-45v-338h-74v338h-45q-143 0 -245.5 102t-102.5 246v714h74v-714q0 -113 81 -194t193 -81h45v1346h74v-1346h45q113 0 194 81t81 194v714z" />
    <glyph glyph-name="omega" unicode="&#x3c9;" 
d="M868 1044q80 -18 131.5 -82.5t51.5 -150.5v-594q0 -98 -69 -166.5t-167 -68.5q-66 0 -121 33.5t-86 90.5q-31 -57 -86 -90.5t-121 -33.5q-98 0 -166.5 68.5t-68.5 166.5v594q0 86 51 150.5t131 82.5l21 -71q-55 -12 -92 -57.5t-37 -104.5v-590q0 -70 48 -118t117.5 -48
t117.5 48.5t48 117.5v502h74v-502q0 -70 48 -118t118 -48t118 48.5t48 117.5v590q0 59 -36 104.5t-93 57.5z" />
    <glyph glyph-name="iotadieresis" unicode="&#x3ca;" 
d="M356 1192v260h74v-260h-74zM602 1192v260h74v-260h-74zM115 971v73h438v-735q0 -104 74.5 -179t179.5 -75q92 0 162.5 57.5t87.5 147.5l71 -22q-25 -111 -114.5 -183.5t-206.5 -72.5q-137 0 -232.5 96t-95.5 231v662h-364z" />
    <glyph glyph-name="upsilondieresis" unicode="&#x3cb;" 
d="M455 1192v260h73v-260h-73zM700 1192v260h74v-260h-74zM229 1044h74v-714q0 -113 80 -194t195 -81h73q115 0 195 81t80 194v377q0 94 -58.5 168.5t-150.5 97.5l20 71q115 -29 188.5 -123t73.5 -214v-377q0 -145 -101 -246.5t-247 -101.5h-73q-143 0 -246 101t-103 247
v714z" />
    <glyph glyph-name="omicrontonos" unicode="&#x3cc;" 
d="M647 1141l-65 33l133 296l67 -32zM571 1063h74q145 0 246.5 -101.5t101.5 -246.5v-385q0 -143 -102.5 -245.5t-245.5 -102.5h-74q-143 0 -245.5 102t-102.5 246v385q0 145 101.5 246.5t246.5 101.5zM571 989q-113 0 -193.5 -81t-80.5 -193v-385q0 -113 81 -194t193 -81
h74q115 0 195 80t80 195v385q0 115 -80 194.5t-195 79.5h-74z" />
    <glyph glyph-name="upsilontonos" unicode="&#x3cd;" 
d="M653 1141l-65 33l133 296l67 -32zM229 1044h74v-714q0 -113 80 -194t195 -81h73q115 0 195 81t80 194v377q0 94 -58.5 168.5t-150.5 97.5l20 71q115 -29 188.5 -123t73.5 -214v-377q0 -145 -101 -246.5t-247 -101.5h-73q-143 0 -246 101t-103 247v714z" />
    <glyph glyph-name="omegatonos" unicode="&#x3ce;" 
d="M782 1438l-135 -297l-65 33l133 296zM868 1044q80 -18 131.5 -82.5t51.5 -150.5v-594q0 -98 -69 -166.5t-167 -68.5q-66 0 -121 33.5t-86 90.5q-31 -57 -86 -90.5t-121 -33.5q-98 0 -166.5 68.5t-68.5 166.5v594q0 86 51 150.5t131 82.5l21 -71q-55 -12 -92 -57.5
t-37 -104.5v-590q0 -70 48 -118t117.5 -48t117.5 48.5t48 117.5v502h74v-502q0 -70 48 -118t118 -48t118 48.5t48 117.5v590q0 59 -36 104.5t-93 57.5z" />
    <glyph glyph-name="afii10023" unicode="&#x401;" 
d="M479 1548v260h74v-260h-74zM725 1548v260h74v-260h-74zM250 0v1401h778v-74h-704v-590h639v-73h-639v-590h704v-74h-778z" />
    <glyph glyph-name="afii10051" unicode="&#x402;" 
d="M698 846q145 0 247 -101.5t102 -246.5v-150q0 -143 -101.5 -245.5t-247.5 -102.5h-88v74h88q115 0 195 79.5t80 194.5v150q0 115 -80 194.5t-195 79.5h-73q-113 0 -194 -81t-81 -193v-498h-74v1327h-239v74h760v-74h-447v-639q106 158 291 158h57z" />
    <glyph glyph-name="afii10052" unicode="&#x403;" 
d="M664 1511l-54 54l232 231l53 -53zM272 0v1401h752v-74h-678v-1327h-74z" />
    <glyph glyph-name="afii10053" unicode="&#x404;" 
d="M676 55q96 0 170 58.5t96 150.5l72 -20q-29 -115 -123 -188.5t-215 -73.5h-98q-145 0 -247 101t-102 247v741q0 143 101.5 245.5t247.5 102.5h98q121 0 215 -74.5t123 -187.5l-72 -20q-23 92 -96.5 150.5t-169.5 58.5h-98q-113 0 -194 -81t-81 -194v-334h553v-73h-553
v-334q0 -113 80 -194t195 -81h98z" />
    <glyph glyph-name="afii10054" unicode="&#x405;" 
d="M182 244l70 20q23 -90 97.5 -149.5t170.5 -59.5h135q113 0 194 81t81 194q0 221 -228 307l-204 80q-141 51 -215 136t-74 218q0 145 101.5 246.5t246.5 101.5h92q121 0 215 -73.5t123 -188.5l-72 -20q-23 92 -96.5 150.5t-169.5 58.5h-92q-115 0 -194.5 -80t-79.5 -195
q0 -104 56 -169.5t187 -117.5l203 -77q274 -109 275 -377q0 -143 -102.5 -245.5t-246.5 -102.5h-135q-121 0 -215 74.5t-123 187.5z" />
    <glyph glyph-name="afii10055" unicode="&#x406;" 
d="M223 74h348v1253h-340v74h754v-74h-340v-1253h348v-74h-770v74z" />
    <glyph glyph-name="afii10056" unicode="&#x407;" 
d="M449 1548v260h73v-260h-73zM694 1548v260h74v-260h-74zM223 74h348v1253h-340v74h754v-74h-340v-1253h348v-74h-770v74z" />
    <glyph glyph-name="afii10057" unicode="&#x408;" 
d="M252 1401h711v-1071q0 -143 -102.5 -245.5t-246.5 -102.5h-69q-121 0 -216.5 74.5t-123.5 187.5l71 20q23 -92 96.5 -150.5t172.5 -58.5h69q115 0 195 81t80 194v997h-637v74z" />
    <glyph glyph-name="afii10058" unicode="&#x409;" 
d="M29 0v74h59q55 0 94 39t39 92v1196h490v-576h94q145 0 246.5 -101t101.5 -247v-129q0 -143 -102.5 -245.5t-245.5 -102.5h-168v1327h-342v-1122q0 -84 -60.5 -144.5t-146.5 -60.5h-59zM711 74h94q113 0 193.5 79.5t80.5 194.5v129q0 113 -80.5 194t-193.5 81h-94v-678z
" />
    <glyph glyph-name="afii10059" unicode="&#x40a;" 
d="M209 0v1401h74v-625h350v625h74v-625h94q145 0 246.5 -101.5t101.5 -246.5v-80q0 -143 -102.5 -245.5t-245.5 -102.5h-168v702h-350v-702h-74zM707 74h94q113 0 193.5 79.5t80.5 194.5v80q0 113 -81 193.5t-193 80.5h-94v-628z" />
    <glyph glyph-name="afii10060" unicode="&#x40b;" 
d="M688 846q143 0 245.5 -101.5t102.5 -246.5v-498h-73v498q0 115 -80 194.5t-195 79.5h-74q-115 0 -194.5 -81t-79.5 -193v-498h-74v1327h-246v74h760v-74h-440v-639q106 158 291 158h57z" />
    <glyph glyph-name="afii10061" unicode="&#x40c;" 
d="M608 1511l-53 54l231 231l54 -53zM236 1401h73v-658h244l299 330q29 33 55.5 93.5t26.5 105.5v129h74v-129q0 -51 -30 -127t-71 -121l-293 -317l312 -330q41 -43 70.5 -119t29.5 -129v-129h-74v129q0 47 -26.5 107.5t-55.5 91.5l-321 342h-240v-670h-73v1401z" />
    <glyph glyph-name="afii10062" unicode="&#x40e;" 
d="M393 1784h74q0 -59 41 -100.5t100.5 -41.5t100.5 41t41 101h73q0 -88 -63.5 -151.5t-151.5 -63.5t-151.5 63.5t-63.5 151.5zM217 0v74h156q72 0 96 63l98 217l-286 641q-61 139 -62 275v131h74v-131q0 -121 55 -244l258 -582l260 582q53 119 54 244v131h73v-131
q0 -135 -61 -275l-393 -886q-55 -109 -166 -109h-156z" />
    <glyph glyph-name="afii10145" unicode="&#x40f;" 
d="M993 1401v-1401h-342v-356h-73v356h-355v1401h74v-1327h623v1327h73z" />
    <glyph glyph-name="afii10017" unicode="&#x410;" 
d="M985 559q37 -137 37 -289v-270h-74v270q0 29 -6 101h-668q-6 -72 -6 -101v-270h-73v270q0 137 36 289l197 723q16 61 66.5 99t113.5 38q66 0 115 -38t65 -99zM285 444h647q-6 49 -19 95l-196 723q-10 37 -39 60.5t-70 23.5t-69.5 -24t-38.5 -60l-197 -723
q-12 -44 -18 -95z" />
    <glyph glyph-name="afii10018" unicode="&#x411;" 
d="M694 823q143 0 245.5 -102.5t102.5 -245.5v-127q0 -143 -101 -245.5t-247 -102.5h-422v1401h666v-74h-592v-504h348zM969 348v127q0 113 -81 194t-194 81h-348v-676h348q113 0 194 79.5t81 194.5z" />
    <glyph glyph-name="afii10019" unicode="&#x412;" 
d="M815 715q94 -37 154.5 -122t60.5 -192v-53q0 -143 -102.5 -245.5t-245.5 -102.5h-434v1401h422q145 0 246.5 -102.5t101.5 -245.5v-29q0 -102 -56.5 -186t-146.5 -123zM670 1327h-348v-577h348q113 0 193.5 80.5t80.5 193.5v29q0 115 -80.5 194.5t-193.5 79.5zM956 348
v53q0 115 -80.5 195t-193.5 80h-360v-602h360q113 0 193.5 80.5t80.5 193.5z" />
    <glyph glyph-name="afii10020" unicode="&#x413;" 
d="M272 0v1401h752v-74h-678v-1327h-74z" />
    <glyph glyph-name="afii10021" unicode="&#x414;" 
d="M137 -356v430h78q72 199 90.5 381t18.5 538v408h612v-1327h123v-430h-74v356h-774v-356h-74zM291 74h571v1253h-465v-334q0 -240 -4 -353.5t-27.5 -268t-74.5 -297.5z" />
    <glyph glyph-name="afii10022" unicode="&#x415;" 
d="M250 0v1401h778v-74h-704v-590h639v-73h-639v-590h704v-74h-778z" />
    <glyph glyph-name="afii10024" unicode="&#x416;" 
d="M985 414q68 -137 68 -281v-133h-74v133q0 127 -59 248l-142 289h-133v-670h-74v670h-133l-139 -289q-61 -121 -61 -248v-133h-74v133q0 143 67 281l142 293l-133 280q-68 139 -68 281v133h74v-133q0 -125 61 -248l131 -277h133v658h74v-658h135l131 277q27 55 41.5 116.5
t16.5 96.5l2 35v133h73v-133q0 -141 -65 -281l-135 -280z" />
    <glyph glyph-name="afii10025" unicode="&#x417;" 
d="M750 715q96 -37 156.5 -123t60.5 -191v-71q0 -143 -102.5 -245.5t-248.5 -102.5h-100q-121 0 -216 73.5t-124 188.5l72 20q23 -92 96.5 -150.5t171.5 -58.5h100q115 0 196 81t81 194v71q0 113 -82 194t-195 81h-215v74h203q115 0 196 80.5t81 193.5v47q0 113 -82 194
t-195 81h-88q-96 0 -171 -59.5t-97 -149.5l-70 20q29 113 123 187.5t215 74.5h88q143 0 246.5 -102.5t103.5 -245.5v-47q0 -102 -57 -186t-147 -123z" />
    <glyph glyph-name="afii10026" unicode="&#x418;" 
d="M1012 1401v-1401h-74v1270l-641 -1270h-92v1401h74v-1270l641 1270h92z" />
    <glyph glyph-name="afii10027" unicode="&#x419;" 
d="M393 1784h74q0 -59 41 -100.5t100.5 -41.5t100.5 41t41 101h73q0 -88 -63.5 -151.5t-151.5 -63.5t-151.5 63.5t-63.5 151.5zM1012 1401v-1401h-74v1270l-641 -1270h-92v1401h74v-1270l641 1270h92z" />
    <glyph glyph-name="afii10028" unicode="&#x41a;" 
d="M236 1401h73v-658h244l299 330q29 33 55.5 93.5t26.5 105.5v129h74v-129q0 -51 -30 -127t-71 -121l-293 -317l312 -330q41 -43 70.5 -119t29.5 -129v-129h-74v129q0 47 -26.5 107.5t-55.5 91.5l-321 342h-240v-670h-73v1401z" />
    <glyph glyph-name="afii10029" unicode="&#x41b;" 
d="M45 0v74h59q55 0 94.5 39t39.5 92v1196h761v-1401h-73v1327h-615v-1122q0 -84 -60.5 -144.5t-146.5 -60.5h-59z" />
    <glyph glyph-name="afii10030" unicode="&#x41c;" 
d="M178 0v1401h98l332 -864l332 864h98v-1401h-73v1266l-318 -824h-78l-317 824v-1266h-74z" />
    <glyph glyph-name="afii10031" unicode="&#x41d;" 
d="M920 1401h73v-1401h-73v664h-623v-664h-74v1401h74v-664h623v664z" />
    <glyph glyph-name="afii10032" unicode="&#x41e;" 
d="M559 -18q-145 0 -246.5 101t-101.5 247v741q0 143 102.5 245.5t245.5 102.5h98q143 0 246 -102.5t103 -245.5v-741q0 -145 -101.5 -246.5t-247.5 -101.5h-98zM559 55h98q115 0 195 80t80 195v741q0 115 -80 195t-195 80h-98q-113 0 -193.5 -81t-80.5 -194v-741
q0 -113 80.5 -194t193.5 -81z" />
    <glyph glyph-name="afii10033" unicode="&#x41f;" 
d="M223 1401h770v-1401h-73v1327h-623v-1327h-74v1401z" />
    <glyph glyph-name="afii10034" unicode="&#x420;" 
d="M272 0v1401h422q145 0 246.5 -102.5t101.5 -245.5v-127q0 -143 -102 -245.5t-246 -102.5h-348v-578h-74zM346 651h348q113 0 194 81t81 194v127q0 115 -81 194.5t-194 79.5h-348v-676z" />
    <glyph glyph-name="afii10035" unicode="&#x421;" 
d="M1014 1157l-72 -20q-23 92 -96.5 150.5t-169.5 58.5h-98q-113 0 -194 -81t-81 -194v-741q0 -113 80 -194t195 -81h98q96 0 170 58.5t96 150.5l72 -20q-29 -115 -123 -188.5t-215 -73.5h-98q-145 0 -247 101t-102 247v741q0 143 101.5 245.5t247.5 102.5h98
q121 0 215 -74.5t123 -187.5z" />
    <glyph glyph-name="afii10036" unicode="&#x422;" 
d="M184 1401h848v-74h-387v-1327h-74v1327h-387v74z" />
    <glyph glyph-name="afii10037" unicode="&#x423;" 
d="M217 0v74h156q72 0 96 63l98 217l-286 641q-61 139 -62 275v131h74v-131q0 -121 55 -244l258 -582l260 582q53 119 54 244v131h73v-131q0 -135 -61 -275l-393 -886q-55 -109 -166 -109h-156z" />
    <glyph glyph-name="afii10038" unicode="&#x424;" 
d="M690 1237q145 0 246.5 -102.5t101.5 -245.5v-381q0 -143 -101 -243.5t-247 -100.5h-45v-164h-74v164h-45q-143 0 -245.5 100.5t-102.5 243.5v381q0 143 102.5 245.5t245.5 102.5h45v164h74v-164h45zM526 238h45v925h-45q-113 0 -193.5 -79.5t-80.5 -194.5v-381
q0 -113 79.5 -191.5t194.5 -78.5zM965 508v381q0 115 -81 194.5t-194 79.5h-45v-925h45q115 0 195 78.5t80 191.5z" />
    <glyph glyph-name="afii10039" unicode="&#x425;" 
d="M227 1401h74v-129q0 -47 15.5 -93t31.5 -69l17 -25l243 -315l244 315q63 82 63 187v129h74v-129q0 -57 -19.5 -114.5t-35.5 -83t-25 -34.5l-256 -329l271 -346q35 -45 59.5 -117t24.5 -121v-127h-74v127q0 35 -19.5 94.5t-48.5 97.5l-258 334l-258 -334q-29 -39 -48 -98
t-19 -94v-127h-74v127q0 49 24.5 120.5t59.5 117.5l270 346l-256 329q-80 119 -80 232v129z" />
    <glyph glyph-name="afii10040" unicode="&#x426;" 
d="M223 0v1401h74v-1327h623v1327h73v-1401h-770z" />
    <glyph glyph-name="afii10041" unicode="&#x427;" 
d="M971 1401v-1401h-74v713q-106 -158 -291 -158h-57q-143 0 -245.5 101.5t-102.5 246.5v498h73v-498q0 -115 80 -194.5t195 -79.5h74q115 0 194.5 81t79.5 193v498h74z" />
    <glyph glyph-name="afii10042" unicode="&#x428;" 
d="M178 0v1401h74v-1327h319v1327h74v-1327h320v1327h73v-1401h-860z" />
    <glyph glyph-name="afii10043" unicode="&#x429;" 
d="M1038 74h41v-430h-73v356h-828v1401h74v-1327h319v1327h74v-1327h320v1327h73v-1327z" />
    <glyph glyph-name="afii10044" unicode="&#x42a;" 
d="M702 823q143 0 246 -102.5t103 -245.5v-127q0 -143 -101.5 -245.5t-247.5 -102.5h-421v1327h-240v74h313v-578h348zM977 348v127q0 113 -81 194t-194 81h-348v-676h348q113 0 194 79.5t81 194.5z" />
    <glyph glyph-name="afii10045" unicode="&#x42b;" 
d="M213 1401h74v-576h94q143 0 245.5 -101t102.5 -247v-129q0 -143 -102.5 -245.5t-245.5 -102.5h-168v1401zM930 1401h74v-1401h-74v1401zM287 752v-678h94q115 0 194.5 79.5t79.5 194.5v129q0 113 -79.5 194t-194.5 81h-94z" />
    <glyph glyph-name="afii10046" unicode="&#x42c;" 
d="M272 1401h74v-578h348q143 0 245.5 -102.5t102.5 -245.5v-127q0 -143 -101 -245.5t-247 -102.5h-422v1401zM346 750v-676h348q113 0 194 79.5t81 194.5v127q0 113 -81 194t-194 81h-348z" />
    <glyph glyph-name="afii10047" unicode="&#x42d;" 
d="M639 1419q145 0 246.5 -102.5t101.5 -245.5v-741q0 -145 -101.5 -246.5t-246.5 -101.5h-98q-121 0 -215.5 73.5t-122.5 188.5l71 20q23 -92 96.5 -150.5t170.5 -58.5h98q115 0 194.5 81t79.5 194v334h-553v73h553v334q0 113 -80.5 194t-193.5 81h-98q-96 0 -170 -58.5
t-97 -150.5l-71 20q29 113 123 187.5t215 74.5h98z" />
    <glyph glyph-name="afii10048" unicode="&#x42e;" 
d="M790.5 1419q110.5 0 189.5 -77.5t79 -188.5v-905q0 -111 -79 -188.5t-189.5 -77.5t-188.5 77.5t-78 188.5v414h-266v-662h-74v1401h74v-666h266v418q0 111 78 188.5t188.5 77.5zM985 248v905q0 80 -57.5 136.5t-137 56.5t-136 -56.5t-56.5 -136.5v-905q0 -80 56.5 -136.5
t136 -56.5t137 56.5t57.5 136.5z" />
    <glyph glyph-name="afii10049" unicode="&#x42f;" 
d="M553 1401h422v-1401h-74v602h-297l-258 -274q-80 -86 -80 -199v-129h-73v129q0 141 100 248l213 229q-129 16 -215 114.5t-86 229.5v103q0 143 101.5 245.5t246.5 102.5zM901 676v651h-348q-115 0 -194.5 -80t-79.5 -194v-103q0 -115 79.5 -194.5t194.5 -79.5h348z" />
    <glyph glyph-name="afii10065" unicode="&#x430;" 
d="M909 1044h74v-1044h-74v139q-106 -158 -291 -157h-57q-143 0 -245.5 101t-102.5 247v385q0 145 102.5 246.5t245.5 101.5h57q184 0 291 -158v139zM635 55q115 0 194.5 81t79.5 194v385q0 113 -79.5 193.5t-194.5 80.5h-74q-115 0 -194.5 -80t-79.5 -194v-385
q0 -115 79.5 -195t194.5 -80h74z" />
    <glyph glyph-name="afii10066" unicode="&#x431;" 
d="M647 1063q143 0 245.5 -102.5t102.5 -245.5v-385q0 -145 -102 -246.5t-246 -101.5h-74q-143 0 -245.5 101t-102.5 247v755q0 143 102.5 246t245.5 103h193q55 0 93 37.5t38 93.5v28h74v-28q0 -86 -59.5 -145.5t-145.5 -59.5h-193q-113 0 -193.5 -81t-80.5 -194v-180
q106 158 291 158h57zM922 330v385q0 113 -81 193.5t-194 80.5h-74q-113 0 -193.5 -81t-80.5 -193v-385q0 -113 80 -194t194 -81h74q115 0 195 81t80 194z" />
    <glyph glyph-name="afii10067" unicode="&#x432;" 
d="M842 528q76 -29 123 -96t47 -151q0 -117 -81 -199t-200 -82h-477v1044h461q117 0 197.5 -81.5t80.5 -196.5q0 -78 -41.5 -142.5t-109.5 -95.5zM328 971v-410h387q86 0 145.5 60.5t59.5 144.5t-59.5 144.5t-145.5 60.5h-387zM731 74q88 0 147.5 60.5t59.5 146.5t-59.5 146
t-147.5 60h-403v-413h403z" />
    <glyph glyph-name="afii10068" unicode="&#x433;" 
d="M272 0v1044h740v-73h-666v-971h-74z" />
    <glyph glyph-name="afii10069" unicode="&#x434;" 
d="M154 -356v430h77q70 203 89.5 384t19.5 521v65h588v-970h123v-430h-74v356h-750v-356h-73zM307 74h547v897h-440v-17q0 -324 -20.5 -502.5t-86.5 -377.5z" />
    <glyph glyph-name="afii10070" unicode="&#x435;" 
d="M578 1063h73q143 0 245.5 -101.5t102.5 -246.5v-197h-696v-188q0 -115 80 -195t195 -80h73q96 0 170 59.5t97 151.5l71 -20q-29 -115 -123 -189.5t-215 -74.5h-73q-143 0 -246 102t-103 246v385q0 145 103 246.5t246 101.5zM303 592h623v123q0 113 -80 193.5t-195 80.5
h-73q-115 0 -195 -80t-80 -194v-123z" />
    <glyph glyph-name="afii10072" unicode="&#x436;" 
d="M164 0v125q0 59 20.5 116.5t40 86t23.5 30.5l131 160l-107 127q-45 53 -70.5 123t-28.5 99.5t-3 45.5v131h74v-131q0 -12 3 -36.5t24.5 -82t58.5 -102.5l114 -137h127v489h74v-489h125l117 137q37 45 58.5 102.5t24.5 82t3 36.5v131h74v-131q0 -16 -3.5 -45.5t-30 -99.5
t-71.5 -123l-104 -127l131 -160q6 -6 22.5 -31.5t39 -85t22.5 -116.5v-125h-74v125q0 47 -16.5 94t-32.5 72l-19 22l-141 168h-125v-481h-74v481h-127l-139 -168q-6 -6 -19.5 -26.5t-30.5 -68.5t-17 -93v-125h-74z" />
    <glyph glyph-name="afii10073" unicode="&#x437;" 
d="M811 532q82 -31 132 -101.5t50 -158.5q0 -121 -85 -205.5t-206 -84.5h-202q-100 0 -178 61t-103 156l72 22q16 -74 74.5 -120t134.5 -46h202q90 0 154 63.5t64 153.5t-63.5 153.5t-154.5 63.5h-194v74h172q90 0 151.5 62.5t61.5 150.5t-62.5 150.5t-150.5 62.5h-182
q-74 0 -130.5 -44t-74.5 -111l-72 20q27 90 103.5 149.5t173.5 59.5h182q119 0 203 -84t84 -203q0 -80 -43 -145.5t-113 -98.5z" />
    <glyph glyph-name="afii10074" unicode="&#x438;" 
d="M221 0v1044h74v-925l620 925h80v-1044h-73v926l-621 -926h-80z" />
    <glyph glyph-name="afii10075" unicode="&#x439;" 
d="M393 1427h74q0 -59 41 -100t100.5 -41t100.5 41t41 100h73q0 -88 -63.5 -151.5t-151.5 -63.5t-151.5 63.5t-63.5 151.5zM221 0v1044h74v-925l620 925h80v-1044h-73v926l-621 -926h-80z" />
    <glyph glyph-name="afii10076" unicode="&#x43a;" 
d="M254 1044h74v-491h274l207 170q33 29 63.5 85t30.5 103v133h74v-133q0 -47 -27.5 -118.5t-91.5 -124.5l-188 -152l219 -170q37 -27 71.5 -87t34.5 -130v-129h-73v129q0 43 -20.5 83t-38 58.5t-21.5 18.5l-240 190h-274v-479h-74v1044z" />
    <glyph glyph-name="afii10077" unicode="&#x43b;" 
d="M45 0v74h59q55 0 94.5 39t39.5 92v839h761v-1044h-73v971h-615v-766q0 -84 -60.5 -144.5t-146.5 -60.5h-59z" />
    <glyph glyph-name="afii10078" unicode="&#x43c;" 
d="M178 0v1044h98l332 -864l332 864h98v-1044h-73v909l-318 -823h-78l-317 823v-909h-74z" />
    <glyph glyph-name="afii10079" unicode="&#x43d;" 
d="M223 1044h74v-489h623v489h73v-1044h-73v481h-623v-481h-74v1044z" />
    <glyph glyph-name="afii10080" unicode="&#x43e;" 
d="M571 1063h74q145 0 246.5 -101.5t101.5 -246.5v-385q0 -143 -102.5 -245.5t-245.5 -102.5h-74q-143 0 -245.5 102t-102.5 246v385q0 145 101.5 246.5t246.5 101.5zM571 989q-113 0 -193.5 -81t-80.5 -193v-385q0 -113 81 -194t193 -81h74q115 0 195 80t80 195v385
q0 115 -80 194.5t-195 79.5h-74z" />
    <glyph glyph-name="afii10081" unicode="&#x43f;" 
d="M223 1044h770v-1044h-73v971h-623v-971h-74v1044z" />
    <glyph glyph-name="afii10082" unicode="&#x440;" 
d="M657 1063q145 0 247 -101.5t102 -246.5v-385q0 -145 -101.5 -246.5t-247.5 -101.5h-57q-184 0 -291 157v-495h-73v1400h73v-139q106 158 291 158h57zM932 330v385q0 115 -80 194.5t-195 79.5h-73q-113 0 -194 -81t-81 -193v-385q0 -113 81 -194t194 -81h73q115 0 195 80
t80 195z" />
    <glyph glyph-name="afii10083" unicode="&#x441;" 
d="M242 330v385q0 145 102 246.5t246 101.5h74q121 0 215 -75t122 -189l-71 -21q-23 92 -96.5 151.5t-169.5 59.5h-74q-115 0 -195 -81t-80 -193v-385q0 -113 80 -194t195 -81h74q96 0 169.5 59.5t96.5 151.5l71 -20q-29 -115 -123 -189.5t-214 -74.5h-74
q-143 0 -245.5 101.5t-102.5 246.5z" />
    <glyph glyph-name="afii10084" unicode="&#x442;" 
d="M190 1044h836v-73h-381v-971h-74v971h-381v73z" />
    <glyph glyph-name="afii10085" unicode="&#x443;" 
d="M225 1044h74v-133q0 -119 61 -231l252 -471l254 471q59 109 60 231v133h73v-133q0 -141 -67 -268l-488 -899q-10 -16 -27.5 -36.5t-56 -42t-84.5 -21.5h-157v73h157q16 0 31 4.5t25 10.5t19 14t14.5 14.5t9.5 12.5l4 6l192 354l-276 510q-70 131 -70 268v133z" />
    <glyph glyph-name="afii10086" unicode="&#x444;" 
d="M690 1055q145 0 246.5 -101.5t101.5 -246.5v-381q0 -143 -101 -243.5t-247 -100.5h-45v-338h-74v338h-45q-143 0 -245.5 100t-102.5 244v381q0 143 102.5 245.5t245.5 102.5h45v346h74v-346h45zM526 55h45v926h-45q-113 0 -193.5 -81t-80.5 -193v-381q0 -113 79.5 -192
t194.5 -79zM965 326v381q0 113 -81 193.5t-194 80.5h-45v-926h45q115 0 195 79t80 192z" />
    <glyph glyph-name="afii10087" unicode="&#x445;" 
d="M225 1044h74v-131q0 -12 3 -34.5t27.5 -71.5t65.5 -82l213 -162l213 162q41 33 65.5 80t26.5 78l5 30v131h73v-131q0 -66 -34.5 -134t-90.5 -111l-196 -150l225 -172q39 -31 72.5 -90t33.5 -127v-129h-73v129q0 43 -19.5 83t-40.5 58l-20 19l-240 186l-239 -186
q-4 0 -21.5 -18.5t-38 -58.5t-20.5 -83v-129h-74v129q0 68 35 127t72 90l225 172l-197 150q-68 51 -96.5 124.5t-28.5 120.5v131z" />
    <glyph glyph-name="afii10088" unicode="&#x446;" 
d="M993 74h64v-430h-74v356h-760v1044h74v-970h623v970h73v-970z" />
    <glyph glyph-name="afii10089" unicode="&#x447;" 
d="M975 1044v-1044h-74v516q-106 -158 -291 -158h-57q-143 0 -245.5 101.5t-102.5 247.5v337h74v-337q0 -115 79.5 -195t194.5 -80h74q115 0 194.5 81t79.5 194v337h74z" />
    <glyph glyph-name="afii10090" unicode="&#x448;" 
d="M178 0v1044h74v-970h319v970h74v-970h320v970h73v-1044h-860z" />
    <glyph glyph-name="afii10091" unicode="&#x449;" 
d="M1038 74h62v-430h-74v356h-848v1044h74v-970h319v970h74v-970h320v970h73v-970z" />
    <glyph glyph-name="afii10092" unicode="&#x44a;" 
d="M76 971v73h313v-346h287q145 0 247.5 -102t102.5 -248q0 -143 -103.5 -245.5t-246.5 -102.5h-361v971h-239zM389 74h287q115 0 195.5 79.5t80.5 194.5t-80.5 196t-195.5 81h-287v-551z" />
    <glyph glyph-name="afii10093" unicode="&#x44b;" 
d="M209 0v1044h74v-450h151q125 0 211 -87t86 -210q0 -125 -86 -211t-211 -86h-225zM934 0v1044h74v-1044h-74zM283 74h151q94 0 158.5 64.5t64.5 158.5q0 92 -64.5 157.5t-158.5 65.5h-151v-446z" />
    <glyph glyph-name="afii10094" unicode="&#x44c;" 
d="M279 0v1044h73v-346h348q145 0 247 -102t102 -248q0 -143 -102.5 -245.5t-246.5 -102.5h-421zM352 74h348q115 0 195 79.5t80 194.5t-80 196t-195 81h-348v-551z" />
    <glyph glyph-name="afii10095" unicode="&#x44d;" 
d="M627 1063q143 0 245.5 -101.5t102.5 -246.5v-385q0 -145 -102.5 -246.5t-245.5 -101.5h-74q-121 0 -215 74.5t-123 189.5l72 20q23 -92 96.5 -151.5t169.5 -59.5h74q115 0 194.5 81t79.5 194v162h-545v73h545v150q0 113 -80 193.5t-194 80.5h-74q-96 0 -170 -59.5
t-96 -151.5l-72 21q29 115 123 189.5t215 74.5h74z" />
    <glyph glyph-name="afii10096" unicode="&#x44e;" 
d="M795 1063q113 -2 190.5 -80t77.5 -186v-549q0 -109 -78 -186.5t-190 -79.5q-113 2 -190 79.5t-77 186.5v237h-266v-485h-74v1044h74v-485h266v238q0 111 77 187.5t190 78.5zM989 248v549q0 80 -57.5 136t-137 56t-136 -56t-56.5 -136v-549q0 -80 56.5 -136.5t136 -56.5
t137 56.5t57.5 136.5z" />
    <glyph glyph-name="afii10097" unicode="&#x44f;" 
d="M526 1044h457v-1044h-74v418h-383h-14l-172 -182q-53 -53 -53 -138v-98h-74v98q0 47 19.5 95.5t33 67t21.5 26.5l139 147q-94 31 -153.5 113t-59.5 184q0 129 91 221t222 92zM909 492v479h-383q-100 0 -169.5 -70t-69.5 -170t69.5 -169.5t169.5 -69.5h383z" />
    <glyph glyph-name="afii10071" unicode="&#x451;" 
d="M455 1192v260h73v-260h-73zM700 1192v260h74v-260h-74zM578 1063h73q143 0 245.5 -101.5t102.5 -246.5v-197h-696v-188q0 -115 80 -195t195 -80h73q96 0 170 59.5t97 151.5l71 -20q-29 -115 -123 -189.5t-215 -74.5h-73q-143 0 -246 102t-103 246v385q0 145 103 246.5
t246 101.5zM303 592h623v123q0 113 -80 193.5t-195 80.5h-73q-115 0 -195 -80t-80 -194v-123z" />
    <glyph glyph-name="afii10099" unicode="&#x452;" 
d="M651 1063q143 0 245.5 -101.5t102.5 -246.5v-867q0 -84 -59 -144t-145 -60h-60v73h60q55 0 93 39t38 92v867q0 115 -80 194.5t-195 79.5h-73q-115 0 -195 -81t-80 -193v-715h-74v1208h-141v74h141v172h74v-172h322v-74h-322v-303q106 158 291 158h57z" />
    <glyph glyph-name="afii10100" unicode="&#x453;" 
d="M645 1155l-53 53l231 232l54 -54zM272 0v1044h740v-73h-666v-971h-74z" />
    <glyph glyph-name="afii10101" unicode="&#x454;" 
d="M664 55q96 0 169.5 59.5t96.5 151.5l71 -20q-29 -115 -123 -189.5t-214 -74.5h-74q-143 0 -245.5 101t-102.5 247v385q0 145 102 246.5t246 101.5h74q121 0 215 -75t122 -189l-71 -21q-23 92 -96.5 151.5t-169.5 59.5h-74q-115 0 -195 -81t-80 -193v-150h545v-73h-545
v-162q0 -113 80 -194t195 -81h74z" />
    <glyph glyph-name="afii10102" unicode="&#x455;" 
d="M225 170l72 23q20 -61 72.5 -99.5t117.5 -38.5h234q82 0 141.5 59.5t59.5 141.5q0 78 -48.5 137.5t-130.5 73.5l-254 41q-111 16 -178 93t-67 187q0 115 79.5 195t194.5 80h197q90 0 161.5 -53.5t100.5 -137.5l-72 -20q-20 61 -72.5 99t-117.5 38h-197
q-84 0 -142.5 -58.5t-58.5 -142.5q0 -88 50.5 -142t134.5 -66l254 -39q106 -16 172.5 -96t66.5 -189q0 -113 -80.5 -193.5t-193.5 -80.5h-234q-90 0 -161.5 53t-100.5 135z" />
    <glyph glyph-name="afii10103" unicode="&#x456;" 
d="M614 1192v260h74v-260h-74zM303 1044h385v-970h354v-74h-806v74h378v897h-311v73z" />
    <glyph glyph-name="afii10104" unicode="&#x457;" 
d="M492 1192v260h73v-260h-73zM737 1192v260h74v-260h-74zM303 1044h385v-970h354v-74h-806v74h378v897h-311v73z" />
    <glyph glyph-name="afii10105" unicode="&#x458;" 
d="M743 1192v260h74v-260h-74zM260 1044h557v-1073q0 -143 -101.5 -244.5t-244.5 -101.5q-121 0 -214 74t-122 188l72 23q20 -92 94 -151.5t170 -59.5q113 0 192.5 80t79.5 192v1000h-483v73z" />
    <glyph glyph-name="afii10106" unicode="&#x459;" 
d="M35 0v74h28q55 0 94.5 39t39.5 92v839h489v-450h152q125 0 211 -87t86 -210q0 -125 -86 -211t-211 -86h-226v971h-342v-766q0 -84 -60 -144.5t-147 -60.5h-28zM686 74h152q94 0 158.5 64.5t64.5 158.5q0 92 -64.5 157.5t-158.5 65.5h-152v-446z" />
    <glyph glyph-name="afii10107" unicode="&#x45a;" 
d="M180 0v1044h74v-450h350v450h74v-450h151q125 0 211 -87t86 -210q0 -125 -86 -211t-211 -86h-225v520h-350v-520h-74zM678 74h151q94 0 159 64.5t65 158.5q0 92 -64.5 157.5t-159.5 65.5h-151v-446z" />
    <glyph glyph-name="afii10108" unicode="&#x45b;" 
d="M651 1063q143 0 245.5 -101.5t102.5 -246.5v-715h-73v715q0 115 -80 194.5t-195 79.5h-73q-115 0 -195 -81t-80 -193v-715h-74v1208h-141v74h141v172h74v-172h322v-74h-322v-303q106 158 291 158h57z" />
    <glyph glyph-name="afii10109" unicode="&#x45c;" 
d="M614 1155l-53 53l232 232l53 -54zM254 1044h74v-491h274l207 170q33 29 63.5 85t30.5 103v133h74v-133q0 -47 -27.5 -118.5t-91.5 -124.5l-188 -152l219 -170q37 -27 71.5 -87t34.5 -130v-129h-73v129q0 43 -20.5 83t-38 58.5t-21.5 18.5l-240 190h-274v-479h-74v1044z
" />
    <glyph glyph-name="afii10110" unicode="&#x45e;" 
d="M393 1427h74q0 -59 41 -100t100.5 -41t100.5 41t41 100h73q0 -88 -63.5 -151.5t-151.5 -63.5t-151.5 63.5t-63.5 151.5zM225 1044h74v-133q0 -119 61 -231l252 -471l254 471q59 109 60 231v133h73v-133q0 -141 -67 -268l-488 -899q-10 -16 -27.5 -36.5t-56 -42
t-84.5 -21.5h-157v73h157q16 0 31 4.5t25 10.5t19 14t14.5 14.5t9.5 12.5l4 6l192 354l-276 510q-70 131 -70 268v133z" />
    <glyph glyph-name="afii10193" unicode="&#x45f;" 
d="M993 1044v-1044h-348v-356h-74v356h-348v1044h74v-970h623v970h73z" />
    <glyph glyph-name="afii10146" unicode="&#x462;" 
d="M698 823q143 0 246 -102.5t103 -245.5v-127q0 -143 -101.5 -245.5t-247.5 -102.5h-422v1327h-239v74h760v-74h-447v-504h348zM973 348v127q0 113 -81 194t-194 81h-348v-676h348q113 0 194 79.5t81 194.5z" />
    <glyph glyph-name="afii10194" unicode="&#x463;" 
d="M63 1004v73h240v324h74v-324h448v-73h-448v-306h287q145 0 247.5 -102t102.5 -248q0 -143 -103.5 -245.5t-246.5 -102.5h-361v1004h-240zM377 74h287q115 0 195.5 79.5t80.5 194.5t-81 196t-195 81h-287v-551z" />
    <glyph glyph-name="afii10147" unicode="&#x472;" 
d="M657 1419q145 0 247 -102.5t102 -245.5v-741q0 -145 -101.5 -246.5t-247.5 -101.5h-98q-145 0 -246.5 101t-101.5 247v741q0 143 102.5 245.5t245.5 102.5h98zM559 1346q-113 0 -193.5 -81t-80.5 -194v-319q70 76 161 75q100 0 164 -79q33 -39 49.5 -54.5t48 -32
t68.5 -16.5q63 0 109.5 44t46.5 110v272q0 113 -80 194t-195 81h-98zM657 55q115 0 195 80t80 195v317q-68 -74 -162 -74q-102 0 -164 78q-6 6 -21.5 23.5t-21.5 24t-18.5 18.5t-21.5 16t-22.5 11.5t-28.5 9.5t-32 2q-63 0 -109 -44t-46 -110v-272q0 -113 80.5 -194
t193.5 -81h98z" />
    <glyph glyph-name="afii10195" unicode="&#x473;" 
d="M645 1063q145 0 246.5 -102.5t101.5 -245.5v-385q0 -145 -101 -246.5t-247 -101.5h-74q-145 0 -246.5 101t-101.5 247v385q0 143 102.5 245.5t245.5 102.5h74zM571 989q-113 0 -193.5 -81t-80.5 -193v-133q63 68 154 67q96 0 159 -80q4 -4 14.5 -16t13.5 -15l13.5 -13.5
l14.5 -14.5t13 -11t15 -10.5t15.5 -8.5t17.5 -6t19.5 -3t21.5 -2q63 0 107.5 44t44.5 108v94q0 113 -80 193.5t-195 80.5h-74zM645 55q115 0 195 80t80 195v131q-66 -66 -154 -66q-98 0 -160 78q-6 6 -20.5 23.5t-19.5 22.5t-18 17.5t-21.5 17.5t-21.5 11t-26.5 8t-29.5 2
q-63 0 -107.5 -45t-44.5 -106v-94q0 -113 81 -194t193 -81h74z" />
    <glyph glyph-name="afii10148" unicode="&#x474;" 
d="M195 1135v266h73v-266q0 -131 47 -263l293 -788l443 1194q20 53 69 88t111 35h41v-74h-41q-84 0 -113 -78l-465 -1249h-92l-315 848q-51 137 -51 287z" />
    <glyph glyph-name="afii10196" unicode="&#x475;" 
d="M215 913v131h74v-131q0 -121 55 -243l258 -580l377 840q27 59 79 86.5t95 27.5h35v-73h-35q-23 0 -56.5 -16.5t-49.5 -53.5l-406 -901h-78l-287 639q-61 143 -61 274z" />
    <glyph glyph-name="afii10050" unicode="&#x490;" 
d="M950 1575h74v-248h-678v-1327h-74v1401h678v174z" />
    <glyph glyph-name="afii10098" unicode="&#x491;" 
d="M938 1401h74v-430h-666v-971h-74v1044h666v357z" />
    <glyph glyph-name="uni0492" unicode="&#x492;" 
d="M1057 1327h-678v-631h543v-73h-543v-623h-74v623h-160v73h160v705h752v-74z" />
    <glyph glyph-name="uni0493" unicode="&#x493;" 
d="M1044 971h-665v-408h543v-74h-543v-489h-74v489h-160v74h160v481h739v-73z" />
    <glyph glyph-name="uni0496" unicode="&#x496;" 
d="M1053 74h37v-430h-74v356h-37v133q0 127 -59 248l-142 289h-133v-670h-74v670h-133l-139 -289q-61 -121 -61 -248v-133h-74v133q0 143 67 281l142 293l-133 280q-68 139 -68 281v133h74v-133q0 -125 61 -248l131 -277h133v658h74v-658h135l131 277q27 55 41.5 116.5
t16.5 96.5l2 35v133h73v-133q0 -141 -65 -281l-135 -280l141 -293q68 -137 68 -281v-59z" />
    <glyph glyph-name="uni0497" unicode="&#x497;" 
d="M1053 74h37v-430h-74v356h-37v125q0 47 -16.5 94t-32.5 72l-19 22l-141 168h-125v-481h-74v481h-127l-139 -168q-6 -6 -19.5 -26.5t-30.5 -68.5t-17 -93v-125h-74v125q0 59 20.5 116.5t40 86t23.5 30.5l131 160l-107 127q-45 53 -70.5 123t-28.5 99.5t-3 45.5v131h74
v-131q0 -12 3 -36.5t24.5 -82t58.5 -102.5l114 -137h127v489h74v-489h125l117 137q37 45 58.5 102.5t24.5 82t3 36.5v131h74v-131q0 -16 -3.5 -45.5t-30 -99.5t-71.5 -123l-104 -127l131 -160q6 -6 22.5 -31.5t39 -85t22.5 -116.5v-51z" />
    <glyph glyph-name="uni0498" unicode="&#x498;" 
d="M750 715q96 -37 156.5 -123t60.5 -191v-71q0 -143 -102.5 -245.5t-248.5 -102.5h-4v-99q78 -12 130.5 -72.5t52.5 -140.5q0 -88 -63.5 -151.5t-151.5 -63.5h-43v74h43q59 0 100 41t41 100.5t-41 100.5t-100 41h-41v170h-23q-121 0 -216 73.5t-124 188.5l72 20
q23 -92 96.5 -150.5t171.5 -58.5h100q115 0 196 81t81 194v71q0 113 -82 194t-195 81h-215v74h203q115 0 196 80.5t81 193.5v47q0 113 -82 194t-195 81h-88q-96 0 -171 -59.5t-97 -149.5l-70 20q29 113 123 187.5t215 74.5h88q143 0 246.5 -102.5t103.5 -245.5v-47
q0 -102 -57 -186t-147 -123z" />
    <glyph glyph-name="uni0499" unicode="&#x499;" 
d="M702 -18h-57v-91q78 -12 130 -72.5t52 -140.5q0 -88 -63.5 -151.5t-151.5 -63.5h-43v74h43q59 0 100.5 41t41.5 100.5t-41 100.5t-101 41h-41v162h-71q-100 0 -178 61t-103 156l72 22q16 -74 74.5 -120t134.5 -46h202q90 0 154 63.5t64 153.5t-63.5 153.5t-154.5 63.5
h-194v74h172q90 0 151.5 62.5t61.5 150.5t-62.5 150.5t-150.5 62.5h-182q-74 0 -130.5 -44t-74.5 -111l-72 20q27 90 103.5 149.5t173.5 59.5h182q119 0 203 -84t84 -203q0 -80 -43 -145.5t-113 -98.5q82 -31 132 -101.5t50 -158.5q0 -121 -85 -205.5t-206 -84.5z" />
    <glyph glyph-name="uni049A" unicode="&#x49a;" 
d="M1026 74h57v-430h-73v356h-58v129q0 47 -26.5 107.5t-55.5 91.5l-321 342h-240v-670h-73v1401h73v-658h244l299 330q29 33 55.5 93.5t26.5 105.5v129h74v-129q0 -51 -30 -127t-71 -121l-293 -317l312 -330q41 -43 70.5 -119t29.5 -129v-55z" />
    <glyph glyph-name="uni049B" unicode="&#x49b;" 
d="M995 74h58v-430h-74v356h-57v129q0 43 -20.5 83t-38 58.5t-21.5 18.5l-240 190h-274v-479h-74v1044h74v-491h274l207 170q33 29 63.5 85t30.5 103v133h74v-133q0 -47 -27.5 -118.5t-91.5 -124.5l-188 -152l219 -170q37 -27 71.5 -87t34.5 -130v-55z" />
    <glyph glyph-name="uni04A2" unicode="&#x4a2;" 
d="M993 74h58v-430h-74v356h-57v664h-623v-664h-74v1401h74v-664h623v664h73v-1327z" />
    <glyph glyph-name="uni04A3" unicode="&#x4a3;" 
d="M993 74h58v-430h-74v356h-57v481h-623v-481h-74v1044h74v-489h623v489h73v-970z" />
    <glyph glyph-name="uni04AA" unicode="&#x4aa;" 
d="M676 55q96 0 170 58.5t96 150.5l72 -20q-29 -115 -123 -188.5t-215 -73.5h-31v-91q78 -12 130 -72.5t52 -140.5q0 -88 -63.5 -151.5t-151.5 -63.5h-43v74h43q59 0 100.5 41t41.5 100.5t-41 100.5t-101 41h-41v162q-143 2 -242.5 103t-99.5 245v741q0 143 101.5 245.5
t247.5 102.5h98q121 0 215 -74.5t123 -187.5l-72 -20q-23 92 -96.5 150.5t-169.5 58.5h-98q-113 0 -194 -81t-81 -194v-741q0 -113 80 -194t195 -81h98z" />
    <glyph glyph-name="uni04AB" unicode="&#x4ab;" 
d="M664 55q96 0 169.5 59.5t96.5 151.5l71 -20q-29 -115 -122 -189.5t-213 -74.5v-91q78 -12 130 -72.5t52 -140.5q0 -88 -63.5 -151.5t-151.5 -63.5h-43v74h43q59 0 100 41t41 100.5t-41 100.5t-100 41h-41v162h-2q-143 0 -245.5 101t-102.5 247v385q0 145 102 246.5
t246 101.5h74q121 0 215 -75t122 -189l-71 -21q-23 92 -96.5 151.5t-169.5 59.5h-74q-115 0 -195 -81t-80 -193v-385q0 -113 80 -194t195 -81h74z" />
    <glyph glyph-name="uni04AC" unicode="&#x4ac;" 
d="M1032 1327h-387v-1253h57v-430h-73v356h-58v1327h-387v74h848v-74z" />
    <glyph glyph-name="uni04AD" unicode="&#x4ad;" 
d="M1026 971h-381v-897h57v-430h-73v356h-58v971h-381v73h836v-73z" />
    <glyph glyph-name="uni04AE" unicode="&#x4ae;" 
d="M999 1114q0 -106 -79 -227l-275 -342v-545h-74v545l-274 342q-8 8 -24.5 33.5t-36 82t-19.5 111.5v287h74v-287q0 -43 16.5 -89t31.5 -69.5t17 -23.5l252 -316l252 316q66 84 66 182v287h73v-287z" />
    <glyph glyph-name="uni04AF" unicode="&#x4af;" 
d="M995 911q0 -141 -67 -268l-283 -520v-479h-74v479l-282 520q-68 127 -68 268v133h74v-133q0 -123 59 -231l254 -471l254 471q59 109 60 231v133h73v-133z" />
    <glyph glyph-name="uni04B0" unicode="&#x4b0;" 
d="M1016 588v-74h-371v-514h-74v514h-370v74h336l-240 299q-8 8 -24.5 33.5t-36 82t-19.5 111.5v287h74v-287q0 -43 16.5 -89t31.5 -69.5t17 -23.5l252 -316l252 316q66 84 66 182v287h73v-287q0 -106 -79 -227l-240 -299h336z" />
    <glyph glyph-name="uni04B1" unicode="&#x4b1;" 
d="M922 1044h73v-133q0 -141 -67 -268l-242 -446h232v-74h-273v-479h-74v479h-266v74h225l-241 446q-68 127 -68 268v133h74v-133q0 -123 59 -231l254 -471l254 471q59 109 60 231v133z" />
    <glyph glyph-name="uni04B2" unicode="&#x4b2;" 
d="M1008 74h57v-430h-74v356h-57v127q0 35 -19.5 94.5t-48.5 97.5l-258 334l-258 -334q-29 -39 -48 -98t-19 -94v-127h-74v127q0 49 24.5 120.5t59.5 117.5l270 346l-256 329q-80 119 -80 232v129h74v-129q0 -47 15.5 -93t31.5 -69l17 -25l243 -315l244 315q63 82 63 187
v129h74v-129q0 -57 -19.5 -114.5t-35.5 -83t-25 -34.5l-256 -329l271 -346q35 -45 59.5 -117t24.5 -121v-53z" />
    <glyph glyph-name="uni04B3" unicode="&#x4b3;" 
d="M1001 74h58v-430h-74v356h-57v129q0 43 -19.5 83t-40.5 58l-20 19l-240 186l-239 -186q-4 0 -21.5 -18.5t-38 -58.5t-20.5 -83v-129h-74v129q0 68 35 127t72 90l225 172l-197 150q-68 51 -96.5 124.5t-28.5 120.5v131h74v-131q0 -12 3 -34.5t27.5 -71.5t65.5 -82
l213 -162l213 162q41 33 65.5 80t26.5 78l5 30v131h73v-131q0 -66 -34.5 -134t-90.5 -111l-196 -150l225 -172q39 -31 72.5 -90t33.5 -127v-55z" />
    <glyph glyph-name="uni04B6" unicode="&#x4b6;" 
d="M971 74h57v-430h-74v356h-57v713q-106 -158 -291 -158h-57q-143 0 -245.5 101.5t-102.5 246.5v498h73v-498q0 -115 80 -194.5t195 -79.5h74q115 0 194.5 81t79.5 193v498h74v-1327z" />
    <glyph glyph-name="uni04B7" unicode="&#x4b7;" 
d="M975 74h57v-430h-74v356h-57v516q-106 -158 -291 -158h-57q-143 0 -245.5 101.5t-102.5 247.5v337h74v-337q0 -115 79.5 -195t194.5 -80h74q115 0 194.5 81t79.5 194v337h74v-970z" />
    <glyph glyph-name="uni04BA" unicode="&#x4ba;" 
d="M668 846q143 0 245.5 -101.5t102.5 -246.5v-498h-74v498q0 115 -80 194.5t-194 79.5h-74q-115 0 -195 -81t-80 -193v-498h-73v1401h73v-713q106 158 291 158h58z" />
    <glyph glyph-name="uni04BB" unicode="&#x4bb;" 
d="M651 1063q143 0 245.5 -101.5t102.5 -246.5v-715h-73v715q0 115 -80 194.5t-195 79.5h-73q-115 0 -195 -81t-80 -193v-715h-74v1401h74v-496q106 158 291 158h57z" />
    <glyph glyph-name="uni04C0" unicode="&#x4c0;" 
d="M223 74h348v1253h-340v74h754v-74h-340v-1253h348v-74h-770v74z" />
    <glyph glyph-name="uni04C1" unicode="&#x4c1;" 
d="M608 1569q-88 0 -151.5 63.5t-63.5 151.5h74q0 -59 41 -100.5t100.5 -41.5t100.5 41t41 101h73q0 -88 -63.5 -151.5t-151.5 -63.5zM985 414q68 -137 68 -281v-133h-74v133q0 127 -59 248l-142 289h-133v-670h-74v670h-133l-139 -289q-61 -121 -61 -248v-133h-74v133
q0 143 67 281l142 293l-133 280q-68 139 -68 281v133h74v-133q0 -125 61 -248l131 -277h133v658h74v-658h135l131 277q27 55 41.5 116.5t16.5 96.5l2 35v133h73v-133q0 -141 -65 -281l-135 -280z" />
    <glyph glyph-name="uni04C2" unicode="&#x4c2;" 
d="M393 1427h74q0 -59 41 -100t100.5 -41t100.5 41t41 100h73q0 -88 -63.5 -151.5t-151.5 -63.5t-151.5 63.5t-63.5 151.5zM164 0v125q0 59 20.5 116.5t40 86t23.5 30.5l131 160l-107 127q-45 53 -70.5 123t-28.5 99.5t-3 45.5v131h74v-131q0 -12 3 -36.5t24.5 -82
t58.5 -102.5l114 -137h127v489h74v-489h125l117 137q37 45 58.5 102.5t24.5 82t3 36.5v131h74v-131q0 -16 -3.5 -45.5t-30 -99.5t-71.5 -123l-104 -127l131 -160q6 -6 22.5 -31.5t39 -85t22.5 -116.5v-125h-74v125q0 47 -16.5 94t-32.5 72l-19 22l-141 168h-125v-481h-74
v481h-127l-139 -168q-6 -6 -19.5 -26.5t-30.5 -68.5t-17 -93v-125h-74z" />
    <glyph glyph-name="uni04CB" unicode="&#x4cb;" 
d="M971 74h57v-430h-74v356h-57v713q-106 -158 -291 -158h-57q-143 0 -245.5 101.5t-102.5 246.5v498h73v-498q0 -115 80 -194.5t195 -79.5h74q115 0 194.5 81t79.5 193v498h74v-1327z" />
    <glyph glyph-name="uni04CC" unicode="&#x4cc;" 
d="M975 74h57v-430h-74v356h-57v516q-106 -158 -291 -158h-57q-143 0 -245.5 101.5t-102.5 247.5v337h74v-337q0 -115 79.5 -195t194.5 -80h74q115 0 194.5 81t79.5 194v337h74v-970z" />
    <glyph glyph-name="uni04CF" unicode="&#x4cf;" 
d="M223 74h348v1253h-340v74h754v-74h-340v-1253h348v-74h-770v74z" />
    <glyph glyph-name="uni04D0" unicode="&#x4d0;" 
d="M608 1569q-88 0 -151.5 63.5t-63.5 151.5h74q0 -59 41 -100.5t100.5 -41.5t100.5 41t41 101h73q0 -88 -63.5 -151.5t-151.5 -63.5zM985 559q37 -137 37 -289v-270h-74v270q0 29 -6 101h-668q-6 -72 -6 -101v-270h-73v270q0 137 36 289l197 723q16 61 66.5 99t113.5 38
q66 0 115 -38t65 -99zM285 444h647q-6 49 -19 95l-196 723q-10 37 -39 60.5t-70 23.5t-69.5 -24t-38.5 -60l-197 -723q-12 -44 -18 -95z" />
    <glyph glyph-name="uni04D1" unicode="&#x4d1;" 
d="M608 1212q-88 0 -151.5 63.5t-63.5 151.5h74q0 -59 41 -100t100.5 -41t100.5 41t41 100h73q0 -88 -63.5 -151.5t-151.5 -63.5zM909 1044h74v-1044h-74v139q-106 -158 -291 -157h-57q-143 0 -245.5 101t-102.5 247v385q0 145 102.5 246.5t245.5 101.5h57q184 0 291 -158
v139zM635 55q115 0 194.5 81t79.5 194v385q0 113 -79.5 193.5t-194.5 80.5h-74q-115 0 -194.5 -80t-79.5 -194v-385q0 -115 79.5 -195t194.5 -80h74z" />
    <glyph glyph-name="uni04D2" unicode="&#x4d2;" 
d="M522 1808v-260h-73v260h73zM768 1808v-260h-74v260h74zM985 559q37 -137 37 -289v-270h-74v270q0 29 -6 101h-668q-6 -72 -6 -101v-270h-73v270q0 137 36 289l197 723q16 61 66.5 99t113.5 38q66 0 115 -38t65 -99zM285 444h647q-6 49 -19 95l-196 723q-10 37 -39 60.5
t-70 23.5t-69.5 -24t-38.5 -60l-197 -723q-12 -44 -18 -95z" />
    <glyph glyph-name="uni04D3" unicode="&#x4d3;" 
d="M522 1452v-260h-73v260h73zM768 1452v-260h-74v260h74zM909 1044h74v-1044h-74v139q-106 -158 -291 -157h-57q-143 0 -245.5 101t-102.5 247v385q0 145 102.5 246.5t245.5 101.5h57q184 0 291 -158v139zM635 55q115 0 194.5 81t79.5 194v385q0 113 -79.5 193.5
t-194.5 80.5h-74q-115 0 -194.5 -80t-79.5 -194v-385q0 -115 79.5 -195t194.5 -80h74z" />
    <glyph glyph-name="uni04D4" unicode="&#x4d4;" 
d="M1042 1327h-362v-590h301v-73h-301v-590h362v-74h-436v371h-356q-6 -72 -6 -101v-270h-74v270q0 152 37 289l196 723q16 61 65.5 99t115.5 38q43 0 78 -18h380v-74zM260 444h346v899q-8 2 -22 3q-41 0 -70 -24t-39 -60l-196 -723q-13 -44 -19 -95z" />
    <glyph glyph-name="uni04D5" unicode="&#x4d5;" 
d="M1108 485h-459v-237q0 -80 56.5 -136.5t136.5 -56.5q63 0 114.5 38t69.5 95l70 -20q-25 -82 -95.5 -134t-158.5 -52q-125 0 -193 104v-86h-74v86q-68 -104 -192 -104q-111 0 -188.5 78.5t-77.5 187.5v549q0 111 77.5 188.5t188.5 77.5q125 0 192 -105v86h74v-86
q68 104 193 105q111 0 188.5 -78t77.5 -188v-312zM383 55q80 0 136 56.5t56 136.5v549q0 80 -56 136t-136 56t-136.5 -56t-56.5 -136v-549q0 -80 56.5 -136.5t136.5 -56.5zM842 989q-80 0 -136.5 -56t-56.5 -136v-238h385v238q0 80 -56 136t-136 56z" />
    <glyph glyph-name="uni04D6" unicode="&#x4d6;" 
d="M424 1784h74q0 -59 41 -100.5t100 -41.5t100 41t41 101h74q0 -88 -63.5 -151.5t-151.5 -63.5q-90 0 -152.5 63.5t-62.5 151.5zM250 0v1401h778v-74h-704v-590h639v-73h-639v-590h704v-74h-778z" />
    <glyph glyph-name="uni04D7" unicode="&#x4d7;" 
d="M399 1427h74q0 -59 41 -100t100.5 -41t100.5 41t41 100h73q0 -88 -63.5 -151.5t-151.5 -63.5q-90 0 -152.5 63.5t-62.5 151.5zM578 1063h73q143 0 245.5 -101.5t102.5 -246.5v-197h-696v-188q0 -115 80 -195t195 -80h73q96 0 170 59.5t97 151.5l71 -20
q-29 -115 -123 -189.5t-215 -74.5h-73q-143 0 -246 102t-103 246v385q0 145 103 246.5t246 101.5zM303 592h623v123q0 113 -80 193.5t-195 80.5h-73q-115 0 -195 -80t-80 -194v-123z" />
    <glyph glyph-name="uni04D8" unicode="&#x4d8;" 
d="M215 1157q29 113 123 187.5t215 74.5h98q143 0 245.5 -102.5t102.5 -245.5v-741q0 -145 -102 -246.5t-246 -101.5h-98q-143 0 -245.5 101t-102.5 247v407h721v334q0 113 -80 194t-195 81h-98q-96 0 -170 -58.5t-96 -150.5zM279 664v-334q0 -113 79.5 -194t194.5 -81h98
q115 0 195 81t80 194v334h-647z" />
    <glyph glyph-name="afii10846" unicode="&#x4d9;" 
d="M639 -18h-74q-143 0 -245.5 101t-102.5 247v196h696v189q0 115 -79.5 194.5t-194.5 79.5h-74q-96 0 -169.5 -59.5t-96.5 -151.5l-72 21q29 115 123 189.5t215 74.5h74q143 0 245.5 -102.5t102.5 -245.5v-385q0 -145 -102.5 -246.5t-245.5 -101.5zM913 453h-622v-123
q0 -113 80 -194t194 -81h74q115 0 194.5 80t79.5 195v123z" />
    <glyph glyph-name="uni04DA" unicode="&#x4da;" 
d="M449 1548v260h73v-260h-73zM694 1548v260h74v-260h-74zM215 1157q29 113 123 187.5t215 74.5h98q143 0 245.5 -102.5t102.5 -245.5v-741q0 -145 -102 -246.5t-246 -101.5h-98q-143 0 -245.5 101t-102.5 247v407h721v334q0 113 -80 194t-195 81h-98q-96 0 -170 -58.5
t-96 -150.5zM279 664v-334q0 -113 79.5 -194t194.5 -81h98q115 0 195 81t80 194v334h-647z" />
    <glyph glyph-name="uni04DB" unicode="&#x4db;" 
d="M442 1192v260h74v-260h-74zM688 1192v260h74v-260h-74zM639 -18h-74q-143 0 -245.5 101t-102.5 247v196h696v189q0 115 -79.5 194.5t-194.5 79.5h-74q-96 0 -169.5 -59.5t-96.5 -151.5l-72 21q29 115 123 189.5t215 74.5h74q143 0 245.5 -102.5t102.5 -245.5v-385
q0 -145 -102.5 -246.5t-245.5 -101.5zM913 453h-622v-123q0 -113 80 -194t194 -81h74q115 0 194.5 80t79.5 195v123z" />
    <glyph glyph-name="uni04DC" unicode="&#x4dc;" 
d="M522 1808v-260h-73v260h73zM768 1808v-260h-74v260h74zM985 414q68 -137 68 -281v-133h-74v133q0 127 -59 248l-142 289h-133v-670h-74v670h-133l-139 -289q-61 -121 -61 -248v-133h-74v133q0 143 67 281l142 293l-133 280q-68 139 -68 281v133h74v-133q0 -125 61 -248
l131 -277h133v658h74v-658h135l131 277q27 55 41.5 116.5t16.5 96.5l2 35v133h73v-133q0 -141 -65 -281l-135 -280z" />
    <glyph glyph-name="uni04DD" unicode="&#x4dd;" 
d="M449 1192v260h73v-260h-73zM694 1192v260h74v-260h-74zM164 0v125q0 59 20.5 116.5t40 86t23.5 30.5l131 160l-107 127q-45 53 -70.5 123t-28.5 99.5t-3 45.5v131h74v-131q0 -12 3 -36.5t24.5 -82t58.5 -102.5l114 -137h127v489h74v-489h125l117 137q37 45 58.5 102.5
t24.5 82t3 36.5v131h74v-131q0 -16 -3.5 -45.5t-30 -99.5t-71.5 -123l-104 -127l131 -160q6 -6 22.5 -31.5t39 -85t22.5 -116.5v-125h-74v125q0 47 -16.5 94t-32.5 72l-19 22l-141 168h-125v-481h-74v481h-127l-139 -168q-6 -6 -19.5 -26.5t-30.5 -68.5t-17 -93v-125h-74z
" />
    <glyph glyph-name="uni04DE" unicode="&#x4de;" 
d="M489 1808v-260h-73v260h73zM735 1808v-260h-73v260h73zM750 715q96 -37 156.5 -123t60.5 -191v-71q0 -143 -102.5 -245.5t-248.5 -102.5h-100q-121 0 -216 73.5t-124 188.5l72 20q23 -92 96.5 -150.5t171.5 -58.5h100q115 0 196 81t81 194v71q0 113 -82 194t-195 81h-215
v74h203q115 0 196 80.5t81 193.5v47q0 113 -82 194t-195 81h-88q-96 0 -171 -59.5t-97 -149.5l-70 20q29 113 123 187.5t215 74.5h88q143 0 246.5 -102.5t103.5 -245.5v-47q0 -102 -57 -186t-147 -123z" />
    <glyph glyph-name="uni04DF" unicode="&#x4df;" 
d="M522 1452v-260h-73v260h73zM768 1452v-260h-74v260h74zM811 532q82 -31 132 -101.5t50 -158.5q0 -121 -85 -205.5t-206 -84.5h-202q-100 0 -178 61t-103 156l72 22q16 -74 74.5 -120t134.5 -46h202q90 0 154 63.5t64 153.5t-63.5 153.5t-154.5 63.5h-194v74h172
q90 0 151.5 62.5t61.5 150.5t-62.5 150.5t-150.5 62.5h-182q-74 0 -130.5 -44t-74.5 -111l-72 20q27 90 103.5 149.5t173.5 59.5h182q119 0 203 -84t84 -203q0 -80 -43 -145.5t-113 -98.5z" />
    <glyph glyph-name="uni04E0" unicode="&#x4e0;" 
d="M215 246l72 20q23 -92 96.5 -151.5t169.5 -59.5h74q115 0 194.5 81t79.5 194v139q0 113 -81 193.5t-193 80.5h-160v74l395 510h-626v74h720v-74l-395 -510h80q139 -6 236.5 -107.5t97.5 -240.5v-139q0 -145 -102.5 -246.5t-245.5 -101.5h-74q-123 0 -216 73.5t-122 190.5
z" />
    <glyph glyph-name="uni04E1" unicode="&#x4e1;" 
d="M215 -111l72 21q23 -92 96.5 -151.5t169.5 -59.5h74q115 0 194.5 81t79.5 193v140q0 113 -81 193.5t-193 80.5h-160v74l395 510h-626v73h720v-73l-395 -510h80q139 -6 236.5 -107.5t97.5 -240.5v-140q0 -145 -102.5 -246.5t-245.5 -101.5h-74q-123 0 -216 73.5
t-122 190.5z" />
    <glyph glyph-name="uni04E2" unicode="&#x4e2;" 
d="M326 1587v74h565v-74h-565zM1012 1401v-1401h-74v1270l-641 -1270h-92v1401h74v-1270l641 1270h92z" />
    <glyph glyph-name="uni04E3" unicode="&#x4e3;" 
d="M326 1231v74h565v-74h-565zM221 0v1044h74v-925l620 925h80v-1044h-73v926l-621 -926h-80z" />
    <glyph glyph-name="uni04E4" unicode="&#x4e4;" 
d="M449 1548v260h73v-260h-73zM694 1548v260h74v-260h-74zM1012 1401v-1401h-74v1270l-641 -1270h-92v1401h74v-1270l641 1270h92z" />
    <glyph glyph-name="uni04E5" unicode="&#x4e5;" 
d="M449 1192v260h73v-260h-73zM694 1192v260h74v-260h-74zM221 0v1044h74v-925l620 925h80v-1044h-73v926l-621 -926h-80z" />
    <glyph glyph-name="uni04E6" unicode="&#x4e6;" 
d="M449 1548v260h73v-260h-73zM694 1548v260h74v-260h-74zM559 -18q-145 0 -246.5 101t-101.5 247v741q0 143 102.5 245.5t245.5 102.5h98q143 0 246 -102.5t103 -245.5v-741q0 -145 -101.5 -246.5t-247.5 -101.5h-98zM559 55h98q115 0 195 80t80 195v741q0 115 -80 195
t-195 80h-98q-113 0 -193.5 -81t-80.5 -194v-741q0 -113 80.5 -194t193.5 -81z" />
    <glyph glyph-name="uni04E7" unicode="&#x4e7;" 
d="M449 1192v260h73v-260h-73zM694 1192v260h74v-260h-74zM571 1063h74q145 0 246.5 -101.5t101.5 -246.5v-385q0 -143 -102.5 -245.5t-245.5 -102.5h-74q-143 0 -245.5 102t-102.5 246v385q0 145 101.5 246.5t246.5 101.5zM571 989q-113 0 -193.5 -81t-80.5 -193v-385
q0 -113 81 -194t193 -81h74q115 0 195 80t80 195v385q0 115 -80 194.5t-195 79.5h-74z" />
    <glyph glyph-name="uni04E8" unicode="&#x4e8;" 
d="M657 1419q143 0 246 -102.5t103 -245.5v-741q0 -145 -101.5 -246.5t-247.5 -101.5h-98q-145 0 -246.5 101t-101.5 247v741q0 143 102.5 245.5t245.5 102.5h98zM559 1346q-113 0 -193.5 -81t-80.5 -194v-334h647v334q0 115 -80 195t-195 80h-98zM657 55q115 0 195 80
t80 195v334h-647v-334q0 -113 80.5 -194t193.5 -81h98z" />
    <glyph glyph-name="uni04E9" unicode="&#x4e9;" 
d="M645 1063q145 0 246.5 -101.5t101.5 -246.5v-385q0 -143 -102.5 -245.5t-245.5 -102.5h-74q-143 0 -245.5 102t-102.5 246v385q0 145 101.5 246.5t246.5 101.5h74zM571 989q-113 0 -193.5 -81t-80.5 -193v-156h623v156q0 115 -80 194.5t-195 79.5h-74zM645 55
q115 0 195 80t80 195v155h-623v-155q0 -113 81 -194t193 -81h74z" />
    <glyph glyph-name="uni04EA" unicode="&#x4ea;" 
d="M522 1808v-260h-73v260h73zM768 1808v-260h-74v260h74zM657 1419q143 0 246 -102.5t103 -245.5v-741q0 -145 -101.5 -246.5t-247.5 -101.5h-98q-145 0 -246.5 101t-101.5 247v741q0 143 102.5 245.5t245.5 102.5h98zM559 1346q-113 0 -193.5 -81t-80.5 -194v-334h647v334
q0 115 -80 195t-195 80h-98zM657 55q115 0 195 80t80 195v334h-647v-334q0 -113 80.5 -194t193.5 -81h98z" />
    <glyph glyph-name="uni04EB" unicode="&#x4eb;" 
d="M522 1452v-260h-73v260h73zM768 1452v-260h-74v260h74zM645 1063q145 0 246.5 -101.5t101.5 -246.5v-385q0 -143 -102.5 -245.5t-245.5 -102.5h-74q-143 0 -245.5 102t-102.5 246v385q0 145 101.5 246.5t246.5 101.5h74zM571 989q-113 0 -193.5 -81t-80.5 -193v-156h623
v156q0 115 -80 194.5t-195 79.5h-74zM645 55q115 0 195 80t80 195v155h-623v-155q0 -113 81 -194t193 -81h74z" />
    <glyph glyph-name="uni04EC" unicode="&#x4ec;" 
d="M502 1808v-260h-74v260h74zM748 1808v-260h-74v260h74zM639 1419q145 0 246.5 -102.5t101.5 -245.5v-741q0 -145 -101.5 -246.5t-246.5 -101.5h-98q-121 0 -215.5 73.5t-122.5 188.5l71 20q23 -92 96.5 -150.5t170.5 -58.5h98q115 0 194.5 81t79.5 194v334h-553v73h553
v334q0 113 -80.5 194t-193.5 81h-98q-96 0 -170 -58.5t-97 -150.5l-71 20q29 113 123 187.5t215 74.5h98z" />
    <glyph glyph-name="uni04ED" unicode="&#x4ed;" 
d="M502 1452v-260h-74v260h74zM748 1452v-260h-74v260h74zM627 1063q143 0 245.5 -101.5t102.5 -246.5v-385q0 -145 -102.5 -246.5t-245.5 -101.5h-74q-121 0 -215 74.5t-123 189.5l72 20q23 -92 96.5 -151.5t169.5 -59.5h74q115 0 194.5 81t79.5 194v162h-545v73h545v150
q0 113 -80 193.5t-194 80.5h-74q-96 0 -170 -59.5t-96 -151.5l-72 21q29 115 123 189.5t215 74.5h74z" />
    <glyph glyph-name="uni04EE" unicode="&#x4ee;" 
d="M326 1587v74h565v-74h-565zM217 0v74h156q72 0 96 63l98 217l-286 641q-61 139 -62 275v131h74v-131q0 -121 55 -244l258 -582l260 582q53 119 54 244v131h73v-131q0 -135 -61 -275l-393 -886q-55 -109 -166 -109h-156z" />
    <glyph glyph-name="uni04EF" unicode="&#x4ef;" 
d="M326 1231v74h565v-74h-565zM225 1044h74v-133q0 -119 61 -231l252 -471l254 471q59 109 60 231v133h73v-133q0 -141 -67 -268l-488 -899q-10 -16 -27.5 -36.5t-56 -42t-84.5 -21.5h-157v73h157q16 0 31 4.5t25 10.5t19 14t14.5 14.5t9.5 12.5l4 6l192 354l-276 510
q-70 131 -70 268v133z" />
    <glyph glyph-name="uni04F0" unicode="&#x4f0;" 
d="M449 1548v260h73v-260h-73zM694 1548v260h74v-260h-74zM217 0v74h156q72 0 96 63l98 217l-286 641q-61 139 -62 275v131h74v-131q0 -121 55 -244l258 -582l260 582q53 119 54 244v131h73v-131q0 -135 -61 -275l-393 -886q-55 -109 -166 -109h-156z" />
    <glyph glyph-name="uni04F1" unicode="&#x4f1;" 
d="M449 1192v260h73v-260h-73zM694 1192v260h74v-260h-74zM225 1044h74v-133q0 -119 61 -231l252 -471l254 471q59 109 60 231v133h73v-133q0 -141 -67 -268l-488 -899q-10 -16 -27.5 -36.5t-56 -42t-84.5 -21.5h-157v73h157q16 0 31 4.5t25 10.5t19 14t14.5 14.5t9.5 12.5
l4 6l192 354l-276 510q-70 131 -70 268v133z" />
    <glyph glyph-name="uni04F2" unicode="&#x4f2;" 
d="M485 1511l-53 54l232 231l53 -53zM758 1511l-53 54l231 231l53 -53zM217 0v74h156q72 0 96 63l98 217l-286 641q-61 139 -62 275v131h74v-131q0 -121 55 -244l258 -582l260 582q53 119 54 244v131h73v-131q0 -135 -61 -275l-393 -886q-55 -109 -166 -109h-156z" />
    <glyph glyph-name="uni04F3" unicode="&#x4f3;" 
d="M485 1155l-53 53l232 232l53 -54zM758 1155l-53 53l231 232l53 -54zM225 1044h74v-133q0 -119 61 -231l252 -471l254 471q59 109 60 231v133h73v-133q0 -141 -67 -268l-488 -899q-10 -16 -27.5 -36.5t-56 -42t-84.5 -21.5h-157v73h157q16 0 31 4.5t25 10.5t19 14
t14.5 14.5t9.5 12.5l4 6l192 354l-276 510q-70 131 -70 268v133z" />
    <glyph glyph-name="uni04F4" unicode="&#x4f4;" 
d="M522 1808v-260h-73v260h73zM768 1808v-260h-74v260h74zM971 1401v-1401h-74v713q-106 -158 -291 -158h-57q-143 0 -245.5 101.5t-102.5 246.5v498h73v-498q0 -115 80 -194.5t195 -79.5h74q115 0 194.5 81t79.5 193v498h74z" />
    <glyph glyph-name="uni04F5" unicode="&#x4f5;" 
d="M522 1452v-260h-73v260h73zM768 1452v-260h-74v260h74zM975 1044v-1044h-74v516q-106 -158 -291 -158h-57q-143 0 -245.5 101.5t-102.5 247.5v337h74v-337q0 -115 79.5 -195t194.5 -80h74q115 0 194.5 81t79.5 194v337h74z" />
    <glyph glyph-name="uni04F6" unicode="&#x4f6;" 
d="M1024 1327h-678v-1253h57v-430h-73v356h-58v1401h752v-74z" />
    <glyph glyph-name="uni04F7" unicode="&#x4f7;" 
d="M1012 971h-666v-897h57v-430h-73v356h-58v1044h740v-73z" />
    <glyph glyph-name="uni04F8" unicode="&#x4f8;" 
d="M449 1548v260h73v-260h-73zM694 1548v260h74v-260h-74zM213 1401h74v-576h94q143 0 245.5 -101t102.5 -247v-129q0 -143 -102.5 -245.5t-245.5 -102.5h-168v1401zM930 1401h74v-1401h-74v1401zM287 752v-678h94q115 0 194.5 79.5t79.5 194.5v129q0 113 -79.5 194
t-194.5 81h-94z" />
    <glyph glyph-name="uni04F9" unicode="&#x4f9;" 
d="M449 1192v260h73v-260h-73zM694 1192v260h74v-260h-74zM209 0v1044h74v-450h151q125 0 211 -87t86 -210q0 -125 -86 -211t-211 -86h-225zM934 0v1044h74v-1044h-74zM283 74h151q94 0 158.5 64.5t64.5 158.5q0 92 -64.5 157.5t-158.5 65.5h-151v-446z" />
    <glyph glyph-name="uni0510" unicode="&#x510;" 
d="M969 264l71 -20q-29 -115 -124 -188.5t-216 -73.5h-100q-145 0 -247.5 102t-102.5 246v71q0 104 60.5 190.5t156.5 123.5q-90 39 -147.5 123t-57.5 186v47q0 143 103.5 245.5t246.5 102.5h88q121 0 215.5 -74.5t122.5 -187.5l-69 -20q-23 90 -97.5 149.5t-171.5 59.5h-88
q-113 0 -194.5 -81t-81.5 -194v-47q0 -113 81 -193.5t195 -80.5h203v-74h-215q-113 0 -194.5 -81t-81.5 -194v-71q0 -113 80.5 -194t195.5 -81h100q98 0 172 58.5t97 150.5z" />
    <glyph glyph-name="uni0511" unicode="&#x511;" 
d="M926 221l71 -22q-25 -94 -102.5 -155.5t-177.5 -61.5h-203q-121 0 -206 85t-85 205q0 88 50.5 159t132.5 101q-70 33 -113 98.5t-43 145.5q0 119 84 203t203 84h182q96 0 173 -59.5t103 -149.5l-71 -20q-18 68 -74.5 111.5t-130.5 43.5h-182q-88 0 -150.5 -62.5
t-62.5 -150.5t61 -150.5t152 -62.5h172v-74h-195q-90 0 -153.5 -63.5t-63.5 -153.5t63.5 -153.5t153.5 -63.5h203q76 0 134.5 46t74.5 120z" />
    <glyph glyph-name="uni051C" unicode="&#x51c;" 
d="M152 1401h73v-275q0 -123 25 -262l145 -760l168 736h92l168 -731l144 755q25 139 24 262v275h74v-275q0 -139 -25 -274l-161 -852h-99l-172 754l-170 -754h-100l-162 852q-25 135 -24 274v275z" />
    <glyph glyph-name="uni051D" unicode="&#x51d;" 
d="M150 911v133h73v-133q0 -129 31 -254l133 -536l182 745h78l182 -745l134 536q14 55 21 119t7 101l2 34v133h74v-133q0 -137 -33 -270l-160 -641h-86l-180 748l-180 -748h-86l-160 641q-32 133 -32 270z" />
    <glyph glyph-name="uni0524" unicode="&#x524;" 
d="M993 74h58v-430h-74v356h-57v1327h-623v-1327h-74v1401h770v-1327z" />
    <glyph glyph-name="uni0525" unicode="&#x525;" 
d="M993 74h58v-430h-74v356h-57v971h-623v-971h-74v1044h770v-970z" />
    <glyph glyph-name="uni0526" unicode="&#x526;" 
d="M1016 74h57v-430h-74v356h-57v498q0 115 -80 194.5t-194 79.5h-74q-115 0 -195 -81t-80 -193v-498h-73v1401h73v-713q106 158 291 158h58q143 0 245.5 -101.5t102.5 -246.5v-424z" />
    <glyph glyph-name="uni0527" unicode="&#x527;" 
d="M999 74h58v-430h-74v356h-57v715q0 115 -80 194.5t-195 79.5h-73q-115 0 -195 -81t-80 -193v-715h-74v1401h74v-496q106 158 291 158h57q143 0 245.5 -101.5t102.5 -246.5v-641z" />
    <glyph glyph-name="uni0E3F" unicode="&#xe3f;" 
d="M815 715q94 -37 154.5 -122t60.5 -192v-53q0 -143 -102.5 -245.5t-245.5 -102.5h-33v-172h-74v172h-327v1401h327v184h74v-184h21q145 0 246.5 -102.5t101.5 -245.5v-29q0 -102 -56.5 -186t-146.5 -123zM670 1327h-348v-577h348q113 0 193.5 80.5t80.5 193.5v29
q0 115 -80.5 194.5t-193.5 79.5zM956 348v53q0 115 -80.5 195t-193.5 80h-360v-602h360q113 0 193.5 80.5t80.5 193.5z" />
    <glyph glyph-name="uni1D6B" unicode="&#x1d6b;" horiz-adv-x="1228" 
d="M1124 487h-458v-239q0 -78 57 -135.5t135 -57.5q66 0 116 38t68 95l70 -20q-25 -82 -95.5 -134t-158.5 -52q-76 0 -137.5 39.5t-91.5 105.5q-31 -66 -92.5 -105.5t-137.5 -39.5q-111 0 -188.5 78.5t-77.5 187.5v796h74v-796q0 -78 56 -135.5t136 -57.5t136.5 57.5
t56.5 135.5v796h74v-83q68 102 192 102q113 0 189.5 -78t76.5 -188v-310zM858 989q-78 0 -135 -56t-57 -136v-236h385v236q0 80 -56.5 136t-136.5 56z" />
    <glyph glyph-name="uni1E04" unicode="&#x1e04;" 
d="M815 715q94 -37 154.5 -122t60.5 -192v-53q0 -143 -102.5 -245.5t-245.5 -102.5h-434v1401h422q145 0 246.5 -102.5t101.5 -245.5v-29q0 -102 -56.5 -186t-146.5 -123zM670 1327h-348v-577h348q113 0 193.5 80.5t80.5 193.5v29q0 115 -80.5 194.5t-193.5 79.5zM956 348
v53q0 115 -80.5 195t-193.5 80h-360v-602h360q113 0 193.5 80.5t80.5 193.5zM565 -434v260h74v-260h-74z" />
    <glyph glyph-name="uni1E05" unicode="&#x1e05;" 
d="M657 1063q145 0 247 -101.5t102 -246.5v-385q0 -145 -101.5 -246.5t-247.5 -101.5h-57q-184 0 -291 157v-139h-73v1401h73v-496q106 158 291 158h57zM932 330v385q0 115 -80 194.5t-195 79.5h-73q-113 0 -194 -81t-81 -193v-385q0 -113 81 -194t194 -81h73q115 0 195 80
t80 195zM582 -434v260h73v-260h-73z" />
    <glyph glyph-name="uni1E0C" unicode="&#x1e0c;" 
d="M231 0v1401h428q145 0 248 -101.5t103 -246.5v-705q0 -145 -102.5 -246.5t-248.5 -101.5h-428zM305 74h354q115 0 196 79.5t81 194.5v705q0 115 -81 194.5t-196 79.5h-354v-1253zM563 -434v260h74v-260h-74z" />
    <glyph glyph-name="uni1E0D" unicode="&#x1e0d;" 
d="M907 1401h74v-1401h-74v139q-106 -158 -291 -157h-57q-145 0 -246.5 101t-101.5 247v385q0 145 101.5 246.5t246.5 101.5h57q184 0 291 -158v496zM633 55q113 0 193.5 81t80.5 194v385q0 113 -81 193.5t-193 80.5h-74q-115 0 -194.5 -80t-79.5 -194v-385
q0 -115 79.5 -195t194.5 -80h74zM565 -434v260h74v-260h-74z" />
    <glyph glyph-name="uni1E0E" unicode="&#x1e0e;" 
d="M231 0v1401h428q145 0 248 -101.5t103 -246.5v-705q0 -145 -102.5 -246.5t-248.5 -101.5h-428zM305 74h354q115 0 196 79.5t81 194.5v705q0 115 -81 194.5t-196 79.5h-354v-1253zM317 -258v74h566v-74h-566z" />
    <glyph glyph-name="uni1E0F" unicode="&#x1e0f;" 
d="M907 1401h74v-1401h-74v139q-106 -158 -291 -157h-57q-145 0 -246.5 101t-101.5 247v385q0 145 101.5 246.5t246.5 101.5h57q184 0 291 -158v496zM633 55q113 0 193.5 81t80.5 194v385q0 113 -81 193.5t-193 80.5h-74q-115 0 -194.5 -80t-79.5 -194v-385
q0 -115 79.5 -195t194.5 -80h74zM319 -258v74h566v-74h-566z" />
    <glyph glyph-name="uni1E12" unicode="&#x1e12;" 
d="M231 0v1401h428q145 0 248 -101.5t103 -246.5v-705q0 -145 -102.5 -246.5t-248.5 -101.5h-428zM305 74h354q115 0 196 79.5t81 194.5v705q0 115 -81 194.5t-196 79.5h-354v-1253zM336 -344l233 233h64l233 -233l-53 -51l-213 211l-211 -211z" />
    </font>
</defs>
</svg>
