<?xml version="1.0" standalone="no"?>
<!DOCTYPE svg PUBLIC "-//W3C//DTD SVG 1.1//EN" "http://www.w3.org/Graphics/SVG/1.1/DTD/svg11.dtd" >
<svg xmlns="http://www.w3.org/2000/svg" xmlns:xlink="http://www.w3.org/1999/xlink" version="1.1">
<metadata>
Created by FontForge 20170731 at Wed Jun 28 20:11:19 2017
 By Aleksey,,,
Copyright (c) 2015 by Bold Studio. All rights reserved.
</metadata>
<defs>
<font id="BBRollerMonoProST-SemiSuper" horiz-adv-x="1216" >
  <font-face 
    font-family="BB Roller Mono Pro ST Ss"
    font-weight="700"
    font-stretch="normal"
    units-per-em="2048"
    panose-1="0 0 8 0 0 0 0 0 0 0"
    ascent="1638"
    descent="-410"
    x-height="1044"
    cap-height="1401"
    bbox="-299 -1237 2406 2497"
    underline-thickness="0"
    underline-position="0"
    unicode-range="U+0009-1F6E1"
  />
<missing-glyph 
d="M68 698q0 223 159.5 383t380.5 160q223 0 382 -159.5t159 -383t-159 -381t-382 -157.5q-221 0 -380.5 158.5t-159.5 379.5z" />
    <glyph glyph-name="uniFB01" unicode="fi" 
d="M45 682v270h207v68q0 166 117.5 282.5t281.5 116.5q139 0 247 -85t140 -216l-258 -78q-10 47 -46 78t-83 31q-53 0 -91 -38t-38 -91v-68h529v-952h-271v682h-258v-682h-270v682h-207z" />
    <glyph glyph-name="uniFB02" unicode="fl" 
d="M1059 270h84v-270h-82q-121 0 -208 86t-87 209v360h-258v-655h-270v657h-207v271h207v92q0 166 117.5 282.5t281.5 116.5q150 0 261.5 -96t133.5 -242h4v-788q0 -23 23 -23zM508 928h258v92q0 53 -38 91t-91 38t-91 -38t-38 -91v-92z" />
    <glyph glyph-name=".notdef" 
d="M68 698q0 223 159.5 383t380.5 160q223 0 382 -159.5t159 -383t-159 -381t-382 -157.5q-221 0 -380.5 158.5t-159.5 379.5z" />
    <glyph glyph-name="glyph1" horiz-adv-x="0" 
 />
    <glyph glyph-name="glyph2" horiz-adv-x="681" 
 />
    <glyph glyph-name="uni0009" unicode="&#x9;" 
 />
    <glyph glyph-name="space" unicode=" " 
 />
    <glyph glyph-name="exclam" unicode="!" 
d="M473 473v928h270v-928h-270zM473 0v344h270v-344h-270z" />
    <glyph glyph-name="quotedbl" unicode="&#x22;" 
d="M250 829v572h272v-572h-272zM694 829v572h273v-572h-273z" />
    <glyph glyph-name="numbersign" unicode="#" 
d="M49 326v270h203v215h-203v270h203v320h270v-320h185v320h270v-320h190v-270h-190v-215h190v-270h-190v-326h-270v326h-185v-326h-270v326h-203zM522 596h185v215h-185v-215z" />
    <glyph glyph-name="dollar" unicode="$" 
d="M1055 381q0 -150 -94.5 -260.5t-237.5 -132.5v-166h-270v164q-119 18 -208 99t-118 198l258 77q8 -47 44 -77.5t83 -30.5h143q53 0 91 38t38 91q0 119 -145 174l-162 61q-319 129 -319 404q0 139 87 247.5t220 141.5v170h270v-168q113 -23 198 -101.5t111 -191.5
l-262 -74q-8 45 -42.5 75t-82.5 30h-100q-53 0 -91 -38t-38 -91q0 -31 7 -51.5t43 -48t104 -54.5l161 -63q145 -57 228.5 -167t83.5 -255z" />
    <glyph glyph-name="percent" unicode="%" 
d="M362.5 915q-104.5 0 -178 74t-73.5 178.5t73.5 178t178 73.5t178 -73.5t73.5 -178t-73.5 -178.5t-178 -74zM129 0v121q0 72 24.5 144.5t44 104t31.5 46.5l527 692q61 78 61 164v129h270v-129q0 -174 -116 -328l-527 -692q-4 -4 -13 -20.5t-20.5 -48t-11.5 -62.5v-121
h-270zM362.5 1186q-18.5 0 -18.5 -18.5t18.5 -18.5t18.5 18.5t-18.5 18.5zM854 -18q-104 0 -178 73.5t-74 178t74 178t178 73.5t178 -73.5t74 -178t-74 -178t-178 -73.5zM854 252q-18 0 -18 -18.5t18 -18.5t18 18.5t-18 18.5z" />
    <glyph glyph-name="ampersand" unicode="&#x26;" 
d="M981 250l262 -74q-31 -86 -104.5 -140t-163.5 -54q-119 0 -201 82.5t-82 199.5v328h-194q-53 0 -91 -38t-38 -91v-64q0 -51 38.5 -90t90.5 -39h80v-270h-80q-166 0 -283 118t-117 281v64q0 88 45 161.5t121 114.5q-129 94 -129 252v29q0 166 117 282.5t283 116.5h28
q166 0 283 -115.5t117 -283.5v-158h206v-270h-206v-328q0 -12 12 -12zM406 1020v-29q0 -53 37.5 -91t91.5 -38h157v158q0 53 -38 91t-91 38h-28q-53 0 -91 -38t-38 -91z" />
    <glyph glyph-name="quotesingle" unicode="'" 
d="M473 829v572h272v-572h-272z" />
    <glyph glyph-name="parenleft" unicode="(" 
d="M375 264v676q0 190 135 325.5t326 135.5h110v-271h-110q-78 0 -134.5 -55t-56.5 -135v-676q0 -78 56.5 -134t134.5 -56h110v-271h-110q-190 0 -325.5 134t-135.5 327z" />
    <glyph glyph-name="parenright" unicode=")" 
d="M842 264q0 -193 -135.5 -327t-325.5 -134h-111v271h111q78 0 134 56t56 134v676q0 80 -56 135t-134 55h-111v271h111q190 0 325.5 -135.5t135.5 -325.5v-676z" />
    <glyph glyph-name="asterisk" unicode="*" 
d="M473 1401h270v-227l218 69l83 -256l-217 -72l134 -184l-220 -158l-133 185l-133 -185l-219 158l133 184l-217 72l84 256l217 -69v227z" />
    <glyph glyph-name="plus" unicode="+" 
d="M170 457v270h303v303h270v-303h304v-270h-304v-303h-270v303h-303z" />
    <glyph glyph-name="comma" unicode="," 
d="M375 270h434v-266q0 -162 -99.5 -287t-252.5 -161l-76 260q68 10 113 63t45 121h-164v270z" />
    <glyph glyph-name="hyphen" unicode="-" 
d="M958 727v-270h-700v270h700z" />
    <glyph glyph-name="period" unicode="." 
d="M473 0v362h270v-362h-270z" />
    <glyph glyph-name="slash" unicode="/" 
d="M129 0v121q0 72 24.5 144.5t44 104t31.5 46.5l527 692q61 78 61 164v129h270v-129q0 -174 -116 -328l-527 -692q-4 -4 -13 -20.5t-20.5 -48t-11.5 -62.5v-121h-270z" />
    <glyph glyph-name="zero" unicode="0" 
d="M657 1419q166 0 283 -116.5t117 -282.5v-639q0 -166 -117 -282.5t-283 -116.5h-98q-166 0 -282.5 116.5t-116.5 282.5v639q0 166 116.5 282.5t282.5 116.5h98zM559 1149q-53 0 -91 -38t-38 -91v-307l348 350q-12 39 -45 62.5t-76 23.5h-98zM657 252q53 0 91 38t38 91v307
l-350 -348q14 -39 48 -63.5t75 -24.5h98z" />
    <glyph glyph-name="one" unicode="1" 
d="M160 981l422 420h239v-1131h269v-270h-873v270h334v723l-201 -202z" />
    <glyph glyph-name="two" unicode="2" 
d="M653 516q-119 -55 -151.5 -107.5t-34.5 -138.5h602v-270h-872v231q0 205 77.5 324t262.5 207l26 14q162 76 199 116t37 128q0 53 -38 91t-91 38h-88q-47 0 -83 -31t-46 -78l-258 78q33 131 140 216t247 85h88q166 0 282.5 -116.5t116.5 -282.5q0 -178 -77 -274.5
t-263 -192.5zM467 238v20v-20z" />
    <glyph glyph-name="three" unicode="3" 
d="M158 285l260 75q10 -47 45 -77.5t82 -30.5h82q53 0 91 38t38 91v104q0 53 -38 91t-91 38h-221v271l243 245h-465v271h815v-271l-233 -235l-23 -25q125 -39 204 -144t79 -241v-104q0 -166 -116.5 -282.5t-282.5 -116.5h-82q-137 0 -244.5 85t-142.5 218z" />
    <glyph glyph-name="four" unicode="4" 
d="M190 309v277q0 184 89 342l274 495l235 -129l-274 -497q-53 -98 -53 -211v-6h258v268h270v-850h-270v311h-529z" />
    <glyph glyph-name="five" unicode="5" 
d="M639 940q166 0 282.5 -116.5t116.5 -282.5v-160q0 -164 -116.5 -281.5t-282.5 -117.5h-82q-139 0 -245.5 85t-139.5 218l258 73q8 -45 44 -75.5t83 -30.5h82q53 0 91 38t38 91v160q0 53 -38 91t-91 38h-45q-49 0 -84 -31t-43 -78l-270 80v760h798v-271h-528v-243
q76 53 172 53z" />
    <glyph glyph-name="six" unicode="6" 
d="M651 940q166 0 283 -116.5t117 -282.5v-160q0 -166 -117 -282.5t-283 -116.5h-73q-164 0 -282 116.5t-118 282.5v645q0 162 118 277.5t282 115.5h73q139 0 247 -85t140 -216l-262 -74q-6 45 -42 75t-83 30h-73q-53 0 -91 -38t-38 -91v-135q90 55 196 55h6zM780 381v160
q0 53 -37.5 91t-91.5 38h-73q-53 0 -91 -38t-38 -91v-160q0 -53 37.5 -91t91.5 -38h73q53 0 91 38t38 91z" />
    <glyph glyph-name="seven" unicode="7" 
d="M209 969v432h860v-129q0 -166 -88 -324l-258 -467q-53 -106 -53 -211v-270h-271v270q0 184 88 342l258 467q2 8 12.5 22.5t16.5 26.5v2h-295v-161h-270z" />
    <glyph glyph-name="eight" unicode="8" 
d="M911 739q139 -115 140 -305v-53q0 -168 -117 -283.5t-283 -115.5h-86q-166 0 -282.5 116.5t-116.5 282.5v78q0 80 38 150.5t103 111.5q-123 113 -123 266v33q0 166 117 281.5t281 117.5h51q166 -2 282.5 -117.5t116.5 -281.5v-33q0 -154 -121 -248zM455 1020v-33
q0 -35 38.5 -69.5t96.5 -49.5l108 -26q63 39 64 110v68q0 53 -39 91t-90 38h-49q-53 0 -91 -38t-38 -91zM780 381v53q0 63 -34.5 93t-106.5 51l-113 28l-16 4q-74 -35 -74 -116v-113q0 -53 38 -91t91 -38h86q53 0 91 38t38 91z" />
    <glyph glyph-name="nine" unicode="9" 
d="M639 1419q164 0 281.5 -116.5t117.5 -282.5v-645q0 -162 -117.5 -277.5t-281.5 -115.5h-74q-139 0 -246.5 85t-140.5 216l262 73q6 -45 42 -74.5t83 -29.5h74q53 0 91 38t38 91v135q-90 -55 -197 -55h-6q-166 0 -282.5 116.5t-116.5 282.5v160q0 166 116.5 282.5
t282.5 116.5h74zM639 731q53 0 91 38t38 91v160q0 53 -38 91t-91 38h-74q-53 0 -91 -38t-38 -91v-160q0 -53 38 -91t91 -38h74z" />
    <glyph glyph-name="colon" unicode=":" 
d="M473 541v362h270v-362h-270zM473 0v362h270v-362h-270z" />
    <glyph glyph-name="semicolon" unicode=";" 
d="M473 522v363h270v-363h-270zM375 270h434v-266q0 -162 -99.5 -287t-252.5 -161l-76 260q68 10 113 63t45 121h-164v270z" />
    <glyph glyph-name="less" unicode="&#x3c;" 
d="M981 356l-102 -250l-750 304v362l750 305l102 -252l-582 -235z" />
    <glyph glyph-name="equal" unicode="=" 
d="M170 655v271h877v-271h-877zM1047 530v-270h-877v270h877z" />
    <glyph glyph-name="greater" unicode="&#x3e;" 
d="M188 356l582 234l-582 235l103 252l749 -305v-362l-749 -304z" />
    <glyph glyph-name="question" unicode="?" 
d="M147 1120q33 131 139.5 215t245.5 84h111q166 0 282.5 -116.5t116.5 -282.5q0 -117 -61 -220.5t-170 -166.5q-45 -27 -68.5 -50.5t-26.5 -37t-3 -35.5v-37h-271v37q0 229 234 358q96 57 96 152q0 53 -37 91t-92 38h-111q-45 0 -80.5 -29.5t-45.5 -75.5zM442 0v344h271
v-344h-271z" />
    <glyph glyph-name="at" unicode="@" 
d="M662 1233q164 0 279.5 -116t115.5 -279v-580q0 -115 -80 -195.5t-194.5 -80.5t-180.5 86q-70 -86 -180 -86q-115 0 -196 80.5t-81 195.5v219q0 115 81 196t196 81q41 0 84 -25v29h192v-500q0 -35 25 -59.5t59.5 -24.5t59 24.5t24.5 59.5v580q0 84 -60.5 143t-143.5 59
h-134q-72 0 -127 -44t-69 -111l-187 55q35 129 140.5 211t242.5 82h134zM506 258v219q0 35 -24.5 59.5t-59.5 24.5t-59.5 -24.5t-24.5 -59.5v-219q0 -35 24.5 -59.5t59.5 -24.5t59.5 24.5t24.5 59.5z" />
    <glyph glyph-name="A" unicode="A" 
d="M1053 590l4 -21q6 -18 12 -50t12 -70.5t11.5 -89t5.5 -95.5v-264h-271v279h-436v-279h-270v264q0 74 11 156t19.5 121t12.5 49l176 629q25 88 99.5 144t168.5 56q92 0 167 -56t104 -144zM608 1149q-12 0 -12 -8l-162 -592h348l-161 592q-3 8 -13 8z" />
    <glyph glyph-name="B" unicode="B" 
d="M930 717q70 -43 110.5 -114t40.5 -154v-50q0 -166 -116.5 -282.5t-282.5 -116.5h-485v1401h473q166 0 282.5 -117t116.5 -283v-24q0 -168 -139 -260zM670 1130h-203v-282h203q53 0 91 38t38 91v24q0 53 -38 91t-91 38zM811 399v50q0 53 -38 91t-91 38h-215v-308h215
q53 0 91 38t38 91z" />
    <glyph glyph-name="C" unicode="C" 
d="M1055 1118l-258 -78q-8 47 -45 78t-84 31h-99q-53 0 -91 -38t-38 -91v-639q0 -53 38 -91t91 -38h99q47 0 83.5 31.5t45.5 76.5l258 -75q-33 -133 -140.5 -218t-246.5 -85h-99q-164 0 -281.5 117.5t-117.5 281.5v639q0 166 118 282.5t281 116.5h99q139 0 246.5 -85
t140.5 -216z" />
    <glyph glyph-name="D" unicode="D" 
d="M184 0v1401h473q166 0 283 -117t117 -283v-602q0 -166 -117 -282.5t-283 -116.5h-473zM455 270h202q53 0 91 38t38 91v602q0 53 -37.5 91t-91.5 38h-202v-860z" />
    <glyph glyph-name="E" unicode="E" 
d="M203 0v1401h872v-271h-602v-294h541v-271h-541v-295h602v-270h-872z" />
    <glyph glyph-name="F" unicode="F" 
d="M246 0v1401h872v-271h-602v-327h541v-271h-541v-532h-270z" />
    <glyph glyph-name="G" unicode="G" 
d="M1059 1118l-260 -76q-8 45 -44 76t-83 31h-107q-53 0 -91 -38t-38 -91v-639q0 -53 38 -91t91 -38h99q53 0 91 38t38 91v184h-215v271h485v-455q0 -166 -117 -282.5t-282 -116.5h-99q-166 0 -282.5 116.5t-116.5 282.5v643q2 164 118.5 279.5t280.5 115.5h107
q137 0 244.5 -85t142.5 -216z" />
    <glyph glyph-name="H" unicode="H" 
d="M774 1401h270v-1401h-270v565h-332v-565h-270v1401h270v-565h332v565z" />
    <glyph glyph-name="I" unicode="I" 
d="M172 270h301v860h-283v271h836v-271h-283v-860h301v-270h-872v270z" />
    <glyph glyph-name="J" unicode="J" 
d="M215 1401h799v-1020q0 -166 -117 -282.5t-283 -116.5h-88q-139 0 -246.5 85t-140.5 216l260 75q8 -45 44 -75.5t83 -30.5h88q53 0 91 38t38 91v749h-528v271z" />
    <glyph glyph-name="K" unicode="K" 
d="M184 1401h271v-559h55l262 282q63 70 64 150v127h270v-129q0 -27 -5 -65t-38 -119.5t-90 -145.5l-219 -235l231 -248q59 -63 94 -145.5t40 -120t5 -64.5v-129h-270v127q0 76 -63 145l-279 299h-57v-571h-271v1401z" />
    <glyph glyph-name="L" unicode="L" 
d="M221 1401h271v-1131h583v-270h-854v1401z" />
    <glyph glyph-name="M" unicode="M" 
d="M111 0v1401h327l170 -664l170 664h328v-1401h-270v934l-121 -492h-211l-123 492v-934h-270z" />
    <glyph glyph-name="N" unicode="N" 
d="M123 1401h338l362 -907v907h271v-1401h-338l-363 907v-907h-270v1401z" />
    <glyph glyph-name="O" unicode="O" 
d="M559 -18q-166 0 -282.5 116.5t-116.5 282.5v639q0 166 116.5 282.5t282.5 116.5h98q166 0 283 -116.5t117 -282.5v-639q0 -166 -117 -282.5t-283 -116.5h-98zM559 252h98q53 0 91 38t38 91v639q0 53 -37.5 91t-91.5 38h-98q-53 0 -91 -38t-38 -91v-639q0 -53 38 -91
t91 -38z" />
    <glyph glyph-name="P" unicode="P" 
d="M221 0v1401h473q166 0 283 -117t117 -283v-131q0 -166 -117 -282.5t-283 -116.5h-202v-471h-271zM492 741h202q53 0 91 38t38 91v131q0 53 -37.5 91t-91.5 38h-202v-389z" />
    <glyph glyph-name="Q" unicode="Q" 
d="M657 1419q166 0 283 -116.5t117 -282.5v-639q0 -143 -88 -252t-226 -137v-348h-270v348q-137 29 -225 137.5t-88 251.5v639q0 166 116.5 282.5t282.5 116.5h98zM786 381v639q0 53 -37.5 91t-91.5 38h-98q-53 0 -91 -38t-38 -91v-639q0 -53 38 -91t91 -38h98q53 0 91 38
t38 91z" />
    <glyph glyph-name="R" unicode="R" 
d="M946 459q61 -68 98 -157t37 -173v-129h-270v129q0 33 -19.5 76t-43.5 69l-218 230h-69v-504h-271v1401h474q166 0 282.5 -117t116.5 -283v-98q0 -113 -56.5 -206t-150.5 -144zM461 1130v-356h203q53 0 91 38t38 91v98q0 53 -38 91t-91 38h-203z" />
    <glyph glyph-name="S" unicode="S" 
d="M127 283l258 77q8 -47 44 -77.5t83 -30.5h143q53 0 91 38t38 91q0 119 -145 174l-162 61q-319 129 -319 404q0 166 117.5 282.5t281.5 116.5h100q137 0 246 -85t141 -216l-262 -74q-8 45 -42.5 75t-82.5 30h-100q-53 0 -91 -38t-38 -91q0 -31 7 -51.5t43 -48t104 -54.5
l161 -63q145 -57 228.5 -167t83.5 -255q0 -166 -117 -282.5t-283 -116.5h-143q-137 0 -244.5 85t-140.5 216z" />
    <glyph glyph-name="T" unicode="T" 
d="M147 1401h922v-271h-326v-1130h-270v1130h-326v271z" />
    <glyph glyph-name="U" unicode="U" 
d="M158 1401h270v-1020q0 -53 38 -91t91 -38h98q53 0 91 38t38 91v1020h271v-1020q0 -166 -117 -282.5t-283 -116.5h-98q-166 0 -282.5 116.5t-116.5 282.5v1020z" />
    <glyph glyph-name="V" unicode="V" 
d="M121 1401h270v-293q0 -106 45 -242l172 -557l172 557q45 135 45 242v293h271v-262q2 -139 -49 -330l-263 -809h-352l-262 809q-16 37 -35 154q-14 90 -14 176v262z" />
    <glyph glyph-name="W" unicode="W" 
d="M86 1401h270v-275q0 -135 21 -245l59 -371l64 397h215l65 -399l62 373q20 121 20 247v273h271v-275q0 -145 -25 -290l-143 -836h-252l-105 496l-104 -496h-250l-145 836q-23 145 -23 290v275z" />
    <glyph glyph-name="X" unicode="X" 
d="M135 1401h271v-127q0 -88 67 -176l135 -166l135 166q68 88 68 176v127h270v-129q0 -180 -125 -340l-180 -227l223 -289q12 -14 32 -46t44.5 -104.5t24.5 -144.5v-121h-271v121q0 31 -11 63.5t-20.5 48t-13.5 19.5l-176 225l-176 -225q-4 -4 -13 -20.5t-20.5 -48
t-11.5 -62.5v-121h-270v121q0 72 24.5 144.5t44 104t31.5 46.5l223 289l-180 227q-125 160 -125 340v129z" />
    <glyph glyph-name="Y" unicode="Y" 
d="M1094 1112q0 -145 -97 -281l-254 -323v-508h-270v508l-254 323q-96 135 -96 281v289h270v-289q0 -27 10.5 -55.5t18.5 -42t12 -17.5l174 -223l174 223q4 4 12.5 17.5t18.5 42t10 55.5v289h271v-289z" />
    <glyph glyph-name="Z" unicode="Z" 
d="M182 1401h836v-271l-549 -860h567v-270h-872v270l551 860h-533v271z" />
    <glyph glyph-name="bracketleft" unicode="[" 
d="M381 -197v1598h571v-271h-301v-1056h301v-271h-571z" />
    <glyph glyph-name="backslash" unicode="\" 
d="M1087 0h-270v121q0 31 -11 62.5t-20.5 48t-13.5 20.5l-526 692q-117 154 -117 328v129h270v-129q0 -86 62 -164l526 -692q12 -14 31.5 -46t44 -104.5t24.5 -144.5v-121z" />
    <glyph glyph-name="bracketright" unicode="]" 
d="M836 -197h-572v271h301v1056h-301v271h572v-1598z" />
    <glyph glyph-name="asciicircum" unicode="^" 
d="M176 786l250 615h362l250 -615l-250 -100l-182 444l-180 -444z" />
    <glyph glyph-name="underscore" unicode="_" 
d="M190 -326v271h836v-271h-836z" />
    <glyph glyph-name="grave" unicode="`" 
d="M686 1155l-348 348l194 195l349 -348z" />
    <glyph glyph-name="a" unicode="a" 
d="M764 1044h270v-1044h-270v39q-90 -57 -197 -57h-6q-166 0 -282.5 116.5t-116.5 282.5v283q0 168 115.5 283.5t283.5 115.5h6q106 0 197 -57v38zM635 252q53 0 91 38t38 91v283q0 53 -38 91t-91 38h-74q-53 0 -91 -38t-38 -91v-283q0 -53 38 -91t91 -38h74z" />
    <glyph glyph-name="b" unicode="b" 
d="M657 1063q168 0 284 -116t116 -283v-283q0 -166 -117 -282.5t-283 -116.5h-6q-106 0 -196 57v-39h-271v1401h271v-395q90 57 196 57h6zM786 381v283q0 53 -37.5 91t-91.5 38h-73q-53 0 -91 -38t-38 -91v-283q0 -53 38.5 -91t90.5 -38h73q53 0 91 38t38 91z" />
    <glyph glyph-name="c" unicode="c" 
d="M190 381v283q0 166 117 282.5t283 116.5h82q139 0 245.5 -85t141.5 -216l-260 -74q-10 45 -45 75t-82 30h-82q-53 0 -91 -38t-38 -91v-283q0 -53 38 -91t91 -38h82q47 0 81.5 31.5t45.5 76.5l260 -75q-35 -133 -142.5 -218t-244.5 -85h-82q-166 0 -283 116.5t-117 282.5z
" />
    <glyph glyph-name="d" unicode="d" 
d="M762 1401h270v-1401h-270v39q-90 -57 -197 -57h-6q-166 0 -282.5 116.5t-116.5 282.5v283q0 168 115.5 283.5t283.5 115.5h6q106 0 197 -57v395zM633 252q51 0 90 38t39 91v283q0 53 -38 91t-91 38h-74q-53 0 -91 -38t-38 -91v-283q0 -53 38 -91t91 -38h74z" />
    <glyph glyph-name="e" unicode="e" 
d="M578 1063h73q166 0 283 -117t117 -282v-254h-602v-29q0 -53 37.5 -91t91.5 -38h90q45 0 79.5 28.5t45.5 71.5l258 -76q-35 -127 -140.5 -210.5t-242.5 -83.5h-90q-166 0 -283 116.5t-117 282.5v283q0 166 117 282.5t283 116.5zM449 633h331v31q0 53 -37.5 91t-91.5 38
h-73q-53 0 -91 -38t-38 -91v-31z" />
    <glyph glyph-name="f" unicode="f" 
d="M172 0v270h234v412h-234v270h234v68q0 166 117.5 282.5t281.5 116.5h82q139 0 246.5 -85t140.5 -216l-260 -78q-10 47 -45 78t-82 31h-82q-53 0 -91 -38t-38 -91v-68h340v-270h-340v-412h387v-270h-891z" />
    <glyph glyph-name="g" unicode="g" 
d="M762 1044h270v-1019q0 -166 -115.5 -283t-281.5 -117h-80q-139 0 -247.5 85t-143.5 216l262 78q8 -47 44 -77.5t85 -30.5h80q51 0 89 37.5t38 91.5v96q-90 -57 -197 -58h-6q-166 0 -282.5 118t-116.5 282v201q0 166 116.5 282.5t282.5 116.5h6q106 0 197 -55v36zM633 334
q53 0 91 38t38 91v201q0 53 -38 91t-91 38h-74q-53 0 -91 -38t-38 -91v-201q0 -53 39 -91t90 -38h74z" />
    <glyph glyph-name="h" unicode="h" 
d="M651 1063q168 0 284 -116t116 -283v-664h-271v664q0 53 -37.5 91t-91.5 38h-73q-53 0 -91 -38t-38 -91v-664h-271v1401h271v-395q90 57 196 57h6z" />
    <glyph glyph-name="i" unicode="i" 
d="M516 1167v363h270v-363h-270zM252 1044h534v-774h308v-270h-910v270h332v504h-264v270z" />
    <glyph glyph-name="j" unicode="j" 
d="M596 1167v363h270v-363h-270zM209 1044h657v-1021q0 -166 -116.5 -282t-280.5 -116q-135 0 -241.5 81t-141.5 208l258 82q10 -43 45 -71.5t80 -28.5q51 0 89 37.5t38 89.5v751h-387v270z" />
    <glyph glyph-name="k" unicode="k" 
d="M203 1401h270v-750h98l168 144q27 23 43.5 53.5t20.5 48.5l2 18v129h270v-129q0 -29 -5 -66.5t-45 -119.5t-110 -139l-81 -72l118 -98q20 -16 46 -44t61 -101.5t35 -153.5v-121h-271v121q0 23 -10 44t-19.5 32.5t-13.5 13.5l-205 170h-102v-381h-270v1401z" />
    <glyph glyph-name="l" unicode="l" 
d="M1190 272q-35 -127 -141.5 -208.5t-241.5 -81.5q-164 0 -280.5 117.5t-116.5 279.5v751h-308v271h578v-1022q0 -51 37 -89t90 -38q45 0 81 28.5t44 71.5z" />
    <glyph glyph-name="m" unicode="m" 
d="M864 1063q119 0 205 -85t86 -206v-772h-270v725q0 29 -20.5 48.5t-47.5 19.5q-29 0 -48 -19.5t-19 -48.5v-725h-271v725q0 29 -20.5 48.5t-46.5 19.5q-29 0 -48.5 -19.5t-19.5 -48.5v-725h-270v1044h270v-51q66 70 162 70t164 -72q81 72 194 72z" />
    <glyph glyph-name="n" unicode="n" 
d="M651 1063q168 0 284 -116t116 -283v-664h-271v664q0 53 -37.5 91t-91.5 38h-73q-53 0 -91 -38t-38 -91v-664h-271v1044h271v-38q90 57 196 57h6z" />
    <glyph glyph-name="o" unicode="o" 
d="M571 1063h74q166 0 282.5 -117t116.5 -282v-283q0 -166 -116.5 -282.5t-282.5 -116.5h-74q-166 0 -282.5 116.5t-116.5 282.5v283q0 166 116.5 282.5t282.5 116.5zM571 793q-53 0 -91 -38t-38 -91v-283q0 -53 38 -91t91 -38h74q53 0 91 38t38 91v283q0 53 -38 91t-91 38
h-74z" />
    <glyph glyph-name="p" unicode="p" 
d="M657 1063q166 0 283 -117t117 -282v-283q0 -168 -116 -283.5t-284 -115.5h-6q-106 0 -196 57v-395h-271v1400h271v-38q90 57 196 57h6zM786 381v283q0 53 -37.5 91t-91.5 38h-73q-51 0 -90 -38t-39 -91v-283q0 -53 37.5 -91t91.5 -38h73q53 0 91 38t38 91z" />
    <glyph glyph-name="q" unicode="q" 
d="M762 1044h270v-1400h-270v395q-90 -57 -197 -57h-6q-168 0 -283.5 115.5t-115.5 283.5v283q0 166 116.5 282.5t282.5 116.5h6q106 0 197 -57v38zM633 252q53 0 91 38t38 91v283q0 53 -39 91t-90 38h-74q-53 0 -91 -38t-38 -91v-283q0 -53 38 -91t91 -38h74z" />
    <glyph glyph-name="r" unicode="r" 
d="M98 0v270h209v394q0 166 117 282.5t283 116.5h81q137 0 245 -85t143 -216l-261 -78q-10 47 -44.5 78t-82.5 31h-81q-53 0 -91 -38t-38 -91v-394h417v-270h-897z" />
    <glyph glyph-name="s" unicode="s" 
d="M172 233l258 80q4 -27 21.5 -44t44.5 -17h217q27 0 45 18.5t18 44.5q0 70 -94 70l-160 14q-145 12 -237 105.5t-92 224.5q0 139 98 236.5t235 97.5h181q117 0 205.5 -70.5t117.5 -181.5l-258 -76q-4 25 -21.5 41.5t-43.5 16.5h-181q-27 0 -45 -17.5t-18 -46.5
q0 -53 86 -61l172 -15q139 -14 232.5 -107t93.5 -230.5t-97.5 -235.5t-236.5 -98h-217q-115 0 -205 71t-119 180z" />
    <glyph glyph-name="t" unicode="t" 
d="M94 774v270h283v283h270v-283h430v-270h-430v-395q0 -51 37 -89t90 -38q45 0 79 28.5t44 71.5l260 -80q-37 -127 -142.5 -208.5t-240.5 -81.5q-164 0 -280.5 116.5t-116.5 280.5v395h-283z" />
    <glyph glyph-name="u" unicode="u" 
d="M172 1044h270v-663q0 -53 38 -91t91 -38h74q53 0 91 38t38 91v663h270v-663q0 -166 -116.5 -282.5t-282.5 -116.5h-74q-166 0 -282.5 116.5t-116.5 282.5v663z" />
    <glyph glyph-name="v" unicode="v" 
d="M123 1044h270v-129q0 -102 49 -208l166 -373l166 373q49 106 49 208v129h271v-129q0 -160 -72 -319l-264 -596l-299 2l-264 594q-72 160 -72 319v129z" />
    <glyph glyph-name="w" unicode="w" 
d="M84 913v131h270v-131q0 -109 25 -235l47 -252l84 440h197l84 -440l47 252q27 127 26 235v131h271v-131q0 -147 -35 -292l-135 -621h-254l-103 516l-102 -516h-254l-135 621q-33 145 -33 292z" />
    <glyph glyph-name="x" unicode="x" 
d="M172 1044h270v-126q0 -66 66 -117l96 -74l105 78q43 33 54 50t11 60v129h270v-129q0 -92 -48 -180t-124 -145l-92 -70l135 -102q23 -16 48.5 -43t62.5 -100.5t37 -153.5v-121h-270v121q0 20 -10.5 40.5t-20.5 31.5l-10 10l-144 108l-143 -106q-41 -41 -41 -84v-121h-270
v121q0 61 19.5 118.5t48 94.5t48 56.5t31.5 27.5l129 100l-92 72q-72 57 -113 138t-47 120t-6 67v129z" />
    <glyph glyph-name="y" unicode="y" 
d="M127 1044h270v-131q0 -92 52 -184l163 -295l166 295q49 84 49 184v131h271v-131q0 -170 -84 -317l-424 -758q-55 -92 -144.5 -143t-189.5 -51h-182v270h182q27 0 50.5 14.5t33.5 25.5t14 19l103 185l-246 438q-84 147 -84 317v131z" />
    <glyph glyph-name="z" unicode="z" 
d="M215 1044h793v-270l-451 -504h469v-270h-829v270l450 504h-432v270z" />
    <glyph glyph-name="braceleft" unicode="{" 
d="M725 848q0 -141 -104 -246q104 -100 104 -246v-172q0 -45 31.5 -77.5t79.5 -32.5h190v-271h-190q-158 0 -269.5 112t-111.5 269v172q0 45 -33 78t-78 33h-37v270h37q45 0 78 33t33 78v172q0 160 111.5 270.5t269.5 110.5h190v-271h-190q-47 0 -79 -31.5t-32 -78.5v-172z
" />
    <glyph glyph-name="bar" unicode="|" 
d="M473 -197v1598h270v-1598h-270z" />
    <glyph glyph-name="braceright" unicode="}" 
d="M872 737h37v-270h-37q-45 0 -77.5 -33t-32.5 -78v-172q0 -158 -111.5 -269.5t-269.5 -111.5h-191v271h191q47 0 79 32.5t32 77.5v172q0 145 104 246q-104 104 -104 246v172q0 47 -32 78.5t-79 31.5h-191v271h191q158 0 269.5 -110.5t111.5 -270.5v-172q0 -45 32.5 -78
t77.5 -33z" />
    <glyph glyph-name="asciitilde" unicode="~" 
d="M182 473v43q0 125 88 213t213 88q70 0 148 -37q16 -8 41.5 -21.5t39 -20.5t21.5 -7q31 0 31 31v43h270v-43q0 -125 -88 -213t-213 -88q-72 0 -147 35q-98 51 -103 51q-31 0 -30 -31v-43h-271z" />
    <glyph glyph-name="uni00A0" unicode="&#xa0;" 
 />
    <glyph glyph-name="exclamdown" unicode="&#xa1;" 
d="M473 1044h270v-344h-270v344zM473 571h270v-927h-270v927z" />
    <glyph glyph-name="cent" unicode="&#xa2;" 
d="M672 430q47 0 81.5 32t45.5 77l260 -76q-27 -109 -108 -187.5t-189 -105.5v-170h-270v172q-131 33 -216.5 140.5t-85.5 246.5v283q0 139 85 246.5t217 140.5v172h270v-170q109 -25 188.5 -103.5t108.5 -187.5l-260 -74q-10 45 -45 75t-82 30h-82q-53 0 -91 -38t-38 -91
v-283q0 -53 38 -91t91 -38h82z" />
    <glyph glyph-name="sterling" unicode="&#xa3;" 
d="M903 336l258 -76q-29 -115 -123 -187.5t-215 -72.5h-698v270h2q66 0 110 45t44 109v141h-156v271h156v186q0 166 116.5 281.5t282.5 115.5q139 0 246.5 -85t140.5 -216l-262 -78q-6 47 -42 78t-83 31q-53 0 -91 -38t-38 -91v-184h340v-271h-340v-82q0 -115 -66 -213h338
q29 0 51.5 18.5t28.5 47.5z" />
    <glyph glyph-name="currency" unicode="&#xa4;" 
d="M1036 635q0 -88 -39 -170l168 -166l-192 -193l-166 168q-82 -39 -170 -38h-57q-88 0 -170 38l-166 -168l-193 193l168 166q-39 82 -39 170v57q0 86 37 170l-166 164l193 193l164 -166q84 39 172 39h57q88 0 172 -39l164 166l192 -193l-166 -166q37 -78 37 -168v-57z
M580 506h57q53 0 91 38t38 91v57q0 53 -38 91t-91 38h-57q-53 0 -91 -38t-38 -91v-57q0 -53 38 -91t91 -38z" />
    <glyph glyph-name="yen" unicode="&#xa5;" 
d="M1094 1401v-289q0 -133 -84 -262h65v-270h-276l-56 -72v-2h332v-270h-332v-236h-270v236h-332v270h332v2l-55 72h-277v270h66q-84 129 -84 262v289h270v-289q0 -27 10.5 -55.5t18.5 -42t12 -17.5l174 -223l174 223q4 4 12.5 17.5t18.5 42t10 55.5v289h271z" />
    <glyph glyph-name="brokenbar" unicode="&#xa6;" 
d="M473 731v670h270v-670h-270zM473 -197v670h270v-670h-270z" />
    <glyph glyph-name="section" unicode="&#xa7;" 
d="M1038 1118l-262 -78q-6 47 -42 78t-83 31h-88q-53 0 -91 -38t-38 -91q0 -61 40 -93t118 -50l158 -41q373 -92 372 -412q0 -150 -96 -262q23 -63 23 -137q0 -166 -117 -283t-283 -117h-86q-139 0 -246.5 85t-140.5 216l258 76q8 -45 45 -75.5t84 -30.5h86q55 0 92 37.5
t37 91.5q0 106 -157 145l-156 37q-98 25 -172 67.5t-111 87t-59.5 97.5t-27.5 89t-5 73q0 147 98 262q-25 63 -24 137q0 166 117.5 282.5t281.5 116.5h88q139 0 246.5 -85t140.5 -216zM360 621q0 -20 3.5 -34t17.5 -37.5t51 -44t96 -34.5l160 -41q70 -16 156 -57q8 23 8 51
q0 20 -3 33.5t-17.5 37t-51.5 44t-96 36.5l-158 37q-86 23 -155 60q-11 -26 -11 -51z" />
    <glyph glyph-name="dieresis" unicode="&#xa8;" 
d="M252 1180v362h270v-362h-270zM694 1180v362h271v-362h-271z" />
    <glyph glyph-name="copyright" unicode="&#xa9;" 
d="M150 580v235q0 193 134 327t324.5 134t325.5 -135t135 -326v-235q0 -188 -136 -323.5t-325 -135.5q-190 0 -324 135.5t-134 323.5zM283 580q0 -135 95 -230.5t230 -95.5q133 0 229.5 95t96.5 231v235q0 135 -96.5 230.5t-229.5 95.5q-135 0 -230 -95.5t-95 -230.5v-235z
M807 881l-131 -37q0 14 -11.5 23.5t-27.5 9.5h-41q-14 0 -26.5 -11.5t-12.5 -25.5v-258q0 -16 11.5 -27.5t27.5 -11.5h41q16 0 27.5 9t11.5 23l131 -36q-16 -57 -63.5 -94t-106.5 -37h-41q-70 0 -120 51t-50 123v258q0 72 50 122t120 50h41q59 0 106.5 -37t63.5 -94z" />
    <glyph glyph-name="ordfeminine" unicode="&#xaa;" 
d="M317 1010v157q0 102 73 174t175 72q51 0 101 -27v15h192v-627h-192v14q-49 -27 -101 -26q-102 0 -175 73t-73 175zM510 1010q0 -20 16.5 -38t38.5 -18h45q20 0 38 17.5t18 38.5v157q0 23 -16.5 38.5t-39.5 15.5h-45q-23 0 -39 -15.5t-16 -38.5v-157zM350 643h490v-192
h-490v192z" />
    <glyph glyph-name="guillemotleft" unicode="&#xab;" 
d="M14 592l453 452l192 -192l-260 -260l260 -258l-192 -193zM559 592l453 452l192 -192l-260 -260l260 -258l-192 -193z" />
    <glyph glyph-name="logicalnot" unicode="&#xac;" 
d="M147 559v270h879v-565h-270v295h-609z" />
    <glyph glyph-name="registered" unicode="&#xae;" 
d="M150 580v235q0 193 134 327t324.5 134t325.5 -135t135 -326v-235q0 -188 -136 -323.5t-325 -135.5q-190 0 -324 135.5t-134 323.5zM283 580q0 -135 95 -230.5t230 -95.5q133 0 229.5 95t96.5 231v235q0 135 -96.5 230.5t-229.5 95.5q-135 0 -230 -95.5t-95 -230.5v-235z
M430 997h203q72 0 122 -50t50 -122v-41q0 -94 -76 -145l2 -2l23 -27q61 -66 61 -145v-55h-135v55q0 25 -25 53l-88 94h-2v-202h-135v587zM565 862v-117h68q39 0 39 39v41q0 16 -11.5 26.5t-27.5 10.5h-68z" />
    <glyph glyph-name="macron" unicode="&#xaf;" 
d="M289 1176v270h639v-270h-639z" />
    <glyph glyph-name="degree" unicode="&#xb0;" 
d="M258 1069q0 145 102.5 247.5t248 102.5t247.5 -102.5t102 -247.5t-102 -247.5t-247.5 -102.5t-248 102.5t-102.5 247.5zM528 1069q0 -33 23.5 -56.5t56.5 -23.5t56.5 23.5t23.5 56.5t-23.5 56.5t-56.5 23.5t-56.5 -23.5t-23.5 -56.5z" />
    <glyph glyph-name="plusminus" unicode="&#xb1;" 
d="M170 631v270h303v209h270v-209h304v-270h-304v-209h-270v209h-303zM170 74v270h877v-270h-877z" />
    <glyph glyph-name="uni00B2" unicode="&#xb2;" 
d="M618 1200q-80 -33 -86 -92h349v-193h-541v123q0 137 43 211t152 127l16 6q100 45 118.5 64.5t18.5 77.5q0 23 -15.5 39t-39.5 16h-58q-51 0 -57 -51l-182 53q20 82 88 135t151 53h58q102 0 175 -71.5t73 -173.5q0 -117 -46.5 -176.5t-162.5 -120.5z" />
    <glyph glyph-name="uni00B3" unicode="&#xb3;" 
d="M326 1094l184 53q8 -51 55 -51h49q23 0 40.5 16t17.5 39v57q0 25 -17.5 41.5t-40.5 16.5h-145v190l127 111h-256v192h504v-192l-121 -103l-18 -18q70 -29 113.5 -94.5t43.5 -143.5v-57q0 -100 -72.5 -173t-175.5 -73h-49q-86 0 -153.5 54.5t-85.5 134.5z" />
    <glyph glyph-name="acute" unicode="&#xb4;" 
d="M532 1155l-194 195l348 348l195 -195z" />
    <glyph glyph-name="uni00B5" unicode="&#xb5;" 
d="M1042 270h84v-270h-82q-137 0 -227 106q-82 -125 -231 -124h-4q-88 0 -164 53v-391h-271v1400h271v-663q0 -53 38 -91t91 -38h74q53 0 91 38t38 91v663h270v-751q0 -8 7 -15.5t15 -7.5z" />
    <glyph glyph-name="paragraph" unicode="&#xb6;" 
d="M129 840v166q0 164 118 280.5t281 116.5l510 -2v-1757h-270v1486l-240 3q-53 0 -91 -38t-38 -91v-164q0 -53 38 -91t91 -38h162v-271h-162q-166 0 -282.5 118t-116.5 282z" />
    <glyph glyph-name="periodcentered" unicode="&#xb7;" 
d="M473 410v362h270v-362h-270z" />
    <glyph glyph-name="cedilla" unicode="&#xb8;" 
d="M776 -88q72 -41 116 -113.5t44 -158.5q0 -129 -92 -221.5t-221 -92.5h-117v271h117q18 0 30.5 13t12.5 30q0 18 -12.5 30.5t-30.5 12.5h-117v317h270v-88z" />
    <glyph glyph-name="uni00B9" unicode="&#xb9;" 
d="M305 1495l264 262h166v-653h154v-189h-539v189h195v360l-107 -102z" />
    <glyph glyph-name="ordmasculine" unicode="&#xba;" 
d="M338 1012v153q0 104 72.5 176t175.5 72h45q102 0 175 -71.5t73 -176.5v-153q0 -102 -73 -175t-175 -73h-45q-102 0 -175 73t-73 175zM530 1012q0 -23 16.5 -40.5t39.5 -17.5h45q23 0 39 17.5t16 40.5v153q0 25 -16.5 40.5t-38.5 15.5h-45q-23 0 -39.5 -15.5t-16.5 -40.5
v-153zM352 451v192h512v-192h-512z" />
    <glyph glyph-name="guillemotright" unicode="&#xbb;" 
d="M657 592l-452 -451l-193 193l260 258l-260 260l193 192zM1202 592l-452 -451l-193 193l260 258l-260 260l193 192z" />
    <glyph glyph-name="onequarter" unicode="&#xbc;" 
d="M545 1464l-107 -102l-133 133l264 262h166v-653h154v-189h-539v189h195v360zM121 795h977v-189h-977v189zM666 10v148h192v-514h-192v178h-301v176q0 113 53 211l166 301l166 -94l-164 -297q-29 -53 -33 -109h113z" />
    <glyph glyph-name="onehalf" unicode="&#xbd;" 
d="M545 1464l-107 -102l-133 133l264 262h166v-653h154v-189h-539v189h195v360zM121 795h977v-189h-977v189zM618 -72q-80 -33 -86 -92h349v-192h-541v123q0 137 43 210.5t152 126.5l16 7q100 45 118.5 64.5t18.5 76.5q0 23 -15.5 39t-39.5 16h-58q-51 0 -57 -51l-182 53
q20 80 88 134.5t151 54.5h58q102 0 175 -72t73 -174q0 -117 -46.5 -176.5t-162.5 -120.5z" />
    <glyph glyph-name="threequarters" unicode="&#xbe;" 
d="M614 1096q23 0 40.5 16t17.5 39v57q0 25 -17.5 41.5t-40.5 16.5h-145v190l127 111h-256v192h504v-192l-121 -103l-18 -18q70 -29 113.5 -94.5t43.5 -143.5v-57q0 -100 -72.5 -173t-175.5 -73h-49q-86 0 -153.5 54.5t-85.5 134.5l184 53q8 -51 55 -51h49zM121 795h977
v-189h-977v189zM666 10v148h192v-514h-192v178h-301v176q0 113 53 211l166 301l166 -94l-164 -297q-29 -53 -33 -109h113z" />
    <glyph glyph-name="questiondown" unicode="&#xbf;" 
d="M774 1044v-344h-270v344h270zM1069 -76q-33 -131 -139.5 -215t-245.5 -84h-111q-166 0 -282.5 117t-116.5 283q0 117 61.5 220t170.5 167q45 27 68.5 50t26.5 36.5t3 36.5v36h270v-36q0 -229 -233 -359q-96 -57 -97 -151q0 -53 37 -91t92 -38h111q45 0 81 29.5t46 74.5z
" />
    <glyph glyph-name="Agrave" unicode="&#xc0;" 
d="M803 1706l-195 -195l-348 349l195 194zM1053 590l4 -21q6 -18 12 -50t12 -70.5t11.5 -89t5.5 -95.5v-264h-271v279h-436v-279h-270v264q0 74 11 156t19.5 121t12.5 49l176 629q25 88 99.5 144t168.5 56q92 0 167 -56t104 -144zM608 1149q-12 0 -12 -8l-162 -592h348
l-161 592q-3 8 -13 8z" />
    <glyph glyph-name="Aacute" unicode="&#xc1;" 
d="M956 1860l-348 -349l-194 195l348 348zM1053 590l4 -21q6 -18 12 -50t12 -70.5t11.5 -89t5.5 -95.5v-264h-271v279h-436v-279h-270v264q0 74 11 156t19.5 121t12.5 49l176 629q25 88 99.5 144t168.5 56q92 0 167 -56t104 -144zM608 1149q-12 0 -12 -8l-162 -592h348
l-161 592q-3 8 -13 8z" />
    <glyph glyph-name="Acircumflex" unicode="&#xc2;" 
d="M608 1630l-186 -188l-193 192l267 267h225l266 -267l-190 -192zM1053 590l4 -21q6 -18 12 -50t12 -70.5t11.5 -89t5.5 -95.5v-264h-271v279h-436v-279h-270v264q0 74 11 156t19.5 121t12.5 49l176 629q25 88 99.5 144t168.5 56q92 0 167 -56t104 -144zM608 1149
q-12 0 -12 -8l-162 -592h348l-161 592q-3 8 -13 8z" />
    <glyph glyph-name="Atilde" unicode="&#xc3;" 
d="M453 1604v-43h-271v43q0 125 88 213t213 88q70 0 148 -37q16 -8 41.5 -21.5t39 -20.5t21.5 -7q31 0 31 30v43h270v-43q0 -125 -88 -213t-213 -88q-72 0 -147 35q-98 51 -103 51q-30 1 -30 -30zM1053 590l4 -21q6 -18 12 -50t12 -70.5t11.5 -89t5.5 -95.5v-264h-271v279
h-436v-279h-270v264q0 74 11 156t19.5 121t12.5 49l176 629q25 88 99.5 144t168.5 56q92 0 167 -56t104 -144zM608 1149q-12 0 -12 -8l-162 -592h348l-161 592q-3 8 -13 8z" />
    <glyph glyph-name="Adieresis" unicode="&#xc4;" 
d="M522 1886v-362h-270v362h270zM965 1886v-362h-271v362h271zM1053 590l4 -21q6 -18 12 -50t12 -70.5t11.5 -89t5.5 -95.5v-264h-271v279h-436v-279h-270v264q0 74 11 156t19.5 121t12.5 49l176 629q25 88 99.5 144t168.5 56q92 0 167 -56t104 -144zM608 1149q-12 0 -12 -8
l-162 -592h348l-161 592q-3 8 -13 8z" />
    <glyph glyph-name="Aring" unicode="&#xc5;" 
d="M1053 590l4 -21q6 -18 12 -50t12 -70.5t11.5 -89t5.5 -95.5v-264h-271v279h-436v-279h-270v264q0 74 11 156t19.5 121t12.5 49l176 629q10 31 20 51q-66 86 -65 192q0 129 92 221.5t221 92.5q131 0 222.5 -92.5t91.5 -221.5q0 -106 -66 -192q16 -33 23 -51zM608 1505
q-16 0 -29.5 -12t-13.5 -30.5t13.5 -31t29.5 -12.5q18 0 30.5 12.5t12.5 31t-12.5 30.5t-30.5 12zM608 1149q-12 0 -12 -8l-162 -592h348l-161 592q-3 8 -13 8z" />
    <glyph glyph-name="AE" unicode="&#xc6;" 
d="M1094 1130h-242v-294h180v-271h-180v-295h242v-270h-512v276h-215v-276h-271v264q0 74 11.5 156t19.5 121t12 49l176 629q27 88 100.5 144t168.5 56q55 0 104 -18h406v-271zM410 547h172v602q-10 0 -11 -8z" />
    <glyph glyph-name="Ccedilla" unicode="&#xc7;" 
d="M668 252q47 0 83.5 31.5t45.5 76.5l258 -75q-29 -113 -113 -194t-199 -103v-76q72 -41 116 -113.5t44 -158.5q0 -129 -92 -221.5t-221 -92.5h-117v271h117q18 0 30.5 13t12.5 30q0 18 -12.5 30.5t-30.5 12.5h-117v311q-131 33 -217 140.5t-86 246.5v639q0 166 118 282.5
t281 116.5h99q139 0 246.5 -85t140.5 -216l-258 -78q-8 47 -45 78t-84 31h-99q-53 0 -91 -38t-38 -91v-639q0 -53 38 -91t91 -38h99z" />
    <glyph glyph-name="Egrave" unicode="&#xc8;" 
d="M629 1511l-348 349l194 194l348 -348zM203 0v1401h872v-271h-602v-294h541v-271h-541v-295h602v-270h-872z" />
    <glyph glyph-name="Eacute" unicode="&#xc9;" 
d="M629 1511l-195 195l348 348l195 -194zM203 0v1401h872v-271h-602v-294h541v-271h-541v-295h602v-270h-872z" />
    <glyph glyph-name="Ecircumflex" unicode="&#xca;" 
d="M250 1634l266 267h225l267 -267l-191 -192l-188 188l-187 -188zM203 0v1401h872v-271h-602v-294h541v-271h-541v-295h602v-270h-872z" />
    <glyph glyph-name="Edieresis" unicode="&#xcb;" 
d="M272 1524v362h271v-362h-271zM715 1524v362h270v-362h-270zM203 0v1401h872v-271h-602v-294h541v-271h-541v-295h602v-270h-872z" />
    <glyph glyph-name="Igrave" unicode="&#xcc;" 
d="M608 1511l-348 349l195 194l348 -348zM172 270h301v860h-283v271h836v-271h-283v-860h301v-270h-872v270z" />
    <glyph glyph-name="Iacute" unicode="&#xcd;" 
d="M608 1511l-194 195l348 348l194 -194zM172 270h301v860h-283v271h836v-271h-283v-860h301v-270h-872v270z" />
    <glyph glyph-name="Icircumflex" unicode="&#xce;" 
d="M229 1634l267 267h225l266 -267l-190 -192l-189 188l-186 -188zM172 270h301v860h-283v271h836v-271h-283v-860h301v-270h-872v270z" />
    <glyph glyph-name="Idieresis" unicode="&#xcf;" 
d="M252 1524v362h270v-362h-270zM694 1524v362h271v-362h-271zM172 270h301v860h-283v271h836v-271h-283v-860h301v-270h-872v270z" />
    <glyph glyph-name="Eth" unicode="&#xd0;" 
d="M676 1401q166 0 282.5 -117t116.5 -283v-602q0 -166 -116.5 -282.5t-282.5 -116.5h-473v565h-170v271h170v565h473zM805 399v602q0 53 -38 91t-91 38h-203v-294h234v-271h-234v-295h203q53 0 91 38t38 91z" />
    <glyph glyph-name="Ntilde" unicode="&#xd1;" 
d="M182 1561v43q0 125 88 213t213 88q70 0 148 -37q16 -8 41.5 -21.5t39 -20.5t21.5 -7q31 0 31 30v43h270v-43q0 -125 -88 -213t-213 -88q-72 0 -147 35q-98 51 -103 51q-31 0 -30 -30v-43h-271zM123 1401h338l362 -907v907h271v-1401h-338l-363 907v-907h-270v1401z" />
    <glyph glyph-name="Ograve" unicode="&#xd2;" 
d="M608 1511l-348 349l195 194l348 -348zM559 -18q-166 0 -282.5 116.5t-116.5 282.5v639q0 166 116.5 282.5t282.5 116.5h98q166 0 283 -116.5t117 -282.5v-639q0 -166 -117 -282.5t-283 -116.5h-98zM559 252h98q53 0 91 38t38 91v639q0 53 -37.5 91t-91.5 38h-98
q-53 0 -91 -38t-38 -91v-639q0 -53 38 -91t91 -38z" />
    <glyph glyph-name="Oacute" unicode="&#xd3;" 
d="M608 1511l-194 195l348 348l194 -194zM559 -18q-166 0 -282.5 116.5t-116.5 282.5v639q0 166 116.5 282.5t282.5 116.5h98q166 0 283 -116.5t117 -282.5v-639q0 -166 -117 -282.5t-283 -116.5h-98zM559 252h98q53 0 91 38t38 91v639q0 53 -37.5 91t-91.5 38h-98
q-53 0 -91 -38t-38 -91v-639q0 -53 38 -91t91 -38z" />
    <glyph glyph-name="Ocircumflex" unicode="&#xd4;" 
d="M229 1634l267 267h225l266 -267l-190 -192l-189 188l-186 -188zM559 -18q-166 0 -282.5 116.5t-116.5 282.5v639q0 166 116.5 282.5t282.5 116.5h98q166 0 283 -116.5t117 -282.5v-639q0 -166 -117 -282.5t-283 -116.5h-98zM559 252h98q53 0 91 38t38 91v639
q0 53 -37.5 91t-91.5 38h-98q-53 0 -91 -38t-38 -91v-639q0 -53 38 -91t91 -38z" />
    <glyph glyph-name="Otilde" unicode="&#xd5;" 
d="M182 1561v43q0 125 88 213t213 88q70 0 148 -37q16 -8 41.5 -21.5t39 -20.5t21.5 -7q31 0 31 30v43h270v-43q0 -125 -88 -213t-213 -88q-72 0 -147 35q-98 51 -103 51q-31 0 -30 -30v-43h-271zM559 -18q-166 0 -282.5 116.5t-116.5 282.5v639q0 166 116.5 282.5
t282.5 116.5h98q166 0 283 -116.5t117 -282.5v-639q0 -166 -117 -282.5t-283 -116.5h-98zM559 252h98q53 0 91 38t38 91v639q0 53 -37.5 91t-91.5 38h-98q-53 0 -91 -38t-38 -91v-639q0 -53 38 -91t91 -38z" />
    <glyph glyph-name="Odieresis" unicode="&#xd6;" 
d="M252 1524v362h270v-362h-270zM694 1524v362h271v-362h-271zM559 -18q-166 0 -282.5 116.5t-116.5 282.5v639q0 166 116.5 282.5t282.5 116.5h98q166 0 283 -116.5t117 -282.5v-639q0 -166 -117 -282.5t-283 -116.5h-98zM559 252h98q53 0 91 38t38 91v639q0 53 -37.5 91
t-91.5 38h-98q-53 0 -91 -38t-38 -91v-639q0 -53 38 -91t91 -38z" />
    <glyph glyph-name="multiply" unicode="&#xd7;" 
d="M180 354l236 238l-236 235l193 191l233 -238l238 238l190 -191l-235 -235l235 -240l-190 -188l-238 237l-233 -235z" />
    <glyph glyph-name="Oslash" unicode="&#xd8;" 
d="M1190 1389l-152 -248q18 -59 19 -121v-639q0 -166 -117 -282.5t-283 -116.5h-98q-111 0 -199 53l-100 -164l-231 143l149 244q-18 57 -18 123v639q0 166 116.5 282.5t282.5 116.5h98q104 0 201 -53l100 162zM430 1020v-352l287 467q-33 14 -60 14h-98q-53 0 -91 -38
t-38 -91zM786 381v348l-284 -465q25 -12 57 -12h98q53 0 91 38t38 91z" />
    <glyph glyph-name="Ugrave" unicode="&#xd9;" 
d="M608 1511l-348 349l195 194l348 -348zM158 1401h270v-1020q0 -53 38 -91t91 -38h98q53 0 91 38t38 91v1020h271v-1020q0 -166 -117 -282.5t-283 -116.5h-98q-166 0 -282.5 116.5t-116.5 282.5v1020z" />
    <glyph glyph-name="Uacute" unicode="&#xda;" 
d="M608 1511l-194 195l348 348l194 -194zM158 1401h270v-1020q0 -53 38 -91t91 -38h98q53 0 91 38t38 91v1020h271v-1020q0 -166 -117 -282.5t-283 -116.5h-98q-166 0 -282.5 116.5t-116.5 282.5v1020z" />
    <glyph glyph-name="Ucircumflex" unicode="&#xdb;" 
d="M229 1634l267 267h225l266 -267l-190 -192l-189 188l-186 -188zM158 1401h270v-1020q0 -53 38 -91t91 -38h98q53 0 91 38t38 91v1020h271v-1020q0 -166 -117 -282.5t-283 -116.5h-98q-166 0 -282.5 116.5t-116.5 282.5v1020z" />
    <glyph glyph-name="Udieresis" unicode="&#xdc;" 
d="M252 1524v362h270v-362h-270zM694 1524v362h271v-362h-271zM158 1401h270v-1020q0 -53 38 -91t91 -38h98q53 0 91 38t38 91v1020h271v-1020q0 -166 -117 -282.5t-283 -116.5h-98q-166 0 -282.5 116.5t-116.5 282.5v1020z" />
    <glyph glyph-name="Yacute" unicode="&#xdd;" 
d="M608 1511l-194 195l348 348l194 -194zM1094 1112q0 -145 -97 -281l-254 -323v-508h-270v508l-254 323q-96 135 -96 281v289h270v-289q0 -27 10.5 -55.5t18.5 -42t12 -17.5l174 -223l174 223q4 4 12.5 17.5t18.5 42t10 55.5v289h271v-289z" />
    <glyph glyph-name="Thorn" unicode="&#xde;" 
d="M221 0v1401h271v-234h202q166 0 283 -116.5t117 -282.5v-131q0 -164 -117 -281.5t-283 -117.5h-202v-238h-271zM492 508h202q53 0 91 38t38 91v131q0 53 -37.5 91t-91.5 38h-202v-389z" />
    <glyph glyph-name="germandbls" unicode="&#xdf;" 
d="M924 735q70 -41 110.5 -112.5t40.5 -155.5v-68q0 -166 -116.5 -282.5t-282.5 -116.5h-125v270h125q53 0 91 38t38 91v68q0 53 -38 91t-91 38h-88v270h76q53 0 91 38t38 91v25q0 53 -38 91t-91 38h-62q-53 0 -91 -38t-38 -91v-1020h-270v1020q0 166 117.5 282.5
t281.5 116.5h62q166 0 282.5 -116.5t116.5 -282.5v-25q0 -168 -139 -260z" />
    <glyph glyph-name="agrave" unicode="&#xe0;" 
d="M803 1350l-195 -195l-348 348l195 195zM764 1044h270v-1044h-270v39q-90 -57 -197 -57h-6q-166 0 -282.5 116.5t-116.5 282.5v283q0 168 115.5 283.5t283.5 115.5h6q106 0 197 -57v38zM635 252q53 0 91 38t38 91v283q0 53 -38 91t-91 38h-74q-53 0 -91 -38t-38 -91v-283
q0 -53 38 -91t91 -38h74z" />
    <glyph glyph-name="aacute" unicode="&#xe1;" 
d="M956 1503l-348 -348l-194 195l348 348zM764 1044h270v-1044h-270v39q-90 -57 -197 -57h-6q-166 0 -282.5 116.5t-116.5 282.5v283q0 168 115.5 283.5t283.5 115.5h6q106 0 197 -57v38zM635 252q53 0 91 38t38 91v283q0 53 -38 91t-91 38h-74q-53 0 -91 -38t-38 -91v-283
q0 -53 38 -91t91 -38h74z" />
    <glyph glyph-name="acircumflex" unicode="&#xe2;" 
d="M608 1274l-186 -189l-193 193l267 266h225l266 -266l-190 -193zM764 1044h270v-1044h-270v39q-90 -57 -197 -57h-6q-166 0 -282.5 116.5t-116.5 282.5v283q0 168 115.5 283.5t283.5 115.5h6q106 0 197 -57v38zM635 252q53 0 91 38t38 91v283q0 53 -38 91t-91 38h-74
q-53 0 -91 -38t-38 -91v-283q0 -53 38 -91t91 -38h74z" />
    <glyph glyph-name="atilde" unicode="&#xe3;" 
d="M764 1536h270v-43q0 -125 -88 -213t-213 -88q-72 0 -147 35q-98 51 -103 51q-31 0 -30 -31v-43h-271v43q0 125 88 213t213 88q70 0 148 -37q16 -8 41.5 -21t39 -20.5t21.5 -7.5q31 0 31 31v43zM764 1006v38h270v-1044h-270v39q-90 -57 -197 -57h-6q-166 0 -282.5 116.5
t-116.5 282.5v283q0 168 115.5 283.5t283.5 115.5h6q107 0 197 -57zM635 252q53 0 91 38t38 91v283q0 53 -38 91t-91 38h-74q-53 0 -91 -38t-38 -91v-283q0 -53 38 -91t91 -38h74z" />
    <glyph glyph-name="adieresis" unicode="&#xe4;" 
d="M522 1530v-363h-270v363h270zM965 1530v-363h-271v363h271zM764 1044h270v-1044h-270v39q-90 -57 -197 -57h-6q-166 0 -282.5 116.5t-116.5 282.5v283q0 168 115.5 283.5t283.5 115.5h6q106 0 197 -57v38zM635 252q53 0 91 38t38 91v283q0 53 -38 91t-91 38h-74
q-53 0 -91 -38t-38 -91v-283q0 -53 38 -91t91 -38h74z" />
    <glyph glyph-name="aring" unicode="&#xe5;" 
d="M915 1044h119v-1044h-270v39q-90 -57 -197 -57h-6q-166 0 -282.5 116.5t-116.5 282.5v283q0 203 157 319q-25 57 -24 123q0 129 92 221t221 92q131 0 222.5 -92t91.5 -221q-1 -31 -7 -62zM608 1149q-16 0 -29.5 -12.5t-13.5 -31t13.5 -30.5t29.5 -12q18 0 30.5 12
t12.5 30.5t-12.5 31t-30.5 12.5zM635 252q53 0 91 38t38 91v283q0 53 -38 91t-91 38h-74q-53 0 -91 -38t-38 -91v-283q0 -53 38 -91t91 -38h74z" />
    <glyph glyph-name="ae" unicode="&#xe6;" 
d="M1159 395h-411v-71q0 -29 21.5 -50.5t49.5 -21.5q27 0 46.5 17.5t23.5 45.5l258 -77q-29 -111 -120 -183.5t-208 -72.5q-35 0 -71 16v-21h-271v19q-35 -14 -69 -14q-143 0 -242.5 100t-99.5 242v399q0 141 99 240.5t243 99.5q35 0 69 -14v18h271v-18q39 14 71 14
q139 0 239.5 -99.5t100.5 -240.5v-328zM407.5 252q28.5 0 49 21.5t20.5 50.5v399q0 27 -21.5 48.5t-47.5 21.5q-29 0 -50.5 -20.5t-21.5 -49.5v-399q0 -29 21.5 -50.5t50 -21.5zM819.5 793q-28.5 0 -50 -20.5t-21.5 -49.5v-105h141v105q0 27 -20.5 48.5t-49 21.5z" />
    <glyph glyph-name="ccedilla" unicode="&#xe7;" 
d="M672 252q47 0 81.5 31.5t45.5 76.5l260 -75q-27 -109 -106 -187t-185 -104v-82q72 -41 116 -113.5t44 -158.5q0 -129 -92.5 -221.5t-221.5 -92.5h-116v271h116q18 0 30.5 13t12.5 30q0 18 -12 30.5t-31 12.5h-116v309q-133 31 -220.5 139.5t-87.5 249.5v283
q0 166 117 282.5t283 116.5h82q139 0 245.5 -85t141.5 -216l-260 -74q-10 45 -45 75t-82 30h-82q-53 0 -91 -38t-38 -91v-283q0 -53 38 -91t91 -38h82z" />
    <glyph glyph-name="egrave" unicode="&#xe8;" 
d="M623 1155l-349 348l195 195l348 -348zM578 1063h73q166 0 283 -117t117 -282v-254h-602v-29q0 -53 37.5 -91t91.5 -38h90q45 0 79.5 28.5t45.5 71.5l258 -76q-35 -127 -140.5 -210.5t-242.5 -83.5h-90q-166 0 -283 116.5t-117 282.5v283q0 166 117 282.5t283 116.5z
M449 633h331v31q0 53 -37.5 91t-91.5 38h-73q-53 0 -91 -38t-38 -91v-31z" />
    <glyph glyph-name="eacute" unicode="&#xe9;" 
d="M623 1155l-195 195l348 348l195 -195zM578 1063h73q166 0 283 -117t117 -282v-254h-602v-29q0 -53 37.5 -91t91.5 -38h90q45 0 79.5 28.5t45.5 71.5l258 -76q-35 -127 -140.5 -210.5t-242.5 -83.5h-90q-166 0 -283 116.5t-117 282.5v283q0 166 117 282.5t283 116.5z
M449 633h331v31q0 53 -37.5 91t-91.5 38h-73q-53 0 -91 -38t-38 -91v-31z" />
    <glyph glyph-name="ecircumflex" unicode="&#xea;" 
d="M244 1278l266 266h225l266 -266l-190 -193l-188 189l-187 -189zM578 1063h73q166 0 283 -117t117 -282v-254h-602v-29q0 -53 37.5 -91t91.5 -38h90q45 0 79.5 28.5t45.5 71.5l258 -76q-35 -127 -140.5 -210.5t-242.5 -83.5h-90q-166 0 -283 116.5t-117 282.5v283
q0 166 117 282.5t283 116.5zM449 633h331v31q0 53 -37.5 91t-91.5 38h-73q-53 0 -91 -38t-38 -91v-31z" />
    <glyph glyph-name="edieresis" unicode="&#xeb;" 
d="M266 1167v363h271v-363h-271zM709 1167v363h270v-363h-270zM578 1063h73q166 0 283 -117t117 -282v-254h-602v-29q0 -53 37.5 -91t91.5 -38h90q45 0 79.5 28.5t45.5 71.5l258 -76q-35 -127 -140.5 -210.5t-242.5 -83.5h-90q-166 0 -283 116.5t-117 282.5v283
q0 166 117 282.5t283 116.5zM449 633h331v31q0 53 -37.5 91t-91.5 38h-73q-53 0 -91 -38t-38 -91v-31z" />
    <glyph glyph-name="igrave" unicode="&#xec;" 
d="M651 1155l-348 348l195 195l348 -348zM252 1044h534v-774h308v-270h-910v270h332v504h-264v270z" />
    <glyph glyph-name="iacute" unicode="&#xed;" 
d="M651 1155l-194 195l348 348l194 -195zM252 1044h534v-774h308v-270h-910v270h332v504h-264v270z" />
    <glyph glyph-name="icircumflex" unicode="&#xee;" 
d="M272 1278l267 266h225l266 -266l-190 -193l-189 189l-186 -189zM252 1044h534v-774h308v-270h-910v270h332v504h-264v270z" />
    <glyph glyph-name="idieresis" unicode="&#xef;" 
d="M295 1167v363h270v-363h-270zM737 1167v363h271v-363h-271zM252 1044h534v-774h308v-270h-910v270h332v504h-264v270z" />
    <glyph glyph-name="eth" unicode="&#xf0;" 
d="M1212 1382v-270h-190v-731q0 -166 -117 -282.5t-282 -116.5h-74q-166 0 -282.5 116.5t-116.5 282.5v283q0 166 116.5 282.5t282.5 116.5h6q106 0 197 -57v106h-203v270h180q-41 55 -106 56v270q145 0 255.5 -92t137.5 -234h196zM623 252q53 0 91 38t38 91v283
q0 53 -38 91t-91 38h-74q-53 0 -91 -38t-38 -91v-283q0 -53 38 -91t91 -38h74z" />
    <glyph glyph-name="ntilde" unicode="&#xf1;" 
d="M795 1536h270v-43q0 -125 -88 -213t-213 -88q-72 0 -148 35q-98 51 -102 51q-31 0 -31 -31v-43h-270v43q0 125 88 213t213 88q70 0 148 -37q16 -8 41.5 -21t39 -20.5t21.5 -7.5q31 0 31 31v43zM651 1063q168 0 284 -116t116 -283v-664h-271v664q0 53 -37.5 91t-91.5 38
h-73q-53 0 -91 -38t-38 -91v-664h-271v1044h271v-38q90 57 196 57h6z" />
    <glyph glyph-name="ograve" unicode="&#xf2;" 
d="M608 1155l-348 348l195 195l348 -348zM571 1063h74q166 0 282.5 -117t116.5 -282v-283q0 -166 -116.5 -282.5t-282.5 -116.5h-74q-166 0 -282.5 116.5t-116.5 282.5v283q0 166 116.5 282.5t282.5 116.5zM571 793q-53 0 -91 -38t-38 -91v-283q0 -53 38 -91t91 -38h74
q53 0 91 38t38 91v283q0 53 -38 91t-91 38h-74z" />
    <glyph glyph-name="oacute" unicode="&#xf3;" 
d="M608 1155l-194 195l348 348l194 -195zM571 1063h74q166 0 282.5 -117t116.5 -282v-283q0 -166 -116.5 -282.5t-282.5 -116.5h-74q-166 0 -282.5 116.5t-116.5 282.5v283q0 166 116.5 282.5t282.5 116.5zM571 793q-53 0 -91 -38t-38 -91v-283q0 -53 38 -91t91 -38h74
q53 0 91 38t38 91v283q0 53 -38 91t-91 38h-74z" />
    <glyph glyph-name="ocircumflex" unicode="&#xf4;" 
d="M229 1278l267 266h225l266 -266l-190 -193l-189 189l-186 -189zM571 1063h74q166 0 282.5 -117t116.5 -282v-283q0 -166 -116.5 -282.5t-282.5 -116.5h-74q-166 0 -282.5 116.5t-116.5 282.5v283q0 166 116.5 282.5t282.5 116.5zM571 793q-53 0 -91 -38t-38 -91v-283
q0 -53 38 -91t91 -38h74q53 0 91 38t38 91v283q0 53 -38 91t-91 38h-74z" />
    <glyph glyph-name="otilde" unicode="&#xf5;" 
d="M182 1204v43q0 125 88 213t213 88q70 0 148 -37q16 -8 41.5 -21t39 -20.5t21.5 -7.5q31 0 31 31v43h270v-43q0 -125 -88 -213t-213 -88q-72 0 -147 35q-98 51 -103 51q-31 0 -30 -31v-43h-271zM571 1063h74q166 0 282.5 -117t116.5 -282v-283q0 -166 -116.5 -282.5
t-282.5 -116.5h-74q-166 0 -282.5 116.5t-116.5 282.5v283q0 166 116.5 282.5t282.5 116.5zM571 793q-53 0 -91 -38t-38 -91v-283q0 -53 38 -91t91 -38h74q53 0 91 38t38 91v283q0 53 -38 91t-91 38h-74z" />
    <glyph glyph-name="odieresis" unicode="&#xf6;" 
d="M252 1167v363h270v-363h-270zM694 1167v363h271v-363h-271zM571 1063h74q166 0 282.5 -117t116.5 -282v-283q0 -166 -116.5 -282.5t-282.5 -116.5h-74q-166 0 -282.5 116.5t-116.5 282.5v283q0 166 116.5 282.5t282.5 116.5zM571 793q-53 0 -91 -38t-38 -91v-283
q0 -53 38 -91t91 -38h74q53 0 91 38t38 91v283q0 53 -38 91t-91 38h-74z" />
    <glyph glyph-name="divide" unicode="&#xf7;" 
d="M473 860v316h270v-316h-270zM170 457v270h877v-270h-877zM473 10v316h270v-316h-270z" />
    <glyph glyph-name="oslash" unicode="&#xf8;" 
d="M1092 1051l-109 -177q61 -96 61 -210v-283q0 -166 -116.5 -282.5t-282.5 -116.5h-74q-66 0 -125 20l-90 -149l-229 139l106 174q-61 100 -61 215v283q0 166 117 282.5t282 116.5h74q70 0 125 -21l92 152zM442 664v-156l174 285h-45q-53 0 -91 -38t-38 -91zM774 381v151
l-172 -280h43q53 0 91 38t38 91z" />
    <glyph glyph-name="ugrave" unicode="&#xf9;" 
d="M608 1155l-348 348l195 195l348 -348zM172 1044h270v-663q0 -53 38 -91t91 -38h74q53 0 91 38t38 91v663h270v-663q0 -166 -116.5 -282.5t-282.5 -116.5h-74q-166 0 -282.5 116.5t-116.5 282.5v663z" />
    <glyph glyph-name="uacute" unicode="&#xfa;" 
d="M608 1155l-194 195l348 348l194 -195zM172 1044h270v-663q0 -53 38 -91t91 -38h74q53 0 91 38t38 91v663h270v-663q0 -166 -116.5 -282.5t-282.5 -116.5h-74q-166 0 -282.5 116.5t-116.5 282.5v663z" />
    <glyph glyph-name="ucircumflex" unicode="&#xfb;" 
d="M229 1278l267 266h225l266 -266l-190 -193l-189 189l-186 -189zM172 1044h270v-663q0 -53 38 -91t91 -38h74q53 0 91 38t38 91v663h270v-663q0 -166 -116.5 -282.5t-282.5 -116.5h-74q-166 0 -282.5 116.5t-116.5 282.5v663z" />
    <glyph glyph-name="udieresis" unicode="&#xfc;" 
d="M252 1167v363h270v-363h-270zM694 1167v363h271v-363h-271zM172 1044h270v-663q0 -53 38 -91t91 -38h74q53 0 91 38t38 91v663h270v-663q0 -166 -116.5 -282.5t-282.5 -116.5h-74q-166 0 -282.5 116.5t-116.5 282.5v663z" />
    <glyph glyph-name="yacute" unicode="&#xfd;" 
d="M608 1155l-194 195l348 348l194 -195zM127 1044h270v-131q0 -92 52 -184l163 -295l166 295q49 84 49 184v131h271v-131q0 -170 -84 -317l-424 -758q-55 -92 -144.5 -143t-189.5 -51h-182v270h182q27 0 50.5 14.5t33.5 25.5t14 19l103 185l-246 438q-84 147 -84 317v131z
" />
    <glyph glyph-name="thorn" unicode="&#xfe;" 
d="M657 1063q168 0 284 -116t116 -283v-283q0 -166 -117 -282.5t-283 -116.5h-6q-106 0 -196 57v-395h-271v1757h271v-395q90 57 196 57h6zM786 381v283q0 53 -37.5 91t-91.5 38h-73q-53 0 -91 -38t-38 -91v-283q0 -53 38.5 -91t90.5 -38h73q53 0 91 38t38 91z" />
    <glyph glyph-name="ydieresis" unicode="&#xff;" 
d="M252 1167v363h270v-363h-270zM694 1167v363h271v-363h-271zM127 1044h270v-131q0 -92 52 -184l163 -295l166 295q49 84 49 184v131h271v-131q0 -170 -84 -317l-424 -758q-55 -92 -144.5 -143t-189.5 -51h-182v270h182q27 0 50.5 14.5t33.5 25.5t14 19l103 185l-246 438
q-84 147 -84 317v131z" />
    <glyph glyph-name="Amacron" unicode="&#x100;" 
d="M928 1806v-270h-639v270h639zM1053 590l4 -21q6 -18 12 -50t12 -70.5t11.5 -89t5.5 -95.5v-264h-271v279h-436v-279h-270v264q0 74 11 156t19.5 121t12.5 49l176 629q25 88 99.5 144t168.5 56q92 0 167 -56t104 -144zM608 1149q-12 0 -12 -8l-162 -592h348l-161 592
q-3 8 -13 8z" />
    <glyph glyph-name="amacron" unicode="&#x101;" 
d="M928 1450v-270h-639v270h639zM764 1044h270v-1044h-270v39q-90 -57 -197 -57h-6q-166 0 -282.5 116.5t-116.5 282.5v283q0 168 115.5 283.5t283.5 115.5h6q106 0 197 -57v38zM635 252q53 0 91 38t38 91v283q0 53 -38 91t-91 38h-74q-53 0 -91 -38t-38 -91v-283
q0 -53 38 -91t91 -38h74z" />
    <glyph glyph-name="Abreve" unicode="&#x102;" 
d="M608 1518q-129 0 -221 92t-92 221h270q0 -18 13.5 -30.5t29.5 -12.5q18 0 30.5 12t12.5 31h271q0 -129 -91.5 -221t-222.5 -92zM1053 590l4 -21q6 -18 12 -50t12 -70.5t11.5 -89t5.5 -95.5v-264h-271v279h-436v-279h-270v264q0 74 11 156t19.5 121t12.5 49l176 629
q25 88 99.5 144t168.5 56q92 0 167 -56t104 -144zM608 1149q-12 0 -12 -8l-162 -592h348l-161 592q-3 8 -13 8z" />
    <glyph glyph-name="abreve" unicode="&#x103;" 
d="M608 1161q-129 0 -221 92.5t-92 221.5h270q0 -18 13.5 -30.5t29.5 -12.5q18 0 30.5 12t12.5 31h271q0 -129 -91.5 -221.5t-222.5 -92.5zM764 1044h270v-1044h-270v39q-90 -57 -197 -57h-6q-166 0 -282.5 116.5t-116.5 282.5v283q0 168 115.5 283.5t283.5 115.5h6
q106 0 197 -57v38zM635 252q53 0 91 38t38 91v283q0 53 -38 91t-91 38h-74q-53 0 -91 -38t-38 -91v-283q0 -53 38 -91t91 -38h74z" />
    <glyph glyph-name="Aogonek" unicode="&#x104;" 
d="M1120 -84h82v-272h-80q-123 0 -209 87t-86 208v340h-436v-279h-270v264q0 74 11 156t19.5 121t12.5 49l176 629q25 88 99.5 144t168.5 56q92 0 167 -56t104 -144l174 -629l4 -21q6 -18 12 -50t12 -70.5t11.5 -89t5.5 -95.5v-325q-1 -23 22 -23zM608 1149q-12 0 -12 -8
l-162 -592h348l-161 592q-3 8 -13 8z" />
    <glyph glyph-name="aogonek" unicode="&#x105;" 
d="M1057 -84h82v-272h-80q-123 0 -209 87t-86 208v100q-90 -57 -197 -57h-6q-166 0 -282.5 116.5t-116.5 282.5v283q0 168 115.5 283.5t283.5 115.5h6q106 0 197 -57v38h270v-1105q0 -23 23 -23zM635 252q53 0 91 38t38 91v283q0 53 -38 91t-91 38h-74q-53 0 -91 -38
t-38 -91v-283q0 -53 38 -91t91 -38h74z" />
    <glyph glyph-name="Cacute" unicode="&#x106;" 
d="M618 1511l-194 195l348 348l195 -194zM1055 1118l-258 -78q-8 47 -45 78t-84 31h-99q-53 0 -91 -38t-38 -91v-639q0 -53 38 -91t91 -38h99q47 0 83.5 31.5t45.5 76.5l258 -75q-33 -133 -140.5 -218t-246.5 -85h-99q-164 0 -281.5 117.5t-117.5 281.5v639q0 166 118 282.5
t281 116.5h99q139 0 246.5 -85t140.5 -216z" />
    <glyph glyph-name="cacute" unicode="&#x107;" 
d="M633 1155l-195 195l348 348l195 -195zM190 381v283q0 166 117 282.5t283 116.5h82q139 0 245.5 -85t141.5 -216l-260 -74q-10 45 -45 75t-82 30h-82q-53 0 -91 -38t-38 -91v-283q0 -53 38 -91t91 -38h82q47 0 81.5 31.5t45.5 76.5l260 -75q-35 -133 -142.5 -218
t-244.5 -85h-82q-166 0 -283 116.5t-117 282.5z" />
    <glyph glyph-name="Ccircumflex" unicode="&#x108;" 
d="M240 1634l266 267h225l266 -267l-190 -192l-189 188l-186 -188zM1055 1118l-258 -78q-8 47 -45 78t-84 31h-99q-53 0 -91 -38t-38 -91v-639q0 -53 38 -91t91 -38h99q47 0 83.5 31.5t45.5 76.5l258 -75q-33 -133 -140.5 -218t-246.5 -85h-99q-164 0 -281.5 117.5
t-117.5 281.5v639q0 166 118 282.5t281 116.5h99q139 0 246.5 -85t140.5 -216z" />
    <glyph glyph-name="ccircumflex" unicode="&#x109;" 
d="M254 1278l266 266h225l267 -266l-191 -193l-188 189l-187 -189zM190 381v283q0 166 117 282.5t283 116.5h82q139 0 245.5 -85t141.5 -216l-260 -74q-10 45 -45 75t-82 30h-82q-53 0 -91 -38t-38 -91v-283q0 -53 38 -91t91 -38h82q47 0 81.5 31.5t45.5 76.5l260 -75
q-35 -133 -142.5 -218t-244.5 -85h-82q-166 0 -283 116.5t-117 282.5z" />
    <glyph glyph-name="Cdotaccent" unicode="&#x10a;" 
d="M483 1524v362h271v-362h-271zM1055 1118l-258 -78q-8 47 -45 78t-84 31h-99q-53 0 -91 -38t-38 -91v-639q0 -53 38 -91t91 -38h99q47 0 83.5 31.5t45.5 76.5l258 -75q-33 -133 -140.5 -218t-246.5 -85h-99q-164 0 -281.5 117.5t-117.5 281.5v639q0 166 118 282.5
t281 116.5h99q139 0 246.5 -85t140.5 -216z" />
    <glyph glyph-name="cdotaccent" unicode="&#x10b;" 
d="M498 1167v363h270v-363h-270zM190 381v283q0 166 117 282.5t283 116.5h82q139 0 245.5 -85t141.5 -216l-260 -74q-10 45 -45 75t-82 30h-82q-53 0 -91 -38t-38 -91v-283q0 -53 38 -91t91 -38h82q47 0 81.5 31.5t45.5 76.5l260 -75q-35 -133 -142.5 -218t-244.5 -85h-82
q-166 0 -283 116.5t-117 282.5z" />
    <glyph glyph-name="Ccaron" unicode="&#x10c;" 
d="M240 1802l192 193l186 -189l189 189l190 -193l-266 -266h-225zM1055 1118l-258 -78q-8 47 -45 78t-84 31h-99q-53 0 -91 -38t-38 -91v-639q0 -53 38 -91t91 -38h99q47 0 83.5 31.5t45.5 76.5l258 -75q-33 -133 -140.5 -218t-246.5 -85h-99q-164 0 -281.5 117.5
t-117.5 281.5v639q0 166 118 282.5t281 116.5h99q139 0 246.5 -85t140.5 -216z" />
    <glyph glyph-name="ccaron" unicode="&#x10d;" 
d="M254 1446l192 192l187 -188l188 188l191 -192l-267 -266h-225zM190 381v283q0 166 117 282.5t283 116.5h82q139 0 245.5 -85t141.5 -216l-260 -74q-10 45 -45 75t-82 30h-82q-53 0 -91 -38t-38 -91v-283q0 -53 38 -91t91 -38h82q47 0 81.5 31.5t45.5 76.5l260 -75
q-35 -133 -142.5 -218t-244.5 -85h-82q-166 0 -283 116.5t-117 282.5z" />
    <glyph glyph-name="Dcaron" unicode="&#x10e;" 
d="M213 1802l193 193l186 -189l188 189l191 -193l-266 -266h-226zM184 0v1401h473q166 0 283 -117t117 -283v-602q0 -166 -117 -282.5t-283 -116.5h-473zM455 270h202q53 0 91 38t38 91v602q0 53 -37.5 91t-91.5 38h-202v-860z" />
    <glyph glyph-name="dcaron" unicode="&#x10f;" 
d="M991 1790h434v-266q0 -162 -99 -287t-253 -162l-74 254v-1329h-270v39q-90 -57 -197 -57h-6q-166 0 -282.5 116.5t-116.5 282.5v283q0 168 115.5 283.5t283.5 115.5h6q106 0 197 -57v395h270v-66q68 12 112 64.5t44 120.5h-164v270zM600 252q51 0 90 38t39 91v283
q0 53 -38 91t-91 38h-74q-53 0 -91 -38t-38 -91v-283q0 -53 38 -91t91 -38h74z" />
    <glyph glyph-name="Dcroat" unicode="&#x110;" 
d="M676 1401q166 0 282.5 -117t116.5 -283v-602q0 -166 -116.5 -282.5t-282.5 -116.5h-473v565h-170v271h170v565h473zM805 399v602q0 53 -38 91t-91 38h-203v-294h234v-271h-234v-295h203q53 0 91 38t38 91z" />
    <glyph glyph-name="dcroat" unicode="&#x111;" 
d="M1174 1417v-270h-142v-1147h-270v39q-90 -57 -197 -57h-6q-166 0 -282.5 116.5t-116.5 282.5v283q0 168 115.5 283.5t283.5 115.5h6q106 0 197 -57v141h-227v270h227v146h270v-146h142zM633 252q51 0 90 38t39 91v283q0 53 -38 91t-91 38h-74q-53 0 -91 -38t-38 -91v-283
q0 -53 38 -91t91 -38h74z" />
    <glyph glyph-name="Emacron" unicode="&#x112;" 
d="M309 1536v270h639v-270h-639zM203 0v1401h872v-271h-602v-294h541v-271h-541v-295h602v-270h-872z" />
    <glyph glyph-name="emacron" unicode="&#x113;" 
d="M303 1180v270h639v-270h-639zM578 1063h73q166 0 283 -117t117 -282v-254h-602v-29q0 -53 37.5 -91t91.5 -38h90q45 0 79.5 28.5t45.5 71.5l258 -76q-35 -127 -140.5 -210.5t-242.5 -83.5h-90q-166 0 -283 116.5t-117 282.5v283q0 166 117 282.5t283 116.5zM449 633h331
v31q0 53 -37.5 91t-91.5 38h-73q-53 0 -91 -38t-38 -91v-31z" />
    <glyph glyph-name="Ebreve" unicode="&#x114;" 
d="M315 1831h271q0 -18 13 -30.5t30 -12.5q18 0 30.5 12t12.5 31h270q0 -129 -91 -221t-222 -92q-129 0 -221.5 92t-92.5 221zM203 0v1401h872v-271h-602v-294h541v-271h-541v-295h602v-270h-872z" />
    <glyph glyph-name="ebreve" unicode="&#x115;" 
d="M309 1475h271q0 -18 13 -30.5t30 -12.5q18 0 30.5 12t12.5 31h270q0 -129 -91 -221.5t-222 -92.5q-129 0 -221.5 92.5t-92.5 221.5zM578 1063h73q166 0 283 -117t117 -282v-254h-602v-29q0 -53 37.5 -91t91.5 -38h90q45 0 79.5 28.5t45.5 71.5l258 -76
q-35 -127 -140.5 -210.5t-242.5 -83.5h-90q-166 0 -283 116.5t-117 282.5v283q0 166 117 282.5t283 116.5zM449 633h331v31q0 53 -37.5 91t-91.5 38h-73q-53 0 -91 -38t-38 -91v-31z" />
    <glyph glyph-name="Edotaccent" unicode="&#x116;" 
d="M494 1524v362h270v-362h-270zM203 0v1401h872v-271h-602v-294h541v-271h-541v-295h602v-270h-872z" />
    <glyph glyph-name="edotaccent" unicode="&#x117;" 
d="M487 1167v363h271v-363h-271zM578 1063h73q166 0 283 -117t117 -282v-254h-602v-29q0 -53 37.5 -91t91.5 -38h90q45 0 79.5 28.5t45.5 71.5l258 -76q-35 -127 -140.5 -210.5t-242.5 -83.5h-90q-166 0 -283 116.5t-117 282.5v283q0 166 117 282.5t283 116.5zM449 633h331
v31q0 53 -37.5 91t-91.5 38h-73q-53 0 -91 -38t-38 -91v-31z" />
    <glyph glyph-name="Eogonek" unicode="&#x118;" 
d="M1098 -84h82v-272h-80q-123 0 -209 87t-86 208v61h-602v1401h872v-271h-602v-294h541v-271h-541v-295h602v-331q0 -23 23 -23z" />
    <glyph glyph-name="eogonek" unicode="&#x119;" 
d="M1051 410h-602v-29q0 -53 37.5 -91t91.5 -38h90q45 0 79.5 28.5t45.5 71.5l258 -76q-29 -104 -108 -182t-185 -102v-51q0 -23 22 -23h82v-272h-80q-123 0 -209 87t-86 208v51q-135 31 -222 139.5t-87 249.5v283q0 166 117 282.5t283 116.5h73q166 0 283 -117t117 -282
v-254zM449 664v-31h331v31q0 53 -37.5 91t-91.5 38h-73q-53 0 -91 -38t-38 -91z" />
    <glyph glyph-name="Ecaron" unicode="&#x11a;" 
d="M250 1802l192 193l187 -189l188 189l191 -193l-267 -266h-225zM203 0v1401h872v-271h-602v-294h541v-271h-541v-295h602v-270h-872z" />
    <glyph glyph-name="ecaron" unicode="&#x11b;" 
d="M244 1446l192 192l187 -188l188 188l190 -192l-266 -266h-225zM578 1063h73q166 0 283 -117t117 -282v-254h-602v-29q0 -53 37.5 -91t91.5 -38h90q45 0 79.5 28.5t45.5 71.5l258 -76q-35 -127 -140.5 -210.5t-242.5 -83.5h-90q-166 0 -283 116.5t-117 282.5v283
q0 166 117 282.5t283 116.5zM449 633h331v31q0 53 -37.5 91t-91.5 38h-73q-53 0 -91 -38t-38 -91v-31z" />
    <glyph glyph-name="Gcircumflex" unicode="&#x11c;" 
d="M238 1634l266 267h225l266 -267l-190 -192l-189 188l-186 -188zM1059 1118l-260 -76q-8 45 -44 76t-83 31h-107q-53 0 -91 -38t-38 -91v-639q0 -53 38 -91t91 -38h99q53 0 91 38t38 91v184h-215v271h485v-455q0 -166 -117 -282.5t-282 -116.5h-99q-166 0 -282.5 116.5
t-116.5 282.5v643q2 164 118.5 279.5t280.5 115.5h107q137 0 244.5 -85t142.5 -216z" />
    <glyph glyph-name="gcircumflex" unicode="&#x11d;" 
d="M584 1274l-187 -189l-192 193l266 266h225l267 -266l-191 -193zM762 1044h270v-1019q0 -166 -115.5 -283t-281.5 -117h-80q-139 0 -247.5 85t-143.5 216l262 78q8 -47 44 -77.5t85 -30.5h80q51 0 89 37.5t38 91.5v96q-90 -57 -197 -58h-6q-166 0 -282.5 118t-116.5 282
v201q0 166 116.5 282.5t282.5 116.5h6q106 0 197 -55v36zM633 334q53 0 91 38t38 91v201q0 53 -38 91t-91 38h-74q-53 0 -91 -38t-38 -91v-201q0 -53 39 -91t90 -38h74z" />
    <glyph glyph-name="Gbreve" unicode="&#x11e;" 
d="M303 1831h270q0 -18 13.5 -30.5t29.5 -12.5q18 0 30.5 12t12.5 31h271q0 -129 -91 -221t-223 -92q-129 0 -221 92t-92 221zM1059 1118l-260 -76q-8 45 -44 76t-83 31h-107q-53 0 -91 -38t-38 -91v-639q0 -53 38 -91t91 -38h99q53 0 91 38t38 91v184h-215v271h485v-455
q0 -166 -117 -282.5t-282 -116.5h-99q-166 0 -282.5 116.5t-116.5 282.5v643q2 164 118.5 279.5t280.5 115.5h107q137 0 244.5 -85t142.5 -216z" />
    <glyph glyph-name="gbreve" unicode="&#x11f;" 
d="M584 1161q-129 0 -221.5 92.5t-92.5 221.5h271q0 -18 13 -30.5t30 -12.5q18 0 30.5 12t12.5 31h270q0 -129 -91 -221.5t-222 -92.5zM762 1044h270v-1019q0 -166 -115.5 -283t-281.5 -117h-80q-139 0 -247.5 85t-143.5 216l262 78q8 -47 44 -77.5t85 -30.5h80
q51 0 89 37.5t38 91.5v96q-90 -57 -197 -58h-6q-166 0 -282.5 118t-116.5 282v201q0 166 116.5 282.5t282.5 116.5h6q106 0 197 -55v36zM633 334q53 0 91 38t38 91v201q0 53 -38 91t-91 38h-74q-53 0 -91 -38t-38 -91v-201q0 -53 39 -91t90 -38h74z" />
    <glyph glyph-name="Gdotaccent" unicode="&#x120;" 
d="M481 1524v362h271v-362h-271zM1059 1118l-260 -76q-8 45 -44 76t-83 31h-107q-53 0 -91 -38t-38 -91v-639q0 -53 38 -91t91 -38h99q53 0 91 38t38 91v184h-215v271h485v-455q0 -166 -117 -282.5t-282 -116.5h-99q-166 0 -282.5 116.5t-116.5 282.5v643q2 164 118.5 279.5
t280.5 115.5h107q137 0 244.5 -85t142.5 -216z" />
    <glyph glyph-name="gdotaccent" unicode="&#x121;" 
d="M719 1530v-363h-270v363h270zM762 1044h270v-1019q0 -166 -115.5 -283t-281.5 -117h-80q-139 0 -247.5 85t-143.5 216l262 78q8 -47 44 -77.5t85 -30.5h80q51 0 89 37.5t38 91.5v96q-90 -57 -197 -58h-6q-166 0 -282.5 118t-116.5 282v201q0 166 116.5 282.5t282.5 116.5
h6q106 0 197 -55v36zM633 334q53 0 91 38t38 91v201q0 53 -38 91t-91 38h-74q-53 0 -91 -38t-38 -91v-201q0 -53 39 -91t90 -38h74z" />
    <glyph glyph-name="Gcommaaccent" unicode="&#x122;" 
d="M1059 1118l-260 -76q-8 45 -44 76t-83 31h-107q-53 0 -91 -38t-38 -91v-639q0 -53 38 -91t91 -38h99q53 0 91 38t38 91v184h-215v271h485v-455q0 -166 -117 -282.5t-282 -116.5h-99q-166 0 -282.5 116.5t-116.5 282.5v643q2 164 118.5 279.5t280.5 115.5h107
q137 0 244.5 -85t142.5 -216zM397 -135h434v-266q0 -162 -99 -287t-253 -162l-76 260q68 10 113 63.5t45 120.5h-164v271z" />
    <glyph glyph-name="gcommaaccent" unicode="&#x123;" 
d="M799 1452v-270h-434v266q0 162 99 287t253 161l76 -260q-68 -10 -113 -63t-45 -121h164zM762 1044h270v-1019q0 -166 -115.5 -283t-281.5 -117h-80q-139 0 -247.5 85t-143.5 216l262 78q8 -47 44 -77.5t85 -30.5h80q51 0 89 37.5t38 91.5v96q-90 -57 -197 -58h-6
q-166 0 -282.5 118t-116.5 282v201q0 166 116.5 282.5t282.5 116.5h6q106 0 197 -55v36zM633 334q53 0 91 38t38 91v201q0 53 -38 91t-91 38h-74q-53 0 -91 -38t-38 -91v-201q0 -53 39 -91t90 -38h74z" />
    <glyph glyph-name="Hcircumflex" unicode="&#x124;" 
d="M229 1634l267 267h225l266 -267l-190 -192l-189 188l-186 -188zM774 1401h270v-1401h-270v565h-332v-565h-270v1401h270v-565h332v565z" />
    <glyph glyph-name="hcircumflex" unicode="&#x125;" 
d="M502 1442l-189 188l-186 -188l-193 192l267 267h225l266 -267zM651 1063q168 0 284 -116t116 -283v-664h-271v664q0 53 -37.5 91t-91.5 38h-73q-53 0 -91 -38t-38 -91v-664h-271v1401h271v-395q90 57 196 57h6z" />
    <glyph glyph-name="Hbar" unicode="&#x126;" 
d="M1221 1241v-270h-177v-971h-270v565h-332v-565h-270v971h-176v270h176v160h270v-160h332v160h270v-160h177zM774 836v135h-332v-135h332z" />
    <glyph glyph-name="hbar" unicode="&#x127;" 
d="M651 1063q168 0 284 -116t116 -283v-664h-271v664q0 53 -37.5 91t-91.5 38h-73q-53 0 -91 -38t-38 -91v-664h-271v1147h-141v270h141v146h271v-146h227v-270h-227v-141q90 57 196 57h6z" />
    <glyph glyph-name="Itilde" unicode="&#x128;" 
d="M182 1561v43q0 125 88 213t213 88q70 0 148 -37q16 -8 41.5 -21.5t39 -20.5t21.5 -7q31 0 31 30v43h270v-43q0 -125 -88 -213t-213 -88q-72 0 -147 35q-98 51 -103 51q-31 0 -30 -30v-43h-271zM172 270h301v860h-283v271h836v-271h-283v-860h301v-270h-872v270z" />
    <glyph glyph-name="itilde" unicode="&#x129;" 
d="M225 1204v43q0 125 88 213t213 88q70 0 148 -37q16 -8 41.5 -21t39 -20.5t21.5 -7.5q31 0 31 31v43h270v-43q0 -125 -88 -213t-213 -88q-72 0 -147 35q-98 51 -103 51q-31 0 -30 -31v-43h-271zM252 1044h534v-774h308v-270h-910v270h332v504h-264v270z" />
    <glyph glyph-name="Imacron" unicode="&#x12a;" 
d="M289 1536v270h639v-270h-639zM172 270h301v860h-283v271h836v-271h-283v-860h301v-270h-872v270z" />
    <glyph glyph-name="imacron" unicode="&#x12b;" 
d="M332 1180v270h639v-270h-639zM252 1044h534v-774h308v-270h-910v270h332v504h-264v270z" />
    <glyph glyph-name="Ibreve" unicode="&#x12c;" 
d="M295 1831h270q0 -18 13.5 -30.5t29.5 -12.5q18 0 30.5 12t12.5 31h271q0 -129 -91.5 -221t-222.5 -92q-129 0 -221 92t-92 221zM172 270h301v860h-283v271h836v-271h-283v-860h301v-270h-872v270z" />
    <glyph glyph-name="ibreve" unicode="&#x12d;" 
d="M338 1475h270q0 -18 13.5 -30.5t29.5 -12.5q18 0 30.5 12t12.5 31h271q0 -129 -91.5 -221.5t-222.5 -92.5q-129 0 -221 92.5t-92 221.5zM252 1044h534v-774h308v-270h-910v270h332v504h-264v270z" />
    <glyph glyph-name="Iogonek" unicode="&#x12e;" 
d="M1067 -84h82v-272h-80q-123 0 -209 87t-86 208v61h-602v270h301v860h-283v271h836v-271h-283v-860h301v-331q0 -23 23 -23z" />
    <glyph glyph-name="iogonek" unicode="&#x12f;" 
d="M786 1530v-363h-270v363h270zM1116 -84h82v-272h-80q-123 0 -209 87t-86 208v61h-639v270h332v504h-264v270h534v-774h308v-331q-1 -23 22 -23z" />
    <glyph glyph-name="Idotaccent" unicode="&#x130;" 
d="M473 1524v362h270v-362h-270zM172 270h301v860h-283v271h836v-271h-283v-860h301v-270h-872v270z" />
    <glyph glyph-name="dotlessi" unicode="&#x131;" 
d="M252 1044h534v-774h308v-270h-910v270h332v504h-264v270z" />
    <glyph glyph-name="Jcircumflex" unicode="&#x134;" 
d="M229 1634l267 267h225l266 -267l-190 -192l-189 188l-186 -188zM215 1401h799v-1020q0 -166 -117 -282.5t-283 -116.5h-88q-139 0 -246.5 85t-140.5 216l260 75q8 -45 44 -75.5t83 -30.5h88q53 0 91 38t38 91v749h-528v271z" />
    <glyph glyph-name="jcircumflex" unicode="&#x135;" 
d="M352 1278l266 266h226l266 -266l-190 -193l-189 189l-186 -189zM209 1044h657v-1021q0 -166 -116.5 -282t-280.5 -116q-135 0 -241.5 81t-141.5 208l258 82q10 -43 45 -71.5t80 -28.5q51 0 89 37.5t38 89.5v751h-387v270z" />
    <glyph glyph-name="Kcommaaccent" unicode="&#x136;" 
d="M184 1401h271v-559h55l262 282q63 70 64 150v127h270v-129q0 -27 -5 -65t-38 -119.5t-90 -145.5l-219 -235l231 -248q59 -63 94 -145.5t40 -120t5 -64.5v-129h-270v127q0 76 -63 145l-279 299h-57v-571h-271v1401zM420 -135h434v-266q0 -162 -99.5 -287t-252.5 -162
l-76 260q68 10 113 63.5t45 120.5h-164v271z" />
    <glyph glyph-name="kcommaaccent" unicode="&#x137;" 
d="M203 1401h270v-750h98l168 144q27 23 43.5 53.5t20.5 48.5l2 18v129h270v-129q0 -29 -5 -66.5t-45 -119.5t-110 -139l-81 -72l118 -98q20 -16 46 -44t61 -101.5t35 -153.5v-121h-271v121q0 23 -10 44t-19.5 32.5t-13.5 13.5l-205 170h-102v-381h-270v1401zM432 -135h434
v-266q0 -162 -99 -287t-253 -162l-76 260q68 10 113 63.5t45 120.5h-164v271z" />
    <glyph glyph-name="kgreenlandic" unicode="&#x138;" 
d="M203 1044h270v-393h98l168 144q27 23 43.5 53.5t20.5 48.5l2 18v129h270v-129q0 -29 -5 -66.5t-45 -119.5t-110 -139l-81 -72l118 -98q20 -16 46 -44t61 -101.5t35 -153.5v-121h-271v121q0 23 -10 44t-19.5 32.5t-13.5 13.5l-205 170h-102v-381h-270v1044z" />
    <glyph glyph-name="Lacute" unicode="&#x139;" 
d="M356 1511l-194 195l348 348l195 -194zM221 1401h271v-1131h583v-270h-854v1401z" />
    <glyph glyph-name="lacute" unicode="&#x13a;" 
d="M541 1511l-195 195l348 348l195 -194zM1190 272q-35 -127 -141.5 -208.5t-241.5 -81.5q-164 0 -280.5 117.5t-116.5 279.5v751h-308v271h578v-1022q0 -51 37 -89t90 -38q45 0 81 28.5t44 71.5z" />
    <glyph glyph-name="Lcommaaccent" unicode="&#x13b;" 
d="M221 1401h271v-1131h583v-270h-854v1401zM430 -135h434v-266q0 -162 -99 -287t-253 -162l-76 260q68 10 113 63.5t45 120.5h-164v271z" />
    <glyph glyph-name="lcommaaccent" unicode="&#x13c;" 
d="M1190 272q-35 -127 -141.5 -208.5t-241.5 -81.5q-164 0 -280.5 117.5t-116.5 279.5v751h-308v271h578v-1022q0 -51 37 -89t90 -38q45 0 81 28.5t44 71.5zM588 -135h434v-266q0 -162 -99.5 -287t-252.5 -162l-76 260q68 10 113 63.5t45 120.5h-164v271z" />
    <glyph glyph-name="Lcaron" unicode="&#x13d;" 
d="M221 1401h271v-1131h583v-270h-854v1401zM590 1401h434v-266q0 -162 -99.5 -287t-252.5 -162l-76 260q68 10 113 63.5t45 120.5h-164v271z" />
    <glyph glyph-name="lcaron" unicode="&#x13e;" 
d="M1190 272q-35 -127 -141.5 -208.5t-241.5 -81.5q-164 0 -280.5 117.5t-116.5 279.5v751h-308v271h578v-1022q0 -51 37 -89t90 -38q45 0 81 28.5t44 71.5zM778 1401h434v-266q0 -162 -99 -287t-253 -162l-76 260q68 10 113 63.5t45 120.5h-164v271z" />
    <glyph glyph-name="Ldot" unicode="&#x13f;" 
d="M221 1401h271v-1131h583v-270h-854v1401zM647 625v362h271v-362h-271z" />
    <glyph glyph-name="ldot" unicode="&#x140;" 
d="M1190 272q-35 -127 -141.5 -208.5t-241.5 -81.5q-164 0 -280.5 117.5t-116.5 279.5v751h-308v271h578v-1022q0 -51 37 -89t90 -38q45 0 81 28.5t44 71.5zM778 664v362h271v-362h-271z" />
    <glyph glyph-name="Lslash" unicode="&#x141;" 
d="M553 270h584v-270h-854v336l-39 -39l-191 192l230 230v682h270v-412l154 154l190 -193l-344 -344v-336z" />
    <glyph glyph-name="lslash" unicode="&#x142;" 
d="M932 352l258 -80q-35 -127 -141.5 -208.5t-241.5 -81.5q-164 0 -280.5 117.5t-116.5 279.5v55l-39 -39l-191 191l230 227v317h-308v271h578v-320l39 39l190 -188l-229 -230v-323q0 -51 37 -89t90 -38q45 0 81 28.5t44 71.5z" />
    <glyph glyph-name="Nacute" unicode="&#x143;" 
d="M608 1511l-194 195l348 348l194 -194zM123 1401h338l362 -907v907h271v-1401h-338l-363 907v-907h-270v1401z" />
    <glyph glyph-name="nacute" unicode="&#x144;" 
d="M987 1503l-348 -348l-195 195l349 348zM651 1063q168 0 284 -116t116 -283v-664h-271v664q0 53 -37.5 91t-91.5 38h-73q-53 0 -91 -38t-38 -91v-664h-271v1044h271v-38q90 57 196 57h6z" />
    <glyph glyph-name="Ncommaaccent" unicode="&#x145;" 
d="M123 1401h338l362 -907v907h271v-1401h-338l-363 907v-907h-270v1401zM389 -135h434v-266q0 -162 -99 -287t-253 -162l-76 260q68 10 113 63.5t45 120.5h-164v271z" />
    <glyph glyph-name="ncommaaccent" unicode="&#x146;" 
d="M651 1063q168 0 284 -116t116 -283v-664h-271v664q0 53 -37.5 91t-91.5 38h-73q-53 0 -91 -38t-38 -91v-664h-271v1044h271v-38q90 57 196 57h6zM420 -406v271h434v-266q0 -162 -99.5 -287t-252.5 -162l-76 260q68 10 113 63.5t45 120.5h-164z" />
    <glyph glyph-name="Ncaron" unicode="&#x147;" 
d="M229 1802l193 193l186 -189l189 189l190 -193l-266 -266h-225zM123 1401h338l362 -907v907h271v-1401h-338l-363 907v-907h-270v1401z" />
    <glyph glyph-name="ncaron" unicode="&#x148;" 
d="M752 1180h-226l-266 266l193 192l186 -188l188 188l191 -192zM651 1063q168 0 284 -116t116 -283v-664h-271v664q0 53 -37.5 91t-91.5 38h-73q-53 0 -91 -38t-38 -91v-664h-271v1044h271v-38q90 57 196 57h6z" />
    <glyph glyph-name="napostrophe" unicode="&#x149;" 
d="M322 1452q0 -162 -99.5 -287t-253.5 -161l-75 260q68 10 112.5 63t44.5 121h-164v270h435v-266zM651 1063q168 0 284 -116t116 -283v-664h-271v664q0 53 -37.5 91t-91.5 38h-73q-53 0 -91 -38t-38 -91v-664h-271v1044h271v-38q90 57 196 57h6z" />
    <glyph glyph-name="Eng" unicode="&#x14a;" 
d="M823 1401h271v-1462q0 -121 -86 -208t-209 -87h-80v272h82q23 0 22 23v61h-67l-363 907v-907h-270v1401h338l362 -907v907z" />
    <glyph glyph-name="eng" unicode="&#x14b;" 
d="M651 1063q168 0 284 -116t116 -283v-725q0 -121 -86 -208t-209 -87h-80v272h82q23 0 22 23v725q0 53 -37.5 91t-91.5 38h-73q-53 0 -91 -38t-38 -91v-664h-271v1044h271v-38q90 57 196 57h6z" />
    <glyph glyph-name="Omacron" unicode="&#x14c;" 
d="M289 1536v270h639v-270h-639zM559 -18q-166 0 -282.5 116.5t-116.5 282.5v639q0 166 116.5 282.5t282.5 116.5h98q166 0 283 -116.5t117 -282.5v-639q0 -166 -117 -282.5t-283 -116.5h-98zM559 252h98q53 0 91 38t38 91v639q0 53 -37.5 91t-91.5 38h-98q-53 0 -91 -38
t-38 -91v-639q0 -53 38 -91t91 -38z" />
    <glyph glyph-name="omacron" unicode="&#x14d;" 
d="M289 1180v270h639v-270h-639zM571 1063h74q166 0 282.5 -117t116.5 -282v-283q0 -166 -116.5 -282.5t-282.5 -116.5h-74q-166 0 -282.5 116.5t-116.5 282.5v283q0 166 116.5 282.5t282.5 116.5zM571 793q-53 0 -91 -38t-38 -91v-283q0 -53 38 -91t91 -38h74q53 0 91 38
t38 91v283q0 53 -38 91t-91 38h-74z" />
    <glyph glyph-name="Obreve" unicode="&#x14e;" 
d="M295 1831h270q0 -18 13.5 -30.5t29.5 -12.5q18 0 30.5 12t12.5 31h271q0 -129 -91.5 -221t-222.5 -92q-129 0 -221 92t-92 221zM559 -18q-166 0 -282.5 116.5t-116.5 282.5v639q0 166 116.5 282.5t282.5 116.5h98q166 0 283 -116.5t117 -282.5v-639q0 -166 -117 -282.5
t-283 -116.5h-98zM559 252h98q53 0 91 38t38 91v639q0 53 -37.5 91t-91.5 38h-98q-53 0 -91 -38t-38 -91v-639q0 -53 38 -91t91 -38z" />
    <glyph glyph-name="obreve" unicode="&#x14f;" 
d="M295 1475h270q0 -18 13.5 -30.5t29.5 -12.5q18 0 30.5 12t12.5 31h271q0 -129 -91.5 -221.5t-222.5 -92.5q-129 0 -221 92.5t-92 221.5zM571 1063h74q166 0 282.5 -117t116.5 -282v-283q0 -166 -116.5 -282.5t-282.5 -116.5h-74q-166 0 -282.5 116.5t-116.5 282.5v283
q0 166 116.5 282.5t282.5 116.5zM571 793q-53 0 -91 -38t-38 -91v-283q0 -53 38 -91t91 -38h74q53 0 91 38t38 91v283q0 53 -38 91t-91 38h-74z" />
    <glyph glyph-name="Ohungarumlaut" unicode="&#x150;" 
d="M412 1511l-195 195l348 348l195 -194zM932 1511l-195 195l348 348l195 -194zM559 -18q-166 0 -282.5 116.5t-116.5 282.5v639q0 166 116.5 282.5t282.5 116.5h98q166 0 283 -116.5t117 -282.5v-639q0 -166 -117 -282.5t-283 -116.5h-98zM559 252h98q53 0 91 38t38 91v639
q0 53 -37.5 91t-91.5 38h-98q-53 0 -91 -38t-38 -91v-639q0 -53 38 -91t91 -38z" />
    <glyph glyph-name="ohungarumlaut" unicode="&#x151;" 
d="M412 1155l-195 195l348 348l195 -195zM932 1155l-195 195l348 348l195 -195zM571 1063h74q166 0 282.5 -117t116.5 -282v-283q0 -166 -116.5 -282.5t-282.5 -116.5h-74q-166 0 -282.5 116.5t-116.5 282.5v283q0 166 116.5 282.5t282.5 116.5zM571 793q-53 0 -91 -38
t-38 -91v-283q0 -53 38 -91t91 -38h74q53 0 91 38t38 91v283q0 53 -38 91t-91 38h-74z" />
    <glyph glyph-name="OE" unicode="&#x152;" 
d="M1126 1130h-243v-294h182v-271h-182v-295h243v-270h-483q-45 -18 -100 -18q-143 0 -242.5 100t-99.5 242v755q0 141 100 240.5t242 99.5q55 0 100 -18h483v-271zM543 252q29 0 49 21.5t20 50.5v755q0 29 -20.5 49.5t-48.5 20.5q-31 0 -51.5 -20.5t-20.5 -49.5v-755
q0 -29 20.5 -50.5t51.5 -21.5z" />
    <glyph glyph-name="oe" unicode="&#x153;" 
d="M1165 395h-411v-71q0 -29 20.5 -50.5t49 -21.5t48 18.5t21.5 44.5l262 -75q-29 -113 -121 -185.5t-211 -72.5q-125 0 -205 94q-84 -94 -206 -94q-139 0 -239.5 100t-100.5 242v399q0 141 100 240.5t240 99.5q123 0 206 -94q80 94 205 94q141 0 241.5 -99.5t100.5 -240.5
v-328zM483 324v399q0 31 -20.5 50.5t-50.5 19.5q-29 0 -49.5 -19.5t-20.5 -50.5v-399q0 -29 20.5 -50.5t49 -21.5t50 21.5t21.5 50.5zM754 723v-105h141v105q0 31 -20.5 50.5t-51.5 19.5q-29 0 -49 -19.5t-20 -50.5z" />
    <glyph glyph-name="Racute" unicode="&#x154;" 
d="M938 1860l-348 -349l-195 195l348 348zM946 459q61 -68 98 -157t37 -173v-129h-270v129q0 33 -19.5 76t-43.5 69l-218 230h-69v-504h-271v1401h474q166 0 282.5 -117t116.5 -283v-98q0 -113 -56.5 -206t-150.5 -144zM461 1130v-356h203q53 0 91 38t38 91v98q0 53 -38 91
t-91 38h-203z" />
    <glyph glyph-name="racute" unicode="&#x155;" 
d="M750 1155l-195 195l348 348l195 -195zM98 0v270h209v394q0 166 117 282.5t283 116.5h81q137 0 245 -85t143 -216l-261 -78q-10 47 -44.5 78t-82.5 31h-81q-53 0 -91 -38t-38 -91v-394h417v-270h-897z" />
    <glyph glyph-name="Rcommaaccent" unicode="&#x156;" 
d="M946 459q61 -68 98 -157t37 -173v-129h-270v129q0 33 -19.5 76t-43.5 69l-218 230h-69v-504h-271v1401h474q166 0 282.5 -117t116.5 -283v-98q0 -113 -56.5 -206t-150.5 -144zM461 1130v-356h203q53 0 91 38t38 91v98q0 53 -38 91t-91 38h-203zM414 -406v271h434v-266
q0 -162 -99.5 -287t-252.5 -162l-76 260q68 10 113 63.5t45 120.5h-164z" />
    <glyph glyph-name="rcommaaccent" unicode="&#x157;" 
d="M98 0v270h209v394q0 166 117 282.5t283 116.5h81q137 0 245 -85t143 -216l-261 -78q-10 47 -44.5 78t-82.5 31h-81q-53 0 -91 -38t-38 -91v-394h417v-270h-897zM328 -135h434v-266q0 -162 -99.5 -287t-252.5 -162l-76 260q68 10 113 63.5t45 120.5h-164v271z" />
    <glyph glyph-name="Rcaron" unicode="&#x158;" 
d="M702 1536h-225l-266 266l192 193l187 -189l188 189l191 -193zM946 459q61 -68 98 -157t37 -173v-129h-270v129q0 33 -19.5 76t-43.5 69l-218 230h-69v-504h-271v1401h474q166 0 282.5 -117t116.5 -283v-98q0 -113 -56.5 -206t-150.5 -144zM461 1130v-356h203q53 0 91 38
t38 91v98q0 53 -38 91t-91 38h-203z" />
    <glyph glyph-name="rcaron" unicode="&#x159;" 
d="M371 1446l192 192l187 -188l188 188l190 -192l-266 -266h-225zM98 0v270h209v394q0 166 117 282.5t283 116.5h81q137 0 245 -85t143 -216l-261 -78q-10 47 -44.5 78t-82.5 31h-81q-53 0 -91 -38t-38 -91v-394h417v-270h-897z" />
    <glyph glyph-name="Sacute" unicode="&#x15a;" 
d="M606 1511l-194 195l348 348l194 -194zM127 283l258 77q8 -47 44 -77.5t83 -30.5h143q53 0 91 38t38 91q0 119 -145 174l-162 61q-319 129 -319 404q0 166 117.5 282.5t281.5 116.5h100q137 0 246 -85t141 -216l-262 -74q-8 45 -42.5 75t-82.5 30h-100q-53 0 -91 -38
t-38 -91q0 -31 7 -51.5t43 -48t104 -54.5l161 -63q145 -57 228.5 -167t83.5 -255q0 -166 -117 -282.5t-283 -116.5h-143q-137 0 -244.5 85t-140.5 216z" />
    <glyph glyph-name="sacute" unicode="&#x15b;" 
d="M623 1155l-195 195l348 348l195 -195zM172 233l258 80q4 -27 21.5 -44t44.5 -17h217q27 0 45 18.5t18 44.5q0 70 -94 70l-160 14q-145 12 -237 105.5t-92 224.5q0 139 98 236.5t235 97.5h181q117 0 205.5 -70.5t117.5 -181.5l-258 -76q-4 25 -21.5 41.5t-43.5 16.5h-181
q-27 0 -45 -17.5t-18 -46.5q0 -53 86 -61l172 -15q139 -14 232.5 -107t93.5 -230.5t-97.5 -235.5t-236.5 -98h-217q-115 0 -205 71t-119 180z" />
    <glyph glyph-name="Scircumflex" unicode="&#x15c;" 
d="M227 1634l267 267h225l266 -267l-190 -192l-189 188l-186 -188zM127 283l258 77q8 -47 44 -77.5t83 -30.5h143q53 0 91 38t38 91q0 119 -145 174l-162 61q-319 129 -319 404q0 166 117.5 282.5t281.5 116.5h100q137 0 246 -85t141 -216l-262 -74q-8 45 -42.5 75t-82.5 30
h-100q-53 0 -91 -38t-38 -91q0 -31 7 -51.5t43 -48t104 -54.5l161 -63q145 -57 228.5 -167t83.5 -255q0 -166 -117 -282.5t-283 -116.5h-143q-137 0 -244.5 85t-140.5 216z" />
    <glyph glyph-name="scircumflex" unicode="&#x15d;" 
d="M244 1278l266 266h225l266 -266l-190 -193l-188 189l-187 -189zM172 233l258 80q4 -27 21.5 -44t44.5 -17h217q27 0 45 18.5t18 44.5q0 70 -94 70l-160 14q-145 12 -237 105.5t-92 224.5q0 139 98 236.5t235 97.5h181q117 0 205.5 -70.5t117.5 -181.5l-258 -76
q-4 25 -21.5 41.5t-43.5 16.5h-181q-27 0 -45 -17.5t-18 -46.5q0 -53 86 -61l172 -15q139 -14 232.5 -107t93.5 -230.5t-97.5 -235.5t-236.5 -98h-217q-115 0 -205 71t-119 180z" />
    <glyph glyph-name="Scedilla" unicode="&#x15e;" 
d="M1055 381q0 -150 -96.5 -261.5t-241.5 -133.5v-74q72 -41 116 -113.5t44 -158.5q0 -129 -92.5 -221.5t-221.5 -92.5h-117v271h117q18 0 30.5 13t12.5 30q0 18 -12 30.5t-31 12.5h-117v305q-117 18 -203.5 99t-115.5 196l258 77q8 -47 44 -77.5t83 -30.5h143q53 0 91 38
t38 91q0 119 -145 174l-162 61q-319 129 -319 404q0 166 117.5 282.5t281.5 116.5h100q137 0 246 -85t141 -216l-262 -74q-8 45 -42.5 75t-82.5 30h-100q-53 0 -91 -38t-38 -91q0 -31 7 -51.5t43 -48t104 -54.5l161 -63q145 -57 228.5 -167t83.5 -255z" />
    <glyph glyph-name="scedilla" unicode="&#x15f;" 
d="M1047 315q0 -129 -87.5 -224t-214.5 -107v-72q72 -41 116 -113.5t44 -158.5q0 -129 -92 -221.5t-221 -92.5h-117v271h117q18 0 30.5 13t12.5 30q0 18 -12.5 30.5t-30.5 12.5h-117v299q-111 8 -193.5 77.5t-109.5 173.5l258 80q4 -27 21.5 -44t44.5 -17h217q27 0 45 18.5
t18 44.5q0 70 -94 70l-160 14q-145 12 -237 105.5t-92 224.5q0 139 98 236.5t235 97.5h181q117 0 205.5 -70.5t117.5 -181.5l-258 -76q-4 25 -21.5 41.5t-43.5 16.5h-181q-27 0 -45 -17.5t-18 -46.5q0 -53 86 -61l172 -15q139 -14 232.5 -107.5t93.5 -230.5z" />
    <glyph glyph-name="Scaron" unicode="&#x160;" 
d="M227 1802l193 193l186 -189l189 189l190 -193l-266 -266h-225zM127 283l258 77q8 -47 44 -77.5t83 -30.5h143q53 0 91 38t38 91q0 119 -145 174l-162 61q-319 129 -319 404q0 166 117.5 282.5t281.5 116.5h100q137 0 246 -85t141 -216l-262 -74q-8 45 -42.5 75t-82.5 30
h-100q-53 0 -91 -38t-38 -91q0 -31 7 -51.5t43 -48t104 -54.5l161 -63q145 -57 228.5 -167t83.5 -255q0 -166 -117 -282.5t-283 -116.5h-143q-137 0 -244.5 85t-140.5 216z" />
    <glyph glyph-name="scaron" unicode="&#x161;" 
d="M244 1446l192 192l187 -188l188 188l190 -192l-266 -266h-225zM172 233l258 80q4 -27 21.5 -44t44.5 -17h217q27 0 45 18.5t18 44.5q0 70 -94 70l-160 14q-145 12 -237 105.5t-92 224.5q0 139 98 236.5t235 97.5h181q117 0 205.5 -70.5t117.5 -181.5l-258 -76
q-4 25 -21.5 41.5t-43.5 16.5h-181q-27 0 -45 -17.5t-18 -46.5q0 -53 86 -61l172 -15q139 -14 232.5 -107t93.5 -230.5t-97.5 -235.5t-236.5 -98h-217q-115 0 -205 71t-119 180z" />
    <glyph glyph-name="Tcommaaccent" unicode="&#x162;" 
d="M743 1130v-1218q72 -41 116 -113.5t44 -158.5q0 -129 -92 -221.5t-221 -92.5h-117v271h117q18 0 30.5 13t12.5 30q0 18 -12.5 30.5t-30.5 12.5h-117v1447h-326v271h922v-271h-326z" />
    <glyph glyph-name="tcommaaccent" unicode="&#x163;" 
d="M909 -88q72 -41 116 -113.5t44 -158.5q0 -129 -92 -221.5t-221 -92.5h-117v271h117q18 0 30.5 13t12.5 30q0 18 -12.5 30.5t-30.5 12.5h-117v317h16q-123 39 -200.5 143.5t-77.5 235.5v395h-283v270h283v283h270v-283h430v-270h-430v-395q0 -51 37 -89t90 -38
q45 0 79 28.5t44 71.5l260 -80q-27 -96 -97.5 -168.5t-166.5 -103.5h16v-88z" />
    <glyph glyph-name="Tcaron" unicode="&#x164;" 
d="M229 1802l193 193l186 -189l189 189l190 -193l-266 -266h-225zM147 1401h922v-271h-326v-1130h-270v1130h-326v271z" />
    <glyph glyph-name="tcaron" unicode="&#x165;" 
d="M717 1851h434v-266q0 -162 -99.5 -286.5t-252.5 -161.5l-76 260q68 10 113 63t45 121h-164v270zM94 774v270h283v283h270v-283h430v-270h-430v-395q0 -51 37 -89t90 -38q45 0 79 28.5t44 71.5l260 -80q-37 -127 -142.5 -208.5t-240.5 -81.5q-164 0 -280.5 116.5
t-116.5 280.5v395h-283z" />
    <glyph glyph-name="Tbar" unicode="&#x166;" 
d="M1069 1130h-326v-382h201v-271h-201v-477h-270v477h-205v271h205v382h-326v271h922v-271z" />
    <glyph glyph-name="tbar" unicode="&#x167;" 
d="M897 352l260 -80q-37 -127 -142.5 -208.5t-240.5 -81.5q-164 0 -280.5 116.5t-116.5 280.5v20h-205v271h205v104h-283v270h283v283h270v-283h430v-270h-430v-104h203v-271h-203v-20q0 -51 37 -89t90 -38q45 0 79 28.5t44 71.5z" />
    <glyph glyph-name="Utilde" unicode="&#x168;" 
d="M182 1561v43q0 125 88 213t213 88q70 0 148 -37q16 -8 41.5 -21.5t39 -20.5t21.5 -7q31 0 31 30v43h270v-43q0 -125 -88 -213t-213 -88q-72 0 -147 35q-98 51 -103 51q-31 0 -30 -30v-43h-271zM158 1401h270v-1020q0 -53 38 -91t91 -38h98q53 0 91 38t38 91v1020h271
v-1020q0 -166 -117 -282.5t-283 -116.5h-98q-166 0 -282.5 116.5t-116.5 282.5v1020z" />
    <glyph glyph-name="utilde" unicode="&#x169;" 
d="M182 1204v43q0 125 88 213t213 88q70 0 148 -37q16 -8 41.5 -21t39 -20.5t21.5 -7.5q31 0 31 31v43h270v-43q0 -125 -88 -213t-213 -88q-72 0 -147 35q-98 51 -103 51q-31 0 -30 -31v-43h-271zM172 1044h270v-663q0 -53 38 -91t91 -38h74q53 0 91 38t38 91v663h270v-663
q0 -166 -116.5 -282.5t-282.5 -116.5h-74q-166 0 -282.5 116.5t-116.5 282.5v663z" />
    <glyph glyph-name="Umacron" unicode="&#x16a;" 
d="M289 1536v270h639v-270h-639zM158 1401h270v-1020q0 -53 38 -91t91 -38h98q53 0 91 38t38 91v1020h271v-1020q0 -166 -117 -282.5t-283 -116.5h-98q-166 0 -282.5 116.5t-116.5 282.5v1020z" />
    <glyph glyph-name="umacron" unicode="&#x16b;" 
d="M289 1180v270h639v-270h-639zM172 1044h270v-663q0 -53 38 -91t91 -38h74q53 0 91 38t38 91v663h270v-663q0 -166 -116.5 -282.5t-282.5 -116.5h-74q-166 0 -282.5 116.5t-116.5 282.5v663z" />
    <glyph glyph-name="Ubreve" unicode="&#x16c;" 
d="M295 1831h270q0 -18 13.5 -30.5t29.5 -12.5q18 0 30.5 12t12.5 31h271q0 -129 -91.5 -221t-222.5 -92q-129 0 -221 92t-92 221zM158 1401h270v-1020q0 -53 38 -91t91 -38h98q53 0 91 38t38 91v1020h271v-1020q0 -166 -117 -282.5t-283 -116.5h-98q-166 0 -282.5 116.5
t-116.5 282.5v1020z" />
    <glyph glyph-name="ubreve" unicode="&#x16d;" 
d="M295 1475h270q0 -18 13.5 -30.5t29.5 -12.5q18 0 30.5 12t12.5 31h271q0 -129 -91.5 -221.5t-222.5 -92.5q-129 0 -221 92.5t-92 221.5zM172 1044h270v-663q0 -53 38 -91t91 -38h74q53 0 91 38t38 91v663h270v-663q0 -166 -116.5 -282.5t-282.5 -116.5h-74
q-166 0 -282.5 116.5t-116.5 282.5v663z" />
    <glyph glyph-name="Uring" unicode="&#x16e;" 
d="M295 1714q0 129 92 221.5t221 92.5q131 0 222.5 -92.5t91.5 -221.5t-91.5 -221t-222.5 -92q-129 0 -221 92t-92 221zM565 1714.5q0 -18.5 13.5 -31t29.5 -12.5q18 0 30.5 12.5t12.5 31t-12 30.5t-31 12q-16 0 -29.5 -12t-13.5 -30.5zM158 1401h270v-1020q0 -53 38 -91
t91 -38h98q53 0 91 38t38 91v1020h271v-1020q0 -166 -117 -282.5t-283 -116.5h-98q-166 0 -282.5 116.5t-116.5 282.5v1020z" />
    <glyph glyph-name="uring" unicode="&#x16f;" 
d="M295 1358q0 129 92 221t221 92q131 0 222.5 -92t91.5 -221t-91.5 -221.5t-222.5 -92.5q-129 0 -221 92.5t-92 221.5zM565 1357.5q0 -18.5 13.5 -30.5t29.5 -12q18 0 30.5 12t12.5 30.5t-12 31t-31 12.5q-16 0 -29.5 -12.5t-13.5 -31zM172 1044h270v-663q0 -53 38 -91
t91 -38h74q53 0 91 38t38 91v663h270v-663q0 -166 -116.5 -282.5t-282.5 -116.5h-74q-166 0 -282.5 116.5t-116.5 282.5v663z" />
    <glyph glyph-name="Uhungarumlaut" unicode="&#x170;" 
d="M412 1511l-195 195l348 348l195 -194zM932 1511l-195 195l348 348l195 -194zM158 1401h270v-1020q0 -53 38 -91t91 -38h98q53 0 91 38t38 91v1020h271v-1020q0 -166 -117 -282.5t-283 -116.5h-98q-166 0 -282.5 116.5t-116.5 282.5v1020z" />
    <glyph glyph-name="uhungarumlaut" unicode="&#x171;" 
d="M412 1155l-195 195l348 348l195 -195zM932 1155l-195 195l348 348l195 -195zM172 1044h270v-663q0 -53 38 -91t91 -38h74q53 0 91 38t38 91v663h270v-663q0 -166 -116.5 -282.5t-282.5 -116.5h-74q-166 0 -282.5 116.5t-116.5 282.5v663z" />
    <glyph glyph-name="Uogonek" unicode="&#x172;" 
d="M784 1401h271v-1020q0 -143 -88 -252t-226 -137v-53q0 -23 23 -23h82v-272h-80q-123 0 -209 87t-86 208v53q-137 29 -225 137.5t-88 251.5v1020h270v-1020q0 -53 38 -91t91 -38h98q53 0 91 38t38 91v1020z" />
    <glyph glyph-name="uogonek" unicode="&#x173;" 
d="M774 1044h270v-663q0 -139 -85 -246.5t-216 -140.5v-55q0 -23 23 -23h82v-272h-80q-123 0 -209 87t-86 208v55q-131 33 -216 140.5t-85 246.5v663h270v-663q0 -53 38 -91t91 -38h74q53 0 91 38t38 91v663z" />
    <glyph glyph-name="Wcircumflex" unicode="&#x174;" 
d="M229 1634l267 267h225l266 -267l-190 -192l-189 188l-186 -188zM86 1401h270v-275q0 -135 21 -245l59 -371l64 397h215l65 -399l62 373q20 121 20 247v273h271v-275q0 -145 -25 -290l-143 -836h-252l-105 496l-104 -496h-250l-145 836q-23 145 -23 290v275z" />
    <glyph glyph-name="wcircumflex" unicode="&#x175;" 
d="M229 1278l267 266h225l266 -266l-190 -193l-189 189l-186 -189zM84 913v131h270v-131q0 -109 25 -235l47 -252l84 440h197l84 -440l47 252q27 127 26 235v131h271v-131q0 -147 -35 -292l-135 -621h-254l-103 516l-102 -516h-254l-135 621q-33 145 -33 292z" />
    <glyph glyph-name="Ycircumflex" unicode="&#x176;" 
d="M229 1634l267 267h225l266 -267l-190 -192l-189 188l-186 -188zM1094 1112q0 -145 -97 -281l-254 -323v-508h-270v508l-254 323q-96 135 -96 281v289h270v-289q0 -27 10.5 -55.5t18.5 -42t12 -17.5l174 -223l174 223q4 4 12.5 17.5t18.5 42t10 55.5v289h271v-289z" />
    <glyph glyph-name="ycircumflex" unicode="&#x177;" 
d="M229 1278l267 266h225l266 -266l-190 -193l-189 189l-186 -189zM127 1044h270v-131q0 -92 52 -184l163 -295l166 295q49 84 49 184v131h271v-131q0 -170 -84 -317l-424 -758q-55 -92 -144.5 -143t-189.5 -51h-182v270h182q27 0 50.5 14.5t33.5 25.5t14 19l103 185
l-246 438q-84 147 -84 317v131z" />
    <glyph glyph-name="Ydieresis" unicode="&#x178;" 
d="M252 1524v362h270v-362h-270zM694 1524v362h271v-362h-271zM1094 1112q0 -145 -97 -281l-254 -323v-508h-270v508l-254 323q-96 135 -96 281v289h270v-289q0 -27 10.5 -55.5t18.5 -42t12 -17.5l174 -223l174 223q4 4 12.5 17.5t18.5 42t10 55.5v289h271v-289z" />
    <glyph glyph-name="Zacute" unicode="&#x179;" 
d="M608 1511l-194 195l348 348l194 -194zM182 1401h836v-271l-549 -860h567v-270h-872v270l551 860h-533v271z" />
    <glyph glyph-name="zacute" unicode="&#x17a;" 
d="M612 1155l-194 195l348 348l195 -195zM215 1044h793v-270l-451 -504h469v-270h-829v270l450 504h-432v270z" />
    <glyph glyph-name="Zdotaccent" unicode="&#x17b;" 
d="M473 1524v362h270v-362h-270zM182 1401h836v-271l-549 -860h567v-270h-872v270l551 860h-533v271z" />
    <glyph glyph-name="zdotaccent" unicode="&#x17c;" 
d="M477 1167v363h271v-363h-271zM215 1044h793v-270l-451 -504h469v-270h-829v270l450 504h-432v270z" />
    <glyph glyph-name="Zcaron" unicode="&#x17d;" 
d="M229 1802l193 193l186 -189l189 189l190 -193l-266 -266h-225zM182 1401h836v-271l-549 -860h567v-270h-872v270l551 860h-533v271z" />
    <glyph glyph-name="zcaron" unicode="&#x17e;" 
d="M233 1446l193 192l186 -188l189 188l190 -192l-266 -266h-225zM215 1044h793v-270l-451 -504h469v-270h-829v270l450 504h-432v270z" />
    <glyph glyph-name="uni0186" unicode="&#x186;" 
d="M162 1118q33 131 140.5 216t246.5 85h98q164 0 282 -116.5t118 -282.5v-639q0 -164 -118 -281.5t-282 -117.5h-98q-139 0 -246.5 85t-140.5 218l258 75q8 -45 45 -76.5t84 -31.5h98q53 0 91 38t38 91v639q0 53 -38 91t-91 38h-98q-47 0 -84 -31t-45 -78z" />
    <glyph glyph-name="uni0189" unicode="&#x189;" 
d="M676 1401q166 0 282.5 -117t116.5 -283v-602q0 -166 -116.5 -282.5t-282.5 -116.5h-473v565h-170v271h170v565h473zM805 399v602q0 53 -38 91t-91 38h-203v-294h234v-271h-234v-295h203q53 0 91 38t38 91z" />
    <glyph glyph-name="uni018E" unicode="&#x18e;" 
d="M1014 0h-873v270h602v295h-540v271h540v294h-602v271h873v-1401z" />
    <glyph glyph-name="uni018F" unicode="&#x18f;" 
d="M172 1118q35 131 142.5 216t244.5 85h107q166 0 281.5 -114.5t117.5 -278.5v-645q0 -166 -117 -282.5t-282 -116.5h-99q-166 0 -282.5 116.5t-116.5 282.5v455h627v184q0 53 -38 91t-91 38h-107q-47 0 -82 -31t-45 -78zM438 565v-184q0 -53 38 -91t91 -38h99q53 0 91 38
t38 91v184h-357z" />
    <glyph glyph-name="uni0190" unicode="&#x190;" 
d="M713 252q49 0 83.5 29.5t43.5 76.5l260 -73q-35 -133 -141.5 -218t-245.5 -85h-107q-166 0 -282.5 117.5t-116.5 281.5v68q0 84 41 154.5t110 113.5q-139 94 -139 260v43q0 168 117 283.5t282 115.5h95q137 0 244.5 -85t142.5 -216l-260 -78q-8 47 -43 78t-84 31h-95
q-53 0 -91 -38t-38 -91v-43q0 -53 38 -91t91 -38h197v-270h-209q-53 0 -91 -39t-38 -90v-68q0 -53 38 -91t91 -38h107z" />
    <glyph glyph-name="florin" unicode="&#x192;" 
d="M743 1063v-227h271v-271h-271v-227q0 -147 -103 -251.5t-253 -104.5q-123 0 -217 72.5t-125 187.5l258 77q6 -29 29.5 -48t54.5 -19q35 0 60.5 24.5t25.5 61.5v227h-270v271h270v227q0 145 104.5 250.5t251.5 105.5q121 0 217.5 -73.5t127.5 -186.5l-261 -80
q-8 31 -30.5 50.5t-53.5 19.5q-37 0 -61.5 -25.5t-24.5 -60.5z" />
    <glyph glyph-name="uni0197" unicode="&#x197;" 
d="M743 270h301v-270h-872v270h301v312h-147v270h147v278h-283v271h836v-271h-283v-278h156v-270h-156v-312z" />
    <glyph glyph-name="uni019D" unicode="&#x19d;" 
d="M823 1401h271v-1401h-338l-363 907v-968q0 -121 -86 -208t-209 -87h-80v272h82q23 0 23 23v1462h338l362 -907v907z" />
    <glyph glyph-name="uni019F" unicode="&#x19f;" 
d="M657 1419q166 0 283 -116.5t117 -282.5v-639q0 -166 -117 -282.5t-283 -116.5h-98q-166 0 -282.5 116.5t-116.5 282.5v639q0 166 116.5 282.5t282.5 116.5h98zM559 1149q-53 0 -91 -38t-38 -91v-184h356v184q0 53 -37.5 91t-91.5 38h-98zM657 252q53 0 91 38t38 91v184
h-356v-184q0 -53 38 -91t91 -38h98z" />
    <glyph glyph-name="Ohorn" unicode="&#x1a0;" 
d="M977 1401h270v-84q0 -96 -52 -174t-138 -115v-8v-639q0 -166 -117 -282.5t-283 -116.5h-98q-166 0 -282.5 116.5t-116.5 282.5v639q0 166 116.5 282.5t282.5 116.5h98q184 0 301 -137q18 12 19 35v84zM786 381v639q0 53 -37.5 91t-91.5 38h-98q-53 0 -91 -38t-38 -91
v-639q0 -53 38 -91t91 -38h98q53 0 91 38t38 91z" />
    <glyph glyph-name="ohorn" unicode="&#x1a1;" 
d="M977 1044h270v-83q0 -98 -56 -178.5t-147 -114.5v-4v-283q0 -166 -116.5 -282.5t-282.5 -116.5h-74q-166 0 -282.5 116.5t-116.5 282.5v283q0 166 117 282.5t282 116.5h74q188 0 305 -141q27 10 27 39v83zM774 381v283q0 53 -38 91t-91 38h-74q-53 0 -91 -38t-38 -91
v-283q0 -53 38 -91t91 -38h74q53 0 91 38t38 91z" />
    <glyph glyph-name="uni01A9" unicode="&#x1a9;" 
d="M186 1401h871v-271h-553l256 -430l-273 -430h588v-270h-909v270l276 430l-256 430v271z" />
    <glyph glyph-name="Uhorn" unicode="&#x1af;" 
d="M1120 1401h271v-84q0 -129 -91.5 -221t-222.5 -92h-22v-623q0 -166 -117 -282.5t-283 -116.5h-98q-166 0 -282.5 116.5t-116.5 282.5v1020h270v-1020q0 -53 38 -91t91 -38h98q53 0 91 38t38 91v1020h271v-127h22q18 0 30.5 12t12.5 31v84z" />
    <glyph glyph-name="uhorn" unicode="&#x1b0;" 
d="M1063 1171h270v-84q0 -123 -84 -213t-205 -100v-393q0 -166 -116.5 -282.5t-282.5 -116.5h-74q-166 0 -282.5 116.5t-116.5 282.5v663h270v-663q0 -53 38 -91t91 -38h74q53 0 91 38t38 91v663h246q18 0 30.5 12.5t12.5 30.5v84z" />
    <glyph glyph-name="uni01B1" unicode="&#x1b1;" 
d="M1075 1401v-271h-76q57 -90 58 -196v-553q0 -166 -117 -282.5t-283 -116.5h-98q-166 0 -282.5 116.5t-116.5 282.5v553q0 106 57 196h-76v271h418v-271q-51 0 -90 -38.5t-39 -90.5v-620q0 -53 38 -91t91 -38h98q53 0 91 38t38 91v620q0 53 -37.5 91t-91.5 38v271h418z
" />
    <glyph glyph-name="uni01CD" unicode="&#x1cd;" 
d="M721 1536h-225l-267 266l193 193l186 -189l189 189l190 -193zM1053 590l4 -21q6 -18 12 -50t12 -70.5t11.5 -89t5.5 -95.5v-264h-271v279h-436v-279h-270v264q0 74 11 156t19.5 121t12.5 49l176 629q25 88 99.5 144t168.5 56q92 0 167 -56t104 -144zM608 1149
q-12 0 -12 -8l-162 -592h348l-161 592q-3 8 -13 8z" />
    <glyph glyph-name="uni01CE" unicode="&#x1ce;" 
d="M721 1180h-225l-267 266l193 192l186 -188l189 188l190 -192zM764 1044h270v-1044h-270v39q-90 -57 -197 -57h-6q-166 0 -282.5 116.5t-116.5 282.5v283q0 168 115.5 283.5t283.5 115.5h6q106 0 197 -57v38zM635 252q53 0 91 38t38 91v283q0 53 -38 91t-91 38h-74
q-53 0 -91 -38t-38 -91v-283q0 -53 38 -91t91 -38h74z" />
    <glyph glyph-name="uni01CF" unicode="&#x1cf;" 
d="M229 1802l193 193l186 -189l189 189l190 -193l-266 -266h-225zM172 270h301v860h-283v271h836v-271h-283v-860h301v-270h-872v270z" />
    <glyph glyph-name="uni01D0" unicode="&#x1d0;" 
d="M272 1446l193 192l186 -188l189 188l190 -192l-266 -266h-225zM252 1044h534v-774h308v-270h-910v270h332v504h-264v270z" />
    <glyph glyph-name="uni01D1" unicode="&#x1d1;" 
d="M229 1802l193 193l186 -189l189 189l190 -193l-266 -266h-225zM559 -18q-166 0 -282.5 116.5t-116.5 282.5v639q0 166 116.5 282.5t282.5 116.5h98q166 0 283 -116.5t117 -282.5v-639q0 -166 -117 -282.5t-283 -116.5h-98zM559 252h98q53 0 91 38t38 91v639
q0 53 -37.5 91t-91.5 38h-98q-53 0 -91 -38t-38 -91v-639q0 -53 38 -91t91 -38z" />
    <glyph glyph-name="uni01D2" unicode="&#x1d2;" 
d="M229 1446l193 192l186 -188l189 188l190 -192l-266 -266h-225zM571 1063h74q166 0 282.5 -117t116.5 -282v-283q0 -166 -116.5 -282.5t-282.5 -116.5h-74q-166 0 -282.5 116.5t-116.5 282.5v283q0 166 116.5 282.5t282.5 116.5zM571 793q-53 0 -91 -38t-38 -91v-283
q0 -53 38 -91t91 -38h74q53 0 91 38t38 91v283q0 53 -38 91t-91 38h-74z" />
    <glyph glyph-name="uni01D3" unicode="&#x1d3;" 
d="M229 1802l193 193l186 -189l189 189l190 -193l-266 -266h-225zM158 1401h270v-1020q0 -53 38 -91t91 -38h98q53 0 91 38t38 91v1020h271v-1020q0 -166 -117 -282.5t-283 -116.5h-98q-166 0 -282.5 116.5t-116.5 282.5v1020z" />
    <glyph glyph-name="uni01D4" unicode="&#x1d4;" 
d="M229 1446l193 192l186 -188l189 188l190 -192l-266 -266h-225zM172 1044h270v-663q0 -53 38 -91t91 -38h74q53 0 91 38t38 91v663h270v-663q0 -166 -116.5 -282.5t-282.5 -116.5h-74q-166 0 -282.5 116.5t-116.5 282.5v663z" />
    <glyph glyph-name="uni01D5" unicode="&#x1d5;" 
d="M289 1952v270h639v-270h-639zM252 1524v362h270v-362h-270zM694 1524v362h271v-362h-271zM158 1401h270v-1020q0 -53 38 -91t91 -38h98q53 0 91 38t38 91v1020h271v-1020q0 -166 -117 -282.5t-283 -116.5h-98q-166 0 -282.5 116.5t-116.5 282.5v1020z" />
    <glyph glyph-name="uni01D6" unicode="&#x1d6;" 
d="M289 1595v271h639v-271h-639zM252 1167v363h270v-363h-270zM694 1167v363h271v-363h-271zM172 1044h270v-663q0 -53 38 -91t91 -38h74q53 0 91 38t38 91v663h270v-663q0 -166 -116.5 -282.5t-282.5 -116.5h-74q-166 0 -282.5 116.5t-116.5 282.5v663z" />
    <glyph glyph-name="uni01D7" unicode="&#x1d7;" 
d="M608 1927l-194 195l348 348l194 -195zM252 1524v362h270v-362h-270zM694 1524v362h271v-362h-271zM158 1401h270v-1020q0 -53 38 -91t91 -38h98q53 0 91 38t38 91v1020h271v-1020q0 -166 -117 -282.5t-283 -116.5h-98q-166 0 -282.5 116.5t-116.5 282.5v1020z" />
    <glyph glyph-name="uni01D8" unicode="&#x1d8;" 
d="M608 1571l-194 194l348 349l194 -195zM252 1167v363h270v-363h-270zM694 1167v363h271v-363h-271zM172 1044h270v-663q0 -53 38 -91t91 -38h74q53 0 91 38t38 91v663h270v-663q0 -166 -116.5 -282.5t-282.5 -116.5h-74q-166 0 -282.5 116.5t-116.5 282.5v663z" />
    <glyph glyph-name="uni01D9" unicode="&#x1d9;" 
d="M229 2218l193 192l186 -188l189 188l190 -192l-266 -266h-225zM252 1524v362h270v-362h-270zM694 1524v362h271v-362h-271zM158 1401h270v-1020q0 -53 38 -91t91 -38h98q53 0 91 38t38 91v1020h271v-1020q0 -166 -117 -282.5t-283 -116.5h-98q-166 0 -282.5 116.5
t-116.5 282.5v1020z" />
    <glyph glyph-name="uni01DA" unicode="&#x1da;" 
d="M229 1862l193 192l186 -188l189 188l190 -192l-266 -267h-225zM252 1167v363h270v-363h-270zM694 1167v363h271v-363h-271zM172 1044h270v-663q0 -53 38 -91t91 -38h74q53 0 91 38t38 91v663h270v-663q0 -166 -116.5 -282.5t-282.5 -116.5h-74q-166 0 -282.5 116.5
t-116.5 282.5v663z" />
    <glyph glyph-name="uni01DB" unicode="&#x1db;" 
d="M608 1927l-348 348l195 195l348 -348zM252 1524v362h270v-362h-270zM694 1524v362h271v-362h-271zM158 1401h270v-1020q0 -53 38 -91t91 -38h98q53 0 91 38t38 91v1020h271v-1020q0 -166 -117 -282.5t-283 -116.5h-98q-166 0 -282.5 116.5t-116.5 282.5v1020z" />
    <glyph glyph-name="uni01DC" unicode="&#x1dc;" 
d="M608 1571l-348 348l195 195l348 -349zM252 1167v363h270v-363h-270zM694 1167v363h271v-363h-271zM172 1044h270v-663q0 -53 38 -91t91 -38h74q53 0 91 38t38 91v663h270v-663q0 -166 -116.5 -282.5t-282.5 -116.5h-74q-166 0 -282.5 116.5t-116.5 282.5v663z" />
    <glyph glyph-name="uni01DD" unicode="&#x1dd;" 
d="M639 -18h-74q-166 0 -282.5 116.5t-116.5 282.5v254h602v29q0 53 -38 91t-91 38h-90q-45 0 -80 -29t-45 -72l-258 76q35 127 140.5 211t242.5 84h90q166 0 282.5 -117t116.5 -282v-283q0 -166 -116.5 -282.5t-282.5 -116.5zM768 412h-332v-31q0 -53 38 -91t91 -38h74
q53 0 91 38t38 91v31z" />
    <glyph glyph-name="uni01DE" unicode="&#x1de;" 
d="M928 2222v-270h-639v270h639zM522 1886v-362h-270v362h270zM694 1524v362h271v-362h-271zM1053 590l4 -21q6 -18 12 -50t12 -70.5t11.5 -89t5.5 -95.5v-264h-271v279h-436v-279h-270v264q0 74 11 156t19.5 121t12.5 49l176 629q25 88 99.5 144t168.5 56q92 0 167 -56
t104 -144zM608 1149q-12 0 -12 -8l-162 -592h348l-161 592q-3 8 -13 8z" />
    <glyph glyph-name="uni01DF" unicode="&#x1df;" 
d="M928 1866v-271h-639v271h639zM522 1530v-363h-270v363h270zM694 1167v363h271v-363h-271zM764 1044h270v-1044h-270v39q-90 -57 -197 -57h-6q-166 0 -282.5 116.5t-116.5 282.5v283q0 168 115.5 283.5t283.5 115.5h6q106 0 197 -57v38zM635 252q53 0 91 38t38 91v283
q0 53 -38 91t-91 38h-74q-53 0 -91 -38t-38 -91v-283q0 -53 38 -91t91 -38h74z" />
    <glyph glyph-name="Gcaron" unicode="&#x1e6;" 
d="M238 1802l192 193l186 -189l189 189l190 -193l-266 -266h-225zM1059 1118l-260 -76q-8 45 -44 76t-83 31h-107q-53 0 -91 -38t-38 -91v-639q0 -53 38 -91t91 -38h99q53 0 91 38t38 91v184h-215v271h485v-455q0 -166 -117 -282.5t-282 -116.5h-99q-166 0 -282.5 116.5
t-116.5 282.5v643q2 164 118.5 279.5t280.5 115.5h107q137 0 244.5 -85t142.5 -216z" />
    <glyph glyph-name="gcaron" unicode="&#x1e7;" 
d="M696 1180h-225l-266 266l192 192l187 -188l188 188l191 -192zM762 1044h270v-1019q0 -166 -115.5 -283t-281.5 -117h-80q-139 0 -247.5 85t-143.5 216l262 78q8 -47 44 -77.5t85 -30.5h80q51 0 89 37.5t38 91.5v96q-90 -57 -197 -58h-6q-166 0 -282.5 118t-116.5 282v201
q0 166 116.5 282.5t282.5 116.5h6q106 0 197 -55v36zM633 334q53 0 91 38t38 91v201q0 53 -38 91t-91 38h-74q-53 0 -91 -38t-38 -91v-201q0 -53 39 -91t90 -38h74z" />
    <glyph glyph-name="Aringacute" unicode="&#x1fa;" 
d="M956 2183l-348 -348l-194 195l348 348zM1053 590l4 -21q6 -18 12 -50t12 -70.5t11.5 -89t5.5 -95.5v-264h-271v279h-436v-279h-270v264q0 74 11 156t19.5 121t12.5 49l176 629q10 31 20 51q-66 86 -65 192q0 129 92 221.5t221 92.5q131 0 222.5 -92.5t91.5 -221.5
q0 -106 -66 -192q16 -33 23 -51zM608 1505q-16 0 -29.5 -12t-13.5 -30.5t13.5 -31t29.5 -12.5q18 0 30.5 12.5t12.5 31t-12.5 30.5t-30.5 12zM608 1149q-12 0 -12 -8l-162 -592h348l-161 592q-3 8 -13 8z" />
    <glyph glyph-name="aringacute" unicode="&#x1fb;" 
d="M956 1827l-348 -348l-194 194l348 348zM915 1044h119v-1044h-270v39q-90 -57 -197 -57h-6q-166 0 -282.5 116.5t-116.5 282.5v283q0 203 157 319q-25 57 -24 123q0 129 92 221t221 92q131 0 222.5 -92t91.5 -221q-1 -31 -7 -62zM608 1149q-16 0 -29.5 -12.5t-13.5 -31
t13.5 -30.5t29.5 -12q18 0 30.5 12t12.5 30.5t-12.5 31t-30.5 12.5zM635 252q53 0 91 38t38 91v283q0 53 -38 91t-91 38h-74q-53 0 -91 -38t-38 -91v-283q0 -53 38 -91t91 -38h74z" />
    <glyph glyph-name="AEacute" unicode="&#x1fc;" 
d="M1073 1860l-348 -349l-195 195l349 348zM1094 1130h-242v-294h180v-271h-180v-295h242v-270h-512v276h-215v-276h-271v264q0 74 11.5 156t19.5 121t12 49l176 629q27 88 100.5 144t168.5 56q55 0 104 -18h406v-271zM410 547h172v602q-10 0 -11 -8z" />
    <glyph glyph-name="aeacute" unicode="&#x1fd;" 
d="M961 1503l-349 -348l-194 195l348 348zM1159 395h-411v-71q0 -29 21.5 -50.5t49.5 -21.5q27 0 46.5 17.5t23.5 45.5l258 -77q-29 -111 -120 -183.5t-208 -72.5q-35 0 -71 16v-21h-271v19q-35 -14 -69 -14q-143 0 -242.5 100t-99.5 242v399q0 141 99 240.5t243 99.5
q35 0 69 -14v18h271v-18q39 14 71 14q139 0 239.5 -99.5t100.5 -240.5v-328zM407.5 252q28.5 0 49 21.5t20.5 50.5v399q0 27 -21.5 48.5t-47.5 21.5q-29 0 -50.5 -20.5t-21.5 -49.5v-399q0 -29 21.5 -50.5t50 -21.5zM819.5 793q-28.5 0 -50 -20.5t-21.5 -49.5v-105h141v105
q0 27 -20.5 48.5t-49 21.5z" />
    <glyph glyph-name="Oslashacute" unicode="&#x1fe;" 
d="M956 1860l-348 -349l-194 195l348 348zM1190 1389l-152 -248q18 -59 19 -121v-639q0 -166 -117 -282.5t-283 -116.5h-98q-111 0 -199 53l-100 -164l-231 143l149 244q-18 57 -18 123v639q0 166 116.5 282.5t282.5 116.5h98q104 0 201 -53l100 162zM430 1020v-352l287 467
q-33 14 -60 14h-98q-53 0 -91 -38t-38 -91zM786 381v348l-284 -465q25 -12 57 -12h98q53 0 91 38t38 91z" />
    <glyph glyph-name="oslashacute" unicode="&#x1ff;" 
d="M956 1503l-348 -348l-194 195l348 348zM1092 1051l-109 -177q61 -96 61 -210v-283q0 -166 -116.5 -282.5t-282.5 -116.5h-74q-66 0 -125 20l-90 -149l-229 139l106 174q-61 100 -61 215v283q0 166 117 282.5t282 116.5h74q70 0 125 -21l92 152zM442 664v-156l174 285h-45
q-53 0 -91 -38t-38 -91zM774 381v151l-172 -280h43q53 0 91 38t38 91z" />
    <glyph glyph-name="Scommaaccent" unicode="&#x218;" 
d="M127 283l258 77q8 -47 44 -77.5t83 -30.5h143q53 0 91 38t38 91q0 119 -145 174l-162 61q-319 129 -319 404q0 166 117.5 282.5t281.5 116.5h100q137 0 246 -85t141 -216l-262 -74q-8 45 -42.5 75t-82.5 30h-100q-53 0 -91 -38t-38 -91q0 -31 7 -51.5t43 -48t104 -54.5
l161 -63q145 -57 228.5 -167t83.5 -255q0 -166 -117 -282.5t-283 -116.5h-143q-137 0 -244.5 85t-140.5 216zM362 -135h435v-266q0 -162 -99.5 -287t-253.5 -162l-75 260q68 10 112.5 63.5t44.5 120.5h-164v271z" />
    <glyph glyph-name="scommaaccent" unicode="&#x219;" 
d="M172 233l258 80q4 -27 21.5 -44t44.5 -17h217q27 0 45 18.5t18 44.5q0 70 -94 70l-160 14q-145 12 -237 105.5t-92 224.5q0 139 98 236.5t235 97.5h181q117 0 205.5 -70.5t117.5 -181.5l-258 -76q-4 25 -21.5 41.5t-43.5 16.5h-181q-27 0 -45 -17.5t-18 -46.5
q0 -53 86 -61l172 -15q139 -14 232.5 -107t93.5 -230.5t-97.5 -235.5t-236.5 -98h-217q-115 0 -205 71t-119 180zM391 -135h434v-266q0 -162 -99 -287t-253 -162l-76 260q68 10 113 63.5t45 120.5h-164v271z" />
    <glyph glyph-name="uni021A" unicode="&#x21a;" 
d="M147 1401h922v-271h-326v-1130h-270v1130h-326v271zM389 -135h434v-266q0 -162 -99 -287t-253 -162l-76 260q68 10 113 63.5t45 120.5h-164v271z" />
    <glyph glyph-name="uni021B" unicode="&#x21b;" 
d="M94 774v270h283v283h270v-283h430v-270h-430v-395q0 -51 37 -89t90 -38q45 0 79 28.5t44 71.5l260 -80q-37 -127 -142.5 -208.5t-240.5 -81.5q-164 0 -280.5 116.5t-116.5 280.5v395h-283zM555 -135h434v-266q0 -162 -99 -287t-253 -162l-76 260q68 10 113 63.5t45 120.5
h-164v271z" />
    <glyph glyph-name="uni021C" unicode="&#x21c;" 
d="M723 827q141 -25 234.5 -135t93.5 -258v-35q0 -166 -117 -282.5t-283 -116.5h-440v270h440q53 0 91 38t38 91v35q0 53 -37.5 91t-91.5 38h-301v271l297 296h-434v271h819v-271z" />
    <glyph glyph-name="uni021D" unicode="&#x21d;" 
d="M723 471q141 -25 234.5 -135.5t93.5 -257.5v-35q0 -166 -117 -282.5t-283 -116.5h-440v270h440q53 0 91 38t38 91v35q0 53 -37.5 91t-91.5 38h-301v270l297 297h-434v270h819v-270z" />
    <glyph glyph-name="uni0226" unicode="&#x226;" 
d="M743 1886v-362h-270v362h270zM1053 590l4 -21q6 -18 12 -50t12 -70.5t11.5 -89t5.5 -95.5v-264h-271v279h-436v-279h-270v264q0 74 11 156t19.5 121t12.5 49l176 629q25 88 99.5 144t168.5 56q92 0 167 -56t104 -144zM608 1149q-12 0 -12 -8l-162 -592h348l-161 592
q-3 8 -13 8z" />
    <glyph glyph-name="uni0227" unicode="&#x227;" 
d="M743 1530v-363h-270v363h270zM764 1044h270v-1044h-270v39q-90 -57 -197 -57h-6q-166 0 -282.5 116.5t-116.5 282.5v283q0 168 115.5 283.5t283.5 115.5h6q106 0 197 -57v38zM635 252q53 0 91 38t38 91v283q0 53 -38 91t-91 38h-74q-53 0 -91 -38t-38 -91v-283
q0 -53 38 -91t91 -38h74z" />
    <glyph glyph-name="uni0228" unicode="&#x228;" 
d="M1075 1130h-602v-294h541v-271h-541v-295h602v-270h-293v-88q72 -41 116 -113.5t44 -158.5q0 -129 -92 -221.5t-221 -92.5h-117v271h117q18 0 30.5 13t12.5 30q0 18 -12.5 30.5t-30.5 12.5h-117v317h-309v1401h872v-271z" />
    <glyph glyph-name="uni0229" unicode="&#x229;" 
d="M1051 410h-602v-29q0 -53 37.5 -91t91.5 -38h90q45 0 79.5 28.5t45.5 71.5l258 -76q-29 -104 -108 -182t-185 -102v-80q72 -41 116 -113.5t44 -158.5q0 -129 -92.5 -221.5t-221.5 -92.5h-117v271h117q18 0 30.5 13t12.5 30q0 18 -12 30.5t-31 12.5h-117v309
q-135 31 -222 139.5t-87 249.5v283q0 166 117 282.5t283 116.5h73q166 0 283 -117t117 -282v-254zM449 664v-31h331v31q0 53 -37.5 91t-91.5 38h-73q-53 0 -91 -38t-38 -91z" />
    <glyph glyph-name="uni022A" unicode="&#x22a;" 
d="M289 1952v270h639v-270h-639zM252 1524v362h270v-362h-270zM694 1524v362h271v-362h-271zM559 -18q-166 0 -282.5 116.5t-116.5 282.5v639q0 166 116.5 282.5t282.5 116.5h98q166 0 283 -116.5t117 -282.5v-639q0 -166 -117 -282.5t-283 -116.5h-98zM559 252h98
q53 0 91 38t38 91v639q0 53 -37.5 91t-91.5 38h-98q-53 0 -91 -38t-38 -91v-639q0 -53 38 -91t91 -38z" />
    <glyph glyph-name="uni022B" unicode="&#x22b;" 
d="M289 1595v271h639v-271h-639zM252 1167v363h270v-363h-270zM694 1167v363h271v-363h-271zM571 1063h74q166 0 282.5 -117t116.5 -282v-283q0 -166 -116.5 -282.5t-282.5 -116.5h-74q-166 0 -282.5 116.5t-116.5 282.5v283q0 166 116.5 282.5t282.5 116.5zM571 793
q-53 0 -91 -38t-38 -91v-283q0 -53 38 -91t91 -38h74q53 0 91 38t38 91v283q0 53 -38 91t-91 38h-74z" />
    <glyph glyph-name="uni0232" unicode="&#x232;" 
d="M289 1536v270h639v-270h-639zM1094 1112q0 -145 -97 -281l-254 -323v-508h-270v508l-254 323q-96 135 -96 281v289h270v-289q0 -27 10.5 -55.5t18.5 -42t12 -17.5l174 -223l174 223q4 4 12.5 17.5t18.5 42t10 55.5v289h271v-289z" />
    <glyph glyph-name="uni0233" unicode="&#x233;" 
d="M289 1180v270h639v-270h-639zM127 1044h270v-131q0 -92 52 -184l163 -295l166 295q49 84 49 184v131h271v-131q0 -170 -84 -317l-424 -758q-55 -92 -144.5 -143t-189.5 -51h-182v270h182q27 0 50.5 14.5t33.5 25.5t14 19l103 185l-246 438q-84 147 -84 317v131z" />
    <glyph glyph-name="uni0237" unicode="&#x237;" 
d="M209 1044h657v-1021q0 -166 -116.5 -282t-280.5 -116q-135 0 -241.5 81t-141.5 208l258 82q10 -43 45 -71.5t80 -28.5q51 0 89 37.5t38 89.5v751h-387v270z" />
    <glyph glyph-name="uni0243" unicode="&#x243;" 
d="M930 717q70 -43 110.5 -114t40.5 -154v-50q0 -166 -116.5 -282.5t-282.5 -116.5h-485v311h-164v219h164v871h473q166 0 282.5 -117t116.5 -283v-24q0 -168 -139 -260zM670 1130h-203v-282h203q53 0 91 38t38 91v24q0 53 -38 91t-91 38zM811 399v50q0 53 -38 91t-91 38
h-215v-48h129v-219h-129v-41h215q53 0 91 38t38 91z" />
    <glyph glyph-name="uni0244" unicode="&#x244;" 
d="M1212 954v-270h-157v-303q0 -166 -117 -282.5t-283 -116.5h-98q-166 0 -282.5 116.5t-116.5 282.5v303h-152v270h152v447h270v-447h356v447h271v-447h157zM784 381v303h-356v-303q0 -53 38 -91t91 -38h98q53 0 91 38t38 91z" />
    <glyph glyph-name="uni0245" unicode="&#x245;" 
d="M121 0v262q-2 143 49 330l262 809h352l263 -809q-2 4 -3 0q2 -2 3 -6q49 -164 49 -324v-262h-271v293q0 106 -45 242l-172 557q-154 -500 -172 -557q-45 -135 -45 -242v-293h-270z" />
    <glyph glyph-name="uni024C" unicode="&#x24c;" 
d="M958 459q61 -68 98.5 -157t37.5 -173v-129h-271v129q0 33 -19.5 76t-43.5 69l-217 230h-70v-504h-270v504h-154v270h154v627h473q166 0 282.5 -117t116.5 -283v-98q0 -113 -56 -206t-151 -144zM473 1130v-356h203q53 0 91 38t38 91v98q0 53 -38 91t-91 38h-203z" />
    <glyph glyph-name="uni0250" unicode="&#x250;" 
d="M655 1063q166 0 283 -117t117 -282v-283q0 -168 -116 -283.5t-284 -115.5h-6q-106 0 -196 57v-39h-271v1044h271v-38q90 57 196 57h6zM784 381v283q0 53 -37.5 91t-91.5 38h-73q-53 0 -91 -38t-38 -91v-283q0 -53 37.5 -91t91.5 -38h73q53 0 91 38t38 91z" />
    <glyph glyph-name="uni0251" unicode="&#x251;" 
d="M764 1044h270v-1044h-270v39q-90 -57 -197 -57h-6q-166 0 -282.5 116.5t-116.5 282.5v283q0 168 115.5 283.5t283.5 115.5h6q106 0 197 -57v38zM635 252q53 0 91 38t38 91v283q0 53 -38 91t-91 38h-74q-53 0 -91 -38t-38 -91v-283q0 -53 38 -91t91 -38h74z" />
    <glyph glyph-name="uni0252" unicode="&#x252;" 
d="M655 1063q168 0 284 -116t116 -283v-283q0 -166 -117 -282.5t-283 -116.5h-6q-106 0 -196 57v-39h-271v1044h271v-38q90 57 196 57h6zM784 381v283q0 53 -37.5 91t-91.5 38h-73q-53 0 -91 -38t-38 -91v-283q0 -53 37.5 -91t91.5 -38h73q53 0 91 38t38 91z" />
    <glyph glyph-name="uni0254" unicode="&#x254;" 
d="M1026 381q0 -166 -116.5 -282.5t-282.5 -116.5h-82q-137 0 -244.5 85t-142.5 218l260 75q10 -45 45 -76.5t82 -31.5h82q53 0 91 38t38 91v283q0 53 -38 91t-91 38h-82q-47 0 -82 -30t-45 -75l-260 74q35 131 141.5 216t245.5 85h82q166 0 282.5 -117t116.5 -282v-283z
" />
    <glyph glyph-name="uni0258" unicode="&#x258;" 
d="M639 1063q166 0 282.5 -117t116.5 -282v-283q0 -166 -116.5 -282.5t-282.5 -116.5h-90q-137 0 -242.5 84t-140.5 210l258 76q10 -43 45 -71.5t80 -28.5h90q53 0 91 38t38 91v29h-602v254q0 166 116.5 282.5t282.5 116.5h74zM768 633v31q0 53 -38 91t-91 38h-74
q-53 0 -91 -38t-38 -91v-31h332z" />
    <glyph glyph-name="uni0259" unicode="&#x259;" 
d="M639 -18h-74q-166 0 -282.5 116.5t-116.5 282.5v254h602v29q0 53 -38 91t-91 38h-90q-45 0 -80 -29t-45 -72l-258 76q35 127 140.5 211t242.5 84h90q166 0 282.5 -117t116.5 -282v-283q0 -166 -116.5 -282.5t-282.5 -116.5zM768 412h-332v-31q0 -53 38 -91t91 -38h74
q53 0 91 38t38 91v31z" />
    <glyph glyph-name="uni025B" unicode="&#x25b;" 
d="M737 252q57 0 68 57l260 -80q-31 -109 -122 -178t-206 -69h-202q-141 0 -240.5 100t-99.5 240q0 129 100 208q-88 82 -88 197q0 139 98 237.5t238 98.5h200q113 0 201 -67.5t121 -172.5l-260 -75q-14 45 -62 45h-200q-27 0 -46.5 -19.5t-19.5 -46.5t19.5 -46t46.5 -19
h215v-271h-223q-29 0 -49.5 -20.5t-20.5 -49t20.5 -49t49.5 -20.5h202z" />
    <glyph glyph-name="uni025C" unicode="&#x25c;" 
d="M922 530q100 -80 100 -208q0 -139 -99.5 -239.5t-240.5 -100.5h-203q-115 0 -206 69.5t-121 177.5l260 80q10 -57 67 -57h203q29 0 49.5 20.5t20.5 49t-20.5 49t-49.5 20.5h-223v271h215q27 0 46 19t19 46t-19.5 46.5t-45.5 19.5h-201q-47 0 -61 -45l-260 75
q33 104 120.5 172t200.5 68h201q139 0 237.5 -98.5t98.5 -237.5q0 -115 -88 -197z" />
    <glyph glyph-name="uni025E" unicode="&#x25e;" horiz-adv-x="1228" 
d="M977 530q100 -80 100 -208q0 -139 -99 -239.5t-241 -100.5h-202q-141 0 -240.5 100t-99.5 240v405q0 139 98 237.5t237 98.5h199q139 0 237.5 -98.5t98.5 -237.5q0 -115 -88 -197zM737 252q29 0 49.5 20.5t20.5 49t-20.5 49t-49.5 20.5h-135v271h127q29 0 47.5 19
t18.5 46t-19.5 46.5t-46.5 19.5h-199q-27 0 -46 -19.5t-19 -46.5v-405q0 -29 20.5 -49.5t49.5 -20.5h202z" />
    <glyph glyph-name="uni025F" unicode="&#x25f;" 
d="M987 498v-271h-121v-204q0 -166 -116.5 -282t-280.5 -116q-135 0 -241.5 81t-141.5 208l258 82q10 -43 45 -71.5t80 -28.5q51 0 89 37.5t38 89.5v204h-182v271h182v276h-387v270h657v-546h121z" />
    <glyph glyph-name="uni0261" unicode="&#x261;" 
d="M762 1044h270v-1019q0 -166 -115.5 -283t-281.5 -117h-80q-139 0 -247.5 85t-143.5 216l262 78q8 -47 44 -77.5t85 -30.5h80q51 0 89 37.5t38 91.5v96q-90 -57 -197 -58h-6q-166 0 -282.5 118t-116.5 282v201q0 166 116.5 282.5t282.5 116.5h6q106 0 197 -55v36zM633 334
q53 0 91 38t38 91v201q0 53 -38 91t-91 38h-74q-53 0 -91 -38t-38 -91v-201q0 -53 39 -91t90 -38h74z" />
    <glyph glyph-name="uni0263" unicode="&#x263;" 
d="M823 1044h271v-133q0 -170 -97 -317l-229 -363l94 -147q45 -72 45 -160q0 -123 -88 -211t-211 -88t-211 88t-88 211q0 86 47 160l93 147l-230 363q-96 147 -96 317v133h270v-131q0 -94 53 -172l164 -258l162 258q51 80 51 172v131zM633 -59l-25 39l-24 -39q-4 -8 -4 -17
q0 -29 28.5 -28.5t28.5 28.5q0 9 -4 17z" />
    <glyph glyph-name="uni0265" unicode="&#x265;" 
d="M1038 1044v-1400h-270v395q-90 -57 -197 -57h-6q-168 0 -283.5 115.5t-115.5 283.5v663h270v-663q0 -53 38 -91t91 -38h74q53 0 91 38t38 91v663h270z" />
    <glyph glyph-name="uni0268" unicode="&#x268;" horiz-adv-x="1228" 
d="M786 1530v-363h-270v363h270zM786 270h308v-270h-910v270h332v119h-151v270h151v115h-264v270h534v-385h152v-270h-152v-119z" />
    <glyph glyph-name="uni0269" unicode="&#x269;" 
d="M84 774v270h614v-684q0 -45 32 -76.5t77 -31.5q41 0 70.5 25.5t35.5 66.5l261 -80q-33 -123 -134.5 -202.5t-232.5 -79.5q-156 0 -267.5 111.5t-111.5 266.5v414h-344z" />
    <glyph glyph-name="uni026B" unicode="&#x26b;" 
d="M932 352l258 -80q-35 -127 -141.5 -208.5t-241.5 -81.5q-164 0 -280.5 117.5t-116.5 279.5v244q-25 -6 -25 -31v-43h-270v43q0 123 86 210t209 91v237h-308v271h578v-590q16 6 16 27v43h271v-43q0 -121 -83 -208t-204 -93v-158q0 -51 37 -89t90 -38q45 0 81 28.5t44 71.5
z" />
    <glyph glyph-name="uni026E" unicode="&#x26e;" horiz-adv-x="1228" 
d="M866 508q86 -55 137.5 -145.5t51.5 -194.5v-123q0 -164 -117 -281.5t-283 -117.5h-55v270h55q53 0 91 38t38 91v123q0 53 -37.5 91t-91.5 38h-73v270l129 207h-207v-774h-271v1401h271v-357h528v-270z" />
    <glyph glyph-name="uni026F" unicode="&#x26f;" 
d="M1143 1044v-1044h-271v51q-66 -70 -162 -69.5t-163 71.5q-82 -72 -195 -71q-119 0 -205 85t-86 205v772h271v-725q0 -29 20.5 -48t46.5 -19q29 0 48.5 19.5t19.5 47.5v725h270v-725q0 -29 20.5 -48t47.5 -19q29 0 48 19.5t19 47.5v725h271z" />
    <glyph glyph-name="uni0272" unicode="&#x272;" 
d="M651 1063q168 0 284 -116t116 -283v-664h-271v664q0 53 -37.5 91t-91.5 38h-73q-53 0 -91 -38t-38 -91v-725q0 -121 -86.5 -208t-208.5 -87h-80v272h82q23 0 22 23v1105h271v-38q90 57 196 57h6z" />
    <glyph glyph-name="uni0275" unicode="&#x275;" 
d="M645 1063q166 0 282.5 -117t116.5 -282v-283q0 -166 -116.5 -282.5t-282.5 -116.5h-74q-166 0 -282.5 116.5t-116.5 282.5v283q0 166 117 282.5t282 116.5h74zM571 793q-53 0 -91 -38t-38 -91v-7h332v7q0 53 -38 91t-91 38h-74zM645 252q53 0 91 38t38 91v6h-332v-6
q0 -53 38 -91t91 -38h74z" />
    <glyph glyph-name="uni0278" unicode="&#x278;" 
d="M743 1065q164 -4 278 -120t114 -279v-285q0 -164 -114 -279.5t-278 -119.5v-338h-270v338q-162 4 -276.5 119.5t-114.5 279.5v285q0 164 114.5 279.5t276.5 119.5v336h270v-336zM352 381q0 -51 35 -88t86 -41v543q-51 -4 -86 -41t-35 -88v-285zM864 381v285
q0 51 -34.5 88t-86.5 41v-543q51 4 86 41t35 88z" />
    <glyph glyph-name="uni0283" unicode="&#x283;" horiz-adv-x="1232" 
d="M209 -356v270h135q53 0 91 38t38 91v958q0 166 117 283t282 117h138v-271h-138q-53 0 -91 -37.5t-38 -91.5v-958q0 -166 -116.5 -282.5t-282.5 -116.5h-135z" />
    <glyph glyph-name="uni0289" unicode="&#x289;" 
d="M1198 788v-270h-154v-137q0 -166 -116.5 -282.5t-282.5 -116.5h-74q-166 0 -282.5 116.5t-116.5 282.5v137h-154v270h154v256h270v-256h332v256h270v-256h154zM774 381v137h-332v-137q0 -53 38 -91t91 -38h74q53 0 91 38t38 91z" />
    <glyph glyph-name="uni028C" unicode="&#x28c;" 
d="M123 0v129q0 160 72 320l264 593l299 2l264 -595q72 -160 72 -320v-129h-271v129q0 102 -49 209l-166 373l-166 -373q-49 -106 -49 -209v-129h-270z" />
    <glyph glyph-name="uni028D" unicode="&#x28d;" 
d="M84 131q0 147 33 293l135 620h254l102 -516l103 516h254l135 -620q35 -145 35 -293v-131h-271v131q0 109 -26 236l-47 251l-84 -440h-197l-84 440l-47 -251q-25 -127 -25 -236v-131h-270v131z" />
    <glyph glyph-name="uni028E" unicode="&#x28e;" 
d="M1090 0h-271v131q0 92 -51 184l-164 295l-166 -295q-49 -84 -49 -184v-131h-270v131q0 170 84 318l424 757q55 92 144 143.5t190 51.5h182v-271h-182q-27 0 -50.5 -14t-34 -25.5t-14.5 -19.5l-102 -184l246 -438q84 -147 84 -318v-131z" />
    <glyph glyph-name="uni0292" unicode="&#x292;" 
d="M723 471q141 -25 234.5 -135.5t93.5 -257.5v-35q0 -166 -117 -282.5t-283 -116.5h-440v270h440q53 0 91 38t38 91v35q0 53 -37.5 91t-91.5 38h-301v270l297 297h-434v270h819v-270z" />
    <glyph glyph-name="uni0298" unicode="&#x298;" horiz-adv-x="1232" 
d="M559 1419h98q166 0 283 -116.5t117 -282.5v-639q0 -166 -117 -282.5t-283 -116.5h-98q-166 0 -282.5 116.5t-116.5 282.5v639q0 166 116.5 282.5t282.5 116.5zM559 1149q-53 0 -91 -38t-38 -91v-639q0 -53 38 -91t91 -38h98q53 0 91 38t38 91v639q0 53 -37.5 91t-91.5 38
h-98zM473 883h270v-357h-270v357z" />
    <glyph glyph-name="uni029D" unicode="&#x29d;" horiz-adv-x="1228" 
d="M606 1178v362h271v-362h-271zM1100 98h-223v-102q0 -154 -107.5 -262.5t-263.5 -108.5q-154 0 -262.5 108.5t-108.5 262.5q0 156 108.5 264.5t262.5 108.5h100v405h-387v270h658v-675h223v-271zM606 98h-100q-41 0 -70.5 -30.5t-29.5 -71.5t29.5 -70.5t70.5 -29.5
t70.5 29.5t29.5 70.5v102z" />
    <glyph glyph-name="circumflex" unicode="&#x2c6;" 
d="M229 1278l267 266h225l266 -266l-190 -193l-189 189l-186 -189z" />
    <glyph glyph-name="caron" unicode="&#x2c7;" 
d="M229 1446l193 192l186 -188l189 188l190 -192l-266 -266h-225z" />
    <glyph glyph-name="breve" unicode="&#x2d8;" 
d="M295 1493h270q0 -18 13.5 -30.5t29.5 -12.5q18 0 30.5 12.5t12.5 30.5h271q0 -129 -91.5 -221t-222.5 -92q-129 0 -221 92t-92 221z" />
    <glyph glyph-name="dotaccent" unicode="&#x2d9;" 
d="M473 1180v362h270v-362h-270z" />
    <glyph glyph-name="ring" unicode="&#x2da;" 
d="M295 1493q0 129 92 221t221 92q131 0 222.5 -92t91.5 -221t-91.5 -221t-222.5 -92q-129 0 -221 92t-92 221zM565 1493q0 -18 13.5 -30.5t29.5 -12.5q18 0 30.5 12.5t12.5 30.5t-12 30.5t-31 12.5q-16 0 -29.5 -12.5t-13.5 -30.5z" />
    <glyph glyph-name="ogonek" unicode="&#x2db;" 
d="M465 0h270v-61q0 -23 23 -23h82v-272h-80q-123 0 -209 87t-86 208v61z" />
    <glyph glyph-name="tilde" unicode="&#x2dc;" 
d="M182 1204v43q0 125 88 213t213 88q70 0 148 -37q16 -8 41.5 -21t39 -20.5t21.5 -7.5q31 0 31 31v43h270v-43q0 -125 -88 -213t-213 -88q-72 0 -147 35q-98 51 -103 51q-31 0 -30 -31v-43h-271z" />
    <glyph glyph-name="hungarumlaut" unicode="&#x2dd;" 
d="M270 1155l-194 195l348 348l194 -195zM791 1155l-195 195l348 348l195 -195z" />
    <glyph glyph-name="gravecomb" unicode="&#x300;" horiz-adv-x="0" 
d="M348 1155l-348 348l195 195l348 -348z" />
    <glyph glyph-name="acutecomb" unicode="&#x301;" horiz-adv-x="0" 
d="M195 1155l-195 195l348 348l195 -195z" />
    <glyph glyph-name="uni0302" unicode="&#x302;" horiz-adv-x="0" 
d="M0 1278l266 266h226l266 -266l-191 -193l-188 189l-186 -189z" />
    <glyph glyph-name="tildecomb" unicode="&#x303;" horiz-adv-x="0" 
d="M0 1204v43q0 125 88 213t213 88q70 0 148 -37q16 -8 41.5 -21t39 -20.5t21.5 -7.5q31 0 31 31v43h270v-43q0 -125 -88 -213t-213 -88q-72 0 -148 35q-98 51 -102 51q-31 0 -31 -31v-43h-270z" />
    <glyph glyph-name="uni0304" unicode="&#x304;" horiz-adv-x="0" 
d="M0 1180v270h639v-270h-639z" />
    <glyph glyph-name="uni0306" unicode="&#x306;" horiz-adv-x="0" 
d="M0 1493h270q0 -18 13.5 -30.5t29.5 -12.5q18 0 30.5 12.5t12.5 30.5h271q0 -129 -91.5 -221t-222.5 -92q-129 0 -221 92t-92 221z" />
    <glyph glyph-name="uni0307" unicode="&#x307;" horiz-adv-x="0" 
d="M0 1180v362h270v-362h-270z" />
    <glyph glyph-name="uni0308" unicode="&#x308;" horiz-adv-x="0" 
d="M0 1180v362h270v-362h-270zM442 1180v362h271v-362h-271z" />
    <glyph glyph-name="hookabovecomb" unicode="&#x309;" horiz-adv-x="0" 
d="M371 1376q0 -131 -95 -221l-190 191q14 10 14 30q0 18 -13 30.5t-30 12.5h-57v271h57q131 0 222.5 -91.5t91.5 -222.5z" />
    <glyph glyph-name="uni030A" unicode="&#x30a;" horiz-adv-x="0" 
d="M0 1493q0 129 92 221t221 92q131 0 222.5 -92t91.5 -221t-91.5 -221t-222.5 -92q-129 0 -221 92t-92 221zM270 1493q0 -18 13.5 -30.5t29.5 -12.5q18 0 30.5 12.5t12.5 30.5t-12 30.5t-31 12.5q-16 0 -29.5 -12.5t-13.5 -30.5z" />
    <glyph glyph-name="uni030B" unicode="&#x30b;" horiz-adv-x="0" 
d="M195 1155l-195 195l348 348l195 -195zM715 1155l-195 195l348 348l195 -195z" />
    <glyph glyph-name="uni030C" unicode="&#x30c;" horiz-adv-x="0" 
d="M0 1446l193 192l186 -188l188 188l191 -192l-266 -266h-226z" />
    <glyph glyph-name="uni0312" unicode="&#x312;" horiz-adv-x="0" 
d="M434 1182h-434v266q0 162 99.5 287t252.5 161l76 -260q-68 -10 -113 -63t-45 -121h164v-270z" />
    <glyph glyph-name="uni031B" unicode="&#x31b;" horiz-adv-x="0" 
d="M0 647v271h45q18 0 30.5 12t12.5 31v83h270v-83q0 -129 -91 -221.5t-222 -92.5h-45z" />
    <glyph glyph-name="dotbelowcomb" unicode="&#x323;" horiz-adv-x="0" 
d="M0 -498v363h270v-363h-270z" />
    <glyph glyph-name="uni0326" unicode="&#x326;" horiz-adv-x="0" 
d="M0 -135h434v-266q0 -162 -99 -287t-253 -162l-76 260q68 10 113 63.5t45 120.5h-164v271z" />
    <glyph glyph-name="uni0327" unicode="&#x327;" horiz-adv-x="0" 
d="M270 -88q72 -41 116 -113.5t44 -158.5q0 -129 -92 -221.5t-221 -92.5h-117v271h117q18 0 30.5 13t12.5 30q0 18 -12.5 30.5t-30.5 12.5h-117v317h270v-88z" />
    <glyph glyph-name="uni0328" unicode="&#x328;" horiz-adv-x="0" 
d="M0 0h270v-61q0 -23 23 -23h82v-272h-80q-123 0 -209 87t-86 208v61z" />
    <glyph glyph-name="uni032C" unicode="&#x32c;" horiz-adv-x="0" 
d="M0 -281l193 193l186 -188l188 188l191 -193l-266 -266h-226z" />
    <glyph glyph-name="uni032D" unicode="&#x32d;" horiz-adv-x="0" 
d="M0 -371l266 267h226l266 -267l-191 -192l-188 188l-186 -188z" />
    <glyph glyph-name="uni0331" unicode="&#x331;" horiz-adv-x="0" 
d="M0 -406v271h639v-271h-639z" />
    <glyph glyph-name="uni0335" unicode="&#x335;" horiz-adv-x="0" 
d="M0 657h573v-270h-573v270z" />
    <glyph glyph-name="uni0336" unicode="&#x336;" horiz-adv-x="0" 
d="M0 657h612v-270h-612v270z" />
    <glyph glyph-name="uni0337" unicode="&#x337;" horiz-adv-x="0" 
d="M735 1194l230 -143l-736 -1198l-229 139z" />
    <glyph glyph-name="uni0338" unicode="&#x338;" horiz-adv-x="0" 
d="M930 1528l231 -139l-930 -1518l-231 143z" />
    <glyph glyph-name="tonos" unicode="&#x384;" 
d="M707 1145l-250 117l209 448l249 -119z" />
    <glyph glyph-name="dieresistonos" unicode="&#x385;" 
d="M705 1573l-250 117l209 448l249 -119zM250 1180v362h270v-362h-270zM692 1180v362h271v-362h-271z" />
    <glyph glyph-name="Alphatonos" unicode="&#x386;" 
d="M412 1356l-209 -447l-250 117l209 449zM1069 590l4 -21q6 -18 12.5 -50t12.5 -70.5t11 -89t5 -95.5v-264h-270v279h-436v-279h-271v264q0 74 11.5 156t19.5 121t12 49l176 629q25 88 99.5 144t169.5 56q92 0 166.5 -56t103.5 -144zM625 1149q-12 0 -13 -8l-161 -592h348
l-162 592q-2 8 -12 8z" />
    <glyph glyph-name="Epsilontonos" unicode="&#x388;" 
d="M1108 1130h-602v-294h541v-271h-541v-295h602v-270h-872v1331l-203 -434l-250 117l209 448l244 -116v55h872v-271z" />
    <glyph glyph-name="Etatonos" unicode="&#x389;" 
d="M807 1401h270v-1401h-270v565h-332v-565h-270v1331l-203 -434l-250 117l209 448l244 -116v55h270v-565h332v565z" />
    <glyph glyph-name="Iotatonos" unicode="&#x38a;" 
d="M14 889l-250 117l209 448l250 -119zM205 270h301v860h-283v271h836v-271h-283v-860h301v-270h-872v270z" />
    <glyph glyph-name="Omicrontonos" unicode="&#x38c;" 
d="M690 1419q166 0 283 -116.5t117 -282.5v-639q0 -166 -117 -282.5t-283 -116.5h-98q-166 0 -282.5 116.5t-116.5 282.5v639q0 49 12 96l-103 -217l-249 117l208 448l250 -118l-41 -91q117 164 322 164h98zM819 381v639q0 53 -38 91t-91 38h-98q-53 0 -91 -38t-38 -91v-639
q0 -53 38 -91t91 -38h98q53 0 91 38t38 91z" />
    <glyph glyph-name="Upsilontonos" unicode="&#x38e;" 
d="M856 1401h270v-289q0 -145 -96 -281l-254 -323v-508h-270v508l-254 323q-96 135 -96 281v227l-205 -438l-250 117l209 448l246 -116v51h270v-289q0 -27 10 -55.5t18.5 -42t12.5 -17.5l174 -223l174 223q4 4 12.5 17.5t18.5 42t10 55.5v289z" />
    <glyph glyph-name="Omegatonos" unicode="&#x38f;" 
d="M1032 270h76v-270h-418v270q53 0 91 38t38 91v621q0 53 -38 91t-91 38h-98q-53 0 -91 -38t-38 -91v-621q0 -51 39 -90t90 -39v-270h-418v270h76q-57 90 -57 197v553q0 49 12 98l-105 -223l-250 117l209 448l250 -119l-41 -86q121 164 324 164h98q166 0 283 -116.5
t117 -282.5v-553q-1 -107 -58 -197z" />
    <glyph glyph-name="iotadieresistonos" unicode="&#x390;" 
d="M662 1573l-250 117l209 448l249 -119zM207 1180v362h270v-362h-270zM649 1180v362h271v-362h-271zM84 774v270h614v-684q0 -45 32 -76.5t77 -31.5q41 0 70.5 25.5t35.5 66.5l261 -80q-33 -123 -134.5 -202.5t-232.5 -79.5q-156 0 -267.5 111.5t-111.5 266.5v414h-344z
" />
    <glyph glyph-name="Alpha" unicode="&#x391;" 
d="M1053 590l4 -21q6 -18 12 -50t12 -70.5t11.5 -89t5.5 -95.5v-264h-271v279h-436v-279h-270v264q0 74 11 156t19.5 121t12.5 49l176 629q25 88 99.5 144t168.5 56q92 0 167 -56t104 -144zM608 1149q-12 0 -12 -8l-162 -592h348l-161 592q-3 8 -13 8z" />
    <glyph glyph-name="Beta" unicode="&#x392;" 
d="M930 717q70 -43 110.5 -114t40.5 -154v-50q0 -166 -116.5 -282.5t-282.5 -116.5h-485v1401h473q166 0 282.5 -117t116.5 -283v-24q0 -168 -139 -260zM670 1130h-203v-282h203q53 0 91 38t38 91v24q0 53 -38 91t-91 38zM811 399v50q0 53 -38 91t-91 38h-215v-308h215
q53 0 91 38t38 91z" />
    <glyph glyph-name="Gamma" unicode="&#x393;" 
d="M221 0v1401h854v-271h-583v-1130h-271z" />
    <glyph glyph-name="Delta" unicode="&#x394;" 
d="M121 0v270l319 1131h336l322 -1131v-270h-977zM399 270h418l-209 799z" />
    <glyph glyph-name="Epsilon" unicode="&#x395;" 
d="M203 0v1401h872v-271h-602v-294h541v-271h-541v-295h602v-270h-872z" />
    <glyph glyph-name="Zeta" unicode="&#x396;" 
d="M182 1401h836v-271l-549 -860h567v-270h-872v270l551 860h-533v271z" />
    <glyph glyph-name="Eta" unicode="&#x397;" 
d="M774 1401h270v-1401h-270v565h-332v-565h-270v1401h270v-565h332v565z" />
    <glyph glyph-name="Theta" unicode="&#x398;" 
d="M559 -18q-166 0 -282.5 116.5t-116.5 282.5v639q0 166 116.5 282.5t282.5 116.5h98q166 0 283 -116.5t117 -282.5v-639q0 -166 -117 -282.5t-283 -116.5h-98zM559 252h98q53 0 91 38t38 91v639q0 53 -37.5 91t-91.5 38h-98q-53 0 -91 -38t-38 -91v-639q0 -53 38 -91
t91 -38zM471 561v270h277v-270h-277z" />
    <glyph glyph-name="Iota" unicode="&#x399;" 
d="M172 270h301v860h-283v271h836v-271h-283v-860h301v-270h-872v270z" />
    <glyph glyph-name="Kappa" unicode="&#x39a;" 
d="M184 1401h271v-559h55l262 282q63 70 64 150v127h270v-129q0 -27 -5 -65t-38 -119.5t-90 -145.5l-219 -235l231 -248q59 -63 94 -145.5t40 -120t5 -64.5v-129h-270v127q0 76 -63 145l-279 299h-57v-571h-271v1401z" />
    <glyph glyph-name="Lambda" unicode="&#x39b;" 
d="M121 0v264q0 74 11 156t19.5 121t12.5 49l176 629q25 88 99.5 144t168.5 56q92 0 167 -56t104 -144l174 -629l4 -21q6 -18 12 -50t12 -70.5t11.5 -89t5.5 -95.5v-264h-271v295q0 92 -41 240l-165 606q-2 8 -13 8q-12 0 -12 -8l-166 -606q-39 -139 -39 -240v-295h-270z
" />
    <glyph glyph-name="Mu" unicode="&#x39c;" 
d="M111 0v1401h327l170 -664l170 664h328v-1401h-270v934l-121 -492h-211l-123 492v-934h-270z" />
    <glyph glyph-name="Nu" unicode="&#x39d;" 
d="M123 1401h338l362 -907v907h271v-1401h-338l-363 907v-907h-270v1401z" />
    <glyph glyph-name="Xi" unicode="&#x39e;" 
d="M172 1401h872v-271h-872v271zM195 836h827v-271h-827v271zM172 270h872v-270h-872v270z" />
    <glyph glyph-name="Omicron" unicode="&#x39f;" 
d="M559 -18q-166 0 -282.5 116.5t-116.5 282.5v639q0 166 116.5 282.5t282.5 116.5h98q166 0 283 -116.5t117 -282.5v-639q0 -166 -117 -282.5t-283 -116.5h-98zM559 252h98q53 0 91 38t38 91v639q0 53 -37.5 91t-91.5 38h-98q-53 0 -91 -38t-38 -91v-639q0 -53 38 -91
t91 -38z" />
    <glyph glyph-name="Pi" unicode="&#x3a0;" 
d="M172 0v1401h872v-1401h-270v1130h-332v-1130h-270z" />
    <glyph glyph-name="Rho" unicode="&#x3a1;" 
d="M221 0v1401h473q166 0 283 -117t117 -283v-131q0 -166 -117 -282.5t-283 -116.5h-202v-471h-271zM492 741h202q53 0 91 38t38 91v131q0 53 -37.5 91t-91.5 38h-202v-389z" />
    <glyph glyph-name="Sigma" unicode="&#x3a3;" 
d="M186 1401h871v-271h-553l256 -430l-273 -430h588v-270h-909v270l276 430l-256 430v271z" />
    <glyph glyph-name="Tau" unicode="&#x3a4;" 
d="M147 1401h922v-271h-326v-1130h-270v1130h-326v271z" />
    <glyph glyph-name="Upsilon" unicode="&#x3a5;" 
d="M1094 1112q0 -145 -97 -281l-254 -323v-508h-270v508l-254 323q-96 135 -96 281v289h270v-289q0 -27 10.5 -55.5t18.5 -42t12 -17.5l174 -223l174 223q4 4 12.5 17.5t18.5 42t10 55.5v289h271v-289z" />
    <glyph glyph-name="Phi" unicode="&#x3a6;" 
d="M743 1237q164 -4 278 -120t114 -279v-275q0 -164 -114 -279.5t-278 -119.5v-164h-270v164q-162 4 -276.5 119.5t-114.5 279.5v275q0 164 114.5 279.5t276.5 119.5v164h270v-164zM352 563q0 -51 35 -88t86 -41v533q-51 -4 -86 -41t-35 -88v-275zM864 563v275
q0 51 -34.5 88t-86.5 41v-533q51 4 86 41t35 88z" />
    <glyph glyph-name="Chi" unicode="&#x3a7;" 
d="M135 1401h271v-127q0 -88 67 -176l135 -166l135 166q68 88 68 176v127h270v-129q0 -180 -125 -340l-180 -227l223 -289q12 -14 32 -46t44.5 -104.5t24.5 -144.5v-121h-271v121q0 31 -11 63.5t-20.5 48t-13.5 19.5l-176 225l-176 -225q-4 -4 -13 -20.5t-20.5 -48
t-11.5 -62.5v-121h-270v121q0 72 24.5 144.5t44 104t31.5 46.5l223 289l-180 227q-125 160 -125 340v129z" />
    <glyph glyph-name="Psi" unicode="&#x3a8;" 
d="M866 1401h271v-664q0 -164 -115 -279.5t-279 -119.5v-338h-270v338q-164 4 -278.5 119.5t-114.5 279.5v664h270v-664q0 -51 36 -89t87 -40v793h270v-793q51 2 87 40t36 89v664z" />
    <glyph glyph-name="Omega" unicode="&#x3a9;" 
d="M999 270h76v-270h-418v270q53 0 91 38t38 91v621q0 53 -37.5 91t-91.5 38h-98q-53 0 -91 -38t-38 -91v-621q0 -51 39 -90t90 -39v-270h-418v270h76q-57 90 -57 197v553q0 166 116.5 282.5t282.5 116.5h98q166 0 283 -116.5t117 -282.5v-553q-1 -107 -58 -197z" />
    <glyph glyph-name="Iotadieresis" unicode="&#x3aa;" 
d="M252 1524v362h270v-362h-270zM694 1524v362h271v-362h-271zM172 270h301v860h-283v271h836v-271h-283v-860h301v-270h-872v270z" />
    <glyph glyph-name="Upsilondieresis" unicode="&#x3ab;" 
d="M252 1524v362h270v-362h-270zM694 1524v362h271v-362h-271zM1094 1112q0 -145 -97 -281l-254 -323v-508h-270v508l-254 323q-96 135 -96 281v289h270v-289q0 -27 10.5 -55.5t18.5 -42t12 -17.5l174 -223l174 223q4 4 12.5 17.5t18.5 42t10 55.5v289h271v-289z" />
    <glyph glyph-name="alphatonos" unicode="&#x3ac;" 
d="M915 1591l-208 -446l-250 117l209 448zM1022 270h84v-270h-82q-131 0 -221 100q-109 -119 -271 -118h-6q-166 0 -282.5 116.5t-116.5 282.5v283q0 166 116.5 282.5t282.5 116.5h6q106 0 197 -57v38h270v-751q0 -8 7.5 -15.5t15.5 -7.5zM600 252q53 0 91 38t38 91v283
q0 53 -38 91t-91 38h-74q-53 0 -91 -38t-38 -91v-283q0 -53 38 -91t91 -38h74z" />
    <glyph glyph-name="epsilontonos" unicode="&#x3ad;" 
d="M915 1591l-208 -446l-250 117l209 448zM737 252q57 0 68 57l260 -80q-31 -109 -122 -178t-206 -69h-202q-141 0 -240.5 100t-99.5 240q0 129 100 208q-88 82 -88 197q0 139 98 237.5t238 98.5h200q113 0 201 -67.5t121 -172.5l-260 -75q-14 45 -62 45h-200
q-27 0 -46.5 -19.5t-19.5 -46.5t19.5 -46t46.5 -19h215v-271h-223q-29 0 -49.5 -20.5t-20.5 -49t20.5 -49t49.5 -20.5h202z" />
    <glyph glyph-name="etatonos" unicode="&#x3ae;" 
d="M915 1591l-208 -446l-250 117l209 448zM655 1063q168 0 284 -116t116 -283v-1020h-271v1020q0 53 -37.5 91t-91.5 38h-73q-53 0 -91 -38t-38 -91v-664h-271v752q0 23 -22 22h-84v270h82q131 0 221 -100q109 119 270 119h6z" />
    <glyph glyph-name="iotatonos" unicode="&#x3af;" 
d="M662 1145l-250 117l209 448l249 -119zM84 774v270h614v-684q0 -45 32 -76.5t77 -31.5q41 0 70.5 25.5t35.5 66.5l261 -80q-33 -123 -134.5 -202.5t-232.5 -79.5q-156 0 -267.5 111.5t-111.5 266.5v414h-344z" />
    <glyph glyph-name="upsilondieresistonos" unicode="&#x3b0;" 
d="M713 1573l-250 117l209 448l250 -119zM258 1180v362h270v-362h-270zM700 1180v362h271v-362h-271zM178 1044h271v-663q0 -53 37.5 -91t91.5 -38h73q53 0 91 38t38 91v274q0 49 -29.5 85t-74.5 44l74 260q131 -35 216 -142t85 -247v-274q0 -168 -117 -283.5t-283 -115.5
h-73q-166 0 -283 115.5t-117 283.5v663z" />
    <glyph glyph-name="alpha" unicode="&#x3b1;" 
d="M1022 270h84v-270h-82q-131 0 -221 100q-109 -119 -271 -118h-6q-166 0 -282.5 116.5t-116.5 282.5v283q0 166 116.5 282.5t282.5 116.5h6q106 0 197 -57v38h270v-751q0 -8 7.5 -15.5t15.5 -7.5zM600 252q53 0 91 38t38 91v283q0 53 -38 91t-91 38h-74q-53 0 -91 -38
t-38 -91v-283q0 -53 38 -91t91 -38h74z" />
    <glyph glyph-name="beta" unicode="&#x3b2;" 
d="M936 735q70 -41 110.5 -112.5t40.5 -155.5v-86q0 -166 -116.5 -282.5t-282.5 -116.5h-6q-106 0 -197 57v-395h-270v1376q0 166 118 282.5t281 116.5h62q166 0 282.5 -116.5t116.5 -282.5v-25q0 -168 -139 -260zM817 381v86q0 53 -38 91t-91 38h-88v270h76q53 0 91 38
t38 91v25q0 53 -38 91t-91 38h-62q-53 0 -91 -38t-38 -91v-639q0 -53 38 -91t91 -38h74q53 0 91 38t38 91z" />
    <glyph glyph-name="gamma" unicode="&#x3b3;" 
d="M1094 913q0 -166 -84 -317l-267 -475v-477h-270v477l-266 475q-84 147 -84 317v131h270v-131v-4q0 -6 1 -17t3 -23.5t6.5 -31t9.5 -35t13 -37t18 -36.5l164 -295l166 295q8 16 16.5 36.5t13.5 37t9 34t5 31t3 24.5t2 17v4v131h271v-131z" />
    <glyph glyph-name="delta" unicode="&#x3b4;" 
d="M1055 504v-2v-121q0 -166 -117 -282.5t-283 -116.5h-73q-164 0 -282 116.5t-118 282.5v94q0 201 166 309q-141 104 -141 277q0 141 99.5 240.5t240.5 99.5h373v-271h-373q-29 0 -49.5 -20t-20.5 -49q0 -43 39 -62l279 -122l28 -13q78 -37 140 -106q90 -109 92 -250v-2v-2
zM784 381v121q0 53 -37.5 91t-91.5 38h-73q-53 0 -91 -38t-38 -91v-121q0 -53 37.5 -91t91.5 -38h73q53 0 91 38t38 91z" />
    <glyph glyph-name="epsilon" unicode="&#x3b5;" 
d="M737 252q57 0 68 57l260 -80q-31 -109 -122 -178t-206 -69h-202q-141 0 -240.5 100t-99.5 240q0 129 100 208q-88 82 -88 197q0 139 98 237.5t238 98.5h200q113 0 201 -67.5t121 -172.5l-260 -75q-14 45 -62 45h-200q-27 0 -46.5 -19.5t-19.5 -46.5t19.5 -46t46.5 -19
h215v-271h-223q-29 0 -49.5 -20.5t-20.5 -49t20.5 -49t49.5 -20.5h202z" />
    <glyph glyph-name="zeta" unicode="&#x3b6;" 
d="M158 399q0 168 86 260l446 471h-489v271h852v-271l-592 -634q-33 -35 -33 -97q0 -53 38 -91t91 -38h227q121 0 208 -86t87 -209v-331h-270v333q0 23 -23 23h-229q-166 -2 -282.5 114.5t-116.5 284.5z" />
    <glyph glyph-name="eta" unicode="&#x3b7;" 
d="M655 1063q168 0 284 -116t116 -283v-1020h-271v1020q0 53 -37.5 91t-91.5 38h-73q-53 0 -91 -38t-38 -91v-664h-271v752q0 23 -22 22h-84v270h82q131 0 221 -100q109 119 270 119h6z" />
    <glyph glyph-name="theta" unicode="&#x3b8;" 
d="M657 1419q166 0 283 -116.5t117 -282.5v-639q0 -166 -117 -282.5t-283 -116.5h-98q-166 0 -282.5 116.5t-116.5 282.5v639q0 166 116.5 282.5t282.5 116.5h98zM559 1149q-53 0 -91 -38t-38 -91v-184h356v184q0 53 -37.5 91t-91.5 38h-98zM657 252q53 0 91 38t38 91v184
h-356v-184q0 -53 38 -91t91 -38h98z" />
    <glyph glyph-name="iota" unicode="&#x3b9;" 
d="M84 774v270h614v-684q0 -45 32 -76.5t77 -31.5q41 0 70.5 25.5t35.5 66.5l261 -80q-33 -123 -134.5 -202.5t-232.5 -79.5q-156 0 -267.5 111.5t-111.5 266.5v414h-344z" />
    <glyph glyph-name="kappa" unicode="&#x3ba;" 
d="M203 1044h270v-393h98l168 144q27 23 43.5 53.5t20.5 48.5l2 18v129h270v-129q0 -29 -5 -66.5t-45 -119.5t-110 -139l-81 -72l118 -98q20 -16 46 -44t61 -101.5t35 -153.5v-121h-271v121q0 23 -10 44t-19.5 32.5t-13.5 13.5l-205 170h-102v-381h-270v1044z" />
    <glyph glyph-name="lambda" unicode="&#x3bb;" 
d="M160 1130v271h170q113 0 205 -59.5t143 -165.5l391 -889q6 -16 18 -17h82v-270h-77q-90 0 -162 48t-107 126l-225 504l-152 -338q-47 -109 -47 -211v-129h-270v129q0 154 72 317l252 568l-25 51q-16 39 -34.5 52t-63.5 13h-170z" />
    <glyph glyph-name="mu" unicode="&#x3bc;" 
d="M1042 270h84v-270h-82q-137 0 -227 106q-82 -125 -231 -124h-4q-88 0 -164 53v-391h-271v1400h271v-663q0 -53 38 -91t91 -38h74q53 0 91 38t38 91v663h270v-751q0 -8 7 -15.5t15 -7.5z" />
    <glyph glyph-name="nu" unicode="&#x3bd;" 
d="M123 1044h270v-129q0 -102 49 -208l166 -373l166 373q49 106 49 208v129h271v-129q0 -160 -72 -319l-264 -596l-299 2l-264 594q-72 160 -72 319v129z" />
    <glyph glyph-name="xi" unicode="&#x3be;" 
d="M784 270q121 0 208 -87t87 -208v-331h-270v333q0 23 -23 23h-172q-164 0 -281.5 118t-117.5 281v50q0 84 41 154.5t111 113.5q-139 92 -140 260v24q0 166 118 283t282 117h344v-271h-344q-53 0 -91 -37.5t-38 -91.5v-24q0 -53 37.5 -91t91.5 -38h227v-270h-240
q-53 0 -91 -38t-38 -91v-50q0 -53 38 -91t91 -38h170z" />
    <glyph glyph-name="omicron" unicode="&#x3bf;" 
d="M571 1063h74q166 0 282.5 -117t116.5 -282v-283q0 -166 -116.5 -282.5t-282.5 -116.5h-74q-166 0 -282.5 116.5t-116.5 282.5v283q0 166 116.5 282.5t282.5 116.5zM571 793q-53 0 -91 -38t-38 -91v-283q0 -53 38 -91t91 -38h74q53 0 91 38t38 91v283q0 53 -38 91t-91 38
h-74z" />
    <glyph glyph-name="pi" unicode="&#x3c0;" 
d="M1155 774h-190v-481q0 -23 22 -23h84v-270h-82q-121 0 -208 86t-87 209v479h-184v-774h-270v774h-191v270h1106v-270z" />
    <glyph glyph-name="rho" unicode="&#x3c1;" 
d="M653 1063q166 0 283 -117t117 -282v-283q0 -166 -117 -282.5t-283 -116.5h-6q-106 0 -196 57v-395h-271v1020q0 166 117 282.5t283 116.5h73zM782 381v283q0 53 -37.5 91t-91.5 38h-73q-53 0 -91 -38t-38 -91v-283q0 -53 37.5 -91t91.5 -38h73q53 0 91 38t38 91z" />
    <glyph glyph-name="sigma1" unicode="&#x3c2;" 
d="M182 399v265q0 166 117 282.5t283 116.5h73q166 0 283 -118t117 -281h-271q0 53 -37.5 91t-91.5 38h-73q-53 0 -91 -38t-38 -91v-265q0 -53 37.5 -91t91.5 -38h178q123 0 209 -87t86 -208v-331h-271v333q0 23 -22 23h-180q-166 0 -283 116.5t-117 282.5z" />
    <glyph glyph-name="sigma" unicode="&#x3c3;" 
d="M1130 1044v-270h-155q57 -90 57 -196v-197q0 -164 -116.5 -281.5t-282.5 -117.5h-74q-164 0 -281.5 117.5t-117.5 281.5v264q0 166 117.5 282.5t281.5 116.5h571zM762 381v264q0 53 -38 91t-91 38h-74q-53 0 -91 -38t-38 -91v-264q0 -53 38 -91t91 -38h74q53 0 91 38
t38 91z" />
    <glyph glyph-name="tau" unicode="&#x3c4;" 
d="M1059 774h-332v-481q0 -23 23 -23h112v-270h-110q-123 0 -209 87t-86 208v479h-307v270h909v-270z" />
    <glyph glyph-name="upsilon" unicode="&#x3c5;" 
d="M178 1044h271v-663q0 -53 37.5 -91t91.5 -38h73q53 0 91 38t38 91v274q0 49 -29.5 85t-74.5 44l74 260q131 -35 216 -142t85 -247v-274q0 -168 -117 -283.5t-283 -115.5h-73q-166 0 -283 115.5t-117 283.5v663z" />
    <glyph glyph-name="phi" unicode="&#x3c6;" 
d="M743 1065q164 -4 278 -120t114 -279v-285q0 -164 -114 -279.5t-278 -119.5v-338h-270v338q-162 4 -276.5 119.5t-114.5 279.5v285q0 164 114.5 279.5t276.5 119.5v336h270v-336zM352 381q0 -51 35 -88t86 -41v543q-51 -4 -86 -41t-35 -88v-285zM864 381v285
q0 51 -34.5 88t-86.5 41v-543q51 4 86 41t35 88z" />
    <glyph glyph-name="chi" unicode="&#x3c7;" 
d="M135 1044h271v-126q0 -88 67 -177l135 -166l135 166q68 88 68 177v126h270v-129q0 -180 -125 -340l-180 -227l223 -289q12 -14 32 -45.5t44.5 -104.5t24.5 -145v-120h-271v120q0 31 -11 64t-20.5 48t-13.5 20l-176 225l-176 -225q-4 -4 -13 -20.5t-20.5 -48.5t-11.5 -63
v-120h-270v120q0 72 24.5 145t44 104.5t31.5 45.5l223 289l-180 227q-125 160 -125 340v129z" />
    <glyph glyph-name="psi" unicode="&#x3c8;" 
d="M866 1044h271v-663q0 -164 -115 -279.5t-279 -119.5v-338h-270v338q-164 4 -278.5 119.5t-114.5 279.5v663h270v-663q0 -51 36 -89t87 -40v1149h270v-1149q51 2 87 40t36 89v663z" />
    <glyph glyph-name="omega" unicode="&#x3c9;" 
d="M932 1044q102 -33 167.5 -120.5t65.5 -198.5v-395q0 -143 -102 -245.5t-246 -102.5q-125 0 -209 96q-80 -96 -207 -96q-143 0 -245.5 102t-102.5 246v395q0 111 65.5 199t168.5 120l75 -258q-39 -20 -38 -61v-397q0 -31 21.5 -53.5t52 -22.5t53 22.5t22.5 53.5v395h270
v-395q0 -31 22.5 -53.5t53.5 -22.5t53.5 22.5t22.5 53.5v397q0 41 -39 61z" />
    <glyph glyph-name="iotadieresis" unicode="&#x3ca;" 
d="M207 1167v363h270v-363h-270zM649 1167v363h271v-363h-271zM84 774v270h614v-684q0 -45 32 -76.5t77 -31.5q41 0 70.5 25.5t35.5 66.5l261 -80q-33 -123 -134.5 -202.5t-232.5 -79.5q-156 0 -267.5 111.5t-111.5 266.5v414h-344z" />
    <glyph glyph-name="upsilondieresis" unicode="&#x3cb;" 
d="M258 1167v363h270v-363h-270zM700 1167v363h271v-363h-271zM178 1044h271v-663q0 -53 37.5 -91t91.5 -38h73q53 0 91 38t38 91v274q0 49 -29.5 85t-74.5 44l74 260q131 -35 216 -142t85 -247v-274q0 -168 -117 -283.5t-283 -115.5h-73q-166 0 -283 115.5t-117 283.5v663z
" />
    <glyph glyph-name="omicrontonos" unicode="&#x3cc;" 
d="M707 1145l-250 117l209 448l249 -119zM571 1063h74q166 0 282.5 -117t116.5 -282v-283q0 -166 -116.5 -282.5t-282.5 -116.5h-74q-166 0 -282.5 116.5t-116.5 282.5v283q0 166 116.5 282.5t282.5 116.5zM571 793q-53 0 -91 -38t-38 -91v-283q0 -53 38 -91t91 -38h74
q53 0 91 38t38 91v283q0 53 -38 91t-91 38h-74z" />
    <glyph glyph-name="upsilontonos" unicode="&#x3cd;" 
d="M713 1145l-250 117l209 448l250 -119zM178 1044h271v-663q0 -53 37.5 -91t91.5 -38h73q53 0 91 38t38 91v274q0 49 -29.5 85t-74.5 44l74 260q131 -35 216 -142t85 -247v-274q0 -168 -117 -283.5t-283 -115.5h-73q-166 0 -283 115.5t-117 283.5v663z" />
    <glyph glyph-name="omegatonos" unicode="&#x3ce;" 
d="M915 1591l-208 -446l-250 117l209 448zM932 1044q102 -33 167.5 -120.5t65.5 -198.5v-395q0 -143 -102 -245.5t-246 -102.5q-125 0 -209 96q-80 -96 -207 -96q-143 0 -245.5 102t-102.5 246v395q0 111 65.5 199t168.5 120l75 -258q-39 -20 -38 -61v-397q0 -31 21.5 -53.5
t52 -22.5t53 22.5t22.5 53.5v395h270v-395q0 -31 22.5 -53.5t53.5 -22.5t53.5 22.5t22.5 53.5v397q0 41 -39 61z" />
    <glyph glyph-name="afii10023" unicode="&#x401;" 
d="M283 1524v362h270v-362h-270zM725 1524v362h270v-362h-270zM203 0v1401h872v-271h-602v-294h541v-271h-541v-295h602v-270h-872z" />
    <glyph glyph-name="afii10051" unicode="&#x402;" 
d="M698 940q168 0 284 -115.5t116 -283.5v-142q0 -166 -117 -282.5t-283 -116.5h-73v270h73q53 0 91 38t38 91v142q0 53 -37.5 91t-91.5 38h-73q-53 0 -91 -38t-38 -91v-541h-271v1130h-239v271h862v-271h-352v-247q90 57 196 57h6z" />
    <glyph glyph-name="afii10052" unicode="&#x403;" 
d="M662 1511l-195 195l348 348l195 -194zM221 0v1401h854v-271h-583v-1130h-271z" />
    <glyph glyph-name="afii10053" unicode="&#x404;" 
d="M668 252q47 0 83.5 31.5t45.5 76.5l258 -75q-33 -133 -140.5 -218t-246.5 -85h-99q-164 0 -281.5 117.5t-117.5 281.5v639q0 166 118 282.5t281 116.5h99q139 0 246.5 -85t140.5 -216l-258 -78q-8 47 -45 78t-84 31h-99q-53 0 -91 -38t-38 -91v-184h346v-271h-346v-184
q0 -53 38 -91t91 -38h99z" />
    <glyph glyph-name="afii10054" unicode="&#x405;" 
d="M127 283l258 77q8 -47 44 -77.5t83 -30.5h143q53 0 91 38t38 91q0 119 -145 174l-162 61q-319 129 -319 404q0 166 117.5 282.5t281.5 116.5h100q137 0 246 -85t141 -216l-262 -74q-8 45 -42.5 75t-82.5 30h-100q-53 0 -91 -38t-38 -91q0 -31 7 -51.5t43 -48t104 -54.5
l161 -63q145 -57 228.5 -167t83.5 -255q0 -166 -117 -282.5t-283 -116.5h-143q-137 0 -244.5 85t-140.5 216z" />
    <glyph glyph-name="afii10055" unicode="&#x406;" 
d="M172 270h301v860h-283v271h836v-271h-283v-860h301v-270h-872v270z" />
    <glyph glyph-name="afii10056" unicode="&#x407;" 
d="M252 1524v362h270v-362h-270zM694 1524v362h271v-362h-271zM172 270h301v860h-283v271h836v-271h-283v-860h301v-270h-872v270z" />
    <glyph glyph-name="afii10057" unicode="&#x408;" 
d="M215 1401h799v-1020q0 -166 -117 -282.5t-283 -116.5h-88q-139 0 -246.5 85t-140.5 216l260 75q8 -45 44 -75.5t83 -30.5h88q53 0 91 38t38 91v749h-528v271z" />
    <glyph glyph-name="afii10058" unicode="&#x409;" 
d="M805 924q166 0 282.5 -117t116.5 -283v-125q0 -166 -116.5 -282.5t-282.5 -116.5h-266v1130h-99v-835q0 -121 -87 -208t-208 -87h-116v270h118q8 0 15.5 8.5t7.5 16.5v1106h639v-477h-4zM934 399v125q0 53 -37 90t-88 39v-383q51 2 88 39t37 90z" />
    <glyph glyph-name="afii10059" unicode="&#x40a;" 
d="M801 874q166 0 282.5 -116.5t116.5 -282.5v-76q0 -166 -116.5 -282.5t-282.5 -116.5h-266v604h-107v-604h-270v1401h270v-527h107v527h270v-527h-4zM930 399v76q0 53 -37 90t-88 39v-334q51 2 88 39t37 90z" />
    <glyph glyph-name="afii10060" unicode="&#x40b;" 
d="M680 940q168 0 283.5 -115.5t115.5 -283.5v-541h-270v541q0 53 -38 91t-91 38h-74q-53 0 -91 -38t-38 -91v-541h-270v1130h-238v271h862v-271h-354v-247q90 57 197 57h6z" />
    <glyph glyph-name="afii10061" unicode="&#x40c;" 
d="M608 1511l-194 195l348 348l194 -194zM184 1401h271v-559h55l262 282q63 70 64 150v127h270v-129q0 -27 -5 -65t-38 -119.5t-90 -145.5l-219 -235l231 -248q59 -63 94 -145.5t40 -120t5 -64.5v-129h-270v127q0 76 -63 145l-279 299h-57v-571h-271v1401z" />
    <glyph glyph-name="afii10062" unicode="&#x40e;" 
d="M295 1831h270q0 -18 13.5 -30.5t29.5 -12.5q18 0 30.5 12t12.5 31h271q0 -129 -91.5 -221t-222.5 -92q-129 0 -221 92t-92 221zM143 0v270h197q63 0 102 72l21 45l-252 563q-72 162 -72 322v129h271v-129q0 -102 47 -211l151 -336l152 336q49 109 49 211v129h270v-129
q0 -160 -73 -322l-312 -704q-119 -246 -354 -246h-197z" />
    <glyph glyph-name="afii10145" unicode="&#x40f;" 
d="M1044 1401v-1401h-294v-356h-271v356h-307v1401h270v-1131h332v1131h270z" />
    <glyph glyph-name="afii10017" unicode="&#x410;" 
d="M1053 590l4 -21q6 -18 12 -50t12 -70.5t11.5 -89t5.5 -95.5v-264h-271v279h-436v-279h-270v264q0 74 11 156t19.5 121t12.5 49l176 629q25 88 99.5 144t168.5 56q92 0 167 -56t104 -144zM608 1149q-12 0 -12 -8l-162 -592h348l-161 592q-3 8 -13 8z" />
    <glyph glyph-name="afii10018" unicode="&#x411;" 
d="M694 930q166 0 283 -117t117 -283v-131q0 -166 -117 -282.5t-283 -116.5h-473v1401h768v-271h-497v-200h202zM823 399v131q0 53 -37.5 91t-91.5 38h-202v-389h202q53 0 91 38t38 91z" />
    <glyph glyph-name="afii10019" unicode="&#x412;" 
d="M930 717q70 -43 110.5 -114t40.5 -154v-50q0 -166 -116.5 -282.5t-282.5 -116.5h-485v1401h473q166 0 282.5 -117t116.5 -283v-24q0 -168 -139 -260zM670 1130h-203v-282h203q53 0 91 38t38 91v24q0 53 -38 91t-91 38zM811 399v50q0 53 -38 91t-91 38h-215v-308h215
q53 0 91 38t38 91z" />
    <glyph glyph-name="afii10020" unicode="&#x413;" 
d="M221 0v1401h854v-271h-583v-1130h-271z" />
    <glyph glyph-name="afii10021" unicode="&#x414;" 
d="M86 -356v626h137l15 52q12 51 27.5 149t15.5 197v733h706v-1131h123v-626h-270v356h-484v-356h-270zM502 270h215v860h-166v-462q0 -82 -10.5 -163t-23.5 -154t-15 -81z" />
    <glyph glyph-name="afii10022" unicode="&#x415;" 
d="M203 0v1401h872v-271h-602v-294h541v-271h-541v-295h602v-270h-872z" />
    <glyph glyph-name="afii10024" unicode="&#x416;" 
d="M1075 459q76 -160 76 -326v-133h-270v133q0 102 -50 205l-88 180v-518h-270v518l-84 -180q-53 -102 -53 -205v-133h-270v133q0 166 79 326l121 248l-114 237q-78 160 -78 326v131h270v-131q0 -104 49 -207l80 -166v504h270v-504l80 166q49 100 49 207v131h271v-131
q0 -166 -74 -326l-115 -237z" />
    <glyph glyph-name="afii10025" unicode="&#x417;" 
d="M858 717q70 -43 111 -114t41 -154v-68q0 -164 -117 -281.5t-283 -117.5h-106q-139 0 -245.5 85t-141.5 218l260 73q8 -47 43 -76.5t84 -29.5h106q53 0 91 38t38 91v68q0 51 -37.5 90t-91.5 39h-209v270h197q53 0 91 38t38 91v43q0 53 -38 91t-91 38h-94q-49 0 -84 -31
t-43 -78l-260 78q35 131 142.5 216t244.5 85h94q166 0 282.5 -115.5t116.5 -283.5v-43q0 -166 -139 -260z" />
    <glyph glyph-name="afii10026" unicode="&#x418;" 
d="M1094 1401v-1401h-271v907l-362 -907h-338v1401h270v-907l363 907h338z" />
    <glyph glyph-name="afii10027" unicode="&#x419;" 
d="M295 1831h270q0 -18 13.5 -30.5t29.5 -12.5q18 0 30.5 12t12.5 31h271q0 -129 -91.5 -221t-222.5 -92q-129 0 -221 92t-92 221zM1094 1401v-1401h-271v907l-362 -907h-338v1401h270v-907l363 907h338z" />
    <glyph glyph-name="afii10028" unicode="&#x41a;" 
d="M184 1401h271v-559h55l262 282q63 70 64 150v127h270v-129q0 -27 -5 -65t-38 -119.5t-90 -145.5l-219 -235l231 -248q59 -63 94 -145.5t40 -120t5 -64.5v-129h-270v127q0 76 -63 145l-279 299h-57v-571h-271v1401z" />
    <glyph glyph-name="afii10029" unicode="&#x41b;" 
d="M45 0v270h119q23 0 22 23v1108h865v-1401h-271v1130h-323v-835q0 -121 -87 -208t-208 -87h-117z" />
    <glyph glyph-name="afii10030" unicode="&#x41c;" 
d="M111 0v1401h327l170 -664l170 664h328v-1401h-270v934l-121 -492h-211l-123 492v-934h-270z" />
    <glyph glyph-name="afii10031" unicode="&#x41d;" 
d="M774 1401h270v-1401h-270v565h-332v-565h-270v1401h270v-565h332v565z" />
    <glyph glyph-name="afii10032" unicode="&#x41e;" 
d="M559 -18q-166 0 -282.5 116.5t-116.5 282.5v639q0 166 116.5 282.5t282.5 116.5h98q166 0 283 -116.5t117 -282.5v-639q0 -166 -117 -282.5t-283 -116.5h-98zM559 252h98q53 0 91 38t38 91v639q0 53 -37.5 91t-91.5 38h-98q-53 0 -91 -38t-38 -91v-639q0 -53 38 -91
t91 -38z" />
    <glyph glyph-name="afii10033" unicode="&#x41f;" 
d="M172 1401h872v-1401h-270v1130h-332v-1130h-270v1401z" />
    <glyph glyph-name="afii10034" unicode="&#x420;" 
d="M221 0v1401h473q166 0 283 -117t117 -283v-131q0 -166 -117 -282.5t-283 -116.5h-202v-471h-271zM492 741h202q53 0 91 38t38 91v131q0 53 -37.5 91t-91.5 38h-202v-389z" />
    <glyph glyph-name="afii10035" unicode="&#x421;" 
d="M1055 1118l-258 -78q-8 47 -45 78t-84 31h-99q-53 0 -91 -38t-38 -91v-639q0 -53 38 -91t91 -38h99q47 0 83.5 31.5t45.5 76.5l258 -75q-33 -133 -140.5 -218t-246.5 -85h-99q-164 0 -281.5 117.5t-117.5 281.5v639q0 166 118 282.5t281 116.5h99q139 0 246.5 -85
t140.5 -216z" />
    <glyph glyph-name="afii10036" unicode="&#x422;" 
d="M147 1401h922v-271h-326v-1130h-270v1130h-326v271z" />
    <glyph glyph-name="afii10037" unicode="&#x423;" 
d="M143 0v270h197q63 0 102 72l21 45l-252 563q-72 162 -72 322v129h271v-129q0 -102 47 -211l151 -336l152 336q49 109 49 211v129h270v-129q0 -160 -73 -322l-312 -704q-119 -246 -354 -246h-197z" />
    <glyph glyph-name="afii10038" unicode="&#x424;" 
d="M743 1237q164 -4 278 -120t114 -279v-275q0 -164 -114 -279.5t-278 -119.5v-164h-270v164q-162 4 -276.5 119.5t-114.5 279.5v275q0 164 114.5 279.5t276.5 119.5v164h270v-164zM352 563q0 -51 35 -88t86 -41v533q-51 -4 -86 -41t-35 -88v-275zM864 563v275
q0 51 -34.5 88t-86.5 41v-533q51 4 86 41t35 88z" />
    <glyph glyph-name="afii10039" unicode="&#x425;" 
d="M135 1401h271v-127q0 -88 67 -176l135 -166l135 166q68 88 68 176v127h270v-129q0 -180 -125 -340l-180 -227l223 -289q12 -14 32 -46t44.5 -104.5t24.5 -144.5v-121h-271v121q0 31 -11 63.5t-20.5 48t-13.5 19.5l-176 225l-176 -225q-4 -4 -13 -20.5t-20.5 -48
t-11.5 -62.5v-121h-270v121q0 72 24.5 144.5t44 104t31.5 46.5l223 289l-180 227q-125 160 -125 340v129z" />
    <glyph glyph-name="afii10040" unicode="&#x426;" 
d="M172 0v1401h270v-1131h332v1131h270v-1401h-872z" />
    <glyph glyph-name="afii10041" unicode="&#x427;" 
d="M1022 1401v-1401h-270v518q-90 -57 -197 -57h-6q-168 0 -283.5 115.5t-115.5 283.5v541h270v-541q0 -53 38 -91t91 -38h74q53 0 91 38t38 91v541h270z" />
    <glyph glyph-name="afii10042" unicode="&#x428;" 
d="M96 0v1401h271v-1131h106v1131h270v-1131h109v1131h270v-1401h-1026z" />
    <glyph glyph-name="afii10043" unicode="&#x429;" 
d="M1122 270h76v-626h-270v356h-832v1401h271v-1131h106v1131h270v-1131h109v1131h270v-1131z" />
    <glyph glyph-name="afii10044" unicode="&#x42a;" 
d="M702 930q166 0 283 -117t117 -283v-131q0 -166 -117 -282.5t-283 -116.5h-473v1130h-239v271h510v-471h202zM831 399v131q0 53 -37.5 91t-91.5 38h-202v-389h202q53 0 91 38t38 91z" />
    <glyph glyph-name="afii10045" unicode="&#x42b;" 
d="M367 924q164 0 281.5 -117t117.5 -283v-125q0 -166 -118 -282.5t-281 -116.5h-267v1401h271v-477h-4zM848 1401h270v-1401h-270v1401zM496 399v125q0 53 -37 90t-88 39v-383q51 2 88 39t37 90z" />
    <glyph glyph-name="afii10046" unicode="&#x42c;" 
d="M221 1401h271v-471h202q166 0 283 -117t117 -283v-131q0 -166 -117 -282.5t-283 -116.5h-473v1401zM492 659v-389h202q53 0 91 38t38 91v131q0 53 -37.5 91t-91.5 38h-202z" />
    <glyph glyph-name="afii10047" unicode="&#x42d;" 
d="M647 1419q164 0 282 -116.5t118 -282.5v-639q0 -164 -118 -281.5t-282 -117.5h-98q-139 0 -246.5 85t-140.5 218l258 75q8 -45 45 -76.5t84 -31.5h98q53 0 91 38t38 91v184h-346v271h346v184q0 53 -38 91t-91 38h-98q-47 0 -84 -31t-45 -78l-258 78q33 131 140.5 216
t246.5 85h98z" />
    <glyph glyph-name="afii10048" unicode="&#x42e;" 
d="M815 1419q141 0 240.5 -100t99.5 -240v-755q0 -141 -99.5 -241.5t-240.5 -100.5q-143 0 -242.5 100t-99.5 242v241h-117v-565h-270v1401h270v-565h117v243q0 141 99.5 240.5t242.5 99.5zM885 324v755q0 27 -20.5 48.5t-49.5 21.5t-50.5 -20.5t-21.5 -49.5v-755
q0 -29 21.5 -50.5t50.5 -21.5t49.5 21.5t20.5 50.5z" />
    <glyph glyph-name="afii10049" unicode="&#x42f;" 
d="M553 1401h473v-1401h-270v504h-70l-217 -230q-25 -27 -44 -69.5t-19 -75.5v-129h-271v129q0 84 37 173t98 157l90 94q-94 51 -150 144.5t-56 205.5v98q0 166 116.5 283t282.5 117zM424 1001v-98q0 -53 38 -91t91 -38h203v356h-203q-53 0 -91 -38t-38 -91z" />
    <glyph glyph-name="afii10065" unicode="&#x430;" 
d="M764 1044h270v-1044h-270v39q-90 -57 -197 -57h-6q-166 0 -282.5 116.5t-116.5 282.5v283q0 168 115.5 283.5t283.5 115.5h6q106 0 197 -57v38zM635 252q53 0 91 38t38 91v283q0 53 -38 91t-91 38h-74q-53 0 -91 -38t-38 -91v-283q0 -53 38 -91t91 -38h74z" />
    <glyph glyph-name="afii10066" unicode="&#x431;" 
d="M647 1063q166 0 283 -117t117 -282v-283q0 -164 -117 -281.5t-283 -117.5h-74q-166 0 -282.5 117.5t-116.5 281.5v758q2 164 118 279.5t281 115.5h156q23 0 23 22v84h270v-79q0 -123 -87 -210t-208 -87h-154q-53 0 -91 -38t-38 -91v-129q90 57 197 57h6zM776 381v283
q0 53 -38 91t-91 38h-74q-53 0 -91 -38t-38 -91v-283q0 -53 38 -91t91 -38h74q53 0 91 38t38 91z" />
    <glyph glyph-name="afii10067" unicode="&#x432;" 
d="M971 535q92 -80 92 -205q0 -135 -96.5 -232.5t-233.5 -97.5h-530v1044h514q137 0 232 -95t95 -232q1 -104 -73 -182zM473 774v-115h244q25 0 41 16.5t16 41.5q0 23 -16.5 40t-40.5 17h-244zM733 270q25 0 42.5 17.5t17.5 42t-17.5 42t-42.5 17.5h-260v-119h260z" />
    <glyph glyph-name="afii10068" unicode="&#x433;" 
d="M221 0v1044h842v-270h-571v-774h-271z" />
    <glyph glyph-name="afii10069" unicode="&#x434;" 
d="M102 -356v626h138l14 49q12 49 27.5 149.5t15.5 199.5v376h682v-774h123v-626h-271v356h-458v-356h-271zM518 270h191v504h-142v-94q0 -84 -10 -168t-23.5 -159t-15.5 -83z" />
    <glyph glyph-name="afii10070" unicode="&#x435;" 
d="M578 1063h73q166 0 283 -117t117 -282v-254h-602v-29q0 -53 37.5 -91t91.5 -38h90q45 0 79.5 28.5t45.5 71.5l258 -76q-35 -127 -140.5 -210.5t-242.5 -83.5h-90q-166 0 -283 116.5t-117 282.5v283q0 166 117 282.5t283 116.5zM449 633h331v31q0 53 -37.5 91t-91.5 38
h-73q-53 0 -91 -38t-38 -91v-31z" />
    <glyph glyph-name="afii10072" unicode="&#x436;" 
d="M1047 422q14 -16 33.5 -47t45 -103.5t25.5 -146.5v-125h-270v125q0 16 -3.5 31.5t-7.5 29t-10 25.5t-10 19.5t-8 13.5l-4 6l-95 115v-365h-270v362l-92 -112l-4 -6q-4 -6 -8 -13.5t-10.5 -19.5t-11.5 -25.5t-8 -29t-3 -31.5v-125h-270v125q0 152 104 297l80 96l-51 64
q-127 150 -127 331v131h270v-131q0 -84 64 -157l67 -82v370h270v-372l70 84q61 74 61 157v131h271v-131q0 -182 -125 -331l-53 -64z" />
    <glyph glyph-name="afii10073" unicode="&#x437;" 
d="M930 530q100 -80 100 -208q0 -139 -99.5 -239.5t-240.5 -100.5h-203q-115 0 -206 69.5t-119 177.5l258 80q14 -57 67 -57h203q29 0 49.5 20.5t20.5 49t-20.5 49t-49.5 20.5h-233v271h225q27 0 46.5 19t19.5 46t-19.5 46.5t-46.5 19.5h-201q-47 0 -61 -45l-260 75
q33 104 121 172t200 68h201q139 0 237.5 -98.5t98.5 -237.5q0 -119 -88 -197z" />
    <glyph glyph-name="afii10074" unicode="&#x438;" 
d="M123 0v1044h270v-675l355 675h346v-1044h-271v678l-354 -678h-346z" />
    <glyph glyph-name="afii10075" unicode="&#x439;" 
d="M295 1475h270q0 -18 13.5 -30.5t29.5 -12.5q18 0 30.5 12t12.5 31h271q0 -129 -91.5 -221.5t-222.5 -92.5q-129 0 -221 92.5t-92 221.5zM123 0v1044h270v-675l355 675h346v-1044h-271v678l-354 -678h-346z" />
    <glyph glyph-name="afii10076" unicode="&#x43a;" 
d="M203 1044h270v-393h98l168 144q27 23 43.5 53.5t20.5 48.5l2 18v129h270v-129q0 -29 -5 -66.5t-45 -119.5t-110 -139l-81 -72l118 -98q20 -16 46 -44t61 -101.5t35 -153.5v-121h-271v121q0 23 -10 44t-19.5 32.5t-13.5 13.5l-205 170h-102v-381h-270v1044z" />
    <glyph glyph-name="afii10077" unicode="&#x43b;" 
d="M45 0v270h119q23 0 22 23v751h865v-1044h-271v774h-323v-479q0 -121 -87 -208t-208 -87h-117z" />
    <glyph glyph-name="afii10078" unicode="&#x43c;" 
d="M111 0v1044h342l155 -636l156 636h342v-1044h-270v551l-117 -465h-221l-117 465v-551h-270z" />
    <glyph glyph-name="afii10079" unicode="&#x43d;" 
d="M172 1044h270v-403h332v403h270v-1044h-270v371h-332v-371h-270v1044z" />
    <glyph glyph-name="afii10080" unicode="&#x43e;" 
d="M571 1063h74q166 0 282.5 -117t116.5 -282v-283q0 -166 -116.5 -282.5t-282.5 -116.5h-74q-166 0 -282.5 116.5t-116.5 282.5v283q0 166 116.5 282.5t282.5 116.5zM571 793q-53 0 -91 -38t-38 -91v-283q0 -53 38 -91t91 -38h74q53 0 91 38t38 91v283q0 53 -38 91t-91 38
h-74z" />
    <glyph glyph-name="afii10081" unicode="&#x43f;" 
d="M172 1044h872v-1044h-270v774h-332v-774h-270v1044z" />
    <glyph glyph-name="afii10082" unicode="&#x440;" 
d="M657 1063q166 0 283 -117t117 -282v-283q0 -168 -116 -283.5t-284 -115.5h-6q-106 0 -196 57v-395h-271v1400h271v-38q90 57 196 57h6zM786 381v283q0 53 -37.5 91t-91.5 38h-73q-51 0 -90 -38t-39 -91v-283q0 -53 37.5 -91t91.5 -38h73q53 0 91 38t38 91z" />
    <glyph glyph-name="afii10083" unicode="&#x441;" 
d="M190 381v283q0 166 117 282.5t283 116.5h82q139 0 245.5 -85t141.5 -216l-260 -74q-10 45 -45 75t-82 30h-82q-53 0 -91 -38t-38 -91v-283q0 -53 38 -91t91 -38h82q47 0 81.5 31.5t45.5 76.5l260 -75q-35 -133 -142.5 -218t-244.5 -85h-82q-166 0 -283 116.5t-117 282.5z
" />
    <glyph glyph-name="afii10084" unicode="&#x442;" 
d="M160 1044h897v-270h-314v-774h-270v774h-313v270z" />
    <glyph glyph-name="afii10085" unicode="&#x443;" 
d="M127 1044h270v-131q0 -92 52 -184l163 -295l166 295q49 84 49 184v131h271v-131q0 -170 -84 -317l-424 -758q-55 -92 -144.5 -143t-189.5 -51h-182v270h182q27 0 50.5 14.5t33.5 25.5t14 19l103 185l-246 438q-84 147 -84 317v131z" />
    <glyph glyph-name="afii10086" unicode="&#x444;" 
d="M743 1065q164 -4 278 -120t114 -279v-285q0 -164 -114 -279.5t-278 -119.5v-338h-270v338q-162 4 -276.5 119.5t-114.5 279.5v285q0 164 114.5 279.5t276.5 119.5v336h270v-336zM352 381q0 -51 35 -88t86 -41v543q-51 -4 -86 -41t-35 -88v-285zM864 381v285
q0 51 -34.5 88t-86.5 41v-543q51 4 86 41t35 88z" />
    <glyph glyph-name="afii10087" unicode="&#x445;" 
d="M172 1044h270v-126q0 -66 66 -117l96 -74l105 78q43 33 54 50t11 60v129h270v-129q0 -92 -48 -180t-124 -145l-92 -70l135 -102q23 -16 48.5 -43t62.5 -100.5t37 -153.5v-121h-270v121q0 20 -10.5 40.5t-20.5 31.5l-10 10l-144 108l-143 -106q-41 -41 -41 -84v-121h-270
v121q0 61 19.5 118.5t48 94.5t48 56.5t31.5 27.5l129 100l-92 72q-72 57 -113 138t-47 120t-6 67v129z" />
    <glyph glyph-name="afii10088" unicode="&#x446;" 
d="M1044 270h115v-626h-270v356h-717v1044h270v-774h332v774h270v-774z" />
    <glyph glyph-name="afii10089" unicode="&#x447;" 
d="M1026 1044v-1044h-270v365q-90 -57 -197 -58h-6q-168 0 -283.5 116t-115.5 284v337h270v-337q0 -53 38 -91t91 -38h74q53 0 91 37.5t38 91.5v337h270z" />
    <glyph glyph-name="afii10090" unicode="&#x448;" 
d="M96 0v1044h271v-774h106v774h270v-774h109v774h270v-1044h-1026z" />
    <glyph glyph-name="afii10091" unicode="&#x449;" 
d="M1122 270h138v-626h-271v356h-893v1044h271v-774h106v774h270v-774h109v774h270v-774z" />
    <glyph glyph-name="afii10092" unicode="&#x44a;" 
d="M27 774v270h510v-245h141q166 0 282.5 -117t116.5 -283t-116.5 -282.5t-282.5 -116.5h-412v774h-239zM537 270h141q53 0 91 38t38 91.5t-38 91t-91 37.5h-141v-258z" />
    <glyph glyph-name="afii10093" unicode="&#x44b;" 
d="M96 0v1044h271v-352h55q143 0 244.5 -101.5t101.5 -244.5t-101.5 -244.5t-244.5 -101.5h-326zM852 0v1044h270v-1044h-270zM367 270h55q33 0 54.5 21.5t21.5 54.5q0 31 -21.5 53.5t-54.5 22.5h-55v-152z" />
    <glyph glyph-name="afii10094" unicode="&#x44c;" 
d="M227 0v1044h271v-245h202q166 0 283 -117t117 -283t-117 -282.5t-283 -116.5h-473zM498 270h202q53 0 91 38t38 91.5t-37.5 91t-91.5 37.5h-202v-258z" />
    <glyph glyph-name="afii10095" unicode="&#x44d;" 
d="M627 1063q166 0 282.5 -117t116.5 -282v-283q0 -166 -116.5 -282.5t-282.5 -116.5h-82q-137 0 -244.5 85t-142.5 218l260 75q10 -45 45 -76.5t82 -31.5h82q53 0 91 38t38 91v12h-287v271h287q0 53 -38 91t-91 38h-82q-47 0 -82 -30t-45 -75l-260 74q35 131 141.5 216
t245.5 85h82z" />
    <glyph glyph-name="afii10096" unicode="&#x44e;" 
d="M819 1063q139 2 239.5 -97.5t100.5 -242.5v-399q0 -141 -99 -242.5t-241 -99.5q-141 -2 -241.5 98t-100.5 244v63h-117v-387h-270v1044h270v-387h117v66q0 141 100.5 241.5t241.5 98.5zM889 324v399q0 27 -20.5 48.5t-49 21.5t-50 -20.5t-21.5 -49.5v-399
q0 -29 21.5 -50.5t50 -21.5t49 21.5t20.5 50.5z" />
    <glyph glyph-name="afii10097" unicode="&#x44f;" 
d="M524 1044h510v-1044h-270v319h-176l-144 -151q-27 -33 -26 -70v-98h-271v98q0 135 101 256l47 49q-133 106 -133 279q0 150 106 256t256 106zM764 590v184h-240q-39 0 -65.5 -26.5t-26.5 -65.5t26.5 -65.5t65.5 -26.5h240z" />
    <glyph glyph-name="afii10071" unicode="&#x451;" 
d="M258 1167v363h270v-363h-270zM700 1167v363h271v-363h-271zM578 1063h73q166 0 283 -117t117 -282v-254h-602v-29q0 -53 37.5 -91t91.5 -38h90q45 0 79.5 28.5t45.5 71.5l258 -76q-35 -127 -140.5 -210.5t-242.5 -83.5h-90q-166 0 -283 116.5t-117 282.5v283
q0 166 117 282.5t283 116.5zM449 633h331v31q0 53 -37.5 91t-91.5 38h-73q-53 0 -91 -38t-38 -91v-31z" />
    <glyph glyph-name="afii10099" unicode="&#x452;" 
d="M651 1063q168 0 284 -116t116 -283v-725q0 -121 -87 -208t-208 -87h-117v270h119q23 0 22 23v727q0 53 -37.5 91t-91.5 38h-73q-53 0 -91 -38t-38 -91v-664h-271v1147h-141v270h141v146h271v-146h227v-270h-227v-141q90 57 196 57h6z" />
    <glyph glyph-name="afii10100" unicode="&#x453;" 
d="M653 1155l-194 195l348 348l194 -195zM221 0v1044h842v-270h-571v-774h-271z" />
    <glyph glyph-name="afii10101" unicode="&#x454;" 
d="M672 252q47 0 81.5 31.5t45.5 76.5l260 -75q-35 -133 -142.5 -218t-244.5 -85h-82q-166 0 -283 116.5t-117 282.5v283q0 166 117 282.5t283 116.5h82q139 0 245.5 -85t141.5 -216l-260 -74q-10 45 -45 75t-82 30h-82q-53 0 -91 -38t-38 -91h287v-271h-287v-12
q0 -53 38 -91t91 -38h82z" />
    <glyph glyph-name="afii10102" unicode="&#x455;" 
d="M172 233l258 80q4 -27 21.5 -44t44.5 -17h217q27 0 45 18.5t18 44.5q0 70 -94 70l-160 14q-145 12 -237 105.5t-92 224.5q0 139 98 236.5t235 97.5h181q117 0 205.5 -70.5t117.5 -181.5l-258 -76q-4 25 -21.5 41.5t-43.5 16.5h-181q-27 0 -45 -17.5t-18 -46.5
q0 -53 86 -61l172 -15q139 -14 232.5 -107t93.5 -230.5t-97.5 -235.5t-236.5 -98h-217q-115 0 -205 71t-119 180z" />
    <glyph glyph-name="afii10103" unicode="&#x456;" 
d="M516 1167v363h270v-363h-270zM252 1044h534v-774h308v-270h-910v270h332v504h-264v270z" />
    <glyph glyph-name="afii10104" unicode="&#x457;" 
d="M295 1167v363h270v-363h-270zM737 1167v363h271v-363h-271zM252 1044h534v-774h308v-270h-910v270h332v504h-264v270z" />
    <glyph glyph-name="afii10105" unicode="&#x458;" 
d="M596 1167v363h270v-363h-270zM209 1044h657v-1021q0 -166 -116.5 -282t-280.5 -116q-135 0 -241.5 81t-141.5 208l258 82q10 -43 45 -71.5t80 -28.5q51 0 89 37.5t38 89.5v751h-387v270z" />
    <glyph glyph-name="afii10106" unicode="&#x459;" 
d="M39 0v270h84q23 0 22 23v751h639v-352h56q143 0 244.5 -101.5t101.5 -244.5t-101.5 -244.5t-244.5 -101.5h-326v774h-98v-479q0 -121 -87 -208t-208 -87h-82zM784 270h56q33 0 54 21.5t21 54.5q0 31 -21.5 53.5t-53.5 22.5h-56v-152z" />
    <glyph glyph-name="afii10107" unicode="&#x45a;" 
d="M129 0v1044h270v-352h107v352h270v-352h55q143 0 245 -101.5t102 -244.5t-101.5 -244.5t-245.5 -101.5h-325v422h-107v-422h-270zM776 270h55q33 0 54.5 21.5t21.5 54.5q0 31 -21.5 53.5t-54.5 22.5h-55v-152z" />
    <glyph glyph-name="afii10108" unicode="&#x45b;" 
d="M651 1063q168 0 284 -116t116 -283v-664h-271v664q0 53 -37.5 91t-91.5 38h-73q-53 0 -91 -38t-38 -91v-664h-271v1147h-141v270h141v146h271v-146h227v-270h-227v-141q90 57 196 57h6z" />
    <glyph glyph-name="afii10109" unicode="&#x45c;" 
d="M621 1155l-195 195l348 348l195 -195zM203 1044h270v-393h98l168 144q27 23 43.5 53.5t20.5 48.5l2 18v129h270v-129q0 -29 -5 -66.5t-45 -119.5t-110 -139l-81 -72l118 -98q20 -16 46 -44t61 -101.5t35 -153.5v-121h-271v121q0 23 -10 44t-19.5 32.5t-13.5 13.5
l-205 170h-102v-381h-270v1044z" />
    <glyph glyph-name="afii10110" unicode="&#x45e;" 
d="M295 1475h270q0 -18 13.5 -30.5t29.5 -12.5q18 0 30.5 12t12.5 31h271q0 -129 -91.5 -221.5t-222.5 -92.5q-129 0 -221 92.5t-92 221.5zM127 1044h270v-131q0 -92 52 -184l163 -295l166 295q49 84 49 184v131h271v-131q0 -170 -84 -317l-424 -758q-55 -92 -144.5 -143
t-189.5 -51h-182v270h182q27 0 50.5 14.5t33.5 25.5t14 19l103 185l-246 438q-84 147 -84 317v131z" />
    <glyph glyph-name="afii10193" unicode="&#x45f;" 
d="M1044 1044v-1044h-301v-356h-270v356h-301v1044h270v-774h332v774h270z" />
    <glyph glyph-name="afii10146" unicode="&#x462;" 
d="M698 930q166 0 283 -117t117 -283v-131q0 -166 -117 -282.5t-283 -116.5h-473v1130h-239v271h862v-271h-352v-200h202zM827 399v131q0 53 -37.5 91t-91.5 38h-202v-389h202q53 0 91 38t38 91z" />
    <glyph glyph-name="afii10194" unicode="&#x463;" 
d="M14 967v270h240v164h270v-164h353v-270h-353v-168h142q166 0 282.5 -117t116.5 -283t-117 -282.5t-282 -116.5h-412v967h-240zM524 270h142q53 0 91 38t38 91.5t-38 91t-91 37.5h-142v-258z" />
    <glyph glyph-name="afii10147" unicode="&#x472;" 
d="M657 1419q166 0 283 -116.5t117 -282.5v-639q0 -164 -117 -281.5t-283 -117.5h-98q-166 0 -282.5 117.5t-116.5 281.5v639q0 166 116.5 282.5t282.5 116.5h98zM559 1149q-51 0 -90 -38t-39 -91v-148q25 6 53 7q82 0 158 -45q18 -12 57 -29t45 -17q18 0 30.5 11.5
t12.5 23.5v197q0 53 -37.5 91t-91.5 38h-98zM657 252q53 0 91 38t38 91v147q-25 -6 -53 -6q-86 0 -158 45q-84 45 -102 45q-16 0 -29.5 -11t-13.5 -23v-197q0 -53 38 -91t91 -38h98z" />
    <glyph glyph-name="afii10195" unicode="&#x473;" 
d="M645 1063q166 0 282.5 -117t116.5 -282v-283q0 -164 -116.5 -281.5t-282.5 -117.5h-74q-166 0 -282.5 117.5t-116.5 281.5v283q0 166 117 282.5t282 116.5h74zM571 793q-43 0 -77.5 -27t-47.5 -68q12 2 37 2q82 0 158 -45q14 -10 53 -26.5t43 -16.5q14 0 25.5 9.5
t11.5 23.5v19q0 53 -38 91t-91 38h-74zM645 252q45 0 80 26.5t45 67.5q-12 -2 -37 -2q-86 0 -158 45q-82 43 -96 43q-12 0 -24.5 -10t-12.5 -23v-18q0 -53 38 -91t91 -38h74z" />
    <glyph glyph-name="afii10148" unicode="&#x474;" 
d="M1167 1401h80v-271h-80q-16 0 -22 -18l-361 -1112h-352l-258 805q-4 8 -15.5 45t-24.5 121t-13 168v262h270v-293q0 -111 45 -242l172 -557l277 877q31 94 107.5 154.5t174.5 60.5z" />
    <glyph glyph-name="afii10196" unicode="&#x475;" 
d="M117 915v129h270v-129q0 -98 51 -210l164 -373l242 538q35 78 107.5 126t160.5 48h80v-270h-82q-16 0 -23 -14l-335 -760h-299l-263 596q-73 161 -73 319z" />
    <glyph glyph-name="afii10050" unicode="&#x490;" 
d="M805 1579h270v-449h-583v-1130h-271v1401h584v178z" />
    <glyph glyph-name="afii10098" unicode="&#x491;" 
d="M793 1401h270v-627h-571v-774h-271v1044h572v357z" />
    <glyph glyph-name="uni0492" unicode="&#x492;" 
d="M1108 1130h-584v-335h447v-271h-447v-524h-270v524h-170v271h170v606h854v-271z" />
    <glyph glyph-name="uni0493" unicode="&#x493;" 
d="M1096 774h-572v-205h447v-270h-447v-299h-270v299h-170v270h170v475h842v-270z" />
    <glyph glyph-name="uni0496" unicode="&#x496;" 
d="M1137 270h94v-626h-270v356h-80v133q0 102 -50 205l-88 180v-518h-270v518l-84 -180q-53 -102 -53 -205v-133h-270v133q0 166 79 326l121 248l-114 237q-78 160 -78 326v131h270v-131q0 -104 49 -207l80 -166v504h270v-504l80 166q49 100 49 207v131h271v-131
q0 -166 -74 -326l-115 -237l121 -248q46 -99 62 -189z" />
    <glyph glyph-name="uni0497" unicode="&#x497;" 
d="M1126 270h105v-626h-270v356h-80v125q0 16 -3.5 31.5t-7.5 29t-10 25.5t-10 19.5t-8 13.5l-4 6l-95 115v-365h-270v362l-92 -112l-4 -6q-4 -6 -8 -13.5t-10.5 -19.5t-11.5 -25.5t-8 -29t-3 -31.5v-125h-270v125q0 152 104 297l80 96l-51 64q-127 150 -127 331v131h270
v-131q0 -84 64 -157l67 -82v370h270v-372l70 84q61 74 61 157v131h271v-131q0 -182 -125 -331l-53 -64l80 -96q52 -68 79 -152z" />
    <glyph glyph-name="uni0498" unicode="&#x498;" 
d="M858 717q70 -43 111 -114t41 -154v-68q0 -141 -89.5 -251t-224.5 -138v-80q72 -41 116 -113.5t44 -158.5q0 -129 -92 -221.5t-221 -92.5h-117v271h117q18 0 30.5 13t12.5 30q0 18 -12.5 30.5t-30.5 12.5h-117v307q-113 20 -197 100t-112 195l260 73q8 -47 43 -76.5
t84 -29.5h106q53 0 91 38t38 91v68q0 51 -37.5 90t-91.5 39h-209v270h197q53 0 91 38t38 91v43q0 53 -38 91t-91 38h-94q-49 0 -84 -31t-43 -78l-260 78q35 131 142.5 216t244.5 85h94q166 0 282.5 -115.5t116.5 -283.5v-43q0 -166 -139 -260z" />
    <glyph glyph-name="uni0499" unicode="&#x499;" 
d="M1030 322q0 -125 -82 -220.5t-205 -115.5v-74q72 -41 116 -113.5t44 -158.5q0 -129 -92 -221.5t-221 -92.5h-117v271h117q18 0 30.5 13t12.5 30q0 18 -12.5 30.5t-30.5 12.5h-117v299q-111 4 -197 73.5t-114 173.5l258 80q14 -57 67 -57h203q29 0 49.5 20.5t20.5 49
t-20.5 49t-49.5 20.5h-233v271h225q27 0 46.5 19t19.5 46t-19.5 46.5t-46.5 19.5h-201q-47 0 -61 -45l-260 75q33 104 121 172t200 68h201q139 0 237.5 -98.5t98.5 -237.5q0 -119 -88 -197q100 -79 100 -208z" />
    <glyph glyph-name="uni049A" unicode="&#x49a;" 
d="M1098 270h143v-626h-270v356h-117v127q0 76 -63 145l-279 299h-57v-571h-271v1401h271v-559h55l262 282q63 70 64 150v127h270v-129q0 -27 -5 -65t-38 -119.5t-90 -145.5l-219 -235l231 -248q74 -78 113 -189z" />
    <glyph glyph-name="uni049B" unicode="&#x49b;" 
d="M1063 270h147v-626h-270v356h-117v121q0 23 -10 44t-19.5 32.5t-13.5 13.5l-205 170h-102v-381h-270v1044h270v-393h98l168 144q27 23 43.5 53.5t20.5 48.5l2 18v129h270v-129q0 -29 -5 -66.5t-45 -119.5t-110 -139l-81 -72l118 -98q74 -62 111 -150z" />
    <glyph glyph-name="uni04A2" unicode="&#x4a2;" 
d="M1044 270h117v-626h-270v356h-117v565h-332v-565h-270v1401h270v-565h332v565h270v-1131z" />
    <glyph glyph-name="uni04A3" unicode="&#x4a3;" 
d="M1044 270h117v-626h-270v356h-117v371h-332v-371h-270v1044h270v-403h332v403h270v-774z" />
    <glyph glyph-name="uni04AA" unicode="&#x4aa;" 
d="M668 252q47 0 83.5 31.5t45.5 76.5l258 -75q-29 -113 -113 -194t-199 -103v-76q72 -41 116 -113.5t44 -158.5q0 -129 -92 -221.5t-221 -92.5h-117v271h117q18 0 30.5 13t12.5 30q0 18 -12.5 30.5t-30.5 12.5h-117v311q-131 33 -217 140.5t-86 246.5v639q0 166 118 282.5
t281 116.5h99q139 0 246.5 -85t140.5 -216l-258 -78q-8 47 -45 78t-84 31h-99q-53 0 -91 -38t-38 -91v-639q0 -53 38 -91t91 -38h99z" />
    <glyph glyph-name="uni04AB" unicode="&#x4ab;" 
d="M672 252q47 0 81.5 31.5t45.5 76.5l260 -75q-27 -109 -106 -187t-185 -104v-82q72 -41 116 -113.5t44 -158.5q0 -129 -92.5 -221.5t-221.5 -92.5h-116v271h116q18 0 30.5 13t12.5 30q0 18 -12 30.5t-31 12.5h-116v309q-133 31 -220.5 139.5t-87.5 249.5v283
q0 166 117 282.5t283 116.5h82q139 0 245.5 -85t141.5 -216l-260 -74q-10 45 -45 75t-82 30h-82q-53 0 -91 -38t-38 -91v-283q0 -53 38 -91t91 -38h82z" />
    <glyph glyph-name="uni04AC" unicode="&#x4ac;" 
d="M1069 1130h-326v-860h117v-626h-270v356h-117v1130h-326v271h922v-271z" />
    <glyph glyph-name="uni04AD" unicode="&#x4ad;" 
d="M1057 774h-314v-504h117v-626h-270v356h-117v774h-313v270h897v-270z" />
    <glyph glyph-name="uni04AE" unicode="&#x4ae;" 
d="M1094 1112q0 -145 -97 -281l-254 -323v-508h-270v508l-254 323q-96 135 -96 281v289h270v-289q0 -27 10.5 -55.5t18.5 -42t12 -17.5l174 -223l174 223q4 4 12.5 17.5t18.5 42t10 55.5v289h271v-289z" />
    <glyph glyph-name="uni04AF" unicode="&#x4af;" 
d="M1094 913q0 -166 -84 -317l-267 -475v-477h-270v477l-266 475q-84 147 -84 317v131h270v-131v-4q0 -6 1 -17t3 -23.5t6.5 -31t9.5 -35t13 -37t18 -36.5l164 -295l166 295q8 16 16.5 36.5t13.5 37t9 34t5 31t3 24.5t2 17v4v131h271v-131z" />
    <glyph glyph-name="uni04B0" unicode="&#x4b0;" 
d="M1094 1112q0 -145 -97 -281l-145 -184h215v-270h-324v-377h-270v377h-323v270h215l-146 184q-96 135 -96 281v289h270v-289q0 -27 10.5 -55.5t18.5 -42t12 -17.5l174 -223l174 223q4 4 12.5 17.5t18.5 42t10 55.5v289h271v-289z" />
    <glyph glyph-name="uni04B1" unicode="&#x4b1;" 
d="M1094 913q0 -166 -84 -317l-115 -205h170v-270h-322v-477h-270v477h-323v270h172l-115 205q-84 147 -84 317v131h270v-131v-4q0 -6 1 -17t3 -23.5t6.5 -31t9.5 -35t13 -37t18 -36.5l164 -295l166 295q8 16 16.5 36.5t13.5 37t9 34t5 31t3 24.5t2 17v4v131h271v-131z" />
    <glyph glyph-name="uni04B2" unicode="&#x4b2;" 
d="M1075 270h142v-626h-271v356h-117v121q0 31 -11 63.5t-20.5 48t-13.5 19.5l-176 225l-176 -225q-4 -4 -13 -20.5t-20.5 -48t-11.5 -62.5v-121h-270v121q0 72 24.5 144.5t44 104t31.5 46.5l223 289l-180 227q-125 160 -125 340v129h271v-127q0 -88 67 -176l135 -166
l135 166q68 88 68 176v127h270v-129q0 -180 -125 -340l-180 -227l223 -289q47 -62 76 -146z" />
    <glyph glyph-name="uni04B3" unicode="&#x4b3;" 
d="M1030 270h150v-626h-271v356h-116v121q0 20 -10.5 40.5t-20.5 31.5l-10 10l-144 108l-143 -106q-41 -41 -41 -84v-121h-270v121q0 61 19.5 118.5t48 94.5t48 56.5t31.5 27.5l129 100l-92 72q-72 57 -113 138t-47 120t-6 67v129h270v-126q0 -66 66 -117l96 -74l105 78
q43 33 54 50t11 60v129h270v-129q0 -92 -48 -180t-124 -145l-92 -70l135 -102q76 -62 115 -148z" />
    <glyph glyph-name="uni04B6" unicode="&#x4b6;" 
d="M1022 270h117v-626h-271v356h-116v518q-90 -57 -197 -57h-6q-168 0 -283.5 115.5t-115.5 283.5v541h270v-541q0 -53 38 -91t91 -38h74q53 0 91 38t38 91v541h270v-1131z" />
    <glyph glyph-name="uni04B7" unicode="&#x4b7;" 
d="M1026 270h117v-626h-271v356h-116v365q-90 -57 -197 -58h-6q-168 0 -283.5 116t-115.5 284v337h270v-337q0 -53 38 -91t91 -38h74q53 0 91 37.5t38 91.5v337h270v-774z" />
    <glyph glyph-name="uni04BA" unicode="&#x4ba;" 
d="M668 940q168 0 283.5 -115.5t115.5 -283.5v-541h-270v541q0 53 -38 91t-91 38h-74q-53 0 -91 -38t-38 -91v-541h-270v1401h270v-518q90 57 197 57h6z" />
    <glyph glyph-name="uni04BB" unicode="&#x4bb;" 
d="M651 1063q168 0 284 -116t116 -283v-664h-271v664q0 53 -37.5 91t-91.5 38h-73q-53 0 -91 -38t-38 -91v-664h-271v1401h271v-395q90 57 196 57h6z" />
    <glyph glyph-name="uni04C0" unicode="&#x4c0;" 
d="M172 270h301v860h-283v271h836v-271h-283v-860h301v-270h-872v270z" />
    <glyph glyph-name="uni04C1" unicode="&#x4c1;" 
d="M608 1518q-129 0 -221 92t-92 221h270q0 -18 13.5 -30.5t29.5 -12.5q18 0 30.5 12t12.5 31h271q0 -129 -91.5 -221t-222.5 -92zM1075 459q76 -160 76 -326v-133h-270v133q0 102 -50 205l-88 180v-518h-270v518l-84 -180q-53 -102 -53 -205v-133h-270v133q0 166 79 326
l121 248l-114 237q-78 160 -78 326v131h270v-131q0 -104 49 -207l80 -166v504h270v-504l80 166q49 100 49 207v131h271v-131q0 -166 -74 -326l-115 -237z" />
    <glyph glyph-name="uni04C2" unicode="&#x4c2;" 
d="M608 1161q-129 0 -221 92.5t-92 221.5h270q0 -18 13.5 -30.5t29.5 -12.5q18 0 30.5 12t12.5 31h271q0 -129 -91.5 -221.5t-222.5 -92.5zM1047 422q14 -16 33.5 -47t45 -103.5t25.5 -146.5v-125h-270v125q0 16 -3.5 31.5t-7.5 29t-10 25.5t-10 19.5t-8 13.5l-4 6l-95 115
v-365h-270v362l-92 -112l-4 -6q-4 -6 -8 -13.5t-10.5 -19.5t-11.5 -25.5t-8 -29t-3 -31.5v-125h-270v125q0 152 104 297l80 96l-51 64q-127 150 -127 331v131h270v-131q0 -84 64 -157l67 -82v370h270v-372l70 84q61 74 61 157v131h271v-131q0 -182 -125 -331l-53 -64z" />
    <glyph glyph-name="uni04CB" unicode="&#x4cb;" 
d="M1022 270h117v-626h-271v356h-116v518q-90 -57 -197 -57h-6q-168 0 -283.5 115.5t-115.5 283.5v541h270v-541q0 -53 38 -91t91 -38h74q53 0 91 38t38 91v541h270v-1131z" />
    <glyph glyph-name="uni04CC" unicode="&#x4cc;" 
d="M1026 270h117v-626h-271v356h-116v365q-90 -57 -197 -58h-6q-168 0 -283.5 116t-115.5 284v337h270v-337q0 -53 38 -91t91 -38h74q53 0 91 37.5t38 91.5v337h270v-774z" />
    <glyph glyph-name="uni04CF" unicode="&#x4cf;" 
d="M172 270h301v860h-283v271h836v-271h-283v-860h301v-270h-872v270z" />
    <glyph glyph-name="uni04D0" unicode="&#x4d0;" 
d="M608 1518q-129 0 -221 92t-92 221h270q0 -18 13.5 -30.5t29.5 -12.5q18 0 30.5 12t12.5 31h271q0 -129 -91.5 -221t-222.5 -92zM1053 590l4 -21q6 -18 12 -50t12 -70.5t11.5 -89t5.5 -95.5v-264h-271v279h-436v-279h-270v264q0 74 11 156t19.5 121t12.5 49l176 629
q25 88 99.5 144t168.5 56q92 0 167 -56t104 -144zM608 1149q-12 0 -12 -8l-162 -592h348l-161 592q-3 8 -13 8z" />
    <glyph glyph-name="uni04D1" unicode="&#x4d1;" 
d="M608 1161q-129 0 -221 92.5t-92 221.5h270q0 -18 13.5 -30.5t29.5 -12.5q18 0 30.5 12t12.5 31h271q0 -129 -91.5 -221.5t-222.5 -92.5zM764 1044h270v-1044h-270v39q-90 -57 -197 -57h-6q-166 0 -282.5 116.5t-116.5 282.5v283q0 168 115.5 283.5t283.5 115.5h6
q106 0 197 -57v38zM635 252q53 0 91 38t38 91v283q0 53 -38 91t-91 38h-74q-53 0 -91 -38t-38 -91v-283q0 -53 38 -91t91 -38h74z" />
    <glyph glyph-name="uni04D2" unicode="&#x4d2;" 
d="M522 1886v-362h-270v362h270zM965 1886v-362h-271v362h271zM1053 590l4 -21q6 -18 12 -50t12 -70.5t11.5 -89t5.5 -95.5v-264h-271v279h-436v-279h-270v264q0 74 11 156t19.5 121t12.5 49l176 629q25 88 99.5 144t168.5 56q92 0 167 -56t104 -144zM608 1149q-12 0 -12 -8
l-162 -592h348l-161 592q-3 8 -13 8z" />
    <glyph glyph-name="uni04D3" unicode="&#x4d3;" 
d="M522 1530v-363h-270v363h270zM965 1530v-363h-271v363h271zM764 1044h270v-1044h-270v39q-90 -57 -197 -57h-6q-166 0 -282.5 116.5t-116.5 282.5v283q0 168 115.5 283.5t283.5 115.5h6q106 0 197 -57v38zM635 252q53 0 91 38t38 91v283q0 53 -38 91t-91 38h-74
q-53 0 -91 -38t-38 -91v-283q0 -53 38 -91t91 -38h74z" />
    <glyph glyph-name="uni04D4" unicode="&#x4d4;" 
d="M1094 1130h-242v-294h180v-271h-180v-295h242v-270h-512v276h-215v-276h-271v264q0 74 11.5 156t19.5 121t12 49l176 629q27 88 100.5 144t168.5 56q55 0 104 -18h406v-271zM410 547h172v602q-10 0 -11 -8z" />
    <glyph glyph-name="uni04D5" unicode="&#x4d5;" 
d="M1159 395h-411v-71q0 -29 21.5 -50.5t49.5 -21.5q27 0 46.5 17.5t23.5 45.5l258 -77q-29 -111 -120 -183.5t-208 -72.5q-35 0 -71 16v-21h-271v19q-35 -14 -69 -14q-143 0 -242.5 100t-99.5 242v399q0 141 99 240.5t243 99.5q35 0 69 -14v18h271v-18q39 14 71 14
q139 0 239.5 -99.5t100.5 -240.5v-328zM407.5 252q28.5 0 49 21.5t20.5 50.5v399q0 27 -21.5 48.5t-47.5 21.5q-29 0 -50.5 -20.5t-21.5 -49.5v-399q0 -29 21.5 -50.5t50 -21.5zM819.5 793q-28.5 0 -50 -20.5t-21.5 -49.5v-105h141v105q0 27 -20.5 48.5t-49 21.5z" />
    <glyph glyph-name="uni04D6" unicode="&#x4d6;" 
d="M326 1831h270q0 -18 13.5 -30.5t29.5 -12.5q18 0 30.5 12t12.5 31h270q0 -129 -91 -221t-222 -92q-129 0 -221 92t-92 221zM203 0v1401h872v-271h-602v-294h541v-271h-541v-295h602v-270h-872z" />
    <glyph glyph-name="uni04D7" unicode="&#x4d7;" 
d="M301 1475h270q0 -18 13.5 -30.5t29.5 -12.5q18 0 30.5 12t12.5 31h271q0 -129 -91.5 -221.5t-222.5 -92.5q-129 0 -221 92.5t-92 221.5zM578 1063h73q166 0 283 -117t117 -282v-254h-602v-29q0 -53 37.5 -91t91.5 -38h90q45 0 79.5 28.5t45.5 71.5l258 -76
q-35 -127 -140.5 -210.5t-242.5 -83.5h-90q-166 0 -283 116.5t-117 282.5v283q0 166 117 282.5t283 116.5zM449 633h331v31q0 53 -37.5 91t-91.5 38h-73q-53 0 -91 -38t-38 -91v-31z" />
    <glyph glyph-name="uni04D8" unicode="&#x4d8;" 
d="M166 1118q33 131 140.5 216t246.5 85h106q164 0 281 -115.5t119 -279.5v-643q0 -166 -117 -282.5t-283 -116.5h-98q-166 0 -282.5 116.5t-116.5 282.5v455h626v184q0 53 -37.5 91t-91.5 38h-106q-47 0 -83 -31t-44 -76zM432 565v-184q0 -53 38 -91t91 -38h98q53 0 91 38
t38 91v184h-356z" />
    <glyph glyph-name="afii10846" unicode="&#x4d9;" 
d="M639 -18h-74q-166 0 -282.5 116.5t-116.5 282.5v254h602v29q0 53 -38 91t-91 38h-90q-45 0 -80 -29t-45 -72l-258 76q35 127 140.5 211t242.5 84h90q166 0 282.5 -117t116.5 -282v-283q0 -166 -116.5 -282.5t-282.5 -116.5zM768 412h-332v-31q0 -53 38 -91t91 -38h74
q53 0 91 38t38 91v31z" />
    <glyph glyph-name="uni04DA" unicode="&#x4da;" 
d="M252 1524v362h270v-362h-270zM694 1524v362h271v-362h-271zM166 1118q33 131 140.5 216t246.5 85h106q164 0 281 -115.5t119 -279.5v-643q0 -166 -117 -282.5t-283 -116.5h-98q-166 0 -282.5 116.5t-116.5 282.5v455h626v184q0 53 -37.5 91t-91.5 38h-106q-47 0 -83 -31
t-44 -76zM432 565v-184q0 -53 38 -91t91 -38h98q53 0 91 38t38 91v184h-356z" />
    <glyph glyph-name="uni04DB" unicode="&#x4db;" 
d="M238 1167v363h270v-363h-270zM680 1167v363h270v-363h-270zM639 -18h-74q-166 0 -282.5 116.5t-116.5 282.5v254h602v29q0 53 -38 91t-91 38h-90q-45 0 -80 -29t-45 -72l-258 76q35 127 140.5 211t242.5 84h90q166 0 282.5 -117t116.5 -282v-283q0 -166 -116.5 -282.5
t-282.5 -116.5zM768 412h-332v-31q0 -53 38 -91t91 -38h74q53 0 91 38t38 91v31z" />
    <glyph glyph-name="uni04DC" unicode="&#x4dc;" 
d="M522 1886v-362h-270v362h270zM965 1886v-362h-271v362h271zM1075 459q76 -160 76 -326v-133h-270v133q0 102 -50 205l-88 180v-518h-270v518l-84 -180q-53 -102 -53 -205v-133h-270v133q0 166 79 326l121 248l-114 237q-78 160 -78 326v131h270v-131q0 -104 49 -207
l80 -166v504h270v-504l80 166q49 100 49 207v131h271v-131q0 -166 -74 -326l-115 -237z" />
    <glyph glyph-name="uni04DD" unicode="&#x4dd;" 
d="M522 1530v-363h-270v363h270zM965 1530v-363h-271v363h271zM1047 422q14 -16 33.5 -47t45 -103.5t25.5 -146.5v-125h-270v125q0 16 -3.5 31.5t-7.5 29t-10 25.5t-10 19.5t-8 13.5l-4 6l-95 115v-365h-270v362l-92 -112l-4 -6q-4 -6 -8 -13.5t-10.5 -19.5t-11.5 -25.5
t-8 -29t-3 -31.5v-125h-270v125q0 152 104 297l80 96l-51 64q-127 150 -127 331v131h270v-131q0 -84 64 -157l67 -82v370h270v-372l70 84q61 74 61 157v131h271v-131q0 -182 -125 -331l-53 -64z" />
    <glyph glyph-name="uni04DE" unicode="&#x4de;" 
d="M475 1886v-362h-270v362h270zM918 1886v-362h-271v362h271zM858 717q70 -43 111 -114t41 -154v-68q0 -164 -117 -281.5t-283 -117.5h-106q-139 0 -245.5 85t-141.5 218l260 73q8 -47 43 -76.5t84 -29.5h106q53 0 91 38t38 91v68q0 51 -37.5 90t-91.5 39h-209v270h197
q53 0 91 38t38 91v43q0 53 -38 91t-91 38h-94q-49 0 -84 -31t-43 -78l-260 78q35 131 142.5 216t244.5 85h94q166 0 282.5 -115.5t116.5 -283.5v-43q0 -166 -139 -260z" />
    <glyph glyph-name="uni04DF" unicode="&#x4df;" 
d="M522 1530v-363h-270v363h270zM965 1530v-363h-271v363h271zM930 530q100 -80 100 -208q0 -139 -99.5 -239.5t-240.5 -100.5h-203q-115 0 -206 69.5t-119 177.5l258 80q14 -57 67 -57h203q29 0 49.5 20.5t20.5 49t-20.5 49t-49.5 20.5h-233v271h225q27 0 46.5 19t19.5 46
t-19.5 46.5t-46.5 19.5h-201q-47 0 -61 -45l-260 75q33 104 121 172t200 68h201q139 0 237.5 -98.5t98.5 -237.5q0 -119 -88 -197z" />
    <glyph glyph-name="uni04E0" unicode="&#x4e0;" 
d="M158 285l260 75q10 -47 45 -77.5t82 -30.5h82q53 0 91 38t38 91v104q0 53 -38 91t-91 38h-221v271l243 245h-465v271h815v-271l-233 -235l-23 -25q125 -39 204 -144t79 -241v-104q0 -166 -116.5 -282.5t-282.5 -116.5h-82q-137 0 -244.5 85t-142.5 218z" />
    <glyph glyph-name="uni04E1" unicode="&#x4e1;" 
d="M158 -72l260 76q10 -47 45 -77.5t82 -30.5h82q53 0 91 37.5t38 91.5v104q0 53 -38 91t-91 38h-221v270l243 246h-465v270h815v-270l-233 -235l-23 -25q125 -39 204 -144.5t79 -240.5v-104q0 -166 -116.5 -283t-282.5 -117h-82q-137 0 -244.5 85t-142.5 218z" />
    <glyph glyph-name="uni04E2" unicode="&#x4e2;" 
d="M289 1536v270h639v-270h-639zM1094 1401v-1401h-271v907l-362 -907h-338v1401h270v-907l363 907h338z" />
    <glyph glyph-name="uni04E3" unicode="&#x4e3;" 
d="M289 1180v270h639v-270h-639zM123 0v1044h270v-675l355 675h346v-1044h-271v678l-354 -678h-346z" />
    <glyph glyph-name="uni04E4" unicode="&#x4e4;" 
d="M252 1524v362h270v-362h-270zM694 1524v362h271v-362h-271zM1094 1401v-1401h-271v907l-362 -907h-338v1401h270v-907l363 907h338z" />
    <glyph glyph-name="uni04E5" unicode="&#x4e5;" 
d="M252 1167v363h270v-363h-270zM694 1167v363h271v-363h-271zM123 0v1044h270v-675l355 675h346v-1044h-271v678l-354 -678h-346z" />
    <glyph glyph-name="uni04E6" unicode="&#x4e6;" 
d="M252 1524v362h270v-362h-270zM694 1524v362h271v-362h-271zM559 -18q-166 0 -282.5 116.5t-116.5 282.5v639q0 166 116.5 282.5t282.5 116.5h98q166 0 283 -116.5t117 -282.5v-639q0 -166 -117 -282.5t-283 -116.5h-98zM559 252h98q53 0 91 38t38 91v639q0 53 -37.5 91
t-91.5 38h-98q-53 0 -91 -38t-38 -91v-639q0 -53 38 -91t91 -38z" />
    <glyph glyph-name="uni04E7" unicode="&#x4e7;" 
d="M252 1167v363h270v-363h-270zM694 1167v363h271v-363h-271zM571 1063h74q166 0 282.5 -117t116.5 -282v-283q0 -166 -116.5 -282.5t-282.5 -116.5h-74q-166 0 -282.5 116.5t-116.5 282.5v283q0 166 116.5 282.5t282.5 116.5zM571 793q-53 0 -91 -38t-38 -91v-283
q0 -53 38 -91t91 -38h74q53 0 91 38t38 91v283q0 53 -38 91t-91 38h-74z" />
    <glyph glyph-name="uni04E8" unicode="&#x4e8;" 
d="M657 1419q166 0 283 -116.5t117 -282.5v-639q0 -166 -117 -282.5t-283 -116.5h-98q-166 0 -282.5 116.5t-116.5 282.5v639q0 166 116.5 282.5t282.5 116.5h98zM559 1149q-53 0 -91 -38t-38 -91v-184h356v184q0 53 -37.5 91t-91.5 38h-98zM657 252q53 0 91 38t38 91v184
h-356v-184q0 -53 38 -91t91 -38h98z" />
    <glyph glyph-name="uni04E9" unicode="&#x4e9;" 
d="M645 1063q166 0 282.5 -117t116.5 -282v-283q0 -166 -116.5 -282.5t-282.5 -116.5h-74q-166 0 -282.5 116.5t-116.5 282.5v283q0 166 117 282.5t282 116.5h74zM571 793q-53 0 -91 -38t-38 -91v-7h332v7q0 53 -38 91t-91 38h-74zM645 252q53 0 91 38t38 91v6h-332v-6
q0 -53 38 -91t91 -38h74z" />
    <glyph glyph-name="uni04EA" unicode="&#x4ea;" 
d="M522 1886v-362h-270v362h270zM965 1886v-362h-271v362h271zM657 1419q166 0 283 -116.5t117 -282.5v-639q0 -166 -117 -282.5t-283 -116.5h-98q-166 0 -282.5 116.5t-116.5 282.5v639q0 166 116.5 282.5t282.5 116.5h98zM559 1149q-53 0 -91 -38t-38 -91v-184h356v184
q0 53 -37.5 91t-91.5 38h-98zM657 252q53 0 91 38t38 91v184h-356v-184q0 -53 38 -91t91 -38h98z" />
    <glyph glyph-name="uni04EB" unicode="&#x4eb;" 
d="M522 1530v-363h-270v363h270zM965 1530v-363h-271v363h271zM645 1063q166 0 282.5 -117t116.5 -282v-283q0 -166 -116.5 -282.5t-282.5 -116.5h-74q-166 0 -282.5 116.5t-116.5 282.5v283q0 166 117 282.5t282 116.5h74zM571 793q-53 0 -91 -38t-38 -91v-7h332v7
q0 53 -38 91t-91 38h-74zM645 252q53 0 91 38t38 91v6h-332v-6q0 -53 38 -91t91 -38h74z" />
    <glyph glyph-name="uni04EC" unicode="&#x4ec;" 
d="M512 1886v-362h-270v362h270zM954 1886v-362h-270v362h270zM647 1419q164 0 282 -116.5t118 -282.5v-639q0 -164 -118 -281.5t-282 -117.5h-98q-139 0 -246.5 85t-140.5 218l258 75q8 -45 45 -76.5t84 -31.5h98q53 0 91 38t38 91v184h-346v271h346v184q0 53 -38 91
t-91 38h-98q-47 0 -84 -31t-45 -78l-258 78q33 131 140.5 216t246.5 85h98z" />
    <glyph glyph-name="uni04ED" unicode="&#x4ed;" 
d="M498 1530v-363h-271v363h271zM940 1530v-363h-270v363h270zM627 1063q166 0 282.5 -117t116.5 -282v-283q0 -166 -116.5 -282.5t-282.5 -116.5h-82q-137 0 -244.5 85t-142.5 218l260 75q10 -45 45 -76.5t82 -31.5h82q53 0 91 38t38 91v12h-287v271h287q0 53 -38 91
t-91 38h-82q-47 0 -82 -30t-45 -75l-260 74q35 131 141.5 216t245.5 85h82z" />
    <glyph glyph-name="uni04EE" unicode="&#x4ee;" 
d="M289 1536v270h639v-270h-639zM143 0v270h197q63 0 102 72l21 45l-252 563q-72 162 -72 322v129h271v-129q0 -102 47 -211l151 -336l152 336q49 109 49 211v129h270v-129q0 -160 -73 -322l-312 -704q-119 -246 -354 -246h-197z" />
    <glyph glyph-name="uni04EF" unicode="&#x4ef;" 
d="M289 1180v270h639v-270h-639zM127 1044h270v-131q0 -92 52 -184l163 -295l166 295q49 84 49 184v131h271v-131q0 -170 -84 -317l-424 -758q-55 -92 -144.5 -143t-189.5 -51h-182v270h182q27 0 50.5 14.5t33.5 25.5t14 19l103 185l-246 438q-84 147 -84 317v131z" />
    <glyph glyph-name="uni04F0" unicode="&#x4f0;" 
d="M252 1524v362h270v-362h-270zM694 1524v362h271v-362h-271zM143 0v270h197q63 0 102 72l21 45l-252 563q-72 162 -72 322v129h271v-129q0 -102 47 -211l151 -336l152 336q49 109 49 211v129h270v-129q0 -160 -73 -322l-312 -704q-119 -246 -354 -246h-197z" />
    <glyph glyph-name="uni04F1" unicode="&#x4f1;" 
d="M252 1167v363h270v-363h-270zM694 1167v363h271v-363h-271zM127 1044h270v-131q0 -92 52 -184l163 -295l166 295q49 84 49 184v131h271v-131q0 -170 -84 -317l-424 -758q-55 -92 -144.5 -143t-189.5 -51h-182v270h182q27 0 50.5 14.5t33.5 25.5t14 19l103 185l-246 438
q-84 147 -84 317v131z" />
    <glyph glyph-name="uni04F2" unicode="&#x4f2;" 
d="M412 1511l-195 195l348 348l195 -194zM932 1511l-195 195l348 348l195 -194zM143 0v270h197q63 0 102 72l21 45l-252 563q-72 162 -72 322v129h271v-129q0 -102 47 -211l151 -336l152 336q49 109 49 211v129h270v-129q0 -160 -73 -322l-312 -704q-119 -246 -354 -246
h-197z" />
    <glyph glyph-name="uni04F3" unicode="&#x4f3;" 
d="M412 1155l-195 195l348 348l195 -195zM932 1155l-195 195l348 348l195 -195zM127 1044h270v-131q0 -92 52 -184l163 -295l166 295q49 84 49 184v131h271v-131q0 -170 -84 -317l-424 -758q-55 -92 -144.5 -143t-189.5 -51h-182v270h182q27 0 50.5 14.5t33.5 25.5t14 19
l103 185l-246 438q-84 147 -84 317v131z" />
    <glyph glyph-name="uni04F4" unicode="&#x4f4;" 
d="M522 1886v-362h-270v362h270zM965 1886v-362h-271v362h271zM1022 1401v-1401h-270v518q-90 -57 -197 -57h-6q-168 0 -283.5 115.5t-115.5 283.5v541h270v-541q0 -53 38 -91t91 -38h74q53 0 91 38t38 91v541h270z" />
    <glyph glyph-name="uni04F5" unicode="&#x4f5;" 
d="M522 1530v-363h-270v363h270zM965 1530v-363h-271v363h271zM1026 1044v-1044h-270v365q-90 -57 -197 -58h-6q-168 0 -283.5 116t-115.5 284v337h270v-337q0 -53 38 -91t91 -38h74q53 0 91 37.5t38 91.5v337h270z" />
    <glyph glyph-name="uni04F6" unicode="&#x4f6;" 
d="M1075 1130h-583v-860h116v-626h-270v356h-117v1401h854v-271z" />
    <glyph glyph-name="uni04F7" unicode="&#x4f7;" 
d="M1063 774h-571v-504h116v-626h-270v356h-117v1044h842v-270z" />
    <glyph glyph-name="uni04F8" unicode="&#x4f8;" 
d="M522 1886v-362h-270v362h270zM965 1886v-362h-271v362h271zM367 924q164 0 281.5 -117t117.5 -283v-125q0 -166 -118 -282.5t-281 -116.5h-267v1401h271v-477h-4zM848 1401h270v-1401h-270v1401zM496 399v125q0 53 -37 90t-88 39v-383q51 2 88 39t37 90z" />
    <glyph glyph-name="uni04F9" unicode="&#x4f9;" 
d="M252 1167v363h270v-363h-270zM694 1167v363h271v-363h-271zM96 0v1044h271v-352h55q143 0 244.5 -101.5t101.5 -244.5t-101.5 -244.5t-244.5 -101.5h-326zM852 0v1044h270v-1044h-270zM367 270h55q33 0 54.5 21.5t21.5 54.5q0 31 -21.5 53.5t-54.5 22.5h-55v-152z" />
    <glyph glyph-name="uni0510" unicode="&#x510;" 
d="M713 252q49 0 83.5 29.5t43.5 76.5l260 -73q-35 -133 -141.5 -218t-245.5 -85h-107q-166 0 -282.5 117.5t-116.5 281.5v68q0 84 41 154.5t110 113.5q-139 94 -139 260v43q0 168 117 283.5t282 115.5h95q137 0 244.5 -85t142.5 -216l-260 -78q-8 47 -43 78t-84 31h-95
q-53 0 -91 -38t-38 -91v-43q0 -53 38 -91t91 -38h197v-270h-209q-53 0 -91 -39t-38 -90v-68q0 -53 38 -91t91 -38h107z" />
    <glyph glyph-name="uni0511" unicode="&#x511;" 
d="M729 252q53 0 68 57l258 -80q-29 -109 -120 -178t-206 -69h-203q-141 0 -240.5 100t-99.5 240q0 129 101 208q-88 78 -88 197q0 139 98 237.5t238 98.5h200q113 0 201 -67.5t121 -172.5l-260 -75q-14 45 -62 45h-200q-27 0 -46.5 -19.5t-19.5 -46.5t19.5 -46t46.5 -19
h225v-271h-234q-29 0 -49 -20.5t-20 -49t20.5 -49t48.5 -20.5h203z" />
    <glyph glyph-name="uni051C" unicode="&#x51c;" 
d="M86 1401h270v-275q0 -135 21 -245l59 -371l64 397h215l65 -399l62 373q20 121 20 247v273h271v-275q0 -145 -25 -290l-143 -836h-252l-105 496l-104 -496h-250l-145 836q-23 145 -23 290v275z" />
    <glyph glyph-name="uni051D" unicode="&#x51d;" 
d="M84 913v131h270v-131q0 -109 25 -235l47 -252l84 440h197l84 -440l47 252q27 127 26 235v131h271v-131q0 -147 -35 -292l-135 -621h-254l-103 516l-102 -516h-254l-135 621q-33 145 -33 292z" />
    <glyph glyph-name="uni0524" unicode="&#x524;" 
d="M1044 270h117v-626h-270v356h-117v1130h-332v-1130h-270v1401h872v-1131z" />
    <glyph glyph-name="uni0525" unicode="&#x525;" 
d="M1044 270h117v-626h-270v356h-117v774h-332v-774h-270v1044h872v-774z" />
    <glyph glyph-name="uni0526" unicode="&#x526;" 
d="M1067 270h117v-626h-271v356h-116v541q0 53 -38 91t-91 38h-74q-53 0 -91 -38t-38 -91v-541h-270v1401h270v-518q90 57 197 57h6q168 0 283.5 -115.5t115.5 -283.5v-271z" />
    <glyph glyph-name="uni0527" unicode="&#x527;" 
d="M1051 270h116v-626h-270v356h-117v664q0 53 -37.5 91t-91.5 38h-73q-53 0 -91 -38t-38 -91v-664h-271v1401h271v-395q90 57 196 57h6q168 0 284 -116t116 -283v-394z" />
    <glyph glyph-name="uni0E3F" unicode="&#xe3f;" 
d="M930 717q70 -43 110.5 -114t40.5 -154v-50q0 -147 -94 -257.5t-235 -135.5v-184h-271v178h-284v1401h284v178h271v-186q137 -29 227 -138.5t90 -253.5v-24q0 -168 -139 -260zM670 1130h-203v-282h203q53 0 91 38t38 91v24q0 53 -38 91t-91 38zM811 399v50q0 53 -38 91
t-91 38h-215v-308h215q53 0 91 38t38 91z" />
    <glyph glyph-name="uni1D6B" unicode="&#x1d6b;" horiz-adv-x="1228" 
d="M1176 395h-412v-71q0 -29 21.5 -50.5t50.5 -21.5q27 0 47 17.5t24 45.5l258 -75q-29 -113 -121 -185.5t-208 -72.5q-123 0 -207 94q-80 -94 -205 -94q-141 0 -241.5 100t-100.5 242v720h270v-720q0 -29 21.5 -50.5t50.5 -21.5q31 0 50.5 20.5t19.5 51.5v720h264
q33 18 78 19q141 0 240.5 -99.5t99.5 -240.5v-328zM835.5 793q-30.5 0 -51 -19.5t-20.5 -50.5v-105h141v105q0 31 -19.5 50.5t-50 19.5z" />
    <glyph glyph-name="uni1E04" unicode="&#x1e04;" 
d="M930 717q70 -43 110.5 -114t40.5 -154v-50q0 -166 -116.5 -282.5t-282.5 -116.5h-485v1401h473q166 0 282.5 -117t116.5 -283v-24q0 -168 -139 -260zM670 1130h-203v-282h203q53 0 91 38t38 91v24q0 53 -38 91t-91 38zM811 399v50q0 53 -38 91t-91 38h-215v-308h215
q53 0 91 38t38 91zM467 -485v362h270v-362h-270z" />
    <glyph glyph-name="uni1E05" unicode="&#x1e05;" 
d="M657 1063q168 0 284 -116t116 -283v-283q0 -166 -117 -282.5t-283 -116.5h-6q-106 0 -196 57v-39h-271v1401h271v-395q90 57 196 57h6zM786 381v283q0 53 -37.5 91t-91.5 38h-73q-53 0 -91 -38t-38 -91v-283q0 -53 38.5 -91t90.5 -38h73q53 0 91 38t38 91zM483 -485v362
h271v-362h-271z" />
    <glyph glyph-name="uni1E0C" unicode="&#x1e0c;" 
d="M184 0v1401h473q166 0 283 -117t117 -283v-602q0 -166 -117 -282.5t-283 -116.5h-473zM455 270h202q53 0 91 38t38 91v602q0 53 -37.5 91t-91.5 38h-202v-860zM477 -485v362h271v-362h-271z" />
    <glyph glyph-name="uni1E0D" unicode="&#x1e0d;" 
d="M762 1401h270v-1401h-270v39q-90 -57 -197 -57h-6q-166 0 -282.5 116.5t-116.5 282.5v283q0 168 115.5 283.5t283.5 115.5h6q106 0 197 -57v395zM633 252q51 0 90 38t39 91v283q0 53 -38 91t-91 38h-74q-53 0 -91 -38t-38 -91v-283q0 -53 38 -91t91 -38h74zM461 -485v362
h270v-362h-270z" />
    <glyph glyph-name="uni1E0E" unicode="&#x1e0e;" 
d="M184 0v1401h473q166 0 283 -117t117 -283v-602q0 -166 -117 -282.5t-283 -116.5h-473zM455 270h202q53 0 91 38t38 91v602q0 53 -37.5 91t-91.5 38h-202v-860zM293 -406v271h639v-271h-639z" />
    <glyph glyph-name="uni1E0F" unicode="&#x1e0f;" 
d="M762 1401h270v-1401h-270v39q-90 -57 -197 -57h-6q-166 0 -282.5 116.5t-116.5 282.5v283q0 168 115.5 283.5t283.5 115.5h6q106 0 197 -57v395zM633 252q51 0 90 38t39 91v283q0 53 -38 91t-91 38h-74q-53 0 -91 -38t-38 -91v-283q0 -53 38 -91t91 -38h74zM276 -406v271
h639v-271h-639z" />
    <glyph glyph-name="uni1E12" unicode="&#x1e12;" 
d="M184 0v1401h473q166 0 283 -117t117 -283v-602q0 -166 -117 -282.5t-283 -116.5h-473zM455 270h202q53 0 91 38t38 91v602q0 53 -37.5 91t-91.5 38h-202v-860zM233 -371l267 267h225l266 -267l-190 -192l-189 188l-186 -188z" />
    <glyph glyph-name="uni1E13" unicode="&#x1e13;" 
d="M762 1401h270v-1401h-270v39q-90 -57 -197 -57h-6q-166 0 -282.5 116.5t-116.5 282.5v283q0 168 115.5 283.5t283.5 115.5h6q106 0 197 -57v395zM633 252q51 0 90 38t39 91v283q0 53 -38 91t-91 38h-74q-53 0 -91 -38t-38 -91v-283q0 -53 38 -91t91 -38h74zM483 -104h226
l266 -267l-191 -192l-188 188l-186 -188l-193 192z" />
    <glyph glyph-name="uni1E24" unicode="&#x1e24;" 
d="M774 1401h270v-1401h-270v565h-332v-565h-270v1401h270v-565h332v565zM473 -485v362h270v-362h-270z" />
    <glyph glyph-name="uni1E25" unicode="&#x1e25;" 
d="M651 1063q168 0 284 -116t116 -283v-664h-271v664q0 53 -37.5 91t-91.5 38h-73q-53 0 -91 -38t-38 -91v-664h-271v1401h271v-395q90 57 196 57h6zM473 -485v362h270v-362h-270z" />
    <glyph glyph-name="uni1E2E" unicode="&#x1e2e;" 
d="M608 1927l-194 195l348 348l194 -195zM252 1524v362h270v-362h-270zM694 1524v362h271v-362h-271zM172 270h301v860h-283v271h836v-271h-283v-860h301v-270h-872v270z" />
    <glyph glyph-name="uni1E2F" unicode="&#x1e2f;" 
d="M651 1571l-194 194l348 349l194 -195zM295 1167v363h270v-363h-270zM737 1167v363h271v-363h-271zM252 1044h534v-774h308v-270h-910v270h332v504h-264v270z" />
    <glyph glyph-name="uni1E36" unicode="&#x1e36;" 
d="M221 1401h271v-1131h583v-270h-854v1401zM514 -485v362h270v-362h-270z" />
    <glyph glyph-name="uni1E37" unicode="&#x1e37;" 
d="M1190 272q-35 -127 -141.5 -208.5t-241.5 -81.5q-164 0 -280.5 117.5t-116.5 279.5v751h-308v271h578v-1022q0 -51 37 -89t90 -38q45 0 81 28.5t44 71.5zM672 -485v362h270v-362h-270z" />
    <glyph glyph-name="uni1E3C" unicode="&#x1e3c;" 
d="M221 1401h271v-1131h583v-270h-854v1401zM270 -371l267 267h225l266 -267l-190 -192l-189 188l-186 -188z" />
    <glyph glyph-name="uni1E3D" unicode="&#x1e3d;" 
d="M1190 272q-35 -127 -141.5 -208.5t-241.5 -81.5q-164 0 -280.5 117.5t-116.5 279.5v751h-308v271h578v-1022q0 -51 37 -89t90 -38q45 0 81 28.5t44 71.5zM428 -371l266 267h226l266 -267l-191 -192l-188 188l-186 -188z" />
    <glyph glyph-name="uni1E3E" unicode="&#x1e3e;" 
d="M608 1511l-194 195l348 348l194 -194zM111 0v1401h327l170 -664l170 664h328v-1401h-270v934l-121 -492h-211l-123 492v-934h-270z" />
    <glyph glyph-name="uni1E3F" unicode="&#x1e3f;" 
d="M963 1503l-349 -348l-194 195l348 348zM864 1063q119 0 205 -85t86 -206v-772h-270v725q0 29 -20.5 48.5t-47.5 19.5q-29 0 -48 -19.5t-19 -48.5v-725h-271v725q0 29 -20.5 48.5t-46.5 19.5q-29 0 -48.5 -19.5t-19.5 -48.5v-725h-270v1044h270v-51q66 70 162 70t164 -72
q81 72 194 72z" />
    <glyph glyph-name="uni1E44" unicode="&#x1e44;" 
d="M473 1524v362h270v-362h-270zM123 1401h338l362 -907v907h271v-1401h-338l-363 907v-907h-270v1401z" />
    <glyph glyph-name="uni1E45" unicode="&#x1e45;" 
d="M774 1530v-363h-270v363h270zM651 1063q168 0 284 -116t116 -283v-664h-271v664q0 53 -37.5 91t-91.5 38h-73q-53 0 -91 -38t-38 -91v-664h-271v1044h271v-38q90 57 196 57h6z" />
    <glyph glyph-name="uni1E46" unicode="&#x1e46;" 
d="M123 1401h338l362 -907v907h271v-1401h-338l-363 907v-907h-270v1401zM473 -485v362h270v-362h-270z" />
    <glyph glyph-name="uni1E47" unicode="&#x1e47;" 
d="M651 1063q168 0 284 -116t116 -283v-664h-271v664q0 53 -37.5 91t-91.5 38h-73q-53 0 -91 -38t-38 -91v-664h-271v1044h271v-38q90 57 196 57h6zM504 -485v362h270v-362h-270z" />
    <glyph glyph-name="uni1E4A" unicode="&#x1e4a;" 
d="M123 1401h338l362 -907v907h271v-1401h-338l-363 907v-907h-270v1401zM229 -371l267 267h225l266 -267l-190 -192l-189 188l-186 -188z" />
    <glyph glyph-name="uni1E4B" unicode="&#x1e4b;" 
d="M651 1063q168 0 284 -116t116 -283v-664h-271v664q0 53 -37.5 91t-91.5 38h-73q-53 0 -91 -38t-38 -91v-664h-271v1044h271v-38q90 57 196 57h6zM526 -104h226l266 -267l-191 -192l-188 188l-186 -188l-193 192z" />
    <glyph glyph-name="uni1E4C" unicode="&#x1e4c;" 
d="M608 1954l-194 194l348 349l194 -195zM182 1561v43q0 125 88 213t213 88q70 0 148 -37q16 -8 41.5 -21.5t39 -20.5t21.5 -7q31 0 31 30v43h270v-43q0 -125 -88 -213t-213 -88q-72 0 -147 35q-98 51 -103 51q-31 0 -30 -30v-43h-271zM559 -18q-166 0 -282.5 116.5
t-116.5 282.5v639q0 166 116.5 282.5t282.5 116.5h98q166 0 283 -116.5t117 -282.5v-639q0 -166 -117 -282.5t-283 -116.5h-98zM559 252h98q53 0 91 38t38 91v639q0 53 -37.5 91t-91.5 38h-98q-53 0 -91 -38t-38 -91v-639q0 -53 38 -91t91 -38z" />
    <glyph glyph-name="uni1E4D" unicode="&#x1e4d;" 
d="M608 1597l-194 195l348 348l194 -194zM182 1204v43q0 125 88 213t213 88q70 0 148 -37q16 -8 41.5 -21t39 -20.5t21.5 -7.5q31 0 31 31v43h270v-43q0 -125 -88 -213t-213 -88q-72 0 -147 35q-98 51 -103 51q-31 0 -30 -31v-43h-271zM571 1063h74q166 0 282.5 -117
t116.5 -282v-283q0 -166 -116.5 -282.5t-282.5 -116.5h-74q-166 0 -282.5 116.5t-116.5 282.5v283q0 166 116.5 282.5t282.5 116.5zM571 793q-53 0 -91 -38t-38 -91v-283q0 -53 38 -91t91 -38h74q53 0 91 38t38 91v283q0 53 -38 91t-91 38h-74z" />
    <glyph glyph-name="uni1E50" unicode="&#x1e50;" 
d="M608 1888l-348 348l195 195l348 -348zM289 1536v270h639v-270h-639zM559 -18q-166 0 -282.5 116.5t-116.5 282.5v639q0 166 116.5 282.5t282.5 116.5h98q166 0 283 -116.5t117 -282.5v-639q0 -166 -117 -282.5t-283 -116.5h-98zM559 252h98q53 0 91 38t38 91v639
q0 53 -37.5 91t-91.5 38h-98q-53 0 -91 -38t-38 -91v-639q0 -53 38 -91t91 -38z" />
    <glyph glyph-name="uni1E51" unicode="&#x1e51;" 
d="M608 1532l-348 348l195 195l348 -349zM289 1180v270h639v-270h-639zM571 1063h74q166 0 282.5 -117t116.5 -282v-283q0 -166 -116.5 -282.5t-282.5 -116.5h-74q-166 0 -282.5 116.5t-116.5 282.5v283q0 166 116.5 282.5t282.5 116.5zM571 793q-53 0 -91 -38t-38 -91v-283
q0 -53 38 -91t91 -38h74q53 0 91 38t38 91v283q0 53 -38 91t-91 38h-74z" />
    <glyph glyph-name="uni1E52" unicode="&#x1e52;" 
d="M608 1888l-194 195l348 348l194 -195zM289 1536v270h639v-270h-639zM559 -18q-166 0 -282.5 116.5t-116.5 282.5v639q0 166 116.5 282.5t282.5 116.5h98q166 0 283 -116.5t117 -282.5v-639q0 -166 -117 -282.5t-283 -116.5h-98zM559 252h98q53 0 91 38t38 91v639
q0 53 -37.5 91t-91.5 38h-98q-53 0 -91 -38t-38 -91v-639q0 -53 38 -91t91 -38z" />
    <glyph glyph-name="uni1E53" unicode="&#x1e53;" 
d="M608 1532l-194 194l348 349l194 -195zM289 1180v270h639v-270h-639zM571 1063h74q166 0 282.5 -117t116.5 -282v-283q0 -166 -116.5 -282.5t-282.5 -116.5h-74q-166 0 -282.5 116.5t-116.5 282.5v283q0 166 116.5 282.5t282.5 116.5zM571 793q-53 0 -91 -38t-38 -91v-283
q0 -53 38 -91t91 -38h74q53 0 91 38t38 91v283q0 53 -38 91t-91 38h-74z" />
    <glyph glyph-name="uni1E62" unicode="&#x1e62;" 
d="M127 283l258 77q8 -47 44 -77.5t83 -30.5h143q53 0 91 38t38 91q0 119 -145 174l-162 61q-319 129 -319 404q0 166 117.5 282.5t281.5 116.5h100q137 0 246 -85t141 -216l-262 -74q-8 45 -42.5 75t-82.5 30h-100q-53 0 -91 -38t-38 -91q0 -31 7 -51.5t43 -48t104 -54.5
l161 -63q145 -57 228.5 -167t83.5 -255q0 -166 -117 -282.5t-283 -116.5h-143q-137 0 -244.5 85t-140.5 216zM446 -485v362h271v-362h-271z" />
    <glyph glyph-name="uni1E63" unicode="&#x1e63;" 
d="M172 233l258 80q4 -27 21.5 -44t44.5 -17h217q27 0 45 18.5t18 44.5q0 70 -94 70l-160 14q-145 12 -237 105.5t-92 224.5q0 139 98 236.5t235 97.5h181q117 0 205.5 -70.5t117.5 -181.5l-258 -76q-4 25 -21.5 41.5t-43.5 16.5h-181q-27 0 -45 -17.5t-18 -46.5
q0 -53 86 -61l172 -15q139 -14 232.5 -107t93.5 -230.5t-97.5 -235.5t-236.5 -98h-217q-115 0 -205 71t-119 180zM475 -485v362h270v-362h-270z" />
    <glyph glyph-name="uni1E6C" unicode="&#x1e6c;" 
d="M147 1401h922v-271h-326v-1130h-270v1130h-326v271zM473 -485v362h270v-362h-270z" />
    <glyph glyph-name="uni1E6D" unicode="&#x1e6d;" 
d="M94 774v270h283v283h270v-283h430v-270h-430v-395q0 -51 37 -89t90 -38q45 0 79 28.5t44 71.5l260 -80q-37 -127 -142.5 -208.5t-240.5 -81.5q-164 0 -280.5 116.5t-116.5 280.5v395h-283zM639 -485v362h270v-362h-270z" />
    <glyph glyph-name="uni1E6E" unicode="&#x1e6e;" 
d="M147 1401h922v-271h-326v-1130h-270v1130h-326v271zM289 -406v271h639v-271h-639z" />
    <glyph glyph-name="uni1E6F" unicode="&#x1e6f;" 
d="M94 774v270h283v283h270v-283h430v-270h-430v-395q0 -51 37 -89t90 -38q45 0 79 28.5t44 71.5l260 -80q-37 -127 -142.5 -208.5t-240.5 -81.5q-164 0 -280.5 116.5t-116.5 280.5v395h-283zM455 -406v271h639v-271h-639z" />
    <glyph glyph-name="uni1E70" unicode="&#x1e70;" 
d="M147 1401h922v-271h-326v-1130h-270v1130h-326v271zM229 -371l267 267h225l266 -267l-190 -192l-189 188l-186 -188z" />
    </font>
</defs>
</svg>
