<?xml version="1.0" standalone="no"?>
<!DOCTYPE svg PUBLIC "-//W3C//DTD SVG 1.1//EN" "http://www.w3.org/Graphics/SVG/1.1/DTD/svg11.dtd" >
<svg xmlns="http://www.w3.org/2000/svg" xmlns:xlink="http://www.w3.org/1999/xlink" version="1.1">
<metadata>
Created by FontForge 20170731 at Wed Jun 28 20:11:19 2017
 By Aleksey,,,
Copyright (c) 2015 by Bold Studio. All rights reserved.
</metadata>
<defs>
<font id="BBRollerMonoProST-SemiBold" horiz-adv-x="1216" >
  <font-face 
    font-family="BB Roller Mono Pro ST Sb"
    font-weight="600"
    font-stretch="normal"
    units-per-em="2048"
    panose-1="0 0 7 0 0 0 0 0 0 0"
    ascent="1638"
    descent="-410"
    x-height="1044"
    cap-height="1401"
    bbox="-211 -1237 2394 2429"
    underline-thickness="0"
    underline-position="0"
    unicode-range="U+0009-1F6E1"
  />
<missing-glyph 
d="M68 698q0 223 159.5 383t380.5 160q223 0 382 -159.5t159 -383t-159 -381t-382 -157.5q-221 0 -380.5 158.5t-159.5 379.5z" />
    <glyph glyph-name="uniFB01" unicode="fi" 
d="M61 731v221h207v80q0 162 114 274.5t273 112.5q135 0 238.5 -82t136.5 -209l-211 -63q-12 57 -58 95t-106 38q-70 0 -118 -48t-48 -118v-80h549v-952h-221v731h-328v-731h-221v731h-207z" />
    <glyph glyph-name="uniFB02" unicode="fl" 
d="M1079 221h64v-221h-62q-115 0 -196.5 81t-81.5 198v426h-332v-705h-221v707h-207v221h207v104q0 162 113.5 274.5t273.5 112.5q162 0 274.5 -112.5t112.5 -274.5v-756q0 -23 16 -39t39 -16zM471 928h332v104q0 70 -48 118t-118 48t-118 -48t-48 -118v-104z" />
    <glyph glyph-name=".notdef" 
d="M68 698q0 223 159.5 383t380.5 160q223 0 382 -159.5t159 -383t-159 -381t-382 -157.5q-221 0 -380.5 158.5t-159.5 379.5z" />
    <glyph glyph-name="glyph1" horiz-adv-x="0" 
 />
    <glyph glyph-name="glyph2" horiz-adv-x="681" 
 />
    <glyph glyph-name="uni0009" unicode="&#x9;" 
 />
    <glyph glyph-name="space" unicode=" " 
 />
    <glyph glyph-name="exclam" unicode="!" 
d="M498 473v928h221v-928h-221zM498 0v319h221v-319h-221z" />
    <glyph glyph-name="quotedbl" unicode="&#x22;" 
d="M303 854v547h219v-547h-219zM694 854v547h219v-547h-219z" />
    <glyph glyph-name="numbersign" unicode="#" 
d="M49 338v221h215v287h-215v221h215v334h221v-334h258v334h222v-334h202v-221h-202v-287h202v-221h-202v-338h-222v338h-258v-338h-221v338h-215zM485 559h258v287h-258v-287z" />
    <glyph glyph-name="dollar" unicode="$" 
d="M1042 369q0 -150 -99 -259.5t-247 -125.5v-162h-221v162q-123 12 -214 93t-120 197l211 62q10 -57 57.5 -95t106.5 -38h139q68 0 117 48t49 118q0 143 -166 206l-174 66q-311 123 -311 391q0 145 94 253t234 130v164h221v-166q113 -18 196.5 -96t112.5 -189l-213 -61
q-10 55 -56 93t-106 38h-96q-70 0 -118 -48t-48 -118q0 -59 35 -102t139 -84l176 -68q141 -57 221 -162.5t80 -246.5z" />
    <glyph glyph-name="percent" unicode="%" 
d="M362.5 915q-104.5 0 -178 74t-73.5 178.5t73.5 178t178 73.5t178 -73.5t73.5 -178t-73.5 -178.5t-178 -74zM154 0v125q0 31 4 60.5t12 56t17.5 49t19.5 42t17 32t14 24.5l8 10l528 695q29 37 46.5 82t19.5 69l2 27v129h221v-129q0 -168 -113 -314l-528 -694
q-4 -4 -13.5 -20.5t-21.5 -51t-12 -67.5v-125h-221zM362.5 1137q12.5 0 21.5 9t9 21.5t-9 21.5t-21.5 9t-21.5 -9t-9 -21.5t9 -21.5t21.5 -9zM854 -18q-104 0 -178 73.5t-74 178t74 178t178 73.5t178 -73.5t74 -178t-74 -178t-178 -73.5zM854 203q12 0 21.5 9t9.5 21.5
t-9.5 21.5t-21.5 9t-21.5 -9t-9.5 -21.5t9.5 -21.5t21.5 -9z" />
    <glyph glyph-name="ampersand" unicode="&#x26;" 
d="M1030 231l215 -61q-27 -82 -96.5 -135t-155.5 -53q-111 0 -187.5 77.5t-76.5 186.5v370h-231q-68 0 -117 -48t-49 -117v-64q0 -68 49 -117t117 -49h80v-221h-80q-160 0 -273.5 113.5t-113.5 273.5v64q0 92 48 168.5t126 119.5q-137 96 -138 265v28q0 162 114 274.5
t274 112.5h28q160 0 273.5 -112.5t113.5 -274.5v-194h213v-222h-213v-370q0 -16 12.5 -29.5t30.5 -13.5q27 -1 37 28zM369 1032v-28q0 -68 48 -117t118 -49h194v194q0 70 -48 118t-118 48h-28q-70 0 -118 -48t-48 -118z" />
    <glyph glyph-name="quotesingle" unicode="'" 
d="M498 854v547h221v-547h-221z" />
    <glyph glyph-name="parenleft" unicode="(" 
d="M399 227v750q0 174 124 299t300 125h111v-221h-111q-84 0 -143 -59.5t-59 -143.5v-750q0 -84 59 -143t143 -59h111v-222h-111q-176 0 -300 124t-124 300z" />
    <glyph glyph-name="parenright" unicode=")" 
d="M817 227q0 -176 -124 -300t-300 -124h-110v222h110q84 0 143.5 59t59.5 143v750q0 84 -59.5 143.5t-143.5 59.5h-110v221h110q176 0 300 -125t124 -299v-750z" />
    <glyph glyph-name="asterisk" unicode="*" 
d="M498 1401h221v-250l237 76l70 -209l-240 -78l148 -203l-178 -131l-148 203l-147 -203l-178 131l147 203l-240 78l68 209l240 -76v250z" />
    <glyph glyph-name="plus" unicode="+" 
d="M182 481v221h316v316h221v-316h315v-221h-315v-315h-221v315h-316z" />
    <glyph glyph-name="comma" unicode="," 
d="M399 221h389v-225q0 -147 -91 -261t-232 -149l-62 211q72 14 118 70.5t46 132.5h-168v221z" />
    <glyph glyph-name="hyphen" unicode="-" 
d="M946 702v-221h-676v221h676z" />
    <glyph glyph-name="period" unicode="." 
d="M498 0v338h221v-338h-221z" />
    <glyph glyph-name="slash" unicode="/" 
d="M154 0v125q0 31 4 60.5t12 56t17.5 49t19.5 42t17 32t14 24.5l8 10l528 695q29 37 46.5 82t19.5 69l2 27v129h221v-129q0 -168 -113 -314l-528 -694q-4 -4 -13.5 -20.5t-21.5 -51t-12 -67.5v-125h-221z" />
    <glyph glyph-name="zero" unicode="0" 
d="M657 1419q162 0 274.5 -112.5t112.5 -274.5v-663q0 -160 -112.5 -273.5t-274.5 -113.5h-98q-160 0 -273.5 113.5t-113.5 273.5v663q0 162 113.5 274.5t273.5 112.5h98zM559 1198q-68 0 -117 -48t-49 -118v-391l426 428q-12 55 -57 92t-105 37h-98zM657 203q70 0 118 49
t48 117v389l-426 -424q12 -55 58.5 -93t103.5 -38h98z" />
    <glyph glyph-name="one" unicode="1" 
d="M188 999l402 402h203v-1180h284v-221h-848v221h342v852l-227 -229z" />
    <glyph glyph-name="two" unicode="2" 
d="M213 1128q31 127 135.5 209t239.5 82h82q160 0 273.5 -113.5t113.5 -273.5q0 -162 -79 -257t-253 -185l-68 -33q-78 -37 -127 -72.5t-69.5 -75.5t-25.5 -70t-5 -75v-43h627v-221h-848v260q0 178 84 294t270 204l29 16q156 76 200 125t44 133q0 70 -48.5 118t-117.5 48
h-82q-59 0 -105.5 -38t-58.5 -95z" />
    <glyph glyph-name="three" unicode="3" 
d="M174 274l211 62q12 -57 58 -95t106 -38h78q70 0 118 48t48 118v116q0 70 -48.5 118t-117.5 48h-197v221l275 308h-508v221h794v-221l-268 -301l-14 -17q131 -27 218 -132t87 -245v-116q0 -160 -113 -273.5t-274 -113.5h-78q-135 0 -238.5 82.5t-136.5 209.5z" />
    <glyph glyph-name="four" unicode="4" 
d="M203 330v260q0 176 84 330l274 495l195 -106l-275 -496q-57 -106 -57 -223v-39h332v297h221v-846h-221v328h-553z" />
    <glyph glyph-name="five" unicode="5" 
d="M639 928q160 0 273.5 -114t113.5 -273v-172q0 -160 -113.5 -273.5t-273.5 -113.5h-78q-135 0 -239.5 81.5t-135.5 210.5l211 62q12 -57 58.5 -95t105.5 -38h78q70 0 118 48t48 118v172q0 70 -48 118t-118 48h-45q-61 0 -106.5 -39t-55.5 -97l-223 66v764h774v-221h-553
v-326q86 74 207 74h2z" />
    <glyph glyph-name="six" unicode="6" 
d="M651 928q160 0 273.5 -113t113.5 -274v-172q0 -160 -113.5 -273.5t-273.5 -113.5h-73q-160 0 -274 113.5t-114 273.5v667q0 158 114 270.5t274 112.5h73q135 0 238.5 -82t136.5 -209l-213 -61q-10 55 -56 93t-106 38h-73q-70 0 -118 -48t-48 -118v-178q96 74 221 74h18z
M817 369v172q0 70 -48 118t-118 48h-73q-70 0 -118 -48.5t-48 -117.5v-172q0 -70 48 -118t118 -48h73q70 0 118 48t48 118z" />
    <glyph glyph-name="seven" unicode="7" 
d="M209 999v402h835v-129q0 -158 -83 -311l-259 -467q-57 -115 -57 -224v-270h-221v270q0 162 84 330l258 467q29 55 41 111v2h-377v-181h-221z" />
    <glyph glyph-name="eight" unicode="8" 
d="M881 737q158 -106 157 -303v-65q0 -162 -113.5 -274.5t-273.5 -112.5h-86q-160 0 -273.5 112.5t-113.5 274.5v82q0 88 42 161.5t114 116.5q-137 111 -137 275v28q0 160 112.5 272.5t272.5 114.5h51q160 -2 273.5 -114.5t113.5 -272.5v-28q0 -82 -38 -153t-101 -114z
M418 1032v-28q0 -53 45 -94.5t119 -59.5l102 -31q51 16 83 60.5t32 97.5v55q0 68 -49.5 117t-116.5 49h-49q-70 0 -118 -49t-48 -117zM817 369v65q0 63 -38 101t-132 67l-121 33h-2l-4 2q-53 -16 -87 -60.5t-34 -99.5v-108q0 -70 48.5 -118t117.5 -48h86q68 0 117 48t49 118
z" />
    <glyph glyph-name="nine" unicode="9" 
d="M639 1419q160 0 273.5 -113.5t113.5 -273.5v-667q0 -158 -113.5 -270.5t-273.5 -112.5h-74q-135 0 -238.5 81.5t-136.5 208.5l213 62q10 -55 56.5 -93t105.5 -38h74q70 0 118 48t48 118v178q-96 -74 -221 -74h-19q-160 0 -273.5 112.5t-113.5 274.5v172q0 160 114 273.5
t273 113.5h74zM639 694q70 0 118 48.5t48 117.5v172q0 70 -48 118t-118 48h-74q-70 0 -118 -48t-48 -118v-172q0 -70 48.5 -118t117.5 -48h74z" />
    <glyph glyph-name="colon" unicode=":" 
d="M498 565v338h221v-338h-221zM498 0v338h221v-338h-221z" />
    <glyph glyph-name="semicolon" unicode=";" 
d="M498 547v338h221v-338h-221zM399 221h389v-225q0 -147 -91 -261t-232 -149l-62 211q72 14 118 70.5t46 132.5h-168v221z" />
    <glyph glyph-name="less" unicode="&#x3c;" 
d="M981 344l-84 -203l-743 301v297l743 303l84 -204l-608 -248z" />
    <glyph glyph-name="equal" unicode="=" 
d="M182 674v221h852v-221h-852zM1034 512v-221h-852v221h852z" />
    <glyph glyph-name="greater" unicode="&#x3e;" 
d="M188 344l609 246l-609 248l84 204l744 -303v-297l-744 -301z" />
    <glyph glyph-name="question" unicode="?" 
d="M162 1128q31 127 135 209t240 82h98q160 0 273.5 -112.5t113.5 -274.5q0 -113 -59.5 -209t-163.5 -157q-111 -66 -111 -156v-37h-221v37q0 221 221 346q113 72 113 176q0 70 -48 118t-118 48h-98q-59 0 -105.5 -38t-58.5 -93zM467 0v319h221v-319h-221z" />
    <glyph glyph-name="at" unicode="@" 
d="M662 1233q160 0 273.5 -112.5t113.5 -274.5v-600q0 -109 -78 -186.5t-187 -77.5q-117 0 -182 92q-70 -92 -184 -92q-109 0 -186.5 77.5t-77.5 186.5v243q0 109 77.5 187t186.5 78q55 0 100 -33v29h166v-504q0 -41 28.5 -71t71.5 -30q41 0 71 30t30 71v600
q0 94 -65.5 158.5t-157.5 64.5h-134q-78 0 -138 -49t-77 -123l-159 47q35 127 138 208t236 81h134zM518 246v243q0 41 -28.5 71t-71.5 30q-41 0 -71 -30t-30 -71v-243q0 -41 30 -71t71 -30q43 0 71.5 30t28.5 71z" />
    <glyph glyph-name="A" unicode="A" 
d="M1036 584l4 -19q4 -20 10.5 -51t13.5 -69.5t11 -87t4 -93.5v-264h-221v283v20h-498v-20v-283h-221v264q0 45 4 93.5t10.5 87t12.5 69.5t10 51l4 19l182 651q23 80 91.5 132t154.5 52t154.5 -51t93.5 -133zM395 524h426q0 2 -1 5t-1 6l-174 636q-10 27 -37 27
q-31 0 -37 -27l-174 -636q0 -2 -1 -5.5t-1 -5.5z" />
    <glyph glyph-name="B" unicode="B" 
d="M909 717q74 -43 117 -118t43 -163v-49q0 -160 -113.5 -273.5t-273.5 -113.5h-473v1401h461q160 0 273.5 -112.5t113.5 -274.5v-25q-1 -176 -148 -272zM670 1180h-240v-357h240q70 0 118 48.5t48 117.5v25q0 70 -48 118t-118 48zM848 387v49q0 70 -48 118t-118 48h-252
v-381h252q70 0 118 48t48 118z" />
    <glyph glyph-name="C" unicode="C" 
d="M1047 1126l-213 -61q-10 57 -56.5 95t-105.5 38h-99q-70 0 -117.5 -49t-47.5 -117v-663q0 -70 48 -118t117 -48h99q59 0 105 39t57 94l213 -62q-33 -127 -137.5 -209.5t-237.5 -82.5h-99q-162 0 -274.5 113.5t-112.5 273.5v663q0 160 113 273.5t274 113.5h99
q133 0 237.5 -83t137.5 -210z" />
    <glyph glyph-name="D" unicode="D" 
d="M197 0v1401h460q160 0 273.5 -113.5t113.5 -273.5v-627q0 -160 -113.5 -273.5t-273.5 -113.5h-460zM418 221h239q70 0 118 48t48 118v627q0 70 -48 118t-118 48h-239v-959z" />
    <glyph glyph-name="E" unicode="E" 
d="M215 0v1401h848v-221h-627v-369h565v-221h-565v-369h627v-221h-848z" />
    <glyph glyph-name="F" unicode="F" 
d="M258 0v1401h848v-221h-627v-396h565v-221h-565v-563h-221z" />
    <glyph glyph-name="G" unicode="G" 
d="M1042 1126l-211 -61q-12 57 -58 95t-105 38h-103q-70 0 -118 -48t-48 -118v-663q0 -70 48.5 -118t117.5 -48h99q70 0 117.5 48t47.5 118v221h-239v221h461v-442q0 -160 -114 -273.5t-273 -113.5h-99q-160 0 -273.5 113.5t-113.5 273.5v665q2 160 115 272.5t272 112.5h103
q135 0 239 -83t135 -210z" />
    <glyph glyph-name="H" unicode="H" 
d="M811 1401h221v-1401h-221v590h-405v-590h-222v1401h222v-590h405v590z" />
    <glyph glyph-name="I" unicode="I" 
d="M184 221h314v959h-295v221h811v-221h-295v-959h313v-221h-848v221z" />
    <glyph glyph-name="J" unicode="J" 
d="M227 1401h774v-1032q0 -160 -113.5 -273.5t-273.5 -113.5h-82q-135 0 -239.5 81.5t-136.5 208.5l213 64q12 -57 57 -95t106 -38h82q70 0 118 48t48 118v811h-553v221z" />
    <glyph glyph-name="K" unicode="K" 
d="M197 1401h221v-584h104l269 293q70 76 69 164v127h221v-129q0 -25 -4 -58.5t-35.5 -113.5t-87.5 -142l-237 -251l252 -265q57 -61 89 -140t37 -114.5t5 -58.5v-129h-221v127q0 88 -72 162l-287 307h-102v-596h-221v1401z" />
    <glyph glyph-name="L" unicode="L" 
d="M233 1401h222v-1180h608v-221h-830v1401z" />
    <glyph glyph-name="M" unicode="M" 
d="M123 0v1401h274l211 -705l211 705h275v-1401h-222v1012l-167 -570h-191l-170 570v-1012h-221z" />
    <glyph glyph-name="N" unicode="N" 
d="M147 1401h277l424 -1000v1000h221v-1401h-276l-424 999v-999h-222v1401z" />
    <glyph glyph-name="O" unicode="O" 
d="M559 -18q-160 0 -273.5 113.5t-113.5 273.5v663q0 160 113.5 273.5t273.5 113.5h98q160 0 273.5 -113.5t113.5 -273.5v-663q0 -160 -113.5 -273.5t-273.5 -113.5h-98zM559 203h98q70 0 118 48t48 118v663q0 70 -48 118t-118 48h-98q-70 0 -118 -48t-48 -118v-663
q0 -70 48 -118t118 -48z" />
    <glyph glyph-name="P" unicode="P" 
d="M233 0v1401h461q160 0 273.5 -112.5t113.5 -274.5v-127q0 -162 -113.5 -274.5t-273.5 -112.5h-239v-500h-222zM455 721h239q70 0 118 48t48 118v127q0 70 -48 118t-118 48h-239v-459z" />
    <glyph glyph-name="Q" unicode="Q" 
d="M657 1419q160 0 273.5 -113.5t113.5 -273.5v-663q0 -143 -93 -252t-232 -131v-342h-221v342q-139 23 -232.5 131t-93.5 252v663q0 160 113.5 273.5t273.5 113.5h98zM823 369v663q0 70 -48 118t-118 48h-98q-70 0 -118 -48t-48 -118v-663q0 -70 48 -118t118 -48h98
q70 0 118 48t48 118z" />
    <glyph glyph-name="R" unicode="R" 
d="M940 442q129 -139 129 -313v-129h-221v129q0 88 -70 162l-225 237h-129v-528h-221v1401h461q162 0 274.5 -113.5t112.5 -273.5v-99q0 -115 -62.5 -210t-163.5 -142zM424 1180v-430h240q70 0 117.5 48t47.5 117v99q0 70 -48 118t-117 48h-240z" />
    <glyph glyph-name="S" unicode="S" 
d="M141 274l211 62q10 -57 57.5 -95t106.5 -38h139q68 0 117 48t49 118q0 143 -166 206l-174 66q-311 123 -311 391q0 162 113.5 274.5t273.5 112.5h96q135 0 239.5 -82t135.5 -209l-213 -61q-10 55 -56 93t-106 38h-96q-70 0 -118 -48t-48 -118q0 -59 35 -102t139 -84
l176 -68q141 -57 221 -162.5t80 -246.5q0 -162 -113.5 -274.5t-273.5 -112.5h-139q-135 0 -239.5 82.5t-135.5 209.5z" />
    <glyph glyph-name="T" unicode="T" 
d="M160 1401h897v-221h-338v-1180h-221v1180h-338v221z" />
    <glyph glyph-name="U" unicode="U" 
d="M174 1401h221v-1032q0 -70 48.5 -118t117.5 -48h98q70 0 118 48t48 118v1032h222v-1032q0 -160 -114 -273.5t-274 -113.5h-98q-162 0 -274.5 113.5t-112.5 273.5v1032z" />
    <glyph glyph-name="V" unicode="V" 
d="M139 1401h221v-285q0 -121 46 -248l202 -616q184 553 205 616q45 139 45 248v285h221v-266q0 -168 -51 -322l-276 -813h-287l-275 813q-51 154 -51 322v266z" />
    <glyph glyph-name="W" unicode="W" 
d="M104 1401h222v-275q0 -129 20 -249l74 -490l88 502h203l86 -500l75 488q20 135 21 251v273h221v-275q0 -145 -22 -286l-138 -840h-231l-115 575l-112 -575h-232l-139 840q-20 141 -21 286v275z" />
    <glyph glyph-name="X" unicode="X" 
d="M160 1401h221v-129q0 -27 15.5 -78t45.5 -88l166 -215l166 215q31 37 46.5 88t15.5 78v129h221v-129q0 -53 -25.5 -141.5t-83.5 -159.5l-203 -262l238 -310l8 -10q6 -12 13.5 -24.5t17.5 -32t19.5 -42t17.5 -49t12 -56t4 -60.5v-125h-221v125q0 20 -5 41.5t-11.5 38
t-13.5 30t-13 21.5l-4 8l-199 260l-198 -260q-4 -4 -13.5 -20.5t-22 -51t-12.5 -67.5v-125h-221v125q0 31 4.5 60.5t12.5 56t17 49t19.5 42t17.5 32t13 24.5l8 10l238 310l-203 262q-57 72 -82.5 160t-25.5 141v129z" />
    <glyph glyph-name="Y" unicode="Y" 
d="M1069 1112q0 -63 -22.5 -128.5t-40 -93.5t-29.5 -42l-258 -332v-516h-221v516l-258 332q-12 14 -29.5 42t-40.5 93.5t-23 128.5v289h222v-289q0 -31 11 -62.5t20.5 -47t13.5 -19.5l194 -250l195 250q4 4 13 19.5t20.5 47t11.5 62.5v289h221v-289z" />
    <glyph glyph-name="Z" unicode="Z" 
d="M199 1401h811v-221l-582 -959h600v-221h-848v221l580 959h-561v221z" />
    <glyph glyph-name="bracketleft" unicode="[" 
d="M397 -197v1598h535v-221h-314v-1155h314v-222h-535z" />
    <glyph glyph-name="backslash" unicode="\" 
d="M1063 0h-221v125q0 33 -12.5 67.5t-21.5 51t-13 20.5l-529 694q-113 145 -112 314v129h221v-129q2 -94 67 -178l529 -695l8 -10q6 -12 13 -24.5t17.5 -32t19.5 -42t17.5 -49t12.5 -56t4 -60.5v-125z" />
    <glyph glyph-name="bracketright" unicode="]" 
d="M819 -197h-534v222h313v1155h-313v221h534v-1598z" />
    <glyph glyph-name="asciicircum" unicode="^" 
d="M217 807l242 594h297l241 -594l-204 -84l-187 457l-184 -457z" />
    <glyph glyph-name="underscore" unicode="_" 
d="M203 -301v221h811v-221h-811z" />
    <glyph glyph-name="grave" unicode="`" 
d="M688 1155l-315 315l157 158l316 -315z" />
    <glyph glyph-name="a" unicode="a" 
d="M801 1044h221v-1044h-221v55q-100 -74 -221 -73h-19q-162 0 -274.5 113.5t-112.5 273.5v307q0 162 112.5 274.5t274.5 112.5h19q125 0 221 -74v55zM635 203q68 0 117 49t49 117v307q0 70 -49.5 118t-116.5 48h-74q-70 0 -118 -48.5t-48 -117.5v-307q0 -68 48.5 -117
t117.5 -49h74z" />
    <glyph glyph-name="b" unicode="b" 
d="M657 1063q162 0 274.5 -112.5t112.5 -274.5v-307q0 -160 -112.5 -273.5t-274.5 -113.5h-18q-121 0 -221 73v-55h-221v1401h221v-412q96 74 221 74h18zM823 369v307q0 70 -48 118t-118 48h-73q-68 0 -117 -48.5t-49 -117.5v-307q0 -68 49 -117t117 -49h73q70 0 118 49
t48 117z" />
    <glyph glyph-name="c" unicode="c" 
d="M203 369v307q0 160 113.5 273.5t273.5 113.5h78q135 0 239.5 -82t134.5 -209l-211 -61q-12 55 -58 93t-105 38h-78q-70 0 -118 -48.5t-48 -117.5v-307q0 -68 48 -117t118 -49h78q59 0 105 39t58 94l211 -62q-31 -127 -135 -209.5t-239 -82.5h-78q-160 0 -273.5 113.5
t-113.5 273.5z" />
    <glyph glyph-name="d" unicode="d" 
d="M799 1401h221v-1401h-221v55q-100 -74 -221 -73h-19q-162 0 -274.5 113.5t-112.5 273.5v307q0 162 112.5 274.5t274.5 112.5h19q125 0 221 -74v412zM633 203q68 0 117 49t49 117v307q0 70 -49.5 118t-116.5 48h-74q-70 0 -118 -48.5t-48 -117.5v-307q0 -68 48 -117
t118 -49h74z" />
    <glyph glyph-name="e" unicode="e" 
d="M578 1063h73q160 0 273.5 -113.5t113.5 -273.5v-236h-626v-71q0 -70 48 -118t118 -48h84q57 0 102 36.5t57 92.5l213 -64q-33 -125 -136 -205.5t-236 -80.5h-84q-160 0 -274 113.5t-114 273.5v307q0 160 114 273.5t274 113.5zM412 633h405v43q0 70 -48 118t-118 48h-73
q-70 0 -118 -48.5t-48 -117.5v-43z" />
    <glyph glyph-name="f" unicode="f" 
d="M184 0v221h234v510h-234v221h234v80q0 162 113.5 274.5t273.5 112.5h78q135 0 239.5 -82t134.5 -209l-210 -63q-12 57 -58.5 95t-105.5 38h-78q-70 0 -118 -48t-48 -118v-80h340v-221h-340v-510h412v-221h-867z" />
    <glyph glyph-name="g" unicode="g" 
d="M799 1044h221v-1032q0 -160 -112.5 -273.5t-272.5 -113.5h-78q-135 0 -239.5 83t-137.5 210l213 62q10 -57 56.5 -95.5t107.5 -38.5h78q68 0 116 49.5t48 116.5v113q-96 -74 -221 -74h-19q-160 0 -273.5 114t-113.5 273v238q0 162 113.5 274.5t273.5 112.5h19
q125 0 221 -74v55zM633 272q70 0 118 49.5t48 116.5v238q0 70 -48.5 118t-117.5 48h-74q-68 0 -117 -48.5t-49 -117.5v-238q0 -68 49.5 -117t116.5 -49h74z" />
    <glyph glyph-name="h" unicode="h" 
d="M651 1063q162 0 274.5 -112.5t112.5 -274.5v-676h-221v676q0 70 -48 118t-118 48h-73q-68 0 -117 -48.5t-49 -117.5v-676h-222v1401h222v-412q96 74 221 74h18z" />
    <glyph glyph-name="i" unicode="i" 
d="M541 1180v338h221v-338h-221zM264 1044h498v-823h319v-221h-884v221h344v602h-277v221z" />
    <glyph glyph-name="j" unicode="j" 
d="M635 1180v338h221v-338h-221zM223 1044h633v-1034q0 -160 -113.5 -272.5t-271.5 -112.5q-133 0 -235.5 79t-137.5 204l213 67q12 -55 56.5 -92t103.5 -37q68 0 116 48.5t48 115.5v813h-412v221z" />
    <glyph glyph-name="k" unicode="k" 
d="M215 1401h221v-774h146l174 147q31 27 49 61.5t22 57.5l2 22v129h222v-129q0 -25 -5.5 -60.5t-43 -113t-103.5 -133.5l-106 -90l147 -119q18 -16 41 -39.5t55.5 -92t32.5 -142.5v-125h-221v125q0 53 -49 102l-215 179h-148v-406h-221v1401z" />
    <glyph glyph-name="l" unicode="l" 
d="M1178 266q-33 -125 -135.5 -204.5t-235.5 -79.5q-158 0 -271.5 113.5t-113.5 271.5v813h-307v221h528v-1034q0 -68 48 -116t116 -48q57 0 103 36.5t59 92.5z" />
    <glyph glyph-name="m" unicode="m" 
d="M850 1063q115 0 197.5 -83t82.5 -198v-782h-221v750q0 39 -27.5 65.5t-64.5 26.5q-39 0 -65.5 -27t-26.5 -65v-750h-221v750q0 39 -27.5 65.5t-64.5 26.5q-39 0 -66 -27t-27 -65v-750h-221v1044h221v-45q68 63 158 64q109 0 174 -80q84 80 199 80z" />
    <glyph glyph-name="n" unicode="n" 
d="M651 1063q162 0 274.5 -112.5t112.5 -274.5v-676h-221v676q0 70 -48 118t-118 48h-73q-68 0 -117 -48.5t-49 -117.5v-676h-222v1044h222v-55q96 74 221 74h18z" />
    <glyph glyph-name="o" unicode="o" 
d="M571 1063h74q160 0 273.5 -113.5t113.5 -273.5v-307q0 -160 -113.5 -273.5t-273.5 -113.5h-74q-160 0 -273.5 113.5t-113.5 273.5v307q0 160 113.5 273.5t273.5 113.5zM571 842q-68 0 -116.5 -48.5t-48.5 -117.5v-307q0 -70 49 -118t116 -48h74q70 0 118 48t48 118v307
q0 70 -48 118t-118 48h-74z" />
    <glyph glyph-name="p" unicode="p" 
d="M657 1063q162 0 274.5 -113.5t112.5 -273.5v-307q0 -162 -112.5 -274.5t-274.5 -112.5h-18q-125 0 -221 73v-411h-221v1400h221v-55q100 74 221 74h18zM823 369v307q0 68 -48 117t-118 49h-73q-68 0 -117 -49.5t-49 -116.5v-307q0 -70 49 -118t117 -48h73q70 0 118 48
t48 118z" />
    <glyph glyph-name="q" unicode="q" 
d="M799 1044h221v-1400h-221v411q-96 -74 -221 -73h-19q-162 0 -274.5 112.5t-112.5 274.5v307q0 160 112.5 273.5t274.5 113.5h19q121 0 221 -74v55zM633 203q68 0 117 48t49 118v307q0 68 -49.5 117t-116.5 49h-74q-70 0 -118 -49.5t-48 -116.5v-307q0 -70 48 -118
t118 -48h74z" />
    <glyph glyph-name="r" unicode="r" 
d="M111 0v221h208v455q0 162 114 274.5t274 112.5h77q135 0 239.5 -82t137.5 -209l-213 -63q-12 57 -57 95t-107 38h-77q-70 0 -118 -48.5t-48 -117.5v-455h442v-221h-872z" />
    <glyph glyph-name="s" unicode="s" 
d="M184 217l213 66q6 -35 33 -57.5t62 -22.5h225q39 0 67.5 28.5t28.5 67.5q0 47 -32.5 74.5t-80.5 32.5l-190 22q-131 12 -218 102.5t-87 214.5q0 131 92 224.5t225 93.5h189q111 0 194.5 -65.5t112.5 -170.5l-213 -61q-6 33 -33 54.5t-61 21.5h-189q-39 0 -67.5 -28
t-28.5 -68.5t31.5 -67.5t79.5 -31l196 -22q131 -16 216 -106.5t85 -219.5q0 -131 -93 -224t-224 -93h-225q-109 0 -194 66.5t-114 168.5z" />
    <glyph glyph-name="t" unicode="t" 
d="M106 823v221h283v283h221v-283h455v-221h-455v-456q0 -68 48.5 -116t115.5 -48q57 0 102.5 36.5t57.5 92.5l211 -66q-33 -123 -136.5 -203.5t-234.5 -80.5q-158 0 -271.5 113.5t-113.5 271.5v456h-283z" />
    <glyph glyph-name="u" unicode="u" 
d="M184 1044h222v-675q0 -70 48 -118t117 -48h74q70 0 118 48t48 118v675h221v-675q0 -160 -113.5 -273.5t-273.5 -113.5h-74q-160 0 -273.5 113.5t-113.5 273.5v675z" />
    <glyph glyph-name="v" unicode="v" 
d="M147 1044h222v-129q0 -106 51 -219l188 -426l189 426q51 113 51 219v129h221v-129q0 -152 -70 -309l-270 -606h-242l-270 606q-70 158 -70 309v129z" />
    <glyph glyph-name="w" unicode="w" 
d="M102 913v131h222v-131q0 -113 26 -239l64 -322l104 514h180l105 -514l63 322q29 125 29 239v131h221v-131q0 -145 -33 -288l-139 -625h-221l-115 563l-114 -563h-222l-139 625q-31 143 -31 288z" />
    <glyph glyph-name="x" unicode="x" 
d="M184 1044h222v-126q0 -10 3 -28t21.5 -51.5t48.5 -58.5l127 -100l131 102q74 59 74 133v129h221v-129q0 -82 -45 -166.5t-115 -140.5l-112 -88l158 -123q16 -10 41.5 -36.5t58.5 -94t33 -141.5v-125h-222v125q0 27 -12 50.5t-23.5 35.5t-13.5 12l-172 137l-172 -135
q-49 -49 -49 -100v-125h-221v125q0 74 32.5 141.5t58.5 94t42 36.5l154 123l-113 88q-68 53 -106.5 131t-44 114t-5.5 62v129z" />
    <glyph glyph-name="y" unicode="y" 
d="M152 1044h221v-131q0 -98 53 -196l186 -340l189 340q51 92 51 196v131h221v-131q0 -162 -80 -305l-440 -798q-43 -74 -119 -120t-166 -46h-174v221h174q51 0 92 55l125 230l-254 458q-80 143 -79 305v131z" />
    <glyph glyph-name="z" unicode="z" 
d="M227 1044h768v-221l-495 -602h514v-221h-805v221l496 602h-478v221z" />
    <glyph glyph-name="braceleft" unicode="{" 
d="M700 848q0 -147 -114 -246q115 -98 114 -246v-196q0 -55 39 -95t97 -40h178v-222h-178q-150 0 -253.5 103.5t-103.5 253.5v196q0 55 -40 95.5t-95 40.5h-37v221h37q55 0 95 40t40 95v196q0 150 103.5 253.5t253.5 103.5h178v-221h-178q-57 0 -96.5 -40t-39.5 -96v-196z
" />
    <glyph glyph-name="bar" unicode="|" 
d="M498 -197v1598h221v-1598h-221z" />
    <glyph glyph-name="braceright" unicode="}" 
d="M872 713h37v-221h-37q-55 0 -95 -40t-40 -96v-196q0 -150 -103.5 -253.5t-252.5 -103.5h-178v222h178q57 0 96 39.5t39 95.5v196q0 147 115 246q-115 98 -115 246v196q0 55 -39 95.5t-96 40.5h-178v221h178q150 0 253 -103.5t103 -253.5v-196q0 -55 40 -95t95 -40z" />
    <glyph glyph-name="asciitilde" unicode="~" 
d="M195 467v39q0 117 82.5 198.5t197.5 81.5q82 0 152 -47q14 -8 33.5 -22.5t30.5 -21.5t24.5 -13t25.5 -6q25 0 42.5 17.5t17.5 41.5v39h221v-39q0 -117 -82 -198.5t-199 -81.5q-82 0 -151 45q-12 8 -39 27.5t-44.5 28.5t-31.5 9q-25 0 -42 -17.5t-17 -41.5v-39h-221z" />
    <glyph glyph-name="uni00A0" unicode="&#xa0;" 
 />
    <glyph glyph-name="exclamdown" unicode="&#xa1;" 
d="M498 1044h221v-319h-221v319zM498 571h221v-927h-221v927z" />
    <glyph glyph-name="cent" unicode="&#xa2;" 
d="M668 381q59 0 105 39t58 94l211 -61q-27 -109 -109.5 -188t-195.5 -99v-166h-221v166q-135 27 -224 134.5t-89 246.5v307q0 139 89 246.5t224 134.5v166h221v-166q113 -20 196 -98t109 -187l-211 -61q-12 55 -58 93t-105 38h-78q-70 0 -118 -48t-48 -118v-307
q0 -68 48 -117t118 -49h78z" />
    <glyph glyph-name="sterling" unicode="&#xa3;" 
d="M940 311l213 -63q-29 -109 -120 -178.5t-206 -69.5h-690v221h15q57 0 99 41t42 100v228h-156v221h156v223q0 160 113.5 272.5t273.5 112.5q135 0 238.5 -83t136.5 -210l-213 -61q-10 57 -56.5 95t-105.5 38q-70 0 -118 -49t-48 -117v-221h377v-221h-377v-176
q0 -106 -63 -193h376q41 0 72 25.5t41 64.5z" />
    <glyph glyph-name="currency" unicode="&#xa4;" 
d="M1024 635q0 -100 -47 -184l164 -164l-156 -156l-164 164q-84 -47 -184 -47h-57q-100 0 -185 47l-164 -164l-155 156l164 164q-47 82 -47 184v57q0 100 47 185l-164 161l155 158l164 -164q84 47 185 47h57q100 0 184 -47l164 164l156 -158l-164 -164q47 -82 47 -182v-57z
M580 469h57q70 0 118 48t48 118v57q0 68 -48 117t-118 49h-57q-70 0 -118 -49t-48 -117v-57q0 -70 48 -118t118 -48z" />
    <glyph glyph-name="yen" unicode="&#xa5;" 
d="M1069 1112q0 -63 -22.5 -128.5t-40 -93.5t-29.5 -42l-10 -14h80v-222h-252l-72 -92h324v-221h-328v-299h-221v299h-328v221h324l-72 92h-252v222h80l-10 14q-12 14 -29.5 42t-40.5 93.5t-23 128.5v289h222v-289q0 -31 11 -62.5t20.5 -47t13.5 -19.5l194 -250l195 250
q4 4 13 19.5t20.5 47t11.5 62.5v289h221v-289z" />
    <glyph glyph-name="brokenbar" unicode="&#xa6;" 
d="M498 731v670h221v-670h-221zM498 -197v670h221v-670h-221z" />
    <glyph glyph-name="section" unicode="&#xa7;" 
d="M1026 1126l-213 -61q-10 57 -56 95t-106 38h-84q-70 0 -118 -48t-48 -118q0 -72 46.5 -113.5t138.5 -66.5l164 -41q199 -49 281.5 -160.5t82.5 -238.5q0 -152 -100 -258q27 -72 26 -142q0 -162 -113.5 -274.5t-273.5 -112.5h-84q-135 0 -239.5 82t-136.5 209l213 61
q10 -55 56 -93t107 -38h84q70 0 118 48.5t48 117.5q0 133 -186 181l-162 38q-201 51 -283 162t-82 240q0 150 99 258q-25 59 -25 141q0 160 113 273.5t274 113.5h84q135 0 238.5 -83t136.5 -210zM328 633q0 -18 1 -30.5t11 -37t29.5 -43t59.5 -40t95 -36.5l164 -40
q106 -27 180 -78q25 37 25 84q0 23 -4 40t-19.5 46.5t-59.5 55.5t-114 44l-164 39q-119 33 -182 80q-22 -39 -22 -84z" />
    <glyph glyph-name="dieresis" unicode="&#xa8;" 
d="M301 1192v338h221v-338h-221zM694 1192v338h221v-338h-221z" />
    <glyph glyph-name="copyright" unicode="&#xa9;" 
d="M152 580v239q0 190 133 323.5t323.5 133.5t324.5 -133t134 -324v-239q0 -188 -135 -323.5t-324 -135.5q-190 0 -323 134.5t-133 324.5zM274 580q0 -137 98.5 -235.5t235.5 -98.5t235.5 98t98.5 236v239q0 137 -98.5 235.5t-235.5 98.5t-235.5 -97.5t-98.5 -236.5v-239z
M803 879l-119 -35q-4 39 -47 39h-41q-18 0 -32.5 -13.5t-14.5 -31.5v-263q0 -20 14.5 -33.5t32.5 -13.5h41q43 0 47 39l119 -35q-14 -55 -60.5 -92t-105.5 -37h-41q-70 0 -119 50.5t-49 121.5v263q0 70 49 120t119 50h41q59 0 105.5 -37t60.5 -92z" />
    <glyph glyph-name="ordfeminine" unicode="&#xaa;" 
d="M326 1004v170q0 100 69.5 169.5t169.5 69.5h6q59 0 115 -35v23h164v-627h-164v23q-55 -35 -115 -35h-6q-100 0 -169.5 71t-69.5 171zM489 1004q0 -31 23 -54.5t53 -23.5h45q31 0 53.5 23.5t22.5 54.5v170q0 31 -22.5 53t-53.5 22h-45q-33 0 -54.5 -22.5t-21.5 -52.5v-170
zM350 629h490v-166h-490v166z" />
    <glyph glyph-name="guillemotleft" unicode="&#xab;" 
d="M70 592l430 432l155 -156l-276 -276l276 -275l-155 -155zM561 592l430 432l156 -156l-277 -276l277 -275l-156 -155z" />
    <glyph glyph-name="logicalnot" unicode="&#xac;" 
d="M160 584v221h854v-529h-221v308h-633z" />
    <glyph glyph-name="registered" unicode="&#xae;" 
d="M152 580v239q0 190 133 323.5t323.5 133.5t324.5 -133t134 -324v-239q0 -188 -135 -323.5t-324 -135.5q-190 0 -323 134.5t-133 324.5zM274 580q0 -137 98.5 -235.5t235.5 -98.5t235.5 98t98.5 236v239q0 137 -98.5 235.5t-235.5 98.5t-235.5 -97.5t-98.5 -236.5v-239z
M434 997h199q72 0 122 -49t50 -119v-41q0 -98 -82 -147l2 -2l29 -33q59 -63 59 -141v-55h-125v55q0 29 -24 57l-91 94h-16v-206h-123v587zM557 874v-133h76q20 0 33.5 13.5t13.5 33.5v41q0 18 -13.5 31.5t-33.5 13.5h-76z" />
    <glyph glyph-name="macron" unicode="&#xaf;" 
d="M301 1196v221h614v-221h-614z" />
    <glyph glyph-name="degree" unicode="&#xb0;" 
d="M270 1081.5q0 139.5 99.5 238.5t238.5 99q141 0 239.5 -99t98.5 -238.5t-98 -239t-240 -99.5q-139 0 -238.5 99.5t-99.5 239zM492 1081q0 -47 34.5 -81.5t81.5 -34.5t82 34.5t35 81.5t-35 82t-82 35t-81.5 -35t-34.5 -82z" />
    <glyph glyph-name="plusminus" unicode="&#xb1;" 
d="M182 643v221h316v221h221v-221h315v-221h-315v-221h-221v221h-316zM182 104v222h852v-222h-852z" />
    <glyph glyph-name="uni00B2" unicode="&#xb2;" 
d="M346 1587q18 80 84 131t150 51h53q100 0 169.5 -69.5t69.5 -169.5q0 -109 -46 -167t-158 -116l-45 -22q-66 -31 -87.5 -61.5t-23.5 -71.5v-13h360v-164h-524v140q0 123 46 194.5t157 124.5l16 8q96 45 119 70t23 78q0 31 -21.5 53.5t-54.5 22.5h-53q-63 0 -78 -66z" />
    <glyph glyph-name="uni00B3" unicode="&#xb3;" 
d="M334 1087l158 48q4 -29 25.5 -47.5t47.5 -18.5h49q33 0 55.5 22.5t22.5 53.5v63q0 33 -22.5 55.5t-55.5 22.5h-133v164l146 145h-279v164h492v-164l-142 -139l-12 -14q74 -23 121 -87.5t47 -146.5v-63q0 -98 -69.5 -169t-170.5 -71h-49q-84 0 -148.5 52t-82.5 130z" />
    <glyph glyph-name="acute" unicode="&#xb4;" 
d="M530 1155l-157 158l315 315l158 -158z" />
    <glyph glyph-name="uni00B5" unicode="&#xb5;" 
d="M1063 221h63v-221h-61q-141 0 -225 115q-88 -133 -250 -133h-12q-109 0 -197 73v-411h-221v1400h221v-675q0 -70 48 -118t118 -48h74q70 0 117.5 48t47.5 118v675h222v-768q0 -23 16 -39t39 -16z" />
    <glyph glyph-name="paragraph" unicode="&#xb6;" 
d="M147 840v178q0 158 114 271.5t274 113.5l485 -2v-1757h-221v1536l-264 2q-68 0 -117 -49.5t-49 -116.5v-176q0 -70 49 -118t117 -48h151v-221h-151q-162 0 -275 112.5t-113 274.5z" />
    <glyph glyph-name="periodcentered" unicode="&#xb7;" 
d="M498 422v338h221v-338h-221z" />
    <glyph glyph-name="cedilla" unicode="&#xb8;" 
d="M739 -88q78 -35 125 -106.5t47 -157.5q0 -119 -85 -204t-203 -85h-105v221h105q29 0 48 19.5t19 48t-19.5 48t-47.5 19.5h-105v285h221v-88z" />
    <glyph glyph-name="uni00B9" unicode="&#xb9;" 
d="M322 1505l251 252h146v-680h162v-162h-525v162h201v432l-123 -118z" />
    <glyph glyph-name="ordmasculine" unicode="&#xba;" 
d="M346 1004v170q0 100 70.5 169.5t169.5 69.5h45q100 0 169.5 -69.5t69.5 -169.5v-170q0 -100 -69.5 -170t-169.5 -70h-45q-98 0 -169 70t-71 170zM510 1004q0 -31 22.5 -53.5t53.5 -22.5h45q33 0 54.5 22.5t21.5 53.5v170q0 31 -21.5 53t-54.5 22h-45q-31 0 -53.5 -22.5
t-22.5 -52.5v-170zM360 463v166h496v-166h-496z" />
    <glyph glyph-name="guillemotright" unicode="&#xbb;" 
d="M655 592l-430 -430l-155 155l276 275l-276 276l155 156zM1147 592l-430 -430l-156 155l277 275l-277 276l156 156z" />
    <glyph glyph-name="onequarter" unicode="&#xbc;" 
d="M322 1505l251 252h146v-680h162v-162h-525v162h201v432l-123 -118zM127 782h965v-164h-965v164zM371 -170v168q0 109 51 205l166 299l143 -80l-166 -297q-33 -61 -33 -123v-8h154v162h164v-512h-164v186h-315z" />
    <glyph glyph-name="onehalf" unicode="&#xbd;" 
d="M322 1505l251 252h146v-680h162v-162h-525v162h201v432l-123 -118zM127 782h965v-164h-965v164zM346 315q18 80 84 131.5t150 51.5h53q100 0 169.5 -70t69.5 -170q0 -109 -46 -167t-158 -116l-45 -22q-66 -31 -87.5 -61.5t-23.5 -71.5v-13h360v-163h-524v139
q0 123 46 194.5t157 124.5l16 9q96 45 119 69.5t23 77.5q0 31 -21.5 53.5t-54.5 22.5h-53q-63 0 -78 -66z" />
    <glyph glyph-name="threequarters" unicode="&#xbe;" 
d="M334 1087l158 48q4 -29 25.5 -47.5t47.5 -18.5h49q33 0 55.5 22.5t22.5 53.5v63q0 33 -22.5 55.5t-55.5 22.5h-133v164l146 145h-279v164h492v-164l-142 -139l-12 -14q74 -23 121 -87.5t47 -146.5v-63q0 -98 -69.5 -169t-170.5 -71h-49q-84 0 -148.5 52t-82.5 130z
M127 782h965v-164h-965v164zM371 -170v168q0 109 51 205l166 299l143 -80l-166 -297q-33 -61 -33 -123v-8h154v162h164v-512h-164v186h-315z" />
    <glyph glyph-name="questiondown" unicode="&#xbf;" 
d="M750 1044v-319h-222v319h222zM1055 -84q-31 -127 -135.5 -209t-239.5 -82h-98q-160 0 -273.5 112.5t-113.5 274.5q0 113 59 209t164 158q111 66 110 156v36h222v-36q0 -221 -222 -347q-113 -72 -112 -176q0 -70 48 -118t118 -48h98q59 0 105 38t59 93z" />
    <glyph glyph-name="Agrave" unicode="&#xc0;" 
d="M770 1669l-158 -158l-315 316l158 158zM1036 584l4 -19q4 -20 10.5 -51t13.5 -69.5t11 -87t4 -93.5v-264h-221v283v20h-498v-20v-283h-221v264q0 45 4 93.5t10.5 87t12.5 69.5t10 51l4 19l182 651q23 80 91.5 132t154.5 52t154.5 -51t93.5 -133zM395 524h426q0 2 -1 5
t-1 6l-174 636q-10 27 -37 27q-31 0 -37 -27l-174 -636q0 -2 -1 -5.5t-1 -5.5z" />
    <glyph glyph-name="Aacute" unicode="&#xc1;" 
d="M920 1827l-316 -316l-158 158l316 316zM1036 584l4 -19q4 -20 10.5 -51t13.5 -69.5t11 -87t4 -93.5v-264h-221v283v20h-498v-20v-283h-221v264q0 45 4 93.5t10.5 87t12.5 69.5t10 51l4 19l182 651q23 80 91.5 132t154.5 52t154.5 -51t93.5 -133zM395 524h426q0 2 -1 5
t-1 6l-174 636q-10 27 -37 27q-31 0 -37 -27l-174 -636q0 -2 -1 -5.5t-1 -5.5z" />
    <glyph glyph-name="Acircumflex" unicode="&#xc2;" 
d="M608 1667l-192 -194l-158 157l258 258h184l258 -258l-155 -157zM1036 584l4 -19q4 -20 10.5 -51t13.5 -69.5t11 -87t4 -93.5v-264h-221v283v20h-498v-20v-283h-221v264q0 45 4 93.5t10.5 87t12.5 69.5t10 51l4 19l182 651q23 80 91.5 132t154.5 52t154.5 -51t93.5 -133z
M395 524h426q0 2 -1 5t-1 6l-174 636q-10 27 -37 27q-31 0 -37 -27l-174 -636q0 -2 -1 -5.5t-1 -5.5z" />
    <glyph glyph-name="Atilde" unicode="&#xc3;" 
d="M416 1606v-39h-221v39q0 117 82.5 198.5t197.5 81.5q82 0 152 -47q14 -8 33.5 -22.5t30.5 -21.5t24.5 -13t25.5 -6q25 0 42.5 17t17.5 42v39h221v-39q0 -117 -82 -199t-199 -82q-82 0 -151 45q-12 8 -39 28t-44.5 29t-31.5 9q-25 0 -42 -17t-17 -42zM1036 584l4 -19
q4 -20 10.5 -51t13.5 -69.5t11 -87t4 -93.5v-264h-221v283v20h-498v-20v-283h-221v264q0 45 4 93.5t10.5 87t12.5 69.5t10 51l4 19l182 651q23 80 91.5 132t154.5 52t154.5 -51t93.5 -133zM395 524h426q0 2 -1 5t-1 6l-174 636q-10 27 -37 27q-31 0 -37 -27l-174 -636
q0 -2 -1 -5.5t-1 -5.5z" />
    <glyph glyph-name="Adieresis" unicode="&#xc4;" 
d="M522 1874v-338h-221v338h221zM915 1874v-338h-221v338h221zM1036 584l4 -19q4 -20 10.5 -51t13.5 -69.5t11 -87t4 -93.5v-264h-221v283v20h-498v-20v-283h-221v264q0 45 4 93.5t10.5 87t12.5 69.5t10 51l4 19l182 651q23 80 91.5 132t154.5 52t154.5 -51t93.5 -133z
M395 524h426q0 2 -1 5t-1 6l-174 636q-10 27 -37 27q-31 0 -37 -27l-174 -636q0 -2 -1 -5.5t-1 -5.5z" />
    <glyph glyph-name="Aring" unicode="&#xc5;" 
d="M1036 584l4 -19q4 -20 10.5 -51t13.5 -69.5t11 -87t4 -93.5v-264h-221v283v20h-498v-20v-283h-221v264q0 45 4 93.5t10.5 87t12.5 69.5t10 51l4 19l182 651q6 23 27 63q-70 80 -70 189q0 119 84 204t205 85t205 -85t84 -204q0 -106 -70 -189q20 -35 29 -63zM608.5 1554
q-26.5 0 -47 -19t-20.5 -48t20.5 -48.5t47 -19.5t47 19.5t20.5 48.5t-20.5 48t-47 19zM395 524h426q0 2 -1 5t-1 6l-174 636q-10 27 -37 27q-31 0 -37 -27l-174 -636q0 -2 -1 -5.5t-1 -5.5z" />
    <glyph glyph-name="AE" unicode="&#xc6;" 
d="M1081 1180h-272v-369h211v-221h-211v-369h272v-221h-493v301h-252v-18v-283h-221v264q0 72 10 152t18.5 118.5t12.5 49.5l182 651q23 80 91.5 132t154.5 52q51 0 94 -18h403v-221zM369 522h219v676h-4q-29 0 -37 -27l-174 -636q0 -2 -2 -6.5t-2 -6.5z" />
    <glyph glyph-name="Ccedilla" unicode="&#xc7;" 
d="M672 203q59 0 105 39t57 94l213 -62q-29 -117 -119 -196.5t-209 -93.5v-72q78 -35 125 -106.5t47 -157.5q0 -119 -85 -204t-204 -85h-104v221h104q29 0 48.5 19.5t19.5 48t-19.5 48t-48.5 19.5h-104v275q-135 27 -223.5 133t-88.5 246v663q0 160 113 273.5t274 113.5h99
q133 0 237.5 -83t137.5 -210l-213 -61q-10 57 -56.5 95t-105.5 38h-99q-70 0 -117.5 -49t-47.5 -117v-663q0 -70 48 -118t117 -48h99z" />
    <glyph glyph-name="Egrave" unicode="&#xc8;" 
d="M633 1511l-316 316l158 158l316 -316zM215 0v1401h848v-221h-627v-369h565v-221h-565v-369h627v-221h-848z" />
    <glyph glyph-name="Eacute" unicode="&#xc9;" 
d="M625 1511l-158 158l315 316l158 -158zM215 0v1401h848v-221h-627v-369h565v-221h-565v-369h627v-221h-848z" />
    <glyph glyph-name="Ecircumflex" unicode="&#xca;" 
d="M279 1630l258 258h184l258 -258l-156 -157l-194 194l-193 -194zM215 0v1401h848v-221h-627v-369h565v-221h-565v-369h627v-221h-848z" />
    <glyph glyph-name="Edieresis" unicode="&#xcb;" 
d="M322 1536v338h221v-338h-221zM715 1536v338h221v-338h-221zM215 0v1401h848v-221h-627v-369h565v-221h-565v-369h627v-221h-848z" />
    <glyph glyph-name="Igrave" unicode="&#xcc;" 
d="M612 1511l-315 316l158 158l315 -316zM184 221h314v959h-295v221h811v-221h-295v-959h313v-221h-848v221z" />
    <glyph glyph-name="Iacute" unicode="&#xcd;" 
d="M604 1511l-158 158l316 316l158 -158zM184 221h314v959h-295v221h811v-221h-295v-959h313v-221h-848v221z" />
    <glyph glyph-name="Icircumflex" unicode="&#xce;" 
d="M258 1630l258 258h184l258 -258l-155 -157l-195 194l-192 -194zM184 221h314v959h-295v221h811v-221h-295v-959h313v-221h-848v221z" />
    <glyph glyph-name="Idieresis" unicode="&#xcf;" 
d="M301 1536v338h221v-338h-221zM694 1536v338h221v-338h-221zM184 221h314v959h-295v221h811v-221h-295v-959h313v-221h-848v221z" />
    <glyph glyph-name="Eth" unicode="&#xd0;" 
d="M676 1401q160 0 273.5 -113.5t113.5 -273.5v-627q0 -160 -113.5 -273.5t-273.5 -113.5h-461v590h-170v221h170v590h461zM842 387v627q0 70 -48.5 118t-117.5 48h-240v-369h258v-221h-258v-369h240q70 0 118 48t48 118z" />
    <glyph glyph-name="Ntilde" unicode="&#xd1;" 
d="M195 1567v39q0 117 82.5 198.5t197.5 81.5q82 0 152 -47q14 -8 33.5 -22.5t30.5 -21.5t24.5 -13t25.5 -6q25 0 42.5 17t17.5 42v39h221v-39q0 -117 -82 -199t-199 -82q-82 0 -151 45q-12 8 -39 28t-44.5 29t-31.5 9q-25 0 -42 -17.5t-17 -41.5v-39h-221zM147 1401h277
l424 -1000v1000h221v-1401h-276l-424 999v-999h-222v1401z" />
    <glyph glyph-name="Ograve" unicode="&#xd2;" 
d="M612 1511l-315 316l158 158l315 -316zM559 -18q-160 0 -273.5 113.5t-113.5 273.5v663q0 160 113.5 273.5t273.5 113.5h98q160 0 273.5 -113.5t113.5 -273.5v-663q0 -160 -113.5 -273.5t-273.5 -113.5h-98zM559 203h98q70 0 118 48t48 118v663q0 70 -48 118t-118 48h-98
q-70 0 -118 -48t-48 -118v-663q0 -70 48 -118t118 -48z" />
    <glyph glyph-name="Oacute" unicode="&#xd3;" 
d="M604 1511l-158 158l316 316l158 -158zM559 -18q-160 0 -273.5 113.5t-113.5 273.5v663q0 160 113.5 273.5t273.5 113.5h98q160 0 273.5 -113.5t113.5 -273.5v-663q0 -160 -113.5 -273.5t-273.5 -113.5h-98zM559 203h98q70 0 118 48t48 118v663q0 70 -48 118t-118 48h-98
q-70 0 -118 -48t-48 -118v-663q0 -70 48 -118t118 -48z" />
    <glyph glyph-name="Ocircumflex" unicode="&#xd4;" 
d="M258 1630l258 258h184l258 -258l-155 -157l-195 194l-192 -194zM559 -18q-160 0 -273.5 113.5t-113.5 273.5v663q0 160 113.5 273.5t273.5 113.5h98q160 0 273.5 -113.5t113.5 -273.5v-663q0 -160 -113.5 -273.5t-273.5 -113.5h-98zM559 203h98q70 0 118 48t48 118v663
q0 70 -48 118t-118 48h-98q-70 0 -118 -48t-48 -118v-663q0 -70 48 -118t118 -48z" />
    <glyph glyph-name="Otilde" unicode="&#xd5;" 
d="M195 1567v39q0 117 82.5 198.5t197.5 81.5q82 0 152 -47q14 -8 33.5 -22.5t30.5 -21.5t24.5 -13t25.5 -6q25 0 42.5 17t17.5 42v39h221v-39q0 -117 -82 -199t-199 -82q-82 0 -151 45q-12 8 -39 28t-44.5 29t-31.5 9q-25 0 -42 -17.5t-17 -41.5v-39h-221zM559 -18
q-160 0 -273.5 113.5t-113.5 273.5v663q0 160 113.5 273.5t273.5 113.5h98q160 0 273.5 -113.5t113.5 -273.5v-663q0 -160 -113.5 -273.5t-273.5 -113.5h-98zM559 203h98q70 0 118 48t48 118v663q0 70 -48 118t-118 48h-98q-70 0 -118 -48t-48 -118v-663q0 -70 48 -118
t118 -48z" />
    <glyph glyph-name="Odieresis" unicode="&#xd6;" 
d="M301 1536v338h221v-338h-221zM694 1536v338h221v-338h-221zM559 -18q-160 0 -273.5 113.5t-113.5 273.5v663q0 160 113.5 273.5t273.5 113.5h98q160 0 273.5 -113.5t113.5 -273.5v-663q0 -160 -113.5 -273.5t-273.5 -113.5h-98zM559 203h98q70 0 118 48t48 118v663
q0 70 -48 118t-118 48h-98q-70 0 -118 -48t-48 -118v-663q0 -70 48 -118t118 -48z" />
    <glyph glyph-name="multiply" unicode="&#xd7;" 
d="M205 346l246 246l-246 246l157 155l244 -245l248 245l156 -155l-246 -246l246 -248l-156 -156l-248 248l-244 -246z" />
    <glyph glyph-name="Oslash" unicode="&#xd8;" 
d="M1163 1393l-141 -232q23 -61 22 -129v-663q0 -160 -113.5 -273.5t-273.5 -113.5h-98q-119 0 -219 67l-96 -158l-191 117l142 230q-23 63 -23 131v663q0 160 113.5 273.5t273.5 113.5h98q119 0 222 -69l96 157zM393 1032v-471l369 600q-47 37 -105 37h-98q-70 0 -118 -48
t-48 -118zM823 369v469l-366 -600q41 -35 102 -35h98q70 0 118 48t48 118z" />
    <glyph glyph-name="Ugrave" unicode="&#xd9;" 
d="M612 1511l-315 316l158 158l315 -316zM174 1401h221v-1032q0 -70 48.5 -118t117.5 -48h98q70 0 118 48t48 118v1032h222v-1032q0 -160 -114 -273.5t-274 -113.5h-98q-162 0 -274.5 113.5t-112.5 273.5v1032z" />
    <glyph glyph-name="Uacute" unicode="&#xda;" 
d="M604 1511l-158 158l316 316l158 -158zM174 1401h221v-1032q0 -70 48.5 -118t117.5 -48h98q70 0 118 48t48 118v1032h222v-1032q0 -160 -114 -273.5t-274 -113.5h-98q-162 0 -274.5 113.5t-112.5 273.5v1032z" />
    <glyph glyph-name="Ucircumflex" unicode="&#xdb;" 
d="M258 1630l258 258h184l258 -258l-155 -157l-195 194l-192 -194zM174 1401h221v-1032q0 -70 48.5 -118t117.5 -48h98q70 0 118 48t48 118v1032h222v-1032q0 -160 -114 -273.5t-274 -113.5h-98q-162 0 -274.5 113.5t-112.5 273.5v1032z" />
    <glyph glyph-name="Udieresis" unicode="&#xdc;" 
d="M301 1536v338h221v-338h-221zM694 1536v338h221v-338h-221zM174 1401h221v-1032q0 -70 48.5 -118t117.5 -48h98q70 0 118 48t48 118v1032h222v-1032q0 -160 -114 -273.5t-274 -113.5h-98q-162 0 -274.5 113.5t-112.5 273.5v1032z" />
    <glyph glyph-name="Yacute" unicode="&#xdd;" 
d="M604 1511l-158 158l316 316l158 -158zM1069 1112q0 -63 -22.5 -128.5t-40 -93.5t-29.5 -42l-258 -332v-516h-221v516l-258 332q-12 14 -29.5 42t-40.5 93.5t-23 128.5v289h222v-289q0 -31 11 -62.5t20.5 -47t13.5 -19.5l194 -250l195 250q4 4 13 19.5t20.5 47t11.5 62.5
v289h221v-289z" />
    <glyph glyph-name="Thorn" unicode="&#xde;" 
d="M233 0v1401h222v-250h239q162 0 274.5 -112.5t112.5 -274.5v-127q0 -160 -112.5 -273.5t-274.5 -113.5h-239v-250h-222zM455 471h239q70 0 118 48t48 118v127q0 70 -48 118t-118 48h-239v-459z" />
    <glyph glyph-name="germandbls" unicode="&#xdf;" 
d="M903 735q74 -43 117 -117.5t43 -162.5v-68q0 -160 -113.5 -273.5t-273.5 -113.5h-144v221h144q68 0 117 48t49 118v68q0 70 -49.5 118t-116.5 48h-107v221h95q68 0 116.5 48t48.5 118v24q0 70 -49 118t-116 48h-62q-70 0 -118 -48t-48 -118v-1032h-221v1032
q0 160 113.5 273.5t273.5 113.5h62q160 0 273.5 -113.5t113.5 -273.5v-24q-1 -177 -148 -273z" />
    <glyph glyph-name="agrave" unicode="&#xe0;" 
d="M770 1313l-158 -158l-315 315l158 158zM801 1044h221v-1044h-221v55q-100 -74 -221 -73h-19q-162 0 -274.5 113.5t-112.5 273.5v307q0 162 112.5 274.5t274.5 112.5h19q125 0 221 -74v55zM635 203q68 0 117 49t49 117v307q0 70 -49.5 118t-116.5 48h-74q-70 0 -118 -48.5
t-48 -117.5v-307q0 -68 48.5 -117t117.5 -49h74z" />
    <glyph glyph-name="aacute" unicode="&#xe1;" 
d="M920 1470l-316 -315l-158 158l316 315zM801 1044h221v-1044h-221v55q-100 -74 -221 -73h-19q-162 0 -274.5 113.5t-112.5 273.5v307q0 162 112.5 274.5t274.5 112.5h19q125 0 221 -74v55zM635 203q68 0 117 49t49 117v307q0 70 -49.5 118t-116.5 48h-74q-70 0 -118 -48.5
t-48 -117.5v-307q0 -68 48.5 -117t117.5 -49h74z" />
    <glyph glyph-name="acircumflex" unicode="&#xe2;" 
d="M608 1311l-192 -195l-158 158l258 258h184l258 -258l-155 -158zM801 1044h221v-1044h-221v55q-100 -74 -221 -73h-19q-162 0 -274.5 113.5t-112.5 273.5v307q0 162 112.5 274.5t274.5 112.5h19q125 0 221 -74v55zM635 203q68 0 117 49t49 117v307q0 70 -49.5 118
t-116.5 48h-74q-70 0 -118 -48.5t-48 -117.5v-307q0 -68 48.5 -117t117.5 -49h74z" />
    <glyph glyph-name="atilde" unicode="&#xe3;" 
d="M801 1518h221v-39q0 -117 -82 -199t-199 -82q-82 0 -151 45q-12 8 -39 27.5t-44.5 29t-31.5 9.5q-25 0 -42 -17.5t-17 -42.5v-39h-221v39q0 117 82.5 199t197.5 82q82 0 152 -47q14 -8 33.5 -22.5t30.5 -21.5t24.5 -13.5t25.5 -6.5q25 0 42.5 17.5t17.5 42.5v39zM801 989
v55h221v-1044h-221v55q-100 -74 -221 -73h-19q-162 0 -274.5 113.5t-112.5 273.5v307q0 162 112.5 274.5t274.5 112.5h19q125 0 221 -74zM635 203q68 0 117 49t49 117v307q0 70 -49.5 118t-116.5 48h-74q-70 0 -118 -48.5t-48 -117.5v-307q0 -68 48.5 -117t117.5 -49h74z
" />
    <glyph glyph-name="adieresis" unicode="&#xe4;" 
d="M522 1518v-338h-221v338h221zM915 1518v-338h-221v338h221zM801 1044h221v-1044h-221v55q-100 -74 -221 -73h-19q-162 0 -274.5 113.5t-112.5 273.5v307q0 162 112.5 274.5t274.5 112.5h19q125 0 221 -74v55zM635 203q68 0 117 49t49 117v307q0 70 -49.5 118t-116.5 48
h-74q-70 0 -118 -48.5t-48 -117.5v-307q0 -68 48.5 -117t117.5 -49h74z" />
    <glyph glyph-name="aring" unicode="&#xe5;" 
d="M885 1044h137v-1044h-221v55q-100 -74 -221 -73h-19q-162 0 -274.5 113.5t-112.5 273.5v307q0 100 47 186t129 139q-31 59 -31 129q0 119 84 204t205 85t205 -85t84 -204q0 -45 -12 -86zM608.5 1198q-26.5 0 -47 -19.5t-20.5 -48t20.5 -48t47 -19.5t47 19.5t20.5 48
t-20.5 48t-47 19.5zM635 203q68 0 117 49t49 117v307q0 70 -49.5 118t-116.5 48h-74q-70 0 -118 -48.5t-48 -117.5v-307q0 -68 48.5 -117t117.5 -49h74z" />
    <glyph glyph-name="ae" unicode="&#xe6;" 
d="M1147 416h-424v-111q0 -43 29.5 -72.5t72.5 -29.5q35 0 62.5 22.5t36.5 57.5l211 -64q-29 -104 -114 -170.5t-196 -66.5q-55 0 -102 30v-26h-221v24q-45 -29 -101 -28q-135 0 -229 95t-94 228v436q0 133 94 227.5t229 94.5q55 0 101 -29v25h221v-25q45 29 102 29
q133 0 227.5 -94.5t94.5 -227.5v-325zM401 203q41 0 71 29.5t30 72.5v436q0 41 -30 71t-71 30q-43 0 -72.5 -30t-29.5 -71v-436q0 -43 29.5 -72.5t72.5 -29.5zM825 842q-43 0 -72.5 -30t-29.5 -71v-131h203v131q0 41 -30 71t-71 30z" />
    <glyph glyph-name="ccedilla" unicode="&#xe7;" 
d="M668 203q59 0 105 39t58 94l211 -62q-27 -109 -108.5 -186.5t-192.5 -99.5v-76q78 -35 125 -106.5t47 -157.5q0 -119 -84 -204t-204 -85h-105v221h105q29 0 48 19.5t19 48t-20.5 48t-46.5 19.5h-105v273q-135 25 -226 132t-91 249v307q0 160 113.5 273.5t273.5 113.5h78
q135 0 239.5 -82t134.5 -209l-211 -61q-12 55 -58 93t-105 38h-78q-70 0 -118 -48.5t-48 -117.5v-307q0 -68 48 -117t118 -49h78z" />
    <glyph glyph-name="egrave" unicode="&#xe8;" 
d="M623 1155l-316 315l158 158l315 -315zM578 1063h73q160 0 273.5 -113.5t113.5 -273.5v-236h-626v-71q0 -70 48 -118t118 -48h84q57 0 102 36.5t57 92.5l213 -64q-33 -125 -136 -205.5t-236 -80.5h-84q-160 0 -274 113.5t-114 273.5v307q0 160 114 273.5t274 113.5z
M412 633h405v43q0 70 -48 118t-118 48h-73q-70 0 -118 -48.5t-48 -117.5v-43z" />
    <glyph glyph-name="eacute" unicode="&#xe9;" 
d="M614 1155l-157 158l315 315l158 -158zM578 1063h73q160 0 273.5 -113.5t113.5 -273.5v-236h-626v-71q0 -70 48 -118t118 -48h84q57 0 102 36.5t57 92.5l213 -64q-33 -125 -136 -205.5t-236 -80.5h-84q-160 0 -274 113.5t-114 273.5v307q0 160 114 273.5t274 113.5z
M412 633h405v43q0 70 -48 118t-118 48h-73q-70 0 -118 -48.5t-48 -117.5v-43z" />
    <glyph glyph-name="ecircumflex" unicode="&#xea;" 
d="M268 1274l258 258h185l258 -258l-156 -158l-195 195l-192 -195zM578 1063h73q160 0 273.5 -113.5t113.5 -273.5v-236h-626v-71q0 -70 48 -118t118 -48h84q57 0 102 36.5t57 92.5l213 -64q-33 -125 -136 -205.5t-236 -80.5h-84q-160 0 -274 113.5t-114 273.5v307
q0 160 114 273.5t274 113.5zM412 633h405v43q0 70 -48 118t-118 48h-73q-70 0 -118 -48.5t-48 -117.5v-43z" />
    <glyph glyph-name="edieresis" unicode="&#xeb;" 
d="M311 1180v338h221v-338h-221zM705 1180v338h221v-338h-221zM578 1063h73q160 0 273.5 -113.5t113.5 -273.5v-236h-626v-71q0 -70 48 -118t118 -48h84q57 0 102 36.5t57 92.5l213 -64q-33 -125 -136 -205.5t-236 -80.5h-84q-160 0 -274 113.5t-114 273.5v307
q0 160 114 273.5t274 113.5zM412 633h405v43q0 70 -48 118t-118 48h-73q-70 0 -118 -48.5t-48 -117.5v-43z" />
    <glyph glyph-name="igrave" unicode="&#xec;" 
d="M655 1155l-315 315l158 158l315 -315zM264 1044h498v-823h319v-221h-884v221h344v602h-277v221z" />
    <glyph glyph-name="iacute" unicode="&#xed;" 
d="M647 1155l-158 158l316 315l158 -158zM264 1044h498v-823h319v-221h-884v221h344v602h-277v221z" />
    <glyph glyph-name="icircumflex" unicode="&#xee;" 
d="M301 1274l258 258h184l258 -258l-155 -158l-195 195l-192 -195zM264 1044h498v-823h319v-221h-884v221h344v602h-277v221z" />
    <glyph glyph-name="idieresis" unicode="&#xef;" 
d="M344 1180v338h221v-338h-221zM737 1180v338h221v-338h-221zM264 1044h498v-823h319v-221h-884v221h344v602h-277v221z" />
    <glyph glyph-name="eth" unicode="&#xf0;" 
d="M1200 1346v-222h-190v-755q0 -160 -113 -273.5t-274 -113.5h-74q-160 0 -273.5 113.5t-113.5 273.5v307q0 160 113.5 273.5t273.5 113.5h18q125 0 221 -74v135h-227v222h211q-45 92 -149 92v221q141 0 247.5 -89t133.5 -224h196zM623 203q70 0 117.5 48t47.5 118v307
q0 70 -48 118t-117 48h-74q-70 0 -118 -48.5t-48 -117.5v-307q0 -70 48 -118t118 -48h74z" />
    <glyph glyph-name="ntilde" unicode="&#xf1;" 
d="M829 1518h222v-39q0 -117 -82 -199t-199 -82q-82 0 -152 45q-12 8 -38.5 27.5t-44 29t-31.5 9.5q-25 0 -42.5 -17.5t-17.5 -42.5v-39h-221v39q0 117 83 199t198 82q82 0 151 -47q14 -8 34 -22.5t31 -21.5t24.5 -13.5t25.5 -6.5q25 0 42 17.5t17 42.5v39zM651 1063
q162 0 274.5 -112.5t112.5 -274.5v-676h-221v676q0 70 -48 118t-118 48h-73q-68 0 -117 -48.5t-49 -117.5v-676h-222v1044h222v-55q96 74 221 74h18z" />
    <glyph glyph-name="ograve" unicode="&#xf2;" 
d="M612 1155l-315 315l158 158l315 -315zM571 1063h74q160 0 273.5 -113.5t113.5 -273.5v-307q0 -160 -113.5 -273.5t-273.5 -113.5h-74q-160 0 -273.5 113.5t-113.5 273.5v307q0 160 113.5 273.5t273.5 113.5zM571 842q-68 0 -116.5 -48.5t-48.5 -117.5v-307q0 -70 49 -118
t116 -48h74q70 0 118 48t48 118v307q0 70 -48 118t-118 48h-74z" />
    <glyph glyph-name="oacute" unicode="&#xf3;" 
d="M604 1155l-158 158l316 315l158 -158zM571 1063h74q160 0 273.5 -113.5t113.5 -273.5v-307q0 -160 -113.5 -273.5t-273.5 -113.5h-74q-160 0 -273.5 113.5t-113.5 273.5v307q0 160 113.5 273.5t273.5 113.5zM571 842q-68 0 -116.5 -48.5t-48.5 -117.5v-307q0 -70 49 -118
t116 -48h74q70 0 118 48t48 118v307q0 70 -48 118t-118 48h-74z" />
    <glyph glyph-name="ocircumflex" unicode="&#xf4;" 
d="M258 1274l258 258h184l258 -258l-155 -158l-195 195l-192 -195zM571 1063h74q160 0 273.5 -113.5t113.5 -273.5v-307q0 -160 -113.5 -273.5t-273.5 -113.5h-74q-160 0 -273.5 113.5t-113.5 273.5v307q0 160 113.5 273.5t273.5 113.5zM571 842q-68 0 -116.5 -48.5
t-48.5 -117.5v-307q0 -70 49 -118t116 -48h74q70 0 118 48t48 118v307q0 70 -48 118t-118 48h-74z" />
    <glyph glyph-name="otilde" unicode="&#xf5;" 
d="M195 1210v39q0 117 82.5 199t197.5 82q82 0 152 -47q14 -8 33.5 -22.5t30.5 -21.5t24.5 -13.5t25.5 -6.5q25 0 42.5 17.5t17.5 42.5v39h221v-39q0 -117 -82 -199t-199 -82q-82 0 -151 45q-12 8 -39 27.5t-44.5 29t-31.5 9.5q-25 0 -42 -17.5t-17 -42.5v-39h-221z
M571 1063h74q160 0 273.5 -113.5t113.5 -273.5v-307q0 -160 -113.5 -273.5t-273.5 -113.5h-74q-160 0 -273.5 113.5t-113.5 273.5v307q0 160 113.5 273.5t273.5 113.5zM571 842q-68 0 -116.5 -48.5t-48.5 -117.5v-307q0 -70 49 -118t116 -48h74q70 0 118 48t48 118v307
q0 70 -48 118t-118 48h-74z" />
    <glyph glyph-name="odieresis" unicode="&#xf6;" 
d="M301 1180v338h221v-338h-221zM694 1180v338h221v-338h-221zM571 1063h74q160 0 273.5 -113.5t113.5 -273.5v-307q0 -160 -113.5 -273.5t-273.5 -113.5h-74q-160 0 -273.5 113.5t-113.5 273.5v307q0 160 113.5 273.5t273.5 113.5zM571 842q-68 0 -116.5 -48.5
t-48.5 -117.5v-307q0 -70 49 -118t116 -48h74q70 0 118 48t48 118v307q0 70 -48 118t-118 48h-74z" />
    <glyph glyph-name="divide" unicode="&#xf7;" 
d="M498 854v309h221v-309h-221zM182 481v221h852v-221h-852zM498 25v309h221v-309h-221z" />
    <glyph glyph-name="oslash" unicode="&#xf8;" 
d="M1067 1059l-102 -166q68 -96 67 -217v-307q0 -160 -113.5 -273.5t-273.5 -113.5h-74q-78 0 -147 28l-84 -137l-188 115l100 164q-68 96 -68 217v307q0 160 114 273.5t273 113.5h74q78 0 148 -29l86 142zM406 676v-273l268 437q-10 2 -29 2h-74q-68 0 -116.5 -48
t-48.5 -118zM811 369v272l-268 -436q10 -2 28 -2h74q70 0 118 48t48 118z" />
    <glyph glyph-name="ugrave" unicode="&#xf9;" 
d="M612 1155l-315 315l158 158l315 -315zM184 1044h222v-675q0 -70 48 -118t117 -48h74q70 0 118 48t48 118v675h221v-675q0 -160 -113.5 -273.5t-273.5 -113.5h-74q-160 0 -273.5 113.5t-113.5 273.5v675z" />
    <glyph glyph-name="uacute" unicode="&#xfa;" 
d="M604 1155l-158 158l316 315l158 -158zM184 1044h222v-675q0 -70 48 -118t117 -48h74q70 0 118 48t48 118v675h221v-675q0 -160 -113.5 -273.5t-273.5 -113.5h-74q-160 0 -273.5 113.5t-113.5 273.5v675z" />
    <glyph glyph-name="ucircumflex" unicode="&#xfb;" 
d="M258 1274l258 258h184l258 -258l-155 -158l-195 195l-192 -195zM184 1044h222v-675q0 -70 48 -118t117 -48h74q70 0 118 48t48 118v675h221v-675q0 -160 -113.5 -273.5t-273.5 -113.5h-74q-160 0 -273.5 113.5t-113.5 273.5v675z" />
    <glyph glyph-name="udieresis" unicode="&#xfc;" 
d="M301 1180v338h221v-338h-221zM694 1180v338h221v-338h-221zM184 1044h222v-675q0 -70 48 -118t117 -48h74q70 0 118 48t48 118v675h221v-675q0 -160 -113.5 -273.5t-273.5 -113.5h-74q-160 0 -273.5 113.5t-113.5 273.5v675z" />
    <glyph glyph-name="yacute" unicode="&#xfd;" 
d="M604 1155l-158 158l316 315l158 -158zM152 1044h221v-131q0 -98 53 -196l186 -340l189 340q51 92 51 196v131h221v-131q0 -162 -80 -305l-440 -798q-43 -74 -119 -120t-166 -46h-174v221h174q51 0 92 55l125 230l-254 458q-80 143 -79 305v131z" />
    <glyph glyph-name="thorn" unicode="&#xfe;" 
d="M657 1063q162 0 274.5 -112.5t112.5 -274.5v-307q0 -160 -112.5 -273.5t-274.5 -113.5h-18q-121 0 -221 73v-411h-221v1757h221v-412q96 74 221 74h18zM823 369v307q0 70 -48 118t-118 48h-73q-68 0 -117 -48.5t-49 -117.5v-307q0 -68 49 -117t117 -49h73q70 0 118 49
t48 117z" />
    <glyph glyph-name="ydieresis" unicode="&#xff;" 
d="M301 1180v338h221v-338h-221zM694 1180v338h221v-338h-221zM152 1044h221v-131q0 -98 53 -196l186 -340l189 340q51 92 51 196v131h221v-131q0 -162 -80 -305l-440 -798q-43 -74 -119 -120t-166 -46h-174v221h174q51 0 92 55l125 230l-254 458q-80 143 -79 305v131z" />
    <glyph glyph-name="Amacron" unicode="&#x100;" 
d="M915 1769v-221h-614v221h614zM1036 584l4 -19q4 -20 10.5 -51t13.5 -69.5t11 -87t4 -93.5v-264h-221v283v20h-498v-20v-283h-221v264q0 45 4 93.5t10.5 87t12.5 69.5t10 51l4 19l182 651q23 80 91.5 132t154.5 52t154.5 -51t93.5 -133zM395 524h426q0 2 -1 5t-1 6
l-174 636q-10 27 -37 27q-31 0 -37 -27l-174 -636q0 -2 -1 -5.5t-1 -5.5z" />
    <glyph glyph-name="amacron" unicode="&#x101;" 
d="M915 1413v-221h-614v221h614zM801 1044h221v-1044h-221v55q-100 -74 -221 -73h-19q-162 0 -274.5 113.5t-112.5 273.5v307q0 162 112.5 274.5t274.5 112.5h19q125 0 221 -74v55zM635 203q68 0 117 49t49 117v307q0 70 -49.5 118t-116.5 48h-74q-70 0 -118 -48.5
t-48 -117.5v-307q0 -68 48.5 -117t117.5 -49h74z" />
    <glyph glyph-name="Abreve" unicode="&#x102;" 
d="M608 1530q-121 0 -205 85t-84 204h222q0 -29 20.5 -48.5t47 -19.5t47 19.5t20.5 48.5h221q0 -119 -84 -204t-205 -85zM1036 584l4 -19q4 -20 10.5 -51t13.5 -69.5t11 -87t4 -93.5v-264h-221v283v20h-498v-20v-283h-221v264q0 45 4 93.5t10.5 87t12.5 69.5t10 51l4 19
l182 651q23 80 91.5 132t154.5 52t154.5 -51t93.5 -133zM395 524h426q0 2 -1 5t-1 6l-174 636q-10 27 -37 27q-31 0 -37 -27l-174 -636q0 -2 -1 -5.5t-1 -5.5z" />
    <glyph glyph-name="abreve" unicode="&#x103;" 
d="M608 1174q-121 0 -205 84.5t-84 203.5h222q0 -29 20.5 -48t47 -19t47 19.5t20.5 47.5h221q0 -119 -84 -203.5t-205 -84.5zM801 1044h221v-1044h-221v55q-100 -74 -221 -73h-19q-162 0 -274.5 113.5t-112.5 273.5v307q0 162 112.5 274.5t274.5 112.5h19q125 0 221 -74v55z
M635 203q68 0 117 49t49 117v307q0 70 -49.5 118t-116.5 48h-74q-70 0 -118 -48.5t-48 -117.5v-307q0 -68 48.5 -117t117.5 -49h74z" />
    <glyph glyph-name="Aogonek" unicode="&#x104;" 
d="M1135 -133h61v-223h-59q-117 0 -198 81.5t-81 196.5v361v20h-498v-20v-283h-221v264q0 45 4 93.5t10.5 87t12.5 69.5t10 51l4 19l182 651q23 80 91.5 132t154.5 52t154.5 -51t93.5 -133l180 -651l4 -19q4 -20 10.5 -51t13.5 -69.5t11 -87t4 -93.5v-342q0 -23 16.5 -39
t39.5 -16zM395 524h426q0 2 -1 5t-1 6l-174 636q-10 27 -37 27q-31 0 -37 -27l-174 -636q0 -2 -1 -5.5t-1 -5.5z" />
    <glyph glyph-name="aogonek" unicode="&#x105;" 
d="M1077 -133h62v-223h-60q-117 0 -197.5 81.5t-80.5 196.5v133q-100 -74 -221 -73h-19q-162 0 -274.5 113.5t-112.5 273.5v307q0 162 112.5 274.5t274.5 112.5h19q125 0 221 -74v55h221v-1122q0 -23 16 -39t39 -16zM635 203q68 0 117 49t49 117v307q0 70 -49.5 118
t-116.5 48h-74q-70 0 -118 -48.5t-48 -117.5v-307q0 -68 48.5 -117t117.5 -49h74z" />
    <glyph glyph-name="Cacute" unicode="&#x106;" 
d="M618 1511l-157 158l315 316l158 -158zM1047 1126l-213 -61q-10 57 -56.5 95t-105.5 38h-99q-70 0 -117.5 -49t-47.5 -117v-663q0 -70 48 -118t117 -48h99q59 0 105 39t57 94l213 -62q-33 -127 -137.5 -209.5t-237.5 -82.5h-99q-162 0 -274.5 113.5t-112.5 273.5v663
q0 160 113 273.5t274 113.5h99q133 0 237.5 -83t137.5 -210z" />
    <glyph glyph-name="cacute" unicode="&#x107;" 
d="M627 1155l-158 158l315 315l158 -158zM203 369v307q0 160 113.5 273.5t273.5 113.5h78q135 0 239.5 -82t134.5 -209l-211 -61q-12 55 -58 93t-105 38h-78q-70 0 -118 -48.5t-48 -117.5v-307q0 -68 48 -117t118 -49h78q59 0 105 39t58 94l211 -62q-31 -127 -135 -209.5
t-239 -82.5h-78q-160 0 -273.5 113.5t-113.5 273.5z" />
    <glyph glyph-name="Ccircumflex" unicode="&#x108;" 
d="M272 1630l258 258h185l258 -258l-156 -157l-194 194l-193 -194zM1047 1126l-213 -61q-10 57 -56.5 95t-105.5 38h-99q-70 0 -117.5 -49t-47.5 -117v-663q0 -70 48 -118t117 -48h99q59 0 105 39t57 94l213 -62q-33 -127 -137.5 -209.5t-237.5 -82.5h-99
q-162 0 -274.5 113.5t-112.5 273.5v663q0 160 113 273.5t274 113.5h99q133 0 237.5 -83t137.5 -210z" />
    <glyph glyph-name="ccircumflex" unicode="&#x109;" 
d="M281 1274l258 258h184l258 -258l-156 -158l-194 195l-193 -195zM203 369v307q0 160 113.5 273.5t273.5 113.5h78q135 0 239.5 -82t134.5 -209l-211 -61q-12 55 -58 93t-105 38h-78q-70 0 -118 -48.5t-48 -117.5v-307q0 -68 48 -117t118 -49h78q59 0 105 39t58 94l211 -62
q-31 -127 -135 -209.5t-239 -82.5h-78q-160 0 -273.5 113.5t-113.5 273.5z" />
    <glyph glyph-name="Cdotaccent" unicode="&#x10a;" 
d="M512 1536v338h221v-338h-221zM1047 1126l-213 -61q-10 57 -56.5 95t-105.5 38h-99q-70 0 -117.5 -49t-47.5 -117v-663q0 -70 48 -118t117 -48h99q59 0 105 39t57 94l213 -62q-33 -127 -137.5 -209.5t-237.5 -82.5h-99q-162 0 -274.5 113.5t-112.5 273.5v663
q0 160 113 273.5t274 113.5h99q133 0 237.5 -83t137.5 -210z" />
    <glyph glyph-name="cdotaccent" unicode="&#x10b;" 
d="M520 1180v338h221v-338h-221zM203 369v307q0 160 113.5 273.5t273.5 113.5h78q135 0 239.5 -82t134.5 -209l-211 -61q-12 55 -58 93t-105 38h-78q-70 0 -118 -48.5t-48 -117.5v-307q0 -68 48 -117t118 -49h78q59 0 105 39t58 94l211 -62q-31 -127 -135 -209.5t-239 -82.5
h-78q-160 0 -273.5 113.5t-113.5 273.5z" />
    <glyph glyph-name="Ccaron" unicode="&#x10c;" 
d="M272 1806l158 158l193 -195l194 195l156 -158l-258 -258h-185zM1047 1126l-213 -61q-10 57 -56.5 95t-105.5 38h-99q-70 0 -117.5 -49t-47.5 -117v-663q0 -70 48 -118t117 -48h99q59 0 105 39t57 94l213 -62q-33 -127 -137.5 -209.5t-237.5 -82.5h-99
q-162 0 -274.5 113.5t-112.5 273.5v663q0 160 113 273.5t274 113.5h99q133 0 237.5 -83t137.5 -210z" />
    <glyph glyph-name="ccaron" unicode="&#x10d;" 
d="M281 1450l157 158l193 -195l194 195l156 -158l-258 -258h-184zM203 369v307q0 160 113.5 273.5t273.5 113.5h78q135 0 239.5 -82t134.5 -209l-211 -61q-12 55 -58 93t-105 38h-78q-70 0 -118 -48.5t-48 -117.5v-307q0 -68 48 -117t118 -49h78q59 0 105 39t58 94l211 -62
q-31 -127 -135 -209.5t-239 -82.5h-78q-160 0 -273.5 113.5t-113.5 273.5z" />
    <glyph glyph-name="Dcaron" unicode="&#x10e;" 
d="M242 1806l157 158l193 -195l194 195l156 -158l-258 -258h-184zM197 0v1401h460q160 0 273.5 -113.5t113.5 -273.5v-627q0 -160 -113.5 -273.5t-273.5 -113.5h-460zM418 221h239q70 0 118 48t48 118v627q0 70 -48 118t-118 48h-239v-959z" />
    <glyph glyph-name="dcaron" unicode="&#x10f;" 
d="M999 1761h390v-225q0 -147 -91.5 -261t-232.5 -149l-61 211q72 14 117.5 70.5t45.5 132.5h-168v221zM766 989v412h221v-1401h-221v55q-100 -74 -221 -73h-19q-162 0 -274.5 113.5t-112.5 273.5v307q0 162 113 274.5t274 112.5h19q125 0 221 -74zM600 203q68 0 117 49
t49 117v307q0 70 -49 118t-117 48h-74q-70 0 -118 -48.5t-48 -117.5v-307q0 -68 48.5 -117t117.5 -49h74z" />
    <glyph glyph-name="Dcroat" unicode="&#x110;" 
d="M676 1401q160 0 273.5 -113.5t113.5 -273.5v-627q0 -160 -113.5 -273.5t-273.5 -113.5h-461v590h-170v221h170v590h461zM842 387v627q0 70 -48.5 118t-117.5 48h-240v-369h258v-221h-258v-369h240q70 0 118 48t48 118z" />
    <glyph glyph-name="dcroat" unicode="&#x111;" 
d="M1161 1386v-221h-141v-1165h-221v55q-100 -74 -221 -73h-19q-162 0 -274.5 113.5t-112.5 273.5v307q0 162 112.5 274.5t274.5 112.5h19q125 0 221 -74v176h-252v221h252v148h221v-148h141zM633 203q68 0 117 49t49 117v307q0 70 -49.5 118t-116.5 48h-74
q-70 0 -118 -48.5t-48 -117.5v-307q0 -68 48 -117t118 -49h74z" />
    <glyph glyph-name="Emacron" unicode="&#x112;" 
d="M322 1548v221h614v-221h-614zM215 0v1401h848v-221h-627v-369h565v-221h-565v-369h627v-221h-848z" />
    <glyph glyph-name="emacron" unicode="&#x113;" 
d="M311 1192v221h615v-221h-615zM578 1063h73q160 0 273.5 -113.5t113.5 -273.5v-236h-626v-71q0 -70 48 -118t118 -48h84q57 0 102 36.5t57 92.5l213 -64q-33 -125 -136 -205.5t-236 -80.5h-84q-160 0 -274 113.5t-114 273.5v307q0 160 114 273.5t274 113.5zM412 633h405
v43q0 70 -48 118t-118 48h-73q-70 0 -118 -48.5t-48 -117.5v-43z" />
    <glyph glyph-name="Ebreve" unicode="&#x114;" 
d="M340 1819h221q0 -29 20.5 -48.5t47 -19.5t47 19.5t20.5 48.5h222q0 -119 -84 -204t-205 -85t-205 85t-84 204zM215 0v1401h848v-221h-627v-369h565v-221h-565v-369h627v-221h-848z" />
    <glyph glyph-name="ebreve" unicode="&#x115;" 
d="M330 1462h221q0 -29 19.5 -48t48 -19t48 19.5t19.5 47.5h221q0 -119 -85 -203.5t-203.5 -84.5t-203.5 84.5t-85 203.5zM578 1063h73q160 0 273.5 -113.5t113.5 -273.5v-236h-626v-71q0 -70 48 -118t118 -48h84q57 0 102 36.5t57 92.5l213 -64q-33 -125 -136 -205.5
t-236 -80.5h-84q-160 0 -274 113.5t-114 273.5v307q0 160 114 273.5t274 113.5zM412 633h405v43q0 70 -48 118t-118 48h-73q-70 0 -118 -48.5t-48 -117.5v-43z" />
    <glyph glyph-name="Edotaccent" unicode="&#x116;" 
d="M518 1536v338h221v-338h-221zM215 0v1401h848v-221h-627v-369h565v-221h-565v-369h627v-221h-848z" />
    <glyph glyph-name="edotaccent" unicode="&#x117;" 
d="M508 1180v338h221v-338h-221zM578 1063h73q160 0 273.5 -113.5t113.5 -273.5v-236h-626v-71q0 -70 48 -118t118 -48h84q57 0 102 36.5t57 92.5l213 -64q-33 -125 -136 -205.5t-236 -80.5h-84q-160 0 -274 113.5t-114 273.5v307q0 160 114 273.5t274 113.5zM412 633h405
v43q0 70 -48 118t-118 48h-73q-70 0 -118 -48.5t-48 -117.5v-43z" />
    <glyph glyph-name="Eogonek" unicode="&#x118;" 
d="M1118 -133h62v-223h-60q-117 0 -197.5 81.5t-80.5 196.5v78h-627v1401h848v-221h-627v-369h565v-221h-565v-369h627v-299q0 -23 16 -39t39 -16z" />
    <glyph glyph-name="eogonek" unicode="&#x119;" 
d="M1038 440h-626v-71q0 -70 48 -118t118 -48h84q57 0 102 36.5t57 92.5l213 -64q-27 -106 -110.5 -183t-194.5 -97v-64q0 -23 16.5 -39t38.5 -16h62v-223h-60q-117 0 -197.5 82t-80.5 196v64q-135 25 -226.5 132t-91.5 249v307q0 160 114 273.5t274 113.5h73
q160 0 273.5 -113.5t113.5 -273.5v-236zM412 676v-43h405v43q0 70 -48 118t-118 48h-73q-70 0 -118 -48t-48 -118z" />
    <glyph glyph-name="Ecaron" unicode="&#x11a;" 
d="M279 1806l157 158l193 -195l194 195l156 -158l-258 -258h-184zM215 0v1401h848v-221h-627v-369h565v-221h-565v-369h627v-221h-848z" />
    <glyph glyph-name="ecaron" unicode="&#x11b;" 
d="M268 1450l158 158l192 -195l195 195l156 -158l-258 -258h-185zM578 1063h73q160 0 273.5 -113.5t113.5 -273.5v-236h-626v-71q0 -70 48 -118t118 -48h84q57 0 102 36.5t57 92.5l213 -64q-33 -125 -136 -205.5t-236 -80.5h-84q-160 0 -274 113.5t-114 273.5v307
q0 160 114 273.5t274 113.5zM412 633h405v43q0 70 -48 118t-118 48h-73q-70 0 -118 -48.5t-48 -117.5v-43z" />
    <glyph glyph-name="Gcircumflex" unicode="&#x11c;" 
d="M266 1630l258 258h185l258 -258l-156 -157l-195 194l-192 -194zM1042 1126l-211 -61q-12 57 -58 95t-105 38h-103q-70 0 -118 -48t-48 -118v-663q0 -70 48.5 -118t117.5 -48h99q70 0 117.5 48t47.5 118v221h-239v221h461v-442q0 -160 -114 -273.5t-273 -113.5h-99
q-160 0 -273.5 113.5t-113.5 273.5v665q2 160 115 272.5t272 112.5h103q135 0 239 -83t135 -210z" />
    <glyph glyph-name="gcircumflex" unicode="&#x11d;" 
d="M584 1311l-193 -195l-158 158l259 258h184l258 -258l-156 -158zM799 1044h221v-1032q0 -160 -112.5 -273.5t-272.5 -113.5h-78q-135 0 -239.5 83t-137.5 210l213 62q10 -57 56.5 -95.5t107.5 -38.5h78q68 0 116 49.5t48 116.5v113q-96 -74 -221 -74h-19
q-160 0 -273.5 114t-113.5 273v238q0 162 113.5 274.5t273.5 112.5h19q125 0 221 -74v55zM633 272q70 0 118 49.5t48 116.5v238q0 70 -48.5 118t-117.5 48h-74q-68 0 -117 -48.5t-49 -117.5v-238q0 -68 49.5 -117t116.5 -49h74z" />
    <glyph glyph-name="Gbreve" unicode="&#x11e;" 
d="M328 1819h221q0 -29 20.5 -48.5t47 -19.5t47 19.5t20.5 48.5h221q0 -119 -84 -204t-204.5 -85t-204.5 85t-84 204zM1042 1126l-211 -61q-12 57 -58 95t-105 38h-103q-70 0 -118 -48t-48 -118v-663q0 -70 48.5 -118t117.5 -48h99q70 0 117.5 48t47.5 118v221h-239v221h461
v-442q0 -160 -114 -273.5t-273 -113.5h-99q-160 0 -273.5 113.5t-113.5 273.5v665q2 160 115 272.5t272 112.5h103q135 0 239 -83t135 -210z" />
    <glyph glyph-name="gbreve" unicode="&#x11f;" 
d="M584 1174q-121 0 -205 84.5t-84 203.5h221q0 -29 20.5 -48t47 -19t47 19.5t20.5 47.5h221q0 -119 -83.5 -203.5t-204.5 -84.5zM799 1044h221v-1032q0 -160 -112.5 -273.5t-272.5 -113.5h-78q-135 0 -239.5 83t-137.5 210l213 62q10 -57 56.5 -95.5t107.5 -38.5h78
q68 0 116 49.5t48 116.5v113q-96 -74 -221 -74h-19q-160 0 -273.5 114t-113.5 273v238q0 162 113.5 274.5t273.5 112.5h19q125 0 221 -74v55zM633 272q70 0 118 49.5t48 116.5v238q0 70 -48.5 118t-117.5 48h-74q-68 0 -117 -48.5t-49 -117.5v-238q0 -68 49.5 -117
t116.5 -49h74z" />
    <glyph glyph-name="Gdotaccent" unicode="&#x120;" 
d="M506 1536v338h221v-338h-221zM1042 1126l-211 -61q-12 57 -58 95t-105 38h-103q-70 0 -118 -48t-48 -118v-663q0 -70 48.5 -118t117.5 -48h99q70 0 117.5 48t47.5 118v221h-239v221h461v-442q0 -160 -114 -273.5t-273 -113.5h-99q-160 0 -273.5 113.5t-113.5 273.5v665
q2 160 115 272.5t272 112.5h103q135 0 239 -83t135 -210z" />
    <glyph glyph-name="gdotaccent" unicode="&#x121;" 
d="M694 1518v-338h-221v338h221zM799 1044h221v-1032q0 -160 -112.5 -273.5t-272.5 -113.5h-78q-135 0 -239.5 83t-137.5 210l213 62q10 -57 56.5 -95.5t107.5 -38.5h78q68 0 116 49.5t48 116.5v113q-96 -74 -221 -74h-19q-160 0 -273.5 114t-113.5 273v238
q0 162 113.5 274.5t273.5 112.5h19q125 0 221 -74v55zM633 272q70 0 118 49.5t48 116.5v238q0 70 -48.5 118t-117.5 48h-74q-68 0 -117 -48.5t-49 -117.5v-238q0 -68 49.5 -117t116.5 -49h74z" />
    <glyph glyph-name="Gcommaaccent" unicode="&#x122;" 
d="M1042 1126l-211 -61q-12 57 -58 95t-105 38h-103q-70 0 -118 -48t-48 -118v-663q0 -70 48.5 -118t117.5 -48h99q70 0 117.5 48t47.5 118v221h-239v221h461v-442q0 -160 -114 -273.5t-273 -113.5h-99q-160 0 -273.5 113.5t-113.5 273.5v665q2 160 115 272.5t272 112.5h103
q135 0 239 -83t135 -210zM422 -147h389v-226q0 -147 -91 -261t-233 -148l-61 211q72 14 118 70.5t46 131.5h-168v222z" />
    <glyph glyph-name="gcommaaccent" unicode="&#x123;" 
d="M778 1415v-221h-389v225q0 147 91 261t233 149l61 -211q-72 -14 -118 -70.5t-46 -132.5h168zM799 1044h221v-1032q0 -160 -112.5 -273.5t-272.5 -113.5h-78q-135 0 -239.5 83t-137.5 210l213 62q10 -57 56.5 -95.5t107.5 -38.5h78q68 0 116 49.5t48 116.5v113
q-96 -74 -221 -74h-19q-160 0 -273.5 114t-113.5 273v238q0 162 113.5 274.5t273.5 112.5h19q125 0 221 -74v55zM633 272q70 0 118 49.5t48 116.5v238q0 70 -48.5 118t-117.5 48h-74q-68 0 -117 -48.5t-49 -117.5v-238q0 -68 49.5 -117t116.5 -49h74z" />
    <glyph glyph-name="Hcircumflex" unicode="&#x124;" 
d="M258 1630l258 258h184l258 -258l-155 -157l-195 194l-192 -194zM811 1401h221v-1401h-221v590h-405v-590h-222v1401h222v-590h405v590z" />
    <glyph glyph-name="hcircumflex" unicode="&#x125;" 
d="M496 1473l-195 194l-192 -194l-158 157l258 258h184l258 -258zM651 1063q162 0 274.5 -112.5t112.5 -274.5v-676h-221v676q0 70 -48 118t-118 48h-73q-68 0 -117 -48.5t-49 -117.5v-676h-222v1401h222v-412q96 74 221 74h18z" />
    <glyph glyph-name="Hbar" unicode="&#x126;" 
d="M1212 1204v-221h-180v-983h-221v590h-405v-590h-222v983h-180v221h180v197h222v-197h405v197h221v-197h180zM811 811v172h-405v-172h405z" />
    <glyph glyph-name="hbar" unicode="&#x127;" 
d="M651 1063q162 0 274.5 -112.5t112.5 -274.5v-676h-221v676q0 70 -48 118t-118 48h-73q-68 0 -117 -48.5t-49 -117.5v-676h-222v1165h-141v221h141v148h222v-148h252v-221h-252v-176q96 74 221 74h18z" />
    <glyph glyph-name="Itilde" unicode="&#x128;" 
d="M195 1567v39q0 117 82.5 198.5t197.5 81.5q82 0 152 -47q14 -8 33.5 -22.5t30.5 -21.5t24.5 -13t25.5 -6q25 0 42.5 17t17.5 42v39h221v-39q0 -117 -82 -199t-199 -82q-82 0 -151 45q-12 8 -39 28t-44.5 29t-31.5 9q-25 0 -42 -17.5t-17 -41.5v-39h-221zM184 221h314v959
h-295v221h811v-221h-295v-959h313v-221h-848v221z" />
    <glyph glyph-name="itilde" unicode="&#x129;" 
d="M238 1210v39q0 117 82.5 199t197.5 82q82 0 152 -47q14 -8 33.5 -22.5t30.5 -21.5t24.5 -13.5t25.5 -6.5q25 0 42.5 17.5t17.5 42.5v39h221v-39q0 -117 -82 -199t-199 -82q-82 0 -151 45q-12 8 -39 27.5t-44.5 29t-31.5 9.5q-25 0 -42 -17.5t-17 -42.5v-39h-221z
M264 1044h498v-823h319v-221h-884v221h344v602h-277v221z" />
    <glyph glyph-name="Imacron" unicode="&#x12a;" 
d="M301 1548v221h614v-221h-614zM184 221h314v959h-295v221h811v-221h-295v-959h313v-221h-848v221z" />
    <glyph glyph-name="imacron" unicode="&#x12b;" 
d="M344 1192v221h614v-221h-614zM264 1044h498v-823h319v-221h-884v221h344v602h-277v221z" />
    <glyph glyph-name="Ibreve" unicode="&#x12c;" 
d="M319 1819h222q0 -29 20.5 -48.5t47 -19.5t47 19.5t20.5 48.5h221q0 -119 -84 -204t-205 -85t-205 85t-84 204zM184 221h314v959h-295v221h811v-221h-295v-959h313v-221h-848v221z" />
    <glyph glyph-name="ibreve" unicode="&#x12d;" 
d="M362 1462h222q0 -29 19.5 -48t48 -19t48 19.5t19.5 47.5h221q0 -119 -85 -203.5t-204 -84.5t-204 84.5t-85 203.5zM264 1044h498v-823h319v-221h-884v221h344v602h-277v221z" />
    <glyph glyph-name="Iogonek" unicode="&#x12e;" 
d="M1087 -133h62v-223h-59q-117 0 -198 81.5t-81 196.5v78h-627v221h314v959h-295v221h811v-221h-295v-959h313v-299q0 -23 16 -39t39 -16z" />
    <glyph glyph-name="iogonek" unicode="&#x12f;" 
d="M762 1518v-338h-221v338h221zM1137 -133h61v-223h-59q-117 0 -198 81.5t-81 196.5v78h-663v221h344v602h-277v221h498v-823h319v-299q0 -23 16.5 -39t39.5 -16z" />
    <glyph glyph-name="Idotaccent" unicode="&#x130;" 
d="M498 1536v338h221v-338h-221zM184 221h314v959h-295v221h811v-221h-295v-959h313v-221h-848v221z" />
    <glyph glyph-name="dotlessi" unicode="&#x131;" 
d="M264 1044h498v-823h319v-221h-884v221h344v602h-277v221z" />
    <glyph glyph-name="Jcircumflex" unicode="&#x134;" 
d="M258 1630l258 258h184l258 -258l-155 -157l-195 194l-192 -194zM227 1401h774v-1032q0 -160 -113.5 -273.5t-273.5 -113.5h-82q-135 0 -239.5 81.5t-136.5 208.5l213 64q12 -57 57 -95t106 -38h82q70 0 118 48t48 118v811h-553v221z" />
    <glyph glyph-name="jcircumflex" unicode="&#x135;" 
d="M395 1274l258 258h185l258 -258l-156 -158l-195 195l-192 -195zM223 1044h633v-1034q0 -160 -113.5 -272.5t-271.5 -112.5q-133 0 -235.5 79t-137.5 204l213 67q12 -55 56.5 -92t103.5 -37q68 0 116 48.5t48 115.5v813h-412v221z" />
    <glyph glyph-name="Kcommaaccent" unicode="&#x136;" 
d="M197 1401h221v-584h104l269 293q70 76 69 164v127h221v-129q0 -25 -4 -58.5t-35.5 -113.5t-87.5 -142l-237 -251l252 -265q57 -61 89 -140t37 -114.5t5 -58.5v-129h-221v127q0 88 -72 162l-287 307h-102v-596h-221v1401zM442 -147h389v-226q0 -147 -91 -261t-232 -148
l-62 211q72 14 118 70.5t46 131.5h-168v222z" />
    <glyph glyph-name="kcommaaccent" unicode="&#x137;" 
d="M215 1401h221v-774h146l174 147q31 27 49 61.5t22 57.5l2 22v129h222v-129q0 -25 -5.5 -60.5t-43 -113t-103.5 -133.5l-106 -90l147 -119q18 -16 41 -39.5t55.5 -92t32.5 -142.5v-125h-221v125q0 53 -49 102l-215 179h-148v-406h-221v1401zM451 -147h389v-226
q0 -147 -91.5 -261t-232.5 -148l-61 211q72 14 117.5 70.5t45.5 131.5h-167v222z" />
    <glyph glyph-name="kgreenlandic" unicode="&#x138;" 
d="M215 1044h221v-417h146l174 147q31 27 49 61.5t22 57.5l2 22v129h222v-129q0 -25 -5.5 -60.5t-43 -113t-103.5 -133.5l-106 -90l147 -119q18 -16 41 -39.5t55.5 -92t32.5 -142.5v-125h-221v125q0 53 -49 102l-215 179h-148v-406h-221v1044z" />
    <glyph glyph-name="Lacute" unicode="&#x139;" 
d="M340 1511l-158 158l316 316l157 -158zM233 1401h222v-1180h608v-221h-830v1401z" />
    <glyph glyph-name="lacute" unicode="&#x13a;" 
d="M524 1511l-157 158l315 316l158 -158zM1178 266q-33 -125 -135.5 -204.5t-235.5 -79.5q-158 0 -271.5 113.5t-113.5 271.5v813h-307v221h528v-1034q0 -68 48 -116t116 -48q57 0 103 36.5t59 92.5z" />
    <glyph glyph-name="Lcommaaccent" unicode="&#x13b;" 
d="M233 1401h222v-1180h608v-221h-830v1401zM455 -147h389v-226q0 -147 -91 -261t-233 -148l-61 211q72 14 118 70.5t46 131.5h-168v222z" />
    <glyph glyph-name="lcommaaccent" unicode="&#x13c;" 
d="M1178 266q-33 -125 -135.5 -204.5t-235.5 -79.5q-158 0 -271.5 113.5t-113.5 271.5v813h-307v221h528v-1034q0 -68 48 -116t116 -48q57 0 103 36.5t59 92.5zM612 -147h389v-226q0 -147 -91 -261t-232 -148l-62 211q72 14 118 70.5t46 131.5h-168v222z" />
    <glyph glyph-name="Lcaron" unicode="&#x13d;" 
d="M233 1401h222v-1180h608v-221h-830v1401zM549 1401h389v-225q0 -147 -91 -261t-233 -149l-61 211q72 14 118 70.5t46 132.5h-168v221z" />
    <glyph glyph-name="lcaron" unicode="&#x13e;" 
d="M1178 266q-33 -125 -135.5 -204.5t-235.5 -79.5q-158 0 -271.5 113.5t-113.5 271.5v813h-307v221h528v-1034q0 -68 48 -116t116 -48q57 0 103 36.5t59 92.5zM737 1401h389v-225q0 -147 -91 -261t-232 -149l-62 211q72 14 118 70.5t46 132.5h-168v221z" />
    <glyph glyph-name="Ldot" unicode="&#x13f;" 
d="M233 1401h222v-1180h608v-221h-830v1401zM602 596v338h221v-338h-221z" />
    <glyph glyph-name="ldot" unicode="&#x140;" 
d="M1178 266q-33 -125 -135.5 -204.5t-235.5 -79.5q-158 0 -271.5 113.5t-113.5 271.5v813h-307v221h528v-1034q0 -68 48 -116t116 -48q57 0 103 36.5t59 92.5zM739 651v338h222v-338h-222z" />
    <glyph glyph-name="Lslash" unicode="&#x141;" 
d="M516 221h608v-221h-829v381l-55 -55l-156 157l211 211v707h221v-486l195 195l157 -156l-352 -352v-381z" />
    <glyph glyph-name="lslash" unicode="&#x142;" 
d="M969 332l209 -66q-33 -125 -135.5 -204.5t-235.5 -79.5q-158 0 -271.5 113.5t-113.5 271.5v114l-47 -47l-158 156l205 203v387h-307v221h528v-389l64 63l155 -155l-219 -220v-333q0 -68 48 -116t116 -48q57 0 103.5 37t58.5 92z" />
    <glyph glyph-name="Nacute" unicode="&#x143;" 
d="M604 1511l-158 158l316 316l158 -158zM147 1401h277l424 -1000v1000h221v-1401h-276l-424 999v-999h-222v1401z" />
    <glyph glyph-name="nacute" unicode="&#x144;" 
d="M948 1470l-315 -315l-158 158l316 315zM651 1063q162 0 274.5 -112.5t112.5 -274.5v-676h-221v676q0 70 -48 118t-118 48h-73q-68 0 -117 -48.5t-49 -117.5v-676h-222v1044h222v-55q96 74 221 74h18z" />
    <glyph glyph-name="Ncommaaccent" unicode="&#x145;" 
d="M147 1401h277l424 -1000v1000h221v-1401h-276l-424 999v-999h-222v1401zM414 -147h389v-226q0 -147 -91 -261t-233 -148l-61 211q72 14 118 70.5t46 131.5h-168v222z" />
    <glyph glyph-name="ncommaaccent" unicode="&#x146;" 
d="M651 1063q162 0 274.5 -112.5t112.5 -274.5v-676h-221v676q0 70 -48 118t-118 48h-73q-68 0 -117 -48.5t-49 -117.5v-676h-222v1044h222v-55q96 74 221 74h18zM442 -369v222h389v-226q0 -147 -91 -261t-232 -148l-62 211q72 14 118 70.5t46 131.5h-168z" />
    <glyph glyph-name="Ncaron" unicode="&#x147;" 
d="M258 1806l158 158l192 -195l195 195l155 -158l-258 -258h-184zM147 1401h277l424 -1000v1000h221v-1401h-276l-424 999v-999h-222v1401z" />
    <glyph glyph-name="ncaron" unicode="&#x148;" 
d="M729 1192h-184l-258 258l157 158l193 -195l194 195l156 -158zM651 1063q162 0 274.5 -112.5t112.5 -274.5v-676h-221v676q0 70 -48 118t-118 48h-73q-68 0 -117 -48.5t-49 -117.5v-676h-222v1044h222v-55q96 74 221 74h18z" />
    <glyph glyph-name="napostrophe" unicode="&#x149;" 
d="M322 1444q0 -147 -91.5 -261t-232.5 -149l-61 211q72 14 117.5 70.5t45.5 132.5h-168v221h390v-225zM651 1063q162 0 274.5 -112.5t112.5 -274.5v-676h-221v676q0 70 -48 118t-118 48h-73q-68 0 -117 -48.5t-49 -117.5v-676h-222v1044h222v-55q96 74 221 74h18z" />
    <glyph glyph-name="Eng" unicode="&#x14a;" 
d="M848 1401h221v-1479q0 -115 -81 -196.5t-197 -81.5h-60v223h62q23 0 39 16.5t16 38.5v78h-55l-424 999v-999h-222v1401h277l424 -1000v1000z" />
    <glyph glyph-name="eng" unicode="&#x14b;" 
d="M651 1063q162 0 274.5 -112.5t112.5 -274.5v-754q0 -115 -80.5 -196.5t-197.5 -81.5h-60v223h62q23 0 39 16.5t16 38.5v754q0 70 -48 118t-118 48h-73q-68 0 -117 -48.5t-49 -117.5v-676h-222v1044h222v-55q96 74 221 74h18z" />
    <glyph glyph-name="Omacron" unicode="&#x14c;" 
d="M301 1548v221h614v-221h-614zM559 -18q-160 0 -273.5 113.5t-113.5 273.5v663q0 160 113.5 273.5t273.5 113.5h98q160 0 273.5 -113.5t113.5 -273.5v-663q0 -160 -113.5 -273.5t-273.5 -113.5h-98zM559 203h98q70 0 118 48t48 118v663q0 70 -48 118t-118 48h-98
q-70 0 -118 -48t-48 -118v-663q0 -70 48 -118t118 -48z" />
    <glyph glyph-name="omacron" unicode="&#x14d;" 
d="M301 1192v221h614v-221h-614zM571 1063h74q160 0 273.5 -113.5t113.5 -273.5v-307q0 -160 -113.5 -273.5t-273.5 -113.5h-74q-160 0 -273.5 113.5t-113.5 273.5v307q0 160 113.5 273.5t273.5 113.5zM571 842q-68 0 -116.5 -48.5t-48.5 -117.5v-307q0 -70 49 -118t116 -48
h74q70 0 118 48t48 118v307q0 70 -48 118t-118 48h-74z" />
    <glyph glyph-name="Obreve" unicode="&#x14e;" 
d="M319 1819h222q0 -29 20.5 -48.5t47 -19.5t47 19.5t20.5 48.5h221q0 -119 -84 -204t-205 -85t-205 85t-84 204zM559 -18q-160 0 -273.5 113.5t-113.5 273.5v663q0 160 113.5 273.5t273.5 113.5h98q160 0 273.5 -113.5t113.5 -273.5v-663q0 -160 -113.5 -273.5
t-273.5 -113.5h-98zM559 203h98q70 0 118 48t48 118v663q0 70 -48 118t-118 48h-98q-70 0 -118 -48t-48 -118v-663q0 -70 48 -118t118 -48z" />
    <glyph glyph-name="obreve" unicode="&#x14f;" 
d="M319 1462h222q0 -29 20.5 -48t47 -19t47 19.5t20.5 47.5h221q0 -119 -84 -203.5t-205 -84.5t-205 84.5t-84 203.5zM571 1063h74q160 0 273.5 -113.5t113.5 -273.5v-307q0 -160 -113.5 -273.5t-273.5 -113.5h-74q-160 0 -273.5 113.5t-113.5 273.5v307q0 160 113.5 273.5
t273.5 113.5zM571 842q-68 0 -116.5 -48.5t-48.5 -117.5v-307q0 -70 49 -118t116 -48h74q70 0 118 48t48 118v307q0 70 -48 118t-118 48h-74z" />
    <glyph glyph-name="Ohungarumlaut" unicode="&#x150;" 
d="M424 1511l-158 158l316 316l157 -158zM879 1511l-158 158l315 316l158 -158zM559 -18q-160 0 -273.5 113.5t-113.5 273.5v663q0 160 113.5 273.5t273.5 113.5h98q160 0 273.5 -113.5t113.5 -273.5v-663q0 -160 -113.5 -273.5t-273.5 -113.5h-98zM559 203h98q70 0 118 48
t48 118v663q0 70 -48 118t-118 48h-98q-70 0 -118 -48t-48 -118v-663q0 -70 48 -118t118 -48z" />
    <glyph glyph-name="ohungarumlaut" unicode="&#x151;" 
d="M424 1155l-158 158l316 315l157 -158zM879 1155l-158 158l315 315l158 -158zM571 1063h74q160 0 273.5 -113.5t113.5 -273.5v-307q0 -160 -113.5 -273.5t-273.5 -113.5h-74q-160 0 -273.5 113.5t-113.5 273.5v307q0 160 113.5 273.5t273.5 113.5zM571 842
q-68 0 -116.5 -48.5t-48.5 -117.5v-307q0 -70 49 -118t116 -48h74q70 0 118 48t48 118v307q0 70 -48 118t-118 48h-74z" />
    <glyph glyph-name="OE" unicode="&#x152;" 
d="M1122 1180h-272v-369h211v-221h-211v-369h272v-221h-493v2q-51 -20 -103 -20q-133 0 -227 95t-94 228v793q0 133 94 227t227 94q51 0 103 -20v2h493v-221zM526 203q41 0 72 29.5t31 72.5v793q0 41 -31 70.5t-72 29.5q-43 0 -71.5 -29.5t-28.5 -70.5v-793
q0 -43 28.5 -72.5t71.5 -29.5z" />
    <glyph glyph-name="oe" unicode="&#x153;" 
d="M1151 416h-424v-111q0 -41 29.5 -71.5t70.5 -30.5q37 0 65 22.5t34 57.5l213 -64q-29 -104 -115 -170.5t-197 -66.5q-129 0 -211 102q-86 -102 -213 -102q-133 0 -227 95t-94 228v436q0 133 94 227.5t227 94.5q129 0 213 -100q80 100 211 100q133 0 228.5 -94.5
t95.5 -227.5v-325zM506 305v436q0 43 -30 72t-73 29q-41 0 -70.5 -29t-29.5 -72v-436q0 -41 29.5 -71.5t70.5 -30.5t72 30.5t31 71.5zM727 741v-131h203v131q0 43 -30 72t-73 29q-41 0 -70.5 -29t-29.5 -72z" />
    <glyph glyph-name="Racute" unicode="&#x154;" 
d="M905 1827l-315 -316l-158 158l316 316zM940 442q129 -139 129 -313v-129h-221v129q0 88 -70 162l-225 237h-129v-528h-221v1401h461q162 0 274.5 -113.5t112.5 -273.5v-99q0 -115 -62.5 -210t-163.5 -142zM424 1180v-430h240q70 0 117.5 48t47.5 117v99q0 70 -48 118
t-117 48h-240z" />
    <glyph glyph-name="racute" unicode="&#x155;" 
d="M743 1155l-157 158l315 315l158 -158zM111 0v221h208v455q0 162 114 274.5t274 112.5h77q135 0 239.5 -82t137.5 -209l-213 -63q-12 57 -57 95t-107 38h-77q-70 0 -118 -48.5t-48 -117.5v-455h442v-221h-872z" />
    <glyph glyph-name="Rcommaaccent" unicode="&#x156;" 
d="M940 442q129 -139 129 -313v-129h-221v129q0 88 -70 162l-225 237h-129v-528h-221v1401h461q162 0 274.5 -113.5t112.5 -273.5v-99q0 -115 -62.5 -210t-163.5 -142zM424 1180v-430h240q70 0 117.5 48t47.5 117v99q0 70 -48 118t-117 48h-240zM438 -369v222h389v-226
q0 -147 -91 -261t-232 -148l-62 211q72 14 118 70.5t46 131.5h-168z" />
    <glyph glyph-name="rcommaaccent" unicode="&#x157;" 
d="M111 0v221h208v455q0 162 114 274.5t274 112.5h77q135 0 239.5 -82t137.5 -209l-213 -63q-12 57 -57 95t-107 38h-77q-70 0 -118 -48.5t-48 -117.5v-455h442v-221h-872zM352 -147h389v-226q0 -147 -91 -261t-232 -148l-62 211q72 14 118 70.5t46 131.5h-168v222z" />
    <glyph glyph-name="Rcaron" unicode="&#x158;" 
d="M686 1548h-184l-258 258l157 158l193 -195l194 195l156 -158zM940 442q129 -139 129 -313v-129h-221v129q0 88 -70 162l-225 237h-129v-528h-221v1401h461q162 0 274.5 -113.5t112.5 -273.5v-99q0 -115 -62.5 -210t-163.5 -142zM424 1180v-430h240q70 0 117.5 48
t47.5 117v99q0 70 -48 118t-117 48h-240z" />
    <glyph glyph-name="rcaron" unicode="&#x159;" 
d="M397 1450l158 158l193 -195l194 195l156 -158l-258 -258h-185zM111 0v221h208v455q0 162 114 274.5t274 112.5h77q135 0 239.5 -82t137.5 -209l-213 -63q-12 57 -57 95t-107 38h-77q-70 0 -118 -48.5t-48 -117.5v-455h442v-221h-872z" />
    <glyph glyph-name="Sacute" unicode="&#x15a;" 
d="M602 1511l-158 158l316 316l158 -158zM141 274l211 62q10 -57 57.5 -95t106.5 -38h139q68 0 117 48t49 118q0 143 -166 206l-174 66q-311 123 -311 391q0 162 113.5 274.5t273.5 112.5h96q135 0 239.5 -82t135.5 -209l-213 -61q-10 55 -56 93t-106 38h-96q-70 0 -118 -48
t-48 -118q0 -59 35 -102t139 -84l176 -68q141 -57 221 -162.5t80 -246.5q0 -162 -113.5 -274.5t-273.5 -112.5h-139q-135 0 -239.5 82.5t-135.5 209.5z" />
    <glyph glyph-name="sacute" unicode="&#x15b;" 
d="M618 1155l-157 158l315 315l158 -158zM184 217l213 66q6 -35 33 -57.5t62 -22.5h225q39 0 67.5 28.5t28.5 67.5q0 47 -32.5 74.5t-80.5 32.5l-190 22q-131 12 -218 102.5t-87 214.5q0 131 92 224.5t225 93.5h189q111 0 194.5 -65.5t112.5 -170.5l-213 -61q-6 33 -33 54.5
t-61 21.5h-189q-39 0 -67.5 -28t-28.5 -68.5t31.5 -67.5t79.5 -31l196 -22q131 -16 216 -106.5t85 -219.5q0 -131 -93 -224t-224 -93h-225q-109 0 -194 66.5t-114 168.5z" />
    <glyph glyph-name="Scircumflex" unicode="&#x15c;" 
d="M256 1630l258 258h184l258 -258l-155 -157l-195 194l-192 -194zM141 274l211 62q10 -57 57.5 -95t106.5 -38h139q68 0 117 48t49 118q0 143 -166 206l-174 66q-311 123 -311 391q0 162 113.5 274.5t273.5 112.5h96q135 0 239.5 -82t135.5 -209l-213 -61q-10 55 -56 93
t-106 38h-96q-70 0 -118 -48t-48 -118q0 -59 35 -102t139 -84l176 -68q141 -57 221 -162.5t80 -246.5q0 -162 -113.5 -274.5t-273.5 -112.5h-139q-135 0 -239.5 82.5t-135.5 209.5z" />
    <glyph glyph-name="scircumflex" unicode="&#x15d;" 
d="M272 1274l258 258h185l258 -258l-156 -158l-194 195l-193 -195zM184 217l213 66q6 -35 33 -57.5t62 -22.5h225q39 0 67.5 28.5t28.5 67.5q0 47 -32.5 74.5t-80.5 32.5l-190 22q-131 12 -218 102.5t-87 214.5q0 131 92 224.5t225 93.5h189q111 0 194.5 -65.5t112.5 -170.5
l-213 -61q-6 33 -33 54.5t-61 21.5h-189q-39 0 -67.5 -28t-28.5 -68.5t31.5 -67.5t79.5 -31l196 -22q131 -16 216 -106.5t85 -219.5q0 -131 -93 -224t-224 -93h-225q-109 0 -194 66.5t-114 168.5z" />
    <glyph glyph-name="Scedilla" unicode="&#x15e;" 
d="M1042 369q0 -150 -99 -259.5t-247 -125.5v-72q78 -35 125 -106.5t47 -157.5q0 -119 -84 -204t-204 -85h-105v221h105q29 0 48 19.5t19 48t-20.5 48t-46.5 19.5h-105v269q-123 12 -214 93t-120 197l211 62q10 -57 57.5 -95t106.5 -38h139q68 0 117 48t49 118
q0 143 -166 206l-174 66q-311 123 -311 391q0 162 113.5 274.5t273.5 112.5h96q135 0 239.5 -82t135.5 -209l-213 -61q-10 55 -56 93t-106 38h-96q-70 0 -118 -48t-48 -118q0 -59 35 -102t139 -84l176 -68q141 -57 221 -162.5t80 -246.5z" />
    <glyph glyph-name="scedilla" unicode="&#x15f;" 
d="M1034 299q0 -129 -91 -222t-222 -95v-70q78 -35 125 -106.5t47 -157.5q0 -119 -84 -204t-205 -85h-104v221h104q29 0 48.5 19.5t19.5 48t-20.5 48t-47.5 19.5h-104v267h-8q-109 0 -194 66.5t-114 168.5l213 66q6 -35 33 -57.5t62 -22.5h225q39 0 67.5 28.5t28.5 67.5
q0 47 -32.5 74.5t-80.5 32.5l-190 22q-131 12 -218 102.5t-87 214.5q0 131 92 224.5t225 93.5h189q111 0 194.5 -65.5t112.5 -170.5l-213 -61q-6 33 -33 54.5t-61 21.5h-189q-39 0 -67.5 -28t-28.5 -68.5t31.5 -67.5t79.5 -31l196 -22q131 -16 216 -106.5t85 -219.5z" />
    <glyph glyph-name="Scaron" unicode="&#x160;" 
d="M256 1806l158 158l192 -195l195 195l155 -158l-258 -258h-184zM141 274l211 62q10 -57 57.5 -95t106.5 -38h139q68 0 117 48t49 118q0 143 -166 206l-174 66q-311 123 -311 391q0 162 113.5 274.5t273.5 112.5h96q135 0 239.5 -82t135.5 -209l-213 -61q-10 55 -56 93
t-106 38h-96q-70 0 -118 -48t-48 -118q0 -59 35 -102t139 -84l176 -68q141 -57 221 -162.5t80 -246.5q0 -162 -113.5 -274.5t-273.5 -112.5h-139q-135 0 -239.5 82.5t-135.5 209.5z" />
    <glyph glyph-name="scaron" unicode="&#x161;" 
d="M272 1450l158 158l193 -195l194 195l156 -158l-258 -258h-185zM184 217l213 66q6 -35 33 -57.5t62 -22.5h225q39 0 67.5 28.5t28.5 67.5q0 47 -32.5 74.5t-80.5 32.5l-190 22q-131 12 -218 102.5t-87 214.5q0 131 92 224.5t225 93.5h189q111 0 194.5 -65.5t112.5 -170.5
l-213 -61q-6 33 -33 54.5t-61 21.5h-189q-39 0 -67.5 -28t-28.5 -68.5t31.5 -67.5t79.5 -31l196 -22q131 -16 216 -106.5t85 -219.5q0 -131 -93 -224t-224 -93h-225q-109 0 -194 66.5t-114 168.5z" />
    <glyph glyph-name="Tcommaaccent" unicode="&#x162;" 
d="M719 1180v-1268q78 -35 125 -106.5t47 -157.5q0 -119 -85 -204t-204 -85h-104v221h104q29 0 48.5 19.5t19.5 48t-19.5 48t-48.5 19.5h-104v1465h-338v221h897v-221h-338z" />
    <glyph glyph-name="tcommaaccent" unicode="&#x163;" 
d="M885 -88q78 -35 125 -106.5t47 -157.5q0 -119 -84 -204t-205 -85h-104v221h104q29 0 48.5 19.5t19.5 48t-20.5 48t-47.5 19.5h-104v283q-121 37 -198 139.5t-77 229.5v456h-283v221h283v283h221v-283h455v-221h-455v-456q0 -68 48.5 -116t115.5 -48q57 0 102.5 36.5
t57.5 92.5l211 -66q-25 -94 -94.5 -166.5t-165.5 -101.5v-86z" />
    <glyph glyph-name="Tcaron" unicode="&#x164;" 
d="M258 1806l158 158l192 -195l195 195l155 -158l-258 -258h-184zM160 1401h897v-221h-338v-1180h-221v1180h-338v221z" />
    <glyph glyph-name="tcaron" unicode="&#x165;" 
d="M696 1769h389v-225q0 -147 -91 -261t-232 -148l-62 211q72 14 118 70.5t46 131.5h-168v221zM106 823v221h283v283h221v-283h455v-221h-455v-456q0 -68 48.5 -116t115.5 -48q57 0 102.5 36.5t57.5 92.5l211 -66q-33 -123 -136.5 -203.5t-234.5 -80.5q-158 0 -271.5 113.5
t-113.5 271.5v456h-283z" />
    <glyph glyph-name="Tbar" unicode="&#x166;" 
d="M1057 1180h-338v-432h213v-222h-213v-526h-221v526h-217v222h217v432h-338v221h897v-221z" />
    <glyph glyph-name="tbar" unicode="&#x167;" 
d="M934 332l211 -66q-33 -123 -136.5 -203.5t-234.5 -80.5q-158 0 -271.5 113.5t-113.5 271.5v82h-205v221h205v153h-283v221h283v283h221v-283h455v-221h-455v-153h228v-221h-228v-82q0 -68 48.5 -116t115.5 -48q57 0 102.5 37t57.5 92z" />
    <glyph glyph-name="Utilde" unicode="&#x168;" 
d="M195 1567v39q0 117 82.5 198.5t197.5 81.5q82 0 152 -47q14 -8 33.5 -22.5t30.5 -21.5t24.5 -13t25.5 -6q25 0 42.5 17t17.5 42v39h221v-39q0 -117 -82 -199t-199 -82q-82 0 -151 45q-12 8 -39 28t-44.5 29t-31.5 9q-25 0 -42 -17.5t-17 -41.5v-39h-221zM174 1401h221
v-1032q0 -70 48.5 -118t117.5 -48h98q70 0 118 48t48 118v1032h222v-1032q0 -160 -114 -273.5t-274 -113.5h-98q-162 0 -274.5 113.5t-112.5 273.5v1032z" />
    <glyph glyph-name="utilde" unicode="&#x169;" 
d="M195 1210v39q0 117 82.5 199t197.5 82q82 0 152 -47q14 -8 33.5 -22.5t30.5 -21.5t24.5 -13.5t25.5 -6.5q25 0 42.5 17.5t17.5 42.5v39h221v-39q0 -117 -82 -199t-199 -82q-82 0 -151 45q-12 8 -39 27.5t-44.5 29t-31.5 9.5q-25 0 -42 -17.5t-17 -42.5v-39h-221z
M184 1044h222v-675q0 -70 48 -118t117 -48h74q70 0 118 48t48 118v675h221v-675q0 -160 -113.5 -273.5t-273.5 -113.5h-74q-160 0 -273.5 113.5t-113.5 273.5v675z" />
    <glyph glyph-name="Umacron" unicode="&#x16a;" 
d="M301 1548v221h614v-221h-614zM174 1401h221v-1032q0 -70 48.5 -118t117.5 -48h98q70 0 118 48t48 118v1032h222v-1032q0 -160 -114 -273.5t-274 -113.5h-98q-162 0 -274.5 113.5t-112.5 273.5v1032z" />
    <glyph glyph-name="umacron" unicode="&#x16b;" 
d="M301 1192v221h614v-221h-614zM184 1044h222v-675q0 -70 48 -118t117 -48h74q70 0 118 48t48 118v675h221v-675q0 -160 -113.5 -273.5t-273.5 -113.5h-74q-160 0 -273.5 113.5t-113.5 273.5v675z" />
    <glyph glyph-name="Ubreve" unicode="&#x16c;" 
d="M319 1819h222q0 -29 20.5 -48.5t47 -19.5t47 19.5t20.5 48.5h221q0 -119 -84 -204t-205 -85t-205 85t-84 204zM174 1401h221v-1032q0 -70 48.5 -118t117.5 -48h98q70 0 118 48t48 118v1032h222v-1032q0 -160 -114 -273.5t-274 -113.5h-98q-162 0 -274.5 113.5
t-112.5 273.5v1032z" />
    <glyph glyph-name="ubreve" unicode="&#x16d;" 
d="M319 1462h222q0 -29 20.5 -48t47 -19t47 19.5t20.5 47.5h221q0 -119 -84 -203.5t-205 -84.5t-205 84.5t-84 203.5zM184 1044h222v-675q0 -70 48 -118t117 -48h74q70 0 118 48t48 118v675h221v-675q0 -160 -113.5 -273.5t-273.5 -113.5h-74q-160 0 -273.5 113.5
t-113.5 273.5v675z" />
    <glyph glyph-name="Uring" unicode="&#x16e;" 
d="M319 1689.5q0 120.5 84 204.5t205 84t205 -84t84 -204.5t-84 -204.5t-205 -84t-205 84t-84 204.5zM541 1689.5q0 -26.5 20.5 -47t47 -20.5t47 20.5t20.5 47t-20.5 47t-47 20.5t-47 -20.5t-20.5 -47zM174 1401h221v-1032q0 -70 48.5 -118t117.5 -48h98q70 0 118 48t48 118
v1032h222v-1032q0 -160 -114 -273.5t-274 -113.5h-98q-162 0 -274.5 113.5t-112.5 273.5v1032z" />
    <glyph glyph-name="uring" unicode="&#x16f;" 
d="M319 1333q0 121 84 205t205 84t205 -84t84 -205t-84 -205t-205 -84t-205 84t-84 205zM541 1333.5q0 -26.5 20.5 -47t47 -20.5t47 20.5t20.5 47t-20.5 47t-47 20.5t-47 -20.5t-20.5 -47zM184 1044h222v-675q0 -70 48 -118t117 -48h74q70 0 118 48t48 118v675h221v-675
q0 -160 -113.5 -273.5t-273.5 -113.5h-74q-160 0 -273.5 113.5t-113.5 273.5v675z" />
    <glyph glyph-name="Uhungarumlaut" unicode="&#x170;" 
d="M424 1511l-158 158l316 316l157 -158zM879 1511l-158 158l315 316l158 -158zM174 1401h221v-1032q0 -70 48.5 -118t117.5 -48h98q70 0 118 48t48 118v1032h222v-1032q0 -160 -114 -273.5t-274 -113.5h-98q-162 0 -274.5 113.5t-112.5 273.5v1032z" />
    <glyph glyph-name="uhungarumlaut" unicode="&#x171;" 
d="M424 1155l-158 158l316 315l157 -158zM879 1155l-158 158l315 315l158 -158zM184 1044h222v-675q0 -70 48 -118t117 -48h74q70 0 118 48t48 118v675h221v-675q0 -160 -113.5 -273.5t-273.5 -113.5h-74q-160 0 -273.5 113.5t-113.5 273.5v675z" />
    <glyph glyph-name="Uogonek" unicode="&#x172;" 
d="M825 1401h222v-1032q0 -143 -94.5 -252t-235.5 -131v-64q0 -23 16.5 -39t38.5 -16h62v-223h-60q-117 0 -197.5 81.5t-80.5 196.5v66q-139 23 -230.5 130t-91.5 251v1032h221v-1032q0 -70 48.5 -118t117.5 -48h98q70 0 118 48t48 118v1032z" />
    <glyph glyph-name="uogonek" unicode="&#x173;" 
d="M811 1044h221v-675q0 -139 -89 -247t-224 -134v-66q0 -23 16.5 -39t38.5 -16h62v-223h-60q-117 0 -197.5 81.5t-80.5 196.5v66q-135 27 -224.5 134t-89.5 247v675h222v-675q0 -70 48 -118t117 -48h74q70 0 118 48t48 118v675z" />
    <glyph glyph-name="Wcircumflex" unicode="&#x174;" 
d="M258 1630l258 258h184l258 -258l-155 -157l-195 194l-192 -194zM104 1401h222v-275q0 -129 20 -249l74 -490l88 502h203l86 -500l75 488q20 135 21 251v273h221v-275q0 -145 -22 -286l-138 -840h-231l-115 575l-112 -575h-232l-139 840q-20 141 -21 286v275z" />
    <glyph glyph-name="wcircumflex" unicode="&#x175;" 
d="M258 1274l258 258h184l258 -258l-155 -158l-195 195l-192 -195zM102 913v131h222v-131q0 -113 26 -239l64 -322l104 514h180l105 -514l63 322q29 125 29 239v131h221v-131q0 -145 -33 -288l-139 -625h-221l-115 563l-114 -563h-222l-139 625q-31 143 -31 288z" />
    <glyph glyph-name="Ycircumflex" unicode="&#x176;" 
d="M258 1630l258 258h184l258 -258l-155 -157l-195 194l-192 -194zM1069 1112q0 -63 -22.5 -128.5t-40 -93.5t-29.5 -42l-258 -332v-516h-221v516l-258 332q-12 14 -29.5 42t-40.5 93.5t-23 128.5v289h222v-289q0 -31 11 -62.5t20.5 -47t13.5 -19.5l194 -250l195 250
q4 4 13 19.5t20.5 47t11.5 62.5v289h221v-289z" />
    <glyph glyph-name="ycircumflex" unicode="&#x177;" 
d="M258 1274l258 258h184l258 -258l-155 -158l-195 195l-192 -195zM152 1044h221v-131q0 -98 53 -196l186 -340l189 340q51 92 51 196v131h221v-131q0 -162 -80 -305l-440 -798q-43 -74 -119 -120t-166 -46h-174v221h174q51 0 92 55l125 230l-254 458q-80 143 -79 305v131z
" />
    <glyph glyph-name="Ydieresis" unicode="&#x178;" 
d="M301 1536v338h221v-338h-221zM694 1536v338h221v-338h-221zM1069 1112q0 -63 -22.5 -128.5t-40 -93.5t-29.5 -42l-258 -332v-516h-221v516l-258 332q-12 14 -29.5 42t-40.5 93.5t-23 128.5v289h222v-289q0 -31 11 -62.5t20.5 -47t13.5 -19.5l194 -250l195 250
q4 4 13 19.5t20.5 47t11.5 62.5v289h221v-289z" />
    <glyph glyph-name="Zacute" unicode="&#x179;" 
d="M604 1511l-158 158l316 316l158 -158zM199 1401h811v-221l-582 -959h600v-221h-848v221l580 959h-561v221z" />
    <glyph glyph-name="zacute" unicode="&#x17a;" 
d="M608 1155l-157 158l315 315l158 -158zM227 1044h768v-221l-495 -602h514v-221h-805v221l496 602h-478v221z" />
    <glyph glyph-name="Zdotaccent" unicode="&#x17b;" 
d="M498 1536v338h221v-338h-221zM199 1401h811v-221l-582 -959h600v-221h-848v221l580 959h-561v221z" />
    <glyph glyph-name="zdotaccent" unicode="&#x17c;" 
d="M502 1180v338h221v-338h-221zM227 1044h768v-221l-495 -602h514v-221h-805v221l496 602h-478v221z" />
    <glyph glyph-name="Zcaron" unicode="&#x17d;" 
d="M258 1806l158 158l192 -195l195 195l155 -158l-258 -258h-184zM199 1401h811v-221l-582 -959h600v-221h-848v221l580 959h-561v221z" />
    <glyph glyph-name="zcaron" unicode="&#x17e;" 
d="M262 1450l158 158l192 -195l195 195l156 -158l-258 -258h-185zM227 1044h768v-221l-495 -602h514v-221h-805v221l496 602h-478v221z" />
    <glyph glyph-name="uni0186" unicode="&#x186;" 
d="M170 1126q33 127 137.5 210t237.5 83h98q162 0 274.5 -113.5t112.5 -273.5v-663q0 -160 -112.5 -273.5t-274.5 -113.5h-98q-133 0 -237.5 82.5t-137.5 209.5l213 62q10 -55 56 -94t106 -39h98q70 0 118 48t48 118v663q0 68 -48 117t-118 49h-98q-59 0 -105.5 -38
t-56.5 -95z" />
    <glyph glyph-name="uni0189" unicode="&#x189;" 
d="M676 1401q160 0 273.5 -113.5t113.5 -273.5v-627q0 -160 -113.5 -273.5t-273.5 -113.5h-461v590h-170v221h170v590h461zM842 387v627q0 70 -48.5 118t-117.5 48h-240v-369h258v-221h-258v-369h240q70 0 118 48t48 118z" />
    <glyph glyph-name="uni018E" unicode="&#x18e;" 
d="M1001 0h-847v221h626v369h-565v221h565v369h-626v221h847v-1401z" />
    <glyph glyph-name="uni018F" unicode="&#x18f;" 
d="M184 1128q33 127 137.5 209t237.5 82h103q162 0 274.5 -112.5t112.5 -270.5v-667q0 -160 -113 -273.5t-274 -113.5h-99q-160 0 -273.5 113.5t-113.5 273.5v442h651v221q0 70 -48 118t-117 48h-103q-59 0 -104 -38t-58 -95zM397 590v-221q0 -70 48.5 -118t117.5 -48h99
q70 0 117.5 48t47.5 118v221h-430z" />
    <glyph glyph-name="uni0190" unicode="&#x190;" 
d="M709 203q61 0 107 38t56 95l213 -62q-33 -129 -137 -210.5t-239 -81.5h-103q-160 0 -273.5 113.5t-113.5 273.5v67q0 88 44 162t116 119q-147 96 -148 272v43q0 162 114 274.5t273 112.5h91q135 0 239.5 -83t136.5 -210l-213 -61q-10 57 -56 95t-107 38h-91
q-68 0 -116.5 -49t-48.5 -117v-43q0 -70 49 -118t116 -48h197v-221h-209q-68 0 -117 -49t-49 -117v-67q0 -70 49.5 -118t116.5 -48h103z" />
    <glyph glyph-name="florin" unicode="&#x192;" 
d="M719 1087v-276h282v-221h-282v-277q0 -137 -97.5 -234t-234.5 -97q-115 0 -204 69.5t-115 177.5l211 64q8 -39 38.5 -64.5t69.5 -25.5q47 0 79 31.5t32 78.5v277h-283v221h283v276q0 137 97 234.5t234 97.5q115 0 204 -70.5t118 -177.5l-213 -63q-8 39 -39 64.5t-70 25.5
q-45 0 -77.5 -33t-32.5 -78z" />
    <glyph glyph-name="uni0197" unicode="&#x197;" 
d="M719 221h313v-221h-848v221h314v385h-183v221h183v353h-295v221h811v-221h-295v-353h188v-221h-188v-385z" />
    <glyph glyph-name="uni019D" unicode="&#x19d;" 
d="M848 1401h221v-1401h-276l-424 999v-1077q0 -115 -81 -196.5t-198 -81.5h-59v223h61q23 0 39 16.5t16 38.5v1479h277l424 -1000v1000z" />
    <glyph glyph-name="uni019F" unicode="&#x19f;" 
d="M657 1419q160 0 273.5 -113.5t113.5 -273.5v-663q0 -160 -113.5 -273.5t-273.5 -113.5h-98q-160 0 -273.5 113.5t-113.5 273.5v663q0 160 113.5 273.5t273.5 113.5h98zM559 1198q-70 0 -118 -48t-48 -118v-221h430v221q0 70 -48 118t-118 48h-98zM657 203q70 0 118 48
t48 118v221h-430v-221q0 -70 48 -118t118 -48h98z" />
    <glyph glyph-name="Ohorn" unicode="&#x1a0;" 
d="M1014 1401h221v-72q0 -92 -53.5 -167t-137.5 -105v-25v-663q0 -160 -113.5 -273.5t-273.5 -113.5h-98q-160 0 -273.5 113.5t-113.5 273.5v663q0 160 113.5 273.5t273.5 113.5h98q190 0 310 -153q47 14 47 63v72zM823 369v663q0 70 -48 118t-118 48h-98q-70 0 -118 -48
t-48 -118v-663q0 -70 48 -118t118 -48h98q70 0 118 48t48 118z" />
    <glyph glyph-name="ohorn" unicode="&#x1a1;" 
d="M1014 1044h221v-71q0 -96 -57.5 -172t-145.5 -105v-20v-307q0 -160 -113.5 -273.5t-273.5 -113.5h-74q-160 0 -273.5 113.5t-113.5 273.5v307q0 160 114 273.5t273 113.5h74q195 0 311 -158q25 4 41.5 23.5t16.5 44.5v71zM811 369v307q0 70 -48 118t-118 48h-74
q-68 0 -116.5 -48.5t-48.5 -117.5v-307q0 -70 49 -118t116 -48h74q70 0 118 48t48 118z" />
    <glyph glyph-name="uni01A9" unicode="&#x1a9;" 
d="M195 1401h849v-221h-587l293 -480l-308 -479h621v-221h-885v221l309 479l-292 480v221z" />
    <glyph glyph-name="Uhorn" unicode="&#x1af;" 
d="M1133 1401h221v-72q0 -121 -85 -205t-204 -84h-18v-671q0 -160 -114 -273.5t-274 -113.5h-98q-162 0 -274.5 113.5t-112.5 273.5v1032h221v-1032q0 -70 48.5 -118t117.5 -48h98q70 0 118 48t48 118v1032h222v-139h18q29 0 48.5 20.5t19.5 46.5v72z" />
    <glyph glyph-name="uhorn" unicode="&#x1b0;" 
d="M1063 1184h221v-72q0 -111 -72.5 -191.5t-179.5 -95.5v-456q0 -160 -113.5 -273.5t-273.5 -113.5h-74q-160 0 -273.5 113.5t-113.5 273.5v675h222v-675q0 -70 48 -118t117 -48h74q70 0 118 48t48 118v675h184q29 0 48.5 20.5t19.5 47.5v72z" />
    <glyph glyph-name="uni01B1" unicode="&#x1b1;" 
d="M1063 1401v-221h-92q74 -96 73 -222v-589q0 -162 -112.5 -274.5t-274.5 -112.5h-98q-160 0 -273.5 112.5t-113.5 274.5v589q0 121 74 222h-92v221h405v-221q-68 0 -117 -49.5t-49 -116.5v-645q0 -70 49.5 -118t116.5 -48h98q70 0 118 48t48 118v645q0 68 -48 117t-118 49
v221h406z" />
    <glyph glyph-name="uni01CD" unicode="&#x1cd;" 
d="M700 1548h-184l-258 258l158 158l192 -195l195 195l155 -158zM1036 584l4 -19q4 -20 10.5 -51t13.5 -69.5t11 -87t4 -93.5v-264h-221v283v20h-498v-20v-283h-221v264q0 45 4 93.5t10.5 87t12.5 69.5t10 51l4 19l182 651q23 80 91.5 132t154.5 52t154.5 -51t93.5 -133z
M395 524h426q0 2 -1 5t-1 6l-174 636q-10 27 -37 27q-31 0 -37 -27l-174 -636q0 -2 -1 -5.5t-1 -5.5z" />
    <glyph glyph-name="uni01CE" unicode="&#x1ce;" 
d="M700 1192h-184l-258 258l158 158l192 -195l195 195l155 -158zM801 1044h221v-1044h-221v55q-100 -74 -221 -73h-19q-162 0 -274.5 113.5t-112.5 273.5v307q0 162 112.5 274.5t274.5 112.5h19q125 0 221 -74v55zM635 203q68 0 117 49t49 117v307q0 70 -49.5 118t-116.5 48
h-74q-70 0 -118 -48.5t-48 -117.5v-307q0 -68 48.5 -117t117.5 -49h74z" />
    <glyph glyph-name="uni01CF" unicode="&#x1cf;" 
d="M258 1806l158 158l192 -195l195 195l155 -158l-258 -258h-184zM184 221h314v959h-295v221h811v-221h-295v-959h313v-221h-848v221z" />
    <glyph glyph-name="uni01D0" unicode="&#x1d0;" 
d="M301 1450l158 158l192 -195l195 195l155 -158l-258 -258h-184zM264 1044h498v-823h319v-221h-884v221h344v602h-277v221z" />
    <glyph glyph-name="uni01D1" unicode="&#x1d1;" 
d="M258 1806l158 158l192 -195l195 195l155 -158l-258 -258h-184zM559 -18q-160 0 -273.5 113.5t-113.5 273.5v663q0 160 113.5 273.5t273.5 113.5h98q160 0 273.5 -113.5t113.5 -273.5v-663q0 -160 -113.5 -273.5t-273.5 -113.5h-98zM559 203h98q70 0 118 48t48 118v663
q0 70 -48 118t-118 48h-98q-70 0 -118 -48t-48 -118v-663q0 -70 48 -118t118 -48z" />
    <glyph glyph-name="uni01D2" unicode="&#x1d2;" 
d="M258 1450l158 158l192 -195l195 195l155 -158l-258 -258h-184zM571 1063h74q160 0 273.5 -113.5t113.5 -273.5v-307q0 -160 -113.5 -273.5t-273.5 -113.5h-74q-160 0 -273.5 113.5t-113.5 273.5v307q0 160 113.5 273.5t273.5 113.5zM571 842q-68 0 -116.5 -48.5
t-48.5 -117.5v-307q0 -70 49 -118t116 -48h74q70 0 118 48t48 118v307q0 70 -48 118t-118 48h-74z" />
    <glyph glyph-name="uni01D3" unicode="&#x1d3;" 
d="M258 1806l158 158l192 -195l195 195l155 -158l-258 -258h-184zM174 1401h221v-1032q0 -70 48.5 -118t117.5 -48h98q70 0 118 48t48 118v1032h222v-1032q0 -160 -114 -273.5t-274 -113.5h-98q-162 0 -274.5 113.5t-112.5 273.5v1032z" />
    <glyph glyph-name="uni01D4" unicode="&#x1d4;" 
d="M258 1450l158 158l192 -195l195 195l155 -158l-258 -258h-184zM184 1044h222v-675q0 -70 48 -118t117 -48h74q70 0 118 48t48 118v675h221v-675q0 -160 -113.5 -273.5t-273.5 -113.5h-74q-160 0 -273.5 113.5t-113.5 273.5v675z" />
    <glyph glyph-name="uni01D5" unicode="&#x1d5;" 
d="M301 1946v221h614v-221h-614zM301 1536v338h221v-338h-221zM694 1536v338h221v-338h-221zM174 1401h221v-1032q0 -70 48.5 -118t117.5 -48h98q70 0 118 48t48 118v1032h222v-1032q0 -160 -114 -273.5t-274 -113.5h-98q-162 0 -274.5 113.5t-112.5 273.5v1032z" />
    <glyph glyph-name="uni01D6" unicode="&#x1d6;" 
d="M301 1589v221h614v-221h-614zM301 1180v338h221v-338h-221zM694 1180v338h221v-338h-221zM184 1044h222v-675q0 -70 48 -118t117 -48h74q70 0 118 48t48 118v675h221v-675q0 -160 -113.5 -273.5t-273.5 -113.5h-74q-160 0 -273.5 113.5t-113.5 273.5v675z" />
    <glyph glyph-name="uni01D7" unicode="&#x1d7;" 
d="M604 1909l-158 157l316 316l158 -158zM301 1536v338h221v-338h-221zM694 1536v338h221v-338h-221zM174 1401h221v-1032q0 -70 48.5 -118t117.5 -48h98q70 0 118 48t48 118v1032h222v-1032q0 -160 -114 -273.5t-274 -113.5h-98q-162 0 -274.5 113.5t-112.5 273.5v1032z
" />
    <glyph glyph-name="uni01D8" unicode="&#x1d8;" 
d="M604 1552l-158 158l316 315l158 -157zM301 1180v338h221v-338h-221zM694 1180v338h221v-338h-221zM184 1044h222v-675q0 -70 48 -118t117 -48h74q70 0 118 48t48 118v675h221v-675q0 -160 -113.5 -273.5t-273.5 -113.5h-74q-160 0 -273.5 113.5t-113.5 273.5v675z" />
    <glyph glyph-name="uni01D9" unicode="&#x1d9;" 
d="M258 2204l158 157l192 -194l195 194l155 -157l-258 -258h-184zM301 1536v338h221v-338h-221zM694 1536v338h221v-338h-221zM174 1401h221v-1032q0 -70 48.5 -118t117.5 -48h98q70 0 118 48t48 118v1032h222v-1032q0 -160 -114 -273.5t-274 -113.5h-98
q-162 0 -274.5 113.5t-112.5 273.5v1032z" />
    <glyph glyph-name="uni01DA" unicode="&#x1da;" 
d="M258 1847l158 158l192 -195l195 195l155 -158l-258 -258h-184zM301 1180v338h221v-338h-221zM694 1180v338h221v-338h-221zM184 1044h222v-675q0 -70 48 -118t117 -48h74q70 0 118 48t48 118v675h221v-675q0 -160 -113.5 -273.5t-273.5 -113.5h-74q-160 0 -273.5 113.5
t-113.5 273.5v675z" />
    <glyph glyph-name="uni01DB" unicode="&#x1db;" 
d="M612 1909l-315 315l158 158l315 -316zM301 1536v338h221v-338h-221zM694 1536v338h221v-338h-221zM174 1401h221v-1032q0 -70 48.5 -118t117.5 -48h98q70 0 118 48t48 118v1032h222v-1032q0 -160 -114 -273.5t-274 -113.5h-98q-162 0 -274.5 113.5t-112.5 273.5v1032z
" />
    <glyph glyph-name="uni01DC" unicode="&#x1dc;" 
d="M612 1552l-315 316l158 157l315 -315zM301 1180v338h221v-338h-221zM694 1180v338h221v-338h-221zM184 1044h222v-675q0 -70 48 -118t117 -48h74q70 0 118 48t48 118v675h221v-675q0 -160 -113.5 -273.5t-273.5 -113.5h-74q-160 0 -273.5 113.5t-113.5 273.5v675z" />
    <glyph glyph-name="uni01DD" unicode="&#x1dd;" 
d="M639 -18h-74q-160 0 -273.5 113.5t-113.5 273.5v235h627v72q0 70 -48 118t-118 48h-84q-57 0 -102 -37t-58 -92l-213 63q33 125 136.5 206t236.5 81h84q160 0 273.5 -113.5t113.5 -273.5v-307q0 -160 -113.5 -273.5t-273.5 -113.5zM805 412h-406v-43q0 -70 48.5 -118
t117.5 -48h74q70 0 118 48t48 118v43z" />
    <glyph glyph-name="uni01DE" unicode="&#x1de;" 
d="M915 2167v-221h-614v221h614zM522 1874v-338h-221v338h221zM915 1536h-221v338h221v-338zM1036 584l4 -19q4 -20 10.5 -51t13.5 -69.5t11 -87t4 -93.5v-264h-221v283v20h-498v-20v-283h-221v264q0 45 4 93.5t10.5 87t12.5 69.5t10 51l4 19l182 651q23 80 91.5 132
t154.5 52t154.5 -51t93.5 -133zM395 524h426q0 2 -1 5t-1 6l-174 636q-10 27 -37 27q-31 0 -37 -27l-174 -636q0 -2 -1 -5.5t-1 -5.5z" />
    <glyph glyph-name="uni01DF" unicode="&#x1df;" 
d="M915 1810v-221h-614v221h614zM522 1518v-338h-221v338h221zM915 1180h-221v338h221v-338zM801 1044h221v-1044h-221v55q-100 -74 -221 -73h-19q-162 0 -274.5 113.5t-112.5 273.5v307q0 162 112.5 274.5t274.5 112.5h19q125 0 221 -74v55zM635 203q68 0 117 49t49 117
v307q0 70 -49.5 118t-116.5 48h-74q-70 0 -118 -48.5t-48 -117.5v-307q0 -68 48.5 -117t117.5 -49h74z" />
    <glyph glyph-name="Gcaron" unicode="&#x1e6;" 
d="M266 1806l158 158l192 -195l195 195l156 -158l-258 -258h-185zM1042 1126l-211 -61q-12 57 -58 95t-105 38h-103q-70 0 -118 -48t-48 -118v-663q0 -70 48.5 -118t117.5 -48h99q70 0 117.5 48t47.5 118v221h-239v221h461v-442q0 -160 -114 -273.5t-273 -113.5h-99
q-160 0 -273.5 113.5t-113.5 273.5v665q2 160 115 272.5t272 112.5h103q135 0 239 -83t135 -210z" />
    <glyph glyph-name="gcaron" unicode="&#x1e7;" 
d="M676 1192h-184l-259 258l158 158l193 -195l194 195l156 -158zM799 1044h221v-1032q0 -160 -112.5 -273.5t-272.5 -113.5h-78q-135 0 -239.5 83t-137.5 210l213 62q10 -57 56.5 -95.5t107.5 -38.5h78q68 0 116 49.5t48 116.5v113q-96 -74 -221 -74h-19q-160 0 -273.5 114
t-113.5 273v238q0 162 113.5 274.5t273.5 112.5h19q125 0 221 -74v55zM633 272q70 0 118 49.5t48 116.5v238q0 70 -48.5 118t-117.5 48h-74q-68 0 -117 -48.5t-49 -117.5v-238q0 -68 49.5 -117t116.5 -49h74z" />
    <glyph glyph-name="Aringacute" unicode="&#x1fa;" 
d="M920 2142l-316 -315l-158 158l316 315zM1036 584l4 -19q4 -20 10.5 -51t13.5 -69.5t11 -87t4 -93.5v-264h-221v283v20h-498v-20v-283h-221v264q0 45 4 93.5t10.5 87t12.5 69.5t10 51l4 19l182 651q6 23 27 63q-70 80 -70 189q0 119 84 204t205 85t205 -85t84 -204
q0 -106 -70 -189q20 -35 29 -63zM608.5 1554q-26.5 0 -47 -19t-20.5 -48t20.5 -48.5t47 -19.5t47 19.5t20.5 48.5t-20.5 48t-47 19zM395 524h426q0 2 -1 5t-1 6l-174 636q-10 27 -37 27q-31 0 -37 -27l-174 -636q0 -2 -1 -5.5t-1 -5.5z" />
    <glyph glyph-name="aringacute" unicode="&#x1fb;" 
d="M920 1786l-316 -316l-158 158l316 316zM885 1044h137v-1044h-221v55q-100 -74 -221 -73h-19q-162 0 -274.5 113.5t-112.5 273.5v307q0 100 47 186t129 139q-31 59 -31 129q0 119 84 204t205 85t205 -85t84 -204q0 -45 -12 -86zM608.5 1198q-26.5 0 -47 -19.5t-20.5 -48
t20.5 -48t47 -19.5t47 19.5t20.5 48t-20.5 48t-47 19.5zM635 203q68 0 117 49t49 117v307q0 70 -49.5 118t-116.5 48h-74q-70 0 -118 -48.5t-48 -117.5v-307q0 -68 48.5 -117t117.5 -49h74z" />
    <glyph glyph-name="AEacute" unicode="&#x1fc;" 
d="M1020 1827l-315 -316l-158 158l315 316zM1081 1180h-272v-369h211v-221h-211v-369h272v-221h-493v301h-252v-18v-283h-221v264q0 72 10 152t18.5 118.5t12.5 49.5l182 651q23 80 91.5 132t154.5 52q51 0 94 -18h403v-221zM369 522h219v676h-4q-29 0 -37 -27l-174 -636
q0 -2 -2 -6.5t-2 -6.5z" />
    <glyph glyph-name="aeacute" unicode="&#x1fd;" 
d="M924 1470l-316 -315l-157 158l315 315zM1147 416h-424v-111q0 -43 29.5 -72.5t72.5 -29.5q35 0 62.5 22.5t36.5 57.5l211 -64q-29 -104 -114 -170.5t-196 -66.5q-55 0 -102 30v-26h-221v24q-45 -29 -101 -28q-135 0 -229 95t-94 228v436q0 133 94 227.5t229 94.5
q55 0 101 -29v25h221v-25q45 29 102 29q133 0 227.5 -94.5t94.5 -227.5v-325zM401 203q41 0 71 29.5t30 72.5v436q0 41 -30 71t-71 30q-43 0 -72.5 -30t-29.5 -71v-436q0 -43 29.5 -72.5t72.5 -29.5zM825 842q-43 0 -72.5 -30t-29.5 -71v-131h203v131q0 41 -30 71t-71 30z
" />
    <glyph glyph-name="Oslashacute" unicode="&#x1fe;" 
d="M920 1827l-316 -316l-158 158l316 316zM1163 1393l-141 -232q23 -61 22 -129v-663q0 -160 -113.5 -273.5t-273.5 -113.5h-98q-119 0 -219 67l-96 -158l-191 117l142 230q-23 63 -23 131v663q0 160 113.5 273.5t273.5 113.5h98q119 0 222 -69l96 157zM393 1032v-471
l369 600q-47 37 -105 37h-98q-70 0 -118 -48t-48 -118zM823 369v469l-366 -600q41 -35 102 -35h98q70 0 118 48t48 118z" />
    <glyph glyph-name="oslashacute" unicode="&#x1ff;" 
d="M920 1470l-316 -315l-158 158l316 315zM1067 1059l-102 -166q68 -96 67 -217v-307q0 -160 -113.5 -273.5t-273.5 -113.5h-74q-78 0 -147 28l-84 -137l-188 115l100 164q-68 96 -68 217v307q0 160 114 273.5t273 113.5h74q78 0 148 -29l86 142zM406 676v-273l268 437
q-10 2 -29 2h-74q-68 0 -116.5 -48t-48.5 -118zM811 369v272l-268 -436q10 -2 28 -2h74q70 0 118 48t48 118z" />
    <glyph glyph-name="Scommaaccent" unicode="&#x218;" 
d="M141 274l211 62q10 -57 57.5 -95t106.5 -38h139q68 0 117 48t49 118q0 143 -166 206l-174 66q-311 123 -311 391q0 162 113.5 274.5t273.5 112.5h96q135 0 239.5 -82t135.5 -209l-213 -61q-10 55 -56 93t-106 38h-96q-70 0 -118 -48t-48 -118q0 -59 35 -102t139 -84
l176 -68q141 -57 221 -162.5t80 -246.5q0 -162 -113.5 -274.5t-273.5 -112.5h-139q-135 0 -239.5 82.5t-135.5 209.5zM391 -147h389v-226q0 -147 -91 -261t-232 -148l-62 211q72 14 118 70.5t46 131.5h-168v222z" />
    <glyph glyph-name="scommaaccent" unicode="&#x219;" 
d="M184 217l213 66q6 -35 33 -57.5t62 -22.5h225q39 0 67.5 28.5t28.5 67.5q0 47 -32.5 74.5t-80.5 32.5l-190 22q-131 12 -218 102.5t-87 214.5q0 131 92 224.5t225 93.5h189q111 0 194.5 -65.5t112.5 -170.5l-213 -61q-6 33 -33 54.5t-61 21.5h-189q-39 0 -67.5 -28
t-28.5 -68.5t31.5 -67.5t79.5 -31l196 -22q131 -16 216 -106.5t85 -219.5q0 -131 -93 -224t-224 -93h-225q-109 0 -194 66.5t-114 168.5zM416 -147h389v-226q0 -147 -91 -261t-233 -148l-61 211q72 14 118 70.5t46 131.5h-168v222z" />
    <glyph glyph-name="uni021A" unicode="&#x21a;" 
d="M160 1401h897v-221h-338v-1180h-221v1180h-338v221zM414 -147h389v-226q0 -147 -91 -261t-233 -148l-61 211q72 14 118 70.5t46 131.5h-168v222z" />
    <glyph glyph-name="uni021B" unicode="&#x21b;" 
d="M106 823v221h283v283h221v-283h455v-221h-455v-456q0 -68 48.5 -116t115.5 -48q57 0 102.5 36.5t57.5 92.5l211 -66q-33 -123 -136.5 -203.5t-234.5 -80.5q-158 0 -271.5 113.5t-113.5 271.5v456h-283zM580 -147h389v-226q0 -147 -91.5 -261t-232.5 -148l-61 211
q72 14 118 70.5t46 131.5h-168v222z" />
    <glyph glyph-name="uni021C" unicode="&#x21c;" 
d="M668 821q156 -8 263 -119.5t107 -267.5v-47q0 -160 -112.5 -273.5t-274.5 -113.5h-428v221h428q70 0 118 48t48 118v47q0 70 -48 118t-118 48h-289v221l347 359h-484v221h795v-221z" />
    <glyph glyph-name="uni021D" unicode="&#x21d;" 
d="M668 465q156 -8 263 -120t107 -267v-47q0 -160 -112.5 -273.5t-274.5 -113.5h-428v221h428q70 0 118 48t48 118v47q0 70 -48 118t-118 48h-289v221l347 358h-484v221h795v-221z" />
    <glyph glyph-name="uni0226" unicode="&#x226;" 
d="M719 1874v-338h-221v338h221zM1036 584l4 -19q4 -20 10.5 -51t13.5 -69.5t11 -87t4 -93.5v-264h-221v283v20h-498v-20v-283h-221v264q0 45 4 93.5t10.5 87t12.5 69.5t10 51l4 19l182 651q23 80 91.5 132t154.5 52t154.5 -51t93.5 -133zM395 524h426q0 2 -1 5t-1 6
l-174 636q-10 27 -37 27q-31 0 -37 -27l-174 -636q0 -2 -1 -5.5t-1 -5.5z" />
    <glyph glyph-name="uni0227" unicode="&#x227;" 
d="M719 1518v-338h-221v338h221zM801 1044h221v-1044h-221v55q-100 -74 -221 -73h-19q-162 0 -274.5 113.5t-112.5 273.5v307q0 162 112.5 274.5t274.5 112.5h19q125 0 221 -74v55zM635 203q68 0 117 49t49 117v307q0 70 -49.5 118t-116.5 48h-74q-70 0 -118 -48.5
t-48 -117.5v-307q0 -68 48.5 -117t117.5 -49h74z" />
    <glyph glyph-name="uni0228" unicode="&#x228;" 
d="M1063 1180h-627v-369h565v-221h-565v-369h627v-221h-307v-88q78 -35 125 -106.5t47 -157.5q0 -119 -85 -204t-204 -85h-104v221h104q29 0 48.5 19.5t19.5 48t-19.5 48t-48.5 19.5h-104v285h-320v1401h848v-221z" />
    <glyph glyph-name="uni0229" unicode="&#x229;" 
d="M1038 440h-626v-71q0 -70 48 -118t118 -48h84q57 0 102 36.5t57 92.5l213 -64q-27 -106 -110.5 -183t-194.5 -97v-76q78 -35 125 -106.5t47 -157.5q0 -119 -84 -204t-205 -85h-104v221h104q29 0 48.5 19.5t19.5 48t-20.5 48t-47.5 19.5h-104v273q-135 25 -226.5 132
t-91.5 249v307q0 160 114 273.5t274 113.5h73q160 0 273.5 -113.5t113.5 -273.5v-236zM412 676v-43h405v43q0 70 -48 118t-118 48h-73q-70 0 -118 -48t-48 -118z" />
    <glyph glyph-name="uni022A" unicode="&#x22a;" 
d="M301 1946v221h614v-221h-614zM301 1536v338h221v-338h-221zM694 1536v338h221v-338h-221zM559 -18q-160 0 -273.5 113.5t-113.5 273.5v663q0 160 113.5 273.5t273.5 113.5h98q160 0 273.5 -113.5t113.5 -273.5v-663q0 -160 -113.5 -273.5t-273.5 -113.5h-98zM559 203h98
q70 0 118 48t48 118v663q0 70 -48 118t-118 48h-98q-70 0 -118 -48t-48 -118v-663q0 -70 48 -118t118 -48z" />
    <glyph glyph-name="uni022B" unicode="&#x22b;" 
d="M301 1589v221h614v-221h-614zM301 1180v338h221v-338h-221zM694 1180v338h221v-338h-221zM571 1063h74q160 0 273.5 -113.5t113.5 -273.5v-307q0 -160 -113.5 -273.5t-273.5 -113.5h-74q-160 0 -273.5 113.5t-113.5 273.5v307q0 160 113.5 273.5t273.5 113.5zM571 842
q-68 0 -116.5 -48.5t-48.5 -117.5v-307q0 -70 49 -118t116 -48h74q70 0 118 48t48 118v307q0 70 -48 118t-118 48h-74z" />
    <glyph glyph-name="uni0232" unicode="&#x232;" 
d="M301 1548v221h614v-221h-614zM1069 1112q0 -63 -22.5 -128.5t-40 -93.5t-29.5 -42l-258 -332v-516h-221v516l-258 332q-12 14 -29.5 42t-40.5 93.5t-23 128.5v289h222v-289q0 -31 11 -62.5t20.5 -47t13.5 -19.5l194 -250l195 250q4 4 13 19.5t20.5 47t11.5 62.5v289h221
v-289z" />
    <glyph glyph-name="uni0233" unicode="&#x233;" 
d="M301 1192v221h614v-221h-614zM152 1044h221v-131q0 -98 53 -196l186 -340l189 340q51 92 51 196v131h221v-131q0 -162 -80 -305l-440 -798q-43 -74 -119 -120t-166 -46h-174v221h174q51 0 92 55l125 230l-254 458q-80 143 -79 305v131z" />
    <glyph glyph-name="uni0237" unicode="&#x237;" 
d="M223 1044h633v-1034q0 -160 -113.5 -272.5t-271.5 -112.5q-133 0 -235.5 79t-137.5 204l213 67q12 -55 56.5 -92t103.5 -37q68 0 116 48.5t48 115.5v813h-412v221z" />
    <glyph glyph-name="uni0243" unicode="&#x243;" 
d="M909 717q74 -43 117 -118t43 -163v-49q0 -160 -113.5 -273.5t-273.5 -113.5h-473v317h-168v191h168v893h461q160 0 273.5 -112.5t113.5 -274.5v-25q-1 -176 -148 -272zM670 1180h-240v-357h240q70 0 118 48.5t48 117.5v25q0 70 -48 118t-118 48zM848 387v49q0 70 -48 118
t-118 48h-252v-94h195v-191h-195v-96h252q70 0 118 48t48 118z" />
    <glyph glyph-name="uni0244" unicode="&#x244;" 
d="M1194 905v-221h-147v-315q0 -160 -114 -273.5t-274 -113.5h-98q-162 0 -274.5 113.5t-112.5 273.5v315h-149v221h149v496h221v-496h430v496h222v-496h147zM825 369v315h-430v-315q0 -70 48.5 -118t117.5 -48h98q70 0 118 48t48 118z" />
    <glyph glyph-name="uni0245" unicode="&#x245;" 
d="M139 0v266q0 168 51 322l275 813h287l276 -813q51 -154 51 -322v-266h-221v285q0 109 -45 247l-205 617q-182 -555 -202 -617q-45 -127 -46 -247v-285h-221z" />
    <glyph glyph-name="uni024C" unicode="&#x24c;" 
d="M952 442q129 -139 129 -313v-129h-221v129q0 88 -69 162l-226 237h-129v-528h-221v528h-149v222h149v651h461q162 0 274.5 -113.5t112.5 -273.5v-99q0 -115 -62.5 -210t-162.5 -142zM436 1180v-430h240q70 0 118 48t48 117v99q0 70 -48.5 118t-117.5 48h-240z" />
    <glyph glyph-name="uni0250" unicode="&#x250;" 
d="M655 1063q162 0 274.5 -113.5t112.5 -273.5v-307q0 -162 -112.5 -274.5t-274.5 -112.5h-18q-125 0 -221 73v-55h-221v1044h221v-55q100 74 221 74h18zM821 369v307q0 68 -48 117t-118 49h-73q-68 0 -117 -49.5t-49 -116.5v-307q0 -70 49 -118t117 -48h73q70 0 118 48
t48 118z" />
    <glyph glyph-name="uni0251" unicode="&#x251;" 
d="M801 1044h221v-1044h-221v55q-100 -74 -221 -73h-19q-162 0 -274.5 113.5t-112.5 273.5v307q0 162 112.5 274.5t274.5 112.5h19q125 0 221 -74v55zM635 203q68 0 117 49t49 117v307q0 70 -49.5 118t-116.5 48h-74q-70 0 -118 -48.5t-48 -117.5v-307q0 -68 48.5 -117
t117.5 -49h74z" />
    <glyph glyph-name="uni0252" unicode="&#x252;" 
d="M655 1063q162 0 274.5 -112.5t112.5 -274.5v-307q0 -160 -112.5 -273.5t-274.5 -113.5h-18q-121 0 -221 73v-55h-221v1044h221v-55q96 74 221 74h18zM821 369v307q0 70 -48 118t-118 48h-73q-68 0 -117 -48.5t-49 -117.5v-307q0 -68 49 -117t117 -49h73q70 0 118 49
t48 117z" />
    <glyph glyph-name="uni0254" unicode="&#x254;" 
d="M1014 369q0 -160 -114 -273.5t-273 -113.5h-78q-135 0 -239.5 82.5t-135.5 209.5l211 62q12 -55 58 -94t106 -39h78q70 0 118 49t48 117v307q0 70 -48.5 118t-117.5 48h-78q-59 0 -105.5 -38t-58.5 -93l-211 61q31 127 135.5 209t239.5 82h78q160 0 273.5 -113.5
t113.5 -273.5v-307z" />
    <glyph glyph-name="uni0258" unicode="&#x258;" 
d="M639 1063q160 0 273.5 -113.5t113.5 -273.5v-307q0 -160 -113.5 -273.5t-273.5 -113.5h-84q-133 0 -236.5 80.5t-136.5 205.5l213 64q12 -55 57.5 -92t102.5 -37h84q70 0 118 48t48 118v71h-627v236q0 160 114 273.5t273 113.5h74zM805 633v43q0 70 -48 118t-118 48h-74
q-70 0 -118 -48.5t-48 -117.5v-43h406z" />
    <glyph glyph-name="uni0259" unicode="&#x259;" 
d="M639 -18h-74q-160 0 -273.5 113.5t-113.5 273.5v235h627v72q0 70 -48 118t-118 48h-84q-57 0 -102 -37t-58 -92l-213 63q33 125 136.5 206t236.5 81h84q160 0 273.5 -113.5t113.5 -273.5v-307q0 -160 -113.5 -273.5t-273.5 -113.5zM805 412h-406v-43q0 -70 48.5 -118
t117.5 -48h74q70 0 118 48t48 118v43z" />
    <glyph glyph-name="uni025B" unicode="&#x25b;" 
d="M838 287l213 -66q-29 -104 -117 -171.5t-201 -67.5h-198q-135 0 -231.5 96t-96.5 231q0 139 112 221q-100 80 -100 209q0 133 95.5 228.5t228.5 95.5h196q109 0 195 -65.5t115 -166.5l-211 -63q-10 33 -37 53.5t-62 20.5h-196q-43 0 -73 -31t-30 -72q0 -43 30 -72.5
t73 -29.5h223v-221h-231q-45 0 -76 -32t-31 -75q0 -45 30.5 -75.5t76.5 -30.5h198q39 0 68 23.5t37 60.5z" />
    <glyph glyph-name="uni025C" unicode="&#x25c;" 
d="M897 530q113 -82 113 -221q0 -135 -96.5 -231t-231.5 -96h-199q-113 0 -200.5 67.5t-116.5 171.5l213 66q8 -37 36.5 -60.5t67.5 -23.5h199q45 0 75.5 30.5t30.5 75.5q0 43 -30.5 75t-75.5 32h-231v221h223q43 0 72.5 29.5t29.5 72.5q0 41 -29.5 72t-72.5 31h-197
q-35 0 -61.5 -20.5t-36.5 -53.5l-211 63q29 100 115 166t194 66h197q133 0 228 -95.5t95 -228.5q0 -129 -100 -209z" />
    <glyph glyph-name="uni025E" unicode="&#x25e;" horiz-adv-x="1228" 
d="M948 530q113 -80 113 -221q0 -135 -95.5 -231t-232.5 -96h-198q-135 0 -231.5 96t-96.5 231v430q0 133 95 228.5t228 95.5h195q135 0 229.5 -95.5t94.5 -228.5q-1 -129 -101 -209zM733 203q45 0 76 30.5t31 75.5q0 43 -31 75t-76 32h-147v221h139q43 0 72.5 29.5
t29.5 72.5q0 41 -29.5 72t-72.5 31h-195q-43 0 -72.5 -31t-29.5 -72v-430q0 -45 30.5 -75.5t76.5 -30.5h198z" />
    <glyph glyph-name="uni025F" unicode="&#x25f;" 
d="M1006 494v-222h-150v-262q0 -160 -113.5 -272.5t-271.5 -112.5q-133 0 -235.5 79t-137.5 204l213 67q12 -55 56.5 -92t103.5 -37q68 0 116 48.5t48 115.5v262h-221v222h221v329h-412v221h633v-550h150z" />
    <glyph glyph-name="uni0261" unicode="&#x261;" 
d="M799 1044h221v-1032q0 -160 -112.5 -273.5t-272.5 -113.5h-78q-135 0 -239.5 83t-137.5 210l213 62q10 -57 56.5 -95.5t107.5 -38.5h78q68 0 116 49.5t48 116.5v113q-96 -74 -221 -74h-19q-160 0 -273.5 114t-113.5 273v238q0 162 113.5 274.5t273.5 112.5h19
q125 0 221 -74v55zM633 272q70 0 118 49.5t48 116.5v238q0 70 -48.5 118t-117.5 48h-74q-68 0 -117 -48.5t-49 -117.5v-238q0 -68 49.5 -117t116.5 -49h74z" />
    <glyph glyph-name="uni0263" unicode="&#x263;" 
d="M848 1044h221v-133q0 -162 -88 -305l-242 -393l105 -170q39 -66 39 -143q0 -113 -81 -194t-193.5 -81t-193.5 81t-81 194q0 76 41 143l104 168l-243 395q-88 143 -89 305v133h222v-131q0 -100 55 -188l186 -301l185 301q53 88 53 188v131zM653 -72l-45 74l-45 -74
q-8 -10 -8 -28q0 -23 15.5 -38.5t38 -15.5t38 15.5t15.5 38.5q-1 18 -9 28z" />
    <glyph glyph-name="uni0265" unicode="&#x265;" 
d="M1026 1044v-1400h-221v411q-96 -74 -221 -73h-19q-162 0 -274.5 112.5t-112.5 274.5v675h221v-675q0 -70 48.5 -118t117.5 -48h74q68 0 117 48t49 118v675h221z" />
    <glyph glyph-name="uni0268" unicode="&#x268;" horiz-adv-x="1228" 
d="M762 1518v-338h-221v338h221zM762 221h319v-221h-884v221h344v193h-185v221h185v188h-277v221h498v-409h186v-221h-186v-193z" />
    <glyph glyph-name="uni0269" unicode="&#x269;" 
d="M96 823v221h566v-696q0 -59 43 -102t102 -43q53 0 93 33.5t50 87.5l213 -66q-31 -121 -130 -198.5t-226 -77.5q-152 0 -259.5 107.5t-107.5 258.5v475h-344z" />
    <glyph glyph-name="uni026B" unicode="&#x26b;" 
d="M969 332l209 -66q-33 -125 -135.5 -204.5t-235.5 -79.5q-158 0 -271.5 113.5t-113.5 271.5v280q-12 6 -27 6q-25 0 -42 -17.5t-17 -41.5v-39h-221v39q0 117 83 198.5t197 81.5q18 0 27 -2v308h-307v221h528v-633q12 -4 19 -4q25 0 42 17.5t17 41.5v39h221v-39
q0 -117 -82 -198.5t-198 -81.5h-19v-176q0 -68 48 -116t116 -48q57 0 103.5 37t58.5 92z" />
    <glyph glyph-name="uni026E" unicode="&#x26e;" horiz-adv-x="1228" 
d="M811 520q104 -45 170 -141t66 -215v-131q0 -162 -114 -274.5t-274 -112.5h-79v221h79q70 0 118 48t48 118v131q0 70 -48 118t-118 48h-98v221l191 272h-285v-823h-221v1401h221v-357h553v-221z" />
    <glyph glyph-name="uni026F" unicode="&#x26f;" 
d="M1118 1044v-1044h-221v45q-68 -63 -158 -63q-109 0 -174 79q-84 -80 -198.5 -79.5t-197.5 83t-83 197.5v782h221v-749q0 -39 27.5 -65.5t64.5 -26.5q39 0 66 26.5t27 65.5v749h221v-749q0 -39 27.5 -65.5t64.5 -26.5q39 0 65.5 26.5t26.5 65.5v749h221z" />
    <glyph glyph-name="uni0272" unicode="&#x272;" 
d="M651 1063q162 0 274.5 -112.5t112.5 -274.5v-676h-221v676q0 70 -48 118t-118 48h-73q-68 0 -117 -48.5t-49 -117.5v-754q0 -115 -81 -196.5t-198 -81.5h-59v223h61q23 0 39 16.5t16 38.5v1122h222v-55q96 74 221 74h18z" />
    <glyph glyph-name="uni0275" unicode="&#x275;" 
d="M645 1063q160 0 273.5 -113.5t113.5 -273.5v-307q0 -160 -113.5 -273.5t-273.5 -113.5h-74q-160 0 -273.5 113.5t-113.5 273.5v307q0 160 114 273.5t273 113.5h74zM571 842q-68 0 -116.5 -48.5t-48.5 -117.5v-43h405v43q0 70 -48 118t-118 48h-74zM645 203q70 0 118 48
t48 118v43h-405v-43q0 -70 49 -118t116 -48h74z" />
    <glyph glyph-name="uni0278" unicode="&#x278;" 
d="M723 1061q162 0 274.5 -113.5t112.5 -273.5v-305q0 -160 -112.5 -273.5t-274.5 -113.5h-4v-338h-221v338h-4q-160 0 -274 113.5t-114 273.5v305q0 160 114 273.5t274 113.5h4v340h221v-340h4zM494 203h4v637h-4q-70 0 -118 -48.5t-48 -117.5v-305q0 -70 48 -118t118 -48z
M889 369v305q0 70 -48 118t-118 48h-4v-637h4q70 0 118 48t48 118z" />
    <glyph glyph-name="uni0283" unicode="&#x283;" horiz-adv-x="1226" 
d="M219 -356v221h113q70 0 118 48t48 118v983q0 160 113.5 273.5t273.5 113.5h114v-221h-114q-70 0 -118 -48.5t-48 -117.5v-983q0 -160 -112.5 -273.5t-274.5 -113.5h-113z" />
    <glyph glyph-name="uni0289" unicode="&#x289;" 
d="M1182 743v-221h-150v-153q0 -160 -113.5 -273.5t-273.5 -113.5h-74q-160 0 -273.5 113.5t-113.5 273.5v153h-149v221h149v301h222v-301h405v301h221v-301h150zM811 369v153h-405v-153q0 -70 48 -118t117 -48h74q70 0 118 48t48 118z" />
    <glyph glyph-name="uni028C" unicode="&#x28c;" 
d="M147 0v129q0 152 70 309l270 606h242l270 -606q70 -158 70 -309v-129h-221v129q0 106 -51 219l-189 426l-188 -426q-51 -113 -51 -219v-129h-222z" />
    <glyph glyph-name="uni028D" unicode="&#x28d;" 
d="M102 131q0 145 31 289l139 624h222l114 -563l115 563h221l139 -624q33 -143 33 -289v-131h-221v131q0 115 -29 240l-63 321l-105 -514h-180l-104 514l-64 -321q-27 -127 -26 -240v-131h-222v131z" />
    <glyph glyph-name="uni028E" unicode="&#x28e;" 
d="M1065 0h-221v131q0 98 -53 197l-187 340l-188 -340q-51 -92 -51 -197v-131h-222v131q0 162 80 305l441 799q43 74 118.5 120t165.5 46h174v-221h-174q-51 0 -92 -56l-125 -229l254 -459q80 -143 80 -305v-131z" />
    <glyph glyph-name="uni0292" unicode="&#x292;" 
d="M668 465q156 -8 263 -120t107 -267v-47q0 -160 -112.5 -273.5t-274.5 -113.5h-428v221h428q70 0 118 48t48 118v47q0 70 -48 118t-118 48h-289v221l347 358h-484v221h795v-221z" />
    <glyph glyph-name="uni0298" unicode="&#x298;" horiz-adv-x="1226" 
d="M559 1419h98q160 0 273.5 -113.5t113.5 -273.5v-663q0 -160 -113.5 -273.5t-273.5 -113.5h-98q-160 0 -273.5 113.5t-113.5 273.5v663q0 160 113.5 273.5t273.5 113.5zM559 1198q-70 0 -118 -48t-48 -118v-663q0 -70 48 -118t118 -48h98q70 0 118 48t48 118v663
q0 70 -48 118t-118 48h-98zM498 870h221v-331h-221v331z" />
    <glyph glyph-name="uni029D" unicode="&#x29d;" horiz-adv-x="1228" 
d="M643 1190v338h221v-338h-221zM1087 121h-223v-137q0 -150 -104.5 -254.5t-253.5 -104.5q-147 0 -251.5 104.5t-104.5 254t104 254t252 104.5h137v481h-412v221h633v-702h223v-221zM643 121h-137q-55 0 -95 -40t-40 -97.5t40 -97.5t95 -40q57 0 97 40t40 98v137z" />
    <glyph glyph-name="circumflex" unicode="&#x2c6;" 
d="M258 1274l258 258h184l258 -258l-155 -158l-195 195l-192 -195z" />
    <glyph glyph-name="caron" unicode="&#x2c7;" 
d="M258 1450l158 158l192 -195l195 195l155 -158l-258 -258h-184z" />
    <glyph glyph-name="breve" unicode="&#x2d8;" 
d="M319 1481h222q0 -27 20.5 -47.5t47 -20.5t47 20.5t20.5 47.5h221q0 -121 -84 -205t-205 -84t-205 84t-84 205z" />
    <glyph glyph-name="dotaccent" unicode="&#x2d9;" 
d="M498 1192v338h221v-338h-221z" />
    <glyph glyph-name="ring" unicode="&#x2da;" 
d="M319 1481q0 121 84 204.5t205 83.5t205 -83.5t84 -204.5t-84 -205t-205 -84t-205 84t-84 205zM541 1480.5q0 -26.5 20.5 -47t47 -20.5t47 20.5t20.5 47t-20.5 47t-47 20.5t-47 -20.5t-20.5 -47z" />
    <glyph glyph-name="ogonek" unicode="&#x2db;" 
d="M485 0h222v-78q0 -23 16 -39t39 -16h61v-223h-59q-117 0 -198 81.5t-81 196.5v78z" />
    <glyph glyph-name="tilde" unicode="&#x2dc;" 
d="M195 1210v39q0 117 82.5 199t197.5 82q82 0 152 -47q14 -8 33.5 -22.5t30.5 -21.5t24.5 -13.5t25.5 -6.5q25 0 42.5 17.5t17.5 42.5v39h221v-39q0 -117 -82 -199t-199 -82q-82 0 -151 45q-12 8 -39 27.5t-44.5 29t-31.5 9.5q-25 0 -42 -17.5t-17 -42.5v-39h-221z" />
    <glyph glyph-name="hungarumlaut" unicode="&#x2dd;" 
d="M303 1155l-158 158l316 315l157 -158zM758 1155l-158 158l315 315l158 -158z" />
    <glyph glyph-name="gravecomb" unicode="&#x300;" horiz-adv-x="0" 
d="M315 1155l-315 315l158 158l315 -315z" />
    <glyph glyph-name="acutecomb" unicode="&#x301;" horiz-adv-x="0" 
d="M158 1155l-158 158l315 315l158 -158z" />
    <glyph glyph-name="uni0302" unicode="&#x302;" horiz-adv-x="0" 
d="M0 1274l258 258h184l258 -258l-155 -158l-195 195l-192 -195z" />
    <glyph glyph-name="tildecomb" unicode="&#x303;" horiz-adv-x="0" 
d="M0 1210v39q0 117 83 199t198 82q82 0 151 -47q14 -8 33.5 -22.5t31 -21.5t25 -13.5t25.5 -6.5q25 0 42 17.5t17 42.5v39h221v-39q0 -117 -81.5 -199t-198.5 -82q-82 0 -152 45q-12 8 -38.5 27.5t-44 29t-31.5 9.5q-25 0 -42.5 -17.5t-17.5 -42.5v-39h-221z" />
    <glyph glyph-name="uni0304" unicode="&#x304;" horiz-adv-x="0" 
d="M0 1192v221h614v-221h-614z" />
    <glyph glyph-name="uni0306" unicode="&#x306;" horiz-adv-x="0" 
d="M0 1481h221q0 -27 20.5 -47.5t47 -20.5t47 20.5t20.5 47.5h222q0 -121 -84 -205t-205 -84t-205 84t-84 205z" />
    <glyph glyph-name="uni0307" unicode="&#x307;" horiz-adv-x="0" 
d="M0 1192v338h221v-338h-221z" />
    <glyph glyph-name="uni0308" unicode="&#x308;" horiz-adv-x="0" 
d="M0 1192v338h221v-338h-221zM393 1192v338h221v-338h-221z" />
    <glyph glyph-name="hookabovecomb" unicode="&#x309;" horiz-adv-x="0" 
d="M346 1372q0 -123 -86 -205l-158 156q23 18 23 49q0 29 -19.5 48.5t-48.5 19.5h-57v221h57q119 0 204 -85t85 -204z" />
    <glyph glyph-name="uni030A" unicode="&#x30a;" horiz-adv-x="0" 
d="M0 1481q0 121 84 204.5t205 83.5t205 -83.5t84 -204.5t-84 -205t-205 -84t-205 84t-84 205zM221 1480.5q0 -26.5 20.5 -47t47 -20.5t47 20.5t20.5 47t-20.5 47t-47 20.5t-47 -20.5t-20.5 -47z" />
    <glyph glyph-name="uni030B" unicode="&#x30b;" horiz-adv-x="0" 
d="M158 1155l-158 158l315 315l158 -158zM612 1155l-157 158l315 315l158 -158z" />
    <glyph glyph-name="uni030C" unicode="&#x30c;" horiz-adv-x="0" 
d="M0 1450l158 158l192 -195l195 195l155 -158l-258 -258h-184z" />
    <glyph glyph-name="uni0312" unicode="&#x312;" horiz-adv-x="0" 
d="M389 1194h-389v225q0 147 91 261t233 149l61 -211q-72 -14 -118 -70.5t-46 -132.5h168v-221z" />
    <glyph glyph-name="uni031B" unicode="&#x31b;" horiz-adv-x="0" 
d="M0 684v221h33q29 0 48 20.5t19 47.5v71h222v-71q0 -121 -85 -205t-204 -84h-33z" />
    <glyph glyph-name="dotbelowcomb" unicode="&#x323;" horiz-adv-x="0" 
d="M0 -485v338h221v-338h-221z" />
    <glyph glyph-name="uni0326" unicode="&#x326;" horiz-adv-x="0" 
d="M0 -147h389v-226q0 -147 -91 -261t-232 -148l-62 211q72 14 118 70.5t46 131.5h-168v222z" />
    <glyph glyph-name="uni0327" unicode="&#x327;" horiz-adv-x="0" 
d="M221 -88q78 -35 125 -106.5t47 -157.5q0 -119 -84 -204t-205 -85h-104v221h104q29 0 48.5 19.5t19.5 48t-20.5 48t-47.5 19.5h-104v285h221v-88z" />
    <glyph glyph-name="uni0328" unicode="&#x328;" horiz-adv-x="0" 
d="M0 0h221v-78q0 -23 16.5 -39t38.5 -16h62v-223h-59q-117 0 -198 81.5t-81 196.5v78z" />
    <glyph glyph-name="uni032C" unicode="&#x32c;" horiz-adv-x="0" 
d="M0 -276l158 157l192 -194l195 194l155 -157l-258 -259h-184z" />
    <glyph glyph-name="uni032D" unicode="&#x32d;" horiz-adv-x="0" 
d="M0 -362l258 258h184l258 -258l-155 -158l-195 194l-192 -194z" />
    <glyph glyph-name="uni0331" unicode="&#x331;" horiz-adv-x="0" 
d="M0 -369v222h614v-222h-614z" />
    <glyph glyph-name="uni0335" unicode="&#x335;" horiz-adv-x="0" 
d="M0 633h592v-221h-592v221z" />
    <glyph glyph-name="uni0336" unicode="&#x336;" horiz-adv-x="0" 
d="M0 633h641v-221h-641v221z" />
    <glyph glyph-name="uni0337" unicode="&#x337;" horiz-adv-x="0" 
d="M727 1176l188 -117l-727 -1186l-188 115z" />
    <glyph glyph-name="uni0338" unicode="&#x338;" horiz-adv-x="0" 
d="M922 1507l188 -114l-920 -1502l-190 117z" />
    <glyph glyph-name="tonos" unicode="&#x384;" 
d="M694 1143l-202 94l188 405l203 -96z" />
    <glyph glyph-name="dieresistonos" unicode="&#x385;" 
d="M696 1552l-202 95l188 405l203 -96zM303 1192v338h221v-338h-221zM696 1192v338h222v-338h-222z" />
    <glyph glyph-name="Alphatonos" unicode="&#x386;" 
d="M408 1356l-189 -404l-203 95l189 405zM1053 584l4 -19q4 -20 10 -51t13 -69.5t11.5 -87t4.5 -93.5v-264h-222v283v20h-497v-20v-283h-221v264q0 45 4 93.5t10 87t12 69.5t11 51l4 19l182 651q23 80 91.5 132t154.5 52t154.5 -51t92.5 -133zM412 524h426q0 2 -1 5t-1 6
l-174 636q-10 27 -37 27q-31 0 -37 -27l-174 -636q0 -2 -1 -5.5t-1 -5.5z" />
    <glyph glyph-name="Epsilontonos" unicode="&#x388;" 
d="M51 952l-203 95l189 405l203 -96zM248 0v1401h848v-221h-627v-369h565v-221h-565v-369h627v-221h-848z" />
    <glyph glyph-name="Etatonos" unicode="&#x389;" 
d="M20 952l-202 95l188 405l203 -96zM844 1401h221v-1401h-221v590h-406v-590h-221v1401h221v-590h406v590z" />
    <glyph glyph-name="Iotatonos" unicode="&#x38a;" 
d="M43 946l-203 94l189 406l202 -96zM217 221h313v959h-294v221h811v-221h-295v-959h313v-221h-848v221z" />
    <glyph glyph-name="Omicrontonos" unicode="&#x38c;" 
d="M119 954l-203 95l188 405l203 -96zM592 -18q-160 0 -273.5 113.5t-113.5 273.5v663q0 160 113.5 273.5t273.5 113.5h98q160 0 273.5 -113.5t113.5 -273.5v-663q0 -160 -113.5 -273.5t-273.5 -113.5h-98zM592 203h98q70 0 118 48t48 118v663q0 70 -48 118t-118 48h-98
q-70 0 -118 -48t-48 -118v-663q0 -70 48 -118t118 -48z" />
    <glyph glyph-name="Upsilontonos" unicode="&#x38e;" 
d="M-8 956l-203 95l188 405l203 -96zM1102 1112q0 -63 -22.5 -128.5t-40 -93.5t-29.5 -42l-258 -332v-516h-222v516l-258 332q-12 14 -29.5 42t-40 93.5t-22.5 128.5v289h221v-289q0 -31 11.5 -62.5t20.5 -47t13 -19.5l195 -250l195 250q4 4 13 19.5t20.5 47t11.5 62.5v289
h221v-289z" />
    <glyph glyph-name="Omegatonos" unicode="&#x38f;" 
d="M109 1462l202 -96l-188 -403l-203 94zM1004 221h92v-221h-406v221q70 0 118 49t48 117v645q0 70 -48 118t-118 48h-98q-68 0 -117 -48t-49 -118v-645q0 -68 49 -117t117 -49v-221h-406v221h93q-74 100 -74 221v590q0 162 113.5 274.5t273.5 112.5h98q162 0 274.5 -112.5
t112.5 -274.5v-590q1 -125 -73 -221z" />
    <glyph glyph-name="iotadieresistonos" unicode="&#x390;" 
d="M637 1552l-203 95l189 405l202 -96zM244 1192v338h221v-338h-221zM637 1192v338h221v-338h-221zM96 823v221h566v-696q0 -59 43 -102t102 -43q53 0 93 33.5t50 87.5l213 -66q-31 -121 -130 -198.5t-226 -77.5q-152 0 -259.5 107.5t-107.5 258.5v475h-344z" />
    <glyph glyph-name="Alpha" unicode="&#x391;" 
d="M1036 584l4 -19q4 -20 10.5 -51t13.5 -69.5t11 -87t4 -93.5v-264h-221v283v20h-498v-20v-283h-221v264q0 45 4 93.5t10.5 87t12.5 69.5t10 51l4 19l182 651q23 80 91.5 132t154.5 52t154.5 -51t93.5 -133zM395 524h426q0 2 -1 5t-1 6l-174 636q-10 27 -37 27
q-31 0 -37 -27l-174 -636q0 -2 -1 -5.5t-1 -5.5z" />
    <glyph glyph-name="Beta" unicode="&#x392;" 
d="M909 717q74 -43 117 -118t43 -163v-49q0 -160 -113.5 -273.5t-273.5 -113.5h-473v1401h461q160 0 273.5 -112.5t113.5 -274.5v-25q-1 -176 -148 -272zM670 1180h-240v-357h240q70 0 118 48.5t48 117.5v25q0 70 -48 118t-118 48zM848 387v49q0 70 -48 118t-118 48h-252
v-381h252q70 0 118 48t48 118z" />
    <glyph glyph-name="Gamma" unicode="&#x393;" 
d="M233 0v1401h830v-221h-608v-1180h-222z" />
    <glyph glyph-name="Delta" unicode="&#x394;" 
d="M127 0v221l342 1180h279l344 -1180v-221h-965zM354 221h508l-254 914z" />
    <glyph glyph-name="Epsilon" unicode="&#x395;" 
d="M215 0v1401h848v-221h-627v-369h565v-221h-565v-369h627v-221h-848z" />
    <glyph glyph-name="Zeta" unicode="&#x396;" 
d="M199 1401h811v-221l-582 -959h600v-221h-848v221l580 959h-561v221z" />
    <glyph glyph-name="Eta" unicode="&#x397;" 
d="M811 1401h221v-1401h-221v590h-405v-590h-222v1401h222v-590h405v590z" />
    <glyph glyph-name="Theta" unicode="&#x398;" 
d="M559 -18q-160 0 -273.5 113.5t-113.5 273.5v663q0 160 113.5 273.5t273.5 113.5h98q160 0 273.5 -113.5t113.5 -273.5v-663q0 -160 -113.5 -273.5t-273.5 -113.5h-98zM559 203h98q70 0 118 48t48 118v663q0 70 -48 118t-118 48h-98q-70 0 -118 -48t-48 -118v-663
q0 -70 48 -118t118 -48zM459 590v221h297v-221h-297z" />
    <glyph glyph-name="Iota" unicode="&#x399;" 
d="M184 221h314v959h-295v221h811v-221h-295v-959h313v-221h-848v221z" />
    <glyph glyph-name="Kappa" unicode="&#x39a;" 
d="M197 1401h221v-584h104l269 293q70 76 69 164v127h221v-129q0 -25 -4 -58.5t-35.5 -113.5t-87.5 -142l-237 -251l252 -265q57 -61 89 -140t37 -114.5t5 -58.5v-129h-221v127q0 88 -72 162l-287 307h-102v-596h-221v1401z" />
    <glyph glyph-name="Lambda" unicode="&#x39b;" 
d="M139 0v264q0 45 4 93.5t10.5 87t12.5 69.5t10 51l4 19l182 651q23 80 91.5 132t154.5 52t154.5 -51t93.5 -133l180 -651l4 -19q4 -20 10.5 -51t13.5 -69.5t11 -87t4 -93.5v-264h-221v283q0 113 -39 252l-174 636q-10 27 -37 27q-31 0 -37 -27l-174 -636
q-37 -143 -37 -252v-283h-221z" />
    <glyph glyph-name="Mu" unicode="&#x39c;" 
d="M123 0v1401h274l211 -705l211 705h275v-1401h-222v1012l-167 -570h-191l-170 570v-1012h-221z" />
    <glyph glyph-name="Nu" unicode="&#x39d;" 
d="M147 1401h277l424 -1000v1000h221v-1401h-276l-424 999v-999h-222v1401z" />
    <glyph glyph-name="Xi" unicode="&#x39e;" 
d="M184 1401h848v-221h-848v221zM223 811h770v-221h-770v221zM184 221h848v-221h-848v221z" />
    <glyph glyph-name="Omicron" unicode="&#x39f;" 
d="M559 -18q-160 0 -273.5 113.5t-113.5 273.5v663q0 160 113.5 273.5t273.5 113.5h98q160 0 273.5 -113.5t113.5 -273.5v-663q0 -160 -113.5 -273.5t-273.5 -113.5h-98zM559 203h98q70 0 118 48t48 118v663q0 70 -48 118t-118 48h-98q-70 0 -118 -48t-48 -118v-663
q0 -70 48 -118t118 -48z" />
    <glyph glyph-name="Pi" unicode="&#x3a0;" 
d="M184 0v1401h848v-1401h-221v1180h-405v-1180h-222z" />
    <glyph glyph-name="Rho" unicode="&#x3a1;" 
d="M233 0v1401h461q160 0 273.5 -112.5t113.5 -274.5v-127q0 -162 -113.5 -274.5t-273.5 -112.5h-239v-500h-222zM455 721h239q70 0 118 48t48 118v127q0 70 -48 118t-118 48h-239v-459z" />
    <glyph glyph-name="Sigma" unicode="&#x3a3;" 
d="M195 1401h849v-221h-587l293 -480l-308 -479h621v-221h-885v221l309 479l-292 480v221z" />
    <glyph glyph-name="Tau" unicode="&#x3a4;" 
d="M160 1401h897v-221h-338v-1180h-221v1180h-338v221z" />
    <glyph glyph-name="Upsilon" unicode="&#x3a5;" 
d="M1069 1112q0 -63 -22.5 -128.5t-40 -93.5t-29.5 -42l-258 -332v-516h-221v516l-258 332q-12 14 -29.5 42t-40.5 93.5t-23 128.5v289h222v-289q0 -31 11 -62.5t20.5 -47t13.5 -19.5l194 -250l195 250q4 4 13 19.5t20.5 47t11.5 62.5v289h221v-289z" />
    <glyph glyph-name="Phi" unicode="&#x3a6;" 
d="M723 1237q162 0 274.5 -113.5t112.5 -273.5v-299q0 -160 -112.5 -273.5t-274.5 -113.5h-4v-164h-221v164h-4q-160 0 -274 113.5t-114 273.5v299q0 160 114 273.5t274 113.5h4v164h221v-164h4zM494 385h4v631h-4q-70 0 -118 -48t-48 -118v-299q0 -70 48 -118t118 -48z
M889 551v299q0 70 -48 118t-118 48h-4v-631h4q70 0 118 48t48 118z" />
    <glyph glyph-name="Chi" unicode="&#x3a7;" 
d="M160 1401h221v-129q0 -27 15.5 -78t45.5 -88l166 -215l166 215q31 37 46.5 88t15.5 78v129h221v-129q0 -53 -25.5 -141.5t-83.5 -159.5l-203 -262l238 -310l8 -10q6 -12 13.5 -24.5t17.5 -32t19.5 -42t17.5 -49t12 -56t4 -60.5v-125h-221v125q0 20 -5 41.5t-11.5 38
t-13.5 30t-13 21.5l-4 8l-199 260l-198 -260q-4 -4 -13.5 -20.5t-22 -51t-12.5 -67.5v-125h-221v125q0 31 4.5 60.5t12.5 56t17 49t19.5 42t17.5 32t13 24.5l8 10l238 310l-203 262q-57 72 -82.5 160t-25.5 141v129z" />
    <glyph glyph-name="Psi" unicode="&#x3a8;" 
d="M891 1401h221v-676q0 -160 -113.5 -273.5t-273.5 -113.5h-6v-338h-221v338h-6q-160 0 -274 113.5t-114 273.5v676h222v-676q0 -68 48 -117t118 -49h6v842h221v-842h6q70 0 118 49t48 117v676z" />
    <glyph glyph-name="Omega" unicode="&#x3a9;" 
d="M971 221h92v-221h-406v221q70 0 118 49t48 117v645q0 70 -48 118t-118 48h-98q-68 0 -117 -48t-49 -118v-645q0 -68 49.5 -117t116.5 -49v-221h-405v221h92q-74 100 -74 221v590q0 162 113.5 274.5t273.5 112.5h98q162 0 274.5 -112.5t112.5 -274.5v-590q1 -125 -73 -221
z" />
    <glyph glyph-name="Iotadieresis" unicode="&#x3aa;" 
d="M301 1536v338h221v-338h-221zM694 1536v338h221v-338h-221zM184 221h314v959h-295v221h811v-221h-295v-959h313v-221h-848v221z" />
    <glyph glyph-name="Upsilondieresis" unicode="&#x3ab;" 
d="M301 1536v338h221v-338h-221zM694 1536v338h221v-338h-221zM1069 1112q0 -63 -22.5 -128.5t-40 -93.5t-29.5 -42l-258 -332v-516h-221v516l-258 332q-12 14 -29.5 42t-40.5 93.5t-23 128.5v289h222v-289q0 -31 11 -62.5t20.5 -47t13.5 -19.5l194 -250l195 250
q4 4 13 19.5t20.5 47t11.5 62.5v289h221v-289z" />
    <glyph glyph-name="alphatonos" unicode="&#x3ac;" 
d="M883 1546l-189 -403l-202 94l188 405zM1042 221h64v-221h-62q-137 0 -221 109q-111 -127 -278 -127h-19q-160 0 -273.5 113.5t-113.5 273.5v307q0 160 114 273.5t273 113.5h19q125 0 221 -74v55h221v-768q0 -23 16 -39t39 -16zM600 203q70 0 118 48t48 118v307
q0 70 -48 118t-118 48h-74q-68 0 -117 -48.5t-49 -117.5v-307q0 -70 49.5 -118t116.5 -48h74z" />
    <glyph glyph-name="epsilontonos" unicode="&#x3ad;" 
d="M883 1546l-189 -403l-202 94l188 405zM838 287l213 -66q-29 -104 -117 -171.5t-201 -67.5h-198q-135 0 -231.5 96t-96.5 231q0 139 112 221q-100 80 -100 209q0 133 95.5 228.5t228.5 95.5h196q109 0 195 -65.5t115 -166.5l-211 -63q-10 33 -37 53.5t-62 20.5h-196
q-43 0 -73 -31t-30 -72q0 -43 30 -72.5t73 -29.5h223v-221h-231q-45 0 -76 -32t-31 -75q0 -45 30.5 -75.5t76.5 -30.5h198q39 0 68 23.5t37 60.5z" />
    <glyph glyph-name="etatonos" unicode="&#x3ae;" 
d="M883 1546l-189 -403l-202 94l188 405zM655 1063q162 0 274.5 -112.5t112.5 -274.5v-1032h-221v1032q0 70 -48 118t-118 48h-73q-68 0 -117 -48.5t-49 -117.5v-676h-221v768q0 23 -16.5 39t-39.5 16h-63v221h61q137 0 221 -108q111 127 279 127h18z" />
    <glyph glyph-name="iotatonos" unicode="&#x3af;" 
d="M637 1143l-203 94l189 405l202 -96zM96 823v221h566v-696q0 -59 43 -102t102 -43q53 0 93 33.5t50 87.5l213 -66q-31 -121 -130 -198.5t-226 -77.5q-152 0 -259.5 107.5t-107.5 258.5v475h-344z" />
    <glyph glyph-name="upsilondieresistonos" unicode="&#x3b0;" 
d="M700 1552l-202 95l188 405l203 -96zM307 1192v338h221v-338h-221zM700 1192v338h222v-338h-222zM190 1044h222v-675q0 -70 48 -118t118 -48h73q70 0 118 48t48 118v299q0 59 -37 105t-94 58l62 213q127 -33 208.5 -137t81.5 -239v-299q0 -162 -112.5 -274.5
t-274.5 -112.5h-73q-160 0 -274 112.5t-114 274.5v675z" />
    <glyph glyph-name="alpha" unicode="&#x3b1;" 
d="M1042 221h64v-221h-62q-137 0 -221 109q-111 -127 -278 -127h-19q-160 0 -273.5 113.5t-113.5 273.5v307q0 160 114 273.5t273 113.5h19q125 0 221 -74v55h221v-768q0 -23 16 -39t39 -16zM600 203q70 0 118 48t48 118v307q0 70 -48 118t-118 48h-74q-68 0 -117 -48.5
t-49 -117.5v-307q0 -70 49.5 -118t116.5 -48h74z" />
    <glyph glyph-name="beta" unicode="&#x3b2;" 
d="M915 735q74 -43 117 -117.5t43 -162.5v-86q0 -160 -113.5 -273.5t-273.5 -113.5h-18q-125 0 -221 73v-411h-222v1388q0 160 114 273.5t273 113.5h62q160 0 273.5 -113.5t113.5 -273.5v-24q-1 -177 -148 -273zM854 369v86q0 70 -49 118t-117 48h-106v221h94q68 0 117 48
t49 118v24q0 70 -49.5 118t-116.5 48h-62q-70 0 -117.5 -48t-47.5 -118v-663q0 -70 49 -118t116 -48h74q68 0 117 48t49 118z" />
    <glyph glyph-name="gamma" unicode="&#x3b3;" 
d="M1069 913q0 -158 -80 -305l-270 -489v-475h-221v475l-271 489q-80 143 -80 305v131h222v-131q2 -106 53 -196l186 -340l189 340q20 41 33.5 90t15.5 78l2 28v131h221v-131z" />
    <glyph glyph-name="delta" unicode="&#x3b4;" 
d="M1042 516v-2v-145q0 -160 -113.5 -273.5t-273.5 -113.5h-73q-160 0 -273.5 113.5t-113.5 273.5v123q0 104 52 190t138 133q-76 41 -121 113.5t-45 161.5q0 129 91 220t220 91h377v-221h-377q-39 0 -64.5 -26t-25.5 -64q0 -59 54 -80l309 -138q131 -51 194 -178
q41 -74 45 -174v-2v-2zM821 369v145q0 70 -48 118t-118 48h-73q-70 0 -118 -48t-48 -118v-145q0 -68 48 -117t118 -49h73q70 0 118 49t48 117z" />
    <glyph glyph-name="epsilon" unicode="&#x3b5;" 
d="M838 287l213 -66q-29 -104 -117 -171.5t-201 -67.5h-198q-135 0 -231.5 96t-96.5 231q0 139 112 221q-100 80 -100 209q0 133 95.5 228.5t228.5 95.5h196q109 0 195 -65.5t115 -166.5l-211 -63q-10 33 -37 53.5t-62 20.5h-196q-43 0 -73 -31t-30 -72q0 -43 30 -72.5
t73 -29.5h223v-221h-231q-45 0 -76 -32t-31 -75q0 -45 30.5 -75.5t76.5 -30.5h198q39 0 68 23.5t37 60.5z" />
    <glyph glyph-name="zeta" unicode="&#x3b6;" 
d="M170 387q0 164 90 260l490 533h-537v221h831v-221l-614 -674q-39 -45 -39 -119q0 -70 48 -117t118 -49h231q115 0 197 -81t82 -197v-299h-221v301q0 23 -16.5 39t-38.5 16h-234q-162 2 -274.5 113.5t-112.5 273.5z" />
    <glyph glyph-name="eta" unicode="&#x3b7;" 
d="M655 1063q162 0 274.5 -112.5t112.5 -274.5v-1032h-221v1032q0 70 -48 118t-118 48h-73q-68 0 -117 -48.5t-49 -117.5v-676h-221v768q0 23 -16.5 39t-39.5 16h-63v221h61q137 0 221 -108q111 127 279 127h18z" />
    <glyph glyph-name="theta" unicode="&#x3b8;" 
d="M657 1419q160 0 273.5 -113.5t113.5 -273.5v-663q0 -160 -113.5 -273.5t-273.5 -113.5h-98q-160 0 -273.5 113.5t-113.5 273.5v663q0 160 113.5 273.5t273.5 113.5h98zM559 1198q-70 0 -118 -48t-48 -118v-221h430v221q0 70 -48 118t-118 48h-98zM657 203q70 0 118 48
t48 118v221h-430v-221q0 -70 48 -118t118 -48h98z" />
    <glyph glyph-name="iota" unicode="&#x3b9;" 
d="M96 823v221h566v-696q0 -59 43 -102t102 -43q53 0 93 33.5t50 87.5l213 -66q-31 -121 -130 -198.5t-226 -77.5q-152 0 -259.5 107.5t-107.5 258.5v475h-344z" />
    <glyph glyph-name="kappa" unicode="&#x3ba;" 
d="M215 1044h221v-417h146l174 147q31 27 49 61.5t22 57.5l2 22v129h222v-129q0 -25 -5.5 -60.5t-43 -113t-103.5 -133.5l-106 -90l147 -119q18 -16 41 -39.5t55.5 -92t32.5 -142.5v-125h-221v125q0 53 -49 102l-215 179h-148v-406h-221v1044z" />
    <glyph glyph-name="lambda" unicode="&#x3bb;" 
d="M190 1180v221h158q98 0 175 -53.5t116 -135.5l422 -956q12 -35 51 -35h62v-221h-60q-84 0 -151.5 45t-102.5 121l-262 586l-180 -404q-49 -113 -49 -219v-129h-222v129q0 154 70 309l262 588l-43 96q-14 31 -31.5 44.5t-56.5 13.5h-158z" />
    <glyph glyph-name="mu" unicode="&#x3bc;" 
d="M1063 221h63v-221h-61q-141 0 -225 115q-88 -133 -250 -133h-12q-109 0 -197 73v-411h-221v1400h221v-675q0 -70 48 -118t118 -48h74q70 0 117.5 48t47.5 118v675h222v-768q0 -23 16 -39t39 -16z" />
    <glyph glyph-name="nu" unicode="&#x3bd;" 
d="M147 1044h222v-129q0 -106 51 -219l188 -426l189 426q51 113 51 219v129h221v-129q0 -152 -70 -309l-270 -606h-242l-270 606q-70 158 -70 309v129z" />
    <glyph glyph-name="xi" unicode="&#x3be;" 
d="M788 221q115 0 197 -82t82 -196v-299h-221v301q0 23 -16.5 39t-38.5 16h-177q-160 0 -273.5 113.5t-113.5 273.5v49q0 88 43 163t117 118q-147 96 -147 272v25q0 160 113.5 273.5t273.5 113.5h344v-221h-344q-70 0 -118 -49.5t-48 -116.5v-25q0 -70 48 -118t118 -48h227
v-221h-240q-70 0 -117.5 -49t-47.5 -117v-49q0 -70 48 -118t117 -48h174z" />
    <glyph glyph-name="omicron" unicode="&#x3bf;" 
d="M571 1063h74q160 0 273.5 -113.5t113.5 -273.5v-307q0 -160 -113.5 -273.5t-273.5 -113.5h-74q-160 0 -273.5 113.5t-113.5 273.5v307q0 160 113.5 273.5t273.5 113.5zM571 842q-68 0 -116.5 -48.5t-48.5 -117.5v-307q0 -70 49 -118t116 -48h74q70 0 118 48t48 118v307
q0 70 -48 118t-118 48h-74z" />
    <glyph glyph-name="pi" unicode="&#x3c0;" 
d="M1143 823h-191v-547q0 -23 16.5 -39t39.5 -16h63v-221h-61q-115 0 -197 81t-82 198v544h-258v-823h-221v823h-191v221h1082v-221z" />
    <glyph glyph-name="rho" unicode="&#x3c1;" 
d="M653 1063q160 0 273.5 -112.5t113.5 -274.5v-307q0 -160 -113.5 -273.5t-273.5 -113.5h-18q-121 0 -221 73v-411h-221v1032q0 162 113.5 274.5t273.5 112.5h73zM819 369v307q0 70 -48 118t-118 48h-73q-70 0 -118 -48.5t-48 -117.5v-307q0 -68 48 -117t118 -49h73
q70 0 118 49t48 117z" />
    <glyph glyph-name="sigma1" unicode="&#x3c2;" 
d="M195 387v289q0 160 113.5 273.5t273.5 113.5h73q160 0 273.5 -113.5t113.5 -273.5h-221q0 70 -48 118t-118 48h-73q-70 0 -118 -48.5t-48 -117.5v-289q0 -70 48 -118t118 -48h182q117 0 197.5 -82t80.5 -196v-299h-221v301q0 23 -16.5 39t-38.5 16h-184
q-160 0 -273.5 113.5t-113.5 273.5z" />
    <glyph glyph-name="sigma" unicode="&#x3c3;" 
d="M1118 1044v-221h-172q74 -96 74 -221v-233q0 -160 -113.5 -273.5t-273.5 -113.5h-74q-160 0 -273.5 113.5t-113.5 273.5v288q0 160 113.5 273.5t273.5 113.5h559zM799 657q0 70 -48.5 118t-117.5 48h-74q-68 0 -117 -48t-49 -118v-288q0 -70 49.5 -118t116.5 -48h74
q70 0 118 48t48 118v288z" />
    <glyph glyph-name="tau" unicode="&#x3c4;" 
d="M1047 823h-345v-547q0 -23 16.5 -39t39.5 -16h92v-221h-90q-117 0 -198 82t-81 197v544h-319v221h885v-221z" />
    <glyph glyph-name="upsilon" unicode="&#x3c5;" 
d="M190 1044h222v-675q0 -70 48 -118t118 -48h73q70 0 118 48t48 118v299q0 59 -37 105t-94 58l62 213q127 -33 208.5 -137t81.5 -239v-299q0 -162 -112.5 -274.5t-274.5 -112.5h-73q-160 0 -274 112.5t-114 274.5v675z" />
    <glyph glyph-name="phi" unicode="&#x3c6;" 
d="M723 1061q162 0 274.5 -113.5t112.5 -273.5v-305q0 -160 -112.5 -273.5t-274.5 -113.5h-4v-338h-221v338h-4q-160 0 -274 113.5t-114 273.5v305q0 160 114 273.5t274 113.5h4v340h221v-340h4zM494 203h4v637h-4q-70 0 -118 -48.5t-48 -117.5v-305q0 -70 48 -118t118 -48z
M889 369v305q0 70 -48 118t-118 48h-4v-637h4q70 0 118 48t48 118z" />
    <glyph glyph-name="chi" unicode="&#x3c7;" 
d="M160 1044h221v-129q0 -27 15.5 -78t45.5 -87l166 -215l166 215q31 37 46.5 88t15.5 77v129h221v-129q0 -53 -25.5 -141t-83.5 -160l-203 -262l238 -309l8 -10q6 -12 13.5 -24.5t17.5 -32t19.5 -42t17.5 -49t12 -56.5t4 -60v-125h-221v125q0 20 -5 41.5t-11.5 38
t-13.5 29.5t-13 22l-4 8l-199 260l-198 -260q-4 -4 -13.5 -20.5t-22 -51.5t-12.5 -67v-125h-221v125q0 31 4.5 60.5t12.5 56t17 49t19.5 42t17.5 31.5t13 25l8 10l238 309l-203 262q-57 72 -82.5 160t-25.5 141v129z" />
    <glyph glyph-name="psi" unicode="&#x3c8;" 
d="M891 1044h221v-675q0 -160 -113.5 -273.5t-273.5 -113.5h-6v-338h-221v338h-6q-160 0 -274 113.5t-114 273.5v675h222v-675q0 -68 48 -117t118 -49h6v1198h221v-1198h6q70 0 118 49t48 117v675z" />
    <glyph glyph-name="omega" unicode="&#x3c9;" 
d="M915 1044q96 -29 158 -111.5t62 -187.5v-448q0 -131 -92.5 -223t-223.5 -92q-127 0 -211 100q-80 -100 -209 -100q-131 0 -223 92t-92 223v448q0 104 61.5 187.5t157.5 111.5l64 -210q-61 -25 -62 -89v-446q0 -41 27.5 -68.5t68.5 -27.5t69 27.5t28 68.5v424h221v-424
q0 -41 27.5 -68.5t68.5 -27.5t69.5 28.5t28.5 67.5v446q0 63 -61 89z" />
    <glyph glyph-name="iotadieresis" unicode="&#x3ca;" 
d="M244 1180v338h221v-338h-221zM637 1180v338h221v-338h-221zM96 823v221h566v-696q0 -59 43 -102t102 -43q53 0 93 33.5t50 87.5l213 -66q-31 -121 -130 -198.5t-226 -77.5q-152 0 -259.5 107.5t-107.5 258.5v475h-344z" />
    <glyph glyph-name="upsilondieresis" unicode="&#x3cb;" 
d="M307 1180v338h221v-338h-221zM700 1180v338h222v-338h-222zM190 1044h222v-675q0 -70 48 -118t118 -48h73q70 0 118 48t48 118v299q0 59 -37 105t-94 58l62 213q127 -33 208.5 -137t81.5 -239v-299q0 -162 -112.5 -274.5t-274.5 -112.5h-73q-160 0 -274 112.5t-114 274.5
v675z" />
    <glyph glyph-name="omicrontonos" unicode="&#x3cc;" 
d="M694 1143l-202 94l188 405l203 -96zM571 1063h74q160 0 273.5 -113.5t113.5 -273.5v-307q0 -160 -113.5 -273.5t-273.5 -113.5h-74q-160 0 -273.5 113.5t-113.5 273.5v307q0 160 113.5 273.5t273.5 113.5zM571 842q-68 0 -116.5 -48.5t-48.5 -117.5v-307q0 -70 49 -118
t116 -48h74q70 0 118 48t48 118v307q0 70 -48 118t-118 48h-74z" />
    <glyph glyph-name="upsilontonos" unicode="&#x3cd;" 
d="M700 1143l-202 94l188 405l203 -96zM190 1044h222v-675q0 -70 48 -118t118 -48h73q70 0 118 48t48 118v299q0 59 -37 105t-94 58l62 213q127 -33 208.5 -137t81.5 -239v-299q0 -162 -112.5 -274.5t-274.5 -112.5h-73q-160 0 -274 112.5t-114 274.5v675z" />
    <glyph glyph-name="omegatonos" unicode="&#x3ce;" 
d="M883 1546l-189 -403l-202 94l188 405zM915 1044q96 -29 158 -111.5t62 -187.5v-448q0 -131 -92.5 -223t-223.5 -92q-127 0 -211 100q-80 -100 -209 -100q-131 0 -223 92t-92 223v448q0 104 61.5 187.5t157.5 111.5l64 -210q-61 -25 -62 -89v-446q0 -41 27.5 -68.5
t68.5 -27.5t69 27.5t28 68.5v424h221v-424q0 -41 27.5 -68.5t68.5 -27.5t69.5 28.5t28.5 67.5v446q0 63 -61 89z" />
    <glyph glyph-name="afii10023" unicode="&#x401;" 
d="M332 1536v338h221v-338h-221zM725 1536v338h221v-338h-221zM215 0v1401h848v-221h-627v-369h565v-221h-565v-369h627v-221h-848z" />
    <glyph glyph-name="afii10051" unicode="&#x402;" 
d="M698 915q162 0 274.5 -112.5t112.5 -274.5v-141q0 -160 -113.5 -273.5t-273.5 -113.5h-73v221h73q70 0 118 48t48 118v141q0 70 -48 118t-118 48h-73q-68 0 -117 -48t-49 -118v-528h-221v1180h-240v221h838v-221h-377v-338q96 74 221 73h18z" />
    <glyph glyph-name="afii10052" unicode="&#x403;" 
d="M657 1511l-157 158l315 316l158 -158zM233 0v1401h830v-221h-608v-1180h-222z" />
    <glyph glyph-name="afii10053" unicode="&#x404;" 
d="M672 203q59 0 105 39t57 94l213 -62q-33 -127 -137.5 -209.5t-237.5 -82.5h-99q-162 0 -274.5 113.5t-112.5 273.5v663q0 160 113 273.5t274 113.5h99q133 0 237.5 -83t137.5 -210l-213 -61q-10 57 -56.5 95t-105.5 38h-99q-70 0 -117.5 -49t-47.5 -117v-221h399v-221
h-399v-221q0 -70 48 -118t117 -48h99z" />
    <glyph glyph-name="afii10054" unicode="&#x405;" 
d="M141 274l211 62q10 -57 57.5 -95t106.5 -38h139q68 0 117 48t49 118q0 143 -166 206l-174 66q-311 123 -311 391q0 162 113.5 274.5t273.5 112.5h96q135 0 239.5 -82t135.5 -209l-213 -61q-10 55 -56 93t-106 38h-96q-70 0 -118 -48t-48 -118q0 -59 35 -102t139 -84
l176 -68q141 -57 221 -162.5t80 -246.5q0 -162 -113.5 -274.5t-273.5 -112.5h-139q-135 0 -239.5 82.5t-135.5 209.5z" />
    <glyph glyph-name="afii10055" unicode="&#x406;" 
d="M184 221h314v959h-295v221h811v-221h-295v-959h313v-221h-848v221z" />
    <glyph glyph-name="afii10056" unicode="&#x407;" 
d="M301 1536v338h221v-338h-221zM694 1536v338h221v-338h-221zM184 221h314v959h-295v221h811v-221h-295v-959h313v-221h-848v221z" />
    <glyph glyph-name="afii10057" unicode="&#x408;" 
d="M227 1401h774v-1032q0 -160 -113.5 -273.5t-273.5 -113.5h-82q-135 0 -239.5 81.5t-136.5 208.5l213 64q12 -57 57 -95t106 -38h82q70 0 118 48t48 118v811h-553v221z" />
    <glyph glyph-name="afii10058" unicode="&#x409;" 
d="M29 0v221h98q23 0 39 17.5t16 40.5v1122h602v-502h21q160 0 273.5 -113.5t113.5 -273.5v-125q0 -160 -113.5 -273.5t-273.5 -113.5h-242v1180h-160v-901q0 -115 -81.5 -197t-196.5 -82h-96zM784 221h21q70 0 118 48t48 118v125q0 70 -48.5 118t-117.5 48h-21v-457z" />
    <glyph glyph-name="afii10059" unicode="&#x40a;" 
d="M170 0v1401h221v-551h168v551h221v-551h21q160 0 273.5 -113.5t113.5 -273.5v-76q0 -160 -113.5 -273.5t-273.5 -113.5h-242v629h-168v-629h-221zM780 221h21q70 0 118 48t48 118v76q0 70 -48.5 118t-117.5 48h-21v-408z" />
    <glyph glyph-name="afii10060" unicode="&#x40b;" 
d="M680 915q162 0 274.5 -112.5t112.5 -274.5v-528h-221v528q0 70 -48 118t-118 48h-74q-68 0 -117 -48t-49 -118v-528h-221v1180h-237v221h837v-221h-379v-338q96 74 222 73h18z" />
    <glyph glyph-name="afii10061" unicode="&#x40c;" 
d="M604 1511l-158 158l316 316l158 -158zM197 1401h221v-584h104l269 293q70 76 69 164v127h221v-129q0 -25 -4 -58.5t-35.5 -113.5t-87.5 -142l-237 -251l252 -265q57 -61 89 -140t37 -114.5t5 -58.5v-129h-221v127q0 88 -72 162l-287 307h-102v-596h-221v1401z" />
    <glyph glyph-name="afii10062" unicode="&#x40e;" 
d="M319 1819h222q0 -29 20.5 -48.5t47 -19.5t47 19.5t20.5 48.5h221q0 -119 -84 -204t-205 -85t-205 85t-84 204zM174 0v221h184q55 0 88 62l43 92l-262 588q-70 154 -69 309v129h221v-129q0 -106 49 -219l180 -404l180 404q51 113 52 219v129h221v-129q0 -152 -72 -309
l-336 -762q-96 -201 -295 -201h-184z" />
    <glyph glyph-name="afii10145" unicode="&#x40f;" 
d="M1032 1401v-1401h-307v-356h-221v356h-320v1401h222v-1180h405v1180h221z" />
    <glyph glyph-name="afii10017" unicode="&#x410;" 
d="M1036 584l4 -19q4 -20 10.5 -51t13.5 -69.5t11 -87t4 -93.5v-264h-221v283v20h-498v-20v-283h-221v264q0 45 4 93.5t10.5 87t12.5 69.5t10 51l4 19l182 651q23 80 91.5 132t154.5 52t154.5 -51t93.5 -133zM395 524h426q0 2 -1 5t-1 6l-174 636q-10 27 -37 27
q-31 0 -37 -27l-174 -636q0 -2 -1 -5.5t-1 -5.5z" />
    <glyph glyph-name="afii10018" unicode="&#x411;" 
d="M694 901q160 0 273.5 -112.5t113.5 -274.5v-127q0 -162 -113.5 -274.5t-273.5 -112.5h-461v1401h744v-221h-522v-279h239zM860 387v127q0 70 -48 118t-118 48h-239v-459h239q70 0 118 48t48 118z" />
    <glyph glyph-name="afii10019" unicode="&#x412;" 
d="M909 717q74 -43 117 -118t43 -163v-49q0 -160 -113.5 -273.5t-273.5 -113.5h-473v1401h461q160 0 273.5 -112.5t113.5 -274.5v-25q-1 -176 -148 -272zM670 1180h-240v-357h240q70 0 118 48.5t48 117.5v25q0 70 -48 118t-118 48zM848 387v49q0 70 -48 118t-118 48h-252
v-381h252q70 0 118 48t48 118z" />
    <glyph glyph-name="afii10020" unicode="&#x413;" 
d="M233 0v1401h830v-221h-608v-1180h-222z" />
    <glyph glyph-name="afii10021" unicode="&#x414;" 
d="M98 -356v577h121q74 217 74 559v621h682v-1180h123v-577h-221v356h-558v-356h-221zM449 221h305v959h-240v-400q1 -334 -65 -559z" />
    <glyph glyph-name="afii10022" unicode="&#x415;" 
d="M215 0v1401h848v-221h-627v-369h565v-221h-565v-369h627v-221h-848z" />
    <glyph glyph-name="afii10024" unicode="&#x416;" 
d="M1053 446q74 -156 73 -313v-133h-221v133q0 106 -51 217l-117 238h-18v-588h-221v588h-19l-112 -238q-55 -111 -56 -217v-133h-221v133q0 158 76 313l127 261l-119 249q-76 156 -76 314v131h221v-131q0 -109 54 -217l106 -226h19v574h221v-574h18l109 226q51 106 51 217
v131h221v-131q0 -158 -71 -314l-121 -249z" />
    <glyph glyph-name="afii10025" unicode="&#x417;" 
d="M838 717q72 -45 115.5 -119t43.5 -162v-67q0 -160 -113.5 -273.5t-273.5 -113.5h-102q-135 0 -239.5 81.5t-137.5 210.5l213 62q10 -57 56 -95t108 -38h102q68 0 117 48t49 118v67q0 68 -49 117t-117 49h-209v221h197q68 0 117 48.5t49 117.5v43q0 68 -49 117t-117 49
h-90q-61 0 -107.5 -38t-56.5 -95l-213 61q33 127 137.5 210t239.5 83h90q160 0 273.5 -112.5t113.5 -274.5v-43q0 -176 -147 -272z" />
    <glyph glyph-name="afii10026" unicode="&#x418;" 
d="M1069 1401v-1401h-221v999l-424 -999h-277v1401h222v-1000l424 1000h276z" />
    <glyph glyph-name="afii10027" unicode="&#x419;" 
d="M319 1819h222q0 -29 20.5 -48.5t47 -19.5t47 19.5t20.5 48.5h221q0 -119 -84 -204t-205 -85t-205 85t-84 204zM1069 1401v-1401h-221v999l-424 -999h-277v1401h222v-1000l424 1000h276z" />
    <glyph glyph-name="afii10028" unicode="&#x41a;" 
d="M197 1401h221v-584h104l269 293q70 76 69 164v127h221v-129q0 -25 -4 -58.5t-35.5 -113.5t-87.5 -142l-237 -251l252 -265q57 -61 89 -140t37 -114.5t5 -58.5v-129h-221v127q0 88 -72 162l-287 307h-102v-596h-221v1401z" />
    <glyph glyph-name="afii10029" unicode="&#x41b;" 
d="M45 0v221h98q23 0 39.5 16.5t16.5 38.5v1125h839v-1401h-221v1180h-397v-901q0 -115 -82 -197t-197 -82h-96z" />
    <glyph glyph-name="afii10030" unicode="&#x41c;" 
d="M123 0v1401h274l211 -705l211 705h275v-1401h-222v1012l-167 -570h-191l-170 570v-1012h-221z" />
    <glyph glyph-name="afii10031" unicode="&#x41d;" 
d="M811 1401h221v-1401h-221v590h-405v-590h-222v1401h222v-590h405v590z" />
    <glyph glyph-name="afii10032" unicode="&#x41e;" 
d="M559 -18q-160 0 -273.5 113.5t-113.5 273.5v663q0 160 113.5 273.5t273.5 113.5h98q160 0 273.5 -113.5t113.5 -273.5v-663q0 -160 -113.5 -273.5t-273.5 -113.5h-98zM559 203h98q70 0 118 48t48 118v663q0 70 -48 118t-118 48h-98q-70 0 -118 -48t-48 -118v-663
q0 -70 48 -118t118 -48z" />
    <glyph glyph-name="afii10033" unicode="&#x41f;" 
d="M184 1401h848v-1401h-221v1180h-405v-1180h-222v1401z" />
    <glyph glyph-name="afii10034" unicode="&#x420;" 
d="M233 0v1401h461q160 0 273.5 -112.5t113.5 -274.5v-127q0 -162 -113.5 -274.5t-273.5 -112.5h-239v-500h-222zM455 721h239q70 0 118 48t48 118v127q0 70 -48 118t-118 48h-239v-459z" />
    <glyph glyph-name="afii10035" unicode="&#x421;" 
d="M1047 1126l-213 -61q-10 57 -56.5 95t-105.5 38h-99q-70 0 -117.5 -49t-47.5 -117v-663q0 -70 48 -118t117 -48h99q59 0 105 39t57 94l213 -62q-33 -127 -137.5 -209.5t-237.5 -82.5h-99q-162 0 -274.5 113.5t-112.5 273.5v663q0 160 113 273.5t274 113.5h99
q133 0 237.5 -83t137.5 -210z" />
    <glyph glyph-name="afii10036" unicode="&#x422;" 
d="M160 1401h897v-221h-338v-1180h-221v1180h-338v221z" />
    <glyph glyph-name="afii10037" unicode="&#x423;" 
d="M174 0v221h184q55 0 88 62l43 92l-262 588q-70 154 -69 309v129h221v-129q0 -106 49 -219l180 -404l180 404q51 113 52 219v129h221v-129q0 -152 -72 -309l-336 -762q-96 -201 -295 -201h-184z" />
    <glyph glyph-name="afii10038" unicode="&#x424;" 
d="M723 1237q162 0 274.5 -113.5t112.5 -273.5v-299q0 -160 -112.5 -273.5t-274.5 -113.5h-4v-164h-221v164h-4q-160 0 -274 113.5t-114 273.5v299q0 160 114 273.5t274 113.5h4v164h221v-164h4zM494 385h4v631h-4q-70 0 -118 -48t-48 -118v-299q0 -70 48 -118t118 -48z
M889 551v299q0 70 -48 118t-118 48h-4v-631h4q70 0 118 48t48 118z" />
    <glyph glyph-name="afii10039" unicode="&#x425;" 
d="M160 1401h221v-129q0 -27 15.5 -78t45.5 -88l166 -215l166 215q31 37 46.5 88t15.5 78v129h221v-129q0 -53 -25.5 -141.5t-83.5 -159.5l-203 -262l238 -310l8 -10q6 -12 13.5 -24.5t17.5 -32t19.5 -42t17.5 -49t12 -56t4 -60.5v-125h-221v125q0 20 -5 41.5t-11.5 38
t-13.5 30t-13 21.5l-4 8l-199 260l-198 -260q-4 -4 -13.5 -20.5t-22 -51t-12.5 -67.5v-125h-221v125q0 31 4.5 60.5t12.5 56t17 49t19.5 42t17.5 32t13 24.5l8 10l238 310l-203 262q-57 72 -82.5 160t-25.5 141v129z" />
    <glyph glyph-name="afii10040" unicode="&#x426;" 
d="M184 0v1401h222v-1180h405v1180h221v-1401h-848z" />
    <glyph glyph-name="afii10041" unicode="&#x427;" 
d="M1010 1401v-1401h-222v559q-96 -74 -221 -74h-18q-162 0 -274.5 113t-112.5 274v529h221v-529q0 -70 48 -117.5t118 -47.5h74q68 0 116.5 48t48.5 117v529h222z" />
    <glyph glyph-name="afii10042" unicode="&#x428;" 
d="M115 0v1401h221v-1180h162v1180h221v-1180h164v1180h221v-1401h-989z" />
    <glyph glyph-name="afii10043" unicode="&#x429;" 
d="M1104 221h78v-577h-221v356h-846v1401h221v-1180h162v1180h221v-1180h164v1180h221v-1180z" />
    <glyph glyph-name="afii10044" unicode="&#x42a;" 
d="M702 901q160 0 274 -112.5t114 -274.5v-127q0 -162 -114 -274.5t-274 -112.5h-460v1180h-240v221h461v-500h239zM868 387v127q0 70 -48 118t-118 48h-239v-459h239q70 0 118 48t48 118z" />
    <glyph glyph-name="afii10045" unicode="&#x42b;" 
d="M131 1401h221v-502h21q160 0 273.5 -113.5t113.5 -273.5v-125q0 -160 -114 -273.5t-273 -113.5h-242v1401zM866 1401h221v-1401h-221v1401zM352 678v-457h21q70 0 118 48t48 118v125q0 70 -48.5 118t-117.5 48h-21z" />
    <glyph glyph-name="afii10046" unicode="&#x42c;" 
d="M233 1401h222v-500h239q160 0 273.5 -112.5t113.5 -274.5v-127q0 -162 -113.5 -274.5t-273.5 -112.5h-461v1401zM455 680v-459h239q70 0 118 48t48 118v127q0 70 -48 118t-118 48h-239z" />
    <glyph glyph-name="afii10047" unicode="&#x42d;" 
d="M643 1419q162 0 274.5 -113.5t112.5 -273.5v-663q0 -160 -112.5 -273.5t-274.5 -113.5h-98q-133 0 -237.5 82.5t-137.5 209.5l213 62q10 -55 56 -94t106 -39h98q70 0 118 48t48 118v221h-399v221h399v221q0 68 -48 117t-118 49h-98q-59 0 -105.5 -38t-56.5 -95l-213 61
q33 127 137.5 210t237.5 83h98z" />
    <glyph glyph-name="afii10048" unicode="&#x42e;" 
d="M809 1419q133 0 227 -94t94 -227v-793q0 -133 -94 -228t-227 -95q-135 0 -229.5 95t-94.5 228v285h-153v-590h-221v1401h221v-590h153v287q0 133 94.5 227t229.5 94zM909 305v793q0 41 -29.5 70.5t-70.5 29.5q-43 0 -72.5 -29.5t-29.5 -70.5v-793q0 -43 29.5 -72.5
t72.5 -29.5q41 0 70.5 29.5t29.5 72.5z" />
    <glyph glyph-name="afii10049" unicode="&#x42f;" 
d="M553 1401h461v-1401h-221v528h-129l-226 -237q-70 -74 -69 -162v-129h-222v129q0 174 129 313l115 121q-100 47 -162.5 142.5t-62.5 209.5v99q0 160 112.5 273.5t274.5 113.5zM793 750v430h-240q-70 0 -118 -48.5t-48 -117.5v-99q0 -70 48 -117.5t118 -47.5h240z" />
    <glyph glyph-name="afii10065" unicode="&#x430;" 
d="M801 1044h221v-1044h-221v55q-100 -74 -221 -73h-19q-162 0 -274.5 113.5t-112.5 273.5v307q0 162 112.5 274.5t274.5 112.5h19q125 0 221 -74v55zM635 203q68 0 117 49t49 117v307q0 70 -49.5 118t-116.5 48h-74q-70 0 -118 -48.5t-48 -117.5v-307q0 -68 48.5 -117
t117.5 -49h74z" />
    <glyph glyph-name="afii10066" unicode="&#x431;" 
d="M647 1063q160 0 273.5 -113.5t113.5 -273.5v-307q0 -160 -113.5 -273.5t-273.5 -113.5h-74q-160 0 -273.5 113.5t-113.5 273.5v755q2 160 115 272.5t272 112.5h160q23 0 39 15.5t16 40.5v63h222v-61q0 -117 -82 -198t-197 -81h-158q-70 0 -117.5 -49t-47.5 -117v-133
q100 74 221 74h18zM813 369v307q0 68 -48 117t-118 49h-74q-70 0 -117.5 -49.5t-47.5 -116.5v-307q0 -70 48 -118t117 -48h74q70 0 118 48t48 118z" />
    <glyph glyph-name="afii10067" unicode="&#x432;" 
d="M942 532q109 -82 109 -215q0 -131 -93.5 -224t-224.5 -93h-518v1044h502q131 0 223 -92t92 -223q0 -121 -90 -197zM436 823v-188h281q41 0 67.5 26.5t26.5 67.5q0 39 -27.5 66.5t-66.5 27.5h-281zM733 221q41 0 68.5 29t27.5 67.5t-27.5 67.5t-68.5 29h-297v-193h297z
" />
    <glyph glyph-name="afii10068" unicode="&#x433;" 
d="M233 0v1044h818v-221h-596v-823h-222z" />
    <glyph glyph-name="afii10069" unicode="&#x434;" 
d="M115 -356v577h121q74 213 73 559v264h658v-823h123v-577h-222v356h-532v-356h-221zM465 221h280v602h-215v-57q1 -328 -65 -545z" />
    <glyph glyph-name="afii10070" unicode="&#x435;" 
d="M578 1063h73q160 0 273.5 -113.5t113.5 -273.5v-236h-626v-71q0 -70 48 -118t118 -48h84q57 0 102 36.5t57 92.5l213 -64q-33 -125 -136 -205.5t-236 -80.5h-84q-160 0 -274 113.5t-114 273.5v307q0 160 114 273.5t274 113.5zM412 633h405v43q0 70 -48 118t-118 48h-73
q-70 0 -118 -48.5t-48 -117.5v-43z" />
    <glyph glyph-name="afii10072" unicode="&#x436;" 
d="M90 0v125q0 156 100 281l93 112l-66 80q-121 143 -121 315v131h221v-131q0 -92 68 -174l92 -110h21v415h221v-415h20l92 110q68 82 68 174v131h221v-131q0 -172 -121 -315l-65 -80l92 -112q100 -125 100 -281v-125h-221v125q0 20 -5 42.5t-12 39t-14.5 30t-13.5 21.5
l-4 8l-117 142h-20v-408h-221v408h-21l-117 -142l-4 -8q-4 -6 -9 -14t-12 -22.5t-12.5 -29t-8.5 -32t-3 -35.5v-125h-221z" />
    <glyph glyph-name="afii10073" unicode="&#x437;" 
d="M905 530q113 -80 113 -221q0 -135 -95.5 -231t-232.5 -96h-198q-113 0 -200 67.5t-116 171.5l211 66q10 -37 39 -60.5t66 -23.5h198q45 0 76 30.5t31 75.5q0 43 -31 75t-76 32h-221v221h213q43 0 72.5 29.5t29.5 72.5q0 41 -29.5 72t-72.5 31h-197q-35 0 -61.5 -20.5
t-36.5 -53.5l-211 63q29 100 115 166t194 66h197q135 0 229.5 -95.5t94.5 -228.5q-1 -129 -101 -209z" />
    <glyph glyph-name="afii10074" unicode="&#x438;" 
d="M147 0v1044h222v-727l428 727h272v-1044h-221v729l-428 -729h-273z" />
    <glyph glyph-name="afii10075" unicode="&#x439;" 
d="M319 1462h222q0 -29 20.5 -48t47 -19t47 19.5t20.5 47.5h221q0 -119 -84 -203.5t-205 -84.5t-205 84.5t-84 203.5zM147 0v1044h222v-727l428 727h272v-1044h-221v729l-428 -729h-273z" />
    <glyph glyph-name="afii10076" unicode="&#x43a;" 
d="M215 1044h221v-417h146l174 147q31 27 49 61.5t22 57.5l2 22v129h222v-129q0 -25 -5.5 -60.5t-43 -113t-103.5 -133.5l-106 -90l147 -119q18 -16 41 -39.5t55.5 -92t32.5 -142.5v-125h-221v125q0 53 -49 102l-215 179h-148v-406h-221v1044z" />
    <glyph glyph-name="afii10077" unicode="&#x43b;" 
d="M45 0v221h98q23 0 39.5 16.5t16.5 38.5v768h839v-1044h-221v823h-397v-544q0 -115 -82 -197t-197 -82h-96z" />
    <glyph glyph-name="afii10078" unicode="&#x43c;" 
d="M123 0v1044h285l200 -690l201 690h285v-1044h-222v641l-165 -555h-197l-166 555v-641h-221z" />
    <glyph glyph-name="afii10079" unicode="&#x43d;" 
d="M184 1044h222v-423h405v423h221v-1044h-221v399h-405v-399h-222v1044z" />
    <glyph glyph-name="afii10080" unicode="&#x43e;" 
d="M571 1063h74q160 0 273.5 -113.5t113.5 -273.5v-307q0 -160 -113.5 -273.5t-273.5 -113.5h-74q-160 0 -273.5 113.5t-113.5 273.5v307q0 160 113.5 273.5t273.5 113.5zM571 842q-68 0 -116.5 -48.5t-48.5 -117.5v-307q0 -70 49 -118t116 -48h74q70 0 118 48t48 118v307
q0 70 -48 118t-118 48h-74z" />
    <glyph glyph-name="afii10081" unicode="&#x43f;" 
d="M184 1044h848v-1044h-221v823h-405v-823h-222v1044z" />
    <glyph glyph-name="afii10082" unicode="&#x440;" 
d="M657 1063q162 0 274.5 -113.5t112.5 -273.5v-307q0 -162 -112.5 -274.5t-274.5 -112.5h-18q-125 0 -221 73v-411h-221v1400h221v-55q100 74 221 74h18zM823 369v307q0 68 -48 117t-118 49h-73q-68 0 -117 -49.5t-49 -116.5v-307q0 -70 49 -118t117 -48h73q70 0 118 48
t48 118z" />
    <glyph glyph-name="afii10083" unicode="&#x441;" 
d="M203 369v307q0 160 113.5 273.5t273.5 113.5h78q135 0 239.5 -82t134.5 -209l-211 -61q-12 55 -58 93t-105 38h-78q-70 0 -118 -48.5t-48 -117.5v-307q0 -68 48 -117t118 -49h78q59 0 105 39t58 94l211 -62q-31 -127 -135 -209.5t-239 -82.5h-78q-160 0 -273.5 113.5
t-113.5 273.5z" />
    <glyph glyph-name="afii10084" unicode="&#x442;" 
d="M172 1044h872v-221h-325v-823h-221v823h-326v221z" />
    <glyph glyph-name="afii10085" unicode="&#x443;" 
d="M152 1044h221v-131q0 -98 53 -196l186 -340l189 340q51 92 51 196v131h221v-131q0 -162 -80 -305l-440 -798q-43 -74 -119 -120t-166 -46h-174v221h174q51 0 92 55l125 230l-254 458q-80 143 -79 305v131z" />
    <glyph glyph-name="afii10086" unicode="&#x444;" 
d="M723 1061q162 0 274.5 -113.5t112.5 -273.5v-305q0 -160 -112.5 -273.5t-274.5 -113.5h-4v-338h-221v338h-4q-160 0 -274 113.5t-114 273.5v305q0 160 114 273.5t274 113.5h4v340h221v-340h4zM494 203h4v637h-4q-70 0 -118 -48.5t-48 -117.5v-305q0 -70 48 -118t118 -48z
M889 369v305q0 70 -48 118t-118 48h-4v-637h4q70 0 118 48t48 118z" />
    <glyph glyph-name="afii10087" unicode="&#x445;" 
d="M184 1044h222v-126q0 -10 3 -28t21.5 -51.5t48.5 -58.5l127 -100l131 102q74 59 74 133v129h221v-129q0 -82 -45 -166.5t-115 -140.5l-112 -88l158 -123q16 -10 41.5 -36.5t58.5 -94t33 -141.5v-125h-222v125q0 27 -12 50.5t-23.5 35.5t-13.5 12l-172 137l-172 -135
q-49 -49 -49 -100v-125h-221v125q0 74 32.5 141.5t58.5 94t42 36.5l154 123l-113 88q-68 53 -106.5 131t-44 114t-5.5 62v129z" />
    <glyph glyph-name="afii10088" unicode="&#x446;" 
d="M1032 221h119v-577h-221v356h-746v1044h222v-823h405v823h221v-823z" />
    <glyph glyph-name="afii10089" unicode="&#x447;" 
d="M1014 1044v-1044h-221v393q-96 -74 -222 -74h-18q-162 0 -274.5 113t-112.5 275v337h221v-337q0 -70 48 -118t118 -48h74q68 0 117 48t49 118v337h221z" />
    <glyph glyph-name="afii10090" unicode="&#x448;" 
d="M115 0v1044h221v-823h162v823h221v-823h164v823h221v-1044h-989z" />
    <glyph glyph-name="afii10091" unicode="&#x449;" 
d="M1104 221h131v-577h-221v356h-899v1044h221v-823h162v823h221v-823h164v823h221v-823z" />
    <glyph glyph-name="afii10092" unicode="&#x44a;" 
d="M39 823v221h461v-270h178q160 0 273.5 -113.5t113.5 -273.5t-113.5 -273.5t-273.5 -113.5h-399v823h-240zM500 221h178q70 0 118 48t48 118t-48 118t-118 48h-178v-332z" />
    <glyph glyph-name="afii10093" unicode="&#x44b;" 
d="M127 0v1044h221v-376h80q137 0 235.5 -98.5t98.5 -235.5t-98.5 -235.5t-235.5 -98.5h-301zM870 0v1044h222v-1044h-222zM348 221h80q47 0 80 33t33 80t-33 79.5t-80 32.5h-80v-225z" />
    <glyph glyph-name="afii10094" unicode="&#x44c;" 
d="M240 0v1044h221v-270h239q160 0 273.5 -113.5t113.5 -273.5t-113.5 -273.5t-273.5 -113.5h-460zM461 221h239q70 0 118 48t48 118t-48 118t-118 48h-239v-332z" />
    <glyph glyph-name="afii10095" unicode="&#x44d;" 
d="M627 1063q160 0 273.5 -113.5t113.5 -273.5v-307q0 -160 -114 -273.5t-273 -113.5h-78q-135 0 -239.5 82.5t-135.5 209.5l211 62q12 -55 58 -94t106 -39h78q70 0 118 49t48 117v49h-353v221h353v37q0 70 -48.5 118t-117.5 48h-78q-59 0 -105.5 -38t-58.5 -93l-211 61
q31 127 135.5 209t239.5 82h78z" />
    <glyph glyph-name="afii10096" unicode="&#x44e;" 
d="M813 1063q135 0 228.5 -94.5t93.5 -227.5v-436q0 -135 -93.5 -229t-228.5 -94t-229.5 95t-94.5 228v107h-153v-412h-221v1044h221v-411h153v108q0 133 94.5 227.5t229.5 94.5zM913 305v436q0 41 -29.5 71t-70.5 30q-43 0 -72.5 -30t-29.5 -71v-436q0 -43 29.5 -72.5
t72.5 -29.5q41 0 70.5 29.5t29.5 72.5z" />
    <glyph glyph-name="afii10097" unicode="&#x44f;" 
d="M524 1044h498v-1044h-221v344h-230l-151 -160q-33 -39 -33 -86v-98h-221v98q0 127 94 240l66 68q-152 104 -152 288q0 145 103.5 247.5t246.5 102.5zM801 565v258h-277q-53 0 -91 -37.5t-38 -91t38 -91.5t91 -38h277z" />
    <glyph glyph-name="afii10071" unicode="&#x451;" 
d="M307 1180v338h221v-338h-221zM700 1180v338h222v-338h-222zM578 1063h73q160 0 273.5 -113.5t113.5 -273.5v-236h-626v-71q0 -70 48 -118t118 -48h84q57 0 102 36.5t57 92.5l213 -64q-33 -125 -136 -205.5t-236 -80.5h-84q-160 0 -274 113.5t-114 273.5v307
q0 160 114 273.5t274 113.5zM412 633h405v43q0 70 -48 118t-118 48h-73q-70 0 -118 -48.5t-48 -117.5v-43z" />
    <glyph glyph-name="afii10099" unicode="&#x452;" 
d="M651 1063q162 0 274.5 -112.5t112.5 -274.5v-754q0 -115 -82 -196.5t-196 -81.5h-96v221h98q23 0 39 16.5t16 38.5v756q0 70 -48 118t-118 48h-73q-68 0 -117 -48.5t-49 -117.5v-676h-222v1165h-141v221h141v148h222v-148h252v-221h-252v-176q96 74 221 74h18z" />
    <glyph glyph-name="afii10100" unicode="&#x453;" 
d="M645 1155l-158 158l316 315l158 -158zM233 0v1044h818v-221h-596v-823h-222z" />
    <glyph glyph-name="afii10101" unicode="&#x454;" 
d="M668 203q59 0 105 39t58 94l211 -62q-31 -127 -135 -209.5t-239 -82.5h-78q-160 0 -273.5 113.5t-113.5 273.5v307q0 160 113.5 273.5t273.5 113.5h78q135 0 239.5 -82t134.5 -209l-211 -61q-12 55 -58 93t-105 38h-78q-70 0 -118 -48.5t-48 -117.5v-37h352v-221h-352
v-49q0 -68 48 -117t118 -49h78z" />
    <glyph glyph-name="afii10102" unicode="&#x455;" 
d="M184 217l213 66q6 -35 33 -57.5t62 -22.5h225q39 0 67.5 28.5t28.5 67.5q0 47 -32.5 74.5t-80.5 32.5l-190 22q-131 12 -218 102.5t-87 214.5q0 131 92 224.5t225 93.5h189q111 0 194.5 -65.5t112.5 -170.5l-213 -61q-6 33 -33 54.5t-61 21.5h-189q-39 0 -67.5 -28
t-28.5 -68.5t31.5 -67.5t79.5 -31l196 -22q131 -16 216 -106.5t85 -219.5q0 -131 -93 -224t-224 -93h-225q-109 0 -194 66.5t-114 168.5z" />
    <glyph glyph-name="afii10103" unicode="&#x456;" 
d="M541 1180v338h221v-338h-221zM264 1044h498v-823h319v-221h-884v221h344v602h-277v221z" />
    <glyph glyph-name="afii10104" unicode="&#x457;" 
d="M344 1180v338h221v-338h-221zM737 1180v338h221v-338h-221zM264 1044h498v-823h319v-221h-884v221h344v602h-277v221z" />
    <glyph glyph-name="afii10105" unicode="&#x458;" 
d="M635 1180v338h221v-338h-221zM223 1044h633v-1034q0 -160 -113.5 -272.5t-271.5 -112.5q-133 0 -235.5 79t-137.5 204l213 67q12 -55 56.5 -92t103.5 -37q68 0 116 48.5t48 115.5v813h-412v221z" />
    <glyph glyph-name="afii10106" unicode="&#x459;" 
d="M39 0v221h63q23 0 39.5 16.5t16.5 38.5v768h602v-376h80q139 0 236.5 -97.5t97.5 -236.5t-97.5 -236.5t-236.5 -97.5h-301v823h-160v-544q0 -115 -82 -197t-197 -82h-61zM760 221h80q47 0 79.5 33t32.5 80t-32.5 79.5t-79.5 32.5h-80v-225z" />
    <glyph glyph-name="afii10107" unicode="&#x45a;" 
d="M141 0v1044h221v-376h168v376h222v-376h79q139 0 236.5 -97.5t97.5 -236.5t-97 -236.5t-237 -97.5h-301v446h-168v-446h-221zM752 221h79q47 0 80 33t33 80t-32.5 79.5t-80.5 32.5h-79v-225z" />
    <glyph glyph-name="afii10108" unicode="&#x45b;" 
d="M651 1063q162 0 274.5 -112.5t112.5 -274.5v-676h-221v676q0 70 -48 118t-118 48h-73q-68 0 -117 -48.5t-49 -117.5v-676h-222v1165h-141v221h141v148h222v-148h252v-221h-252v-176q96 74 221 74h18z" />
    <glyph glyph-name="afii10109" unicode="&#x45c;" 
d="M616 1155l-157 158l315 315l158 -158zM215 1044h221v-417h146l174 147q31 27 49 61.5t22 57.5l2 22v129h222v-129q0 -25 -5.5 -60.5t-43 -113t-103.5 -133.5l-106 -90l147 -119q18 -16 41 -39.5t55.5 -92t32.5 -142.5v-125h-221v125q0 53 -49 102l-215 179h-148v-406
h-221v1044z" />
    <glyph glyph-name="afii10110" unicode="&#x45e;" 
d="M319 1462h222q0 -29 20.5 -48t47 -19t47 19.5t20.5 47.5h221q0 -119 -84 -203.5t-205 -84.5t-205 84.5t-84 203.5zM152 1044h221v-131q0 -98 53 -196l186 -340l189 340q51 92 51 196v131h221v-131q0 -162 -80 -305l-440 -798q-43 -74 -119 -120t-166 -46h-174v221h174
q51 0 92 55l125 230l-254 458q-80 143 -79 305v131z" />
    <glyph glyph-name="afii10193" unicode="&#x45f;" 
d="M1032 1044v-1044h-313v-356h-221v356h-314v1044h222v-823h405v823h221z" />
    <glyph glyph-name="afii10146" unicode="&#x462;" 
d="M698 901q160 0 273.5 -112.5t113.5 -274.5v-127q0 -162 -113.5 -274.5t-273.5 -112.5h-460v1180h-240v221h838v-221h-377v-279h239zM864 387v127q0 70 -48 118t-118 48h-239v-459h239q70 0 118 48t48 118z" />
    <glyph glyph-name="afii10194" unicode="&#x463;" 
d="M27 967v221h239v213h221v-213h377v-221h-377v-193h179q160 0 273.5 -113.5t113.5 -273.5t-114 -273.5t-273 -113.5h-400v967h-239zM487 221h179q70 0 117.5 48t47.5 118t-48 118t-117 48h-179v-332z" />
    <glyph glyph-name="afii10147" unicode="&#x472;" 
d="M657 1419q162 0 274.5 -113.5t112.5 -273.5v-663q0 -160 -112.5 -273.5t-274.5 -113.5h-98q-160 0 -273.5 113.5t-113.5 273.5v663q0 160 113.5 273.5t273.5 113.5h98zM559 1198q-68 0 -117 -49t-49 -117v-180q47 14 82 14q78 0 154 -45q8 -6 30.5 -22.5t34 -23.5
t28.5 -15t30 -8q29 0 50 18t21 45v217q0 68 -48 117t-118 49h-98zM657 203q70 0 118 48t48 118v180q-37 -14 -82 -14q-82 0 -153 45q-25 14 -45.5 29.5t-29.5 22.5t-21.5 12t-26.5 5q-29 0 -50.5 -18.5t-21.5 -44.5v-217q0 -70 49.5 -118t116.5 -48h98z" />
    <glyph glyph-name="afii10195" unicode="&#x473;" 
d="M645 1063q162 0 274.5 -113.5t112.5 -273.5v-307q0 -160 -112.5 -273.5t-274.5 -113.5h-74q-160 0 -273.5 113.5t-113.5 273.5v307q0 160 114 273.5t273 113.5h74zM571 842q-68 0 -116.5 -49.5t-48.5 -114.5q37 10 69 10q78 0 154 -45q8 -6 28.5 -21.5t32.5 -23.5
t27.5 -15.5t27.5 -7.5q27 0 46.5 17.5t19.5 44.5v39q0 68 -48 117t-118 49h-74zM645 203q70 0 117 47t49 117q-37 -10 -70 -11q-82 0 -153 45q-27 14 -47.5 29.5t-28.5 23t-18.5 11.5t-22.5 4q-25 0 -45 -18.5t-20 -42.5v-39q0 -70 49 -118t116 -48h74z" />
    <glyph glyph-name="afii10148" unicode="&#x474;" 
d="M137 1135v266h221v-285q0 -111 45 -250l205 -614l320 954q29 86 100.5 140.5t163.5 54.5h59v-221h-59q-43 0 -55 -39l-385 -1141h-287l-275 813q-16 43 -34.5 140.5t-18.5 181.5z" />
    <glyph glyph-name="afii10196" unicode="&#x475;" 
d="M141 915v129h221v-129q0 -100 52 -219l188 -426l272 609q33 76 101.5 120.5t152.5 44.5h60v-221h-62q-37 0 -51 -32l-352 -791h-242l-268 606q-72 157 -72 309z" />
    <glyph glyph-name="afii10050" unicode="&#x490;" 
d="M842 1579h221v-399h-608v-1180h-222v1401h609v178z" />
    <glyph glyph-name="afii10098" unicode="&#x491;" 
d="M829 1401h222v-578h-596v-823h-222v1044h596v357z" />
    <glyph glyph-name="uni0492" unicode="&#x492;" 
d="M1096 1180h-609v-410h484v-221h-484v-549h-221v549h-170v221h170v631h830v-221z" />
    <glyph glyph-name="uni0493" unicode="&#x493;" 
d="M1083 823h-596v-258h484v-221h-484v-344h-221v344h-170v221h170v479h817v-221z" />
    <glyph glyph-name="uni0496" unicode="&#x496;" 
d="M1118 221h84v-577h-221v356h-76v133q0 106 -51 217l-117 238h-18v-588h-221v588h-19l-112 -238q-55 -111 -56 -217v-133h-221v133q0 158 76 313l127 261l-119 249q-76 156 -76 314v131h221v-131q0 -109 54 -217l106 -226h19v574h221v-574h18l109 226q51 106 51 217v131
h221v-131q0 -158 -71 -314l-121 -249l127 -261q49 -106 65 -225z" />
    <glyph glyph-name="uni0497" unicode="&#x497;" 
d="M1114 221h88v-577h-221v356h-76v125q0 20 -5 42.5t-12 39t-14.5 30t-13.5 21.5l-4 8l-117 142h-20v-408h-221v408h-21l-117 -142l-4 -8q-4 -6 -9 -14t-12 -22.5t-12.5 -29t-8.5 -32t-3 -35.5v-125h-221v125q0 156 100 281l93 112l-66 80q-121 143 -121 315v131h221v-131
q0 -92 68 -174l92 -110h21v415h221v-415h20l92 110q68 82 68 174v131h221v-131q0 -172 -121 -315l-65 -80l92 -112q65 -87 88 -185z" />
    <glyph glyph-name="uni0498" unicode="&#x498;" 
d="M838 717q72 -45 115.5 -119t43.5 -162v-67q0 -141 -92 -250t-229 -131v-76q78 -35 125 -106.5t47 -157.5q0 -119 -84 -204t-205 -85h-104v221h104q29 0 48.5 19.5t19.5 48t-20.5 48t-47.5 19.5h-104v271q-119 14 -207 94t-117 194l213 62q10 -57 56 -95t108 -38h102
q68 0 117 48t49 118v67q0 68 -49 117t-117 49h-209v221h197q68 0 117 48.5t49 117.5v43q0 68 -49 117t-117 49h-90q-61 0 -107.5 -38t-56.5 -95l-213 61q33 127 137.5 210t239.5 83h90q160 0 273.5 -112.5t113.5 -274.5v-43q0 -176 -147 -272z" />
    <glyph glyph-name="uni0499" unicode="&#x499;" 
d="M1018 309q0 -127 -86 -221t-213 -104v-72q78 -35 125 -106.5t47 -157.5q0 -119 -85 -204t-204 -85h-104v221h104q29 0 48.5 19.5t19.5 48t-19.5 48t-48.5 19.5h-104v267h-6q-113 0 -200 67.5t-116 171.5l211 66q10 -37 39 -60.5t66 -23.5h198q45 0 76 30.5t31 75.5
q0 43 -31 75t-76 32h-221v221h213q43 0 72.5 29.5t29.5 72.5q0 41 -29.5 72t-72.5 31h-197q-35 0 -61.5 -20.5t-36.5 -53.5l-211 63q29 100 115 166t194 66h197q135 0 229.5 -95.5t94.5 -228.5q0 -129 -101 -209q113 -80 113 -221z" />
    <glyph glyph-name="uni049A" unicode="&#x49a;" 
d="M1087 221h127v-577h-221v356h-114v127q0 88 -72 162l-287 307h-102v-596h-221v1401h221v-584h104l269 293q70 76 69 164v127h221v-129q0 -25 -4 -58.5t-35.5 -113.5t-87.5 -142l-237 -251l252 -265q83 -92 118 -221z" />
    <glyph glyph-name="uni049B" unicode="&#x49b;" 
d="M1055 221h129v-577h-221v356h-115v125q0 53 -49 102l-215 179h-148v-406h-221v1044h221v-417h146l174 147q31 27 49 61.5t22 57.5l2 22v129h222v-129q0 -25 -5.5 -60.5t-43 -113t-103.5 -133.5l-106 -90l147 -119q82 -65 115 -178z" />
    <glyph glyph-name="uni04A2" unicode="&#x4a2;" 
d="M1032 221h115v-577h-221v356h-115v590h-405v-590h-222v1401h222v-590h405v590h221v-1180z" />
    <glyph glyph-name="uni04A3" unicode="&#x4a3;" 
d="M1032 221h115v-577h-221v356h-115v399h-405v-399h-222v1044h222v-423h405v423h221v-823z" />
    <glyph glyph-name="uni04AA" unicode="&#x4aa;" 
d="M672 203q59 0 105 39t57 94l213 -62q-29 -117 -119 -196.5t-209 -93.5v-72q78 -35 125 -106.5t47 -157.5q0 -119 -85 -204t-204 -85h-104v221h104q29 0 48.5 19.5t19.5 48t-19.5 48t-48.5 19.5h-104v275q-135 27 -223.5 133t-88.5 246v663q0 160 113 273.5t274 113.5h99
q133 0 237.5 -83t137.5 -210l-213 -61q-10 57 -56.5 95t-105.5 38h-99q-70 0 -117.5 -49t-47.5 -117v-663q0 -70 48 -118t117 -48h99z" />
    <glyph glyph-name="uni04AB" unicode="&#x4ab;" 
d="M668 203q59 0 105 39t58 94l211 -62q-27 -109 -108.5 -186.5t-192.5 -99.5v-76q78 -35 125 -106.5t47 -157.5q0 -119 -84 -204t-204 -85h-105v221h105q29 0 48 19.5t19 48t-20.5 48t-46.5 19.5h-105v273q-135 25 -226 132t-91 249v307q0 160 113.5 273.5t273.5 113.5h78
q135 0 239.5 -82t134.5 -209l-211 -61q-12 55 -58 93t-105 38h-78q-70 0 -118 -48.5t-48 -117.5v-307q0 -68 48 -117t118 -49h78z" />
    <glyph glyph-name="uni04AC" unicode="&#x4ac;" 
d="M1057 1180h-338v-959h115v-577h-222v356h-114v1180h-338v221h897v-221z" />
    <glyph glyph-name="uni04AD" unicode="&#x4ad;" 
d="M1044 823h-325v-602h115v-577h-222v356h-114v823h-326v221h872v-221z" />
    <glyph glyph-name="uni04AE" unicode="&#x4ae;" 
d="M1069 1112q0 -63 -22.5 -128.5t-40 -93.5t-29.5 -42l-258 -332v-516h-221v516l-258 332q-12 14 -29.5 42t-40.5 93.5t-23 128.5v289h222v-289q0 -31 11 -62.5t20.5 -47t13.5 -19.5l194 -250l195 250q4 4 13 19.5t20.5 47t11.5 62.5v289h221v-289z" />
    <glyph glyph-name="uni04AF" unicode="&#x4af;" 
d="M1069 913q0 -158 -80 -305l-270 -489v-475h-221v475l-271 489q-80 143 -80 305v131h222v-131q2 -106 53 -196l186 -340l189 340q20 41 33.5 90t15.5 78l2 28v131h221v-131z" />
    <glyph glyph-name="uni04B0" unicode="&#x4b0;" 
d="M1069 1112q0 -63 -22.5 -128.5t-40 -93.5t-29.5 -42l-168 -215h246v-221h-336v-412h-221v412h-336v221h246l-168 215q-12 14 -29.5 42t-40.5 93.5t-23 128.5v289h222v-289q0 -31 11 -62.5t20.5 -47t13.5 -19.5l194 -250l195 250q4 4 13 19.5t20.5 47t11.5 62.5v289h221
v-289z" />
    <glyph glyph-name="uni04B1" unicode="&#x4b1;" 
d="M1069 913q0 -158 -80 -305l-147 -268h166v-221h-289v-475h-221v475h-287v221h164l-148 268q-80 143 -80 305v131h222v-131q2 -106 53 -196l186 -340l189 340q20 41 33.5 90t15.5 78l2 28v131h221v-131z" />
    <glyph glyph-name="uni04B2" unicode="&#x4b2;" 
d="M1063 221h127v-577h-221v356h-115v125q0 20 -5 41.5t-11.5 38t-13.5 30t-13 21.5l-4 8l-199 260l-198 -260q-4 -4 -13.5 -20.5t-22 -51t-12.5 -67.5v-125h-221v125q0 31 4.5 60.5t12.5 56t17 49t19.5 42t17.5 32t13 24.5l8 10l238 310l-203 262q-57 72 -82.5 160
t-25.5 141v129h221v-129q0 -27 15.5 -78t45.5 -88l166 -215l166 215q31 37 46.5 88t15.5 78v129h221v-129q0 -53 -25.5 -141.5t-83.5 -159.5l-203 -262l238 -310q64 -104 80 -178z" />
    <glyph glyph-name="uni04B3" unicode="&#x4b3;" 
d="M1036 221h129v-577h-221v356h-115v125q0 27 -12 50.5t-23.5 35.5t-13.5 12l-172 137l-172 -135q-49 -49 -49 -100v-125h-221v125q0 74 32.5 141.5t58.5 94t42 36.5l154 123l-113 88q-68 53 -106.5 131t-44 114t-5.5 62v129h222v-126q0 -10 3 -28t21.5 -51.5t48.5 -58.5
l127 -100l131 102q74 59 74 133v129h221v-129q0 -82 -45 -166.5t-115 -140.5l-112 -88l158 -123q10 -6 28.5 -24.5t47 -61.5t42.5 -90z" />
    <glyph glyph-name="uni04B6" unicode="&#x4b6;" 
d="M1010 221h114v-577h-221v356h-115v559q-96 -74 -221 -74h-18q-162 0 -274.5 113t-112.5 274v529h221v-529q0 -70 48 -117.5t118 -47.5h74q68 0 116.5 48t48.5 117v529h222v-1180z" />
    <glyph glyph-name="uni04B7" unicode="&#x4b7;" 
d="M1014 221h114v-577h-221v356h-114v393q-96 -74 -222 -74h-18q-162 0 -274.5 113t-112.5 275v337h221v-337q0 -70 48 -118t118 -48h74q68 0 117 48t49 118v337h221v-823z" />
    <glyph glyph-name="uni04BA" unicode="&#x4ba;" 
d="M668 915q162 0 274.5 -112.5t112.5 -274.5v-528h-221v528q0 70 -48.5 118t-117.5 48h-74q-68 0 -117 -48t-49 -118v-528h-221v1401h221v-559q96 74 221 73h19z" />
    <glyph glyph-name="uni04BB" unicode="&#x4bb;" 
d="M651 1063q162 0 274.5 -112.5t112.5 -274.5v-676h-221v676q0 70 -48 118t-118 48h-73q-68 0 -117 -48.5t-49 -117.5v-676h-222v1401h222v-412q96 74 221 74h18z" />
    <glyph glyph-name="uni04C0" unicode="&#x4c0;" 
d="M184 221h314v959h-295v221h811v-221h-295v-959h313v-221h-848v221z" />
    <glyph glyph-name="uni04C1" unicode="&#x4c1;" 
d="M608 1530q-121 0 -205 85t-84 204h222q0 -29 20.5 -48.5t47 -19.5t47 19.5t20.5 48.5h221q0 -119 -84 -204t-205 -85zM1053 446q74 -156 73 -313v-133h-221v133q0 106 -51 217l-117 238h-18v-588h-221v588h-19l-112 -238q-55 -111 -56 -217v-133h-221v133q0 158 76 313
l127 261l-119 249q-76 156 -76 314v131h221v-131q0 -109 54 -217l106 -226h19v574h221v-574h18l109 226q51 106 51 217v131h221v-131q0 -158 -71 -314l-121 -249z" />
    <glyph glyph-name="uni04C2" unicode="&#x4c2;" 
d="M319 1462h222q0 -29 20.5 -48t47 -19t47 19.5t20.5 47.5h221q0 -119 -84 -203.5t-205 -84.5t-205 84.5t-84 203.5zM90 0v125q0 156 100 281l93 112l-66 80q-121 143 -121 315v131h221v-131q0 -92 68 -174l92 -110h21v415h221v-415h20l92 110q68 82 68 174v131h221v-131
q0 -172 -121 -315l-65 -80l92 -112q100 -125 100 -281v-125h-221v125q0 20 -5 42.5t-12 39t-14.5 30t-13.5 21.5l-4 8l-117 142h-20v-408h-221v408h-21l-117 -142l-4 -8q-4 -6 -9 -14t-12 -22.5t-12.5 -29t-8.5 -32t-3 -35.5v-125h-221z" />
    <glyph glyph-name="uni04CB" unicode="&#x4cb;" 
d="M1010 221h114v-577h-221v356h-115v559q-96 -74 -221 -74h-18q-162 0 -274.5 113t-112.5 274v529h221v-529q0 -70 48 -117.5t118 -47.5h74q68 0 116.5 48t48.5 117v529h222v-1180z" />
    <glyph glyph-name="uni04CC" unicode="&#x4cc;" 
d="M1014 221h114v-577h-221v356h-114v393q-96 -74 -222 -74h-18q-162 0 -274.5 113t-112.5 275v337h221v-337q0 -70 48 -118t118 -48h74q68 0 117 48t49 118v337h221v-823z" />
    <glyph glyph-name="uni04CF" unicode="&#x4cf;" 
d="M184 221h314v959h-295v221h811v-221h-295v-959h313v-221h-848v221z" />
    <glyph glyph-name="uni04D0" unicode="&#x4d0;" 
d="M608 1530q-121 0 -205 85t-84 204h222q0 -29 20.5 -48.5t47 -19.5t47 19.5t20.5 48.5h221q0 -119 -84 -204t-205 -85zM1036 584l4 -19q4 -20 10.5 -51t13.5 -69.5t11 -87t4 -93.5v-264h-221v283v20h-498v-20v-283h-221v264q0 45 4 93.5t10.5 87t12.5 69.5t10 51l4 19
l182 651q23 80 91.5 132t154.5 52t154.5 -51t93.5 -133zM395 524h426q0 2 -1 5t-1 6l-174 636q-10 27 -37 27q-31 0 -37 -27l-174 -636q0 -2 -1 -5.5t-1 -5.5z" />
    <glyph glyph-name="uni04D1" unicode="&#x4d1;" 
d="M608 1174q-121 0 -205 84.5t-84 203.5h222q0 -29 20.5 -48t47 -19t47 19.5t20.5 47.5h221q0 -119 -84 -203.5t-205 -84.5zM801 1044h221v-1044h-221v55q-100 -74 -221 -73h-19q-162 0 -274.5 113.5t-112.5 273.5v307q0 162 112.5 274.5t274.5 112.5h19q125 0 221 -74v55z
M635 203q68 0 117 49t49 117v307q0 70 -49.5 118t-116.5 48h-74q-70 0 -118 -48.5t-48 -117.5v-307q0 -68 48.5 -117t117.5 -49h74z" />
    <glyph glyph-name="uni04D2" unicode="&#x4d2;" 
d="M522 1874v-338h-221v338h221zM915 1874v-338h-221v338h221zM1036 584l4 -19q4 -20 10.5 -51t13.5 -69.5t11 -87t4 -93.5v-264h-221v283v20h-498v-20v-283h-221v264q0 45 4 93.5t10.5 87t12.5 69.5t10 51l4 19l182 651q23 80 91.5 132t154.5 52t154.5 -51t93.5 -133z
M395 524h426q0 2 -1 5t-1 6l-174 636q-10 27 -37 27q-31 0 -37 -27l-174 -636q0 -2 -1 -5.5t-1 -5.5z" />
    <glyph glyph-name="uni04D3" unicode="&#x4d3;" 
d="M522 1518v-338h-221v338h221zM915 1518v-338h-221v338h221zM801 1044h221v-1044h-221v55q-100 -74 -221 -73h-19q-162 0 -274.5 113.5t-112.5 273.5v307q0 162 112.5 274.5t274.5 112.5h19q125 0 221 -74v55zM635 203q68 0 117 49t49 117v307q0 70 -49.5 118t-116.5 48
h-74q-70 0 -118 -48.5t-48 -117.5v-307q0 -68 48.5 -117t117.5 -49h74z" />
    <glyph glyph-name="uni04D4" unicode="&#x4d4;" 
d="M1081 1180h-272v-369h211v-221h-211v-369h272v-221h-493v301h-252v-18v-283h-221v264q0 72 10 152t18.5 118.5t12.5 49.5l182 651q23 80 91.5 132t154.5 52q51 0 94 -18h403v-221zM369 522h219v676h-4q-29 0 -37 -27l-174 -636q0 -2 -2 -6.5t-2 -6.5z" />
    <glyph glyph-name="uni04D5" unicode="&#x4d5;" 
d="M1147 416h-424v-111q0 -43 29.5 -72.5t72.5 -29.5q35 0 62.5 22.5t36.5 57.5l211 -64q-29 -104 -114 -170.5t-196 -66.5q-55 0 -102 30v-26h-221v24q-45 -29 -101 -28q-135 0 -229 95t-94 228v436q0 133 94 227.5t229 94.5q55 0 101 -29v25h221v-25q45 29 102 29
q133 0 227.5 -94.5t94.5 -227.5v-325zM401 203q41 0 71 29.5t30 72.5v436q0 41 -30 71t-71 30q-43 0 -72.5 -30t-29.5 -71v-436q0 -43 29.5 -72.5t72.5 -29.5zM825 842q-43 0 -72.5 -30t-29.5 -71v-131h203v131q0 41 -30 71t-71 30z" />
    <glyph glyph-name="uni04D6" unicode="&#x4d6;" 
d="M350 1819h221q0 -29 19.5 -48.5t48.5 -19.5t48.5 19.5t19.5 48.5h221q0 -119 -85 -204t-204 -85t-204 85t-85 204zM215 0v1401h848v-221h-627v-369h565v-221h-565v-369h627v-221h-848z" />
    <glyph glyph-name="uni04D7" unicode="&#x4d7;" 
d="M326 1462h221q0 -29 19.5 -48t48 -19t48 19.5t19.5 47.5h221q0 -119 -85 -203.5t-203.5 -84.5t-203.5 84.5t-85 203.5zM578 1063h73q160 0 273.5 -113.5t113.5 -273.5v-236h-626v-71q0 -70 48 -118t118 -48h84q57 0 102 36.5t57 92.5l213 -64q-33 -125 -136 -205.5
t-236 -80.5h-84q-160 0 -274 113.5t-114 273.5v307q0 160 114 273.5t274 113.5zM412 633h405v43q0 70 -48 118t-118 48h-73q-70 0 -118 -48.5t-48 -117.5v-43z" />
    <glyph glyph-name="uni04D8" unicode="&#x4d8;" 
d="M178 1128q31 125 136.5 208t238.5 83h102q160 0 273.5 -112.5t113.5 -272.5v-665q0 -160 -112.5 -273.5t-274.5 -113.5h-98q-160 0 -273.5 113.5t-113.5 273.5v442h651v221q0 70 -48 118t-118 48h-102q-59 0 -105.5 -38t-56.5 -95zM391 590v-221q0 -70 48 -118t118 -48
h98q70 0 118 48t48 118v221h-430z" />
    <glyph glyph-name="afii10846" unicode="&#x4d9;" 
d="M639 -18h-74q-160 0 -273.5 113.5t-113.5 273.5v235h627v72q0 70 -48 118t-118 48h-84q-57 0 -102 -37t-58 -92l-213 63q33 125 136.5 206t236.5 81h84q160 0 273.5 -113.5t113.5 -273.5v-307q0 -160 -113.5 -273.5t-273.5 -113.5zM805 412h-406v-43q0 -70 48.5 -118
t117.5 -48h74q70 0 118 48t48 118v43z" />
    <glyph glyph-name="uni04DA" unicode="&#x4da;" 
d="M301 1536v338h221v-338h-221zM694 1536v338h221v-338h-221zM178 1128q31 125 136.5 208t238.5 83h102q160 0 273.5 -112.5t113.5 -272.5v-665q0 -160 -112.5 -273.5t-274.5 -113.5h-98q-160 0 -273.5 113.5t-113.5 273.5v442h651v221q0 70 -48 118t-118 48h-102
q-59 0 -105.5 -38t-56.5 -95zM391 590v-221q0 -70 48 -118t118 -48h98q70 0 118 48t48 118v221h-430z" />
    <glyph glyph-name="uni04DB" unicode="&#x4db;" 
d="M291 1180v338h221v-338h-221zM684 1180v338h221v-338h-221zM639 -18h-74q-160 0 -273.5 113.5t-113.5 273.5v235h627v72q0 70 -48 118t-118 48h-84q-57 0 -102 -37t-58 -92l-213 63q33 125 136.5 206t236.5 81h84q160 0 273.5 -113.5t113.5 -273.5v-307
q0 -160 -113.5 -273.5t-273.5 -113.5zM805 412h-406v-43q0 -70 48.5 -118t117.5 -48h74q70 0 118 48t48 118v43z" />
    <glyph glyph-name="uni04DC" unicode="&#x4dc;" 
d="M522 1874v-338h-221v338h221zM915 1874v-338h-221v338h221zM1053 446q74 -156 73 -313v-133h-221v133q0 106 -51 217l-117 238h-18v-588h-221v588h-19l-112 -238q-55 -111 -56 -217v-133h-221v133q0 158 76 313l127 261l-119 249q-76 156 -76 314v131h221v-131
q0 -109 54 -217l106 -226h19v574h221v-574h18l109 226q51 106 51 217v131h221v-131q0 -158 -71 -314l-121 -249z" />
    <glyph glyph-name="uni04DD" unicode="&#x4dd;" 
d="M301 1180v338h221v-338h-221zM694 1180v338h221v-338h-221zM90 0v125q0 156 100 281l93 112l-66 80q-121 143 -121 315v131h221v-131q0 -92 68 -174l92 -110h21v415h221v-415h20l92 110q68 82 68 174v131h221v-131q0 -172 -121 -315l-65 -80l92 -112q100 -125 100 -281
v-125h-221v125q0 20 -5 42.5t-12 39t-14.5 30t-13.5 21.5l-4 8l-117 142h-20v-408h-221v408h-21l-117 -142l-4 -8q-4 -6 -9 -14t-12 -22.5t-12.5 -29t-8.5 -32t-3 -35.5v-125h-221z" />
    <glyph glyph-name="uni04DE" unicode="&#x4de;" 
d="M479 1874v-338h-221v338h221zM872 1874v-338h-221v338h221zM838 717q72 -45 115.5 -119t43.5 -162v-67q0 -160 -113.5 -273.5t-273.5 -113.5h-102q-135 0 -239.5 81.5t-137.5 210.5l213 62q10 -57 56 -95t108 -38h102q68 0 117 48t49 118v67q0 68 -49 117t-117 49h-209
v221h197q68 0 117 48.5t49 117.5v43q0 68 -49 117t-117 49h-90q-61 0 -107.5 -38t-56.5 -95l-213 61q33 127 137.5 210t239.5 83h90q160 0 273.5 -112.5t113.5 -274.5v-43q0 -176 -147 -272z" />
    <glyph glyph-name="uni04DF" unicode="&#x4df;" 
d="M522 1518v-338h-221v338h221zM915 1518v-338h-221v338h221zM905 530q113 -80 113 -221q0 -135 -95.5 -231t-232.5 -96h-198q-113 0 -200 67.5t-116 171.5l211 66q10 -37 39 -60.5t66 -23.5h198q45 0 76 30.5t31 75.5q0 43 -31 75t-76 32h-221v221h213q43 0 72.5 29.5
t29.5 72.5q0 41 -29.5 72t-72.5 31h-197q-35 0 -61.5 -20.5t-36.5 -53.5l-211 63q29 100 115 166t194 66h197q135 0 229.5 -95.5t94.5 -228.5q-1 -129 -101 -209z" />
    <glyph glyph-name="uni04E0" unicode="&#x4e0;" 
d="M174 274l211 62q12 -57 58 -95t106 -38h78q70 0 118 48t48 118v116q0 70 -48.5 118t-117.5 48h-197v221l275 308h-508v221h794v-221l-268 -301l-14 -17q131 -27 218 -132t87 -245v-116q0 -160 -113 -273.5t-274 -113.5h-78q-135 0 -238.5 82.5t-136.5 209.5z" />
    <glyph glyph-name="uni04E1" unicode="&#x4e1;" 
d="M174 -82l211 62q12 -57 58 -95.5t106 -38.5h78q70 0 118 48.5t48 117.5v117q0 70 -48.5 118t-117.5 48h-197v221l275 307h-508v221h794v-221l-268 -301l-14 -16q131 -27 218 -132.5t87 -244.5v-117q0 -160 -113 -273.5t-274 -113.5h-78q-135 0 -238.5 83t-136.5 210z" />
    <glyph glyph-name="uni04E2" unicode="&#x4e2;" 
d="M301 1548v221h614v-221h-614zM1069 1401v-1401h-221v999l-424 -999h-277v1401h222v-1000l424 1000h276z" />
    <glyph glyph-name="uni04E3" unicode="&#x4e3;" 
d="M301 1192v221h614v-221h-614zM147 0v1044h222v-727l428 727h272v-1044h-221v729l-428 -729h-273z" />
    <glyph glyph-name="uni04E4" unicode="&#x4e4;" 
d="M301 1536v338h221v-338h-221zM694 1536v338h221v-338h-221zM1069 1401v-1401h-221v999l-424 -999h-277v1401h222v-1000l424 1000h276z" />
    <glyph glyph-name="uni04E5" unicode="&#x4e5;" 
d="M301 1180v338h221v-338h-221zM694 1180v338h221v-338h-221zM147 0v1044h222v-727l428 727h272v-1044h-221v729l-428 -729h-273z" />
    <glyph glyph-name="uni04E6" unicode="&#x4e6;" 
d="M301 1536v338h221v-338h-221zM694 1536v338h221v-338h-221zM559 -18q-160 0 -273.5 113.5t-113.5 273.5v663q0 160 113.5 273.5t273.5 113.5h98q160 0 273.5 -113.5t113.5 -273.5v-663q0 -160 -113.5 -273.5t-273.5 -113.5h-98zM559 203h98q70 0 118 48t48 118v663
q0 70 -48 118t-118 48h-98q-70 0 -118 -48t-48 -118v-663q0 -70 48 -118t118 -48z" />
    <glyph glyph-name="uni04E7" unicode="&#x4e7;" 
d="M301 1180v338h221v-338h-221zM694 1180v338h221v-338h-221zM571 1063h74q160 0 273.5 -113.5t113.5 -273.5v-307q0 -160 -113.5 -273.5t-273.5 -113.5h-74q-160 0 -273.5 113.5t-113.5 273.5v307q0 160 113.5 273.5t273.5 113.5zM571 842q-68 0 -116.5 -48.5
t-48.5 -117.5v-307q0 -70 49 -118t116 -48h74q70 0 118 48t48 118v307q0 70 -48 118t-118 48h-74z" />
    <glyph glyph-name="uni04E8" unicode="&#x4e8;" 
d="M657 1419q160 0 273.5 -113.5t113.5 -273.5v-663q0 -160 -113.5 -273.5t-273.5 -113.5h-98q-160 0 -273.5 113.5t-113.5 273.5v663q0 160 113.5 273.5t273.5 113.5h98zM559 1198q-70 0 -118 -48t-48 -118v-221h430v221q0 70 -48 118t-118 48h-98zM657 203q70 0 118 48
t48 118v221h-430v-221q0 -70 48 -118t118 -48h98z" />
    <glyph glyph-name="uni04E9" unicode="&#x4e9;" 
d="M645 1063q160 0 273.5 -113.5t113.5 -273.5v-307q0 -160 -113.5 -273.5t-273.5 -113.5h-74q-160 0 -273.5 113.5t-113.5 273.5v307q0 160 114 273.5t273 113.5h74zM571 842q-68 0 -116.5 -48.5t-48.5 -117.5v-43h405v43q0 70 -48 118t-118 48h-74zM645 203q70 0 118 48
t48 118v43h-405v-43q0 -70 49 -118t116 -48h74z" />
    <glyph glyph-name="uni04EA" unicode="&#x4ea;" 
d="M522 1874v-338h-221v338h221zM915 1874v-338h-221v338h221zM657 1419q160 0 273.5 -113.5t113.5 -273.5v-663q0 -160 -113.5 -273.5t-273.5 -113.5h-98q-160 0 -273.5 113.5t-113.5 273.5v663q0 160 113.5 273.5t273.5 113.5h98zM559 1198q-70 0 -118 -48t-48 -118v-221
h430v221q0 70 -48 118t-118 48h-98zM657 203q70 0 118 48t48 118v221h-430v-221q0 -70 48 -118t118 -48h98z" />
    <glyph glyph-name="uni04EB" unicode="&#x4eb;" 
d="M522 1518v-338h-221v338h221zM915 1518v-338h-221v338h221zM645 1063q160 0 273.5 -113.5t113.5 -273.5v-307q0 -160 -113.5 -273.5t-273.5 -113.5h-74q-160 0 -273.5 113.5t-113.5 273.5v307q0 160 114 273.5t273 113.5h74zM571 842q-68 0 -116.5 -48.5t-48.5 -117.5
v-43h405v43q0 70 -48 118t-118 48h-74zM645 203q70 0 118 48t48 118v43h-405v-43q0 -70 49 -118t116 -48h74z" />
    <glyph glyph-name="uni04EC" unicode="&#x4ec;" 
d="M508 1874v-338h-221v338h221zM901 1874v-338h-221v338h221zM643 1419q162 0 274.5 -113.5t112.5 -273.5v-663q0 -160 -112.5 -273.5t-274.5 -113.5h-98q-133 0 -237.5 82.5t-137.5 209.5l213 62q10 -55 56 -94t106 -39h98q70 0 118 48t48 118v221h-399v221h399v221
q0 68 -48 117t-118 49h-98q-59 0 -105.5 -38t-56.5 -95l-213 61q33 127 137.5 210t237.5 83h98z" />
    <glyph glyph-name="uni04ED" unicode="&#x4ed;" 
d="M500 1518v-338h-221v338h221zM893 1518v-338h-221v338h221zM627 1063q160 0 273.5 -113.5t113.5 -273.5v-307q0 -160 -114 -273.5t-273 -113.5h-78q-135 0 -239.5 82.5t-135.5 209.5l211 62q12 -55 58 -94t106 -39h78q70 0 118 49t48 117v49h-353v221h353v37
q0 70 -48.5 118t-117.5 48h-78q-59 0 -105.5 -38t-58.5 -93l-211 61q31 127 135.5 209t239.5 82h78z" />
    <glyph glyph-name="uni04EE" unicode="&#x4ee;" 
d="M301 1548v221h614v-221h-614zM174 0v221h184q55 0 88 62l43 92l-262 588q-70 154 -69 309v129h221v-129q0 -106 49 -219l180 -404l180 404q51 113 52 219v129h221v-129q0 -152 -72 -309l-336 -762q-96 -201 -295 -201h-184z" />
    <glyph glyph-name="uni04EF" unicode="&#x4ef;" 
d="M301 1192v221h614v-221h-614zM152 1044h221v-131q0 -98 53 -196l186 -340l189 340q51 92 51 196v131h221v-131q0 -162 -80 -305l-440 -798q-43 -74 -119 -120t-166 -46h-174v221h174q51 0 92 55l125 230l-254 458q-80 143 -79 305v131z" />
    <glyph glyph-name="uni04F0" unicode="&#x4f0;" 
d="M301 1536v338h221v-338h-221zM694 1536v338h221v-338h-221zM174 0v221h184q55 0 88 62l43 92l-262 588q-70 154 -69 309v129h221v-129q0 -106 49 -219l180 -404l180 404q51 113 52 219v129h221v-129q0 -152 -72 -309l-336 -762q-96 -201 -295 -201h-184z" />
    <glyph glyph-name="uni04F1" unicode="&#x4f1;" 
d="M301 1180v338h221v-338h-221zM694 1180v338h221v-338h-221zM152 1044h221v-131q0 -98 53 -196l186 -340l189 340q51 92 51 196v131h221v-131q0 -162 -80 -305l-440 -798q-43 -74 -119 -120t-166 -46h-174v221h174q51 0 92 55l125 230l-254 458q-80 143 -79 305v131z" />
    <glyph glyph-name="uni04F2" unicode="&#x4f2;" 
d="M424 1511l-158 158l316 316l157 -158zM879 1511l-158 158l315 316l158 -158zM174 0v221h184q55 0 88 62l43 92l-262 588q-70 154 -69 309v129h221v-129q0 -106 49 -219l180 -404l180 404q51 113 52 219v129h221v-129q0 -152 -72 -309l-336 -762q-96 -201 -295 -201h-184z
" />
    <glyph glyph-name="uni04F3" unicode="&#x4f3;" 
d="M424 1155l-158 158l316 315l157 -158zM879 1155l-158 158l315 315l158 -158zM152 1044h221v-131q0 -98 53 -196l186 -340l189 340q51 92 51 196v131h221v-131q0 -162 -80 -305l-440 -798q-43 -74 -119 -120t-166 -46h-174v221h174q51 0 92 55l125 230l-254 458
q-80 143 -79 305v131z" />
    <glyph glyph-name="uni04F4" unicode="&#x4f4;" 
d="M522 1874v-338h-221v338h221zM915 1874v-338h-221v338h221zM1010 1401v-1401h-222v559q-96 -74 -221 -74h-18q-162 0 -274.5 113t-112.5 274v529h221v-529q0 -70 48 -117.5t118 -47.5h74q68 0 116.5 48t48.5 117v529h222z" />
    <glyph glyph-name="uni04F5" unicode="&#x4f5;" 
d="M522 1518v-338h-221v338h221zM915 1518v-338h-221v338h221zM1014 1044v-1044h-221v393q-96 -74 -222 -74h-18q-162 0 -274.5 113t-112.5 275v337h221v-337q0 -70 48 -118t118 -48h74q68 0 117 48t49 118v337h221z" />
    <glyph glyph-name="uni04F6" unicode="&#x4f6;" 
d="M1063 1180h-608v-959h114v-577h-221v356h-115v1401h830v-221z" />
    <glyph glyph-name="uni04F7" unicode="&#x4f7;" 
d="M1051 823h-596v-602h114v-577h-221v356h-115v1044h818v-221z" />
    <glyph glyph-name="uni04F8" unicode="&#x4f8;" 
d="M301 1536v338h221v-338h-221zM694 1536v338h221v-338h-221zM131 1401h221v-502h21q160 0 273.5 -113.5t113.5 -273.5v-125q0 -160 -114 -273.5t-273 -113.5h-242v1401zM866 1401h221v-1401h-221v1401zM352 678v-457h21q70 0 118 48t48 118v125q0 70 -48.5 118t-117.5 48
h-21z" />
    <glyph glyph-name="uni04F9" unicode="&#x4f9;" 
d="M301 1180v338h221v-338h-221zM694 1180v338h221v-338h-221zM127 0v1044h221v-376h80q137 0 235.5 -98.5t98.5 -235.5t-98.5 -235.5t-235.5 -98.5h-301zM870 0v1044h222v-1044h-222zM348 221h80q47 0 80 33t33 80t-33 79.5t-80 32.5h-80v-225z" />
    <glyph glyph-name="uni0510" unicode="&#x510;" 
d="M709 203q61 0 107 38t56 95l213 -62q-33 -129 -137 -210.5t-239 -81.5h-103q-160 0 -273.5 113.5t-113.5 273.5v67q0 88 44 162t116 119q-147 96 -148 272v43q0 162 114 274.5t273 112.5h91q135 0 239.5 -83t136.5 -210l-213 -61q-10 57 -56 95t-107 38h-91
q-68 0 -116.5 -49t-48.5 -117v-43q0 -70 49 -118t116 -48h197v-221h-209q-68 0 -117 -49t-49 -117v-67q0 -70 49.5 -118t116.5 -48h103z" />
    <glyph glyph-name="uni0511" unicode="&#x511;" 
d="M725 203q37 0 65.5 23.5t38.5 60.5l211 -66q-29 -104 -115.5 -171.5t-199.5 -67.5h-199q-137 0 -232 96t-95 231q0 141 112 221q-100 80 -100 209q0 133 94 228.5t230 95.5h196q109 0 195 -65.5t114 -166.5l-211 -63q-10 33 -36.5 53.5t-61.5 20.5h-196q-43 0 -73 -31
t-30 -72q0 -43 30 -72.5t73 -29.5h213v-221h-222q-45 0 -75.5 -32t-30.5 -75q0 -45 30.5 -75.5t75.5 -30.5h199z" />
    <glyph glyph-name="uni051C" unicode="&#x51c;" 
d="M104 1401h222v-275q0 -129 20 -249l74 -490l88 502h203l86 -500l75 488q20 135 21 251v273h221v-275q0 -145 -22 -286l-138 -840h-231l-115 575l-112 -575h-232l-139 840q-20 141 -21 286v275z" />
    <glyph glyph-name="uni051D" unicode="&#x51d;" 
d="M102 913v131h222v-131q0 -113 26 -239l64 -322l104 514h180l105 -514l63 322q29 125 29 239v131h221v-131q0 -145 -33 -288l-139 -625h-221l-115 563l-114 -563h-222l-139 625q-31 143 -31 288z" />
    <glyph glyph-name="uni0524" unicode="&#x524;" 
d="M1032 221h115v-577h-221v356h-115v1180h-405v-1180h-222v1401h848v-1180z" />
    <glyph glyph-name="uni0525" unicode="&#x525;" 
d="M1032 221h115v-577h-221v356h-115v823h-405v-823h-222v1044h848v-823z" />
    <glyph glyph-name="uni0526" unicode="&#x526;" 
d="M1055 221h114v-577h-221v356h-114v528q0 70 -48.5 118t-117.5 48h-74q-68 0 -117 -48t-49 -118v-528h-221v1401h221v-559q96 74 221 73h19q162 0 274.5 -112.5t112.5 -274.5v-307z" />
    <glyph glyph-name="uni0527" unicode="&#x527;" 
d="M1038 221h115v-577h-221v356h-115v676q0 70 -48 118t-118 48h-73q-68 0 -117 -48.5t-49 -117.5v-676h-222v1401h222v-412q96 74 221 74h18q162 0 274.5 -112.5t112.5 -274.5v-455z" />
    <glyph glyph-name="uni0E3F" unicode="&#xe3f;" 
d="M909 717q74 -43 117 -118t43 -163v-49q0 -147 -99.5 -258t-244.5 -127v-180h-221v178h-295v1401h295v178h221v-182q141 -20 236.5 -129t95.5 -254v-25q-1 -176 -148 -272zM670 1180h-240v-357h240q70 0 118 48.5t48 117.5v25q0 70 -48 118t-118 48zM848 387v49
q0 70 -48 118t-118 48h-252v-381h252q70 0 118 48t48 118z" />
    <glyph glyph-name="uni1D6B" unicode="&#x1d6b;" horiz-adv-x="1228" 
d="M1163 416h-424v-111q0 -41 31 -71.5t72 -30.5q37 0 63.5 22.5t34.5 57.5l213 -62q-29 -104 -115 -171.5t-196 -67.5q-127 0 -213 102q-82 -102 -211 -102q-133 0 -228.5 95t-95.5 228v739h221v-739q0 -41 31 -71.5t72 -30.5q43 0 71.5 29.5t28.5 72.5v739h221v-10
q47 29 103 29q133 0 227 -94.5t94 -227.5v-325zM842 842q-43 0 -73 -29t-30 -72v-131h203v131q0 43 -28.5 72t-71.5 29z" />
    <glyph glyph-name="uni1E04" unicode="&#x1e04;" 
d="M909 717q74 -43 117 -118t43 -163v-49q0 -160 -113.5 -273.5t-273.5 -113.5h-473v1401h461q160 0 273.5 -112.5t113.5 -274.5v-25q-1 -176 -148 -272zM670 1180h-240v-357h240q70 0 118 48.5t48 117.5v25q0 70 -48 118t-118 48zM848 387v49q0 70 -48 118t-118 48h-252
v-381h252q70 0 118 48t48 118zM492 -473v338h221v-338h-221z" />
    <glyph glyph-name="uni1E05" unicode="&#x1e05;" 
d="M657 1063q162 0 274.5 -112.5t112.5 -274.5v-307q0 -160 -112.5 -273.5t-274.5 -113.5h-18q-121 0 -221 73v-55h-221v1401h221v-412q96 74 221 74h18zM823 369v307q0 70 -48 118t-118 48h-73q-68 0 -117 -48.5t-49 -117.5v-307q0 -68 49 -117t117 -49h73q70 0 118 49
t48 117zM508 -473v338h221v-338h-221z" />
    <glyph glyph-name="uni1E0C" unicode="&#x1e0c;" 
d="M197 0v1401h460q160 0 273.5 -113.5t113.5 -273.5v-627q0 -160 -113.5 -273.5t-273.5 -113.5h-460zM418 221h239q70 0 118 48t48 118v627q0 70 -48 118t-118 48h-239v-959zM494 -473v338h221v-338h-221z" />
    <glyph glyph-name="uni1E0D" unicode="&#x1e0d;" 
d="M799 1401h221v-1401h-221v55q-100 -74 -221 -73h-19q-162 0 -274.5 113.5t-112.5 273.5v307q0 162 112.5 274.5t274.5 112.5h19q125 0 221 -74v412zM633 203q68 0 117 49t49 117v307q0 70 -49.5 118t-116.5 48h-74q-70 0 -118 -48.5t-48 -117.5v-307q0 -68 48 -117
t118 -49h74zM485 -473v338h222v-338h-222z" />
    <glyph glyph-name="uni1E0E" unicode="&#x1e0e;" 
d="M197 0v1401h460q160 0 273.5 -113.5t113.5 -273.5v-627q0 -160 -113.5 -273.5t-273.5 -113.5h-460zM418 221h239q70 0 118 48t48 118v627q0 70 -48 118t-118 48h-239v-959zM297 -369v222h614v-222h-614z" />
    <glyph glyph-name="uni1E0F" unicode="&#x1e0f;" 
d="M799 1401h221v-1401h-221v55q-100 -74 -221 -73h-19q-162 0 -274.5 113.5t-112.5 273.5v307q0 162 112.5 274.5t274.5 112.5h19q125 0 221 -74v412zM633 203q68 0 117 49t49 117v307q0 70 -49.5 118t-116.5 48h-74q-70 0 -118 -48.5t-48 -117.5v-307q0 -68 48 -117
t118 -49h74zM289 -369v222h614v-222h-614z" />
    <glyph glyph-name="uni1E12" unicode="&#x1e12;" 
d="M197 0v1401h460q160 0 273.5 -113.5t113.5 -273.5v-627q0 -160 -113.5 -273.5t-273.5 -113.5h-460zM418 221h239q70 0 118 48t48 118v627q0 70 -48 118t-118 48h-239v-959zM254 -362l258 258h184l258 -258l-155 -158l-195 194l-192 -194z" />
    <glyph glyph-name="uni1E13" unicode="&#x1e13;" 
d="M799 1401h221v-1401h-221v55q-100 -74 -221 -73h-19q-162 0 -274.5 113.5t-112.5 273.5v307q0 162 112.5 274.5t274.5 112.5h19q125 0 221 -74v412zM633 203q68 0 117 49t49 117v307q0 70 -49.5 118t-116.5 48h-74q-70 0 -118 -48.5t-48 -117.5v-307q0 -68 48 -117
t118 -49h74zM504 -104h184l258 -258l-155 -158l-195 194l-193 -194l-157 158z" />
    <glyph glyph-name="uni1E24" unicode="&#x1e24;" 
d="M811 1401h221v-1401h-221v590h-405v-590h-222v1401h222v-590h405v590zM498 -473v338h221v-338h-221z" />
    <glyph glyph-name="uni1E25" unicode="&#x1e25;" 
d="M651 1063q162 0 274.5 -112.5t112.5 -274.5v-676h-221v676q0 70 -48 118t-118 48h-73q-68 0 -117 -48.5t-49 -117.5v-676h-222v1401h222v-412q96 74 221 74h18zM498 -473v338h221v-338h-221z" />
    <glyph glyph-name="uni1E2E" unicode="&#x1e2e;" 
d="M604 1909l-158 157l316 316l158 -158zM301 1536v338h221v-338h-221zM694 1536v338h221v-338h-221zM184 221h314v959h-295v221h811v-221h-295v-959h313v-221h-848v221z" />
    <glyph glyph-name="uni1E2F" unicode="&#x1e2f;" 
d="M647 1552l-158 158l316 315l158 -157zM344 1180v338h221v-338h-221zM737 1180v338h221v-338h-221zM264 1044h498v-823h319v-221h-884v221h344v602h-277v221z" />
    <glyph glyph-name="uni1E36" unicode="&#x1e36;" 
d="M233 1401h222v-1180h608v-221h-830v1401zM539 -473v338h221v-338h-221z" />
    <glyph glyph-name="uni1E37" unicode="&#x1e37;" 
d="M1178 266q-33 -125 -135.5 -204.5t-235.5 -79.5q-158 0 -271.5 113.5t-113.5 271.5v813h-307v221h528v-1034q0 -68 48 -116t116 -48q57 0 103 36.5t59 92.5zM696 -473v338h222v-338h-222z" />
    </font>
</defs>
</svg>
