<?xml version="1.0" encoding="utf-8"?>
<svg version="1.1" xmlns="http://www.w3.org/2000/svg" xmlns:xlink="http://www.w3.org/1999/xlink" height="30" width="30.020000000000437">
  <defs>
    <path id="path-1" opacity="1" fill-rule="evenodd" d="M28.34,0 L1.66,0 C0.74,0 0,0.7400000000000001 0,1.66 L0,28.35 C0,29.26 0.74,30 1.66,30 L16.04,30 L16.04,18.4 L12.129999999999999,18.4 L12.129999999999999,13.86 L16.04,13.86 L16.04,10.52 C16.04,6.6499999999999995 18.41,4.539999999999999 21.86,4.539999999999999 C23.02,4.539999999999999 24.189999999999998,4.599999999999999 25.35,4.719999999999999 L25.35,8.77 L22.970000000000002,8.77 C21.090000000000003,8.77 20.720000000000002,9.66 20.720000000000002,10.969999999999999 L20.720000000000002,13.86 L25.220000000000002,13.86 L24.640000000000004,18.4 L20.7,18.4 L20.7,30 L28.36,30 C29.27,30 30.02,29.26 30.02,28.34 L30.02,1.66 C30,0.7400000000000001 29.26,0 28.34,0Z"/>
  </defs>
  <g opacity="1">
    <use xlink:href="#path-1" fill="rgb(152,176,205)" fill-opacity="1"/>
  </g>
</svg>