<?xml version="1.0" encoding="utf-8"?>
<svg version="1.1" xmlns="http://www.w3.org/2000/svg" xmlns:xlink="http://www.w3.org/1999/xlink" height="30" width="35.44999999999982">
  <defs>
    <rect id="rect-1" opacity="1" x="0" y="0" width="35.449951171875" height="30"/>
    <path id="path-2" opacity="1" fill-rule="evenodd" d="M33.1400146484375,4.6400146484375 C33.1400146484375,5.8800048828125 32.93994140625,7.07000732421875 32.56005859375,8.219970703125 C34.489990234375,10.5 35.449951171875,13.32000732421875 35.449951171875,16.71002197265625 C35.449951171875,19.6500244140625 35.02001953125,22 34.1500244140625,23.760009765625 C33.6099853515625,24.8499755859375 32.8599853515625,25.78997802734375 31.9000244140625,26.59002685546875 C30.949951171875,27.3800048828125 29.93994140625,27.989990234375 28.9000244140625,28.41998291015625 C27.8599853515625,28.84002685546875 26.6500244140625,29.17999267578125 25.280029296875,29.42999267578125 C23.9100341796875,29.67999267578125 22.699951171875,29.84002685546875 21.6300048828125,29.9000244140625 C20.56005859375,29.969970703125 19.3800048828125,30 18.0699462890625,30 C16.9599609375,30 15.949951171875,29.97998046875 15.0400390625,29.94000244140625 C14.1300048828125,29.8900146484375 13.0899658203125,29.80999755859375 11.9000244140625,29.66998291015625 C10.7099609375,29.530029296875 9.6300048828125,29.32000732421875 8.6500244140625,29.030029296875 C7.6700439453125,28.739990234375 6.699951171875,28.3699951171875 5.72998046875,27.92999267578125 C4.760009765625,27.489990234375 3.9000244140625,26.90997314453125 3.1500244140625,26.20001220703125 C2.4000244140625,25.489990234375 1.7900390625,24.66998291015625 1.3199462890625,23.75 C0.43994140625,22.010009765625 0,19.6500244140625 0,16.70001220703125 C0,13.34002685546875 0.969970703125,10.530029296875 2.9000244140625,8.27001953125 C2.510009765625,7.1099853515625 2.3199462890625,5.9000244140625 2.3199462890625,4.6500244140625 C2.3199462890625,3 2.6800537109375,1.45001220703125 3.4100341796875,0 C4.93994140625,0 6.300048828125,0.280029296875 7.4599609375,0.84002685546875 C8.6199951171875,1.4000244140625 9.9599609375,2.280029296875 11.489990234375,3.47998046875 C13.5699462890625,2.97998046875 15.77001953125,2.72998046875 18.0699462890625,2.72998046875 C20.1800537109375,2.72998046875 22.1700439453125,2.96002197265625 24.0400390625,3.40997314453125 C25.530029296875,2.239990234375 26.8599853515625,1.3800048828125 28.02001953125,0.83001708984375 C29.18994140625,0.280029296875 30.530029296875,0 32.050048828125,0 C32.780029296875,1.44000244140625 33.1400146484375,2.989990234375 33.1400146484375,4.6400146484375 L28.27001953125,25.90997314453125 C28.969970703125,25.3800048828125 29.550048828125,24.6500244140625 30,23.719970703125 C30.4500732421875,22.78997802734375 30.6800537109375,21.70001220703125 30.6900634765625,20.45001220703125 C30.6900634765625,18.739990234375 30.2000732421875,17.28997802734375 29.219970703125,16.0999755859375 C28.239990234375,14.90997314453125 26.9200439453125,14.30999755859375 25.239990234375,14.30999755859375 C24.6500244140625,14.30999755859375 23.27001953125,14.46002197265625 21.080078125,14.760009765625 C20.070068359375,14.90997314453125 18.9500732421875,14.989990234375 17.72998046875,14.989990234375 C16.5,14.989990234375 15.3900146484375,14.91998291015625 14.3800048828125,14.760009765625 C12.219970703125,14.46002197265625 10.830078125,14.30999755859375 10.219970703125,14.30999755859375 C8.550048828125,14.30999755859375 7.219970703125,14.90997314453125 6.239990234375,16.0999755859375 C5.260009765625,17.29998779296875 4.77001953125,18.739990234375 4.77001953125,20.45001220703125 C4.77001953125,21.70001220703125 5,22.78997802734375 5.4500732421875,23.719970703125 C5.9100341796875,24.6500244140625 6.47998046875,25.3800048828125 7.1800537109375,25.90997314453125 C7.8800048828125,26.44000244140625 8.739990234375,26.8699951171875 9.780029296875,27.19000244140625 C10.81005859375,27.510009765625 11.81005859375,27.719970703125 12.760009765625,27.82000732421875 C13.7099609375,27.91998291015625 14.77001953125,27.969970703125 15.9300537109375,27.969970703125 L19.510009765625,27.969970703125 C20.6800537109375,27.969970703125 21.739990234375,27.91998291015625 22.6900634765625,27.82000732421875 C23.6400146484375,27.719970703125 24.6300048828125,27.510009765625 25.6700439453125,27.19000244140625 C26.7099609375,26.8699951171875 27.570068359375,26.44000244140625 28.27001953125,25.90997314453125 L33.1400146484375,4.6400146484375Z"/>
    <path id="path-3" opacity="1" fill-rule="evenodd" d="M12.449999999999834,17.090000000000003 C12.019999999999834,16.610000000000003 11.499999999999835,16.370000000000005 10.909999999999835,16.370000000000005 C10.309999999999835,16.370000000000005 9.799999999999836,16.610000000000003 9.369999999999836,17.090000000000003 C8.939999999999836,17.570000000000004 8.629999999999836,18.110000000000003 8.449999999999836,18.710000000000004 C8.269999999999836,19.310000000000006 8.179999999999836,19.890000000000004 8.179999999999836,20.460000000000004 C8.179999999999836,21.030000000000005 8.269999999999836,21.610000000000003 8.449999999999836,22.210000000000004 C8.629999999999836,22.810000000000006 8.929999999999836,23.350000000000005 9.369999999999836,23.830000000000005 C9.799999999999836,24.310000000000006 10.319999999999835,24.550000000000004 10.909999999999835,24.550000000000004 C11.509999999999835,24.550000000000004 12.019999999999834,24.310000000000006 12.449999999999834,23.830000000000005 C12.879999999999834,23.350000000000005 13.189999999999834,22.810000000000006 13.369999999999834,22.210000000000004 C13.549999999999834,21.610000000000003 13.639999999999834,21.030000000000005 13.639999999999834,20.460000000000004 C13.639999999999834,19.890000000000004 13.549999999999834,19.310000000000006 13.369999999999834,18.710000000000004 C13.189999999999834,18.110000000000003 12.889999999999834,17.570000000000004 12.449999999999834,17.090000000000003Z"/>
    <path id="path-4" opacity="1" fill-rule="evenodd" d="M26.090000000000163,17.090000000000003 C25.660000000000164,16.610000000000003 25.140000000000164,16.370000000000005 24.550000000000164,16.370000000000005 C23.950000000000163,16.370000000000005 23.440000000000165,16.610000000000003 23.010000000000165,17.090000000000003 C22.580000000000165,17.570000000000004 22.270000000000167,18.110000000000003 22.090000000000163,18.710000000000004 C21.910000000000164,19.310000000000006 21.820000000000164,19.890000000000004 21.820000000000164,20.460000000000004 C21.820000000000164,21.030000000000005 21.910000000000164,21.610000000000003 22.090000000000163,22.210000000000004 C22.270000000000163,22.810000000000006 22.570000000000164,23.350000000000005 23.010000000000165,23.830000000000005 C23.440000000000165,24.310000000000006 23.960000000000164,24.550000000000004 24.550000000000164,24.550000000000004 C25.150000000000166,24.550000000000004 25.660000000000164,24.310000000000006 26.090000000000163,23.830000000000005 C26.520000000000163,23.350000000000005 26.83000000000016,22.810000000000006 27.010000000000165,22.210000000000004 C27.190000000000165,21.610000000000003 27.280000000000165,21.030000000000005 27.280000000000165,20.460000000000004 C27.280000000000165,19.890000000000004 27.190000000000165,19.310000000000006 27.010000000000165,18.710000000000004 C26.830000000000165,18.110000000000003 26.520000000000167,17.570000000000004 26.090000000000163,17.090000000000003Z"/>
  </defs>
  <g opacity="1">
    <g opacity="1">
      <use xlink:href="#path-2" fill="rgb(152,176,205)" fill-opacity="1"/>
    </g>
    <g opacity="1">
      <use xlink:href="#path-3" fill="rgb(152,176,205)" fill-opacity="1"/>
    </g>
    <g opacity="1">
      <use xlink:href="#path-4" fill="rgb(152,176,205)" fill-opacity="1"/>
    </g>
  </g>
</svg>