<?xml version="1.0" encoding="utf-8"?>
<svg version="1.1" xmlns="http://www.w3.org/2000/svg" xmlns:xlink="http://www.w3.org/1999/xlink" height="30" width="30">
  <defs>
    <path id="path-1" opacity="1" fill-rule="evenodd" d="M15,2.7 C19.009999999999998,2.7 19.48,2.72 21.06,2.79 C22.52,2.86 23.32,3.1 23.849999999999998,3.31 C24.549999999999997,3.58 25.049999999999997,3.9099999999999997 25.569999999999997,4.43 C26.089999999999996,4.949999999999999 26.419999999999998,5.449999999999999 26.689999999999998,6.1499999999999995 C26.9,6.68 27.139999999999997,7.47 27.209999999999997,8.94 C27.279999999999998,10.52 27.299999999999997,11 27.299999999999997,15 C27.299999999999997,19 27.279999999999998,19.48 27.209999999999997,21.06 C27.139999999999997,22.52 26.9,23.32 26.689999999999998,23.849999999999998 C26.419999999999998,24.549999999999997 26.089999999999996,25.049999999999997 25.569999999999997,25.569999999999997 C25.049999999999997,26.089999999999996 24.549999999999997,26.419999999999998 23.849999999999998,26.689999999999998 C23.319999999999997,26.9 22.529999999999998,27.139999999999997 21.06,27.209999999999997 C19.479999999999997,27.279999999999998 19,27.299999999999997 15,27.299999999999997 C11,27.299999999999997 10.52,27.279999999999998 8.940000000000001,27.209999999999997 C7.480000000000001,27.139999999999997 6.6800000000000015,26.9 6.150000000000001,26.689999999999998 C5.450000000000001,26.419999999999998 4.950000000000001,26.089999999999996 4.4300000000000015,25.569999999999997 C3.9100000000000015,25.049999999999997 3.5800000000000014,24.549999999999997 3.3100000000000014,23.849999999999998 C3.1000000000000014,23.319999999999997 2.860000000000001,22.529999999999998 2.7900000000000014,21.06 C2.7200000000000015,19.479999999999997 2.7000000000000015,19.009999999999998 2.7000000000000015,15 C2.7000000000000015,10.990000000000002 2.7200000000000015,10.52 2.7900000000000014,8.940000000000001 C2.860000000000001,7.480000000000001 3.1000000000000014,6.6800000000000015 3.3100000000000014,6.150000000000001 C3.5800000000000014,5.450000000000001 3.9100000000000015,4.950000000000001 4.4300000000000015,4.4300000000000015 C4.950000000000001,3.900000000000001 5.450000000000001,3.5800000000000014 6.150000000000001,3.3100000000000014 C6.6800000000000015,3.1000000000000014 7.480000000000001,2.860000000000001 8.940000000000001,2.7900000000000014 C10.520000000000001,2.7200000000000015 10.990000000000002,2.7000000000000015 15,2.7000000000000015 L15,0 C10.93,0 10.42,0.0200000000000001 8.82,0.09 C7.220000000000001,0.1599999999999999 6.130000000000001,0.42 5.18,0.7899999999999999 C4.1899999999999995,1.17 3.3599999999999994,1.69 2.5199999999999996,2.52 C1.6799999999999997,3.35 1.1699999999999997,4.1899999999999995 0.7899999999999996,5.17 C0.4199999999999997,6.12 0.16999999999999948,7.21 0.0899999999999997,8.81 C0.0200000000000001,10.42 0,10.93 0,15 C0,19.069999999999997 0.0200000000000001,19.58 0.09,21.18 C0.1599999999999999,22.78 0.42,23.87 0.7899999999999999,24.82 C1.17,25.81 1.69,26.64 2.52,27.48 C3.35,28.31 4.1899999999999995,28.830000000000002 5.18,29.21 C6.13,29.580000000000002 7.22,29.830000000000002 8.82,29.91 C10.42,29.98 10.93,30 15,30 C19.069999999999997,30 19.58,29.98 21.18,29.91 C22.78,29.84 23.87,29.580000000000002 24.82,29.21 C25.81,28.830000000000002 26.64,28.310000000000002 27.48,27.48 C28.31,26.650000000000002 28.830000000000002,25.810000000000002 29.21,24.82 C29.580000000000002,23.87 29.830000000000002,22.78 29.91,21.18 C29.98,19.58 30,19.07 30,15 C30,10.929999999999998 29.98,10.42 29.91,8.82 C29.84,7.220000000000001 29.580000000000002,6.130000000000001 29.21,5.18 C28.830000000000002,4.1899999999999995 28.310000000000002,3.3599999999999994 27.48,2.5199999999999996 C26.650000000000002,1.6899999999999995 25.810000000000002,1.1699999999999997 24.82,0.7899999999999996 C23.87,0.4199999999999997 22.78,0.16999999999999948 21.18,0.0899999999999997 C19.58,0.0200000000000001 19.07,0 15,0 L15,2.7Z"/>
    <path id="path-2" opacity="1" fill-rule="evenodd" d="M7.300048828125,15 C7.300048828125,10.75 10.75,7.29998779296875 15,7.29998779296875 C19.25,7.29998779296875 22.7000732421875,10.75 22.7000732421875,15 C22.7000732421875,19.25 19.25,22.70001220703125 15,22.70001220703125 C10.75,22.70001220703125 7.300048828125,19.25 7.300048828125,15 L10,15 C10,17.760009765625 12.239990234375,20 15,20 C17.760009765625,20 20,17.760009765625 20,15 C20,12.239990234375 17.760009765625,10 15,10 C12.239990234375,10 10,12.239990234375 10,15 L7.300048828125,15Z"/>
    <ellipse id="ellipse-3" opacity="1" rx="1.8" ry="1.8" cx="23.010000000000037" cy="6.990000000000054"/>
  </defs>
  <g opacity="1">
    <g opacity="1">
      <use xlink:href="#path-1" fill="rgb(152,176,205)" fill-opacity="1"/>
    </g>
    <g opacity="1">
      <use xlink:href="#path-2" fill="rgb(152,176,205)" fill-opacity="1"/>
    </g>
    <g opacity="1">
      <use xlink:href="#ellipse-3" fill="rgb(152,176,205)" fill-opacity="1"/>
    </g>
  </g>
</svg>