<?xml version="1.0" encoding="utf-8"?>
<svg version="1.1" xmlns="http://www.w3.org/2000/svg" xmlns:xlink="http://www.w3.org/1999/xlink" height="23.784355179704107" width="30">
  <defs>
    <path id="medium-1" opacity="1" fill-rule="evenodd" d="M3.5597251585623777,4.852008456659631 C3.5914376321353165,4.487315010570835 3.4487315010570923,4.1226215644820385 3.179175475687112,3.868921775898528 L0.3805496828752652,0.50739957716702 L0.3805496828752652,0 L9.077695560253726,0 L15.800739957716747,14.738372093023289 L21.71511627906983,0 L30.000000000000085,0 L30.000000000000085,0.50739957716702 L27.613636363636445,2.7986257928118454 C27.407505285412345,2.9571881606765396 27.296511627907055,3.21088794926005 27.344080338266462,3.4645877378435594 L27.344080338266462,20.31976744186051 C27.29651162790705,20.57346723044402 27.407505285412338,20.843023255814 27.613636363636445,20.985729386892224 L29.952431289640682,23.27695560253705 L29.952431289640682,23.784355179704068 L18.187103594080387,23.784355179704068 L18.187103594080387,23.276955602537047 L20.605179704016972,20.922304439746345 C20.843023255814014,20.684460887949307 20.843023255814014,20.62103594080343 20.843023255814014,20.25634249471463 L20.843023255814014,6.659619450317139 L14.088266384778054,23.75264270613113 L13.16860465116283,23.75264270613113 L5.343551797040184,6.659619450317139 L5.343551797040184,18.1236786469345 C5.280126849894307,18.59936575052858 5.438689217759,19.090909090909133 5.7716701902748575,19.43974630021146 L8.91913319238903,23.269027484143816 L8.91913319238903,23.776427061310834 L0,23.776427061310834 L0,23.269027484143816 L3.147463002114174,19.43974630021146 C3.4804439746300315,19.090909090909133 3.6390063424947243,18.599365750528584 3.5597251585623777,18.123678646934504 L3.5597251585623777,4.852008456659631Z"/>
  </defs>
  <g opacity="1">
    <use xlink:href="#medium-1" fill-opacity="1"/>
  </g>
</svg>