<?xml version="1.0" encoding="utf-8"?>
<svg version="1.1" xmlns="http://www.w3.org/2000/svg" xmlns:xlink="http://www.w3.org/1999/xlink" height="30" width="30">
  <defs>
    <rect id="telegram-1" opacity="1" x="0" y="0" width="30" height="30" rx="0" ry="0"/>
    <path id="telegram-2" opacity="1" fill-rule="evenodd" d="M9.500000000000053,16.619999999999997 C9.500000000000053,16.619999999999997 4.120000000000054,15.109999999999996 3.7800000000000544,14.719999999999995 C3.4400000000000546,14.319999999999997 3.5300000000000544,13.919999999999995 4.190000000000055,13.569999999999997 C4.850000000000055,13.219999999999999 25.180000000000053,5.4199999999999955 25.180000000000053,5.4199999999999955 C25.180000000000053,5.4199999999999955 26.360000000000053,5.1299999999999955 26.390000000000054,6.6299999999999955 C26.410000000000053,7.549999999999995 22.980000000000054,23.429999999999996 22.880000000000056,23.779999999999994 C22.780000000000054,24.129999999999992 22.330000000000055,24.719999999999995 21.790000000000056,24.639999999999993 C21.240000000000055,24.559999999999995 21.060000000000056,24.379999999999992 20.390000000000057,23.96999999999999 C20.01000000000006,23.73999999999999 15.710000000000058,20.499999999999993 15.710000000000058,20.499999999999993 C15.710000000000058,20.499999999999993 13.93000000000006,22.249999999999993 13.43000000000006,22.73999999999999 C12.88000000000006,23.27999999999999 11.95000000000006,23.80999999999999 11.63000000000006,23.18999999999999 C11.47000000000006,22.84999999999999 9.500000000000059,16.61999999999999 9.500000000000053,16.619999999999997Z"/>
    <path id="telegram-3" opacity="1" fill-rule="evenodd" d="M12.109999999999964,22.040000000000028 L10.289999999999964,16.170000000000023 C10.289999999999964,16.170000000000023 21.579999999999963,9.090000000000027 21.849999999999966,8.900000000000027 C22.119999999999965,8.720000000000027 22.489999999999966,8.770000000000026 22.419999999999966,9.030000000000028 C22.389999999999965,9.140000000000027 22.319999999999965,9.210000000000027 22.159999999999965,9.370000000000028 C21.999999999999964,9.530000000000028 12.499999999999964,18.02000000000003 12.499999999999964,18.02000000000003 L12.109999999999964,22.040000000000028Z"/>
  </defs>
  <g opacity="1">
    <g opacity="1">
      <use xlink:href="#telegram-1" fill-opacity="1"/>
    </g>
    <g opacity="1">
      <use xlink:href="#telegram-2" fill="rgb(255, 255, 255)" fill-opacity="1"/>
    </g>
    <g opacity="1">
      <use xlink:href="#telegram-3" fill-opacity="1"/>
    </g>
  </g>
</svg>