<?xml version="1.0" encoding="utf-8"?>
<svg version="1.1" xmlns="http://www.w3.org/2000/svg" xmlns:xlink="http://www.w3.org/1999/xlink" height="30" width="30">
  <defs>
    <path id="twitter" opacity="1" fill-rule="evenodd" d="M0,30 L30,30 L30,0 L0,0 L0,30 L22.469970703125,11.66998291015625 C22.469970703125,16.760009765625 18.5999755859375,22.6199951171875 11.52001953125,22.6199951171875 L5.6199951171875,20.9000244140625 C5.9200439453125,20.92999267578125 6.22998046875,20.95001220703125 6.5400390625,20.95001220703125 C8.3399658203125,20.95001220703125 10,20.33001708984375 11.3199462890625,19.29998779296875 C9.6400146484375,19.27001953125 8.219970703125,18.15997314453125 7.72998046875,16.6300048828125 C7.9599609375,16.67999267578125 8.199951171875,16.70001220703125 8.449951171875,16.70001220703125 C8.800048828125,16.70001220703125 9.1400146484375,16.6500244140625 9.469970703125,16.55999755859375 C7.7099609375,16.21002197265625 6.3800048828125,14.6500244140625 6.3800048828125,12.78997802734375 L6.3800048828125,12.739990234375 C6.9000244140625,13.02996826171875 7.489990234375,13.20001220703125 8.1199951171875,13.219970703125 C7.0899658203125,12.52996826171875 6.4100341796875,11.3499755859375 6.4100341796875,10.02001953125 C6.4100341796875,9.30999755859375 6.5999755859375,8.6500244140625 6.9300537109375,8.08001708984375 C8.8299560546875,10.40997314453125 11.6600341796875,11.94000244140625 14.8599853515625,12.0999755859375 C14.7900390625,11.82000732421875 14.760009765625,11.52001953125 14.760009765625,11.219970703125 C14.760009765625,9.0899658203125 16.489990234375,7.3699951171875 18.6099853515625,7.3699951171875 C19.719970703125,7.3699951171875 20.719970703125,7.8399658203125 21.4200439453125,8.5899658203125 C22.2900390625,8.41998291015625 23.1199951171875,8.0999755859375 23.8599853515625,7.65997314453125 C23.5699462890625,8.55999755859375 22.9599609375,9.30999755859375 22.1700439453125,9.78997802734375 C22.949951171875,9.69000244140625 23.68994140625,9.489990234375 24.3800048828125,9.17999267578125 C23.8599853515625,9.95001220703125 23.2099609375,10.6300048828125 22.4599609375,11.16998291015625 C22.469970703125,11.3399658203125 22.469970703125,11.5 22.469970703125,11.66998291015625 L0,30Z"/>
  </defs>
  <g opacity="1">
    <g opacity="1">
      <use xlink:href="#twitter" fill-opacity="1"/>
    </g>
  </g>
</svg>