<?xml version="1.0" encoding="utf-8"?>
<svg version="1.1" xmlns="http://www.w3.org/2000/svg" xmlns:xlink="http://www.w3.org/1999/xlink" height="182.9244405473512" width="322.67361369663195">
  <defs>
    <path id="card-primary-1" opacity="1" fill-rule="evenodd" d="M56,175.88888549804688 L56,14.07110595703125 C56,10.11358642578125 57.385406494140625,6.7790679931640625 60.15625,4.0674285888671875 C62.927093505859375,1.3557891845703125 66.20831298828125,0 70,0 L119,0 C122.79168701171875,0 126.07290649414062,1.3557891845703125 128.84375,4.0674285888671875 C131.61459350585938,6.7790679931640625 133,10.11358642578125 133,14.07110595703125 L133,175.88888549804688 L56,175.88888549804688 L119,28.1422119140625 L70,28.1422119140625 L70,21.106658935546875 C70,19.201187133789062 70.69268798828125,17.55224609375 72.078125,16.1597900390625 C73.46356201171875,14.767318725585938 75.10415649414062,14.07110595703125 77,14.07110595703125 L112,14.07110595703125 C113.89584350585938,14.07110595703125 115.53643798828125,14.767318725585938 116.921875,16.1597900390625 C118.30731201171875,17.55224609375 119,19.201187133789062 119,21.106658935546875 L119,28.1422119140625 L0,161.81777954101562 L0,42.21333312988281 C0,38.40238952636719 1.385406494140625,35.10450744628906 4.15625,32.31959533691406 C6.927093505859375,29.53466796875 10.20831298828125,28.142227172851562 14,28.142227172851562 L42,28.142227172851562 L42,175.88888549804688 L14,175.88888549804688 C10.20831298828125,175.88888549804688 6.927093505859375,174.4964599609375 4.15625,171.7115478515625 C1.385406494140625,168.92660522460938 0,165.62872314453125 0,161.81777954101562 L175,175.88888549804688 L147,175.88888549804688 L147,28.142227172851562 L175,28.142227172851562 C178.79168701171875,28.142227172851562 182.07290649414062,29.53466796875 184.84375,32.31959533691406 C187.6146240234375,35.10450744628906 189,38.40238952636719 189,42.21333312988281 L189,161.81777954101562 C189,165.62872314453125 187.6146240234375,168.92660522460938 184.84375,171.7115478515625 C182.07290649414062,174.4964599609375 178.79168701171875,175.88888549804688 175,175.88888549804688 L56,175.88888549804688Z"/>
  </defs>
  <g opacity="1">
    <use xlink:href="#card-primary-1" fill-opacity="1"/>
  </g>
</svg>