<?xml version="1.0" encoding="utf-8"?>
<svg version="1.1" xmlns="http://www.w3.org/2000/svg" xmlns:xlink="http://www.w3.org/1999/xlink" height="12.000000042932129" width="12.01406803824284">
  <defs>
    <path id="path-1" opacity="1" fill-rule="evenodd" d="M3.6717529296875,0.471282958984375 C4.40325927734375,0.1570892333984375 5.18170166015625,0 6.00701904296875,0 C6.83233642578125,0 7.61077880859375,0.1570892333984375 8.34234619140625,0.471282958984375 C9.0738525390625,0.78546142578125 9.71160888671875,1.21453857421875 10.25555419921875,1.7584991455078125 C10.799560546875,2.302459716796875 11.22857666015625,2.9378662109375 11.54278564453125,3.6647186279296875 C11.85699462890625,4.3915557861328125 12.0140380859375,5.167633056640625 12.0140380859375,5.9929656982421875 C12.0140380859375,6.827667236328125 11.85699462890625,7.6084442138671875 11.54278564453125,8.335281372070312 C11.22857666015625,9.0621337890625 10.799560546875,9.697540283203125 10.25555419921875,10.241500854492188 C9.71160888671875,10.78546142578125 9.0738525390625,11.21453857421875 8.34234619140625,11.528717041015625 C7.61077880859375,11.842910766601562 6.83233642578125,12 6.00701904296875,12 C5.18170166015625,12 4.40325927734375,11.842910766601562 3.6717529296875,11.528717041015625 C2.940185546875,11.21453857421875 2.302490234375,10.78546142578125 1.75848388671875,10.241500854492188 L0.47125244140625,8.335281372070312 C0.1571044921875,7.6084442138671875 0,6.827667236328125 0,5.9929656982421875 C0,5.167633056640625 0.1571044921875,4.3915557861328125 0.47125244140625,3.6647186279296875 L1.75848388671875,1.7584991455078125 C2.302490234375,1.21453857421875 2.940185546875,0.78546142578125 3.6717529296875,0.471282958984375 L3.01055908203125,5.402099609375 L5.402099609375,5.402099609375 L5.402099609375,2.3915557861328125 L6.6119384765625,2.3915557861328125 L6.6119384765625,6.5978851318359375 L3.01055908203125,6.5978851318359375 L3.01055908203125,5.402099609375 L3.6717529296875,0.471282958984375Z"/>
  </defs>
  <g opacity="1">
    <use xlink:href="#path-1" fill="rgb(255,255,255)" fill-opacity="1"/>
  </g>
</svg>