<svg width="16" height="16" viewBox="0 0 16 16" fill="none" xmlns="http://www.w3.org/2000/svg">
  <rect width="16" height="16" rx="8" fill="#353C46"/>
  <path d="M5.02832 5.83984C5.15951 5.30241 5.44515 4.86019 5.88525 4.51318C6.32536 4.16618 6.83317 3.99268 7.40869 3.99268H8.03076C8.70785 3.99268 9.28548 4.23177 9.76367 4.70996C10.2461 5.18392 10.4873 5.76367 10.4873 6.44922C10.4873 6.92741 10.3604 7.36963 10.1064 7.77588C9.85677 8.18213 9.51188 8.51432 9.07178 8.77246C8.60205 9.05176 8.36719 9.38184 8.36719 9.7627V9.99756H6.96436V9.7627C6.96436 8.82747 7.43197 8.09538 8.36719 7.56641C8.84538 7.26172 9.08447 6.88932 9.08447 6.44922C9.08447 6.15299 8.98291 5.90332 8.77979 5.7002C8.57666 5.49707 8.32699 5.39551 8.03076 5.39551H7.40869C7.15902 5.39551 6.93473 5.47591 6.73584 5.63672C6.54118 5.79753 6.41846 5.9943 6.36768 6.22705L5.02832 5.83984ZM6.96436 13V10.9751H8.36719V13H6.96436Z" fill="#252A31"/>
</svg>