<?xml version="1.0" encoding="utf-8"?>
<svg version="1.1" xmlns="http://www.w3.org/2000/svg" xmlns:xlink="http://www.w3.org/1999/xlink" height="12" width="12">
  <defs>
    <path id="qrcode-1" opacity="1" fill-rule="evenodd" d="M4.615465085868489,0 L0.9231976288030238,0 C0.4132159358381807,0 0,0.41321593583820243 0,0.9231976288030725 L0,5.538662714671805 L3.6922674570654648,5.538662714671805 L3.6922674570654648,4.615465085868732 L0.9231976288030238,4.615465085868732 L0.9231976288030238,0.9231976288030725 L4.61546508586849,0.9231976288030725 L4.61546508586849,3.6922674570656597 L5.5386627146715135,3.6922674570656597 L5.5386627146715135,0 "/>
    <rect id="qrcode-2" opacity="1" x="1.8458721994597909" y="1.8458721994595635" width="1.8458721994595721" height="1.8458721994595493" rx="0" ry="0"/>
    <rect id="qrcode-3" opacity="1" x="8.307209484788018" y="1.8458721994595635" width="1.845872199459567" height="1.8458721994595493" rx="0" ry="0"/>
    <rect id="qrcode-4" opacity="1" x="1.8458721994597909" y="8.30720948478779" width="1.8458721994595721" height="1.8458721994595706" rx="0" ry="0"/>
    <path id="qrcode-5" opacity="1" fill-rule="evenodd" d="M9.230407113590488,6.461337285328227 L7.3845349141313426,6.461337285328227 L6.4613372853284545,6.461337285328227 L6.4613372853284545,7.384534914131278 L6.4613372853284545,9.230407113590747 L7.3845349141313426,9.230407113590747 L7.3845349141313426,7.384534914131278 L9.230407113590488,7.384534914131278 L9.230407113590488,6.461337285328227Z"/>
    <path id="qrcode-6" opacity="1" fill-rule="evenodd" d="M11.07627931305029,9.230407113590786 L10.15308168424705,9.230407113590786 L10.15308168424705,10.15360474239384 L11.07627931305029,10.15360474239384 L11.07627931305029,11.076802371196896 L9.230407113590445,11.076802371196896 L9.230407113590445,11.99999999999995 L11.07627931305029,11.99999999999995 C11.586261006015249,11.99999999999995 11.999476941853526,11.586784064161755 11.999476941853526,11.076802371196896 L11.999476941853526,9.230407113590788 "/>
    <path id="qrcode-7" opacity="1" fill-rule="evenodd" d="M8.307209484787599,8.30720948478779 L8.307209484787599,10.153604742393911 L7.3845349141313426,10.153604742393911 L6.4613372853284545,10.153604742393911 L6.4613372853284545,11.07627931305034 L6.4613372853284545,11.999476941853402 L7.3845349141313426,11.999476941853402 L7.3845349141313426,11.07627931305034 L8.307209484787599,11.07627931305034 L9.230407113590488,11.07627931305034 L9.230407113590488,10.153604742393911 L9.230407113590488,8.30720948478779 L8.307209484787599,8.30720948478779Z"/>
    <rect id="qrcode-8" opacity="1" x="11.076279313050009" y="6.461337285328227" width="0.9231976288035177" height="0.9231976288030852" rx="0" ry="0"/>
    <rect id="qrcode-9" opacity="1" x="10.153604742393782" y="7.384534914131223" width="0.9231976288024235" height="0.923197628803087" rx="0" ry="0"/>
    <rect id="qrcode-10" opacity="1" x="4.615465085868891" y="4.615465085868777" width="0.9231976288026349" height="0.9231976288031003" rx="0" ry="0"/>
    <path id="qrcode-11" opacity="1" fill-rule="evenodd" d="M7.3845349141314784,0 L11.076802371196944,0 C11.586784064161787,0 11.999999999999968,0.41321593583820243 11.999999999999968,0.9231976288030725 L11.999999999999968,5.538662714671805 L10.15360474239392,5.538662714671805 L10.15360474239392,4.615465085868732 L11.076802371196944,4.615465085868732 L11.076802371196944,0.9231976288030725 L7.3845349141314784,0.9231976288030725 L7.3845349141314784,5.538662714671805 L6.4613372853284545,5.538662714671805 L6.4613372853284545,0 "/>
    <rect id="qrcode-12" opacity="1" x="8.307209484788018" y="4.615465085868777" width="0.9231976288024555" height="0.9231976288031003" rx="0" ry="0"/>
    <path id="qrcode-13" opacity="1" fill-rule="evenodd" d="M4.615465085868489,6.461337285328227 L0,6.461337285328227 L0,11.076802371196973 C0,11.586784064161844 0.4132159358381807,12.000000000000046 0.9231976288030238,12.000000000000046 L5.538662714671513,12.000000000000046 L5.538662714671513,11.076802371196973 L0.9231976288030238,11.076802371196973 L0.9231976288030238,7.384534914131303 L4.61546508586849,7.384534914131303 L4.61546508586849,10.153604742393895 L5.5386627146715135,10.153604742393895 L5.5386627146715135,6.461337285328227 "/>
  </defs>
  <g opacity="1">
    <g opacity="1">
      <use xlink:href="#qrcode-1" fill="rgb(61,90,126)" fill-opacity="1"/>
    </g>
    <g opacity="1">
      <use xlink:href="#qrcode-2" fill="rgb(61,90,126)" fill-opacity="1"/>
    </g>
    <g opacity="1">
      <use xlink:href="#qrcode-3" fill="rgb(61,90,126)" fill-opacity="1"/>
    </g>
    <g opacity="1">
      <use xlink:href="#qrcode-4" fill="rgb(61,90,126)" fill-opacity="1"/>
    </g>
    <g opacity="1">
      <use xlink:href="#qrcode-5" fill="rgb(61,90,126)" fill-opacity="1"/>
    </g>
    <g opacity="1">
      <use xlink:href="#qrcode-6" fill="rgb(61,90,126)" fill-opacity="1"/>
    </g>
    <g opacity="1">
      <use xlink:href="#qrcode-7" fill="rgb(61,90,126)" fill-opacity="1"/>
    </g>
    <g opacity="1">
      <use xlink:href="#qrcode-8" fill="rgb(61,90,126)" fill-opacity="1"/>
    </g>
    <g opacity="1">
      <use xlink:href="#qrcode-9" fill="rgb(61,90,126)" fill-opacity="1"/>
    </g>
    <g opacity="1">
      <use xlink:href="#qrcode-10" fill="rgb(61,90,126)" fill-opacity="1"/>
    </g>
    <g opacity="1">
      <use xlink:href="#qrcode-11" fill="rgb(61,90,126)" fill-opacity="1"/>
    </g>
    <g opacity="1">
      <use xlink:href="#qrcode-12" fill="rgb(61,90,126)" fill-opacity="1"/>
    </g>
    <g opacity="1">
      <use xlink:href="#qrcode-13" fill="rgb(61,90,126)" fill-opacity="1"/>
    </g>
  </g>
</svg>