<?xml version="1.0" standalone="no"?>
<!DOCTYPE svg PUBLIC "-//W3C//DTD SVG 1.1//EN" "http://www.w3.org/Graphics/SVG/1.1/DTD/svg11.dtd" >
<svg xmlns="http://www.w3.org/2000/svg" xmlns:xlink="http://www.w3.org/1999/xlink" version="1.1">
<metadata>
Created by FontForge 20170731 at Wed Jun 28 20:11:19 2017
 By Aleksey,,,
Copyright (c) 2015 by Bold Studio. All rights reserved.
</metadata>
<defs>
<font id="BBRollerMonoProST-Light" horiz-adv-x="1216" >
  <font-face 
    font-family="BB Roller Mono Pro ST Lt"
    font-weight="300"
    font-stretch="normal"
    units-per-em="2048"
    panose-1="0 0 4 0 0 0 0 0 0 0"
    ascent="1638"
    descent="-410"
    x-height="1044"
    cap-height="1401"
    bbox="-53 -1237 2365 2263"
    underline-thickness="0"
    underline-position="0"
    unicode-range="U+0009-1F6E1"
  />
<missing-glyph 
d="M68 698q0 223 159.5 383t380.5 160q223 0 382 -159.5t159 -383t-159 -381t-382 -157.5q-221 0 -380.5 158.5t-159.5 379.5z" />
    <glyph glyph-name="uniFB01" unicode="fi" 
d="M90 854v98h215v111q0 150 104.5 253t252.5 103q123 0 219 -75.5t125 -192.5l-95 -29q-20 86 -89.5 142.5t-159.5 56.5q-109 0 -184 -75t-75 -183v-111h605v-952h-99v854h-506v-854h-98v854h-215z" />
    <glyph glyph-name="uniFB02" unicode="fl" 
d="M1114 98h31v-98h-31q-90 0 -154.5 64.5t-64.5 156.5v608h-516v-829h-98v829h-215v99h215v135q0 150 104 253t251.5 103t252 -103.5t104.5 -252.5v-842q0 -51 36 -87t85 -36zM379 928h516v135q0 109 -75 183.5t-183.5 74.5t-183 -75t-74.5 -183v-135z" />
    <glyph glyph-name=".notdef" 
d="M68 698q0 223 159.5 383t380.5 160q223 0 382 -159.5t159 -383t-159 -381t-382 -157.5q-221 0 -380.5 158.5t-159.5 379.5z" />
    <glyph glyph-name="glyph1" horiz-adv-x="0" 
 />
    <glyph glyph-name="glyph2" horiz-adv-x="681" 
 />
    <glyph glyph-name="uni0009" unicode="&#x9;" 
 />
    <glyph glyph-name="space" unicode=" " 
 />
    <glyph glyph-name="exclam" unicode="!" 
d="M559 473v928h98v-928h-98zM559 0v279h98v-279h-98z" />
    <glyph glyph-name="quotedbl" unicode="&#x22;" 
d="M428 895v506h94v-506h-94zM694 895v506h94v-506h-94z" />
    <glyph glyph-name="numbersign" unicode="#" 
d="M49 381v98h258v443h-258v98h258v381h99v-381h417v381h99v-381h245v-98h-245v-443h245v-98h-245v-381h-99v381h-417v-381h-99v381h-258zM406 479h417v443h-417v-443z" />
    <glyph glyph-name="dollar" unicode="$" 
d="M733 717q279 -111 279 -379q0 -147 -105.5 -251.5t-251.5 -104.5h-24v-156h-99v156h-12q-123 0 -219 75.5t-127 192.5l94 26q23 -86 92.5 -141t159.5 -55h135q106 0 182 75.5t76 182.5q0 205 -219 289l-198 75q-295 111 -295 361q0 150 104.5 253t251.5 103h8v164h99
v-164q119 -4 210 -78.5t119 -187.5l-94 -29q-23 86 -91.5 141.5t-158.5 55.5h-92q-106 0 -182 -75t-76 -183q0 -94 53.5 -156.5t177.5 -111.5z" />
    <glyph glyph-name="percent" unicode="%" 
d="M362.5 915q-104.5 0 -178 74t-73.5 178.5t73.5 178t178 73.5t178 -73.5t73.5 -178t-73.5 -178.5t-178 -74zM215 0v127q0 29 5 59.5t13.5 54t18.5 46t18.5 36t16.5 25.5l6 10l532 697q33 45 52.5 99t23.5 87l2 31v129h98v-129q0 -16 -3 -46t-28.5 -101.5t-68.5 -129.5
l-530 -696q-57 -78 -58 -172v-127h-98zM362.5 1014q63.5 0 108.5 45t45 108.5t-45 108.5t-108.5 45t-108.5 -45t-45 -108.5t45 -108.5t108.5 -45zM854 -18q-104 0 -178 73.5t-74 178t74 178t178 73.5t178 -73.5t74 -178t-74 -178t-178 -73.5zM854.5 80q63.5 0 108.5 45
t45 108.5t-45 108.5t-108.5 45t-109 -45t-45.5 -108.5t45.5 -108.5t109 -45z" />
    <glyph glyph-name="ampersand" unicode="&#x26;" 
d="M1155 174l94 -29q-18 -72 -76.5 -117.5t-134.5 -45.5q-90 0 -153.5 64.5t-63.5 154.5v477h-323q-106 0 -182 -76t-76 -182v-64q0 -106 75.5 -182t182.5 -76h80v-98h-80q-147 0 -252 104.5t-105 251.5v64q0 106 59.5 192t155.5 123q-82 45 -130 125t-48 174v29
q0 150 104.5 253t252.5 103h28q147 0 252 -104.5t105 -251.5v-287h223v-82h-2v-16h-221v-477q0 -49 34.5 -85t83.5 -36q43 2 75 27.5t42 66.5zM276 1034q0 -106 76 -182t183 -76h286v287q0 106 -75.5 182t-182.5 76h-28q-109 0 -184 -75t-75 -183v-29z" />
    <glyph glyph-name="quotesingle" unicode="'" 
d="M561 895v506h94v-506h-94z" />
    <glyph glyph-name="parenleft" unicode="(" 
d="M461 135v934q0 137 97 234.5t235 97.5h110v-98h-110q-96 0 -165 -69t-69 -165v-934q0 -98 68.5 -165.5t165.5 -67.5h110v-99h-110q-137 0 -234.5 97.5t-97.5 234.5z" />
    <glyph glyph-name="parenright" unicode=")" 
d="M756 135q0 -137 -97.5 -234.5t-234.5 -97.5h-111v99h111q96 0 164.5 67.5t68.5 165.5v934q0 96 -68.5 165t-164.5 69h-111v98h111q137 0 234.5 -97.5t97.5 -234.5v-934z" />
    <glyph glyph-name="asterisk" unicode="*" 
d="M559 1401h98v-318l304 99l30 -95l-303 -98l186 -258l-77 -57l-189 258l-188 -258l-78 57l186 258l-303 98l31 95l303 -99v318z" />
    <glyph glyph-name="plus" unicode="+" 
d="M205 543v98h354v354h98v-354h355v-98h-355v-355h-98v355h-354z" />
    <glyph glyph-name="comma" unicode="," 
d="M449 98h282v-106q0 -117 -69.5 -209t-178.5 -125l-28 94q80 25 129 92.5t49 155.5h-184v98z" />
    <glyph glyph-name="hyphen" unicode="-" 
d="M924 641v-98h-631v98h631z" />
    <glyph glyph-name="period" unicode="." 
d="M559 0v279h98v-279h-98z" />
    <glyph glyph-name="slash" unicode="/" 
d="M215 0v127q0 29 5 59.5t13.5 54t18.5 46t18.5 36t16.5 25.5l6 10l532 697q33 45 52.5 99t23.5 87l2 31v129h98v-129q0 -16 -3 -46t-28.5 -101.5t-68.5 -129.5l-530 -696q-57 -78 -58 -172v-127h-98z" />
    <glyph glyph-name="zero" unicode="0" 
d="M657 1419q147 0 252 -103.5t105 -252.5v-725q0 -147 -104.5 -251.5t-252.5 -104.5h-98q-145 0 -249.5 104t-104.5 252v725q0 150 104.5 253t249.5 103h98zM559 1321q-106 0 -181 -76t-75 -182v-596l612 612q-6 102 -80.5 172t-177.5 70h-98zM657 80q106 0 182 75.5
t76 182.5v598l-612 -612q6 -102 80 -173t176 -71h98z" />
    <glyph glyph-name="one" unicode="1" 
d="M248 1026l375 375h98v-1303h326v-98h-787v98h363v1164l-306 -306z" />
    <glyph glyph-name="two" unicode="2" 
d="M252 1151q29 117 125 192.5t219 75.5h74q145 0 250.5 -104.5t105.5 -251.5q0 -131 -78 -224.5t-221 -168.5l-115 -64q-166 -84 -220 -169t-54 -204v-135h688v-98h-786v233q0 158 77.5 264.5t253.5 196.5l103 58q137 72 195.5 145.5t58.5 165.5q0 109 -75 183.5t-183 74.5
h-74q-90 0 -159.5 -56.5t-90.5 -142.5z" />
    <glyph glyph-name="three" unicode="3" 
d="M209 250l94 29q20 -86 90 -142.5t160 -56.5h74q106 0 182 74.5t76 183.5v135q0 106 -76 182t-182 76h-160v98l371 474h-611v98h738v-98l-371 -474l51 -2q141 -6 239.5 -108.5t98.5 -245.5v-135q0 -147 -104.5 -251.5t-251.5 -104.5h-74q-123 0 -219 75.5t-125 192.5z" />
    <glyph glyph-name="four" unicode="4" 
d="M244 377v219q0 154 75 295l283 510l88 -47l-284 -512q-63 -117 -64 -246v-121h506v371h98v-842h-98v373h-604z" />
    <glyph glyph-name="five" unicode="5" 
d="M639 897q145 0 250.5 -105.5t105.5 -250.5v-203q0 -147 -104.5 -251.5t-251.5 -104.5h-74q-125 0 -221 74.5t-125 193.5l96 29q20 -86 89 -142.5t161 -56.5h74q106 0 182 75.5t76 182.5v203q0 106 -76 182t-182 76h-47q-92 0 -163 -58.5t-89 -144.5l-102 31v774h716v-98
h-618v-541q109 135 280 135h23z" />
    <glyph glyph-name="six" unicode="6" 
d="M651 897q145 0 251 -104.5t106 -251.5v-203q0 -147 -105.5 -251.5t-251.5 -104.5h-73q-147 0 -252 104t-105 252v725q0 150 104.5 253t252.5 103h73q123 0 219.5 -75.5t124.5 -192.5l-94 -29q-20 86 -90 142.5t-160 56.5h-73q-106 0 -182.5 -75t-76.5 -183v-305
q109 139 283 139h49zM909 338v203q0 106 -75.5 182t-182.5 76h-73q-106 0 -182.5 -76t-76.5 -182v-203q0 -106 76 -182t183 -76h73q106 0 182 76t76 182z" />
    <glyph glyph-name="seven" unicode="7" 
d="M209 1069v332h774v-129q0 -143 -76 -279l-272 -479l-4 -6q-2 -8 -8.5 -20.5t-13.5 -30t-13 -39t-12 -45t-9.5 -50t-3.5 -53.5v-270h-98v270q0 43 8 88t18.5 80t21.5 62.5t20 44.5l8 16l272 479q61 113 62 220v43h-576v-234h-98z" />
    <glyph glyph-name="eight" unicode="8" 
d="M791 731q217 -90 217 -307v-86q0 -147 -104.5 -251.5t-252.5 -104.5h-86q-147 0 -251.5 103t-104.5 253v90q0 102 57.5 188t149.5 125q-188 98 -189 299v23q0 147 104.5 251.5t252.5 104.5h49q145 0 250.5 -104.5t105.5 -251.5v-23q0 -100 -55 -184t-143 -125zM326 1040
q0 -100 68.5 -164.5t180.5 -82.5l70 -19q102 4 174 79t72 179v31q0 106 -76 182t-182 76h-49q-106 0 -182 -76t-76 -182v-23zM909 338v86q0 190 -252 248l-100 22q-104 -2 -177 -77.5t-73 -180.5v-98q0 -109 76 -183.5t182 -74.5h86q106 0 182 76t76 182z" />
    <glyph glyph-name="nine" unicode="9" 
d="M639 1419q147 0 251.5 -104.5t104.5 -251.5v-725q0 -150 -104.5 -253t-251.5 -103h-74q-123 0 -219 75.5t-125 192.5l94 29q20 -86 90 -142.5t160 -56.5h74q106 0 182 74.5t76 183.5v305q-109 -139 -283 -139h-49q-145 0 -250.5 104.5t-105.5 251.5v203
q0 147 105.5 251.5t250.5 104.5h74zM639 602q106 0 182 76t76 182v203q0 106 -76 182t-182 76h-74q-106 0 -182 -76t-76 -182v-203q0 -106 76 -182t182 -76h74z" />
    <glyph glyph-name="colon" unicode=":" 
d="M559 625v278h98v-278h-98zM559 0v279h98v-279h-98z" />
    <glyph glyph-name="semicolon" unicode=";" 
d="M559 606v285h98v-285h-98zM449 98h282v-106q0 -117 -69.5 -209t-178.5 -125l-28 94q80 25 129 92.5t49 155.5h-184v98z" />
    <glyph glyph-name="less" unicode="&#x3c;" 
d="M975 313l-37 -92l-745 301v135l745 301l37 -90l-686 -276z" />
    <glyph glyph-name="equal" unicode="=" 
d="M205 717v98h807v-98h-807zM1012 467v-98h-807v98h807z" />
    <glyph glyph-name="greater" unicode="&#x3e;" 
d="M195 313l686 279l-686 276l36 90l746 -301v-135l-746 -301z" />
    <glyph glyph-name="question" unicode="?" 
d="M195 1141q31 117 127 191.5t219 74.5h80q145 0 250.5 -104.5t105.5 -251.5q0 -205 -197 -320q-154 -96 -153 -221v-37h-99v37q0 184 201 303q150 94 150 238q0 106 -76 182t-182 76h-80q-90 0 -159 -55.5t-91 -141.5zM528 0v279h99v-279h-99z" />
    <glyph glyph-name="at" unicode="@" 
d="M662 1233q150 0 256 -106.5t106 -256.5v-655q0 -96 -68.5 -164.5t-164.5 -68.5q-127 0 -191 114q-63 -115 -190 -114q-96 0 -165 68.5t-69 164.5v305q0 98 68.5 166t165.5 68q94 0 149 -72v55h82v-522q0 -61 44 -106.5t106 -45.5q63 0 107 45.5t44 106.5v655
q0 117 -83 199t-197 82h-134q-98 0 -173.5 -61.5t-98.5 -155.5l-80 24q29 119 127 197t225 78h134zM559 215v305q0 63 -44 107.5t-105 44.5q-63 0 -107.5 -44t-44.5 -108v-305q0 -61 44 -106.5t108 -45.5q61 0 105 45.5t44 106.5z" />
    <glyph glyph-name="A" unicode="A" 
d="M993 563q37 -137 37 -295v-268h-98v268q0 14 -4 92h-637q-6 -59 -6 -92v-268h-99v268q0 135 37 295l195 711q16 63 69.5 104t121 41t120.5 -41t70 -104zM303 459h610q-4 33 -16 78l-192 708q-8 33 -35 54.5t-62 21.5t-61.5 -21.5t-34.5 -54.5l-193 -708q-12 -45 -16 -78z
" />
    <glyph glyph-name="B" unicode="B" 
d="M838 715q90 -41 145 -124t55 -185v-50q0 -147 -105.5 -251.5t-250.5 -104.5h-442v1401h430q147 0 251.5 -104.5t104.5 -252.5v-24q0 -98 -52 -180t-136 -125zM670 1303h-332v-541h332q106 0 182 75.5t76 182.5v24q0 106 -74.5 182.5t-183.5 76.5zM940 356v50
q0 106 -74.5 182t-183.5 76h-344v-566h344q106 0 182 76t76 182z" />
    <glyph glyph-name="C" unicode="C" 
d="M1020 1151l-94 -27q-23 86 -91.5 141.5t-158.5 55.5h-98q-106 0 -182.5 -76t-76.5 -182v-725q0 -109 76 -183.5t183 -74.5h98q90 0 158.5 55t91.5 141l94 -28q-29 -117 -125 -191.5t-219 -74.5h-98q-147 0 -252 103t-105 253v725q0 147 104.5 251.5t252.5 104.5h98
q123 0 219 -75.5t125 -192.5z" />
    <glyph glyph-name="D" unicode="D" 
d="M227 0v1401h432q147 0 251 -103.5t104 -253.5v-688q0 -150 -103.5 -253t-251.5 -103h-432zM326 98h333q106 0 181 75t75 183v688q0 109 -74.5 184t-181.5 75h-333v-1205z" />
    <glyph glyph-name="E" unicode="E" 
d="M246 0v1401h786v-98h-688v-553h625v-99h-625v-553h688v-98h-786z" />
    <glyph glyph-name="F" unicode="F" 
d="M289 0v1401h786v-98h-688v-572h627v-98h-627v-633h-98z" />
    <glyph glyph-name="G" unicode="G" 
d="M1008 1151l-95 -27q-23 86 -91 141.5t-158 55.5h-99q-106 0 -182 -75t-76 -183v-725q0 -109 76 -183.5t182 -74.5h99q106 0 182 74.5t76 183.5v313h-301v99h399v-412q0 -147 -105.5 -251.5t-250.5 -104.5h-99q-145 0 -250.5 104t-105.5 252v725q0 147 105.5 251.5
t250.5 104.5h99q123 0 219 -75.5t125 -192.5z" />
    <glyph glyph-name="H" unicode="H" 
d="M903 1401h98v-1401h-98v651h-590v-651h-98v1401h98v-651h590v651z" />
    <glyph glyph-name="I" unicode="I" 
d="M215 98h344v1205h-332v98h762v-98h-332v-1205h344v-98h-786v98z" />
    <glyph glyph-name="J" unicode="J" 
d="M250 1401h721v-1063q0 -147 -105.5 -251.5t-251.5 -104.5h-71q-123 0 -219.5 75.5t-126.5 190.5l94 28q23 -86 92.5 -141t159.5 -55h71q106 0 182 75.5t76 182.5v965h-622v98z" />
    <glyph glyph-name="K" unicode="K" 
d="M227 1401h99v-645h223l293 321q35 39 57.5 99.5t22.5 97.5v127h98v-129q0 -47 -27.5 -127t-79.5 -135l-282 -303l299 -316q53 -55 80.5 -135t27.5 -127v-129h-98v129q0 37 -23.5 96.5t-58.5 98.5l-313 333h-219v-657h-99v1401z" />
    <glyph glyph-name="L" unicode="L" 
d="M264 1401h98v-1303h670v-98h-768v1401z" />
    <glyph glyph-name="M" unicode="M" 
d="M166 0v1401h131l311 -832l312 832h131v-1401h-99v1221l-290 -779h-107l-291 779v-1221h-98z" />
    <glyph glyph-name="N" unicode="N" 
d="M197 1401h122l603 -1225v1225h98v-1401h-123l-602 1225v-1225h-98v1401z" />
    <glyph glyph-name="O" unicode="O" 
d="M559 -18q-145 0 -250.5 104t-105.5 252v725q0 147 105.5 251.5t250.5 104.5h98q147 0 252 -104.5t105 -251.5v-725q0 -147 -104.5 -251.5t-252.5 -104.5h-98zM559 80h98q109 0 183.5 74.5t74.5 183.5v725q0 109 -74.5 183.5t-183.5 74.5h-98q-109 0 -183.5 -75
t-74.5 -183v-725q0 -109 74.5 -183.5t183.5 -74.5z" />
    <glyph glyph-name="P" unicode="P" 
d="M264 0v1401h430q147 0 252 -104.5t105 -252.5v-122q0 -147 -105.5 -252t-251.5 -105h-332v-565h-98zM362 664h332q106 0 182 75.5t76 182.5v122q0 106 -75.5 182.5t-182.5 76.5h-332v-639z" />
    <glyph glyph-name="Q" unicode="Q" 
d="M657 1419q147 0 252 -104.5t105 -251.5v-725q0 -147 -104.5 -251.5t-252.5 -104.5v-338h-98v338q-145 0 -250.5 104t-105.5 252v725q0 147 105.5 251.5t250.5 104.5h98zM915 338v725q0 109 -74.5 183.5t-183.5 74.5h-98q-109 0 -183.5 -75t-74.5 -183v-725
q0 -109 75 -183.5t183 -74.5h98q109 0 183.5 74.5t74.5 183.5z" />
    <glyph glyph-name="R" unicode="R" 
d="M926 391q109 -117 108 -262v-129h-98v129q0 109 -82 195l-248 266h-274v-590h-99v1401h431q147 0 251.5 -104.5t104.5 -252.5v-98q0 -129 -82 -227t-207 -123zM332 1303v-615h332q106 0 182 76t76 182v98q0 106 -76 182.5t-182 76.5h-332z" />
    <glyph glyph-name="S" unicode="S" 
d="M174 250l94 26q23 -86 92.5 -141t159.5 -55h135q106 0 182 75.5t76 182.5q0 205 -219 289l-198 75q-295 111 -295 361q0 150 104.5 253t251.5 103h92q123 0 218.5 -74.5t125.5 -191.5l-94 -29q-23 86 -91.5 141.5t-158.5 55.5h-92q-106 0 -182 -75t-76 -183
q0 -94 53.5 -156.5t177.5 -111.5l203 -78q279 -111 279 -379q0 -147 -105.5 -251.5t-251.5 -104.5h-135q-123 0 -219 75.5t-127 192.5z" />
    <glyph glyph-name="T" unicode="T" 
d="M182 1401h852v-98h-377v-1303h-98v1303h-377v98z" />
    <glyph glyph-name="U" unicode="U" 
d="M207 1401h98v-1063q0 -109 75 -183.5t183 -74.5h99q106 0 182 75.5t76 182.5v1063h98v-1063q0 -147 -104.5 -251.5t-251.5 -104.5h-99q-147 0 -251.5 104t-104.5 252v1063z" />
    <glyph glyph-name="V" unicode="V" 
d="M186 1401h99v-273q0 -133 45 -260l280 -757q246 670 277 757q47 123 47 260v273h98v-273q0 -154 -51 -292l-311 -836h-123l-309 836q-51 139 -52 292v273z" />
    <glyph glyph-name="W" unicode="W" 
d="M143 1401h99v-275q0 -123 24 -260l129 -729l154 711h121l151 -705l129 723q25 137 25 260v275h98v-275q0 -129 -24 -276l-150 -850h-133l-156 733l-157 -733h-136l-149 850q-25 147 -25 276v275z" />
    <glyph glyph-name="X" unicode="X" 
d="M217 1401h98v-129q0 -43 14.5 -87t30.5 -67l15 -22l233 -305l234 305q59 80 59 176v129h98v-129q0 -129 -79 -236l-250 -323l264 -344q31 -39 57.5 -110t26.5 -130v-129h-98v129q0 39 -20.5 94.5t-43.5 83.5l-248 328l-248 -328q-23 -29 -43 -84t-20 -94v-129h-98v129
q0 57 26.5 128t57.5 112l264 344l-250 323l-6 13q-8 10 -16.5 23t-18.5 35.5t-18.5 47.5t-14.5 55.5t-6 61.5v129z" />
    <glyph glyph-name="Y" unicode="Y" 
d="M1010 1114q0 -111 -80 -231l-273 -344v-539h-98v539l-272 344q-8 8 -24.5 33.5t-36 83t-19.5 114.5v287h98v-287q0 -41 15.5 -85t27.5 -64.5t17 -24.5l243 -307l244 307l6 10q6 8 14.5 24.5t17.5 37t15 48t6 54.5v287h99v-287z" />
    <glyph glyph-name="Z" unicode="Z" 
d="M227 1401h760v-98l-665 -1205h684v-98h-795v98l666 1205h-650v98z" />
    <glyph glyph-name="bracketleft" unicode="[" 
d="M467 -197v1598h442v-98h-344v-1401h344v-99h-442z" />
    <glyph glyph-name="backslash" unicode="\" 
d="M1001 0h-98v127q0 41 -14.5 84t-28.5 65l-14 23l-531 696q-43 57 -68.5 129t-28.5 101.5t-3 46.5v129h98v-129q2 -115 78 -217l533 -697l6 -10q8 -12 16 -25.5t18.5 -36t18.5 -46t13 -54t5 -59.5v-127z" />
    <glyph glyph-name="bracketright" unicode="]" 
d="M750 -197h-443v99h344v1401h-344v98h443v-1598z" />
    <glyph glyph-name="asciicircum" unicode="^" 
d="M311 831l230 570h135l229 -570l-90 -38l-207 510l-207 -510z" />
    <glyph glyph-name="underscore" unicode="_" 
d="M233 -215v98h750v-98h-750z" />
    <glyph glyph-name="grave" unicode="`" 
d="M696 1155l-243 242l69 69l244 -241z" />
    <glyph glyph-name="a" unicode="a" 
d="M893 1044h98v-1044h-98v121q-109 -139 -283 -139h-49q-147 0 -251.5 104t-104.5 252v369q0 147 104.5 251.5t251.5 104.5h49q174 0 283 -139v120zM635 80q106 0 182 74.5t76 183.5v369q0 109 -76 183.5t-182 74.5h-74q-106 0 -182 -75t-76 -183v-369q0 -109 76 -183.5
t182 -74.5h74z" />
    <glyph glyph-name="b" unicode="b" 
d="M657 1063q147 0 252 -104.5t105 -251.5v-369q0 -147 -104.5 -251.5t-252.5 -104.5h-49q-174 0 -282 139v-121h-99v1401h99v-477q109 139 282 139h49zM915 338v369q0 109 -74.5 183.5t-183.5 74.5h-73q-109 0 -183.5 -75t-74.5 -183v-369q0 -109 74.5 -183.5t183.5 -74.5
h73q109 0 183.5 74.5t74.5 183.5z" />
    <glyph glyph-name="c" unicode="c" 
d="M233 338v369q0 147 104.5 251.5t252.5 104.5h74q123 0 219 -76t125 -192l-95 -29q-20 86 -89.5 142.5t-159.5 56.5h-74q-106 0 -182 -75t-76 -183v-369q0 -109 75.5 -183.5t182.5 -74.5h74q90 0 159.5 56.5t89.5 142.5l95 -29q-29 -117 -125.5 -192.5t-218.5 -75.5h-74
q-147 0 -252 104.5t-105 251.5z" />
    <glyph glyph-name="d" unicode="d" 
d="M891 1401h98v-1401h-98v121q-109 -139 -283 -139h-49q-147 0 -251.5 104t-104.5 252v369q0 147 104.5 251.5t251.5 104.5h49q174 0 283 -139v477zM633 80q109 0 183.5 74.5t74.5 183.5v369q0 109 -75 183.5t-183 74.5h-74q-109 0 -183.5 -75t-74.5 -183v-369
q0 -109 75 -183.5t183 -74.5h74z" />
    <glyph glyph-name="e" unicode="e" 
d="M578 1063h73q145 0 251 -104.5t106 -251.5v-199h-689v-170q0 -109 76 -183.5t183 -74.5h73q90 0 160 56.5t90 142.5l94 -29q-29 -117 -125 -192.5t-219 -75.5h-73q-147 0 -252 104t-105 252v369q0 147 105 251.5t252 104.5zM319 606h590v101q0 109 -75.5 183.5
t-182.5 74.5h-73q-106 0 -182.5 -75t-76.5 -183v-101z" />
    <glyph glyph-name="f" unicode="f" 
d="M215 0v98h234v756h-234v98h234v111q0 150 104 253t252 103h74q123 0 219 -75.5t125 -192.5l-95 -29q-20 86 -89.5 142.5t-159.5 56.5h-74q-109 0 -183.5 -75t-74.5 -183v-111h364v-98h-364v-756h473v-98h-805z" />
    <glyph glyph-name="g" unicode="g" 
d="M891 1044h98v-1062q0 -147 -104.5 -252t-251.5 -105h-74q-123 0 -219 76t-125 193l94 28q20 -86 90 -142t160 -56h74q106 0 182 75.5t76 182.5v213q-109 -139 -283 -140h-49q-145 0 -250.5 104.5t-105.5 252.5v295q0 147 104.5 251.5t251.5 104.5h49q176 0 283 -137v118z
M633 154q106 0 182 75.5t76 182.5v295q0 109 -75 183.5t-183 74.5h-74q-106 0 -182 -76t-76 -182v-295q0 -106 76 -182t182 -76h74z" />
    <glyph glyph-name="h" unicode="h" 
d="M651 1063q147 0 252 -104.5t105 -251.5v-707h-99v707q0 109 -75.5 183.5t-182.5 74.5h-73q-106 0 -182.5 -75t-76.5 -183v-707h-98v1401h98v-477q109 139 283 139h49z" />
    <glyph glyph-name="i" unicode="i" 
d="M602 1194v276h98v-276h-98zM295 1044h405v-946h351v-98h-824v98h375v848h-307v98z" />
    <glyph glyph-name="j" unicode="j" 
d="M727 1194v276h98v-276h-98zM256 1044h569v-1064q0 -147 -104.5 -251t-249.5 -104q-123 0 -218 75t-124 191l94 29q20 -86 89 -141t159 -55q106 0 181 74.5t75 181.5v966h-471v98z" />
    <glyph glyph-name="k" unicode="k" 
d="M246 1401h98v-836h256l201 166q37 33 63.5 89.5t26.5 92.5v131h98v-131q0 -25 -7 -59.5t-38 -94t-80 -102.5l-174 -141l209 -162q33 -27 71 -88t38 -137v-129h-99v129q0 25 -7 49.5t-18.5 42t-21.5 30.5t-18 19l-6 9l-238 188h-256v-467h-98v1401z" />
    <glyph glyph-name="l" unicode="l" 
d="M1149 248q-29 -117 -124 -191.5t-218 -74.5q-145 0 -249.5 103t-104.5 251v967h-308v98h406v-1065q0 -106 74.5 -181t181.5 -75q90 0 158.5 55t91.5 141z" />
    <glyph glyph-name="m" unicode="m" 
d="M823 1063q102 0 174 -71.5t72 -174.5v-817h-98v811q0 63 -45 108.5t-108.5 45.5t-108.5 -45.5t-45 -108.5v-811h-99v811q0 63 -45 108.5t-108.5 45.5t-108.5 -45.5t-45 -108.5v-811h-98v1044h98v-57q66 76 168 76q129 0 192 -109q74 109 205 109z" />
    <glyph glyph-name="n" unicode="n" 
d="M651 1063q147 0 252 -104.5t105 -251.5v-707h-99v707q0 109 -75.5 183.5t-182.5 74.5h-73q-106 0 -182.5 -75t-76.5 -183v-707h-98v1044h98v-120q109 139 283 139h49z" />
    <glyph glyph-name="o" unicode="o" 
d="M571 1063h74q147 0 251.5 -104.5t104.5 -251.5v-369q0 -147 -104 -251.5t-252 -104.5h-74q-145 0 -250.5 104t-105.5 252v369q0 147 105.5 251.5t250.5 104.5zM571 965q-109 0 -183.5 -75t-74.5 -183v-369q0 -109 75 -183.5t183 -74.5h74q109 0 183.5 74.5t74.5 183.5
v369q0 109 -74.5 183.5t-183.5 74.5h-74z" />
    <glyph glyph-name="p" unicode="p" 
d="M657 1063q147 0 252 -104.5t105 -251.5v-369q0 -147 -104.5 -251.5t-252.5 -104.5h-49q-174 0 -282 139v-477h-99v1400h99v-120q109 139 282 139h49zM915 338v369q0 109 -74.5 183.5t-183.5 74.5h-73q-109 0 -183.5 -75t-74.5 -183v-369q0 -109 74.5 -183.5t183.5 -74.5
h73q109 0 183.5 74.5t74.5 183.5z" />
    <glyph glyph-name="q" unicode="q" 
d="M891 1044h98v-1400h-98v477q-109 -139 -283 -139h-49q-147 0 -251.5 104t-104.5 252v369q0 147 104.5 251.5t251.5 104.5h49q174 0 283 -139v120zM633 80q109 0 183.5 74.5t74.5 183.5v369q0 109 -75 183.5t-183 74.5h-74q-109 0 -183.5 -75t-74.5 -183v-369
q0 -109 75 -183.5t183 -74.5h74z" />
    <glyph glyph-name="r" unicode="r" 
d="M141 0v98h209v609q0 147 104.5 251.5t252.5 104.5h73q123 0 220.5 -76t125.5 -192l-96 -29q-20 86 -89 142.5t-161 56.5h-73q-106 0 -182 -76t-76 -182v-609h503v-98h-811z" />
    <glyph glyph-name="s" unicode="s" 
d="M219 178l94 29q18 -55 65.5 -91t108.5 -36h234q76 0 130 54t54 130q0 72 -45 126t-121 67l-247 37q-111 16 -183.5 96t-72.5 190q0 119 82.5 201t199.5 82h197q92 0 166.5 -55.5t101.5 -141.5l-94 -28q-18 55 -65.5 91t-108.5 36h-197q-76 0 -130 -54.5t-54 -130.5
q0 -80 50 -129t122 -59l248 -39q111 -18 180.5 -98t69.5 -191q0 -117 -83 -199.5t-200 -82.5h-234q-92 0 -166.5 55t-101.5 141z" />
    <glyph glyph-name="t" unicode="t" 
d="M137 946v98h283v283h98v-283h516v-98h-516v-610q0 -106 75 -181t181 -75q90 0 158.5 56.5t89.5 139.5l94 -28q-29 -115 -124 -190.5t-218 -75.5q-145 0 -249.5 104t-104.5 250v610h-283z" />
    <glyph glyph-name="u" unicode="u" 
d="M215 1044h98v-706q0 -109 75 -183.5t183 -74.5h74q109 0 183.5 74.5t74.5 183.5v706h98v-706q0 -147 -104 -251.5t-252 -104.5h-74q-145 0 -250.5 104t-105.5 252v706z" />
    <glyph glyph-name="v" unicode="v" 
d="M205 1044h98v-129q0 -121 55 -241l250 -555l250 555q55 121 55 241v129h99v-129q0 -139 -64 -280l-286 -635h-107l-289 635q-61 137 -61 280v129z" />
    <glyph glyph-name="w" unicode="w" 
d="M141 913v131h99v-131q0 -121 30 -251l121 -500l164 704h107l163 -704l121 500q31 131 31 251v131h98v-131q0 -141 -33 -274l-153 -639h-115l-166 709l-166 -709h-114l-154 639q-33 133 -33 274z" />
    <glyph glyph-name="x" unicode="x" 
d="M217 1044h98v-129q0 -12 3.5 -34.5t27 -68.5t64.5 -79l198 -155l199 155q41 33 64.5 80t26.5 68.5t3 33.5v129h98v-129q0 -70 -36.5 -141.5t-94.5 -116.5l-178 -137l213 -168q109 -92 109 -223v-129h-99v129q0 76 -73 150l-232 184l-231 -184l-8 -9q-8 -8 -18.5 -21
t-22 -30.5t-18.5 -41t-7 -48.5v-129h-98v129q0 76 38 136.5t70 86.5l213 168l-178 137q-74 57 -102.5 134t-28.5 124v129z" />
    <glyph glyph-name="y" unicode="y" 
d="M213 1044h98v-131q0 -119 60 -227l241 -450l244 450q57 109 57 227v131h99v-131q0 -141 -70 -274l-481 -887q-16 -35 -64.5 -71.5t-115.5 -36.5h-160v98h160q55 0 94 57l182 334l-272 506q-72 129 -72 274v131z" />
    <glyph glyph-name="z" unicode="z" 
d="M254 1044h715v-98l-611 -848h629v-98h-751v98l610 848h-592v98z" />
    <glyph glyph-name="braceleft" unicode="{" 
d="M639 838q0 -76 -38 -138.5t-101 -97.5q63 -35 101 -98.5t38 -136.5v-269q0 -82 57.5 -139t139.5 -57h147v-99h-147q-123 0 -209 86t-86 209v269q0 76 -55.5 131t-131.5 55h-37v98h37q76 0 131.5 55.5t55.5 131.5v268q0 123 86 209t209 86h147v-98h-147
q-82 0 -139.5 -57.5t-57.5 -139.5v-268z" />
    <glyph glyph-name="bar" unicode="|" 
d="M559 -197v1598h98v-1598h-98z" />
    <glyph glyph-name="braceright" unicode="}" 
d="M862 651h37v-98h-37q-76 0 -131 -55.5t-55 -130.5v-269q0 -123 -86 -209t-209 -86h-148v99h148q82 0 139.5 57t57.5 139v269q0 74 37.5 137t101.5 98q-63 35 -101 97.5t-38 138.5v268q0 82 -57.5 139.5t-139.5 57.5h-148v98h148q123 0 209 -86t86 -209v-268
q0 -76 55 -131.5t131 -55.5z" />
    <glyph glyph-name="asciitilde" unicode="~" 
d="M217 469v23q0 98 68.5 166.5t165.5 68.5q106 0 167 -78q78 -92 148 -92q53 0 94 40t41 95v23h98v-23q0 -96 -68.5 -164.5t-164.5 -68.5q-106 0 -168 76q-78 94 -147 94q-55 0 -95.5 -40t-40.5 -97v-23h-98z" />
    <glyph glyph-name="uni00A0" unicode="&#xa0;" 
 />
    <glyph glyph-name="exclamdown" unicode="&#xa1;" 
d="M559 1044h98v-278h-98v278zM559 571h98v-927h-98v927z" />
    <glyph glyph-name="cent" unicode="&#xa2;" 
d="M664 254q90 0 159.5 56.5t89.5 142.5l95 -29q-29 -113 -121 -189.5t-213 -78.5v-156h-99v156q-143 6 -242.5 109.5t-99.5 246.5v369q0 143 99.5 246.5t242.5 109.5v164h99v-164q121 -2 213 -79t121 -189l-95 -29q-20 86 -89.5 142.5t-159.5 56.5h-74q-106 0 -182 -76
t-76 -182v-369q0 -106 75.5 -182t182.5 -76h74z" />
    <glyph glyph-name="sterling" unicode="&#xa3;" 
d="M1034 252l94 -29q-29 -98 -110.5 -160.5t-186.5 -62.5h-663v98h39q47 0 82 35t35 84v434h-156v99h156v313q0 147 104 251.5t252 104.5q123 0 219 -75.5t125 -192.5l-94 -27q-23 86 -91.5 141.5t-158.5 55.5q-106 0 -182 -76t-76 -182v-313h469v-99h-469v-411
q0 -84 -62 -142h471q72 0 128.5 43t74.5 111z" />
    <glyph glyph-name="currency" unicode="&#xa4;" 
d="M993 633q0 -119 -71 -213l174 -174l-70 -70l-174 174q-94 -72 -215 -71h-57q-121 0 -215 71l-175 -174l-69 70l174 174q-72 94 -72 213v57q0 123 74 215l-176 176l69 70l177 -176q94 72 213 72h57q119 0 213 -72l176 176l70 -70l-176 -176q74 -92 73 -215v-57zM580 377
h57q106 0 182 74.5t76 181.5v57q0 106 -76 182t-182 76h-57q-106 0 -182 -75.5t-76 -182.5v-57q0 -106 76 -181t182 -75z" />
    <glyph glyph-name="yen" unicode="&#xa5;" 
d="M1010 1114q0 -111 -80 -231l-76 -97h135v-98h-213l-108 -137h321v-98h-332v-453h-98v453h-332v98h322l-109 137h-213v98h135l-75 97q-8 8 -24.5 33.5t-36 83t-19.5 114.5v287h98v-287q0 -41 15.5 -85t27.5 -64.5t17 -24.5l243 -307l244 307l6 10q6 8 14.5 24.5t17.5 37
t15 48t6 54.5v287h99v-287z" />
    <glyph glyph-name="brokenbar" unicode="&#xa6;" 
d="M559 731v670h98v-670h-98zM559 -197v670h98v-670h-98z" />
    <glyph glyph-name="section" unicode="&#xa7;" 
d="M995 1151l-94 -29q-20 86 -90 142.5t-160 56.5h-80q-109 0 -183.5 -75t-74.5 -183q0 -207 254 -270l197 -48q152 -37 241 -130t89 -230q0 -145 -109 -254q31 -68 31 -149q0 -147 -104.5 -252t-252.5 -105h-79q-123 0 -219.5 76t-127.5 193l97 28q20 -86 88.5 -142
t161.5 -56h79q106 0 182.5 75.5t76.5 182.5q0 207 -256 268l-195 47q-162 41 -246 135t-84 227q0 141 107 256q-29 68 -29 148q0 147 104.5 251.5t251.5 104.5h80q125 0 220 -75.5t124 -192.5zM236 659q0 -201 256 -266l194 -47q152 -37 240 -135q70 82 69 174
q0 84 -59 157.5t-197 106.5l-194 49q-172 43 -240 133q-69 -88 -69 -172z" />
    <glyph glyph-name="dieresis" unicode="&#xa8;" 
d="M424 1223v276h98v-276h-98zM694 1223v276h99v-276h-99z" />
    <glyph glyph-name="copyright" unicode="&#xa9;" 
d="M162 569v262q0 186 130 316.5t316 130.5q184 0 315.5 -130t131.5 -317v-262q0 -184 -131 -315t-316 -131q-186 0 -316 131t-130 315zM236 569q0 -154 108.5 -263t263.5 -109q154 0 263.5 109.5t109.5 262.5v262q0 156 -109.5 264.5t-263.5 108.5q-156 0 -264 -108.5
t-108 -264.5v-262zM791 883l-72 -23q-6 29 -28.5 48.5t-53.5 19.5h-41q-35 0 -59.5 -24.5t-24.5 -59.5v-289q0 -35 24.5 -59.5t59.5 -24.5h41q31 0 53.5 19.5t28.5 48.5l72 -25q-14 -51 -57.5 -84t-96.5 -33h-41q-66 0 -111 46t-45 112v289q0 66 45 111.5t111 45.5h41
q55 0 97.5 -33.5t56.5 -84.5z" />
    <glyph glyph-name="ordfeminine" unicode="&#xaa;" 
d="M346 983v209q0 92 64.5 156.5t154.5 64.5h25q104 0 158 -84v72h81v-627h-81v72q-53 -84 -158 -84h-25q-90 0 -154.5 65.5t-64.5 155.5zM428 983q0 -57 40 -98t97 -41h45q57 0 97.5 41t40.5 98v209q0 57 -40 98t-98 41h-45q-57 0 -97 -41t-40 -98v-209zM360 598h469v-82
h-469v82z" />
    <glyph glyph-name="guillemotleft" unicode="&#xab;" 
d="M188 592l387 387l66 -66l-322 -321l322 -320l-66 -65zM578 592l387 387l65 -66l-321 -321l321 -320l-65 -65z" />
    <glyph glyph-name="logicalnot" unicode="&#xac;" 
d="M190 645v98h793v-436h-98v338h-695z" />
    <glyph glyph-name="registered" unicode="&#xae;" 
d="M162 569v262q0 186 130 316.5t316 130.5q184 0 315.5 -130t131.5 -317v-262q0 -184 -131 -315t-316 -131q-186 0 -316 131t-130 315zM236 569q0 -154 108.5 -263t263.5 -109q154 0 263.5 109.5t109.5 262.5v262q0 156 -109.5 264.5t-263.5 108.5q-156 0 -264 -108.5
t-108 -264.5v-262zM446 999h189q66 0 112 -46t46 -111v-41q0 -51 -30 -91t-77 -55v-2l62 -65q51 -51 51 -123v-53h-74v53q0 35 -29 72l-100 106h-76v-231h-74v587zM520 926v-209h115q35 0 60.5 25.5t25.5 58.5v41q0 35 -25.5 59.5t-60.5 24.5h-115z" />
    <glyph glyph-name="macron" unicode="&#xaf;" 
d="M324 1231v98h569v-98h-569z" />
    <glyph glyph-name="degree" unicode="&#xb0;" 
d="M301 1112q0 127 90 217t217 90t217 -90t90 -217t-90 -216t-217 -89t-217 89t-90 216zM399 1112q0 -86 61.5 -146.5t147.5 -60.5q88 0 148.5 60.5t60.5 146.5t-60.5 147.5t-148.5 61.5q-86 0 -147.5 -61.5t-61.5 -147.5z" />
    <glyph glyph-name="plusminus" unicode="&#xb1;" 
d="M205 686v98h354v265h98v-265h355v-98h-355v-264h-98v264h-354zM205 182v99h807v-99h-807z" />
    <glyph glyph-name="uni00B2" unicode="&#xb2;" 
d="M373 1604q16 72 75.5 118.5t137.5 46.5h47q90 0 154.5 -65.5t64.5 -155.5q0 -86 -45 -142t-139 -106l-70 -38q-92 -47 -119.5 -93.5t-27.5 -121.5v-50h401v-82h-483v129q0 106 44 172t150 119l58 33q84 43 116.5 84t32.5 96q0 57 -41 97.5t-96 40.5h-47q-49 0 -87 -30
t-48 -77z" />
    <glyph glyph-name="uni00B3" unicode="&#xb3;" 
d="M354 1071l80 25q12 -47 50 -77t83 -30h47q57 0 97.5 40t40.5 97v76q0 57 -40 97t-98 40h-106v84l207 254h-346v82h452v-82l-205 -254l27 -4q80 -10 135.5 -71.5t55.5 -145.5v-76q0 -92 -63.5 -156.5t-156.5 -64.5h-47q-74 0 -133.5 47t-79.5 119z" />
    <glyph glyph-name="acute" unicode="&#xb4;" 
d="M522 1155l-69 70l243 241l70 -69z" />
    <glyph glyph-name="uni00B5" unicode="&#xb5;" 
d="M1098 98h30v-98h-30q-70 0 -126.5 40t-78.5 103q-45 -76 -122 -118.5t-167 -42.5h-41q-174 0 -274 141v-479h-99v1400h99v-706q0 -109 74.5 -183.5t183.5 -74.5h74q109 0 183.5 74.5t74.5 183.5v706h98v-823q0 -51 36 -87t85 -36z" />
    <glyph glyph-name="paragraph" unicode="&#xb6;" 
d="M190 838v209q0 147 105.5 251.5t251.5 104.5h428v-1757h-98v1659h-330q-106 0 -182 -76t-76 -182v-209q0 -106 75.5 -182t182.5 -76h158v-99h-158q-145 0 -251 105t-106 252z" />
    <glyph glyph-name="periodcentered" unicode="&#xb7;" 
d="M559 451v280h98v-280h-98z" />
    <glyph glyph-name="cedilla" unicode="&#xb8;" 
d="M657 -104q78 -16 131.5 -79t53.5 -145q0 -94 -66.5 -160.5t-161.5 -66.5h-57v98h57q53 0 91 37t38 92q0 53 -37.5 91t-91.5 38h-55v199h98v-104z" />
    <glyph glyph-name="uni00B9" unicode="&#xb9;" 
d="M360 1524l234 233h78v-760h188v-82h-485v82h215v639l-170 -172z" />
    <glyph glyph-name="ordmasculine" unicode="&#xba;" 
d="M367 983v211q0 90 64.5 154.5t154.5 64.5h45q90 0 154.5 -64.5t64.5 -154.5v-211q0 -90 -64.5 -154.5t-154.5 -64.5h-45q-90 0 -154.5 64.5t-64.5 154.5zM449 983q0 -57 39.5 -97t97.5 -40h45q57 0 97 40t40 97v211q0 55 -40 96t-97 41h-45q-57 0 -97 -41t-40 -96v-211z
M381 516v82h455v-82h-455z" />
    <glyph glyph-name="guillemotright" unicode="&#xbb;" 
d="M639 592l-387 -385l-66 65l322 320l-322 321l66 66zM1028 592l-387 -385l-66 65l322 320l-322 321l66 66z" />
    <glyph glyph-name="onequarter" unicode="&#xbc;" 
d="M360 1524l234 233h78v-760h188v-82h-485v82h215v639l-170 -172zM147 741h922v-82h-922v82zM395 -141v141q0 94 47 180l170 309l74 -40l-172 -308q-16 -29 -25.5 -64.5t-9.5 -56.5l-2 -20v-59h271v211h81v-508h-81v215h-353z" />
    <glyph glyph-name="onehalf" unicode="&#xbd;" 
d="M360 1524l234 233h78v-760h188v-82h-485v82h215v639l-170 -172zM147 741h922v-82h-922v82zM373 332q16 72 75.5 119t137.5 47h47q90 0 154.5 -65.5t64.5 -156.5q0 -86 -45 -142t-139 -105l-70 -39q-92 -47 -119.5 -93.5t-27.5 -121.5v-49h401v-82h-483v129
q0 106 44 171.5t150 118.5l58 33q84 43 116.5 84t32.5 96q0 57 -41 97.5t-96 40.5h-47q-49 0 -87 -30t-48 -77z" />
    <glyph glyph-name="threequarters" unicode="&#xbe;" 
d="M354 1071l80 25q12 -47 50 -77t83 -30h47q57 0 97.5 40t40.5 97v76q0 57 -40 97t-98 40h-106v84l207 254h-346v82h452v-82l-205 -254l27 -4q80 -10 135.5 -71.5t55.5 -145.5v-76q0 -92 -63.5 -156.5t-156.5 -64.5h-47q-74 0 -133.5 47t-79.5 119zM147 741h922v-82h-922
v82zM395 -141v141q0 94 47 180l170 309l74 -40l-172 -308q-16 -29 -25.5 -64.5t-9.5 -56.5l-2 -20v-59h271v211h81v-508h-81v215h-353z" />
    <glyph glyph-name="questiondown" unicode="&#xbf;" 
d="M688 1032v-278h-98v278h98zM1022 -109q-31 -117 -127 -191.5t-219 -74.5h-80q-145 0 -250.5 104.5t-105.5 252.5q0 205 196 319q154 96 154 221v37h98v-37q0 -184 -201 -303q-150 -94 -149 -237q0 -106 75.5 -182t182.5 -76h80q90 0 158.5 55t91.5 141z" />
    <glyph glyph-name="Agrave" unicode="&#xc0;" 
d="M682 1581l-70 -70l-243 242l69 70zM993 563q37 -137 37 -295v-268h-98v268q0 14 -4 92h-637q-6 -59 -6 -92v-268h-99v268q0 135 37 295l195 711q16 63 69.5 104t121 41t120.5 -41t70 -104zM303 459h610q-4 33 -16 78l-192 708q-8 33 -35 54.5t-62 21.5t-61.5 -21.5
t-34.5 -54.5l-193 -708q-12 -45 -16 -78z" />
    <glyph glyph-name="Aacute" unicode="&#xc1;" 
d="M848 1753l-244 -242l-69 70l243 242zM993 563q37 -137 37 -295v-268h-98v268q0 14 -4 92h-637q-6 -59 -6 -92v-268h-99v268q0 135 37 295l195 711q16 63 69.5 104t121 41t120.5 -41t70 -104zM303 459h610q-4 33 -16 78l-192 708q-8 33 -35 54.5t-62 21.5t-61.5 -21.5
t-34.5 -54.5l-193 -708q-12 -45 -16 -78z" />
    <glyph glyph-name="Acircumflex" unicode="&#xc2;" 
d="M608 1759l-209 -211l-69 72l237 238h82l238 -238l-70 -72zM993 563q37 -137 37 -295v-268h-98v268q0 14 -4 92h-637q-6 -59 -6 -92v-268h-99v268q0 135 37 295l195 711q16 63 69.5 104t121 41t120.5 -41t70 -104zM303 459h610q-4 33 -16 78l-192 708q-8 33 -35 54.5
t-62 21.5t-61.5 -21.5t-34.5 -54.5l-193 -708q-12 -45 -16 -78z" />
    <glyph glyph-name="Atilde" unicode="&#xc3;" 
d="M315 1583v-22h-98v22q0 98 68.5 167t165.5 69q106 0 167 -78q78 -92 148 -92q53 0 94 40t41 95v22h98v-22q0 -96 -68.5 -165t-164.5 -69q-106 0 -168 76q-78 94 -147 94q-55 0 -95.5 -40t-40.5 -97zM993 563q37 -137 37 -295v-268h-98v268q0 14 -4 92h-637q-6 -59 -6 -92
v-268h-99v268q0 135 37 295l195 711q16 63 69.5 104t121 41t120.5 -41t70 -104zM303 459h610q-4 33 -16 78l-192 708q-8 33 -35 54.5t-62 21.5t-61.5 -21.5t-34.5 -54.5l-193 -708q-12 -45 -16 -78z" />
    <glyph glyph-name="Adieresis" unicode="&#xc4;" 
d="M522 1827v-277h-98v277h98zM793 1827v-277h-99v277h99zM993 563q37 -137 37 -295v-268h-98v268q0 14 -4 92h-637q-6 -59 -6 -92v-268h-99v268q0 135 37 295l195 711q16 63 69.5 104t121 41t120.5 -41t70 -104zM303 459h610q-4 33 -16 78l-192 708q-8 33 -35 54.5
t-62 21.5t-61.5 -21.5t-34.5 -54.5l-193 -708q-12 -45 -16 -78z" />
    <glyph glyph-name="Aring" unicode="&#xc5;" 
d="M993 563q37 -137 37 -295v-268h-98v268q0 14 -4 92h-637q-6 -59 -6 -92v-268h-99v268q0 135 37 295l195 711q16 55 55 92q-90 70 -90 182q0 94 66.5 161t161 67t161 -67t66.5 -161q0 -115 -93 -182q37 -37 54 -92zM610.5 1677q-53.5 0 -91.5 -37.5t-38 -91t38 -91.5
t91.5 -38t91 38t37.5 91.5t-37.5 91t-91 37.5zM303 459h610q-4 33 -16 78l-192 708q-8 33 -35 54.5t-62 21.5t-61.5 -21.5t-34.5 -54.5l-193 -708q-12 -45 -16 -78z" />
    <glyph glyph-name="AE" unicode="&#xc6;" 
d="M1051 1303h-351v-553h289v-99h-289v-553h351v-98h-449v360h-338q-4 -78 -4 -92v-268h-98v268q0 164 37 295l194 711q16 63 69.5 104t121.5 41q45 0 82 -18h385v-98zM279 459h323v860q-6 2 -18 2q-35 0 -61.5 -21.5t-35.5 -54.5l-192 -708q-12 -45 -16 -78z" />
    <glyph glyph-name="Ccedilla" unicode="&#xc7;" 
d="M676 80q90 0 158.5 55t91.5 141l94 -28q-29 -117 -125 -191.5t-219 -74.5h-19v-86q78 -16 131.5 -79t53.5 -145q0 -94 -66.5 -160.5t-161.5 -66.5h-57v98h57q53 0 91 37t38 92q0 53 -37.5 91t-91.5 38h-55v181q-141 8 -239.5 110.5t-98.5 245.5v725q0 147 104.5 251.5
t252.5 104.5h98q123 0 219 -75.5t125 -192.5l-94 -27q-23 86 -91.5 141.5t-158.5 55.5h-98q-106 0 -182.5 -76t-76.5 -182v-725q0 -109 76 -183.5t183 -74.5h98z" />
    <glyph glyph-name="Egrave" unicode="&#xc8;" 
d="M639 1511l-244 242l70 70l244 -242zM246 0v1401h786v-98h-688v-553h625v-99h-625v-553h688v-98h-786z" />
    <glyph glyph-name="Eacute" unicode="&#xc9;" 
d="M631 1511l-70 70l244 242l69 -70zM246 0v1401h786v-98h-688v-553h625v-99h-625v-553h688v-98h-786z" />
    <glyph glyph-name="Ecircumflex" unicode="&#xca;" 
d="M356 1604l238 237h82l237 -237l-69 -72l-209 211l-209 -211zM246 0v1401h786v-98h-688v-553h625v-99h-625v-553h688v-98h-786z" />
    <glyph glyph-name="Edieresis" unicode="&#xcb;" 
d="M451 1550v277h98v-277h-98zM721 1550v277h98v-277h-98zM246 0v1401h786v-98h-688v-553h625v-99h-625v-553h688v-98h-786z" />
    <glyph glyph-name="Igrave" unicode="&#xcc;" 
d="M612 1511l-243 242l69 70l244 -242zM215 98h344v1205h-332v98h762v-98h-332v-1205h344v-98h-786v98z" />
    <glyph glyph-name="Iacute" unicode="&#xcd;" 
d="M604 1511l-69 70l243 242l70 -70zM215 98h344v1205h-332v98h762v-98h-332v-1205h344v-98h-786v98z" />
    <glyph glyph-name="Icircumflex" unicode="&#xce;" 
d="M330 1604l237 237h82l238 -237l-70 -72l-209 211l-209 -211zM215 98h344v1205h-332v98h762v-98h-332v-1205h344v-98h-786v98z" />
    <glyph glyph-name="Idieresis" unicode="&#xcf;" 
d="M424 1550v277h98v-277h-98zM694 1550v277h99v-277h-99zM215 98h344v1205h-332v98h762v-98h-332v-1205h344v-98h-786v98z" />
    <glyph glyph-name="Eth" unicode="&#xd0;" 
d="M682 1401q147 0 250.5 -103.5t103.5 -253.5v-688q0 -150 -103.5 -253t-250.5 -103h-432v651h-164v99h164v651h432zM938 356v688q0 109 -75 184t-181 75h-334v-553h303v-99h-303v-553h334q106 0 181 74.5t75 183.5z" />
    <glyph glyph-name="Ntilde" unicode="&#xd1;" 
d="M217 1561v22q0 98 68.5 167t165.5 69q106 0 167 -78q78 -92 148 -92q53 0 94 40t41 95v22h98v-22q0 -96 -68.5 -165t-164.5 -69q-106 0 -168 76q-78 94 -147 94q-55 0 -95.5 -40t-40.5 -97v-22h-98zM197 1401h122l603 -1225v1225h98v-1401h-123l-602 1225v-1225h-98v1401
z" />
    <glyph glyph-name="Ograve" unicode="&#xd2;" 
d="M612 1511l-243 242l69 70l244 -242zM559 -18q-145 0 -250.5 104t-105.5 252v725q0 147 105.5 251.5t250.5 104.5h98q147 0 252 -104.5t105 -251.5v-725q0 -147 -104.5 -251.5t-252.5 -104.5h-98zM559 80h98q109 0 183.5 74.5t74.5 183.5v725q0 109 -74.5 183.5
t-183.5 74.5h-98q-109 0 -183.5 -75t-74.5 -183v-725q0 -109 74.5 -183.5t183.5 -74.5z" />
    <glyph glyph-name="Oacute" unicode="&#xd3;" 
d="M604 1511l-69 70l243 242l70 -70zM559 -18q-145 0 -250.5 104t-105.5 252v725q0 147 105.5 251.5t250.5 104.5h98q147 0 252 -104.5t105 -251.5v-725q0 -147 -104.5 -251.5t-252.5 -104.5h-98zM559 80h98q109 0 183.5 74.5t74.5 183.5v725q0 109 -74.5 183.5t-183.5 74.5
h-98q-109 0 -183.5 -75t-74.5 -183v-725q0 -109 74.5 -183.5t183.5 -74.5z" />
    <glyph glyph-name="Ocircumflex" unicode="&#xd4;" 
d="M330 1604l237 237h82l238 -237l-70 -72l-209 211l-209 -211zM559 -18q-145 0 -250.5 104t-105.5 252v725q0 147 105.5 251.5t250.5 104.5h98q147 0 252 -104.5t105 -251.5v-725q0 -147 -104.5 -251.5t-252.5 -104.5h-98zM559 80h98q109 0 183.5 74.5t74.5 183.5v725
q0 109 -74.5 183.5t-183.5 74.5h-98q-109 0 -183.5 -75t-74.5 -183v-725q0 -109 74.5 -183.5t183.5 -74.5z" />
    <glyph glyph-name="Otilde" unicode="&#xd5;" 
d="M217 1561v22q0 98 68.5 167t165.5 69q106 0 167 -78q78 -92 148 -92q53 0 94 40t41 95v22h98v-22q0 -96 -68.5 -165t-164.5 -69q-106 0 -168 76q-78 94 -147 94q-55 0 -95.5 -40t-40.5 -97v-22h-98zM559 -18q-145 0 -250.5 104t-105.5 252v725q0 147 105.5 251.5
t250.5 104.5h98q147 0 252 -104.5t105 -251.5v-725q0 -147 -104.5 -251.5t-252.5 -104.5h-98zM559 80h98q109 0 183.5 74.5t74.5 183.5v725q0 109 -74.5 183.5t-183.5 74.5h-98q-109 0 -183.5 -75t-74.5 -183v-725q0 -109 74.5 -183.5t183.5 -74.5z" />
    <glyph glyph-name="Odieresis" unicode="&#xd6;" 
d="M424 1550v277h98v-277h-98zM694 1550v277h99v-277h-99zM559 -18q-145 0 -250.5 104t-105.5 252v725q0 147 105.5 251.5t250.5 104.5h98q147 0 252 -104.5t105 -251.5v-725q0 -147 -104.5 -251.5t-252.5 -104.5h-98zM559 80h98q109 0 183.5 74.5t74.5 183.5v725
q0 109 -74.5 183.5t-183.5 74.5h-98q-109 0 -183.5 -75t-74.5 -183v-725q0 -109 74.5 -183.5t183.5 -74.5z" />
    <glyph glyph-name="multiply" unicode="&#xd7;" 
d="M268 322l269 270l-269 270l70 68l268 -268l273 268l69 -68l-272 -270l272 -273l-69 -67l-273 270l-268 -270z" />
    <glyph glyph-name="Oslash" unicode="&#xd8;" 
d="M1098 1405l-117 -191q33 -76 33 -151v-725q0 -147 -104.5 -251.5t-252.5 -104.5h-98q-156 0 -262 116l-96 -157l-84 51l121 194q-35 74 -35 152v725q0 147 105.5 251.5t250.5 104.5h98q158 0 265 -116l92 151zM301 338q0 -12 4 -41l561 917q-76 106 -209 107h-98
q-109 0 -183.5 -75t-74.5 -183v-725zM915 1063q0 27 -2 39l-563 -918q78 -104 209 -104h98q109 0 183.5 74.5t74.5 183.5v725z" />
    <glyph glyph-name="Ugrave" unicode="&#xd9;" 
d="M612 1511l-243 242l69 70l244 -242zM207 1401h98v-1063q0 -109 75 -183.5t183 -74.5h99q106 0 182 75.5t76 182.5v1063h98v-1063q0 -147 -104.5 -251.5t-251.5 -104.5h-99q-147 0 -251.5 104t-104.5 252v1063z" />
    <glyph glyph-name="Uacute" unicode="&#xda;" 
d="M604 1511l-69 70l243 242l70 -70zM207 1401h98v-1063q0 -109 75 -183.5t183 -74.5h99q106 0 182 75.5t76 182.5v1063h98v-1063q0 -147 -104.5 -251.5t-251.5 -104.5h-99q-147 0 -251.5 104t-104.5 252v1063z" />
    <glyph glyph-name="Ucircumflex" unicode="&#xdb;" 
d="M330 1604l237 237h82l238 -237l-70 -72l-209 211l-209 -211zM207 1401h98v-1063q0 -109 75 -183.5t183 -74.5h99q106 0 182 75.5t76 182.5v1063h98v-1063q0 -147 -104.5 -251.5t-251.5 -104.5h-99q-147 0 -251.5 104t-104.5 252v1063z" />
    <glyph glyph-name="Udieresis" unicode="&#xdc;" 
d="M424 1550v277h98v-277h-98zM694 1550v277h99v-277h-99zM207 1401h98v-1063q0 -109 75 -183.5t183 -74.5h99q106 0 182 75.5t76 182.5v1063h98v-1063q0 -147 -104.5 -251.5t-251.5 -104.5h-99q-147 0 -251.5 104t-104.5 252v1063z" />
    <glyph glyph-name="Yacute" unicode="&#xdd;" 
d="M604 1511l-69 70l243 242l70 -70zM1010 1114q0 -111 -80 -231l-273 -344v-539h-98v539l-272 344q-8 8 -24.5 33.5t-36 83t-19.5 114.5v287h98v-287q0 -41 15.5 -85t27.5 -64.5t17 -24.5l243 -307l244 307l6 10q6 8 14.5 24.5t17.5 37t15 48t6 54.5v287h99v-287z" />
    <glyph glyph-name="Thorn" unicode="&#xde;" 
d="M264 0v1401h98v-285h332q147 0 252 -104.5t105 -249.5v-125q0 -147 -104.5 -251.5t-252.5 -104.5h-332v-281h-98zM362 379h332q109 0 183.5 74.5t74.5 183.5v125q0 106 -75.5 181t-182.5 75h-332v-639z" />
    <glyph glyph-name="germandbls" unicode="&#xdf;" 
d="M831 727q90 -41 145.5 -124t55.5 -185v-62q0 -147 -105.5 -251.5t-250.5 -104.5h-197v98h197q106 0 182 76t76 182v62q0 106 -76 182t-182 76h-154v98h142q106 0 182 75t76 181v27q0 106 -76 182t-182 76h-62q-106 0 -182 -76t-76 -182v-1057h-98v1057q0 147 104.5 251.5
t251.5 104.5h62q145 0 250.5 -104.5t105.5 -251.5v-27q0 -98 -51.5 -178t-137.5 -125z" />
    <glyph glyph-name="agrave" unicode="&#xe0;" 
d="M682 1225l-70 -70l-243 242l69 69zM893 1044h98v-1044h-98v121q-109 -139 -283 -139h-49q-147 0 -251.5 104t-104.5 252v369q0 147 104.5 251.5t251.5 104.5h49q174 0 283 -139v120zM635 80q106 0 182 74.5t76 183.5v369q0 109 -76 183.5t-182 74.5h-74q-106 0 -182 -75
t-76 -183v-369q0 -109 76 -183.5t182 -74.5h74z" />
    <glyph glyph-name="aacute" unicode="&#xe1;" 
d="M848 1397l-244 -242l-69 70l243 241zM893 1044h98v-1044h-98v121q-109 -139 -283 -139h-49q-147 0 -251.5 104t-104.5 252v369q0 147 104.5 251.5t251.5 104.5h49q174 0 283 -139v120zM635 80q106 0 182 74.5t76 183.5v369q0 109 -76 183.5t-182 74.5h-74
q-106 0 -182 -75t-76 -183v-369q0 -109 76 -183.5t182 -74.5h74z" />
    <glyph glyph-name="acircumflex" unicode="&#xe2;" 
d="M608 1386l-209 -210l-69 71l237 238h82l238 -238l-70 -71zM893 1044h98v-1044h-98v121q-109 -139 -283 -139h-49q-147 0 -251.5 104t-104.5 252v369q0 147 104.5 251.5t251.5 104.5h49q174 0 283 -139v120zM635 80q106 0 182 74.5t76 183.5v369q0 109 -76 183.5
t-182 74.5h-74q-106 0 -182 -75t-76 -183v-369q0 -109 76 -183.5t182 -74.5h74z" />
    <glyph glyph-name="atilde" unicode="&#xe3;" 
d="M901 1450h98v-23q0 -96 -68.5 -164.5t-164.5 -68.5q-106 0 -168 76q-78 94 -147 94q-55 0 -95.5 -40t-40.5 -97v-23h-98v23q0 98 68.5 166.5t165.5 68.5q106 0 167 -78q78 -92 148 -92q53 0 94 40t41 95v23zM893 924v120h98v-1044h-98v121q-109 -139 -283 -139h-49
q-147 0 -251.5 104t-104.5 252v369q0 147 104.5 251.5t251.5 104.5h49q174 0 283 -139zM635 80q106 0 182 74.5t76 183.5v369q0 109 -76 183.5t-182 74.5h-74q-106 0 -182 -75t-76 -183v-369q0 -109 76 -183.5t182 -74.5h74z" />
    <glyph glyph-name="adieresis" unicode="&#xe4;" 
d="M522 1470v-276h-98v276h98zM793 1470v-276h-99v276h99zM893 1044h98v-1044h-98v121q-109 -139 -283 -139h-49q-147 0 -251.5 104t-104.5 252v369q0 147 104.5 251.5t251.5 104.5h49q174 0 283 -139v120zM635 80q106 0 182 74.5t76 183.5v369q0 109 -76 183.5t-182 74.5
h-74q-106 0 -182 -75t-76 -183v-369q0 -109 76 -183.5t182 -74.5h74z" />
    <glyph glyph-name="aring" unicode="&#xe5;" 
d="M893 1044h98v-1044h-98v121q-109 -139 -283 -139h-49q-147 0 -251.5 104t-104.5 252v369q0 115 64.5 206t168.5 127q-57 63 -57 152q0 94 65.5 160.5t161.5 66.5q94 0 161 -66.5t67 -160.5q0 -98 -72 -164q74 -35 129 -104v120zM608.5 1321q-53.5 0 -91.5 -38t-38 -91
t38 -91t91.5 -38t91 38t37.5 91t-37.5 91t-91 38zM635 80q106 0 182 74.5t76 183.5v369q0 109 -76 183.5t-182 74.5h-74q-106 0 -182 -75t-76 -183v-369q0 -109 76 -183.5t182 -74.5h74z" />
    <glyph glyph-name="ae" unicode="&#xe6;" 
d="M1116 473h-454v-215q0 -74 52 -126t126 -52q57 0 104 35t66 90l94 -29q-29 -86 -101.5 -140t-162.5 -54q-109 0 -178 84v-66h-99v66q-70 -84 -178 -84q-115 0 -195.5 80.5t-80.5 195.5v528q0 115 80.5 196t195.5 81q109 0 178 -84v65h99v-65q70 84 178 84
q115 0 195.5 -81t80.5 -196v-313zM385 80q74 0 126 52t52 126v528q0 74 -52 126.5t-126 52.5t-126 -52.5t-52 -126.5v-528q0 -74 52 -126t126 -52zM839.5 965q-73.5 0 -125.5 -52.5t-52 -126.5v-215h356v215q0 74 -52.5 126.5t-126 52.5z" />
    <glyph glyph-name="ccedilla" unicode="&#xe7;" 
d="M664 80q90 0 159.5 56.5t89.5 142.5l95 -29q-27 -113 -119 -188.5t-211 -79.5v-86q78 -16 131 -79t53 -145q0 -94 -66.5 -160.5t-160.5 -66.5h-57v98h57q53 0 91 37t38 92q0 53 -38 91t-91 38h-55v181q-145 4 -246 108.5t-101 247.5v369q0 147 104.5 251.5t252.5 104.5
h74q123 0 219 -76t125 -192l-95 -29q-20 86 -89.5 142.5t-159.5 56.5h-74q-106 0 -182 -75t-76 -183v-369q0 -109 75.5 -183.5t182.5 -74.5h74z" />
    <glyph glyph-name="egrave" unicode="&#xe8;" 
d="M616 1155l-243 242l69 69l244 -241zM578 1063h73q145 0 251 -104.5t106 -251.5v-199h-689v-170q0 -109 76 -183.5t183 -74.5h73q90 0 160 56.5t90 142.5l94 -29q-29 -117 -125 -192.5t-219 -75.5h-73q-147 0 -252 104t-105 252v369q0 147 105 251.5t252 104.5zM319 606
h590v101q0 109 -75.5 183.5t-182.5 74.5h-73q-106 0 -182.5 -75t-76.5 -183v-101z" />
    <glyph glyph-name="eacute" unicode="&#xe9;" 
d="M608 1155l-69 70l243 241l70 -69zM578 1063h73q145 0 251 -104.5t106 -251.5v-199h-689v-170q0 -109 76 -183.5t183 -74.5h73q90 0 160 56.5t90 142.5l94 -29q-29 -117 -125 -192.5t-219 -75.5h-73q-147 0 -252 104t-105 252v369q0 147 105 251.5t252 104.5zM319 606h590
v101q0 109 -75.5 183.5t-182.5 74.5h-73q-106 0 -182.5 -75t-76.5 -183v-101z" />
    <glyph glyph-name="ecircumflex" unicode="&#xea;" 
d="M334 1247l237 238h82l238 -238l-70 -71l-209 210l-209 -210zM578 1063h73q145 0 251 -104.5t106 -251.5v-199h-689v-170q0 -109 76 -183.5t183 -74.5h73q90 0 160 56.5t90 142.5l94 -29q-29 -117 -125 -192.5t-219 -75.5h-73q-147 0 -252 104t-105 252v369
q0 147 105 251.5t252 104.5zM319 606h590v101q0 109 -75.5 183.5t-182.5 74.5h-73q-106 0 -182.5 -75t-76.5 -183v-101z" />
    <glyph glyph-name="edieresis" unicode="&#xeb;" 
d="M428 1194v276h98v-276h-98zM698 1194v276h99v-276h-99zM578 1063h73q145 0 251 -104.5t106 -251.5v-199h-689v-170q0 -109 76 -183.5t183 -74.5h73q90 0 160 56.5t90 142.5l94 -29q-29 -117 -125 -192.5t-219 -75.5h-73q-147 0 -252 104t-105 252v369q0 147 105 251.5
t252 104.5zM319 606h590v101q0 109 -75.5 183.5t-182.5 74.5h-73q-106 0 -182.5 -75t-76.5 -183v-101z" />
    <glyph glyph-name="igrave" unicode="&#xec;" 
d="M655 1155l-243 242l69 69l244 -241zM295 1044h405v-946h351v-98h-824v98h375v848h-307v98z" />
    <glyph glyph-name="iacute" unicode="&#xed;" 
d="M647 1155l-69 70l243 241l70 -69zM295 1044h405v-946h351v-98h-824v98h375v848h-307v98z" />
    <glyph glyph-name="icircumflex" unicode="&#xee;" 
d="M373 1247l237 238h82l238 -238l-70 -71l-209 210l-209 -210zM295 1044h405v-946h351v-98h-824v98h375v848h-307v98z" />
    <glyph glyph-name="idieresis" unicode="&#xef;" 
d="M467 1194v276h98v-276h-98zM737 1194v276h99v-276h-99zM295 1044h405v-946h351v-98h-824v98h375v848h-307v98z" />
    <glyph glyph-name="eth" unicode="&#xf0;" 
d="M1169 1266v-99h-190v-829q0 -147 -104.5 -251.5t-251.5 -104.5h-74q-145 0 -250.5 104t-105.5 252v369q0 147 105 251.5t251 104.5h49q174 0 283 -139v243h-289v99h272q-29 74 -94 119t-147 45v98q121 0 217 -75t127 -187h202zM623 80q106 0 182 74.5t76 183.5v369
q0 109 -76 183.5t-182 74.5h-74q-106 0 -182 -76t-76 -182v-369q0 -106 75.5 -182t182.5 -76h74z" />
    <glyph glyph-name="ntilde" unicode="&#xf1;" 
d="M918 1450h98v-23q0 -96 -68.5 -164.5t-165.5 -68.5q-106 0 -168 76q-78 94 -147 94q-55 0 -95 -40t-40 -97v-23h-99v23q0 98 69 166.5t165 68.5q106 0 168 -78q78 -92 147 -92q53 0 94.5 40t41.5 95v23zM651 1063q147 0 252 -104.5t105 -251.5v-707h-99v707
q0 109 -75.5 183.5t-182.5 74.5h-73q-106 0 -182.5 -75t-76.5 -183v-707h-98v1044h98v-120q109 139 283 139h49z" />
    <glyph glyph-name="ograve" unicode="&#xf2;" 
d="M612 1155l-243 242l69 69l244 -241zM571 1063h74q147 0 251.5 -104.5t104.5 -251.5v-369q0 -147 -104 -251.5t-252 -104.5h-74q-145 0 -250.5 104t-105.5 252v369q0 147 105.5 251.5t250.5 104.5zM571 965q-109 0 -183.5 -75t-74.5 -183v-369q0 -109 75 -183.5t183 -74.5
h74q109 0 183.5 74.5t74.5 183.5v369q0 109 -74.5 183.5t-183.5 74.5h-74z" />
    <glyph glyph-name="oacute" unicode="&#xf3;" 
d="M604 1155l-69 70l243 241l70 -69zM571 1063h74q147 0 251.5 -104.5t104.5 -251.5v-369q0 -147 -104 -251.5t-252 -104.5h-74q-145 0 -250.5 104t-105.5 252v369q0 147 105.5 251.5t250.5 104.5zM571 965q-109 0 -183.5 -75t-74.5 -183v-369q0 -109 75 -183.5t183 -74.5
h74q109 0 183.5 74.5t74.5 183.5v369q0 109 -74.5 183.5t-183.5 74.5h-74z" />
    <glyph glyph-name="ocircumflex" unicode="&#xf4;" 
d="M330 1247l237 238h82l238 -238l-70 -71l-209 210l-209 -210zM571 1063h74q147 0 251.5 -104.5t104.5 -251.5v-369q0 -147 -104 -251.5t-252 -104.5h-74q-145 0 -250.5 104t-105.5 252v369q0 147 105.5 251.5t250.5 104.5zM571 965q-109 0 -183.5 -75t-74.5 -183v-369
q0 -109 75 -183.5t183 -74.5h74q109 0 183.5 74.5t74.5 183.5v369q0 109 -74.5 183.5t-183.5 74.5h-74z" />
    <glyph glyph-name="otilde" unicode="&#xf5;" 
d="M217 1204v23q0 98 68.5 166.5t165.5 68.5q106 0 167 -78q78 -92 148 -92q53 0 94 40t41 95v23h98v-23q0 -96 -68.5 -164.5t-164.5 -68.5q-106 0 -168 76q-78 94 -147 94q-55 0 -95.5 -40t-40.5 -97v-23h-98zM571 1063h74q147 0 251.5 -104.5t104.5 -251.5v-369
q0 -147 -104 -251.5t-252 -104.5h-74q-145 0 -250.5 104t-105.5 252v369q0 147 105.5 251.5t250.5 104.5zM571 965q-109 0 -183.5 -75t-74.5 -183v-369q0 -109 75 -183.5t183 -74.5h74q109 0 183.5 74.5t74.5 183.5v369q0 109 -74.5 183.5t-183.5 74.5h-74z" />
    <glyph glyph-name="odieresis" unicode="&#xf6;" 
d="M424 1194v276h98v-276h-98zM694 1194v276h99v-276h-99zM571 1063h74q147 0 251.5 -104.5t104.5 -251.5v-369q0 -147 -104 -251.5t-252 -104.5h-74q-145 0 -250.5 104t-105.5 252v369q0 147 105.5 251.5t250.5 104.5zM571 965q-109 0 -183.5 -75t-74.5 -183v-369
q0 -109 75 -183.5t183 -74.5h74q109 0 183.5 74.5t74.5 183.5v369q0 109 -74.5 183.5t-183.5 74.5h-74z" />
    <glyph glyph-name="divide" unicode="&#xf7;" 
d="M559 844v278h98v-278h-98zM205 543v98h807v-98h-807zM559 68v278h98v-278h-98z" />
    <glyph glyph-name="oslash" unicode="&#xf8;" 
d="M1004 1073l-84 -139q82 -98 81 -227v-369q0 -147 -104 -251.5t-252 -104.5h-74q-111 0 -200 61l-72 -117l-84 51l82 134q-82 98 -82 227v369q0 147 105.5 251.5t250.5 104.5h74q106 0 199 -59l74 120zM313 338q0 -72 39 -137l441 719q-68 45 -148 45h-74
q-109 0 -183.5 -75t-74.5 -183v-369zM903 707q0 74 -39 139l-442 -719q66 -47 149 -47h74q109 0 183.5 74.5t74.5 183.5v369z" />
    <glyph glyph-name="ugrave" unicode="&#xf9;" 
d="M612 1155l-243 242l69 69l244 -241zM215 1044h98v-706q0 -109 75 -183.5t183 -74.5h74q109 0 183.5 74.5t74.5 183.5v706h98v-706q0 -147 -104 -251.5t-252 -104.5h-74q-145 0 -250.5 104t-105.5 252v706z" />
    <glyph glyph-name="uacute" unicode="&#xfa;" 
d="M604 1155l-69 70l243 241l70 -69zM215 1044h98v-706q0 -109 75 -183.5t183 -74.5h74q109 0 183.5 74.5t74.5 183.5v706h98v-706q0 -147 -104 -251.5t-252 -104.5h-74q-145 0 -250.5 104t-105.5 252v706z" />
    <glyph glyph-name="ucircumflex" unicode="&#xfb;" 
d="M330 1247l237 238h82l238 -238l-70 -71l-209 210l-209 -210zM215 1044h98v-706q0 -109 75 -183.5t183 -74.5h74q109 0 183.5 74.5t74.5 183.5v706h98v-706q0 -147 -104 -251.5t-252 -104.5h-74q-145 0 -250.5 104t-105.5 252v706z" />
    <glyph glyph-name="udieresis" unicode="&#xfc;" 
d="M424 1194v276h98v-276h-98zM694 1194v276h99v-276h-99zM215 1044h98v-706q0 -109 75 -183.5t183 -74.5h74q109 0 183.5 74.5t74.5 183.5v706h98v-706q0 -147 -104 -251.5t-252 -104.5h-74q-145 0 -250.5 104t-105.5 252v706z" />
    <glyph glyph-name="yacute" unicode="&#xfd;" 
d="M604 1155l-69 70l243 241l70 -69zM213 1044h98v-131q0 -119 60 -227l241 -450l244 450q57 109 57 227v131h99v-131q0 -141 -70 -274l-481 -887q-16 -35 -64.5 -71.5t-115.5 -36.5h-160v98h160q55 0 94 57l182 334l-272 506q-72 129 -72 274v131z" />
    <glyph glyph-name="thorn" unicode="&#xfe;" 
d="M657 1063q147 0 252 -104.5t105 -251.5v-369q0 -147 -104.5 -251.5t-252.5 -104.5h-49q-174 0 -282 139v-477h-99v1757h99v-477q109 139 282 139h49zM915 338v369q0 109 -74.5 183.5t-183.5 74.5h-73q-109 0 -183.5 -75t-74.5 -183v-369q0 -109 74.5 -183.5t183.5 -74.5
h73q109 0 183.5 74.5t74.5 183.5z" />
    <glyph glyph-name="ydieresis" unicode="&#xff;" 
d="M424 1194v276h98v-276h-98zM694 1194v276h99v-276h-99zM213 1044h98v-131q0 -119 60 -227l241 -450l244 450q57 109 57 227v131h99v-131q0 -141 -70 -274l-481 -887q-16 -35 -64.5 -71.5t-115.5 -36.5h-160v98h160q55 0 94 57l182 334l-272 506q-72 129 -72 274v131z" />
    <glyph glyph-name="Amacron" unicode="&#x100;" 
d="M893 1677v-98h-569v98h569zM993 563q37 -137 37 -295v-268h-98v268q0 14 -4 92h-637q-6 -59 -6 -92v-268h-99v268q0 135 37 295l195 711q16 63 69.5 104t121 41t120.5 -41t70 -104zM303 459h610q-4 33 -16 78l-192 708q-8 33 -35 54.5t-62 21.5t-61.5 -21.5t-34.5 -54.5
l-193 -708q-12 -45 -16 -78z" />
    <glyph glyph-name="amacron" unicode="&#x101;" 
d="M893 1321v-98h-569v98h569zM893 1044h98v-1044h-98v121q-109 -139 -283 -139h-49q-147 0 -251.5 104t-104.5 252v369q0 147 104.5 251.5t251.5 104.5h49q174 0 283 -139v120zM635 80q106 0 182 74.5t76 183.5v369q0 109 -76 183.5t-182 74.5h-74q-106 0 -182 -75
t-76 -183v-369q0 -109 76 -183.5t182 -74.5h74z" />
    <glyph glyph-name="Abreve" unicode="&#x102;" 
d="M608 1544q-94 0 -160.5 66.5t-66.5 161.5h98q0 -53 38 -91.5t91.5 -38.5t91 38t37.5 92h99q0 -94 -67 -161t-161 -67zM993 563q37 -137 37 -295v-268h-98v268q0 14 -4 92h-637q-6 -59 -6 -92v-268h-99v268q0 135 37 295l195 711q16 63 69.5 104t121 41t120.5 -41t70 -104
zM303 459h610q-4 33 -16 78l-192 708q-8 33 -35 54.5t-62 21.5t-61.5 -21.5t-34.5 -54.5l-193 -708q-12 -45 -16 -78z" />
    <glyph glyph-name="abreve" unicode="&#x103;" 
d="M608 1188q-94 0 -160.5 66.5t-66.5 160.5h98q0 -53 38 -91t91.5 -38t91 38t37.5 91h99q0 -94 -67 -160.5t-161 -66.5zM893 1044h98v-1044h-98v121q-109 -139 -283 -139h-49q-147 0 -251.5 104t-104.5 252v369q0 147 104.5 251.5t251.5 104.5h49q174 0 283 -139v120z
M635 80q106 0 182 74.5t76 183.5v369q0 109 -76 183.5t-182 74.5h-74q-106 0 -182 -75t-76 -183v-369q0 -109 76 -183.5t182 -74.5h74z" />
    <glyph glyph-name="Aogonek" unicode="&#x104;" 
d="M1159 -258h21v-98h-21q-94 0 -160.5 66.5t-66.5 160.5v397q0 14 -4 92h-637q-6 -59 -6 -92v-268h-99v268q0 135 37 295l195 711q16 63 69.5 104t121 41t120.5 -41t70 -104l194 -711q37 -137 37 -295v-397q0 -53 38 -91t91 -38zM303 459h610q-4 33 -16 78l-192 708
q-8 33 -35 54.5t-62 21.5t-61.5 -21.5t-34.5 -54.5l-193 -708q-12 -45 -16 -78z" />
    <glyph glyph-name="aogonek" unicode="&#x105;" 
d="M1120 -258h21v-98h-21q-94 0 -160.5 66.5t-66.5 160.5v250q-109 -139 -283 -139h-49q-147 0 -251.5 104t-104.5 252v369q0 147 104.5 251.5t251.5 104.5h49q174 0 283 -139v120h98v-1173q0 -53 38 -91t91 -38zM635 80q106 0 182 74.5t76 183.5v369q0 109 -76 183.5
t-182 74.5h-74q-106 0 -182 -75t-76 -183v-369q0 -109 76 -183.5t182 -74.5h74z" />
    <glyph glyph-name="Cacute" unicode="&#x106;" 
d="M625 1511l-70 70l244 242l69 -70zM1020 1151l-94 -27q-23 86 -91.5 141.5t-158.5 55.5h-98q-106 0 -182.5 -76t-76.5 -182v-725q0 -109 76 -183.5t183 -74.5h98q90 0 158.5 55t91.5 141l94 -28q-29 -117 -125 -191.5t-219 -74.5h-98q-147 0 -252 103t-105 253v725
q0 147 104.5 251.5t252.5 104.5h98q123 0 219 -75.5t125 -192.5z" />
    <glyph glyph-name="cacute" unicode="&#x107;" 
d="M625 1155l-70 70l244 241l69 -69zM233 338v369q0 147 104.5 251.5t252.5 104.5h74q123 0 219 -76t125 -192l-95 -29q-20 86 -89.5 142.5t-159.5 56.5h-74q-106 0 -182 -75t-76 -183v-369q0 -109 75.5 -183.5t182.5 -74.5h74q90 0 159.5 56.5t89.5 142.5l95 -29
q-29 -117 -125.5 -192.5t-218.5 -75.5h-74q-147 0 -252 104.5t-105 251.5z" />
    <glyph glyph-name="Ccircumflex" unicode="&#x108;" 
d="M350 1604l238 237h82l237 -237l-69 -72l-209 211l-209 -211zM1020 1151l-94 -27q-23 86 -91.5 141.5t-158.5 55.5h-98q-106 0 -182.5 -76t-76.5 -182v-725q0 -109 76 -183.5t183 -74.5h98q90 0 158.5 55t91.5 141l94 -28q-29 -117 -125 -191.5t-219 -74.5h-98
q-147 0 -252 103t-105 253v725q0 147 104.5 251.5t252.5 104.5h98q123 0 219 -75.5t125 -192.5z" />
    <glyph glyph-name="ccircumflex" unicode="&#x109;" 
d="M350 1247l238 238h82l237 -238l-69 -71l-209 210l-209 -210zM233 338v369q0 147 104.5 251.5t252.5 104.5h74q123 0 219 -76t125 -192l-95 -29q-20 86 -89.5 142.5t-159.5 56.5h-74q-106 0 -182 -75t-76 -183v-369q0 -109 75.5 -183.5t182.5 -74.5h74q90 0 159.5 56.5
t89.5 142.5l95 -29q-29 -117 -125.5 -192.5t-218.5 -75.5h-74q-147 0 -252 104.5t-105 251.5z" />
    <glyph glyph-name="Cdotaccent" unicode="&#x10a;" 
d="M580 1550v277h98v-277h-98zM1020 1151l-94 -27q-23 86 -91.5 141.5t-158.5 55.5h-98q-106 0 -182.5 -76t-76.5 -182v-725q0 -109 76 -183.5t183 -74.5h98q90 0 158.5 55t91.5 141l94 -28q-29 -117 -125 -191.5t-219 -74.5h-98q-147 0 -252 103t-105 253v725
q0 147 104.5 251.5t252.5 104.5h98q123 0 219 -75.5t125 -192.5z" />
    <glyph glyph-name="cdotaccent" unicode="&#x10b;" 
d="M580 1194v276h98v-276h-98zM233 338v369q0 147 104.5 251.5t252.5 104.5h74q123 0 219 -76t125 -192l-95 -29q-20 86 -89.5 142.5t-159.5 56.5h-74q-106 0 -182 -75t-76 -183v-369q0 -109 75.5 -183.5t182.5 -74.5h74q90 0 159.5 56.5t89.5 142.5l95 -29
q-29 -117 -125.5 -192.5t-218.5 -75.5h-74q-147 0 -252 104.5t-105 251.5z" />
    <glyph glyph-name="Ccaron" unicode="&#x10c;" 
d="M350 1800l70 72l209 -211l209 211l69 -72l-237 -237h-82zM1020 1151l-94 -27q-23 86 -91.5 141.5t-158.5 55.5h-98q-106 0 -182.5 -76t-76.5 -182v-725q0 -109 76 -183.5t183 -74.5h98q90 0 158.5 55t91.5 141l94 -28q-29 -117 -125 -191.5t-219 -74.5h-98
q-147 0 -252 103t-105 253v725q0 147 104.5 251.5t252.5 104.5h98q123 0 219 -75.5t125 -192.5z" />
    <glyph glyph-name="ccaron" unicode="&#x10d;" 
d="M350 1444l70 72l209 -211l209 211l69 -72l-237 -238h-82zM233 338v369q0 147 104.5 251.5t252.5 104.5h74q123 0 219 -76t125 -192l-95 -29q-20 86 -89.5 142.5t-159.5 56.5h-74q-106 0 -182 -75t-76 -183v-369q0 -109 75.5 -183.5t182.5 -74.5h74q90 0 159.5 56.5
t89.5 142.5l95 -29q-29 -117 -125.5 -192.5t-218.5 -75.5h-74q-147 0 -252 104.5t-105 251.5z" />
    <glyph glyph-name="Dcaron" unicode="&#x10e;" 
d="M313 1800l70 72l209 -211l209 211l69 -72l-237 -237h-82zM227 0v1401h432q147 0 251 -103.5t104 -253.5v-688q0 -150 -103.5 -253t-251.5 -103h-432zM326 98h333q106 0 181 75t75 183v688q0 109 -74.5 184t-181.5 75h-333v-1205z" />
    <glyph glyph-name="dcaron" unicode="&#x10f;" 
d="M1022 1667h283v-106q0 -117 -70 -209t-178 -125l-29 94q80 25 129 92.5t49 155.5h-184v98zM870 924v477h99v-1401h-99v121q-109 -139 -282 -139h-49q-147 0 -252 104t-105 252v369q0 147 104.5 251.5t252.5 104.5h49q173 0 282 -139zM612 80q109 0 183.5 74.5t74.5 183.5
v369q0 109 -74.5 183.5t-183.5 74.5h-73q-109 0 -183.5 -75t-74.5 -183v-369q0 -109 74.5 -183.5t183.5 -74.5h73z" />
    <glyph glyph-name="Dcroat" unicode="&#x110;" 
d="M682 1401q147 0 250.5 -103.5t103.5 -253.5v-688q0 -150 -103.5 -253t-250.5 -103h-432v651h-164v99h164v651h432zM938 356v688q0 109 -75 184t-181 75h-334v-553h303v-99h-303v-553h334q106 0 181 74.5t75 183.5z" />
    <glyph glyph-name="dcroat" unicode="&#x111;" 
d="M1130 1300v-98h-141v-1202h-98v121q-109 -139 -283 -139h-49q-147 0 -251.5 104t-104.5 252v369q0 147 104.5 251.5t251.5 104.5h49q174 0 283 -139v278h-313v98h313v166h98v-166h141zM633 80q109 0 183.5 74.5t74.5 183.5v369q0 109 -75 183.5t-183 74.5h-74
q-109 0 -183.5 -75t-74.5 -183v-369q0 -109 75 -183.5t183 -74.5h74z" />
    <glyph glyph-name="Emacron" unicode="&#x112;" 
d="M350 1579v98h570v-98h-570zM246 0v1401h786v-98h-688v-553h625v-99h-625v-553h688v-98h-786z" />
    <glyph glyph-name="emacron" unicode="&#x113;" 
d="M328 1223v98h569v-98h-569zM578 1063h73q145 0 251 -104.5t106 -251.5v-199h-689v-170q0 -109 76 -183.5t183 -74.5h73q90 0 160 56.5t90 142.5l94 -29q-29 -117 -125 -192.5t-219 -75.5h-73q-147 0 -252 104t-105 252v369q0 147 105 251.5t252 104.5zM319 606h590v101
q0 109 -75.5 183.5t-182.5 74.5h-73q-106 0 -182.5 -75t-76.5 -183v-101z" />
    <glyph glyph-name="Ebreve" unicode="&#x114;" 
d="M408 1772h98q0 -53 38 -91.5t91 -38.5t91 38t38 92h98q0 -94 -66.5 -161t-160.5 -67t-160.5 67t-66.5 161zM246 0v1401h786v-98h-688v-553h625v-99h-625v-553h688v-98h-786z" />
    <glyph glyph-name="ebreve" unicode="&#x115;" 
d="M385 1415h98q0 -53 38 -91t91.5 -38t91 38t37.5 91h99q0 -94 -66.5 -160.5t-161 -66.5t-161 66.5t-66.5 160.5zM578 1063h73q145 0 251 -104.5t106 -251.5v-199h-689v-170q0 -109 76 -183.5t183 -74.5h73q90 0 160 56.5t90 142.5l94 -29q-29 -117 -125 -192.5t-219 -75.5
h-73q-147 0 -252 104t-105 252v369q0 147 105 251.5t252 104.5zM319 606h590v101q0 109 -75.5 183.5t-182.5 74.5h-73q-106 0 -182.5 -75t-76.5 -183v-101z" />
    <glyph glyph-name="Edotaccent" unicode="&#x116;" 
d="M586 1550v277h98v-277h-98zM246 0v1401h786v-98h-688v-553h625v-99h-625v-553h688v-98h-786z" />
    <glyph glyph-name="edotaccent" unicode="&#x117;" 
d="M563 1194v276h99v-276h-99zM578 1063h73q145 0 251 -104.5t106 -251.5v-199h-689v-170q0 -109 76 -183.5t183 -74.5h73q90 0 160 56.5t90 142.5l94 -29q-29 -117 -125 -192.5t-219 -75.5h-73q-147 0 -252 104t-105 252v369q0 147 105 251.5t252 104.5zM319 606h590v101
q0 109 -75.5 183.5t-182.5 74.5h-73q-106 0 -182.5 -75t-76.5 -183v-101z" />
    <glyph glyph-name="Eogonek" unicode="&#x118;" 
d="M1161 -258h21v-98h-21q-94 0 -160.5 66.5t-66.5 160.5v129h-688v1401h786v-98h-688v-553h625v-99h-625v-553h688v-227q0 -53 38 -91t91 -38z" />
    <glyph glyph-name="eogonek" unicode="&#x119;" 
d="M1008 508h-689v-170q0 -109 76 -183.5t183 -74.5h73q90 0 160 56.5t90 142.5l94 -29q-29 -115 -122 -190.5t-211 -77.5v-115q0 -53 37.5 -91t91.5 -38h20v-98h-20q-94 0 -161 66.5t-67 160.5v115q-143 6 -242.5 109.5t-99.5 246.5v369q0 147 104.5 251.5t252.5 104.5h73
q145 0 251 -104.5t106 -251.5v-199zM319 707v-101h590v101q0 109 -75.5 183.5t-182.5 74.5h-73q-106 0 -182.5 -74.5t-76.5 -183.5z" />
    <glyph glyph-name="Ecaron" unicode="&#x11a;" 
d="M356 1800l70 72l209 -211l209 211l69 -72l-237 -237h-82zM246 0v1401h786v-98h-688v-553h625v-99h-625v-553h688v-98h-786z" />
    <glyph glyph-name="ecaron" unicode="&#x11b;" 
d="M334 1444l69 72l209 -211l209 211l70 -72l-238 -238h-82zM578 1063h73q145 0 251 -104.5t106 -251.5v-199h-689v-170q0 -109 76 -183.5t183 -74.5h73q90 0 160 56.5t90 142.5l94 -29q-29 -117 -125 -192.5t-219 -75.5h-73q-147 0 -252 104t-105 252v369q0 147 105 251.5
t252 104.5zM319 606h590v101q0 109 -75.5 183.5t-182.5 74.5h-73q-106 0 -182.5 -75t-76.5 -183v-101z" />
    <glyph glyph-name="Gcircumflex" unicode="&#x11c;" 
d="M338 1604l237 237h82l238 -237l-70 -72l-209 211l-208 -211zM1008 1151l-95 -27q-23 86 -91 141.5t-158 55.5h-99q-106 0 -182 -75t-76 -183v-725q0 -109 76 -183.5t182 -74.5h99q106 0 182 74.5t76 183.5v313h-301v99h399v-412q0 -147 -105.5 -251.5t-250.5 -104.5h-99
q-145 0 -250.5 104t-105.5 252v725q0 147 105.5 251.5t250.5 104.5h99q123 0 219 -75.5t125 -192.5z" />
    <glyph glyph-name="gcircumflex" unicode="&#x11d;" 
d="M588 1386l-209 -210l-70 71l238 238h82l237 -238l-69 -71zM891 1044h98v-1062q0 -147 -104.5 -252t-251.5 -105h-74q-123 0 -219 76t-125 193l94 28q20 -86 90 -142t160 -56h74q106 0 182 75.5t76 182.5v213q-109 -139 -283 -140h-49q-145 0 -250.5 104.5t-105.5 252.5
v295q0 147 104.5 251.5t251.5 104.5h49q176 0 283 -137v118zM633 154q106 0 182 75.5t76 182.5v295q0 109 -75 183.5t-183 74.5h-74q-106 0 -182 -76t-76 -182v-295q0 -106 76 -182t182 -76h74z" />
    <glyph glyph-name="Gbreve" unicode="&#x11e;" 
d="M389 1772h98q0 -53 38 -91.5t91.5 -38.5t91 38t37.5 92h99q0 -94 -66.5 -161t-161 -67t-161 67t-66.5 161zM1008 1151l-95 -27q-23 86 -91 141.5t-158 55.5h-99q-106 0 -182 -75t-76 -183v-725q0 -109 76 -183.5t182 -74.5h99q106 0 182 74.5t76 183.5v313h-301v99h399
v-412q0 -147 -105.5 -251.5t-250.5 -104.5h-99q-145 0 -250.5 104t-105.5 252v725q0 147 105.5 251.5t250.5 104.5h99q123 0 219 -75.5t125 -192.5z" />
    <glyph glyph-name="gbreve" unicode="&#x11f;" 
d="M588 1188q-94 0 -161 66.5t-67 160.5h99q0 -53 38 -91t91 -38t91 38t38 91h98q0 -94 -66.5 -160.5t-160.5 -66.5zM891 1044h98v-1062q0 -147 -104.5 -252t-251.5 -105h-74q-123 0 -219 76t-125 193l94 28q20 -86 90 -142t160 -56h74q106 0 182 75.5t76 182.5v213
q-109 -139 -283 -140h-49q-145 0 -250.5 104.5t-105.5 252.5v295q0 147 104.5 251.5t251.5 104.5h49q176 0 283 -137v118zM633 154q106 0 182 75.5t76 182.5v295q0 109 -75 183.5t-183 74.5h-74q-106 0 -182 -76t-76 -182v-295q0 -106 76 -182t182 -76h74z" />
    <glyph glyph-name="Gdotaccent" unicode="&#x120;" 
d="M567 1550v277h99v-277h-99zM1008 1151l-95 -27q-23 86 -91 141.5t-158 55.5h-99q-106 0 -182 -75t-76 -183v-725q0 -109 76 -183.5t182 -74.5h99q106 0 182 74.5t76 183.5v313h-301v99h399v-412q0 -147 -105.5 -251.5t-250.5 -104.5h-99q-145 0 -250.5 104t-105.5 252
v725q0 147 105.5 251.5t250.5 104.5h99q123 0 219 -75.5t125 -192.5z" />
    <glyph glyph-name="gdotaccent" unicode="&#x121;" 
d="M637 1470v-276h-98v276h98zM891 1044h98v-1062q0 -147 -104.5 -252t-251.5 -105h-74q-123 0 -219 76t-125 193l94 28q20 -86 90 -142t160 -56h74q106 0 182 75.5t76 182.5v213q-109 -139 -283 -140h-49q-145 0 -250.5 104.5t-105.5 252.5v295q0 147 104.5 251.5
t251.5 104.5h49q176 0 283 -137v118zM633 154q106 0 182 75.5t76 182.5v295q0 109 -75 183.5t-183 74.5h-74q-106 0 -182 -76t-76 -182v-295q0 -106 76 -182t182 -76h74z" />
    <glyph glyph-name="Gcommaaccent" unicode="&#x122;" 
d="M1008 1151l-95 -27q-23 86 -91 141.5t-158 55.5h-99q-106 0 -182 -75t-76 -183v-725q0 -109 76 -183.5t182 -74.5h99q106 0 182 74.5t76 183.5v313h-301v99h399v-412q0 -147 -105.5 -251.5t-250.5 -104.5h-99q-145 0 -250.5 104t-105.5 252v725q0 147 105.5 251.5
t250.5 104.5h99q123 0 219 -75.5t125 -192.5zM475 -178h283v-107q0 -117 -70 -209t-178 -124l-29 94q80 25 129 92t49 156h-184v98z" />
    <glyph glyph-name="gcommaaccent" unicode="&#x123;" 
d="M729 1323v-98h-283v106q0 117 70 209t178 125l29 -94q-80 -25 -129 -92.5t-49 -155.5h184zM891 1044h98v-1062q0 -147 -104.5 -252t-251.5 -105h-74q-123 0 -219 76t-125 193l94 28q20 -86 90 -142t160 -56h74q106 0 182 75.5t76 182.5v213q-109 -139 -283 -140h-49
q-145 0 -250.5 104.5t-105.5 252.5v295q0 147 104.5 251.5t251.5 104.5h49q176 0 283 -137v118zM633 154q106 0 182 75.5t76 182.5v295q0 109 -75 183.5t-183 74.5h-74q-106 0 -182 -76t-76 -182v-295q0 -106 76 -182t182 -76h74z" />
    <glyph glyph-name="Hcircumflex" unicode="&#x124;" 
d="M330 1604l237 237h82l238 -237l-70 -72l-209 211l-209 -211zM903 1401h98v-1401h-98v651h-590v-651h-98v1401h98v-651h590v651z" />
    <glyph glyph-name="hcircumflex" unicode="&#x125;" 
d="M479 1532l-209 211l-209 -211l-69 72l237 237h82l238 -237zM651 1063q147 0 252 -104.5t105 -251.5v-707h-99v707q0 109 -75.5 183.5t-182.5 74.5h-73q-106 0 -182.5 -75t-76.5 -183v-707h-98v1401h98v-477q109 139 283 139h49z" />
    <glyph glyph-name="Hbar" unicode="&#x126;" 
d="M1186 1120v-98h-185v-1022h-98v651h-590v-651h-98v1022h-184v98h184v281h98v-281h590v281h98v-281h185zM903 750v272h-590v-272h590z" />
    <glyph glyph-name="hbar" unicode="&#x127;" 
d="M651 1063q147 0 252 -104.5t105 -251.5v-707h-99v707q0 109 -75.5 183.5t-182.5 74.5h-73q-106 0 -182.5 -75t-76.5 -183v-707h-98v1202h-141v98h141v166h98v-166h314v-98h-314v-278q109 139 283 139h49z" />
    <glyph glyph-name="Itilde" unicode="&#x128;" 
d="M217 1561v22q0 98 68.5 167t165.5 69q106 0 167 -78q78 -92 148 -92q53 0 94 40t41 95v22h98v-22q0 -96 -68.5 -165t-164.5 -69q-106 0 -168 76q-78 94 -147 94q-55 0 -95.5 -40t-40.5 -97v-22h-98zM215 98h344v1205h-332v98h762v-98h-332v-1205h344v-98h-786v98z" />
    <glyph glyph-name="itilde" unicode="&#x129;" 
d="M260 1204v23q0 98 68.5 166.5t165.5 68.5q106 0 168 -78q78 -92 147 -92q53 0 94 40t41 95v23h98v-23q0 -96 -68.5 -164.5t-164.5 -68.5q-106 0 -168 76q-78 94 -147 94q-55 0 -95.5 -40t-40.5 -97v-23h-98zM295 1044h405v-946h351v-98h-824v98h375v848h-307v98z" />
    <glyph glyph-name="Imacron" unicode="&#x12a;" 
d="M324 1579v98h569v-98h-569zM215 98h344v1205h-332v98h762v-98h-332v-1205h344v-98h-786v98z" />
    <glyph glyph-name="imacron" unicode="&#x12b;" 
d="M367 1223v98h569v-98h-569zM295 1044h405v-946h351v-98h-824v98h375v848h-307v98z" />
    <glyph glyph-name="Ibreve" unicode="&#x12c;" 
d="M381 1772h98q0 -53 38 -91.5t91.5 -38.5t91 38t37.5 92h99q0 -94 -67 -161t-161 -67t-160.5 67t-66.5 161zM215 98h344v1205h-332v98h762v-98h-332v-1205h344v-98h-786v98z" />
    <glyph glyph-name="ibreve" unicode="&#x12d;" 
d="M424 1415h98q0 -53 38 -91t91.5 -38t91 38t37.5 91h99q0 -94 -67 -160.5t-161 -66.5t-160.5 66.5t-66.5 160.5zM295 1044h405v-946h351v-98h-824v98h375v848h-307v98z" />
    <glyph glyph-name="Iogonek" unicode="&#x12e;" 
d="M1130 -258h21v-98h-21q-94 0 -160.5 66.5t-66.5 160.5v129h-688v98h344v1205h-332v98h762v-98h-332v-1205h344v-227q0 -53 38 -91t91 -38z" />
    <glyph glyph-name="iogonek" unicode="&#x12f;" 
d="M700 1470v-276h-98v276h98zM1180 -258h20v-98h-20q-94 0 -161 66.5t-67 160.5v129h-725v98h375v848h-307v98h405v-946h351v-227q0 -53 38 -91t91 -38z" />
    <glyph glyph-name="Idotaccent" unicode="&#x130;" 
d="M559 1550v277h98v-277h-98zM215 98h344v1205h-332v98h762v-98h-332v-1205h344v-98h-786v98z" />
    <glyph glyph-name="dotlessi" unicode="&#x131;" 
d="M295 1044h405v-946h351v-98h-824v98h375v848h-307v98z" />
    <glyph glyph-name="Jcircumflex" unicode="&#x134;" 
d="M330 1604l237 237h82l238 -237l-70 -72l-209 211l-209 -211zM250 1401h721v-1063q0 -147 -105.5 -251.5t-251.5 -104.5h-71q-123 0 -219.5 75.5t-126.5 190.5l94 28q23 -86 92.5 -141t159.5 -55h71q106 0 182 75.5t76 182.5v965h-622v98z" />
    <glyph glyph-name="jcircumflex" unicode="&#x135;" 
d="M498 1247l237 238h82l238 -238l-70 -71l-209 210l-209 -210zM256 1044h569v-1064q0 -147 -104.5 -251t-249.5 -104q-123 0 -218 75t-124 191l94 29q20 -86 89 -141t159 -55q106 0 181 74.5t75 181.5v966h-471v98z" />
    <glyph glyph-name="Kcommaaccent" unicode="&#x136;" 
d="M227 1401h99v-645h223l293 321q35 39 57.5 99.5t22.5 97.5v127h98v-129q0 -47 -27.5 -127t-79.5 -135l-282 -303l299 -316q53 -55 80.5 -135t27.5 -127v-129h-98v129q0 37 -23.5 96.5t-58.5 98.5l-313 333h-219v-657h-99v1401zM487 -178h283v-107q0 -117 -69.5 -209
t-178.5 -124l-28 94q80 25 129 92t49 156h-185v98z" />
    <glyph glyph-name="kcommaaccent" unicode="&#x137;" 
d="M246 1401h98v-836h256l201 166q37 33 63.5 89.5t26.5 92.5v131h98v-131q0 -25 -7 -59.5t-38 -94t-80 -102.5l-174 -141l209 -162q33 -27 71 -88t38 -137v-129h-99v129q0 25 -7 49.5t-18.5 42t-21.5 30.5t-18 19l-6 9l-238 188h-256v-467h-98v1401zM489 -178h283v-107
q0 -117 -69.5 -209t-178.5 -124l-28 94q80 25 129 92t49 156h-185v98z" />
    <glyph glyph-name="kgreenlandic" unicode="&#x138;" 
d="M246 1044h98v-479h256l201 166q37 33 63.5 89.5t26.5 92.5v131h98v-131q0 -25 -7 -59.5t-38 -94t-80 -102.5l-174 -141l209 -162q33 -27 71 -88t38 -137v-129h-99v129q0 25 -7 49.5t-18.5 42t-21.5 30.5t-18 19l-6 9l-238 188h-256v-467h-98v1044z" />
    <glyph glyph-name="Lacute" unicode="&#x139;" 
d="M309 1511l-69 70l243 242l70 -70zM264 1401h98v-1303h670v-98h-768v1401z" />
    <glyph glyph-name="lacute" unicode="&#x13a;" 
d="M496 1511l-70 70l244 242l69 -70zM1149 248q-29 -117 -124 -191.5t-218 -74.5q-145 0 -249.5 103t-104.5 251v967h-308v98h406v-1065q0 -106 74.5 -181t181.5 -75q90 0 158.5 55t91.5 141z" />
    <glyph glyph-name="Lcommaaccent" unicode="&#x13b;" 
d="M264 1401h98v-1303h670v-98h-768v1401zM508 -178h283v-107q0 -117 -70 -209t-178 -124l-29 94q80 25 129 92t49 156h-184v98z" />
    <glyph glyph-name="lcommaaccent" unicode="&#x13c;" 
d="M1149 248q-29 -117 -124 -191.5t-218 -74.5q-145 0 -249.5 103t-104.5 251v967h-308v98h406v-1065q0 -106 74.5 -181t181.5 -75q90 0 158.5 55t91.5 141zM666 -178h282v-107q0 -117 -69.5 -209t-178.5 -124l-28 94q80 25 129 92t49 156h-184v98z" />
    <glyph glyph-name="Lcaron" unicode="&#x13d;" 
d="M264 1401h98v-1303h670v-98h-768v1401zM469 1401h283v-107q0 -117 -70 -209t-178 -124l-29 94q80 25 129 92t49 156h-184v98z" />
    <glyph glyph-name="lcaron" unicode="&#x13e;" 
d="M1149 248q-29 -117 -124 -191.5t-218 -74.5q-145 0 -249.5 103t-104.5 251v967h-308v98h406v-1065q0 -106 74.5 -181t181.5 -75q90 0 158.5 55t91.5 141zM657 1401h283v-107q0 -117 -69.5 -209t-178.5 -124l-28 94q80 25 129 92t49 156h-185v98z" />
    <glyph glyph-name="Ldot" unicode="&#x13f;" 
d="M264 1401h98v-1303h670v-98h-768v1401zM559 561v281h98v-281h-98z" />
    <glyph glyph-name="ldot" unicode="&#x140;" 
d="M1149 248q-29 -117 -124 -191.5t-218 -74.5q-145 0 -249.5 103t-104.5 251v967h-308v98h406v-1065q0 -106 74.5 -181t181.5 -75q90 0 158.5 55t91.5 141zM653 629v280h99v-280h-99z" />
    <glyph glyph-name="Lslash" unicode="&#x141;" 
d="M420 98h670v-98h-768v512l-115 -115l-70 70l185 184v750h98v-651l285 284l69 -69l-354 -355v-512z" />
    <glyph glyph-name="lslash" unicode="&#x142;" 
d="M1057 276l92 -28q-29 -117 -124 -191.5t-218 -74.5q-145 0 -249.5 103t-104.5 251v276l-95 -94l-69 70l164 164v551h-308v98h406v-553l133 133l70 -70l-203 -200v-375q0 -106 74.5 -181t181.5 -75q90 0 158.5 55t91.5 141z" />
    <glyph glyph-name="Nacute" unicode="&#x143;" 
d="M604 1511l-69 70l243 242l70 -70zM197 1401h122l603 -1225v1225h98v-1401h-123l-602 1225v-1225h-98v1401z" />
    <glyph glyph-name="nacute" unicode="&#x144;" 
d="M864 1397l-243 -242l-70 70l244 241zM651 1063q147 0 252 -104.5t105 -251.5v-707h-99v707q0 109 -75.5 183.5t-182.5 74.5h-73q-106 0 -182.5 -75t-76.5 -183v-707h-98v1044h98v-120q109 139 283 139h49z" />
    <glyph glyph-name="Ncommaaccent" unicode="&#x145;" 
d="M197 1401h122l603 -1225v1225h98v-1401h-123l-602 1225v-1225h-98v1401zM467 -178h283v-107q0 -117 -70 -209t-178 -124l-29 94q80 25 129 92t49 156h-184v98z" />
    <glyph glyph-name="ncommaaccent" unicode="&#x146;" 
d="M651 1063q147 0 252 -104.5t105 -251.5v-707h-99v707q0 109 -75.5 183.5t-182.5 74.5h-73q-106 0 -182.5 -75t-76.5 -183v-707h-98v1044h98v-120q109 139 283 139h49zM483 -276v98h283v-107q0 -117 -69.5 -209t-178.5 -124l-29 94q80 25 129.5 92t49.5 156h-185z" />
    <glyph glyph-name="Ncaron" unicode="&#x147;" 
d="M330 1800l69 72l209 -211l209 211l70 -72l-238 -237h-82zM197 1401h122l603 -1225v1225h98v-1401h-123l-602 1225v-1225h-98v1401z" />
    <glyph glyph-name="ncaron" unicode="&#x148;" 
d="M666 1206h-82l-238 238l70 72l209 -211l209 211l69 -72zM651 1063q147 0 252 -104.5t105 -251.5v-707h-99v707q0 109 -75.5 183.5t-182.5 74.5h-73q-106 0 -182.5 -75t-76.5 -183v-707h-98v1044h98v-120q109 139 283 139h49z" />
    <glyph glyph-name="napostrophe" unicode="&#x149;" 
d="M322 1526v-107q0 -117 -70 -209t-178 -125l-29 95q80 25 129 92t49 155h-184v99h283zM651 1063q147 0 252 -104.5t105 -251.5v-707h-99v707q0 109 -75.5 183.5t-182.5 74.5h-73q-106 0 -182.5 -75t-76.5 -183v-707h-98v1044h98v-120q109 139 283 139h49z" />
    <glyph glyph-name="Eng" unicode="&#x14a;" 
d="M922 1401h98v-1530q0 -94 -66.5 -160.5t-160.5 -66.5h-21v98h21q53 0 91 38t38 91v129h-25l-602 1225v-1225h-98v1401h122l603 -1225v1225z" />
    <glyph glyph-name="eng" unicode="&#x14b;" 
d="M651 1063q147 0 252 -104.5t105 -251.5v-836q0 -94 -67 -160.5t-161 -66.5h-20v98h20q53 0 91 38t38 91v836q0 109 -75.5 183.5t-182.5 74.5h-73q-106 0 -182.5 -75t-76.5 -183v-707h-98v1044h98v-120q109 139 283 139h49z" />
    <glyph glyph-name="Omacron" unicode="&#x14c;" 
d="M324 1579v98h569v-98h-569zM559 -18q-145 0 -250.5 104t-105.5 252v725q0 147 105.5 251.5t250.5 104.5h98q147 0 252 -104.5t105 -251.5v-725q0 -147 -104.5 -251.5t-252.5 -104.5h-98zM559 80h98q109 0 183.5 74.5t74.5 183.5v725q0 109 -74.5 183.5t-183.5 74.5h-98
q-109 0 -183.5 -75t-74.5 -183v-725q0 -109 74.5 -183.5t183.5 -74.5z" />
    <glyph glyph-name="omacron" unicode="&#x14d;" 
d="M324 1223v98h569v-98h-569zM571 1063h74q147 0 251.5 -104.5t104.5 -251.5v-369q0 -147 -104 -251.5t-252 -104.5h-74q-145 0 -250.5 104t-105.5 252v369q0 147 105.5 251.5t250.5 104.5zM571 965q-109 0 -183.5 -75t-74.5 -183v-369q0 -109 75 -183.5t183 -74.5h74
q109 0 183.5 74.5t74.5 183.5v369q0 109 -74.5 183.5t-183.5 74.5h-74z" />
    <glyph glyph-name="Obreve" unicode="&#x14e;" 
d="M381 1772h98q0 -53 38 -91.5t91.5 -38.5t91 38t37.5 92h99q0 -94 -67 -161t-161 -67t-160.5 67t-66.5 161zM559 -18q-145 0 -250.5 104t-105.5 252v725q0 147 105.5 251.5t250.5 104.5h98q147 0 252 -104.5t105 -251.5v-725q0 -147 -104.5 -251.5t-252.5 -104.5h-98z
M559 80h98q109 0 183.5 74.5t74.5 183.5v725q0 109 -74.5 183.5t-183.5 74.5h-98q-109 0 -183.5 -75t-74.5 -183v-725q0 -109 74.5 -183.5t183.5 -74.5z" />
    <glyph glyph-name="obreve" unicode="&#x14f;" 
d="M381 1415h98q0 -53 38 -91t91.5 -38t91 38t37.5 91h99q0 -94 -67 -160.5t-161 -66.5t-160.5 66.5t-66.5 160.5zM571 1063h74q147 0 251.5 -104.5t104.5 -251.5v-369q0 -147 -104 -251.5t-252 -104.5h-74q-145 0 -250.5 104t-105.5 252v369q0 147 105.5 251.5t250.5 104.5
zM571 965q-109 0 -183.5 -75t-74.5 -183v-369q0 -109 75 -183.5t183 -74.5h74q109 0 183.5 74.5t74.5 183.5v369q0 109 -74.5 183.5t-183.5 74.5h-74z" />
    <glyph glyph-name="Ohungarumlaut" unicode="&#x150;" 
d="M473 1511l-70 70l244 242l70 -70zM774 1511l-69 70l243 242l70 -70zM559 -18q-145 0 -250.5 104t-105.5 252v725q0 147 105.5 251.5t250.5 104.5h98q147 0 252 -104.5t105 -251.5v-725q0 -147 -104.5 -251.5t-252.5 -104.5h-98zM559 80h98q109 0 183.5 74.5t74.5 183.5
v725q0 109 -74.5 183.5t-183.5 74.5h-98q-109 0 -183.5 -75t-74.5 -183v-725q0 -109 74.5 -183.5t183.5 -74.5z" />
    <glyph glyph-name="ohungarumlaut" unicode="&#x151;" 
d="M473 1155l-70 70l244 241l70 -69zM774 1155l-69 70l243 241l70 -69zM571 1063h74q147 0 251.5 -104.5t104.5 -251.5v-369q0 -147 -104 -251.5t-252 -104.5h-74q-145 0 -250.5 104t-105.5 252v369q0 147 105.5 251.5t250.5 104.5zM571 965q-109 0 -183.5 -75t-74.5 -183
v-369q0 -109 75 -183.5t183 -74.5h74q109 0 183.5 74.5t74.5 183.5v369q0 109 -74.5 183.5t-183.5 74.5h-74z" />
    <glyph glyph-name="OE" unicode="&#x152;" 
d="M1114 1303h-348v-553h287v-99h-287v-553h348v-98h-446v68q-70 -86 -179 -86q-115 0 -195.5 80.5t-80.5 195.5v885q0 115 81 195.5t195 80.5q109 0 179 -86v68h446v-98zM489 80q72 0 125.5 52t53.5 126v885q0 74 -53.5 126t-125.5 52q-74 0 -126 -52t-52 -126v-885
q0 -74 52 -126t126 -52z" />
    <glyph glyph-name="oe" unicode="&#x153;" 
d="M1110 473h-453v-215q0 -74 51.5 -126t125.5 -52q59 0 106 35t64 90l94 -29q-27 -86 -99.5 -140t-164.5 -54q-72 0 -132.5 35.5t-93.5 95.5q-35 -59 -95 -95t-132 -36q-115 0 -196 80.5t-81 195.5v528q0 115 81 196t196 81q72 0 132 -36t95 -95q33 59 93.5 95t132.5 36
q115 0 195.5 -81t80.5 -196v-313zM559 258v528q0 74 -52 126.5t-126 52.5t-126 -52.5t-52 -126.5v-528q0 -74 52 -126t126 -52t126 52t52 126zM657 786v-215h355v215q0 74 -52.5 126.5t-126 52.5t-125 -52.5t-51.5 -126.5z" />
    <glyph glyph-name="Racute" unicode="&#x154;" 
d="M842 1753l-244 -242l-70 70l244 242zM926 391q109 -117 108 -262v-129h-98v129q0 109 -82 195l-248 266h-274v-590h-99v1401h431q147 0 251.5 -104.5t104.5 -252.5v-98q0 -129 -82 -227t-207 -123zM332 1303v-615h332q106 0 182 76t76 182v98q0 106 -76 182.5t-182 76.5
h-332z" />
    <glyph glyph-name="racute" unicode="&#x155;" 
d="M739 1155l-69 70l243 241l70 -69zM141 0v98h209v609q0 147 104.5 251.5t252.5 104.5h73q123 0 220.5 -76t125.5 -192l-96 -29q-20 86 -89 142.5t-161 56.5h-73q-106 0 -182 -76t-76 -182v-609h503v-98h-811z" />
    <glyph glyph-name="Rcommaaccent" unicode="&#x156;" 
d="M926 391q109 -117 108 -262v-129h-98v129q0 109 -82 195l-248 266h-274v-590h-99v1401h431q147 0 251.5 -104.5t104.5 -252.5v-98q0 -129 -82 -227t-207 -123zM332 1303v-615h332q106 0 182 76t76 182v98q0 106 -76 182.5t-182 76.5h-332zM487 -276v98h283v-107
q0 -117 -69.5 -209t-178.5 -124l-28 94q80 25 129 92t49 156h-185z" />
    <glyph glyph-name="rcommaaccent" unicode="&#x157;" 
d="M141 0v98h209v609q0 147 104.5 251.5t252.5 104.5h73q123 0 220.5 -76t125.5 -192l-96 -29q-20 86 -89 142.5t-161 56.5h-73q-106 0 -182 -76t-76 -182v-609h503v-98h-811zM406 -178h282v-107q0 -117 -69.5 -209t-178.5 -124l-28 94q80 25 129 92t49 156h-184v98z" />
    <glyph glyph-name="Rcaron" unicode="&#x158;" 
d="M643 1563h-82l-237 237l69 72l209 -211l209 211l70 -72zM926 391q109 -117 108 -262v-129h-98v129q0 109 -82 195l-248 266h-274v-590h-99v1401h431q147 0 251.5 -104.5t104.5 -252.5v-98q0 -129 -82 -227t-207 -123zM332 1303v-615h332q106 0 182 76t76 182v98
q0 106 -76 182.5t-182 76.5h-332z" />
    <glyph glyph-name="rcaron" unicode="&#x159;" 
d="M465 1444l70 72l208 -211l209 211l70 -72l-238 -238h-82zM141 0v98h209v609q0 147 104.5 251.5t252.5 104.5h73q123 0 220.5 -76t125.5 -192l-96 -29q-20 86 -89 142.5t-161 56.5h-73q-106 0 -182 -76t-76 -182v-609h503v-98h-811z" />
    <glyph glyph-name="Sacute" unicode="&#x15a;" 
d="M600 1511l-70 70l244 242l70 -70zM174 250l94 26q23 -86 92.5 -141t159.5 -55h135q106 0 182 75.5t76 182.5q0 205 -219 289l-198 75q-295 111 -295 361q0 150 104.5 253t251.5 103h92q123 0 218.5 -74.5t125.5 -191.5l-94 -29q-23 86 -91.5 141.5t-158.5 55.5h-92
q-106 0 -182 -75t-76 -183q0 -94 53.5 -156.5t177.5 -111.5l203 -78q279 -111 279 -379q0 -147 -105.5 -251.5t-251.5 -104.5h-135q-123 0 -219 75.5t-127 192.5z" />
    <glyph glyph-name="sacute" unicode="&#x15b;" 
d="M616 1155l-69 70l244 241l69 -69zM219 178l94 29q18 -55 65.5 -91t108.5 -36h234q76 0 130 54t54 130q0 72 -45 126t-121 67l-247 37q-111 16 -183.5 96t-72.5 190q0 119 82.5 201t199.5 82h197q92 0 166.5 -55.5t101.5 -141.5l-94 -28q-18 55 -65.5 91t-108.5 36h-197
q-76 0 -130 -54.5t-54 -130.5q0 -80 50 -129t122 -59l248 -39q111 -18 180.5 -98t69.5 -191q0 -117 -83 -199.5t-200 -82.5h-234q-92 0 -166.5 55t-101.5 141z" />
    <glyph glyph-name="Scircumflex" unicode="&#x15c;" 
d="M326 1604l237 237h82l238 -237l-70 -72l-209 211l-209 -211zM174 250l94 26q23 -86 92.5 -141t159.5 -55h135q106 0 182 75.5t76 182.5q0 205 -219 289l-198 75q-295 111 -295 361q0 150 104.5 253t251.5 103h92q123 0 218.5 -74.5t125.5 -191.5l-94 -29
q-23 86 -91.5 141.5t-158.5 55.5h-92q-106 0 -182 -75t-76 -183q0 -94 53.5 -156.5t177.5 -111.5l203 -78q279 -111 279 -379q0 -147 -105.5 -251.5t-251.5 -104.5h-135q-123 0 -219 75.5t-127 192.5z" />
    <glyph glyph-name="scircumflex" unicode="&#x15d;" 
d="M342 1247l238 238h82l237 -238l-70 -71l-208 210l-209 -210zM219 178l94 29q18 -55 65.5 -91t108.5 -36h234q76 0 130 54t54 130q0 72 -45 126t-121 67l-247 37q-111 16 -183.5 96t-72.5 190q0 119 82.5 201t199.5 82h197q92 0 166.5 -55.5t101.5 -141.5l-94 -28
q-18 55 -65.5 91t-108.5 36h-197q-76 0 -130 -54.5t-54 -130.5q0 -80 50 -129t122 -59l248 -39q111 -18 180.5 -98t69.5 -191q0 -117 -83 -199.5t-200 -82.5h-234q-92 0 -166.5 55t-101.5 141z" />
    <glyph glyph-name="Scedilla" unicode="&#x15e;" 
d="M655 -18h-16v-86q78 -16 131 -79t53 -145q0 -94 -66.5 -160.5t-160.5 -66.5h-57v98h57q53 0 91 37t38 92q0 53 -38 91t-91 38h-55v181h-21q-123 0 -219 75.5t-127 192.5l94 26q23 -86 92.5 -141t159.5 -55h135q106 0 182 75.5t76 182.5q0 205 -219 289l-198 75
q-295 111 -295 361q0 150 104.5 253t251.5 103h92q123 0 218.5 -74.5t125.5 -191.5l-94 -29q-23 86 -91.5 141.5t-158.5 55.5h-92q-106 0 -182 -75t-76 -183q0 -94 53.5 -156.5t177.5 -111.5l203 -78q279 -111 279 -379q0 -147 -106 -251.5t-251 -104.5z" />
    <glyph glyph-name="scedilla" unicode="&#x15f;" 
d="M721 -18h-64v-86q78 -16 131.5 -79t53.5 -145q0 -94 -66.5 -160.5t-161.5 -66.5h-57v98h57q53 0 91 37t38 92q0 53 -37.5 91t-91.5 38h-55v181h-72q-92 0 -166.5 55t-101.5 141l94 29q18 -55 65.5 -91t108.5 -36h234q76 0 130 54t54 130q0 72 -45 126t-121 67l-247 37
q-111 16 -183.5 96t-72.5 190q0 119 82.5 201t199.5 82h197q92 0 166.5 -55.5t101.5 -141.5l-94 -28q-18 55 -65.5 91t-108.5 36h-197q-76 0 -130 -54.5t-54 -130.5q0 -80 50 -129t122 -59l248 -39q111 -18 180.5 -98t69.5 -191q0 -117 -83 -199.5t-200 -82.5z" />
    <glyph glyph-name="Scaron" unicode="&#x160;" 
d="M326 1800l69 72l209 -211l209 211l70 -72l-238 -237h-82zM174 250l94 26q23 -86 92.5 -141t159.5 -55h135q106 0 182 75.5t76 182.5q0 205 -219 289l-198 75q-295 111 -295 361q0 150 104.5 253t251.5 103h92q123 0 218.5 -74.5t125.5 -191.5l-94 -29q-23 86 -91.5 141.5
t-158.5 55.5h-92q-106 0 -182 -75t-76 -183q0 -94 53.5 -156.5t177.5 -111.5l203 -78q279 -111 279 -379q0 -147 -105.5 -251.5t-251.5 -104.5h-135q-123 0 -219 75.5t-127 192.5z" />
    <glyph glyph-name="scaron" unicode="&#x161;" 
d="M342 1444l70 72l209 -211l208 211l70 -72l-237 -238h-82zM219 178l94 29q18 -55 65.5 -91t108.5 -36h234q76 0 130 54t54 130q0 72 -45 126t-121 67l-247 37q-111 16 -183.5 96t-72.5 190q0 119 82.5 201t199.5 82h197q92 0 166.5 -55.5t101.5 -141.5l-94 -28
q-18 55 -65.5 91t-108.5 36h-197q-76 0 -130 -54.5t-54 -130.5q0 -80 50 -129t122 -59l248 -39q111 -18 180.5 -98t69.5 -191q0 -117 -83 -199.5t-200 -82.5h-234q-92 0 -166.5 55t-101.5 141z" />
    <glyph glyph-name="Tcommaaccent" unicode="&#x162;" 
d="M657 1303v-1407q78 -16 131.5 -79t53.5 -145q0 -94 -66.5 -160.5t-161.5 -66.5h-57v98h57q53 0 91 37t38 92q0 53 -37.5 91t-91.5 38h-55v1502h-377v98h852v-98h-377z" />
    <glyph glyph-name="tcommaaccent" unicode="&#x163;" 
d="M1116 248q-27 -104 -106.5 -176t-186.5 -86v-90q78 -16 131.5 -79t53.5 -145q0 -94 -67 -160.5t-161 -66.5h-57v98h57q53 0 91 37t38 92q0 53 -37.5 91t-91.5 38h-55v185q-129 18 -217 117.5t-88 232.5v610h-283v98h283v283h98v-283h516v-98h-516v-610q0 -106 75 -181
t181 -75q90 0 158.5 56.5t89.5 139.5z" />
    <glyph glyph-name="Tcaron" unicode="&#x164;" 
d="M330 1800l69 72l209 -211l209 211l70 -72l-238 -237h-82zM182 1401h852v-98h-377v-1303h-98v1303h-377v98z" />
    <glyph glyph-name="tcaron" unicode="&#x165;" 
d="M655 1599h283v-106q0 -117 -69.5 -209t-178.5 -125l-28 94q80 25 129 92.5t49 155.5h-185v98zM137 946v98h283v283h98v-283h516v-98h-516v-610q0 -106 75 -181t181 -75q90 0 158.5 56.5t89.5 139.5l94 -28q-29 -115 -124 -190.5t-218 -75.5q-145 0 -249.5 104t-104.5 250
v610h-283z" />
    <glyph glyph-name="Tbar" unicode="&#x166;" 
d="M1034 1303h-377v-558h254v-98h-254v-647h-98v647h-254v98h254v558h-377v98h852v-98z" />
    <glyph glyph-name="tbar" unicode="&#x167;" 
d="M1022 276l94 -28q-29 -115 -124 -190.5t-218 -75.5q-145 0 -249.5 104t-104.5 250v235h-205v99h205v276h-283v98h283v283h98v-283h516v-98h-516v-276h287v-99h-287v-235q0 -106 75 -181t181 -75q90 0 159 56t89 140z" />
    <glyph glyph-name="Utilde" unicode="&#x168;" 
d="M217 1561v22q0 98 68.5 167t165.5 69q106 0 167 -78q78 -92 148 -92q53 0 94 40t41 95v22h98v-22q0 -96 -68.5 -165t-164.5 -69q-106 0 -168 76q-78 94 -147 94q-55 0 -95.5 -40t-40.5 -97v-22h-98zM207 1401h98v-1063q0 -109 75 -183.5t183 -74.5h99q106 0 182 75.5
t76 182.5v1063h98v-1063q0 -147 -104.5 -251.5t-251.5 -104.5h-99q-147 0 -251.5 104t-104.5 252v1063z" />
    <glyph glyph-name="utilde" unicode="&#x169;" 
d="M217 1204v23q0 98 68.5 166.5t165.5 68.5q106 0 167 -78q78 -92 148 -92q53 0 94 40t41 95v23h98v-23q0 -96 -68.5 -164.5t-164.5 -68.5q-106 0 -168 76q-78 94 -147 94q-55 0 -95.5 -40t-40.5 -97v-23h-98zM215 1044h98v-706q0 -109 75 -183.5t183 -74.5h74
q109 0 183.5 74.5t74.5 183.5v706h98v-706q0 -147 -104 -251.5t-252 -104.5h-74q-145 0 -250.5 104t-105.5 252v706z" />
    <glyph glyph-name="Umacron" unicode="&#x16a;" 
d="M324 1579v98h569v-98h-569zM207 1401h98v-1063q0 -109 75 -183.5t183 -74.5h99q106 0 182 75.5t76 182.5v1063h98v-1063q0 -147 -104.5 -251.5t-251.5 -104.5h-99q-147 0 -251.5 104t-104.5 252v1063z" />
    <glyph glyph-name="umacron" unicode="&#x16b;" 
d="M324 1223v98h569v-98h-569zM215 1044h98v-706q0 -109 75 -183.5t183 -74.5h74q109 0 183.5 74.5t74.5 183.5v706h98v-706q0 -147 -104 -251.5t-252 -104.5h-74q-145 0 -250.5 104t-105.5 252v706z" />
    <glyph glyph-name="Ubreve" unicode="&#x16c;" 
d="M381 1772h98q0 -53 38 -91.5t91.5 -38.5t91 38t37.5 92h99q0 -94 -67 -161t-161 -67t-160.5 67t-66.5 161zM207 1401h98v-1063q0 -109 75 -183.5t183 -74.5h99q106 0 182 75.5t76 182.5v1063h98v-1063q0 -147 -104.5 -251.5t-251.5 -104.5h-99q-147 0 -251.5 104
t-104.5 252v1063z" />
    <glyph glyph-name="ubreve" unicode="&#x16d;" 
d="M381 1415h98q0 -53 38 -91t91.5 -38t91 38t37.5 91h99q0 -94 -67 -160.5t-161 -66.5t-160.5 66.5t-66.5 160.5zM215 1044h98v-706q0 -109 75 -183.5t183 -74.5h74q109 0 183.5 74.5t74.5 183.5v706h98v-706q0 -147 -104 -251.5t-252 -104.5h-74q-145 0 -250.5 104
t-105.5 252v706z" />
    <glyph glyph-name="Uring" unicode="&#x16e;" 
d="M381 1628q0 96 65.5 161.5t161.5 65.5q94 0 161 -66.5t67 -160.5t-67 -160.5t-161 -66.5t-160.5 66.5t-66.5 160.5zM479 1628q0 -53 38 -91t91.5 -38t91 38t37.5 91t-37.5 91t-91 38t-91.5 -38t-38 -91zM207 1401h98v-1063q0 -109 75 -183.5t183 -74.5h99q106 0 182 75.5
t76 182.5v1063h98v-1063q0 -147 -104.5 -251.5t-251.5 -104.5h-99q-147 0 -251.5 104t-104.5 252v1063z" />
    <glyph glyph-name="uring" unicode="&#x16f;" 
d="M381 1272q0 96 65.5 161.5t161.5 65.5q94 0 161 -66.5t67 -160.5t-67 -161t-161 -67t-160.5 67t-66.5 161zM479 1272q0 -53 38 -91t91.5 -38t91 38t37.5 91t-37.5 91t-91 38t-91.5 -38t-38 -91zM215 1044h98v-706q0 -109 75 -183.5t183 -74.5h74q109 0 183.5 74.5
t74.5 183.5v706h98v-706q0 -147 -104 -251.5t-252 -104.5h-74q-145 0 -250.5 104t-105.5 252v706z" />
    <glyph glyph-name="Uhungarumlaut" unicode="&#x170;" 
d="M473 1511l-70 70l244 242l70 -70zM774 1511l-69 70l243 242l70 -70zM207 1401h98v-1063q0 -109 75 -183.5t183 -74.5h99q106 0 182 75.5t76 182.5v1063h98v-1063q0 -147 -104.5 -251.5t-251.5 -104.5h-99q-147 0 -251.5 104t-104.5 252v1063z" />
    <glyph glyph-name="uhungarumlaut" unicode="&#x171;" 
d="M473 1155l-70 70l244 241l70 -69zM774 1155l-69 70l243 241l70 -69zM215 1044h98v-706q0 -109 75 -183.5t183 -74.5h74q109 0 183.5 74.5t74.5 183.5v706h98v-706q0 -147 -104 -251.5t-252 -104.5h-74q-145 0 -250.5 104t-105.5 252v706z" />
    <glyph glyph-name="Uogonek" unicode="&#x172;" 
d="M920 1401h98v-1063q0 -147 -104.5 -251.5t-251.5 -104.5h-5v-115q0 -53 38 -91t91 -38h21v-98h-21q-94 0 -160.5 66.5t-66.5 160.5v115q-145 2 -248.5 106.5t-103.5 249.5v1063h98v-1063q0 -109 75 -183.5t183 -74.5h99q106 0 182 75.5t76 182.5v1063z" />
    <glyph glyph-name="uogonek" unicode="&#x173;" 
d="M903 1044h98v-706q0 -143 -100 -247.5t-244 -108.5v-111q0 -53 38 -91t91 -38h21v-98h-21q-94 0 -160.5 66.5t-66.5 160.5v111q-141 4 -242.5 108.5t-101.5 247.5v706h98v-706q0 -109 75 -183.5t183 -74.5h74q109 0 183.5 74.5t74.5 183.5v706z" />
    <glyph glyph-name="Wcircumflex" unicode="&#x174;" 
d="M330 1604l237 237h82l238 -237l-70 -72l-209 211l-209 -211zM143 1401h99v-275q0 -123 24 -260l129 -729l154 711h121l151 -705l129 723q25 137 25 260v275h98v-275q0 -129 -24 -276l-150 -850h-133l-156 733l-157 -733h-136l-149 850q-25 147 -25 276v275z" />
    <glyph glyph-name="wcircumflex" unicode="&#x175;" 
d="M330 1247l237 238h82l238 -238l-70 -71l-209 210l-209 -210zM141 913v131h99v-131q0 -121 30 -251l121 -500l164 704h107l163 -704l121 500q31 131 31 251v131h98v-131q0 -141 -33 -274l-153 -639h-115l-166 709l-166 -709h-114l-154 639q-33 133 -33 274z" />
    <glyph glyph-name="Ycircumflex" unicode="&#x176;" 
d="M330 1604l237 237h82l238 -237l-70 -72l-209 211l-209 -211zM1010 1114q0 -111 -80 -231l-273 -344v-539h-98v539l-272 344q-8 8 -24.5 33.5t-36 83t-19.5 114.5v287h98v-287q0 -41 15.5 -85t27.5 -64.5t17 -24.5l243 -307l244 307l6 10q6 8 14.5 24.5t17.5 37t15 48
t6 54.5v287h99v-287z" />
    <glyph glyph-name="ycircumflex" unicode="&#x177;" 
d="M330 1247l237 238h82l238 -238l-70 -71l-209 210l-209 -210zM213 1044h98v-131q0 -119 60 -227l241 -450l244 450q57 109 57 227v131h99v-131q0 -141 -70 -274l-481 -887q-16 -35 -64.5 -71.5t-115.5 -36.5h-160v98h160q55 0 94 57l182 334l-272 506q-72 129 -72 274v131
z" />
    <glyph glyph-name="Ydieresis" unicode="&#x178;" 
d="M424 1550v277h98v-277h-98zM694 1550v277h99v-277h-99zM1010 1114q0 -111 -80 -231l-273 -344v-539h-98v539l-272 344q-8 8 -24.5 33.5t-36 83t-19.5 114.5v287h98v-287q0 -41 15.5 -85t27.5 -64.5t17 -24.5l243 -307l244 307l6 10q6 8 14.5 24.5t17.5 37t15 48t6 54.5
v287h99v-287z" />
    <glyph glyph-name="Zacute" unicode="&#x179;" 
d="M604 1511l-69 70l243 242l70 -70zM227 1401h760v-98l-665 -1205h684v-98h-795v98l666 1205h-650v98z" />
    <glyph glyph-name="zacute" unicode="&#x17a;" 
d="M608 1155l-69 70l243 241l70 -69zM254 1044h715v-98l-611 -848h629v-98h-751v98l610 848h-592v98z" />
    <glyph glyph-name="Zdotaccent" unicode="&#x17b;" 
d="M559 1550v277h98v-277h-98zM227 1401h760v-98l-665 -1205h684v-98h-795v98l666 1205h-650v98z" />
    <glyph glyph-name="zdotaccent" unicode="&#x17c;" 
d="M563 1194v276h99v-276h-99zM254 1044h715v-98l-611 -848h629v-98h-751v98l610 848h-592v98z" />
    <glyph glyph-name="Zcaron" unicode="&#x17d;" 
d="M330 1800l69 72l209 -211l209 211l70 -72l-238 -237h-82zM227 1401h760v-98l-665 -1205h684v-98h-795v98l666 1205h-650v98z" />
    <glyph glyph-name="zcaron" unicode="&#x17e;" 
d="M334 1444l69 72l209 -211l209 211l70 -72l-238 -238h-82zM254 1044h715v-98l-611 -848h629v-98h-751v98l610 848h-592v98z" />
    <glyph glyph-name="uni0186" unicode="&#x186;" 
d="M197 1151q29 117 125 192.5t219 75.5h98q147 0 251.5 -104.5t104.5 -251.5v-725q0 -150 -104.5 -253t-251.5 -103h-98q-123 0 -219.5 74.5t-124.5 191.5l94 28q23 -86 91.5 -141t158.5 -55h98q106 0 182 74.5t76 183.5v725q0 106 -76 182t-182 76h-98q-90 0 -159 -55.5
t-91 -141.5z" />
    <glyph glyph-name="uni0189" unicode="&#x189;" 
d="M682 1401q147 0 250.5 -103.5t103.5 -253.5v-688q0 -150 -103.5 -253t-250.5 -103h-432v651h-164v99h164v651h432zM938 356v688q0 109 -75 184t-181 75h-334v-553h303v-99h-303v-553h334q106 0 181 74.5t75 183.5z" />
    <glyph glyph-name="uni018E" unicode="&#x18e;" 
d="M971 0h-787v98h688v553h-624v99h624v553h-688v98h787v-1401z" />
    <glyph glyph-name="uni018F" unicode="&#x18f;" 
d="M215 1153q29 115 125 190.5t219 75.5h98q145 0 251 -104.5t106 -251.5v-725q0 -147 -105.5 -251.5t-251.5 -104.5h-98q-145 0 -250.5 104t-105.5 252v412h712v313q0 109 -74.5 183.5t-183.5 74.5h-98q-90 0 -158.5 -55.5t-91.5 -141.5zM301 651v-313q0 -109 75 -183.5
t183 -74.5h98q109 0 183.5 74.5t74.5 183.5v313h-614z" />
    <glyph glyph-name="uni0190" unicode="&#x190;" 
d="M954 276l95 -28q-31 -117 -127.5 -191.5t-219.5 -74.5h-100q-147 0 -251.5 103t-104.5 253v68q0 100 55 184t145 125q-84 43 -136 125t-52 180v43q0 147 104.5 251.5t251.5 104.5h88q123 0 219.5 -75.5t125.5 -192.5l-95 -27q-20 86 -89.5 141.5t-160.5 55.5h-88
q-106 0 -182 -76t-76 -182v-43q0 -106 76 -182t182 -76h201v-98h-213q-106 0 -182 -76t-76 -182v-68q0 -106 76 -182t182 -76h100q90 0 159.5 55t92.5 141z" />
    <glyph glyph-name="florin" unicode="&#x192;" 
d="M829 1321q-72 0 -122 -50t-50 -122v-399h314v-99h-314v-399q0 -113 -78.5 -191.5t-191.5 -78.5q-96 0 -170 59t-94 149l94 29q12 -59 60.5 -99t109.5 -40q72 0 122 50t50 122v399h-313v99h313v399q0 111 79 190.5t191 79.5q96 0 169 -59.5t94 -151.5l-93 -26
q-12 59 -60.5 99t-109.5 40z" />
    <glyph glyph-name="uni0197" unicode="&#x197;" 
d="M657 98h344v-98h-786v98h344v570h-258v98h258v537h-332v98h762v-98h-332v-537h258v-98h-258v-570z" />
    <glyph glyph-name="uni019D" unicode="&#x19d;" 
d="M922 1401h98v-1401h-123l-602 1225v-1354q0 -94 -66.5 -160.5t-160.5 -66.5h-21v98h21q53 0 91 38t38 91v1530h122l603 -1225v1225z" />
    <glyph glyph-name="uni019F" unicode="&#x19f;" 
d="M657 1419q147 0 252 -104.5t105 -251.5v-725q0 -147 -104.5 -251.5t-252.5 -104.5h-98q-145 0 -250.5 104t-105.5 252v725q0 147 105.5 251.5t250.5 104.5h98zM559 1321q-109 0 -183.5 -75t-74.5 -183v-313h614v313q0 109 -74.5 183.5t-183.5 74.5h-98zM657 80
q109 0 183.5 74.5t74.5 183.5v313h-614v-313q0 -109 75 -183.5t183 -74.5h98z" />
    <glyph glyph-name="Ohorn" unicode="&#x1a0;" 
d="M1096 1401h98v-49q0 -82 -53.5 -145.5t-132.5 -78.5q6 -31 6 -65v-725q0 -147 -104.5 -251.5t-252.5 -104.5h-98q-145 0 -250.5 104t-105.5 252v725q0 147 105.5 251.5t250.5 104.5h98q102 0 188.5 -54t129.5 -142q51 2 86 39.5t35 89.5v49zM915 338v725
q0 109 -74.5 183.5t-183.5 74.5h-98q-109 0 -183.5 -75t-74.5 -183v-725q0 -109 75 -183.5t183 -74.5h98q109 0 183.5 74.5t74.5 183.5z" />
    <glyph glyph-name="ohorn" unicode="&#x1a1;" 
d="M1092 1044h98v-49q0 -84 -55.5 -148.5t-139.5 -76.5q6 -31 6 -63v-369q0 -147 -104 -251.5t-252 -104.5h-74q-145 0 -250.5 104t-105.5 252v369q0 147 105.5 251.5t250.5 104.5h74q102 0 188.5 -54.5t131.5 -142.5q53 0 90 38t37 91v49zM903 338v369q0 109 -74.5 183.5
t-183.5 74.5h-74q-109 0 -183.5 -75t-74.5 -183v-369q0 -109 75 -183.5t183 -74.5h74q109 0 183.5 74.5t74.5 183.5z" />
    <glyph glyph-name="uni01A9" unicode="&#x1a9;" 
d="M221 1401h793v-98h-674l377 -603l-389 -602h704v-98h-823v98l389 602l-377 603v98z" />
    <glyph glyph-name="Uhorn" unicode="&#x1af;" 
d="M1157 1401h98v-49q0 -94 -66.5 -161t-160.5 -67h-10v-786q0 -147 -104.5 -251.5t-251.5 -104.5h-99q-147 0 -251.5 104t-104.5 252v1063h98v-1063q0 -109 75 -183.5t183 -74.5h99q106 0 182 75.5t76 182.5v1063h98v-178h10q53 0 91 37.5t38 91.5v49z" />
    <glyph glyph-name="uhorn" unicode="&#x1b0;" 
d="M1092 1223h98v-49q0 -84 -54.5 -146.5t-134.5 -77.5v-612q0 -147 -104 -251.5t-252 -104.5h-74q-145 0 -250.5 104t-105.5 252v706h98v-706q0 -109 75 -183.5t183 -74.5h74q109 0 183.5 74.5t74.5 183.5v706h60q53 0 91 38t38 92v49z" />
    <glyph glyph-name="uni01B1" unicode="&#x1b1;" 
d="M1032 1401v-98h-158q139 -109 140 -281v-684q0 -150 -104.5 -253t-252.5 -103h-98q-147 0 -251.5 104t-104.5 252v684q0 172 139 281h-158v98h375v-98q-106 0 -182 -76t-76 -183v-706q0 -106 76 -182t182 -76h98q109 0 183.5 74.5t74.5 183.5v706q0 106 -75.5 182.5
t-182.5 76.5v98h375z" />
    <glyph glyph-name="uni01CD" unicode="&#x1cd;" 
d="M649 1563h-82l-237 237l69 72l209 -211l209 211l70 -72zM993 563q37 -137 37 -295v-268h-98v268q0 14 -4 92h-637q-6 -59 -6 -92v-268h-99v268q0 135 37 295l195 711q16 63 69.5 104t121 41t120.5 -41t70 -104zM303 459h610q-4 33 -16 78l-192 708q-8 33 -35 54.5
t-62 21.5t-61.5 -21.5t-34.5 -54.5l-193 -708q-12 -45 -16 -78z" />
    <glyph glyph-name="uni01CE" unicode="&#x1ce;" 
d="M649 1206h-82l-237 238l69 72l209 -211l209 211l70 -72zM893 1044h98v-1044h-98v121q-109 -139 -283 -139h-49q-147 0 -251.5 104t-104.5 252v369q0 147 104.5 251.5t251.5 104.5h49q174 0 283 -139v120zM635 80q106 0 182 74.5t76 183.5v369q0 109 -76 183.5t-182 74.5
h-74q-106 0 -182 -75t-76 -183v-369q0 -109 76 -183.5t182 -74.5h74z" />
    <glyph glyph-name="uni01CF" unicode="&#x1cf;" 
d="M330 1800l69 72l209 -211l209 211l70 -72l-238 -237h-82zM215 98h344v1205h-332v98h762v-98h-332v-1205h344v-98h-786v98z" />
    <glyph glyph-name="uni01D0" unicode="&#x1d0;" 
d="M373 1444l69 72l209 -211l209 211l70 -72l-238 -238h-82zM295 1044h405v-946h351v-98h-824v98h375v848h-307v98z" />
    <glyph glyph-name="uni01D1" unicode="&#x1d1;" 
d="M330 1800l69 72l209 -211l209 211l70 -72l-238 -237h-82zM559 -18q-145 0 -250.5 104t-105.5 252v725q0 147 105.5 251.5t250.5 104.5h98q147 0 252 -104.5t105 -251.5v-725q0 -147 -104.5 -251.5t-252.5 -104.5h-98zM559 80h98q109 0 183.5 74.5t74.5 183.5v725
q0 109 -74.5 183.5t-183.5 74.5h-98q-109 0 -183.5 -75t-74.5 -183v-725q0 -109 74.5 -183.5t183.5 -74.5z" />
    <glyph glyph-name="uni01D2" unicode="&#x1d2;" 
d="M330 1444l69 72l209 -211l209 211l70 -72l-238 -238h-82zM571 1063h74q147 0 251.5 -104.5t104.5 -251.5v-369q0 -147 -104 -251.5t-252 -104.5h-74q-145 0 -250.5 104t-105.5 252v369q0 147 105.5 251.5t250.5 104.5zM571 965q-109 0 -183.5 -75t-74.5 -183v-369
q0 -109 75 -183.5t183 -74.5h74q109 0 183.5 74.5t74.5 183.5v369q0 109 -74.5 183.5t-183.5 74.5h-74z" />
    <glyph glyph-name="uni01D3" unicode="&#x1d3;" 
d="M330 1800l69 72l209 -211l209 211l70 -72l-238 -237h-82zM207 1401h98v-1063q0 -109 75 -183.5t183 -74.5h99q106 0 182 75.5t76 182.5v1063h98v-1063q0 -147 -104.5 -251.5t-251.5 -104.5h-99q-147 0 -251.5 104t-104.5 252v1063z" />
    <glyph glyph-name="uni01D4" unicode="&#x1d4;" 
d="M330 1444l69 72l209 -211l209 211l70 -72l-238 -238h-82zM215 1044h98v-706q0 -109 75 -183.5t183 -74.5h74q109 0 183.5 74.5t74.5 183.5v706h98v-706q0 -147 -104 -251.5t-252 -104.5h-74q-145 0 -250.5 104t-105.5 252v706z" />
    <glyph glyph-name="uni01D5" unicode="&#x1d5;" 
d="M324 1933v99h569v-99h-569zM424 1550v277h98v-277h-98zM694 1550v277h99v-277h-99zM207 1401h98v-1063q0 -109 75 -183.5t183 -74.5h99q106 0 182 75.5t76 182.5v1063h98v-1063q0 -147 -104.5 -251.5t-251.5 -104.5h-99q-147 0 -251.5 104t-104.5 252v1063z" />
    <glyph glyph-name="uni01D6" unicode="&#x1d6;" 
d="M324 1577v98h569v-98h-569zM424 1194v276h98v-276h-98zM694 1194v276h99v-276h-99zM215 1044h98v-706q0 -109 75 -183.5t183 -74.5h74q109 0 183.5 74.5t74.5 183.5v706h98v-706q0 -147 -104 -251.5t-252 -104.5h-74q-145 0 -250.5 104t-105.5 252v706z" />
    <glyph glyph-name="uni01D7" unicode="&#x1d7;" 
d="M604 1866l-69 69l243 242l70 -70zM424 1550v277h98v-277h-98zM694 1550v277h99v-277h-99zM207 1401h98v-1063q0 -109 75 -183.5t183 -74.5h99q106 0 182 75.5t76 182.5v1063h98v-1063q0 -147 -104.5 -251.5t-251.5 -104.5h-99q-147 0 -251.5 104t-104.5 252v1063z" />
    <glyph glyph-name="uni01D8" unicode="&#x1d8;" 
d="M604 1509l-69 70l243 242l70 -70zM424 1194v276h98v-276h-98zM694 1194v276h99v-276h-99zM215 1044h98v-706q0 -109 75 -183.5t183 -74.5h74q109 0 183.5 74.5t74.5 183.5v706h98v-706q0 -147 -104 -251.5t-252 -104.5h-74q-145 0 -250.5 104t-105.5 252v706z" />
    <glyph glyph-name="uni01D9" unicode="&#x1d9;" 
d="M330 2154l69 72l209 -211l209 211l70 -72l-238 -237h-82zM424 1550v277h98v-277h-98zM694 1550v277h99v-277h-99zM207 1401h98v-1063q0 -109 75 -183.5t183 -74.5h99q106 0 182 75.5t76 182.5v1063h98v-1063q0 -147 -104.5 -251.5t-251.5 -104.5h-99q-147 0 -251.5 104
t-104.5 252v1063z" />
    <glyph glyph-name="uni01DA" unicode="&#x1da;" 
d="M330 1798l69 72l209 -211l209 211l70 -72l-238 -237h-82zM424 1194v276h98v-276h-98zM694 1194v276h99v-276h-99zM215 1044h98v-706q0 -109 75 -183.5t183 -74.5h74q109 0 183.5 74.5t74.5 183.5v706h98v-706q0 -147 -104 -251.5t-252 -104.5h-74q-145 0 -250.5 104
t-105.5 252v706z" />
    <glyph glyph-name="uni01DB" unicode="&#x1db;" 
d="M612 1866l-243 241l69 70l244 -242zM424 1550v277h98v-277h-98zM694 1550v277h99v-277h-99zM207 1401h98v-1063q0 -109 75 -183.5t183 -74.5h99q106 0 182 75.5t76 182.5v1063h98v-1063q0 -147 -104.5 -251.5t-251.5 -104.5h-99q-147 0 -251.5 104t-104.5 252v1063z" />
    <glyph glyph-name="uni01DC" unicode="&#x1dc;" 
d="M612 1509l-243 242l69 70l244 -242zM424 1194v276h98v-276h-98zM694 1194v276h99v-276h-99zM215 1044h98v-706q0 -109 75 -183.5t183 -74.5h74q109 0 183.5 74.5t74.5 183.5v706h98v-706q0 -147 -104 -251.5t-252 -104.5h-74q-145 0 -250.5 104t-105.5 252v706z" />
    <glyph glyph-name="uni01DD" unicode="&#x1dd;" 
d="M639 -18h-74q-145 0 -250.5 104t-105.5 252v199h688v170q0 109 -76 183.5t-182 74.5h-74q-90 0 -159.5 -56.5t-90.5 -142.5l-94 29q29 117 125 192.5t219 75.5h74q147 0 251.5 -104.5t104.5 -251.5v-369q0 -147 -104.5 -251.5t-251.5 -104.5zM897 438h-590v-100
q0 -109 76 -183.5t182 -74.5h74q106 0 182 74.5t76 183.5v100z" />
    <glyph glyph-name="uni01DE" unicode="&#x1de;" 
d="M893 2032v-99h-569v99h569zM522 1550h-98v277h98v-277zM793 1550h-99v277h99v-277zM993 563q37 -137 37 -295v-268h-98v268q0 14 -4 92h-637q-6 -59 -6 -92v-268h-99v268q0 135 37 295l195 711q16 63 69.5 104t121 41t120.5 -41t70 -104zM303 459h610q-4 33 -16 78
l-192 708q-8 33 -35 54.5t-62 21.5t-61.5 -21.5t-34.5 -54.5l-193 -708q-12 -45 -16 -78z" />
    <glyph glyph-name="uni01DF" unicode="&#x1df;" 
d="M893 1675v-98h-569v98h569zM522 1194h-98v276h98v-276zM793 1194h-99v276h99v-276zM893 1044h98v-1044h-98v121q-109 -139 -283 -139h-49q-147 0 -251.5 104t-104.5 252v369q0 147 104.5 251.5t251.5 104.5h49q174 0 283 -139v120zM635 80q106 0 182 74.5t76 183.5v369
q0 109 -76 183.5t-182 74.5h-74q-106 0 -182 -75t-76 -183v-369q0 -109 76 -183.5t182 -74.5h74z" />
    <glyph glyph-name="Gcaron" unicode="&#x1e6;" 
d="M338 1800l70 72l208 -211l209 211l70 -72l-238 -237h-82zM1008 1151l-95 -27q-23 86 -91 141.5t-158 55.5h-99q-106 0 -182 -75t-76 -183v-725q0 -109 76 -183.5t182 -74.5h99q106 0 182 74.5t76 183.5v313h-301v99h399v-412q0 -147 -105.5 -251.5t-250.5 -104.5h-99
q-145 0 -250.5 104t-105.5 252v725q0 147 105.5 251.5t250.5 104.5h99q123 0 219 -75.5t125 -192.5z" />
    <glyph glyph-name="gcaron" unicode="&#x1e7;" 
d="M629 1206h-82l-238 238l70 72l209 -211l209 211l69 -72zM891 1044h98v-1062q0 -147 -104.5 -252t-251.5 -105h-74q-123 0 -219 76t-125 193l94 28q20 -86 90 -142t160 -56h74q106 0 182 75.5t76 182.5v213q-109 -139 -283 -140h-49q-145 0 -250.5 104.5t-105.5 252.5v295
q0 147 104.5 251.5t251.5 104.5h49q176 0 283 -137v118zM633 154q106 0 182 75.5t76 182.5v295q0 109 -75 183.5t-183 74.5h-74q-106 0 -182 -76t-76 -182v-295q0 -106 76 -182t182 -76h74z" />
    <glyph glyph-name="Aringacute" unicode="&#x1fa;" 
d="M848 2058l-244 -241l-69 69l243 242zM993 563q37 -137 37 -295v-268h-98v268q0 14 -4 92h-637q-6 -59 -6 -92v-268h-99v268q0 135 37 295l195 711q16 57 55 92q-92 66 -92 182q0 94 65.5 161t161.5 67q94 0 161 -67t67 -161q0 -115 -93 -182q39 -35 56 -92zM479 1548.5
q0 -53.5 38 -91.5t91.5 -38t91 38t37.5 91.5t-37.5 91t-91 37.5t-91.5 -37.5t-38 -91zM303 459h610q-4 33 -16 78l-192 708q-8 33 -35 54.5t-62 21.5t-61.5 -21.5t-34.5 -54.5l-193 -708q-12 -45 -16 -78z" />
    <glyph glyph-name="aringacute" unicode="&#x1fb;" 
d="M848 1702l-244 -242l-69 70l243 242zM893 1044h98v-1044h-98v121q-109 -139 -283 -139h-49q-147 0 -251.5 104t-104.5 252v369q0 115 64.5 206t168.5 127q-57 63 -57 152q0 94 65.5 160.5t161.5 66.5q94 0 161 -66.5t67 -160.5q0 -98 -72 -164q74 -35 129 -104v120z
M608.5 1321q-53.5 0 -91.5 -38t-38 -91t38 -91t91.5 -38t91 38t37.5 91t-37.5 91t-91 38zM635 80q106 0 182 74.5t76 183.5v369q0 109 -76 183.5t-182 74.5h-74q-106 0 -182 -75t-76 -183v-369q0 -109 76 -183.5t182 -74.5h74z" />
    <glyph glyph-name="AEacute" unicode="&#x1fc;" 
d="M946 1753l-244 -242l-69 70l244 242zM1051 1303h-351v-553h289v-99h-289v-553h351v-98h-449v360h-338q-4 -78 -4 -92v-268h-98v268q0 164 37 295l194 711q16 63 69.5 104t121.5 41q45 0 82 -18h385v-98zM279 459h323v860q-6 2 -18 2q-35 0 -61.5 -21.5t-35.5 -54.5
l-192 -708q-12 -45 -16 -78z" />
    <glyph glyph-name="aeacute" unicode="&#x1fd;" 
d="M852 1397l-244 -242l-69 70l243 241zM1116 473h-454v-215q0 -74 52 -126t126 -52q57 0 104 35t66 90l94 -29q-29 -86 -101.5 -140t-162.5 -54q-109 0 -178 84v-66h-99v66q-70 -84 -178 -84q-115 0 -195.5 80.5t-80.5 195.5v528q0 115 80.5 196t195.5 81q109 0 178 -84v65
h99v-65q70 84 178 84q115 0 195.5 -81t80.5 -196v-313zM385 80q74 0 126 52t52 126v528q0 74 -52 126.5t-126 52.5t-126 -52.5t-52 -126.5v-528q0 -74 52 -126t126 -52zM839.5 965q-73.5 0 -125.5 -52.5t-52 -126.5v-215h356v215q0 74 -52.5 126.5t-126 52.5z" />
    <glyph glyph-name="Oslashacute" unicode="&#x1fe;" 
d="M848 1753l-244 -242l-69 70l243 242zM1098 1405l-117 -191q33 -76 33 -151v-725q0 -147 -104.5 -251.5t-252.5 -104.5h-98q-156 0 -262 116l-96 -157l-84 51l121 194q-35 74 -35 152v725q0 147 105.5 251.5t250.5 104.5h98q158 0 265 -116l92 151zM301 338q0 -12 4 -41
l561 917q-76 106 -209 107h-98q-109 0 -183.5 -75t-74.5 -183v-725zM915 1063q0 27 -2 39l-563 -918q78 -104 209 -104h98q109 0 183.5 74.5t74.5 183.5v725z" />
    <glyph glyph-name="oslashacute" unicode="&#x1ff;" 
d="M848 1397l-244 -242l-69 70l243 241zM1004 1073l-84 -139q82 -98 81 -227v-369q0 -147 -104 -251.5t-252 -104.5h-74q-111 0 -200 61l-72 -117l-84 51l82 134q-82 98 -82 227v369q0 147 105.5 251.5t250.5 104.5h74q106 0 199 -59l74 120zM313 338q0 -72 39 -137l441 719
q-68 45 -148 45h-74q-109 0 -183.5 -75t-74.5 -183v-369zM903 707q0 74 -39 139l-442 -719q66 -47 149 -47h74q109 0 183.5 74.5t74.5 183.5v369z" />
    <glyph glyph-name="Scommaaccent" unicode="&#x218;" 
d="M174 250l94 26q23 -86 92.5 -141t159.5 -55h135q106 0 182 75.5t76 182.5q0 205 -219 289l-198 75q-295 111 -295 361q0 150 104.5 253t251.5 103h92q123 0 218.5 -74.5t125.5 -191.5l-94 -29q-23 86 -91.5 141.5t-158.5 55.5h-92q-106 0 -182 -75t-76 -183
q0 -94 53.5 -156.5t177.5 -111.5l203 -78q279 -111 279 -379q0 -147 -105.5 -251.5t-251.5 -104.5h-135q-123 0 -219 75.5t-127 192.5zM449 -178h282v-107q0 -117 -69.5 -209t-178.5 -124l-28 94q80 25 129 92t49 156h-184v98z" />
    <glyph glyph-name="scommaaccent" unicode="&#x219;" 
d="M219 178l94 29q18 -55 65.5 -91t108.5 -36h234q76 0 130 54t54 130q0 72 -45 126t-121 67l-247 37q-111 16 -183.5 96t-72.5 190q0 119 82.5 201t199.5 82h197q92 0 166.5 -55.5t101.5 -141.5l-94 -28q-18 55 -65.5 91t-108.5 36h-197q-76 0 -130 -54.5t-54 -130.5
q0 -80 50 -129t122 -59l248 -39q111 -18 180.5 -98t69.5 -191q0 -117 -83 -199.5t-200 -82.5h-234q-92 0 -166.5 55t-101.5 141zM467 -178h283v-107q0 -117 -70 -209t-178 -124l-29 94q80 25 129 92t49 156h-184v98z" />
    <glyph glyph-name="uni021A" unicode="&#x21a;" 
d="M182 1401h852v-98h-377v-1303h-98v1303h-377v98zM467 -178h283v-107q0 -117 -70 -209t-178 -124l-29 94q80 25 129 92t49 156h-184v98z" />
    <glyph glyph-name="uni021B" unicode="&#x21b;" 
d="M137 946v98h283v283h98v-283h516v-98h-516v-610q0 -106 75 -181t181 -75q90 0 158.5 56.5t89.5 139.5l94 -28q-29 -115 -124 -190.5t-218 -75.5q-145 0 -249.5 104t-104.5 250v610h-283zM633 -178h282v-107q0 -117 -69.5 -209t-177.5 -124l-29 94q80 25 129 92t49 156
h-184v98z" />
    <glyph glyph-name="uni021C" unicode="&#x21c;" 
d="M653 791q145 0 250 -105.5t105 -251.5v-78q0 -147 -104.5 -251.5t-250.5 -104.5h-399v98h397q106 0 182 76t76 182v78q0 106 -75.5 182t-182.5 76h-258v99l461 512h-598v98h733v-98l-461 -512h125z" />
    <glyph glyph-name="uni021D" unicode="&#x21d;" 
d="M653 434q145 0 250 -105.5t105 -250.5v-78q0 -147 -104.5 -251.5t-250.5 -104.5h-399v98h397q106 0 182 76t76 182v78q0 106 -75.5 182t-182.5 76h-258v98l461 512h-598v98h733v-98l-461 -512h125z" />
    <glyph glyph-name="uni0226" unicode="&#x226;" 
d="M657 1827v-277h-98v277h98zM993 563q37 -137 37 -295v-268h-98v268q0 14 -4 92h-637q-6 -59 -6 -92v-268h-99v268q0 135 37 295l195 711q16 63 69.5 104t121 41t120.5 -41t70 -104zM303 459h610q-4 33 -16 78l-192 708q-8 33 -35 54.5t-62 21.5t-61.5 -21.5t-34.5 -54.5
l-193 -708q-12 -45 -16 -78z" />
    <glyph glyph-name="uni0227" unicode="&#x227;" 
d="M657 1470v-276h-98v276h98zM893 1044h98v-1044h-98v121q-109 -139 -283 -139h-49q-147 0 -251.5 104t-104.5 252v369q0 147 104.5 251.5t251.5 104.5h49q174 0 283 -139v120zM635 80q106 0 182 74.5t76 183.5v369q0 109 -76 183.5t-182 74.5h-74q-106 0 -182 -75
t-76 -183v-369q0 -109 76 -183.5t182 -74.5h74z" />
    <glyph glyph-name="uni0228" unicode="&#x228;" 
d="M1032 1303h-688v-553h625v-99h-625v-553h688v-98h-342v-104q78 -16 131 -79t53 -145q0 -94 -66.5 -160.5t-160.5 -66.5h-57v98h57q53 0 91 37t38 92q0 53 -38 91t-91 38h-55v199h-346v1401h786v-98z" />
    <glyph glyph-name="uni0229" unicode="&#x229;" 
d="M1008 508h-689v-170q0 -109 76 -183.5t183 -74.5h73q90 0 160 56.5t90 142.5l94 -29q-29 -115 -122 -190.5t-211 -77.5v-86q78 -16 131 -79t53 -145q0 -94 -66.5 -160.5t-161.5 -66.5h-57v98h57q53 0 91.5 37t38.5 92q0 53 -38 91t-92 38h-55v181q-143 6 -242.5 109.5
t-99.5 246.5v369q0 147 104.5 251.5t252.5 104.5h73q145 0 251 -104.5t106 -251.5v-199zM319 707v-101h590v101q0 109 -75.5 183.5t-182.5 74.5h-73q-106 0 -182.5 -74.5t-76.5 -183.5z" />
    <glyph glyph-name="uni022A" unicode="&#x22a;" 
d="M324 1933v99h569v-99h-569zM424 1550v277h98v-277h-98zM694 1550v277h99v-277h-99zM559 -18q-145 0 -250.5 104t-105.5 252v725q0 147 105.5 251.5t250.5 104.5h98q147 0 252 -104.5t105 -251.5v-725q0 -147 -104.5 -251.5t-252.5 -104.5h-98zM559 80h98
q109 0 183.5 74.5t74.5 183.5v725q0 109 -74.5 183.5t-183.5 74.5h-98q-109 0 -183.5 -75t-74.5 -183v-725q0 -109 74.5 -183.5t183.5 -74.5z" />
    <glyph glyph-name="uni022B" unicode="&#x22b;" 
d="M324 1577v98h569v-98h-569zM424 1194v276h98v-276h-98zM694 1194v276h99v-276h-99zM571 1063h74q147 0 251.5 -104.5t104.5 -251.5v-369q0 -147 -104 -251.5t-252 -104.5h-74q-145 0 -250.5 104t-105.5 252v369q0 147 105.5 251.5t250.5 104.5zM571 965
q-109 0 -183.5 -75t-74.5 -183v-369q0 -109 75 -183.5t183 -74.5h74q109 0 183.5 74.5t74.5 183.5v369q0 109 -74.5 183.5t-183.5 74.5h-74z" />
    <glyph glyph-name="uni0232" unicode="&#x232;" 
d="M324 1579v98h569v-98h-569zM1010 1114q0 -111 -80 -231l-273 -344v-539h-98v539l-272 344q-8 8 -24.5 33.5t-36 83t-19.5 114.5v287h98v-287q0 -41 15.5 -85t27.5 -64.5t17 -24.5l243 -307l244 307l6 10q6 8 14.5 24.5t17.5 37t15 48t6 54.5v287h99v-287z" />
    <glyph glyph-name="uni0233" unicode="&#x233;" 
d="M324 1223v98h569v-98h-569zM213 1044h98v-131q0 -119 60 -227l241 -450l244 450q57 109 57 227v131h99v-131q0 -141 -70 -274l-481 -887q-16 -35 -64.5 -71.5t-115.5 -36.5h-160v98h160q55 0 94 57l182 334l-272 506q-72 129 -72 274v131z" />
    <glyph glyph-name="uni0237" unicode="&#x237;" 
d="M256 1044h569v-1064q0 -147 -104.5 -251t-249.5 -104q-123 0 -218 75t-124 191l94 29q20 -86 89 -141t159 -55q106 0 181 74.5t75 181.5v966h-471v98z" />
    <glyph glyph-name="uni0243" unicode="&#x243;" 
d="M838 715q90 -41 145 -124t55 -185v-50q0 -147 -105.5 -251.5t-250.5 -104.5h-442v334h-162v98h162v969h430q147 0 251.5 -104.5t104.5 -252.5v-24q0 -98 -52 -180t-136 -125zM670 1303h-332v-541h332q106 0 182 75.5t76 182.5v24q0 106 -74.5 182.5t-183.5 76.5zM940 356
v50q0 106 -74.5 182t-183.5 76h-344v-232h305v-98h-305v-236h344q106 0 182 76t76 182z" />
    <glyph glyph-name="uni0244" unicode="&#x244;" 
d="M1159 809v-98h-141v-373q0 -147 -104.5 -251.5t-251.5 -104.5h-99q-147 0 -251.5 104t-104.5 252v373h-150v98h150v592h98v-592h615v592h98v-592h141zM920 338v373h-615v-373q0 -109 75 -183.5t183 -74.5h99q106 0 182 76t76 182z" />
    <glyph glyph-name="uni0245" unicode="&#x245;" 
d="M186 0v272q0 154 52 293l309 836h123l311 -836q51 -139 51 -293v-272h-98v272q0 137 -47 260l-277 758l-280 -758q-45 -127 -45 -260v-272h-99z" />
    <glyph glyph-name="uni024C" unicode="&#x24c;" 
d="M938 391q109 -117 109 -262v-129h-99v129q0 109 -82 195l-248 266h-274v-590h-98v590h-150v98h150v713h430q147 0 251.5 -104.5t104.5 -252.5v-98q0 -129 -82 -227t-207 -123zM344 1303v-615h332q106 0 182 76t76 182v98q0 106 -76 182.5t-182 76.5h-332z" />
    <glyph glyph-name="uni0250" unicode="&#x250;" 
d="M655 1063q147 0 252 -104.5t105 -251.5v-369q0 -147 -104.5 -251.5t-252.5 -104.5h-49q-174 0 -282 139v-121h-99v1044h99v-120q109 139 282 139h49zM913 338v369q0 109 -75.5 183.5t-182.5 74.5h-73q-106 0 -182 -75t-76 -183v-369q0 -109 75.5 -183.5t182.5 -74.5h73
q106 0 182 74.5t76 183.5z" />
    <glyph glyph-name="uni0251" unicode="&#x251;" 
d="M893 1044h98v-1044h-98v121q-109 -139 -283 -139h-49q-147 0 -251.5 104t-104.5 252v369q0 147 104.5 251.5t251.5 104.5h49q174 0 283 -139v120zM635 80q106 0 182 74.5t76 183.5v369q0 109 -76 183.5t-182 74.5h-74q-106 0 -182 -75t-76 -183v-369q0 -109 76 -183.5
t182 -74.5h74z" />
    <glyph glyph-name="uni0252" unicode="&#x252;" 
d="M655 1063q147 0 252 -104.5t105 -251.5v-369q0 -147 -104.5 -251.5t-252.5 -104.5h-49q-174 0 -282 139v-121h-99v1044h99v-120q109 139 282 139h49zM913 338v369q0 109 -75.5 183.5t-182.5 74.5h-73q-106 0 -182 -75t-76 -183v-369q0 -109 75.5 -183.5t182.5 -74.5h73
q106 0 182 74.5t76 183.5z" />
    <glyph glyph-name="uni0254" unicode="&#x254;" 
d="M983 338q0 -147 -104.5 -251.5t-251.5 -104.5h-74q-123 0 -219 75.5t-125 192.5l94 29q20 -86 90 -142.5t160 -56.5h74q106 0 182 74.5t76 183.5v369q0 109 -76 183.5t-182 74.5h-74q-90 0 -159.5 -56.5t-90.5 -142.5l-94 29q29 117 125 192.5t219 75.5h74
q147 0 251.5 -104.5t104.5 -251.5v-369z" />
    <glyph glyph-name="uni0258" unicode="&#x258;" 
d="M639 1063q147 0 251.5 -104.5t104.5 -251.5v-369q0 -147 -104.5 -251.5t-251.5 -104.5h-74q-123 0 -219 75.5t-125 192.5l94 29q20 -86 90 -142.5t160 -56.5h74q106 0 182 74.5t76 183.5v170h-688v199q0 147 105.5 251.5t250.5 104.5h74zM897 606v101q0 109 -76 183.5
t-182 74.5h-74q-106 0 -182 -75t-76 -183v-101h590z" />
    <glyph glyph-name="uni0259" unicode="&#x259;" 
d="M639 -18h-74q-145 0 -250.5 104t-105.5 252v199h688v170q0 109 -76 183.5t-182 74.5h-74q-90 0 -159.5 -56.5t-90.5 -142.5l-94 29q29 117 125 192.5t219 75.5h74q147 0 251.5 -104.5t104.5 -251.5v-369q0 -147 -104.5 -251.5t-251.5 -104.5zM897 438h-590v-100
q0 -109 76 -183.5t182 -74.5h74q106 0 182 74.5t76 183.5v100z" />
    <glyph glyph-name="uni025B" unicode="&#x25b;" 
d="M920 231l94 -28q-27 -96 -106 -158.5t-181 -62.5h-201q-123 0 -210 87t-87 210q0 84 44 151.5t118 99.5q-141 80 -141 240q0 121 86 207t207 86h186q100 0 177 -60.5t106 -152.5l-94 -27q-18 61 -70.5 101.5t-118.5 40.5h-186q-82 0 -138.5 -57.5t-56.5 -137.5
q0 -82 56.5 -138.5t138.5 -56.5h225v-98h-242q-82 0 -140 -58.5t-58 -140t57 -140t141 -58.5h201q70 0 123.5 42.5t69.5 108.5z" />
    <glyph glyph-name="uni025C" unicode="&#x25c;" 
d="M825 530q74 -33 118 -100.5t44 -150.5q0 -123 -87 -210t-210 -87h-201q-102 0 -181 62t-105 159l94 28q16 -66 69.5 -108.5t122.5 -42.5h201q84 0 141.5 58.5t57.5 140t-58.5 140t-140.5 58.5h-241v98h225q82 0 138 56.5t56 138.5q0 80 -56 137.5t-138 57.5h-187
q-66 0 -118 -40t-70 -102l-94 27q29 92 105.5 152.5t176.5 60.5h187q121 0 207 -86t86 -207q-1 -160 -142 -240z" />
    <glyph glyph-name="uni025E" unicode="&#x25e;" horiz-adv-x="1228" 
d="M862 530q74 -33 118 -100.5t44 -150.5q0 -123 -88 -210t-209 -87h-201q-123 0 -210 87t-87 210v491q0 121 86 207t207 86h187q121 0 206.5 -86t85.5 -207q0 -76 -38 -140.5t-101 -99.5zM727 80q82 0 140.5 58.5t58.5 140t-58.5 140t-140.5 58.5h-192v98h174
q82 0 138 56.5t56 138.5q0 80 -56 137.5t-138 57.5h-187q-82 0 -138 -57.5t-56 -137.5v-491q0 -82 57 -140.5t141 -58.5h201z" />
    <glyph glyph-name="uni025F" unicode="&#x25f;" 
d="M1028 463v-98h-203v-385q0 -147 -104.5 -251t-249.5 -104q-123 0 -218 75t-124 191l94 29q20 -86 89 -141t159 -55q106 0 181 74.5t75 181.5v385h-313v98h313v483h-471v98h569v-581h203z" />
    <glyph glyph-name="uni0261" unicode="&#x261;" 
d="M891 1044h98v-1062q0 -147 -104.5 -252t-251.5 -105h-74q-123 0 -219 76t-125 193l94 28q20 -86 90 -142t160 -56h74q106 0 182 75.5t76 182.5v213q-109 -139 -283 -140h-49q-145 0 -250.5 104.5t-105.5 252.5v295q0 147 104.5 251.5t251.5 104.5h49q176 0 283 -137v118z
M633 154q106 0 182 75.5t76 182.5v295q0 109 -75 183.5t-183 74.5h-74q-106 0 -182 -76t-76 -182v-295q0 -106 76 -182t182 -76h74z" />
    <glyph glyph-name="uni0263" unicode="&#x263;" 
d="M909 1044h99v-131q0 -145 -74 -274l-268 -469l129 -227q27 -49 26 -105q0 -88 -62.5 -150.5t-150.5 -62.5t-150.5 62.5t-62.5 150.5q0 55 27 105l129 227l-268 469q-74 129 -74 274v131h98v-131q0 -121 60 -225l241 -422l242 422q59 104 59 225v131zM709 -104l-101 176
l-100 -176q-14 -29 -14 -58q0 -47 33.5 -80.5t80.5 -33.5t81 33.5t34 80.5q0 29 -14 58z" />
    <glyph glyph-name="uni0265" unicode="&#x265;" 
d="M995 1044v-1400h-98v477q-109 -139 -283 -139h-49q-147 0 -251.5 104t-104.5 252v706h98v-706q0 -109 76 -183.5t182 -74.5h74q106 0 182 74.5t76 183.5v706h98z" />
    <glyph glyph-name="uni0268" unicode="&#x268;" horiz-adv-x="1228" 
d="M700 1470v-276h-98v276h98zM700 98h351v-98h-824v98h375v375h-256v98h256v375h-307v98h405v-473h261v-98h-261v-375z" />
    <glyph glyph-name="uni0269" unicode="&#x269;" 
d="M115 946v98h454v-727q0 -98 70 -167.5t168 -69.5q86 0 151.5 54t81.5 136l95 -30q-27 -113 -118 -185.5t-210 -72.5q-139 0 -237.5 98t-98.5 237v629h-356z" />
    <glyph glyph-name="uni026B" unicode="&#x26b;" 
d="M1057 276l92 -28q-29 -117 -124 -191.5t-218 -74.5q-145 0 -249.5 103t-104.5 251v346q-49 49 -107 49q-55 0 -95 -40t-40 -97v-23h-98v23q0 98 68.5 166.5t164.5 68.5q59 0 107 -26v500h-308v98h406v-690q55 -51 111 -52q53 0 94 40t41 96v22h98v-22q0 -96 -68.5 -165
t-164.5 -69q-63 0 -111 27v-252q0 -106 74.5 -181t181.5 -75q90 0 158.5 55t91.5 141z" />
    <glyph glyph-name="uni026E" unicode="&#x26e;" horiz-adv-x="1228" 
d="M664 516q145 0 250.5 -105.5t105.5 -250.5v-160q0 -147 -104.5 -251.5t-251.5 -104.5h-146v98h146q106 0 182 76t76 182v160q0 106 -76 182t-182 76h-140v98l340 430h-489v-946h-99v1401h99v-357h614v-98l-338 -430h13z" />
    <glyph glyph-name="uni026F" unicode="&#x26f;" 
d="M1057 1044v-1044h-99v57q-66 -76 -167 -75q-129 0 -193 108q-74 -109 -205 -108q-102 0 -174 71.5t-72 173.5v817h99v-811q0 -63 45 -108t108.5 -45t108.5 45t45 108v811h98v-811q0 -63 45 -108t108.5 -45t108.5 45t45 108v811h99z" />
    <glyph glyph-name="uni0272" unicode="&#x272;" 
d="M651 1063q147 0 252 -104.5t105 -251.5v-707h-99v707q0 109 -75.5 183.5t-182.5 74.5h-73q-106 0 -182.5 -75t-76.5 -183v-836q0 -94 -66.5 -160.5t-160.5 -66.5h-20v98h20q53 0 91 38t38 91v1173h98v-120q109 139 283 139h49z" />
    <glyph glyph-name="uni0275" unicode="&#x275;" 
d="M645 1063q147 0 251.5 -104.5t104.5 -251.5v-369q0 -147 -104 -251.5t-252 -104.5h-74q-145 0 -250.5 104t-105.5 252v369q0 147 105.5 251.5t250.5 104.5h74zM571 965q-109 0 -183.5 -75t-74.5 -183v-136h590v136q0 109 -74.5 183.5t-183.5 74.5h-74zM645 80
q109 0 183.5 74.5t74.5 183.5v135h-590v-135q0 -109 75 -183.5t183 -74.5h74z" />
    <glyph glyph-name="uni0278" unicode="&#x278;" 
d="M694 1055q147 0 252 -104.5t105 -252.5v-364q0 -145 -104.5 -248.5t-252.5 -103.5h-37v-338h-98v338h-37q-147 0 -251.5 103t-104.5 249v364q0 147 104.5 252t251.5 105h37v346h98v-346h37zM522 80h37v876h-37q-109 0 -183.5 -74.5t-74.5 -183.5v-364q0 -106 74.5 -180
t183.5 -74zM952 334v364q0 109 -74.5 183.5t-183.5 74.5h-37v-876h37q109 0 183.5 74t74.5 180z" />
    <glyph glyph-name="uni0283" unicode="&#x283;" horiz-adv-x="1220" 
d="M246 -356v98h80q96 0 164.5 68.5t68.5 164.5v1094q0 137 97.5 234.5t234.5 97.5h80v-98h-80q-96 0 -165 -68t-69 -166v-1094q0 -137 -97 -234t-234 -97h-80z" />
    <glyph glyph-name="uni0289" unicode="&#x289;" 
d="M1151 645v-98h-150v-209q0 -147 -104 -251.5t-252 -104.5h-74q-145 0 -250.5 104t-105.5 252v209h-149v98h149v399h98v-399h590v399h98v-399h150zM903 338v209h-590v-209q0 -109 75 -183.5t183 -74.5h74q109 0 183.5 74.5t74.5 183.5z" />
    <glyph glyph-name="uni028C" unicode="&#x28c;" 
d="M205 0v129q0 143 61 281l289 634h107l286 -634q63 -141 64 -281v-129h-99v129q0 121 -55 242l-250 555l-250 -555q-55 -121 -55 -242v-129h-98z" />
    <glyph glyph-name="uni028D" unicode="&#x28d;" 
d="M141 131q0 141 33 275l154 638h114l166 -708l166 708h115l153 -638q33 -133 33 -275v-131h-98v131q0 121 -31 252l-121 500l-163 -705h-107l-164 705l-121 -500q-31 -131 -30 -252v-131h-99v131z" />
    <glyph glyph-name="uni028E" unicode="&#x28e;" 
d="M1004 0h-99v131q0 119 -59 227l-242 451l-244 -451q-57 -109 -57 -227v-131h-98v131q0 141 69 275l482 886q16 35 64 72t116 37h160v-98h-160q-55 0 -94 -58l-183 -334l273 -505q72 -129 72 -275v-131z" />
    <glyph glyph-name="uni0292" unicode="&#x292;" 
d="M653 434q145 0 250 -105.5t105 -250.5v-78q0 -147 -104.5 -251.5t-250.5 -104.5h-399v98h397q106 0 182 76t76 182v78q0 106 -75.5 182t-182.5 76h-258v98l461 512h-598v98h733v-98l-461 -512h125z" />
    <glyph glyph-name="uni0298" unicode="&#x298;" horiz-adv-x="1220" 
d="M559 1419h98q147 0 252 -104.5t105 -251.5v-725q0 -147 -104.5 -251.5t-252.5 -104.5h-98q-145 0 -250.5 104t-105.5 252v725q0 147 105.5 251.5t250.5 104.5zM559 1321q-109 0 -183.5 -75t-74.5 -183v-725q0 -109 75 -183.5t183 -74.5h98q109 0 183.5 74.5t74.5 183.5
v725q0 109 -74.5 183.5t-183.5 74.5h-98zM559 840h98v-273h-98v273z" />
    <glyph glyph-name="uni029D" unicode="&#x29d;" horiz-adv-x="1228" 
d="M727 1206v277h98v-277h-98zM1049 178h-224v-227q0 -133 -95 -229.5t-230 -96.5q-133 0 -229.5 96.5t-96.5 229.5q0 135 96.5 230t229.5 95h227v670h-469v98h567v-768h224v-98zM727 178h-227q-94 0 -161 -66.5t-67 -160.5t67 -160.5t161 -66.5t160.5 66.5t66.5 160.5v227z
" />
    <glyph glyph-name="circumflex" unicode="&#x2c6;" 
d="M330 1264l237 237h82l238 -237l-70 -72l-209 211l-209 -211z" />
    <glyph glyph-name="caron" unicode="&#x2c7;" 
d="M330 1460l69 72l209 -211l209 211l70 -72l-238 -237h-82z" />
    <glyph glyph-name="breve" unicode="&#x2d8;" 
d="M381 1450h98q0 -53 38 -91t91.5 -38t91 38t37.5 91h99q0 -94 -67 -160.5t-161 -66.5t-160.5 66.5t-66.5 160.5z" />
    <glyph glyph-name="dotaccent" unicode="&#x2d9;" 
d="M559 1223v276h98v-276h-98z" />
    <glyph glyph-name="ring" unicode="&#x2da;" 
d="M381 1450q0 94 65.5 160.5t161.5 66.5q94 0 161 -66.5t67 -160.5t-67 -160.5t-161 -66.5t-160.5 66.5t-66.5 160.5zM479 1450q0 -53 38 -91t91.5 -38t91 38t37.5 91t-37.5 91t-91 38t-91.5 -38t-38 -91z" />
    <glyph glyph-name="ogonek" unicode="&#x2db;" 
d="M543 0h98v-129q0 -53 38 -91t91 -38h21v-98h-21q-94 0 -160.5 66.5t-66.5 160.5v129z" />
    <glyph glyph-name="tilde" unicode="&#x2dc;" 
d="M217 1221v22q0 98 68.5 167t165.5 69q106 0 167 -78q78 -92 148 -92q53 0 94 40t41 95v22h98v-22q0 -96 -68.5 -165t-164.5 -69q-106 0 -168 76q-78 94 -147 94q-55 0 -95.5 -40t-40.5 -97v-22h-98z" />
    <glyph glyph-name="hungarumlaut" unicode="&#x2dd;" 
d="M373 1155l-70 70l244 241l69 -69zM674 1155l-70 70l244 241l70 -69z" />
    <glyph glyph-name="gravecomb" unicode="&#x300;" horiz-adv-x="0" 
d="M252 1155l-244 242l70 69l244 -241z" />
    <glyph glyph-name="acutecomb" unicode="&#x301;" horiz-adv-x="0" 
d="M70 1155l-70 70l244 241l69 -69z" />
    <glyph glyph-name="uni0302" unicode="&#x302;" horiz-adv-x="0" 
d="M0 1264l238 237h81l238 -237l-70 -72l-208 211l-209 -211z" />
    <glyph glyph-name="tildecomb" unicode="&#x303;" horiz-adv-x="0" 
d="M0 1221v22q0 98 68.5 167t164.5 69q106 0 168 -78q78 -92 148 -92q53 0 94 40t41 95v22h98v-22q0 -96 -68.5 -165t-164.5 -69q-106 0 -168 76q-78 94 -148 94q-55 0 -95 -40t-40 -97v-22h-98z" />
    <glyph glyph-name="uni0304" unicode="&#x304;" horiz-adv-x="0" 
d="M0 1223v98h569v-98h-569z" />
    <glyph glyph-name="uni0306" unicode="&#x306;" horiz-adv-x="0" 
d="M0 1450h98q0 -53 38 -91t91.5 -38t91 38t37.5 91h99q0 -94 -66.5 -160.5t-161 -66.5t-161 66.5t-66.5 160.5z" />
    <glyph glyph-name="uni0307" unicode="&#x307;" horiz-adv-x="0" 
d="M0 1223v276h98v-276h-98z" />
    <glyph glyph-name="uni0308" unicode="&#x308;" horiz-adv-x="0" 
d="M0 1223v276h98v-276h-98zM270 1223v276h99v-276h-99z" />
    <glyph glyph-name="hookabovecomb" unicode="&#x309;" horiz-adv-x="0" 
d="M285 1360q0 -94 -68 -162l-72 70q41 41 41 92q0 53 -37.5 91t-91.5 38h-57v98h57q94 0 161 -66.5t67 -160.5z" />
    <glyph glyph-name="uni030A" unicode="&#x30a;" horiz-adv-x="0" 
d="M0 1450q0 94 65.5 160.5t161.5 66.5q94 0 161 -66.5t67 -160.5t-66.5 -160.5t-161 -66.5t-161 66.5t-66.5 160.5zM98 1450q0 -53 38 -91t91.5 -38t91 38t37.5 91t-37.5 91t-91 38t-91.5 -38t-38 -91z" />
    <glyph glyph-name="uni030B" unicode="&#x30b;" horiz-adv-x="0" 
d="M70 1155l-70 70l244 241l69 -69zM371 1155l-70 70l244 241l69 -69z" />
    <glyph glyph-name="uni030C" unicode="&#x30c;" horiz-adv-x="0" 
d="M0 1460l70 72l209 -211l208 211l70 -72l-238 -237h-81z" />
    <glyph glyph-name="uni0312" unicode="&#x312;" horiz-adv-x="0" 
d="M283 1225h-283v106q0 117 69.5 209t178.5 125l28 -94q-80 -25 -129 -92.5t-49 -155.5h185v-98z" />
    <glyph glyph-name="uni031B" unicode="&#x31b;" horiz-adv-x="0" 
d="M0 768v98h10q53 0 91 38t38 91v49h99v-49q0 -94 -67 -160.5t-161 -66.5h-10z" />
    <glyph glyph-name="dotbelowcomb" unicode="&#x323;" horiz-adv-x="0" 
d="M0 -455v277h98v-277h-98z" />
    <glyph glyph-name="uni0326" unicode="&#x326;" horiz-adv-x="0" 
d="M0 -178h283v-107q0 -117 -70 -209t-178 -124l-29 94q80 25 129 92t49 156h-184v98z" />
    <glyph glyph-name="uni0327" unicode="&#x327;" horiz-adv-x="0" 
d="M100 -104q78 -16 131.5 -79t53.5 -145q0 -94 -66.5 -160.5t-161.5 -66.5h-57v98h57q53 0 91 37t38 92q0 53 -37.5 91t-91.5 38h-55v199h98v-104z" />
    <glyph glyph-name="uni0328" unicode="&#x328;" horiz-adv-x="0" 
d="M0 0h98v-129q0 -53 38 -91t91 -38h21v-98h-21q-94 0 -160.5 66.5t-66.5 160.5v129z" />
    <glyph glyph-name="uni032C" unicode="&#x32c;" horiz-adv-x="0" 
d="M0 -266l70 71l209 -211l208 211l70 -71l-238 -238h-81z" />
    <glyph glyph-name="uni032D" unicode="&#x32d;" horiz-adv-x="0" 
d="M0 -346l238 237h81l238 -237l-70 -72l-208 211l-209 -211z" />
    <glyph glyph-name="uni0331" unicode="&#x331;" horiz-adv-x="0" 
d="M0 -279v99h569v-99h-569z" />
    <glyph glyph-name="uni0335" unicode="&#x335;" horiz-adv-x="0" 
d="M0 571h614v-98h-614v98z" />
    <glyph glyph-name="uni0336" unicode="&#x336;" horiz-adv-x="0" 
d="M0 571h700v-98h-700v98z" />
    <glyph glyph-name="uni0337" unicode="&#x337;" horiz-adv-x="0" 
d="M702 1124l86 -51l-702 -1147l-86 51z" />
    <glyph glyph-name="uni0338" unicode="&#x338;" horiz-adv-x="0" 
d="M897 1456l84 -49l-897 -1464l-84 51z" />
    <glyph glyph-name="tonos" unicode="&#x384;" 
d="M657 1141l-90 41l144 311l88 -41z" />
    <glyph glyph-name="dieresistonos" unicode="&#x385;" 
d="M662 1524l-91 41l144 311l88 -41zM428 1223v276h98v-276h-98zM698 1223v276h99v-276h-99z" />
    <glyph glyph-name="Alphatonos" unicode="&#x386;" 
d="M401 1378l-141 -311l-90 41l143 311zM1010 563q37 -137 37 -295v-268h-99v268q0 14 -4 92h-637q-6 -57 -6 -92v-268h-98v268q0 135 37 295l194 711q16 63 69.5 104t121 41t121 -41t69.5 -104zM319 459h611q-4 33 -17 78l-192 708q-8 33 -35 54.5t-61.5 21.5t-61 -21.5
t-35.5 -54.5l-192 -708q-13 -45 -17 -78z" />
    <glyph glyph-name="Epsilontonos" unicode="&#x388;" 
d="M90 1069l-90 41l143 311l88 -41zM272 0v1401h787v-98h-688v-553h624v-99h-624v-553h688v-98h-787z" />
    <glyph glyph-name="Etatonos" unicode="&#x389;" 
d="M55 1069l-90 41l144 311l88 -41zM924 1401h98v-1401h-98v651h-590v-651h-98v1401h98v-651h590v651z" />
    <glyph glyph-name="Iotatonos" unicode="&#x38a;" 
d="M102 1069l-90 41l144 311l88 -41zM242 98h344v1205h-332v98h762v-98h-332v-1205h344v-98h-786v98z" />
    <glyph glyph-name="Omicrontonos" unicode="&#x38c;" 
d="M150 1077l-91 41l144 312l88 -41zM582 -18q-145 0 -251 104t-106 252v725q0 147 105.5 251.5t251.5 104.5h98q147 0 251.5 -104.5t104.5 -251.5v-725q0 -147 -104.5 -251.5t-251.5 -104.5h-98zM582 80h98q106 0 182 74.5t76 183.5v725q0 109 -76 183.5t-182 74.5h-98
q-106 0 -182 -75t-76 -183v-725q0 -109 76 -183.5t182 -74.5z" />
    <glyph glyph-name="Upsilontonos" unicode="&#x38e;" 
d="M59 1073l-90 41l144 311l88 -41zM1030 1114q0 -111 -80 -231l-272 -344v-539h-98v539l-273 344q-8 8 -24.5 33.5t-36 83t-19.5 114.5v287h99v-287q0 -41 15 -85t27.5 -64.5t16.5 -24.5l244 -307l243 307l7 10q6 8 14 24.5t17.5 37t15.5 48t6 54.5v287h98v-287z" />
    <glyph glyph-name="Omegatonos" unicode="&#x38f;" 
d="M207 1448l88 -41l-141 -311l-91 41zM895 98h158v-98h-375v98q106 0 182 76t76 182v707q0 109 -75 183.5t-183 74.5h-98q-106 0 -182 -76t-76 -182v-707q0 -106 75.5 -182t182.5 -76v-98h-375v98h157q-139 109 -139 281v684q0 147 104.5 251.5t252.5 104.5h98
q147 0 251.5 -103.5t104.5 -252.5v-684q0 -172 -139 -281z" />
    <glyph glyph-name="iotadieresistonos" unicode="&#x390;" 
d="M569 1524l-90 41l144 311l88 -41zM336 1223v276h98v-276h-98zM606 1223v276h99v-276h-99zM115 946v98h454v-727q0 -98 70 -167.5t168 -69.5q86 0 151.5 54t81.5 136l95 -30q-27 -113 -118 -185.5t-210 -72.5q-139 0 -237.5 98t-98.5 237v629h-356z" />
    <glyph glyph-name="Alpha" unicode="&#x391;" 
d="M993 563q37 -137 37 -295v-268h-98v268q0 14 -4 92h-637q-6 -59 -6 -92v-268h-99v268q0 135 37 295l195 711q16 63 69.5 104t121 41t120.5 -41t70 -104zM303 459h610q-4 33 -16 78l-192 708q-8 33 -35 54.5t-62 21.5t-61.5 -21.5t-34.5 -54.5l-193 -708q-12 -45 -16 -78z
" />
    <glyph glyph-name="Beta" unicode="&#x392;" 
d="M838 715q90 -41 145 -124t55 -185v-50q0 -147 -105.5 -251.5t-250.5 -104.5h-442v1401h430q147 0 251.5 -104.5t104.5 -252.5v-24q0 -98 -52 -180t-136 -125zM670 1303h-332v-541h332q106 0 182 75.5t76 182.5v24q0 106 -74.5 182.5t-183.5 76.5zM940 356v50
q0 106 -74.5 182t-183.5 76h-344v-566h344q106 0 182 76t76 182z" />
    <glyph glyph-name="Gamma" unicode="&#x393;" 
d="M264 0v1401h768v-98h-670v-1303h-98z" />
    <glyph glyph-name="Delta" unicode="&#x394;" 
d="M145 0v98l398 1303h131l397 -1303v-98h-926zM248 98h721l-361 1188z" />
    <glyph glyph-name="Epsilon" unicode="&#x395;" 
d="M246 0v1401h786v-98h-688v-553h625v-99h-625v-553h688v-98h-786z" />
    <glyph glyph-name="Zeta" unicode="&#x396;" 
d="M227 1401h760v-98l-665 -1205h684v-98h-795v98l666 1205h-650v98z" />
    <glyph glyph-name="Eta" unicode="&#x397;" 
d="M903 1401h98v-1401h-98v651h-590v-651h-98v1401h98v-651h590v651z" />
    <glyph glyph-name="Theta" unicode="&#x398;" 
d="M559 -18q-145 0 -250.5 104t-105.5 252v725q0 147 105.5 251.5t250.5 104.5h98q147 0 252 -104.5t105 -251.5v-725q0 -147 -104.5 -251.5t-252.5 -104.5h-98zM559 80h98q109 0 183.5 74.5t74.5 183.5v725q0 109 -74.5 183.5t-183.5 74.5h-98q-109 0 -183.5 -75
t-74.5 -183v-725q0 -109 74.5 -183.5t183.5 -74.5zM412 655v99h389v-99h-389z" />
    <glyph glyph-name="Iota" unicode="&#x399;" 
d="M215 98h344v1205h-332v98h762v-98h-332v-1205h344v-98h-786v98z" />
    <glyph glyph-name="Kappa" unicode="&#x39a;" 
d="M227 1401h99v-645h223l293 321q35 39 57.5 99.5t22.5 97.5v127h98v-129q0 -47 -27.5 -127t-79.5 -135l-282 -303l299 -316q53 -55 80.5 -135t27.5 -127v-129h-98v129q0 37 -23.5 96.5t-58.5 98.5l-313 333h-219v-657h-99v1401z" />
    <glyph glyph-name="Lambda" unicode="&#x39b;" 
d="M186 0v268q0 135 37 295l195 711q16 63 69.5 104t121 41t120.5 -41t70 -104l194 -711q37 -137 37 -295v-268h-98v268q0 141 -35 269l-192 708q-8 33 -35 54.5t-62 21.5t-61.5 -21.5t-34.5 -54.5l-193 -708q-35 -137 -34 -269v-268h-99z" />
    <glyph glyph-name="Mu" unicode="&#x39c;" 
d="M166 0v1401h131l311 -832l312 832h131v-1401h-99v1221l-290 -779h-107l-291 779v-1221h-98z" />
    <glyph glyph-name="Nu" unicode="&#x39d;" 
d="M197 1401h122l603 -1225v1225h98v-1401h-123l-602 1225v-1225h-98v1401z" />
    <glyph glyph-name="Xi" unicode="&#x39e;" 
d="M211 1401h795v-98h-795v98zM272 750h672v-99h-672v99zM211 98h795v-98h-795v98z" />
    <glyph glyph-name="Omicron" unicode="&#x39f;" 
d="M559 -18q-145 0 -250.5 104t-105.5 252v725q0 147 105.5 251.5t250.5 104.5h98q147 0 252 -104.5t105 -251.5v-725q0 -147 -104.5 -251.5t-252.5 -104.5h-98zM559 80h98q109 0 183.5 74.5t74.5 183.5v725q0 109 -74.5 183.5t-183.5 74.5h-98q-109 0 -183.5 -75
t-74.5 -183v-725q0 -109 74.5 -183.5t183.5 -74.5z" />
    <glyph glyph-name="Pi" unicode="&#x3a0;" 
d="M215 0v1401h786v-1401h-98v1303h-590v-1303h-98z" />
    <glyph glyph-name="Rho" unicode="&#x3a1;" 
d="M264 0v1401h430q147 0 252 -104.5t105 -252.5v-122q0 -147 -105.5 -252t-251.5 -105h-332v-565h-98zM362 664h332q106 0 182 75.5t76 182.5v122q0 106 -75.5 182.5t-182.5 76.5h-332v-639z" />
    <glyph glyph-name="Sigma" unicode="&#x3a3;" 
d="M221 1401h793v-98h-674l377 -603l-389 -602h704v-98h-823v98l389 602l-377 603v98z" />
    <glyph glyph-name="Tau" unicode="&#x3a4;" 
d="M182 1401h852v-98h-377v-1303h-98v1303h-377v98z" />
    <glyph glyph-name="Upsilon" unicode="&#x3a5;" 
d="M1010 1114q0 -111 -80 -231l-273 -344v-539h-98v539l-272 344q-8 8 -24.5 33.5t-36 83t-19.5 114.5v287h98v-287q0 -41 15.5 -85t27.5 -64.5t17 -24.5l243 -307l244 307l6 10q6 8 14.5 24.5t17.5 37t15 48t6 54.5v287h99v-287z" />
    <glyph glyph-name="Phi" unicode="&#x3a6;" 
d="M694 1237q147 0 252 -104.5t105 -251.5v-365q0 -145 -104.5 -248.5t-252.5 -103.5h-37v-164h-98v164h-37q-147 0 -251.5 103.5t-104.5 248.5v365q0 147 104.5 251.5t251.5 104.5h37v164h98v-164h37zM522 262h37v877h-37q-109 0 -183.5 -76t-74.5 -182v-365
q0 -106 74.5 -180t183.5 -74zM952 516v365q0 106 -74.5 182t-183.5 76h-37v-877h37q109 0 183.5 74t74.5 180z" />
    <glyph glyph-name="Chi" unicode="&#x3a7;" 
d="M217 1401h98v-129q0 -43 14.5 -87t30.5 -67l15 -22l233 -305l234 305q59 80 59 176v129h98v-129q0 -129 -79 -236l-250 -323l264 -344q31 -39 57.5 -110t26.5 -130v-129h-98v129q0 39 -20.5 94.5t-43.5 83.5l-248 328l-248 -328q-23 -29 -43 -84t-20 -94v-129h-98v129
q0 57 26.5 128t57.5 112l264 344l-250 323l-6 13q-8 10 -16.5 23t-18.5 35.5t-18.5 47.5t-14.5 55.5t-6 61.5v129z" />
    <glyph glyph-name="Psi" unicode="&#x3a8;" 
d="M952 1401h99v-707q0 -147 -104.5 -251.5t-252.5 -104.5h-37v-338h-98v338h-37q-147 0 -251.5 104.5t-104.5 251.5v707h98v-707q0 -109 75 -183.5t183 -74.5h37v965h98v-965h37q109 0 183.5 75t74.5 183v707z" />
    <glyph glyph-name="Omega" unicode="&#x3a9;" 
d="M874 98h158v-98h-375v98q106 0 182 76t76 182v707q0 109 -74.5 183.5t-183.5 74.5h-98q-106 0 -182 -76t-76 -182v-707q0 -106 76 -182t182 -76v-98h-375v98h158q-139 109 -139 281v684q0 147 104.5 251.5t251.5 104.5h98q147 0 252 -103.5t105 -252.5v-684
q-1 -172 -140 -281z" />
    <glyph glyph-name="Iotadieresis" unicode="&#x3aa;" 
d="M424 1550v277h98v-277h-98zM694 1550v277h99v-277h-99zM215 98h344v1205h-332v98h762v-98h-332v-1205h344v-98h-786v98z" />
    <glyph glyph-name="Upsilondieresis" unicode="&#x3ab;" 
d="M424 1550v277h98v-277h-98zM694 1550v277h99v-277h-99zM1010 1114q0 -111 -80 -231l-273 -344v-539h-98v539l-272 344q-8 8 -24.5 33.5t-36 83t-19.5 114.5v287h98v-287q0 -41 15.5 -85t27.5 -64.5t17 -24.5l243 -307l244 307l6 10q6 8 14.5 24.5t17.5 37t15 48t6 54.5
v287h99v-287z" />
    <glyph glyph-name="alphatonos" unicode="&#x3ac;" 
d="M799 1452l-142 -311l-90 41l144 311zM1077 98h31v-98h-31q-68 0 -124 39t-81 102q-49 -74 -126.5 -116.5t-170.5 -42.5h-49q-145 0 -250.5 104t-105.5 252v369q0 147 105.5 251.5t250.5 104.5h49q174 0 283 -139v120h98v-823q0 -51 36 -87t85 -36zM600 80
q109 0 183.5 74.5t74.5 183.5v369q0 109 -74.5 183.5t-183.5 74.5h-74q-106 0 -182 -76t-76 -182v-369q0 -106 76 -182t182 -76h74z" />
    <glyph glyph-name="epsilontonos" unicode="&#x3ad;" 
d="M799 1452l-142 -311l-90 41l144 311zM920 231l94 -28q-27 -96 -106 -158.5t-181 -62.5h-201q-123 0 -210 87t-87 210q0 84 44 151.5t118 99.5q-141 80 -141 240q0 121 86 207t207 86h186q100 0 177 -60.5t106 -152.5l-94 -27q-18 61 -70.5 101.5t-118.5 40.5h-186
q-82 0 -138.5 -57.5t-56.5 -137.5q0 -82 56.5 -138.5t138.5 -56.5h225v-98h-242q-82 0 -140 -58.5t-58 -140t57 -140t141 -58.5h201q70 0 123.5 42.5t69.5 108.5z" />
    <glyph glyph-name="etatonos" unicode="&#x3ae;" 
d="M799 1452l-142 -311l-90 41l144 311zM655 1063q147 0 252 -104.5t105 -251.5v-1063h-99v1063q0 109 -75.5 183.5t-182.5 74.5h-73q-106 0 -182 -75t-76 -183v-707h-99v823q0 51 -35.5 87t-85.5 36h-30v98h30q68 0 124.5 -38.5t80.5 -102.5q49 74 127 117t170 43h49z" />
    <glyph glyph-name="iotatonos" unicode="&#x3af;" 
d="M569 1141l-90 41l144 311l88 -41zM115 946v98h454v-727q0 -98 70 -167.5t168 -69.5q86 0 151.5 54t81.5 136l95 -30q-27 -113 -118 -185.5t-210 -72.5q-139 0 -237.5 98t-98.5 237v629h-356z" />
    <glyph glyph-name="upsilondieresistonos" unicode="&#x3b0;" 
d="M664 1524l-91 41l144 311l88 -41zM430 1223v276h98v-276h-98zM700 1223v276h99v-276h-99zM221 1044h98v-706q0 -109 76 -183.5t183 -74.5h73q106 0 182 74.5t76 183.5v360q0 90 -56 160t-142 90l28 96q117 -29 193 -126t76 -220v-360q0 -150 -104.5 -253t-252.5 -103h-73
q-147 0 -252 104t-105 252v706z" />
    <glyph glyph-name="alpha" unicode="&#x3b1;" 
d="M1077 98h31v-98h-31q-68 0 -124 39t-81 102q-49 -74 -126.5 -116.5t-170.5 -42.5h-49q-145 0 -250.5 104t-105.5 252v369q0 147 105.5 251.5t250.5 104.5h49q174 0 283 -139v120h98v-823q0 -51 36 -87t85 -36zM600 80q109 0 183.5 74.5t74.5 183.5v369q0 109 -74.5 183.5
t-183.5 74.5h-74q-106 0 -182 -76t-76 -182v-369q0 -106 76 -182t182 -76h74z" />
    <glyph glyph-name="beta" unicode="&#x3b2;" 
d="M844 727q90 -41 145 -124t55 -185v-80q0 -147 -105 -251.5t-251 -104.5h-49q-174 0 -283 139v-477h-98v1413q0 147 104.5 251.5t251.5 104.5h62q145 0 250.5 -104.5t105.5 -251.5v-27q0 -98 -51 -178t-137 -125zM946 338v80q0 106 -75.5 182t-182.5 76h-153v98h141
q106 0 182 75t76 181v27q0 106 -76 182t-182 76h-62q-106 0 -182 -76t-76 -182v-719q0 -109 76 -183.5t182 -74.5h74q106 0 182 76t76 182z" />
    <glyph glyph-name="gamma" unicode="&#x3b3;" 
d="M1008 913q0 -143 -70 -274l-281 -520v-475h-98v475l-280 520q-70 127 -70 274v131h98v-131q0 -119 58 -229l243 -448l244 448q57 111 57 229v131h99v-131z" />
    <glyph glyph-name="delta" unicode="&#x3b4;" 
d="M1012 549v-2v-209q0 -147 -105.5 -251.5t-251.5 -104.5h-73q-147 0 -252 104t-105 252v199q0 133 84 230t211 120l-125 55q-63 31 -103 89.5t-40 129.5q0 100 69.5 170t170.5 70h385v-98h-385q-57 0 -99.5 -41t-42.5 -101q0 -90 84 -129l371 -162q84 -37 137 -112
q70 -92 70 -207v-2zM913 338v209v2v2q-2 106 -77.5 180t-180.5 74h-73q-106 0 -182 -75t-76 -183v-209q0 -106 75.5 -182t182.5 -76h73q106 0 182 76t76 182z" />
    <glyph glyph-name="epsilon" unicode="&#x3b5;" 
d="M920 231l94 -28q-27 -96 -106 -158.5t-181 -62.5h-201q-123 0 -210 87t-87 210q0 84 44 151.5t118 99.5q-141 80 -141 240q0 121 86 207t207 86h186q100 0 177 -60.5t106 -152.5l-94 -27q-18 61 -70.5 101.5t-118.5 40.5h-186q-82 0 -138.5 -57.5t-56.5 -137.5
q0 -82 56.5 -138.5t138.5 -56.5h225v-98h-242q-82 0 -140 -58.5t-58 -140t57 -140t141 -58.5h201q70 0 123.5 42.5t69.5 108.5z" />
    <glyph glyph-name="zeta" unicode="&#x3b6;" 
d="M201 356q0 145 90 252l596 695h-643v98h772v-98l-658 -766q-59 -68 -59 -181q0 -106 76 -181t182 -75l258 -2q92 -2 156.5 -65.5t64.5 -155.5v-233h-98v233q0 51 -36 87t-87 36l-258 2q-147 0 -251.5 103.5t-104.5 250.5z" />
    <glyph glyph-name="eta" unicode="&#x3b7;" 
d="M655 1063q147 0 252 -104.5t105 -251.5v-1063h-99v1063q0 109 -75.5 183.5t-182.5 74.5h-73q-106 0 -182 -75t-76 -183v-707h-99v823q0 51 -35.5 87t-85.5 36h-30v98h30q68 0 124.5 -38.5t80.5 -102.5q49 74 127 117t170 43h49z" />
    <glyph glyph-name="theta" unicode="&#x3b8;" 
d="M657 1419q147 0 252 -104.5t105 -251.5v-725q0 -147 -104.5 -251.5t-252.5 -104.5h-98q-145 0 -250.5 104t-105.5 252v725q0 147 105.5 251.5t250.5 104.5h98zM559 1321q-109 0 -183.5 -75t-74.5 -183v-313h614v313q0 109 -74.5 183.5t-183.5 74.5h-98zM657 80
q109 0 183.5 74.5t74.5 183.5v313h-614v-313q0 -109 75 -183.5t183 -74.5h98z" />
    <glyph glyph-name="iota" unicode="&#x3b9;" 
d="M115 946v98h454v-727q0 -98 70 -167.5t168 -69.5q86 0 151.5 54t81.5 136l95 -30q-27 -113 -118 -185.5t-210 -72.5q-139 0 -237.5 98t-98.5 237v629h-356z" />
    <glyph glyph-name="kappa" unicode="&#x3ba;" 
d="M246 1044h98v-479h256l201 166q37 33 63.5 89.5t26.5 92.5v131h98v-131q0 -25 -7 -59.5t-38 -94t-80 -102.5l-174 -141l209 -162q33 -27 71 -88t38 -137v-129h-99v129q0 25 -7 49.5t-18.5 42t-21.5 30.5t-18 19l-6 9l-238 188h-256v-467h-98v1044z" />
    <glyph glyph-name="lambda" unicode="&#x3bb;" 
d="M236 1303v98h131q70 0 116.5 -39t61.5 -78l499 -1120q14 -33 45 -49.5t60 -16.5h33v-98h-33q-55 0 -110.5 31.5t-84.5 95.5l-356 799l-248 -555q-53 -123 -53 -240v-131h-98v131q0 137 63 281l283 635l-88 198q-25 57 -90 58h-131z" />
    <glyph glyph-name="mu" unicode="&#x3bc;" 
d="M1098 98h30v-98h-30q-70 0 -126.5 40t-78.5 103q-45 -76 -122 -118.5t-167 -42.5h-41q-174 0 -274 141v-479h-99v1400h99v-706q0 -109 74.5 -183.5t183.5 -74.5h74q109 0 183.5 74.5t74.5 183.5v706h98v-823q0 -51 36 -87t85 -36z" />
    <glyph glyph-name="nu" unicode="&#x3bd;" 
d="M205 1044h98v-129q0 -121 55 -241l250 -555l250 555q55 121 55 241v129h99v-129q0 -139 -64 -280l-286 -635h-107l-289 635q-61 137 -61 280v129z" />
    <glyph glyph-name="xi" unicode="&#x3be;" 
d="M815 98q90 0 155.5 -64.5t65.5 -156.5v-233h-98v233q0 51 -36 87t-87 36h-201q-147 0 -251.5 103.5t-104.5 252.5v50q0 102 55.5 185t145.5 124q-86 41 -137.5 124t-51.5 181v24q0 147 104.5 252t252.5 105h344v-98h-344q-106 0 -182 -76t-76 -183v-24q0 -106 75.5 -182
t182.5 -76h227v-98h-240q-106 0 -182 -76t-76 -182v-50q0 -106 76 -182t182 -76h201z" />
    <glyph glyph-name="omicron" unicode="&#x3bf;" 
d="M571 1063h74q147 0 251.5 -104.5t104.5 -251.5v-369q0 -147 -104 -251.5t-252 -104.5h-74q-145 0 -250.5 104t-105.5 252v369q0 147 105.5 251.5t250.5 104.5zM571 965q-109 0 -183.5 -75t-74.5 -183v-369q0 -109 75 -183.5t183 -74.5h74q109 0 183.5 74.5t74.5 183.5
v369q0 109 -74.5 183.5t-183.5 74.5h-74z" />
    <glyph glyph-name="pi" unicode="&#x3c0;" 
d="M1112 946h-203v-725q0 -51 36 -87t87 -36h31v-98h-31q-92 0 -156.5 64.5t-64.5 156.5v725h-418v-946h-98v946h-203v98h1020v-98z" />
    <glyph glyph-name="rho" unicode="&#x3c1;" 
d="M653 1063q147 0 252 -104.5t105 -251.5v-369q0 -147 -105.5 -251.5t-251.5 -104.5h-49q-174 0 -282 139v-477h-99v1063q0 147 104.5 251.5t252.5 104.5h73zM911 338v369q0 109 -74.5 183.5t-183.5 74.5h-73q-109 0 -183.5 -75t-74.5 -183v-369q0 -106 75.5 -182
t182.5 -76h73q106 0 182 76t76 182z" />
    <glyph glyph-name="sigma1" unicode="&#x3c2;" 
d="M225 356v351q0 147 105.5 251.5t251.5 104.5h73q147 0 252 -104.5t105 -251.5h-99q0 109 -75.5 183.5t-182.5 74.5h-73q-106 0 -182 -75t-76 -183v-351q0 -106 75.5 -182t182.5 -76h209q92 0 156.5 -64.5t64.5 -156.5v-233h-99v233q0 51 -35.5 87t-86.5 36h-209
q-145 0 -251 104.5t-106 251.5z" />
    <glyph glyph-name="sigma" unicode="&#x3c3;" 
d="M1083 1044v-98h-233q139 -109 139 -280v-328q0 -147 -104.5 -251.5t-251.5 -104.5h-74q-147 0 -251.5 103t-104.5 253v350q0 147 104.5 251.5t251.5 104.5h524zM891 688q0 106 -76 182t-182 76h-74q-106 0 -182 -75.5t-76 -182.5v-350q0 -109 75 -183.5t183 -74.5h74
q106 0 182 75.5t76 182.5v350z" />
    <glyph glyph-name="tau" unicode="&#x3c4;" 
d="M1016 946h-375v-725q0 -51 36 -87t87 -36h61v-98h-61q-92 0 -156.5 64.5t-64.5 156.5v725h-350v98h823v-98z" />
    <glyph glyph-name="upsilon" unicode="&#x3c5;" 
d="M221 1044h98v-706q0 -109 76 -183.5t183 -74.5h73q106 0 182 74.5t76 183.5v360q0 90 -56 160t-142 90l28 96q117 -29 193 -126t76 -220v-360q0 -150 -104.5 -253t-252.5 -103h-73q-147 0 -252 104t-105 252v706z" />
    <glyph glyph-name="phi" unicode="&#x3c6;" 
d="M694 1055q147 0 252 -104.5t105 -252.5v-364q0 -145 -104.5 -248.5t-252.5 -103.5h-37v-338h-98v338h-37q-147 0 -251.5 103t-104.5 249v364q0 147 104.5 252t251.5 105h37v346h98v-346h37zM522 80h37v876h-37q-109 0 -183.5 -74.5t-74.5 -183.5v-364q0 -106 74.5 -180
t183.5 -74zM952 334v364q0 109 -74.5 183.5t-183.5 74.5h-37v-876h37q109 0 183.5 74t74.5 180z" />
    <glyph glyph-name="chi" unicode="&#x3c7;" 
d="M217 1044h98v-129q0 -43 14.5 -87t30.5 -66l15 -23l233 -305l234 305q59 80 59 176v129h98v-129q0 -129 -79 -235l-250 -324l264 -344q31 -39 57.5 -109.5t26.5 -129.5v-129h-98v129q0 39 -20.5 94t-43.5 84l-248 328l-248 -328q-23 -29 -43 -84t-20 -94v-129h-98v129
q0 57 26.5 127.5t57.5 111.5l264 344l-250 324l-6 12q-8 10 -16.5 23.5t-18.5 36t-18.5 47t-14.5 55.5t-6 61v129z" />
    <glyph glyph-name="psi" unicode="&#x3c8;" 
d="M952 1044h99v-706q0 -147 -104.5 -251.5t-252.5 -104.5h-37v-338h-98v338h-37q-147 0 -251.5 104t-104.5 252v706h98v-706q0 -109 75 -183.5t183 -74.5h37v1321h98v-1321h37q109 0 183.5 74.5t74.5 183.5v706z" />
    <glyph glyph-name="omega" unicode="&#x3c9;" 
d="M877 1044q82 -23 134 -90t52 -153v-574q0 -102 -71.5 -173.5t-174.5 -71.5q-139 0 -209 116q-70 -117 -209 -116q-102 0 -173.5 71.5t-71.5 173.5v574q0 86 53 153.5t135 89.5l27 -94q-49 -12 -83 -54t-34 -95v-568q0 -63 45 -108t108.5 -45t108.5 45t45 108v490h98v-490
q0 -63 45.5 -108t108.5 -45t108.5 45t45.5 108v568q0 53 -33 95t-84 54z" />
    <glyph glyph-name="iotadieresis" unicode="&#x3ca;" 
d="M336 1194v276h98v-276h-98zM606 1194v276h99v-276h-99zM115 946v98h454v-727q0 -98 70 -167.5t168 -69.5q86 0 151.5 54t81.5 136l95 -30q-27 -113 -118 -185.5t-210 -72.5q-139 0 -237.5 98t-98.5 237v629h-356z" />
    <glyph glyph-name="upsilondieresis" unicode="&#x3cb;" 
d="M430 1194v276h98v-276h-98zM700 1194v276h99v-276h-99zM221 1044h98v-706q0 -109 76 -183.5t183 -74.5h73q106 0 182 74.5t76 183.5v360q0 90 -56 160t-142 90l28 96q117 -29 193 -126t76 -220v-360q0 -150 -104.5 -253t-252.5 -103h-73q-147 0 -252 104t-105 252v706z
" />
    <glyph glyph-name="omicrontonos" unicode="&#x3cc;" 
d="M657 1141l-90 41l144 311l88 -41zM571 1063h74q147 0 251.5 -104.5t104.5 -251.5v-369q0 -147 -104 -251.5t-252 -104.5h-74q-145 0 -250.5 104t-105.5 252v369q0 147 105.5 251.5t250.5 104.5zM571 965q-109 0 -183.5 -75t-74.5 -183v-369q0 -109 75 -183.5t183 -74.5
h74q109 0 183.5 74.5t74.5 183.5v369q0 109 -74.5 183.5t-183.5 74.5h-74z" />
    <glyph glyph-name="upsilontonos" unicode="&#x3cd;" 
d="M664 1141l-91 41l144 311l88 -41zM221 1044h98v-706q0 -109 76 -183.5t183 -74.5h73q106 0 182 74.5t76 183.5v360q0 90 -56 160t-142 90l28 96q117 -29 193 -126t76 -220v-360q0 -150 -104.5 -253t-252.5 -103h-73q-147 0 -252 104t-105 252v706z" />
    <glyph glyph-name="omegatonos" unicode="&#x3ce;" 
d="M799 1452l-142 -311l-90 41l144 311zM877 1044q82 -23 134 -90t52 -153v-574q0 -102 -71.5 -173.5t-174.5 -71.5q-139 0 -209 116q-70 -117 -209 -116q-102 0 -173.5 71.5t-71.5 173.5v574q0 86 53 153.5t135 89.5l27 -94q-49 -12 -83 -54t-34 -95v-568q0 -63 45 -108
t108.5 -45t108.5 45t45 108v490h98v-490q0 -63 45.5 -108t108.5 -45t108.5 45t45.5 108v568q0 53 -33 95t-84 54z" />
    <glyph glyph-name="afii10023" unicode="&#x401;" 
d="M455 1550v277h98v-277h-98zM725 1550v277h98v-277h-98zM246 0v1401h786v-98h-688v-553h625v-99h-625v-553h688v-98h-786z" />
    <glyph glyph-name="afii10051" unicode="&#x402;" 
d="M698 856q147 0 252 -103.5t105 -250.5v-146q0 -147 -104.5 -251.5t-252.5 -104.5h-84v98h84q109 0 183.5 76t74.5 182v146q0 106 -75.5 181t-182.5 75h-73q-106 0 -182 -75t-76 -181v-502h-99v1303h-239v98h776v-98h-438v-584q106 137 282 137h49z" />
    <glyph glyph-name="afii10052" unicode="&#x403;" 
d="M659 1511l-69 70l244 242l69 -70zM264 0v1401h768v-98h-670v-1303h-98z" />
    <glyph glyph-name="afii10053" unicode="&#x404;" 
d="M676 80q90 0 158.5 55t91.5 141l94 -28q-29 -117 -125 -191.5t-219 -74.5h-98q-147 0 -252 103t-105 253v725q0 147 104.5 251.5t252.5 104.5h98q123 0 219 -75.5t125 -192.5l-94 -27q-23 86 -91.5 141.5t-158.5 55.5h-98q-106 0 -182.5 -76t-76.5 -182v-313h529v-99
h-529v-313q0 -109 76 -183.5t183 -74.5h98z" />
    <glyph glyph-name="afii10054" unicode="&#x405;" 
d="M174 250l94 26q23 -86 92.5 -141t159.5 -55h135q106 0 182 75.5t76 182.5q0 205 -219 289l-198 75q-295 111 -295 361q0 150 104.5 253t251.5 103h92q123 0 218.5 -74.5t125.5 -191.5l-94 -29q-23 86 -91.5 141.5t-158.5 55.5h-92q-106 0 -182 -75t-76 -183
q0 -94 53.5 -156.5t177.5 -111.5l203 -78q279 -111 279 -379q0 -147 -105.5 -251.5t-251.5 -104.5h-135q-123 0 -219 75.5t-127 192.5z" />
    <glyph glyph-name="afii10055" unicode="&#x406;" 
d="M215 98h344v1205h-332v98h762v-98h-332v-1205h344v-98h-786v98z" />
    <glyph glyph-name="afii10056" unicode="&#x407;" 
d="M424 1550v277h98v-277h-98zM694 1550v277h99v-277h-99zM215 98h344v1205h-332v98h762v-98h-332v-1205h344v-98h-786v98z" />
    <glyph glyph-name="afii10057" unicode="&#x408;" 
d="M250 1401h721v-1063q0 -147 -105.5 -251.5t-251.5 -104.5h-71q-123 0 -219.5 75.5t-126.5 190.5l94 28q23 -86 92.5 -141t159.5 -55h71q106 0 182 75.5t76 182.5v965h-622v98z" />
    <glyph glyph-name="afii10058" unicode="&#x409;" 
d="M29 0v98h63q49 0 85 36t36 87v1180h510v-563h82q145 0 250.5 -104.5t105.5 -252.5v-125q0 -147 -105.5 -251.5t-250.5 -104.5h-180v1303h-314v-1082q0 -92 -64.5 -156.5t-154.5 -64.5h-63zM723 98h82q109 0 183.5 76t74.5 182v125q0 109 -75 183.5t-183 74.5h-82v-641z
" />
    <glyph glyph-name="afii10059" unicode="&#x40a;" 
d="M201 0v1401h98v-613h322v613h98v-613h82q145 0 250.5 -104t105.5 -252v-76q0 -147 -105.5 -251.5t-250.5 -104.5h-180v690h-322v-690h-98zM719 98h82q109 0 183.5 76t74.5 182v76q0 109 -75 183.5t-183 74.5h-82v-592z" />
    <glyph glyph-name="afii10060" unicode="&#x40b;" 
d="M686 856q147 0 251.5 -103.5t104.5 -250.5v-502h-98v502q0 106 -75.5 181t-182.5 75h-74q-106 0 -182 -75t-76 -181v-502h-98v1303h-244v98h776v-98h-434v-584q106 137 283 137h49z" />
    <glyph glyph-name="afii10061" unicode="&#x40c;" 
d="M604 1511l-69 70l243 242l70 -70zM227 1401h99v-645h223l293 321q35 39 57.5 99.5t22.5 97.5v127h98v-129q0 -47 -27.5 -127t-79.5 -135l-282 -303l299 -316q53 -55 80.5 -135t27.5 -127v-129h-98v129q0 37 -23.5 96.5t-58.5 98.5l-313 333h-219v-657h-99v1401z" />
    <glyph glyph-name="afii10062" unicode="&#x40e;" 
d="M381 1788h98q0 -53 38 -91t91.5 -38t91 38t37.5 91h99q0 -94 -67 -160.5t-161 -66.5t-160.5 66.5t-66.5 160.5zM219 0v98h158q59 0 88 58l90 198l-285 637q-61 137 -61 279v131h98v-131q0 -121 53 -240l248 -557l246 557q55 123 55 240v131h99v-131q0 -137 -66 -279
l-387 -874q-18 -41 -63.5 -79t-114.5 -38h-158z" />
    <glyph glyph-name="afii10145" unicode="&#x40f;" 
d="M1001 1401v-1401h-337v-356h-99v356h-350v1401h98v-1303h590v1303h98z" />
    <glyph glyph-name="afii10017" unicode="&#x410;" 
d="M993 563q37 -137 37 -295v-268h-98v268q0 14 -4 92h-637q-6 -59 -6 -92v-268h-99v268q0 135 37 295l195 711q16 63 69.5 104t121 41t120.5 -41t70 -104zM303 459h610q-4 33 -16 78l-192 708q-8 33 -35 54.5t-62 21.5t-61.5 -21.5t-34.5 -54.5l-193 -708q-12 -45 -16 -78z
" />
    <glyph glyph-name="afii10018" unicode="&#x411;" 
d="M694 836q145 0 251 -104.5t106 -252.5v-123q0 -147 -104.5 -251.5t-252.5 -104.5h-430v1401h682v-98h-584v-467h332zM952 356v123q0 106 -75.5 182t-182.5 76h-332v-639h332q106 0 182 76t76 182z" />
    <glyph glyph-name="afii10019" unicode="&#x412;" 
d="M838 715q90 -41 145 -124t55 -185v-50q0 -147 -105.5 -251.5t-250.5 -104.5h-442v1401h430q147 0 251.5 -104.5t104.5 -252.5v-24q0 -98 -52 -180t-136 -125zM670 1303h-332v-541h332q106 0 182 75.5t76 182.5v24q0 106 -74.5 182.5t-183.5 76.5zM940 356v50
q0 106 -74.5 182t-183.5 76h-344v-566h344q106 0 182 76t76 182z" />
    <glyph glyph-name="afii10020" unicode="&#x413;" 
d="M264 0v1401h768v-98h-670v-1303h-98z" />
    <glyph glyph-name="afii10021" unicode="&#x414;" 
d="M129 -356v454h86q70 190 87 368.5t17 510.5v424h625v-1303h123v-454h-98v356h-742v-356h-98zM315 98h531v1205h-428v-326q0 -229 -3 -333.5t-27 -256.5t-73 -289z" />
    <glyph glyph-name="afii10022" unicode="&#x415;" 
d="M246 0v1401h786v-98h-688v-553h625v-99h-625v-553h688v-98h-786z" />
    <glyph glyph-name="afii10024" unicode="&#x416;" 
d="M995 420q70 -141 70 -287v-133h-98v133q0 119 -58 244l-139 280h-113v-657h-98v657h-113l-137 -280q-25 -53 -40 -114.5t-17 -94.5l-2 -35v-133h-98v133q0 141 69 287l137 287l-129 276q-70 145 -69 287v131h98v-131q0 -119 59 -244l129 -270h113v645h98v-645h115
l129 270q57 121 57 244v131h99v-131q0 -145 -68 -287l-131 -276z" />
    <glyph glyph-name="afii10025" unicode="&#x417;" 
d="M770 715q90 -41 145.5 -125t55.5 -184v-68q0 -150 -104.5 -253t-252.5 -103h-100q-123 0 -219 74.5t-127 191.5l94 28q23 -86 92.5 -141t159.5 -55h100q106 0 182 75.5t76 182.5v68q0 106 -75.5 182t-182.5 76h-213v98h201q106 0 182 75.5t76 182.5v43q0 106 -75.5 182
t-182.5 76h-88q-90 0 -159.5 -55.5t-90.5 -141.5l-94 27q29 117 125 192.5t219 75.5h88q147 0 251.5 -104.5t104.5 -251.5v-43q0 -98 -52 -180t-136 -125z" />
    <glyph glyph-name="afii10026" unicode="&#x418;" 
d="M1020 1401v-1401h-98v1225l-603 -1225h-122v1401h98v-1225l602 1225h123z" />
    <glyph glyph-name="afii10027" unicode="&#x419;" 
d="M381 1788h98q0 -53 38 -91t91.5 -38t91 38t37.5 91h99q0 -94 -67 -160.5t-161 -66.5t-160.5 66.5t-66.5 160.5zM1020 1401v-1401h-98v1225l-603 -1225h-122v1401h98v-1225l602 1225h123z" />
    <glyph glyph-name="afii10028" unicode="&#x41a;" 
d="M227 1401h99v-645h223l293 321q35 39 57.5 99.5t22.5 97.5v127h98v-129q0 -47 -27.5 -127t-79.5 -135l-282 -303l299 -316q53 -55 80.5 -135t27.5 -127v-129h-98v129q0 37 -23.5 96.5t-58.5 98.5l-313 333h-219v-657h-99v1401z" />
    <glyph glyph-name="afii10029" unicode="&#x41b;" 
d="M45 0v98h64q49 0 84.5 36t35.5 87v1180h779v-1401h-99v1303h-581v-1082q0 -92 -64.5 -156.5t-154.5 -64.5h-64z" />
    <glyph glyph-name="afii10030" unicode="&#x41c;" 
d="M166 0v1401h131l311 -832l312 832h131v-1401h-99v1221l-290 -779h-107l-291 779v-1221h-98z" />
    <glyph glyph-name="afii10031" unicode="&#x41d;" 
d="M903 1401h98v-1401h-98v651h-590v-651h-98v1401h98v-651h590v651z" />
    <glyph glyph-name="afii10032" unicode="&#x41e;" 
d="M559 -18q-145 0 -250.5 104t-105.5 252v725q0 147 105.5 251.5t250.5 104.5h98q147 0 252 -104.5t105 -251.5v-725q0 -147 -104.5 -251.5t-252.5 -104.5h-98zM559 80h98q109 0 183.5 74.5t74.5 183.5v725q0 109 -74.5 183.5t-183.5 74.5h-98q-109 0 -183.5 -75
t-74.5 -183v-725q0 -109 74.5 -183.5t183.5 -74.5z" />
    <glyph glyph-name="afii10033" unicode="&#x41f;" 
d="M215 1401h786v-1401h-98v1303h-590v-1303h-98v1401z" />
    <glyph glyph-name="afii10034" unicode="&#x420;" 
d="M264 0v1401h430q147 0 252 -104.5t105 -252.5v-122q0 -147 -105.5 -252t-251.5 -105h-332v-565h-98zM362 664h332q106 0 182 75.5t76 182.5v122q0 106 -75.5 182.5t-182.5 76.5h-332v-639z" />
    <glyph glyph-name="afii10035" unicode="&#x421;" 
d="M1020 1151l-94 -27q-23 86 -91.5 141.5t-158.5 55.5h-98q-106 0 -182.5 -76t-76.5 -182v-725q0 -109 76 -183.5t183 -74.5h98q90 0 158.5 55t91.5 141l94 -28q-29 -117 -125 -191.5t-219 -74.5h-98q-147 0 -252 103t-105 253v725q0 147 104.5 251.5t252.5 104.5h98
q123 0 219 -75.5t125 -192.5z" />
    <glyph glyph-name="afii10036" unicode="&#x422;" 
d="M182 1401h852v-98h-377v-1303h-98v1303h-377v98z" />
    <glyph glyph-name="afii10037" unicode="&#x423;" 
d="M219 0v98h158q59 0 88 58l90 198l-285 637q-61 137 -61 279v131h98v-131q0 -121 53 -240l248 -557l246 557q55 123 55 240v131h99v-131q0 -137 -66 -279l-387 -874q-18 -41 -63.5 -79t-114.5 -38h-158z" />
    <glyph glyph-name="afii10038" unicode="&#x424;" 
d="M694 1237q147 0 252 -104.5t105 -251.5v-365q0 -145 -104.5 -248.5t-252.5 -103.5h-37v-164h-98v164h-37q-147 0 -251.5 103.5t-104.5 248.5v365q0 147 104.5 251.5t251.5 104.5h37v164h98v-164h37zM522 262h37v877h-37q-109 0 -183.5 -76t-74.5 -182v-365
q0 -106 74.5 -180t183.5 -74zM952 516v365q0 106 -74.5 182t-183.5 76h-37v-877h37q109 0 183.5 74t74.5 180z" />
    <glyph glyph-name="afii10039" unicode="&#x425;" 
d="M217 1401h98v-129q0 -43 14.5 -87t30.5 -67l15 -22l233 -305l234 305q59 80 59 176v129h98v-129q0 -129 -79 -236l-250 -323l264 -344q31 -39 57.5 -110t26.5 -130v-129h-98v129q0 39 -20.5 94.5t-43.5 83.5l-248 328l-248 -328q-23 -29 -43 -84t-20 -94v-129h-98v129
q0 57 26.5 128t57.5 112l264 344l-250 323l-6 13q-8 10 -16.5 23t-18.5 35.5t-18.5 47.5t-14.5 55.5t-6 61.5v129z" />
    <glyph glyph-name="afii10040" unicode="&#x426;" 
d="M215 0v1401h98v-1303h590v1303h98v-1401h-786z" />
    <glyph glyph-name="afii10041" unicode="&#x427;" 
d="M979 1401v-1401h-98v682q-106 -137 -283 -137h-49q-147 0 -251.5 103.5t-104.5 250.5v502h98v-502q0 -106 75.5 -181t182.5 -75h74q106 0 182 75t76 181v502h98z" />
    <glyph glyph-name="afii10042" unicode="&#x428;" 
d="M166 0v1401h98v-1303h295v1303h98v-1303h295v1303h99v-1401h-885z" />
    <glyph glyph-name="afii10043" unicode="&#x429;" 
d="M1051 98h55v-454h-98v356h-842v1401h98v-1303h295v1303h98v-1303h295v1303h99v-1303z" />
    <glyph glyph-name="afii10044" unicode="&#x42a;" 
d="M702 836q145 0 251 -104.5t106 -252.5v-123q0 -147 -104.5 -251.5t-252.5 -104.5h-430v1303h-239v98h338v-565h331zM961 356v123q0 106 -76 182t-183 76h-331v-639h331q106 0 182.5 76t76.5 182z" />
    <glyph glyph-name="afii10045" unicode="&#x42b;" 
d="M201 1401h98v-563h82q145 0 250.5 -104.5t105.5 -252.5v-125q0 -147 -105.5 -251.5t-250.5 -104.5h-180v1401zM918 1401h98v-1401h-98v1401zM299 739v-641h82q106 0 182 76t76 182v125q0 109 -76 183.5t-182 74.5h-82z" />
    <glyph glyph-name="afii10046" unicode="&#x42c;" 
d="M264 1401h98v-565h332q145 0 251 -104.5t106 -252.5v-123q0 -147 -104.5 -251.5t-252.5 -104.5h-430v1401zM362 737v-639h332q106 0 182 76t76 182v123q0 106 -75.5 182t-182.5 76h-332z" />
    <glyph glyph-name="afii10047" unicode="&#x42d;" 
d="M639 1419q147 0 251.5 -104.5t104.5 -251.5v-725q0 -150 -104.5 -253t-251.5 -103h-98q-123 0 -219.5 74.5t-124.5 191.5l94 28q23 -86 91.5 -141t158.5 -55h98q106 0 182 74.5t76 183.5v313h-528v99h528v313q0 106 -76 182t-182 76h-98q-90 0 -159 -55.5t-91 -141.5
l-94 27q29 117 125 192.5t219 75.5h98z" />
    <glyph glyph-name="afii10048" unicode="&#x42e;" 
d="M794.5 1419q114.5 0 194.5 -81t80 -195v-885q0 -115 -80 -195.5t-194.5 -80.5t-195.5 80.5t-81 195.5v393h-248v-651h-98v1401h98v-651h248v393q0 115 81 195.5t195.5 80.5zM971 258v885q0 74 -51.5 126t-124.5 52q-76 0 -127.5 -52t-51.5 -126v-885q0 -74 51.5 -126
t127.5 -52q74 0 125 52t51 126z" />
    <glyph glyph-name="afii10049" unicode="&#x42f;" 
d="M553 1401h430v-1401h-98v590h-275l-248 -266q-82 -86 -81 -195v-129h-99v129q0 145 109 262l194 205q-125 25 -206.5 123t-81.5 227v98q0 147 104.5 252t251.5 105zM885 688v615h-332q-106 0 -182 -76t-76 -183v-98q0 -106 75.5 -182t182.5 -76h332z" />
    <glyph glyph-name="afii10065" unicode="&#x430;" 
d="M893 1044h98v-1044h-98v121q-109 -139 -283 -139h-49q-147 0 -251.5 104t-104.5 252v369q0 147 104.5 251.5t251.5 104.5h49q174 0 283 -139v120zM635 80q106 0 182 74.5t76 183.5v369q0 109 -76 183.5t-182 74.5h-74q-106 0 -182 -75t-76 -183v-369q0 -109 76 -183.5
t182 -74.5h74z" />
    <glyph glyph-name="afii10066" unicode="&#x431;" 
d="M647 1063q145 0 251 -104.5t106 -251.5v-369q0 -147 -104.5 -251.5t-252.5 -104.5h-74q-147 0 -251.5 104t-104.5 252v752q0 147 105.5 251.5t250.5 104.5h185q51 0 87 36t36 87v30h98v-30q0 -92 -65.5 -156.5t-155.5 -64.5h-185q-106 0 -182 -76t-76 -182v-166
q109 139 283 139h49zM905 338v369q0 106 -75.5 182t-182.5 76h-74q-106 0 -182 -76t-76 -182v-369q0 -109 76 -183.5t182 -74.5h74q106 0 182 74.5t76 183.5z" />
    <glyph glyph-name="afii10067" unicode="&#x432;" 
d="M862 530q70 -31 114 -97t44 -146q0 -119 -84 -203t-203 -84h-487v1044h471q119 0 201.5 -82.5t82.5 -201.5q0 -74 -38 -135.5t-101 -94.5zM344 946v-373h373q78 0 132 54.5t54 132.5t-54 132t-132 54h-373zM733 98q78 0 133.5 55.5t55.5 133.5t-55.5 133t-133.5 55h-389
v-377h389z" />
    <glyph glyph-name="afii10068" unicode="&#x433;" 
d="M264 0v1044h756v-98h-658v-946h-98z" />
    <glyph glyph-name="afii10069" unicode="&#x434;" 
d="M145 -356v454h86q68 195 86.5 372t18.5 499v75h600v-946h123v-454h-98v356h-717v-356h-99zM332 98h506v848h-404v-12q0 -301 -18 -475.5t-84 -360.5z" />
    <glyph glyph-name="afii10070" unicode="&#x435;" 
d="M578 1063h73q145 0 251 -104.5t106 -251.5v-199h-689v-170q0 -109 76 -183.5t183 -74.5h73q90 0 160 56.5t90 142.5l94 -29q-29 -117 -125 -192.5t-219 -75.5h-73q-147 0 -252 104t-105 252v369q0 147 105 251.5t252 104.5zM319 606h590v101q0 109 -75.5 183.5
t-182.5 74.5h-73q-106 0 -182.5 -75t-76.5 -183v-101z" />
    <glyph glyph-name="afii10072" unicode="&#x436;" 
d="M152 0v125q0 59 22.5 120.5t39.5 88t24 33.5l124 151l-98 119q-106 125 -106 276v131h98v-131q0 -115 82 -213l113 -133h108v477h98v-477h109l111 133q35 43 56 97.5t24.5 79t3.5 36.5v131h98v-131q0 -16 -3 -46.5t-30 -102.5t-74 -127l-100 -119l125 -151q8 -8 24.5 -34
t40 -87.5t23.5 -120.5v-125h-98v125q0 45 -16.5 90t-32.5 68l-17 22l-135 164h-109v-469h-98v469h-108l-138 -164q-4 -4 -17 -24.5t-29.5 -66.5t-16.5 -89v-125h-98z" />
    <glyph glyph-name="afii10073" unicode="&#x437;" 
d="M834 530q74 -33 117.5 -100.5t43.5 -150.5q0 -123 -87 -210t-210 -87h-200q-102 0 -181 62t-106 159l96 28q16 -66 68.5 -108.5t122.5 -42.5h200q84 0 141.5 58.5t57.5 140t-58.5 140t-140.5 58.5h-198v98h182q82 0 138.5 56.5t56.5 138.5q0 80 -56.5 137.5t-138.5 57.5
h-186q-66 0 -118 -40t-71 -102l-94 27q29 92 106.5 152.5t176.5 60.5h186q121 0 207 -86t86 -207q0 -160 -141 -240z" />
    <glyph glyph-name="afii10074" unicode="&#x438;" 
d="M209 0v1044h98v-884l594 884h107v-1044h-99v885l-594 -885h-106z" />
    <glyph glyph-name="afii10075" unicode="&#x439;" 
d="M381 1432h98q0 -53 38 -91t91.5 -38t91 37.5t37.5 91.5h99q0 -94 -67 -161t-161 -67t-160.5 67t-66.5 161zM209 0v1044h98v-884l594 884h107v-1044h-99v885l-594 -885h-106z" />
    <glyph glyph-name="afii10076" unicode="&#x43a;" 
d="M246 1044h98v-479h256l201 166q37 33 63.5 89.5t26.5 92.5v131h98v-131q0 -25 -7 -59.5t-38 -94t-80 -102.5l-174 -141l209 -162q33 -27 71 -88t38 -137v-129h-99v129q0 25 -7 49.5t-18.5 42t-21.5 30.5t-18 19l-6 9l-238 188h-256v-467h-98v1044z" />
    <glyph glyph-name="afii10077" unicode="&#x43b;" 
d="M45 0v98h64q49 0 84.5 36t35.5 87v823h779v-1044h-99v946h-581v-725q0 -92 -64.5 -156.5t-154.5 -64.5h-64z" />
    <glyph glyph-name="afii10078" unicode="&#x43c;" 
d="M166 0v1044h131l311 -831l312 831h131v-1044h-99v864l-290 -778h-107l-291 778v-864h-98z" />
    <glyph glyph-name="afii10079" unicode="&#x43d;" 
d="M215 1044h98v-479h590v479h98v-1044h-98v467h-590v-467h-98v1044z" />
    <glyph glyph-name="afii10080" unicode="&#x43e;" 
d="M571 1063h74q147 0 251.5 -104.5t104.5 -251.5v-369q0 -147 -104 -251.5t-252 -104.5h-74q-145 0 -250.5 104t-105.5 252v369q0 147 105.5 251.5t250.5 104.5zM571 965q-109 0 -183.5 -75t-74.5 -183v-369q0 -109 75 -183.5t183 -74.5h74q109 0 183.5 74.5t74.5 183.5
v369q0 109 -74.5 183.5t-183.5 74.5h-74z" />
    <glyph glyph-name="afii10081" unicode="&#x43f;" 
d="M215 1044h786v-1044h-98v946h-590v-946h-98v1044z" />
    <glyph glyph-name="afii10082" unicode="&#x440;" 
d="M657 1063q147 0 252 -104.5t105 -251.5v-369q0 -147 -104.5 -251.5t-252.5 -104.5h-49q-174 0 -282 139v-477h-99v1400h99v-120q109 139 282 139h49zM915 338v369q0 109 -74.5 183.5t-183.5 74.5h-73q-109 0 -183.5 -75t-74.5 -183v-369q0 -109 74.5 -183.5t183.5 -74.5
h73q109 0 183.5 74.5t74.5 183.5z" />
    <glyph glyph-name="afii10083" unicode="&#x441;" 
d="M233 338v369q0 147 104.5 251.5t252.5 104.5h74q123 0 219 -76t125 -192l-95 -29q-20 86 -89.5 142.5t-159.5 56.5h-74q-106 0 -182 -75t-76 -183v-369q0 -109 75.5 -183.5t182.5 -74.5h74q90 0 159.5 56.5t89.5 142.5l95 -29q-29 -117 -125.5 -192.5t-218.5 -75.5h-74
q-147 0 -252 104.5t-105 251.5z" />
    <glyph glyph-name="afii10084" unicode="&#x442;" 
d="M190 1044h836v-98h-369v-946h-98v946h-369v98z" />
    <glyph glyph-name="afii10085" unicode="&#x443;" 
d="M213 1044h98v-131q0 -119 60 -227l241 -450l244 450q57 109 57 227v131h99v-131q0 -141 -70 -274l-481 -887q-16 -35 -64.5 -71.5t-115.5 -36.5h-160v98h160q55 0 94 57l182 334l-272 506q-72 129 -72 274v131z" />
    <glyph glyph-name="afii10086" unicode="&#x444;" 
d="M694 1055q147 0 252 -104.5t105 -252.5v-364q0 -145 -104.5 -248.5t-252.5 -103.5h-37v-338h-98v338h-37q-147 0 -251.5 103t-104.5 249v364q0 147 104.5 252t251.5 105h37v346h98v-346h37zM522 80h37v876h-37q-109 0 -183.5 -74.5t-74.5 -183.5v-364q0 -106 74.5 -180
t183.5 -74zM952 334v364q0 109 -74.5 183.5t-183.5 74.5h-37v-876h37q109 0 183.5 74t74.5 180z" />
    <glyph glyph-name="afii10087" unicode="&#x445;" 
d="M217 1044h98v-129q0 -12 3.5 -34.5t27 -68.5t64.5 -79l198 -155l199 155q41 33 64.5 80t26.5 68.5t3 33.5v129h98v-129q0 -70 -36.5 -141.5t-94.5 -116.5l-178 -137l213 -168q109 -92 109 -223v-129h-99v129q0 76 -73 150l-232 184l-231 -184l-8 -9q-8 -8 -18.5 -21
t-22 -30.5t-18.5 -41t-7 -48.5v-129h-98v129q0 76 38 136.5t70 86.5l213 168l-178 137q-74 57 -102.5 134t-28.5 124v129z" />
    <glyph glyph-name="afii10088" unicode="&#x446;" 
d="M1001 98h82v-454h-98v356h-770v1044h98v-946h590v946h98v-946z" />
    <glyph glyph-name="afii10089" unicode="&#x447;" 
d="M983 1044v-1044h-98v489q-109 -139 -283 -139h-49q-147 0 -251.5 104.5t-104.5 252.5v337h98v-337q0 -106 75.5 -182t182.5 -76h74q106 0 182 75.5t76 182.5v337h98z" />
    <glyph glyph-name="afii10090" unicode="&#x448;" 
d="M166 0v1044h98v-946h295v946h98v-946h295v946h99v-1044h-885z" />
    <glyph glyph-name="afii10091" unicode="&#x449;" 
d="M1051 98h82v-454h-99v356h-868v1044h98v-946h295v946h98v-946h295v946h99v-946z" />
    <glyph glyph-name="afii10092" unicode="&#x44a;" 
d="M70 946v98h338v-333h270q145 0 249.5 -104.5t104.5 -250.5q0 -147 -104.5 -251.5t-249.5 -104.5h-369v946h-239zM408 98h270q106 0 181 76t75 182.5t-75 181t-181 74.5h-270v-514z" />
    <glyph glyph-name="afii10093" unicode="&#x44b;" 
d="M197 0v1044h98v-438h141q125 0 214 -89t89 -214q0 -127 -89 -215t-214 -88h-239zM922 0v1044h98v-1044h-98zM295 98h141q86 0 145.5 59.5t59.5 145.5q0 84 -59.5 144.5t-145.5 60.5h-141v-410z" />
    <glyph glyph-name="afii10094" unicode="&#x44c;" 
d="M270 0v1044h99v-333h331q145 0 251 -104.5t106 -250.5q0 -147 -105.5 -251.5t-251.5 -104.5h-430zM369 98h331q106 0 182 76t76 182.5t-74.5 181t-183.5 74.5h-331v-514z" />
    <glyph glyph-name="afii10095" unicode="&#x44d;" 
d="M627 1063q147 0 251.5 -104.5t104.5 -251.5v-369q0 -147 -104.5 -251.5t-251.5 -104.5h-74q-123 0 -219 75.5t-125 192.5l94 29q20 -86 90 -142.5t160 -56.5h74q106 0 182 74.5t76 183.5v141h-514v99h514v129q0 109 -76 183.5t-182 74.5h-74q-90 0 -159.5 -56.5
t-90.5 -142.5l-94 29q29 117 125 192.5t219 75.5h74z" />
    <glyph glyph-name="afii10096" unicode="&#x44e;" 
d="M799 1063q117 -2 195.5 -83t78.5 -194v-528q0 -115 -79 -194.5t-195 -81.5q-119 2 -198 82.5t-79 193.5v215h-248v-473h-98v1044h98v-473h248v215q0 115 80 195t197 82zM975 258v528q0 74 -51.5 126.5t-124.5 52.5q-76 0 -127 -52.5t-51 -126.5v-528q0 -74 51 -126
t127 -52q74 0 125 52t51 126z" />
    <glyph glyph-name="afii10097" unicode="&#x44f;" 
d="M524 1044h467v-1044h-98v406h-369l-168 -179q-53 -53 -53 -129v-98h-98v98q0 23 4 45.5t11 41t14.5 35t15.5 30.5t15 22.5t14 14.5l4 8l125 133q-90 35 -146.5 116t-56.5 181q0 131 94 225t225 94zM893 504v442h-369q-92 0 -156.5 -64.5t-64.5 -156.5t64.5 -156.5
t156.5 -64.5h369z" />
    <glyph glyph-name="afii10071" unicode="&#x451;" 
d="M430 1194v276h98v-276h-98zM700 1194v276h99v-276h-99zM578 1063h73q145 0 251 -104.5t106 -251.5v-199h-689v-170q0 -109 76 -183.5t183 -74.5h73q90 0 160 56.5t90 142.5l94 -29q-29 -117 -125 -192.5t-219 -75.5h-73q-147 0 -252 104t-105 252v369q0 147 105 251.5
t252 104.5zM319 606h590v101q0 109 -75.5 183.5t-182.5 74.5h-73q-106 0 -182.5 -75t-76.5 -183v-101z" />
    <glyph glyph-name="afii10099" unicode="&#x452;" 
d="M651 1063q147 0 252 -104.5t105 -251.5v-842q0 -92 -65.5 -156.5t-156.5 -64.5h-63v98h63q51 0 87 36t36 87v842q0 109 -75.5 183.5t-182.5 74.5h-73q-106 0 -182.5 -75t-76.5 -183v-707h-98v1202h-141v98h141v166h98v-166h314v-98h-314v-278q109 139 283 139h49z" />
    <glyph glyph-name="afii10100" unicode="&#x453;" 
d="M641 1155l-70 70l244 241l70 -69zM264 0v1044h756v-98h-658v-946h-98z" />
    <glyph glyph-name="afii10101" unicode="&#x454;" 
d="M664 80q90 0 159.5 56.5t89.5 142.5l95 -29q-29 -117 -125.5 -192.5t-218.5 -75.5h-74q-147 0 -252 104t-105 252v369q0 147 104.5 251.5t252.5 104.5h74q123 0 219 -76t125 -192l-95 -29q-20 86 -89.5 142.5t-159.5 56.5h-74q-106 0 -182 -75t-76 -183v-129h514v-99
h-514v-141q0 -109 75.5 -183.5t182.5 -74.5h74z" />
    <glyph glyph-name="afii10102" unicode="&#x455;" 
d="M219 178l94 29q18 -55 65.5 -91t108.5 -36h234q76 0 130 54t54 130q0 72 -45 126t-121 67l-247 37q-111 16 -183.5 96t-72.5 190q0 119 82.5 201t199.5 82h197q92 0 166.5 -55.5t101.5 -141.5l-94 -28q-18 55 -65.5 91t-108.5 36h-197q-76 0 -130 -54.5t-54 -130.5
q0 -80 50 -129t122 -59l248 -39q111 -18 180.5 -98t69.5 -191q0 -117 -83 -199.5t-200 -82.5h-234q-92 0 -166.5 55t-101.5 141z" />
    <glyph glyph-name="afii10103" unicode="&#x456;" 
d="M602 1194v276h98v-276h-98zM295 1044h405v-946h351v-98h-824v98h375v848h-307v98z" />
    <glyph glyph-name="afii10104" unicode="&#x457;" 
d="M467 1194v276h98v-276h-98zM737 1194v276h99v-276h-99zM295 1044h405v-946h351v-98h-824v98h375v848h-307v98z" />
    <glyph glyph-name="afii10105" unicode="&#x458;" 
d="M727 1194v276h98v-276h-98zM256 1044h569v-1064q0 -147 -104.5 -251t-249.5 -104q-123 0 -218 75t-124 191l94 29q20 -86 89 -141t159 -55q106 0 181 74.5t75 181.5v966h-471v98z" />
    <glyph glyph-name="afii10106" unicode="&#x459;" 
d="M37 0v98h31q49 0 84.5 36t35.5 87v823h510v-438h142q125 0 214 -89t89 -214q0 -127 -88 -215t-215 -88h-240v946h-313v-725q0 -92 -64.5 -156.5t-154.5 -64.5h-31zM698 98h142q86 0 145 59.5t59 145.5q0 84 -59 144.5t-145 60.5h-142v-410z" />
    <glyph glyph-name="afii10107" unicode="&#x45a;" 
d="M172 0v1044h98v-438h322v438h98v-438h141q125 0 214.5 -89t89.5 -214q0 -127 -88.5 -215t-215.5 -88h-239v508h-322v-508h-98zM690 98h141q86 0 145.5 59.5t59.5 145.5q0 84 -59 144.5t-146 60.5h-141v-410z" />
    <glyph glyph-name="afii10108" unicode="&#x45b;" 
d="M651 1063q147 0 252 -104.5t105 -251.5v-707h-99v707q0 109 -75.5 183.5t-182.5 74.5h-73q-106 0 -182.5 -75t-76.5 -183v-707h-98v1202h-141v98h141v166h98v-166h314v-98h-314v-278q109 139 283 139h49z" />
    <glyph glyph-name="afii10109" unicode="&#x45c;" 
d="M612 1155l-69 70l243 241l70 -69zM246 1044h98v-479h256l201 166q37 33 63.5 89.5t26.5 92.5v131h98v-131q0 -25 -7 -59.5t-38 -94t-80 -102.5l-174 -141l209 -162q33 -27 71 -88t38 -137v-129h-99v129q0 25 -7 49.5t-18.5 42t-21.5 30.5t-18 19l-6 9l-238 188h-256v-467
h-98v1044z" />
    <glyph glyph-name="afii10110" unicode="&#x45e;" 
d="M381 1432h98q0 -53 38 -91t91.5 -38t91 37.5t37.5 91.5h99q0 -94 -67 -161t-161 -67t-160.5 67t-66.5 161zM213 1044h98v-131q0 -119 60 -227l241 -450l244 450q57 109 57 227v131h99v-131q0 -141 -70 -274l-481 -887q-16 -35 -64.5 -71.5t-115.5 -36.5h-160v98h160
q55 0 94 57l182 334l-272 506q-72 129 -72 274v131z" />
    <glyph glyph-name="afii10193" unicode="&#x45f;" 
d="M1001 1044v-1044h-344v-356h-98v356h-344v1044h98v-946h590v946h98z" />
    <glyph glyph-name="afii10146" unicode="&#x462;" 
d="M698 836q145 0 251 -104.5t106 -252.5v-123q0 -147 -104.5 -251.5t-252.5 -104.5h-430v1303h-239v98h776v-98h-438v-467h331zM956 356v123q0 106 -75.5 182t-182.5 76h-331v-639h331q106 0 182 76t76 182z" />
    <glyph glyph-name="afii10194" unicode="&#x463;" 
d="M57 991v99h240v311h98v-311h436v-99h-436v-280h271q145 0 249.5 -104.5t104.5 -250.5q0 -147 -104.5 -251.5t-249.5 -104.5h-369v991h-240zM395 98h271q106 0 181 76t75 182.5t-75 181t-181 74.5h-271v-514z" />
    <glyph glyph-name="afii10147" unicode="&#x472;" 
d="M657 1419q147 0 252 -104.5t105 -251.5v-725q0 -150 -104.5 -253t-252.5 -103h-98q-147 0 -251.5 104t-104.5 252v725q0 147 105.5 251.5t250.5 104.5h98zM559 1321q-106 0 -182 -76t-76 -182v-291q68 61 150 62q92 0 159 -68q8 -8 35 -36t38 -37t36.5 -20t52.5 -11
q57 0 100 39.5t43 99.5v262q0 106 -75.5 182t-182.5 76h-98zM657 80q109 0 183.5 74.5t74.5 183.5v289q-68 -61 -149 -62q-94 0 -160 70q-14 12 -36.5 36.5t-35 36t-36 21.5t-54.5 10q-57 0 -100 -40t-43 -99v-262q0 -106 76 -182t182 -76h98z" />
    <glyph glyph-name="afii10195" unicode="&#x473;" 
d="M645 1063q147 0 251.5 -104.5t104.5 -251.5v-369q0 -150 -104 -253t-252 -103h-74q-147 0 -251.5 104t-104.5 252v369q0 147 105.5 251.5t250.5 104.5h74zM571 965q-106 0 -182 -76t-76 -182v-107q61 55 142 55q88 0 155 -67q12 -10 35 -36t35 -36t35.5 -20.5t50.5 -10.5
q55 0 96 40t41 98v84q0 106 -75.5 182t-182.5 76h-74zM645 80q109 0 183.5 74.5t74.5 183.5v102q-63 -53 -141 -53q-90 0 -156 70q-14 12 -36.5 36.5t-34 35t-34 19.5t-50.5 9q-55 0 -96.5 -40t-41.5 -95v-84q0 -106 76 -182t182 -76h74z" />
    <glyph glyph-name="afii10148" unicode="&#x474;" 
d="M184 1133v268h99v-268q0 -135 47 -263l278 -759l422 1153q23 59 78 98t121 39h39v-98h-39q-37 0 -66.5 -21.5t-40.5 -54.5l-452 -1227h-123l-311 840q-52 139 -52 293z" />
    <glyph glyph-name="afii10196" unicode="&#x475;" 
d="M203 913v131h98v-131q0 -119 53 -239l248 -555l356 799q29 63 85.5 94.5t109.5 31.5h33v-98h-33q-27 0 -58.5 -17.5t-45.5 -49.5l-394 -879h-106l-283 633q-63 141 -63 280z" />
    <glyph glyph-name="afii10050" unicode="&#x490;" 
d="M934 1577h98v-274h-670v-1303h-98v1401h670v176z" />
    <glyph glyph-name="afii10098" unicode="&#x491;" 
d="M922 1401h98v-455h-658v-946h-98v1044h658v357z" />
    <glyph glyph-name="uni0492" unicode="&#x492;" 
d="M1065 1303h-670v-594h543v-99h-543v-610h-98v610h-162v99h162v692h768v-98z" />
    <glyph glyph-name="uni0493" unicode="&#x493;" 
d="M1053 946h-658v-385h543v-98h-543v-463h-98v463h-162v98h162v483h756v-98z" />
    <glyph glyph-name="uni0496" unicode="&#x496;" 
d="M1065 98h47v-454h-98v356h-47v133q0 119 -58 244l-139 280h-113v-657h-98v657h-113l-137 -280q-25 -53 -40 -114.5t-17 -94.5l-2 -35v-133h-98v133q0 141 69 287l137 287l-129 276q-70 145 -69 287v131h98v-131q0 -119 59 -244l129 -270h113v645h98v-645h115l129 270
q57 121 57 244v131h99v-131q0 -145 -68 -287l-131 -276l137 -287q70 -141 70 -287v-35z" />
    <glyph glyph-name="uni0497" unicode="&#x497;" 
d="M1065 98h47v-454h-98v356h-47v125q0 45 -16.5 90t-32.5 68l-17 22l-135 164h-109v-469h-98v469h-108l-138 -164q-4 -4 -17 -24.5t-29.5 -66.5t-16.5 -89v-125h-98v125q0 59 22.5 120.5t39.5 88t24 33.5l124 151l-98 119q-106 125 -106 276v131h98v-131q0 -115 82 -213
l113 -133h108v477h98v-477h109l111 133q35 43 56 97.5t24.5 79t3.5 36.5v131h98v-131q0 -16 -3 -46.5t-30 -102.5t-74 -127l-100 -119l125 -151q8 -8 24.5 -34t40 -87.5t23.5 -120.5v-27z" />
    <glyph glyph-name="uni0498" unicode="&#x498;" 
d="M770 715q90 -41 145.5 -125t55.5 -184v-68q0 -147 -101.5 -249.5t-246.5 -106.5v-91q78 -16 131 -78.5t53 -144.5q0 -94 -66.5 -160.5t-160.5 -66.5h-58v98h58q53 0 91 37t38 92q0 53 -38 91t-91 38h-56v185h-10q-123 0 -219 74.5t-127 191.5l94 28q23 -86 92.5 -141
t159.5 -55h100q106 0 182 75.5t76 182.5v68q0 106 -75.5 182t-182.5 76h-213v98h201q106 0 182 75.5t76 182.5v43q0 106 -75.5 182t-182.5 76h-88q-90 0 -159.5 -55.5t-90.5 -141.5l-94 27q29 117 125 192.5t219 75.5h88q147 0 251.5 -104.5t104.5 -251.5v-43
q0 -98 -52 -180t-136 -125z" />
    <glyph glyph-name="uni0499" unicode="&#x499;" 
d="M698 -18h-41v-86q78 -16 131.5 -79t53.5 -145q0 -94 -66.5 -160.5t-161.5 -66.5h-57v98h57q53 0 91 37t38 92q0 53 -37.5 91t-91.5 38h-55v181h-61q-102 0 -181 62t-106 159l96 28q16 -66 68.5 -108.5t122.5 -42.5h200q84 0 141.5 58.5t57.5 140t-58.5 140t-140.5 58.5
h-198v98h182q82 0 138.5 56.5t56.5 138.5q0 80 -56.5 137.5t-138.5 57.5h-186q-66 0 -118 -40t-71 -102l-94 27q29 92 106.5 152.5t176.5 60.5h186q121 0 207 -86t86 -207q0 -160 -141 -240q74 -33 117.5 -100.5t43.5 -150.5q0 -123 -87 -210t-210 -87z" />
    <glyph glyph-name="uni049A" unicode="&#x49a;" 
d="M1038 98h76v-454h-98v356h-76v129q0 37 -23.5 96.5t-58.5 98.5l-313 333h-219v-657h-99v1401h99v-645h223l293 321q35 39 57.5 99.5t22.5 97.5v127h98v-129q0 -47 -27.5 -127t-79.5 -135l-282 -303l299 -316q53 -55 80.5 -135t27.5 -127v-31z" />
    <glyph glyph-name="uni049B" unicode="&#x49b;" 
d="M1008 98h75v-454h-98v356h-76v129q0 25 -7 49.5t-18.5 42t-21.5 30.5t-18 19l-6 9l-238 188h-256v-467h-98v1044h98v-479h256l201 166q37 33 63.5 89.5t26.5 92.5v131h98v-131q0 -25 -7 -59.5t-38 -94t-80 -102.5l-174 -141l209 -162q33 -27 71 -88t38 -137v-31z" />
    <glyph glyph-name="uni04A2" unicode="&#x4a2;" 
d="M1001 98h76v-454h-98v356h-76v651h-590v-651h-98v1401h98v-651h590v651h98v-1303z" />
    <glyph glyph-name="uni04A3" unicode="&#x4a3;" 
d="M1001 98h76v-454h-98v356h-76v467h-590v-467h-98v1044h98v-479h590v479h98v-946z" />
    <glyph glyph-name="uni04AA" unicode="&#x4aa;" 
d="M676 80q90 0 158.5 55t91.5 141l94 -28q-29 -117 -125 -191.5t-219 -74.5h-19v-86q78 -16 131.5 -79t53.5 -145q0 -94 -66.5 -160.5t-161.5 -66.5h-57v98h57q53 0 91 37t38 92q0 53 -37.5 91t-91.5 38h-55v181q-141 8 -239.5 110.5t-98.5 245.5v725q0 147 104.5 251.5
t252.5 104.5h98q123 0 219 -75.5t125 -192.5l-94 -27q-23 86 -91.5 141.5t-158.5 55.5h-98q-106 0 -182.5 -76t-76.5 -182v-725q0 -109 76 -183.5t183 -74.5h98z" />
    <glyph glyph-name="uni04AB" unicode="&#x4ab;" 
d="M664 80q90 0 159.5 56.5t89.5 142.5l95 -29q-27 -113 -119 -188.5t-211 -79.5v-86q78 -16 131 -79t53 -145q0 -94 -66.5 -160.5t-160.5 -66.5h-57v98h57q53 0 91 37t38 92q0 53 -38 91t-91 38h-55v181q-145 4 -246 108.5t-101 247.5v369q0 147 104.5 251.5t252.5 104.5
h74q123 0 219 -76t125 -192l-95 -29q-20 86 -89.5 142.5t-159.5 56.5h-74q-106 0 -182 -75t-76 -183v-369q0 -109 75.5 -183.5t182.5 -74.5h74z" />
    <glyph glyph-name="uni04AC" unicode="&#x4ac;" 
d="M1034 1303h-377v-1205h76v-454h-98v356h-76v1303h-377v98h852v-98z" />
    <glyph glyph-name="uni04AD" unicode="&#x4ad;" 
d="M1026 946h-369v-848h76v-454h-98v356h-76v946h-369v98h836v-98z" />
    <glyph glyph-name="uni04AE" unicode="&#x4ae;" 
d="M1010 1114q0 -111 -80 -231l-273 -344v-539h-98v539l-272 344q-8 8 -24.5 33.5t-36 83t-19.5 114.5v287h98v-287q0 -41 15.5 -85t27.5 -64.5t17 -24.5l243 -307l244 307l6 10q6 8 14.5 24.5t17.5 37t15 48t6 54.5v287h99v-287z" />
    <glyph glyph-name="uni04AF" unicode="&#x4af;" 
d="M1008 913q0 -143 -70 -274l-281 -520v-475h-98v475l-280 520q-70 127 -70 274v131h98v-131q0 -119 58 -229l243 -448l244 448q57 111 57 229v131h99v-131z" />
    <glyph glyph-name="uni04B0" unicode="&#x4b0;" 
d="M1024 596v-98h-367v-498h-98v498h-366v98h321l-227 287q-8 8 -24.5 33.5t-36 83t-19.5 114.5v287h98v-287q0 -41 15.5 -85t27.5 -64.5t17 -24.5l243 -307l244 307l6 10q6 8 14.5 24.5t17.5 37t15 48t6 54.5v287h99v-287q0 -111 -80 -231l-228 -287h322z" />
    <glyph glyph-name="uni04B1" unicode="&#x4b1;" 
d="M909 1044h99v-131q0 -143 -70 -274l-227 -422h209v-98h-263v-475h-98v475h-254v98h201l-227 422q-70 127 -70 274v131h98v-131q0 -119 58 -229l243 -448l244 448q57 111 57 229v131z" />
    <glyph glyph-name="uni04B2" unicode="&#x4b2;" 
d="M1018 98h76v-454h-99v356h-75v129q0 39 -20.5 94.5t-43.5 83.5l-248 328l-248 -328q-23 -29 -43 -84t-20 -94v-129h-98v129q0 57 26.5 128t57.5 112l264 344l-250 323l-6 13q-8 10 -16.5 23t-18.5 35.5t-18.5 47.5t-14.5 55.5t-6 61.5v129h98v-129q0 -43 14.5 -87
t30.5 -67l15 -22l233 -305l234 305q59 80 59 176v129h98v-129q0 -129 -79 -236l-250 -323l264 -344q31 -39 57.5 -110t26.5 -130v-31z" />
    <glyph glyph-name="uni04B3" unicode="&#x4b3;" 
d="M1012 98h75v-454h-98v356h-76v129q0 76 -73 150l-232 184l-231 -184l-8 -9q-8 -8 -18.5 -21t-22 -30.5t-18.5 -41t-7 -48.5v-129h-98v129q0 76 38 136.5t70 86.5l213 168l-178 137q-74 57 -102.5 134t-28.5 124v129h98v-129q0 -12 3.5 -34.5t27 -68.5t64.5 -79l198 -155
l199 155q41 33 64.5 80t26.5 68.5t3 33.5v129h98v-129q0 -70 -36.5 -141.5t-94.5 -116.5l-178 -137l213 -168q109 -92 109 -223v-31z" />
    <glyph glyph-name="uni04B6" unicode="&#x4b6;" 
d="M979 98h76v-454h-99v356h-75v682q-106 -137 -283 -137h-49q-147 0 -251.5 103.5t-104.5 250.5v502h98v-502q0 -106 75.5 -181t182.5 -75h74q106 0 182 75t76 181v502h98v-1303z" />
    <glyph glyph-name="uni04B7" unicode="&#x4b7;" 
d="M983 98h76v-454h-98v356h-76v489q-109 -139 -283 -139h-49q-147 0 -251.5 104.5t-104.5 252.5v337h98v-337q0 -106 75.5 -182t182.5 -76h74q106 0 182 75.5t76 182.5v337h98v-946z" />
    <glyph glyph-name="uni04BA" unicode="&#x4ba;" 
d="M668 856q147 0 251.5 -103.5t104.5 -250.5v-502h-98v502q0 106 -76 181t-182 75h-74q-106 0 -182 -75t-76 -181v-502h-98v1401h98v-682q106 137 282 137h50z" />
    <glyph glyph-name="uni04BB" unicode="&#x4bb;" 
d="M651 1063q147 0 252 -104.5t105 -251.5v-707h-99v707q0 109 -75.5 183.5t-182.5 74.5h-73q-106 0 -182.5 -75t-76.5 -183v-707h-98v1401h98v-477q109 139 283 139h49z" />
    <glyph glyph-name="uni04C0" unicode="&#x4c0;" 
d="M215 98h344v1205h-332v98h762v-98h-332v-1205h344v-98h-786v98z" />
    <glyph glyph-name="uni04C1" unicode="&#x4c1;" 
d="M608 1561q-94 0 -160.5 66.5t-66.5 160.5h98q0 -53 38 -91t91.5 -38t91 38t37.5 91h99q0 -94 -67 -160.5t-161 -66.5zM995 420q70 -141 70 -287v-133h-98v133q0 119 -58 244l-139 280h-113v-657h-98v657h-113l-137 -280q-25 -53 -40 -114.5t-17 -94.5l-2 -35v-133h-98
v133q0 141 69 287l137 287l-129 276q-70 145 -69 287v131h98v-131q0 -119 59 -244l129 -270h113v645h98v-645h115l129 270q57 121 57 244v131h99v-131q0 -145 -68 -287l-131 -276z" />
    <glyph glyph-name="uni04C2" unicode="&#x4c2;" 
d="M381 1432h98q0 -53 38 -91t91.5 -38t91 37.5t37.5 91.5h99q0 -94 -67 -161t-161 -67t-160.5 67t-66.5 161zM152 0v125q0 59 22.5 120.5t39.5 88t24 33.5l124 151l-98 119q-106 125 -106 276v131h98v-131q0 -115 82 -213l113 -133h108v477h98v-477h109l111 133
q35 43 56 97.5t24.5 79t3.5 36.5v131h98v-131q0 -16 -3 -46.5t-30 -102.5t-74 -127l-100 -119l125 -151q8 -8 24.5 -34t40 -87.5t23.5 -120.5v-125h-98v125q0 45 -16.5 90t-32.5 68l-17 22l-135 164h-109v-469h-98v469h-108l-138 -164q-4 -4 -17 -24.5t-29.5 -66.5
t-16.5 -89v-125h-98z" />
    <glyph glyph-name="uni04CB" unicode="&#x4cb;" 
d="M979 98h76v-454h-99v356h-75v682q-106 -137 -283 -137h-49q-147 0 -251.5 103.5t-104.5 250.5v502h98v-502q0 -106 75.5 -181t182.5 -75h74q106 0 182 75t76 181v502h98v-1303z" />
    <glyph glyph-name="uni04CC" unicode="&#x4cc;" 
d="M983 98h76v-454h-98v356h-76v489q-109 -139 -283 -139h-49q-147 0 -251.5 104.5t-104.5 252.5v337h98v-337q0 -106 75.5 -182t182.5 -76h74q106 0 182 75.5t76 182.5v337h98v-946z" />
    <glyph glyph-name="uni04CF" unicode="&#x4cf;" 
d="M215 98h344v1205h-332v98h762v-98h-332v-1205h344v-98h-786v98z" />
    <glyph glyph-name="uni04D0" unicode="&#x4d0;" 
d="M608 1561q-94 0 -160.5 66.5t-66.5 160.5h98q0 -53 38 -91t91.5 -38t91 38t37.5 91h99q0 -94 -67 -160.5t-161 -66.5zM993 563q37 -137 37 -295v-268h-98v268q0 14 -4 92h-637q-6 -59 -6 -92v-268h-99v268q0 135 37 295l195 711q16 63 69.5 104t121 41t120.5 -41t70 -104
zM303 459h610q-4 33 -16 78l-192 708q-8 33 -35 54.5t-62 21.5t-61.5 -21.5t-34.5 -54.5l-193 -708q-12 -45 -16 -78z" />
    <glyph glyph-name="uni04D1" unicode="&#x4d1;" 
d="M608 1204q-94 0 -160.5 66.5t-66.5 161.5h98q0 -53 38 -91t91.5 -38t91 37.5t37.5 91.5h99q0 -94 -67 -161t-161 -67zM893 1044h98v-1044h-98v121q-109 -139 -283 -139h-49q-147 0 -251.5 104t-104.5 252v369q0 147 104.5 251.5t251.5 104.5h49q174 0 283 -139v120z
M635 80q106 0 182 74.5t76 183.5v369q0 109 -76 183.5t-182 74.5h-74q-106 0 -182 -75t-76 -183v-369q0 -109 76 -183.5t182 -74.5h74z" />
    <glyph glyph-name="uni04D2" unicode="&#x4d2;" 
d="M522 1827v-277h-98v277h98zM793 1827v-277h-99v277h99zM993 563q37 -137 37 -295v-268h-98v268q0 14 -4 92h-637q-6 -59 -6 -92v-268h-99v268q0 135 37 295l195 711q16 63 69.5 104t121 41t120.5 -41t70 -104zM303 459h610q-4 33 -16 78l-192 708q-8 33 -35 54.5
t-62 21.5t-61.5 -21.5t-34.5 -54.5l-193 -708q-12 -45 -16 -78z" />
    <glyph glyph-name="uni04D3" unicode="&#x4d3;" 
d="M522 1470v-276h-98v276h98zM793 1470v-276h-99v276h99zM893 1044h98v-1044h-98v121q-109 -139 -283 -139h-49q-147 0 -251.5 104t-104.5 252v369q0 147 104.5 251.5t251.5 104.5h49q174 0 283 -139v120zM635 80q106 0 182 74.5t76 183.5v369q0 109 -76 183.5t-182 74.5
h-74q-106 0 -182 -75t-76 -183v-369q0 -109 76 -183.5t182 -74.5h74z" />
    <glyph glyph-name="uni04D4" unicode="&#x4d4;" 
d="M1051 1303h-351v-553h289v-99h-289v-553h351v-98h-449v360h-338q-4 -78 -4 -92v-268h-98v268q0 164 37 295l194 711q16 63 69.5 104t121.5 41q45 0 82 -18h385v-98zM279 459h323v860q-6 2 -18 2q-35 0 -61.5 -21.5t-35.5 -54.5l-192 -708q-12 -45 -16 -78z" />
    <glyph glyph-name="uni04D5" unicode="&#x4d5;" 
d="M1116 473h-454v-215q0 -74 52 -126t126 -52q57 0 104 35t66 90l94 -29q-29 -86 -101.5 -140t-162.5 -54q-109 0 -178 84v-66h-99v66q-70 -84 -178 -84q-115 0 -195.5 80.5t-80.5 195.5v528q0 115 80.5 196t195.5 81q109 0 178 -84v65h99v-65q70 84 178 84
q115 0 195.5 -81t80.5 -196v-313zM385 80q74 0 126 52t52 126v528q0 74 -52 126.5t-126 52.5t-126 -52.5t-52 -126.5v-528q0 -74 52 -126t126 -52zM839.5 965q-73.5 0 -125.5 -52.5t-52 -126.5v-215h356v215q0 74 -52.5 126.5t-126 52.5z" />
    <glyph glyph-name="uni04D6" unicode="&#x4d6;" 
d="M412 1788h98q0 -53 38 -91t91 -38t91 38t38 91h98q0 -94 -66.5 -160.5t-160.5 -66.5t-160.5 66.5t-66.5 160.5zM246 0v1401h786v-98h-688v-553h625v-99h-625v-553h688v-98h-786z" />
    <glyph glyph-name="uni04D7" unicode="&#x4d7;" 
d="M387 1432h98q0 -53 38 -91t91.5 -38t91 37.5t37.5 91.5h99q0 -94 -66.5 -161t-161 -67t-161 67t-66.5 161zM578 1063h73q145 0 251 -104.5t106 -251.5v-199h-689v-170q0 -109 76 -183.5t183 -74.5h73q90 0 160 56.5t90 142.5l94 -29q-29 -117 -125 -192.5t-219 -75.5h-73
q-147 0 -252 104t-105 252v369q0 147 105 251.5t252 104.5zM319 606h590v101q0 109 -75.5 183.5t-182.5 74.5h-73q-106 0 -182.5 -75t-76.5 -183v-101z" />
    <glyph glyph-name="uni04D8" unicode="&#x4d8;" 
d="M209 1153q29 115 125 190.5t219 75.5h98q145 0 251 -104.5t106 -251.5v-725q0 -147 -105.5 -251.5t-251.5 -104.5h-98q-145 0 -250.5 104t-105.5 252v412h712v313q0 109 -75.5 183.5t-182.5 74.5h-98q-90 0 -158.5 -55.5t-91.5 -141.5zM295 651v-313q0 -109 75.5 -183.5
t182.5 -74.5h98q106 0 182 74.5t76 183.5v313h-614z" />
    <glyph glyph-name="afii10846" unicode="&#x4d9;" 
d="M639 -18h-74q-145 0 -250.5 104t-105.5 252v199h688v170q0 109 -76 183.5t-182 74.5h-74q-90 0 -159.5 -56.5t-90.5 -142.5l-94 29q29 117 125 192.5t219 75.5h74q147 0 251.5 -104.5t104.5 -251.5v-369q0 -147 -104.5 -251.5t-251.5 -104.5zM897 438h-590v-100
q0 -109 76 -183.5t182 -74.5h74q106 0 182 74.5t76 183.5v100z" />
    <glyph glyph-name="uni04DA" unicode="&#x4da;" 
d="M424 1550v277h98v-277h-98zM694 1550v277h99v-277h-99zM209 1153q29 115 125 190.5t219 75.5h98q145 0 251 -104.5t106 -251.5v-725q0 -147 -105.5 -251.5t-251.5 -104.5h-98q-145 0 -250.5 104t-105.5 252v412h712v313q0 109 -75.5 183.5t-182.5 74.5h-98
q-90 0 -158.5 -55.5t-91.5 -141.5zM295 651v-313q0 -109 75.5 -183.5t182.5 -74.5h98q106 0 182 74.5t76 183.5v313h-614z" />
    <glyph glyph-name="uni04DB" unicode="&#x4db;" 
d="M420 1194v276h98v-276h-98zM690 1194v276h98v-276h-98zM639 -18h-74q-145 0 -250.5 104t-105.5 252v199h688v170q0 109 -76 183.5t-182 74.5h-74q-90 0 -159.5 -56.5t-90.5 -142.5l-94 29q29 117 125 192.5t219 75.5h74q147 0 251.5 -104.5t104.5 -251.5v-369
q0 -147 -104.5 -251.5t-251.5 -104.5zM897 438h-590v-100q0 -109 76 -183.5t182 -74.5h74q106 0 182 74.5t76 183.5v100z" />
    <glyph glyph-name="uni04DC" unicode="&#x4dc;" 
d="M522 1827v-277h-98v277h98zM793 1827v-277h-99v277h99zM995 420q70 -141 70 -287v-133h-98v133q0 119 -58 244l-139 280h-113v-657h-98v657h-113l-137 -280q-25 -53 -40 -114.5t-17 -94.5l-2 -35v-133h-98v133q0 141 69 287l137 287l-129 276q-70 145 -69 287v131h98
v-131q0 -119 59 -244l129 -270h113v645h98v-645h115l129 270q57 121 57 244v131h99v-131q0 -145 -68 -287l-131 -276z" />
    <glyph glyph-name="uni04DD" unicode="&#x4dd;" 
d="M424 1194v276h98v-276h-98zM694 1194v276h99v-276h-99zM152 0v125q0 59 22.5 120.5t39.5 88t24 33.5l124 151l-98 119q-106 125 -106 276v131h98v-131q0 -115 82 -213l113 -133h108v477h98v-477h109l111 133q35 43 56 97.5t24.5 79t3.5 36.5v131h98v-131q0 -16 -3 -46.5
t-30 -102.5t-74 -127l-100 -119l125 -151q8 -8 24.5 -34t40 -87.5t23.5 -120.5v-125h-98v125q0 45 -16.5 90t-32.5 68l-17 22l-135 164h-109v-469h-98v469h-108l-138 -164q-4 -4 -17 -24.5t-29.5 -66.5t-16.5 -89v-125h-98z" />
    <glyph glyph-name="uni04DE" unicode="&#x4de;" 
d="M487 1827v-277h-98v277h98zM758 1827v-277h-99v277h99zM770 715q90 -41 145.5 -125t55.5 -184v-68q0 -150 -104.5 -253t-252.5 -103h-100q-123 0 -219 74.5t-127 191.5l94 28q23 -86 92.5 -141t159.5 -55h100q106 0 182 75.5t76 182.5v68q0 106 -75.5 182t-182.5 76h-213
v98h201q106 0 182 75.5t76 182.5v43q0 106 -75.5 182t-182.5 76h-88q-90 0 -159.5 -55.5t-90.5 -141.5l-94 27q29 117 125 192.5t219 75.5h88q147 0 251.5 -104.5t104.5 -251.5v-43q0 -98 -52 -180t-136 -125z" />
    <glyph glyph-name="uni04DF" unicode="&#x4df;" 
d="M522 1470v-276h-98v276h98zM793 1470v-276h-99v276h99zM834 530q74 -33 117.5 -100.5t43.5 -150.5q0 -123 -87 -210t-210 -87h-200q-102 0 -181 62t-106 159l96 28q16 -66 68.5 -108.5t122.5 -42.5h200q84 0 141.5 58.5t57.5 140t-58.5 140t-140.5 58.5h-198v98h182
q82 0 138.5 56.5t56.5 138.5q0 80 -56.5 137.5t-138.5 57.5h-186q-66 0 -118 -40t-71 -102l-94 27q29 92 106.5 152.5t176.5 60.5h186q121 0 207 -86t86 -207q0 -160 -141 -240z" />
    <glyph glyph-name="uni04E0" unicode="&#x4e0;" 
d="M209 250l94 29q20 -86 90 -142.5t160 -56.5h74q106 0 182 74.5t76 183.5v135q0 106 -76 182t-182 76h-160v98l371 474h-611v98h738v-98l-371 -474l51 -2q141 -6 239.5 -108.5t98.5 -245.5v-135q0 -147 -104.5 -251.5t-251.5 -104.5h-74q-123 0 -219 75.5t-125 192.5z" />
    <glyph glyph-name="uni04E1" unicode="&#x4e1;" 
d="M209 -106l94 28q20 -86 90 -142t160 -56h74q106 0 182 74.5t76 183.5v135q0 106 -76 182t-182 76h-160v98l371 473h-611v98h738v-98l-371 -473l51 -2q141 -6 239.5 -108.5t98.5 -245.5v-135q0 -147 -104.5 -252t-251.5 -105h-74q-123 0 -219 76t-125 193z" />
    <glyph glyph-name="uni04E2" unicode="&#x4e2;" 
d="M324 1579v98h569v-98h-569zM1020 1401v-1401h-98v1225l-603 -1225h-122v1401h98v-1225l602 1225h123z" />
    <glyph glyph-name="uni04E3" unicode="&#x4e3;" 
d="M324 1223v98h569v-98h-569zM209 0v1044h98v-884l594 884h107v-1044h-99v885l-594 -885h-106z" />
    <glyph glyph-name="uni04E4" unicode="&#x4e4;" 
d="M424 1550v277h98v-277h-98zM694 1550v277h99v-277h-99zM1020 1401v-1401h-98v1225l-603 -1225h-122v1401h98v-1225l602 1225h123z" />
    <glyph glyph-name="uni04E5" unicode="&#x4e5;" 
d="M424 1194v276h98v-276h-98zM694 1194v276h99v-276h-99zM209 0v1044h98v-884l594 884h107v-1044h-99v885l-594 -885h-106z" />
    <glyph glyph-name="uni04E6" unicode="&#x4e6;" 
d="M424 1550v277h98v-277h-98zM694 1550v277h99v-277h-99zM559 -18q-145 0 -250.5 104t-105.5 252v725q0 147 105.5 251.5t250.5 104.5h98q147 0 252 -104.5t105 -251.5v-725q0 -147 -104.5 -251.5t-252.5 -104.5h-98zM559 80h98q109 0 183.5 74.5t74.5 183.5v725
q0 109 -74.5 183.5t-183.5 74.5h-98q-109 0 -183.5 -75t-74.5 -183v-725q0 -109 74.5 -183.5t183.5 -74.5z" />
    <glyph glyph-name="uni04E7" unicode="&#x4e7;" 
d="M424 1194v276h98v-276h-98zM694 1194v276h99v-276h-99zM571 1063h74q147 0 251.5 -104.5t104.5 -251.5v-369q0 -147 -104 -251.5t-252 -104.5h-74q-145 0 -250.5 104t-105.5 252v369q0 147 105.5 251.5t250.5 104.5zM571 965q-109 0 -183.5 -75t-74.5 -183v-369
q0 -109 75 -183.5t183 -74.5h74q109 0 183.5 74.5t74.5 183.5v369q0 109 -74.5 183.5t-183.5 74.5h-74z" />
    <glyph glyph-name="uni04E8" unicode="&#x4e8;" 
d="M657 1419q147 0 252 -104.5t105 -251.5v-725q0 -147 -104.5 -251.5t-252.5 -104.5h-98q-145 0 -250.5 104t-105.5 252v725q0 147 105.5 251.5t250.5 104.5h98zM559 1321q-109 0 -183.5 -75t-74.5 -183v-313h614v313q0 109 -74.5 183.5t-183.5 74.5h-98zM657 80
q109 0 183.5 74.5t74.5 183.5v313h-614v-313q0 -109 75 -183.5t183 -74.5h98z" />
    <glyph glyph-name="uni04E9" unicode="&#x4e9;" 
d="M645 1063q147 0 251.5 -104.5t104.5 -251.5v-369q0 -147 -104 -251.5t-252 -104.5h-74q-145 0 -250.5 104t-105.5 252v369q0 147 105.5 251.5t250.5 104.5h74zM571 965q-109 0 -183.5 -75t-74.5 -183v-136h590v136q0 109 -74.5 183.5t-183.5 74.5h-74zM645 80
q109 0 183.5 74.5t74.5 183.5v135h-590v-135q0 -109 75 -183.5t183 -74.5h74z" />
    <glyph glyph-name="uni04EA" unicode="&#x4ea;" 
d="M522 1827v-277h-98v277h98zM793 1827v-277h-99v277h99zM657 1419q147 0 252 -104.5t105 -251.5v-725q0 -147 -104.5 -251.5t-252.5 -104.5h-98q-145 0 -250.5 104t-105.5 252v725q0 147 105.5 251.5t250.5 104.5h98zM559 1321q-109 0 -183.5 -75t-74.5 -183v-313h614v313
q0 109 -74.5 183.5t-183.5 74.5h-98zM657 80q109 0 183.5 74.5t74.5 183.5v313h-614v-313q0 -109 75 -183.5t183 -74.5h98z" />
    <glyph glyph-name="uni04EB" unicode="&#x4eb;" 
d="M522 1470v-276h-98v276h98zM793 1470v-276h-99v276h99zM645 1063q147 0 251.5 -104.5t104.5 -251.5v-369q0 -147 -104 -251.5t-252 -104.5h-74q-145 0 -250.5 104t-105.5 252v369q0 147 105.5 251.5t250.5 104.5h74zM571 965q-109 0 -183.5 -75t-74.5 -183v-136h590v136
q0 109 -74.5 183.5t-183.5 74.5h-74zM645 80q109 0 183.5 74.5t74.5 183.5v135h-590v-135q0 -109 75 -183.5t183 -74.5h74z" />
    <glyph glyph-name="uni04EC" unicode="&#x4ec;" 
d="M502 1827v-277h-99v277h99zM772 1827v-277h-98v277h98zM639 1419q147 0 251.5 -104.5t104.5 -251.5v-725q0 -150 -104.5 -253t-251.5 -103h-98q-123 0 -219.5 74.5t-124.5 191.5l94 28q23 -86 91.5 -141t158.5 -55h98q106 0 182 74.5t76 183.5v313h-528v99h528v313
q0 106 -76 182t-182 76h-98q-90 0 -159 -55.5t-91 -141.5l-94 27q29 117 125 192.5t219 75.5h98z" />
    <glyph glyph-name="uni04ED" unicode="&#x4ed;" 
d="M502 1470v-276h-99v276h99zM772 1470v-276h-98v276h98zM627 1063q147 0 251.5 -104.5t104.5 -251.5v-369q0 -147 -104.5 -251.5t-251.5 -104.5h-74q-123 0 -219 75.5t-125 192.5l94 29q20 -86 90 -142.5t160 -56.5h74q106 0 182 74.5t76 183.5v141h-514v99h514v129
q0 109 -76 183.5t-182 74.5h-74q-90 0 -159.5 -56.5t-90.5 -142.5l-94 29q29 117 125 192.5t219 75.5h74z" />
    <glyph glyph-name="uni04EE" unicode="&#x4ee;" 
d="M324 1579v98h569v-98h-569zM219 0v98h158q59 0 88 58l90 198l-285 637q-61 137 -61 279v131h98v-131q0 -121 53 -240l248 -557l246 557q55 123 55 240v131h99v-131q0 -137 -66 -279l-387 -874q-18 -41 -63.5 -79t-114.5 -38h-158z" />
    <glyph glyph-name="uni04EF" unicode="&#x4ef;" 
d="M324 1223v98h569v-98h-569zM213 1044h98v-131q0 -119 60 -227l241 -450l244 450q57 109 57 227v131h99v-131q0 -141 -70 -274l-481 -887q-16 -35 -64.5 -71.5t-115.5 -36.5h-160v98h160q55 0 94 57l182 334l-272 506q-72 129 -72 274v131z" />
    <glyph glyph-name="uni04F0" unicode="&#x4f0;" 
d="M424 1550v277h98v-277h-98zM694 1550v277h99v-277h-99zM219 0v98h158q59 0 88 58l90 198l-285 637q-61 137 -61 279v131h98v-131q0 -121 53 -240l248 -557l246 557q55 123 55 240v131h99v-131q0 -137 -66 -279l-387 -874q-18 -41 -63.5 -79t-114.5 -38h-158z" />
    <glyph glyph-name="uni04F1" unicode="&#x4f1;" 
d="M424 1194v276h98v-276h-98zM694 1194v276h99v-276h-99zM213 1044h98v-131q0 -119 60 -227l241 -450l244 450q57 109 57 227v131h99v-131q0 -141 -70 -274l-481 -887q-16 -35 -64.5 -71.5t-115.5 -36.5h-160v98h160q55 0 94 57l182 334l-272 506q-72 129 -72 274v131z" />
    <glyph glyph-name="uni04F2" unicode="&#x4f2;" 
d="M473 1511l-70 70l244 242l70 -70zM774 1511l-69 70l243 242l70 -70zM219 0v98h158q59 0 88 58l90 198l-285 637q-61 137 -61 279v131h98v-131q0 -121 53 -240l248 -557l246 557q55 123 55 240v131h99v-131q0 -137 -66 -279l-387 -874q-18 -41 -63.5 -79t-114.5 -38h-158z
" />
    <glyph glyph-name="uni04F3" unicode="&#x4f3;" 
d="M473 1155l-70 70l244 241l70 -69zM774 1155l-69 70l243 241l70 -69zM213 1044h98v-131q0 -119 60 -227l241 -450l244 450q57 109 57 227v131h99v-131q0 -141 -70 -274l-481 -887q-16 -35 -64.5 -71.5t-115.5 -36.5h-160v98h160q55 0 94 57l182 334l-272 506
q-72 129 -72 274v131z" />
    <glyph glyph-name="uni04F4" unicode="&#x4f4;" 
d="M522 1827v-277h-98v277h98zM793 1827v-277h-99v277h99zM979 1401v-1401h-98v682q-106 -137 -283 -137h-49q-147 0 -251.5 103.5t-104.5 250.5v502h98v-502q0 -106 75.5 -181t182.5 -75h74q106 0 182 75t76 181v502h98z" />
    <glyph glyph-name="uni04F5" unicode="&#x4f5;" 
d="M522 1470v-276h-98v276h98zM793 1470v-276h-99v276h99zM983 1044v-1044h-98v489q-109 -139 -283 -139h-49q-147 0 -251.5 104.5t-104.5 252.5v337h98v-337q0 -106 75.5 -182t182.5 -76h74q106 0 182 75.5t76 182.5v337h98z" />
    <glyph glyph-name="uni04F6" unicode="&#x4f6;" 
d="M1032 1303h-670v-1205h76v-454h-98v356h-76v1401h768v-98z" />
    <glyph glyph-name="uni04F7" unicode="&#x4f7;" 
d="M1020 946h-658v-848h76v-454h-98v356h-76v1044h756v-98z" />
    <glyph glyph-name="uni04F8" unicode="&#x4f8;" 
d="M424 1550v277h98v-277h-98zM694 1550v277h99v-277h-99zM201 1401h98v-563h82q145 0 250.5 -104.5t105.5 -252.5v-125q0 -147 -105.5 -251.5t-250.5 -104.5h-180v1401zM918 1401h98v-1401h-98v1401zM299 739v-641h82q106 0 182 76t76 182v125q0 109 -76 183.5t-182 74.5
h-82z" />
    <glyph glyph-name="uni04F9" unicode="&#x4f9;" 
d="M424 1194v276h98v-276h-98zM694 1194v276h99v-276h-99zM197 0v1044h98v-438h141q125 0 214 -89t89 -214q0 -127 -89 -215t-214 -88h-239zM922 0v1044h98v-1044h-98zM295 98h141q86 0 145.5 59.5t59.5 145.5q0 84 -59.5 144.5t-145.5 60.5h-141v-410z" />
    <glyph glyph-name="uni0510" unicode="&#x510;" 
d="M954 276l95 -28q-31 -117 -127.5 -191.5t-219.5 -74.5h-100q-147 0 -251.5 103t-104.5 253v68q0 100 55 184t145 125q-84 43 -136 125t-52 180v43q0 147 104.5 251.5t251.5 104.5h88q123 0 219.5 -75.5t125.5 -192.5l-95 -27q-20 86 -89.5 141.5t-160.5 55.5h-88
q-106 0 -182 -76t-76 -182v-43q0 -106 76 -182t182 -76h201v-98h-213q-106 0 -182 -76t-76 -182v-68q0 -106 76 -182t182 -76h100q90 0 159.5 55t92.5 141z" />
    <glyph glyph-name="uni0511" unicode="&#x511;" 
d="M909 231l97 -28q-27 -96 -106 -158.5t-181 -62.5h-201q-123 0 -210 87t-87 210q0 84 44 151.5t118 99.5q-141 80 -141 240q0 121 86 207t207 86h186q98 0 176 -60.5t107 -152.5l-95 -27q-18 61 -70.5 101.5t-117.5 40.5h-186q-82 0 -138.5 -57.5t-56.5 -137.5
q0 -82 56.5 -138.5t138.5 -56.5h182v-98h-199q-82 0 -140.5 -58.5t-58.5 -140t57.5 -140t141.5 -58.5h201q70 0 122 42.5t68 108.5z" />
    <glyph glyph-name="uni051C" unicode="&#x51c;" 
d="M143 1401h99v-275q0 -123 24 -260l129 -729l154 711h121l151 -705l129 723q25 137 25 260v275h98v-275q0 -129 -24 -276l-150 -850h-133l-156 733l-157 -733h-136l-149 850q-25 147 -25 276v275z" />
    <glyph glyph-name="uni051D" unicode="&#x51d;" 
d="M141 913v131h99v-131q0 -121 30 -251l121 -500l164 704h107l163 -704l121 500q31 131 31 251v131h98v-131q0 -141 -33 -274l-153 -639h-115l-166 709l-166 -709h-114l-154 639q-33 133 -33 274z" />
    <glyph glyph-name="uni0524" unicode="&#x524;" 
d="M1001 98h76v-454h-98v356h-76v1303h-590v-1303h-98v1401h786v-1303z" />
    <glyph glyph-name="uni0525" unicode="&#x525;" 
d="M1001 98h76v-454h-98v356h-76v946h-590v-946h-98v1044h786v-946z" />
    <glyph glyph-name="uni0526" unicode="&#x526;" 
d="M1024 98h76v-454h-99v356h-75v502q0 106 -76 181t-182 75h-74q-106 0 -182 -75t-76 -181v-502h-98v1401h98v-682q106 137 282 137h50q147 0 251.5 -103.5t104.5 -250.5v-404z" />
    <glyph glyph-name="uni0527" unicode="&#x527;" 
d="M1008 98h75v-454h-98v356h-76v707q0 109 -75.5 183.5t-182.5 74.5h-73q-106 0 -182.5 -75t-76.5 -183v-707h-98v1401h98v-477q109 139 283 139h49q147 0 252 -104.5t105 -251.5v-609z" />
    <glyph glyph-name="uni0E3F" unicode="&#xe3f;" 
d="M838 715q90 -41 145 -124t55 -185v-50q0 -147 -105.5 -251.5t-250.5 -104.5h-23v-174h-98v174h-321v1401h321v182h98v-182h11q147 0 251.5 -104.5t104.5 -252.5v-24q0 -98 -52 -180t-136 -125zM670 1303h-332v-541h332q106 0 182 75.5t76 182.5v24q0 106 -74.5 182.5
t-183.5 76.5zM940 356v50q0 106 -74.5 182t-183.5 76h-344v-566h344q106 0 182 76t76 182z" />
    <glyph glyph-name="uni1D6B" unicode="&#x1d6b;" horiz-adv-x="1228" 
d="M1133 473h-455v-215q0 -74 52 -126t126 -52q59 0 105.5 35t64.5 90l94 -29q-27 -86 -99.5 -140t-164.5 -54q-72 0 -132 36.5t-95 98.5q-33 -61 -94.5 -98t-133.5 -37q-115 0 -195.5 80.5t-80.5 195.5v786h98v-786q0 -74 53.5 -126t124.5 -52q74 0 126.5 52t52.5 126v786
h98v-65q70 84 178 84q115 0 196 -81t81 -196v-313zM856 965q-74 0 -126 -52.5t-52 -126.5v-215h356v215q0 74 -52 126.5t-126 52.5z" />
    <glyph glyph-name="uni1E04" unicode="&#x1e04;" 
d="M838 715q90 -41 145 -124t55 -185v-50q0 -147 -105.5 -251.5t-250.5 -104.5h-442v1401h430q147 0 251.5 -104.5t104.5 -252.5v-24q0 -98 -52 -180t-136 -125zM670 1303h-332v-541h332q106 0 182 75.5t76 182.5v24q0 106 -74.5 182.5t-183.5 76.5zM940 356v50
q0 106 -74.5 182t-183.5 76h-344v-566h344q106 0 182 76t76 182zM553 -442v276h98v-276h-98z" />
    <glyph glyph-name="uni1E05" unicode="&#x1e05;" 
d="M657 1063q147 0 252 -104.5t105 -251.5v-369q0 -147 -104.5 -251.5t-252.5 -104.5h-49q-174 0 -282 139v-121h-99v1401h99v-477q109 139 282 139h49zM915 338v369q0 109 -74.5 183.5t-183.5 74.5h-73q-109 0 -183.5 -75t-74.5 -183v-369q0 -109 74.5 -183.5t183.5 -74.5
h73q109 0 183.5 74.5t74.5 183.5zM569 -442v276h99v-276h-99z" />
    <glyph glyph-name="uni1E0C" unicode="&#x1e0c;" 
d="M227 0v1401h432q147 0 251 -103.5t104 -253.5v-688q0 -150 -103.5 -253t-251.5 -103h-432zM326 98h333q106 0 181 75t75 183v688q0 109 -74.5 184t-181.5 75h-333v-1205zM547 -442v276h98v-276h-98z" />
    <glyph glyph-name="uni1E0D" unicode="&#x1e0d;" 
d="M891 1401h98v-1401h-98v121q-109 -139 -283 -139h-49q-147 0 -251.5 104t-104.5 252v369q0 147 104.5 251.5t251.5 104.5h49q174 0 283 -139v477zM633 80q109 0 183.5 74.5t74.5 183.5v369q0 109 -75 183.5t-183 74.5h-74q-109 0 -183.5 -75t-74.5 -183v-369
q0 -109 75 -183.5t183 -74.5h74zM551 -442v276h98v-276h-98z" />
    <glyph glyph-name="uni1E0E" unicode="&#x1e0e;" 
d="M227 0v1401h432q147 0 251 -103.5t104 -253.5v-688q0 -150 -103.5 -253t-251.5 -103h-432zM326 98h333q106 0 181 75t75 183v688q0 109 -74.5 184t-181.5 75h-333v-1205zM311 -279v99h570v-99h-570z" />
    <glyph glyph-name="uni1E0F" unicode="&#x1e0f;" 
d="M891 1401h98v-1401h-98v121q-109 -139 -283 -139h-49q-147 0 -251.5 104t-104.5 252v369q0 147 104.5 251.5t251.5 104.5h49q174 0 283 -139v477zM633 80q109 0 183.5 74.5t74.5 183.5v369q0 109 -75 183.5t-183 74.5h-74q-109 0 -183.5 -75t-74.5 -183v-369
q0 -109 75 -183.5t183 -74.5h74zM315 -279v99h570v-99h-570z" />
    <glyph glyph-name="uni1E12" unicode="&#x1e12;" 
d="M227 0v1401h432q147 0 251 -103.5t104 -253.5v-688q0 -150 -103.5 -253t-251.5 -103h-432zM326 98h333q106 0 181 75t75 183v688q0 109 -74.5 184t-181.5 75h-333v-1205zM317 -346l238 237h82l237 -237l-69 -72l-209 211l-209 -211z" />
    <glyph glyph-name="uni1E13" unicode="&#x1e13;" 
d="M891 1401h98v-1401h-98v121q-109 -139 -283 -139h-49q-147 0 -251.5 104t-104.5 252v369q0 147 104.5 251.5t251.5 104.5h49q174 0 283 -139v477zM633 80q109 0 183.5 74.5t74.5 183.5v369q0 109 -75 183.5t-183 74.5h-74q-109 0 -183.5 -75t-74.5 -183v-369
q0 -109 75 -183.5t183 -74.5h74zM559 -109h82l238 -237l-70 -72l-209 211l-209 -211l-69 72z" />
    <glyph glyph-name="uni1E24" unicode="&#x1e24;" 
d="M903 1401h98v-1401h-98v651h-590v-651h-98v1401h98v-651h590v651zM559 -442v276h98v-276h-98z" />
    <glyph glyph-name="uni1E25" unicode="&#x1e25;" 
d="M651 1063q147 0 252 -104.5t105 -251.5v-707h-99v707q0 109 -75.5 183.5t-182.5 74.5h-73q-106 0 -182.5 -75t-76.5 -183v-707h-98v1401h98v-477q109 139 283 139h49zM559 -442v276h98v-276h-98z" />
    <glyph glyph-name="uni1E2E" unicode="&#x1e2e;" 
d="M604 1866l-69 69l243 242l70 -70zM424 1550v277h98v-277h-98zM694 1550v277h99v-277h-99zM215 98h344v1205h-332v98h762v-98h-332v-1205h344v-98h-786v98z" />
    <glyph glyph-name="uni1E2F" unicode="&#x1e2f;" 
d="M647 1509l-69 70l243 242l70 -70zM467 1194v276h98v-276h-98zM737 1194v276h99v-276h-99zM295 1044h405v-946h351v-98h-824v98h375v848h-307v98z" />
    <glyph glyph-name="uni1E36" unicode="&#x1e36;" 
d="M264 1401h98v-1303h670v-98h-768v1401zM600 -442v276h98v-276h-98z" />
    </font>
</defs>
</svg>
